<?xml version="1.0"?>
<svg xmlns="http://www.w3.org/2000/svg" xmlns:xlink="http://www.w3.org/1999/xlink" height="737.9599990844727" version="1.1" width="767.9199638366699" id="temp" viewBox="0 0 767.9199638366699 737.9599990844727"><defs/><g id="Model" class="Model v1-1"><g class="Floor"><g id="Floor-1" transform="matrix(1,0,0,1,0,0)" class="Floorplan Floor-1"><g id="f58cc446-6313-4c65-acd6-1433e37b7cdf" class="Space DressingRoom" fill="#ffffff" stroke="#ffffff" style="fill-opacity: 1; stroke-opacity: 1; stroke-width: 0.2;"><polygon points="250.40,373.12 300.39,373.12 300.39,483.04 53.48,483.04 53.48,372.95 250.40,372.95 "/><g transform="matrix(1,0,0,1,53.48,372.945)" class="Dimension"><g transform="matrix(1,0,0,1,0,0)" style="display: none;" class="Visual"><g id="mark1" fill="#000000" stroke="none" transform="matrix(1,0,0,1,123.4531,0)" style="fill-opacity: 1; pointer-events: visible;" class="DimensionMark"><polygon points="-5,5,0,0,5,5"/></g><g id="mark2" fill="#000000" stroke="none" transform="matrix(1,0,0,1,246.9062,55.0453)" style="fill-opacity: 1; pointer-events: visible;" class="DimensionMark"><polygon points="-5,-5,0,0,-5,5"/></g><g id="mark3" fill="#000000" stroke="none" transform="matrix(1,0,0,1,123.4531,110.0905)" style="fill-opacity: 1; pointer-events: visible;" class="DimensionMark"><polygon points="-5,-5,0,0,5,-5"/></g><g id="mark4" fill="#000000" stroke="none" transform="matrix(1,0,0,1,0,55.0453)" style="fill-opacity: 1; pointer-events: visible;" class="DimensionMark"><polygon points="5,5,0,0,5,-5"/></g></g><g transform="matrix(1,0,0,1,89.6009,68.8675)" class="SpaceDimensionsLabel"><g id="NameLabel" style="display: none;" class="TextLabel NameLabel"><text x="0" y="0em" fill="#000000" stroke="none" style="font-family: Verdana; font-size: 33px; fill-opacity: 1; cursor: default;">PKH</text></g><g id="DimensionMeasureLabel" transform="matrix(1,0,0,1,-106.2266,79.5938)" style="display: none;" class="TextLabel DimensionMeasureLabel"><text x="52.6796875" y="-1.2em" fill="#000000" stroke="none" style="font-family: Verdana; font-size: 33px; fill-opacity: 1; cursor: default;">8'1" x 3'7"</text><text x="0" y="0em" fill="#000000" stroke="none" style="font-family: Verdana; font-size: 33px; fill-opacity: 1; cursor: default;">2.47 m x 1.10 m</text></g></g></g></g><g id="d02ea82a-a5bb-4c87-b6df-ce6e8d643220" class="Space Undefined" fill="#ffffff" stroke="#ffffff" style="fill-opacity: 1; stroke-opacity: 1; stroke-width: 0.2;"><polygon points="300.39,324.39 250.40,324.39 250.40,359.95 53.48,359.95 53.48,136.02 300.39,136.02 "/><g transform="matrix(1,0,0,1,53.48,136.0187)" class="Dimension"><g transform="matrix(1,0,0,1,0,0)" style="display: none;" class="Visual"><g id="mark1" fill="#000000" stroke="none" transform="matrix(1,0,0,1,123.4531,0)" style="fill-opacity: 1; pointer-events: visible;" class="DimensionMark"><polygon points="-5,5,0,0,5,5"/></g><g id="mark2" fill="#000000" stroke="none" transform="matrix(1,0,0,1,246.9062,111.9632)" style="fill-opacity: 1; pointer-events: visible;" class="DimensionMark"><polygon points="-5,-5,0,0,-5,5"/></g><g id="mark3" fill="#000000" stroke="none" transform="matrix(1,0,0,1,123.4531,223.9264)" style="fill-opacity: 1; pointer-events: visible;" class="DimensionMark"><polygon points="-5,-5,0,0,5,-5"/></g><g id="mark4" fill="#000000" stroke="none" transform="matrix(1,0,0,1,0,111.9632)" style="fill-opacity: 1; pointer-events: visible;" class="DimensionMark"><polygon points="5,5,0,0,5,-5"/></g></g><g transform="matrix(1,0,0,1,39.3963,135.461)" class="SpaceDimensionsLabel"><g id="NameLabel" style="display: none;" class="TextLabel NameLabel"><text x="0" y="0em" fill="#000000" stroke="none" style="font-family: Verdana; font-size: 33px; fill-opacity: 1; cursor: default;">UNDEFINED</text></g><g id="DimensionMeasureLabel" transform="matrix(1,0,0,1,-40.5313,79.5938)" style="display: none;" class="TextLabel DimensionMeasureLabel"><text x="52.6796875" y="-1.2em" fill="#000000" stroke="none" style="font-family: Verdana; font-size: 33px; fill-opacity: 1; cursor: default;">8'1" x 7'4"</text><text x="0" y="0em" fill="#000000" stroke="none" style="font-family: Verdana; font-size: 33px; fill-opacity: 1; cursor: default;">2.47 m x 2.24 m</text></g></g></g></g><g id="407ed542-dff5-4640-b259-b3e92909bc78" class="Space Room" fill="#ffffff" stroke="#ffffff" style="fill-opacity: 1; stroke-opacity: 1; stroke-width: 0.2;"><polygon points="740.23,483.04 310.39,483.04 310.39,136.02 740.23,136.02 "/><g transform="matrix(1,0,0,1,310.3862,136.0187)" class="Dimension"><g transform="matrix(1,0,0,1,0,0)" style="display: none;" class="Visual"><g id="mark1" fill="#000000" stroke="none" transform="matrix(1,0,0,1,214.9211,0)" style="fill-opacity: 1; pointer-events: visible;" class="DimensionMark"><polygon points="-5,5,0,0,5,5"/></g><g id="mark2" fill="#000000" stroke="none" transform="matrix(1,0,0,1,429.8422,173.5084)" style="fill-opacity: 1; pointer-events: visible;" class="DimensionMark"><polygon points="-5,-5,0,0,-5,5"/></g><g id="mark3" fill="#000000" stroke="none" transform="matrix(1,0,0,1,214.9211,347.0169)" style="fill-opacity: 1; pointer-events: visible;" class="DimensionMark"><polygon points="-5,-5,0,0,5,-5"/></g><g id="mark4" fill="#000000" stroke="none" transform="matrix(1,0,0,1,0,173.5084)" style="fill-opacity: 1; pointer-events: visible;" class="DimensionMark"><polygon points="5,5,0,0,5,-5"/></g></g><g transform="matrix(1,0,0,1,183.9906,187.1353)" class="SpaceDimensionsLabel"><g id="NameLabel" style="display: none;" class="TextLabel NameLabel"><text x="0" y="0em" fill="#000000" stroke="none" style="font-family: Verdana; font-size: 33px; fill-opacity: 1; cursor: default;">TUPA</text></g><g id="DimensionMeasureLabel" transform="matrix(1,0,0,1,-97.3047,79.5938)" style="display: none;" class="TextLabel DimensionMeasureLabel"><text x="31.6953125" y="-1.2em" fill="#000000" stroke="none" style="font-family: Verdana; font-size: 33px; fill-opacity: 1; cursor: default;">14'1" x 11'5"</text><text x="0" y="0em" fill="#000000" stroke="none" style="font-family: Verdana; font-size: 33px; fill-opacity: 1; cursor: default;">4.30 m x 3.47 m</text></g></g></g></g><g id="fef6ed62-0537-4ce3-aa85-1c2f5ac029bb" class="Space Outdoor Porch" fill="#ffffff" stroke="#000000" style="stroke-width: 0.2; fill-opacity: 1; stroke-opacity: 1;"><polygon points="53.48,493.04 53.48,677.82 376.66,675.73 376.66,666.55 740.23,666.55 740.23,493.08 53.48,493.04 53.48,493.04 "/><g transform="matrix(1,0,0,1,53.48,493.0586)" class="Dimension"><g transform="matrix(1,0,0,1,0,0)" style="display: none;" class="Visual"><g id="mark1" fill="#000000" stroke="none" transform="matrix(1,0,0,1,343.3734,0)" style="fill-opacity: 1; pointer-events: visible;" class="DimensionMark"><polygon points="-5,5,0,0,5,5"/></g><g id="mark2" fill="#000000" stroke="none" transform="matrix(1,0,0,1,686.7469,92.3692)" style="fill-opacity: 1; pointer-events: visible;" class="DimensionMark"><polygon points="-5,-5,0,0,-5,5"/></g><g id="mark3" fill="#000000" stroke="none" transform="matrix(1,0,0,1,343.3734,173.4915)" style="fill-opacity: 1; pointer-events: visible;" class="DimensionMark"><polygon points="-5,-5,0,0,5,-5"/></g><g id="mark4" fill="#000000" stroke="none" transform="matrix(1,0,0,1,0,92.3692)" style="fill-opacity: 1; pointer-events: visible;" class="DimensionMark"><polygon points="5,5,0,0,5,-5"/></g></g><g transform="matrix(1,0,0,1,262.0896,126.1685)" class="SpaceDimensionsLabel"><g id="NameLabel" style="display: none;" class="TextLabel NameLabel"><text x="0" y="0em" fill="#000000" stroke="none" style="font-family: Verdana; font-size: 33px; fill-opacity: 1; cursor: default;">KUISTI</text></g><g id="DimensionMeasureLabel" transform="matrix(1,0,0,1,-81.1641,79.5938)" style="display: none;" class="TextLabel DimensionMeasureLabel"><text x="42.1875" y="-1.2em" fill="#000000" stroke="none" style="font-family: Verdana; font-size: 33px; fill-opacity: 1; cursor: default;">22'6" x 5'8"</text><text x="0" y="0em" fill="#000000" stroke="none" style="font-family: Verdana; font-size: 33px; fill-opacity: 1; cursor: default;">6.87 m x 1.73 m</text></g></g></g></g><g id="Wall" class="Wall External" fill="#000000" stroke="#000000" style="fill-opacity: 1; stroke-opacity: 1; stroke-width: 0.2;"><polygon points="28.45,126.02 765.29,126.02 765.29,136.02 28.45,136.02 "/><g id="Window" fill="#f0f0ff" stroke="#000000" style="fill-opacity: 1; stroke-width: 1; stroke-opacity: 1;" class="Window Regular"><polygon points="528.28,126.02 671.79,126.02 671.79,136.02 528.28,136.02 "/><g id="Glass" class="Glass"><polygon points="528.28,126.02 671.79,126.02 671.79,136.02 528.28,136.02 "/></g><g id="Panel" class="Panel"><line x1="535.780029296875" x2="664.2899780273438" y1="131.02000045776367" y2="131.02000045776367"/><line x1="535.780029296875" x2="535.780029296875" y1="126.0199966430664" y2="136.02000427246094"/><line x1="664.2899780273438" x2="664.2899780273438" y1="126.0199966430664" y2="136.02000427246094"/></g></g></g><g id="Wall" class="Wall External" fill="#000000" stroke="#000000" style="fill-opacity: 1; stroke-opacity: 1; stroke-width: 0.2;"><polygon points="750.23,110.71 750.23,508.23 740.23,508.23 740.23,110.71 "/></g><g id="Wall" class="Wall External" fill="#000000" stroke="#000000" style="fill-opacity: 1; stroke-opacity: 1; stroke-width: 0.2;"><polygon points="764.65,493.04 27.77,493.04 27.77,483.04 764.65,483.04 "/><g id="Door" fill="#ffffff" stroke="#000000" style="fill-opacity: 1; stroke-width: 1; stroke-opacity: 1;" class="Door Swing Beside"><polygon points="208.92,493.04 127.99,493.04 127.99,483.04 208.92,483.04 "/><g id="Threshold" class="Threshold"><polygon points="208.92,493.04 127.99,493.04 127.99,483.04 208.92,483.04 "/></g><g id="Panel" fill="none" style="" class="Panel Left Negative"><g id="PanelArea" fill="none" stroke="none" style="" class="PanelArea"><polygon points="208.92,493.04 127.99,493.04 127.99,483.04 208.92,483.04 "/></g><path d="M208.92,493.04 q0.00,80.93 -80.93,80.93 l0.00,-80.93Z"/></g></g><g id="Door" fill="#ffffff" stroke="#000000" style="fill-opacity: 1; stroke-width: 1; stroke-opacity: 1;" class="Door Swing Beside"><polygon points="443.10,493.04 361.83,493.04 361.83,483.04 443.10,483.04 "/><g id="Threshold" class="Threshold"><polygon points="443.10,493.04 361.83,493.04 361.83,483.04 443.10,483.04 "/></g><g id="Panel" fill="none" style="" class="Panel Right Negative"><g id="PanelArea" fill="none" stroke="none" style="" class="PanelArea"><polygon points="443.10,493.04 361.83,493.04 361.83,483.04 443.10,483.04 "/></g><path d="M361.83,493.04 q0.00,81.27 81.27,81.27 l0.00,-81.27Z"/></g></g><g id="Window" fill="#f0f0ff" stroke="#000000" style="fill-opacity: 1; stroke-width: 1; stroke-opacity: 1;" class="Window Regular"><polygon points="672.68,493.04 529.86,493.04 529.86,483.04 672.68,483.04 "/><g id="Glass" class="Glass"><polygon points="672.68,493.04 529.86,493.04 529.86,483.04 672.68,483.04 "/></g><g id="Panel" class="Panel"><line x1="665.1799926757812" x2="537.3599853515625" y1="488.0400085449219" y2="488.0400085449219"/><line x1="665.1799926757812" x2="665.1799926757812" y1="493.0400085449219" y2="483.0400085449219"/><line x1="537.3599853515625" x2="537.3599853515625" y1="493.0400085449219" y2="483.0400085449219"/></g></g></g><g id="Wall" class="Wall External" fill="#000000" stroke="#000000" style="fill-opacity: 1; stroke-opacity: 1; stroke-width: 0.2;"><polygon points="43.48,111.22 43.48,508.07 53.48,508.07 53.48,111.22 "/><g id="Window" fill="#f0f0ff" stroke="#000000" style="fill-opacity: 1; stroke-width: 1; stroke-opacity: 1;" class="Window Regular"><polygon points="43.48,279.18 43.48,330.53 53.48,330.53 53.48,279.18 "/><g id="Glass" class="Glass"><polygon points="43.48,279.18 43.48,330.53 53.48,330.53 53.48,279.18 "/></g><g id="Panel" class="Panel"><line x1="48.47999954223633" x2="48.47999954223633" y1="286.67999267578125" y2="323.0299987792969"/><line x1="43.47999954223633" x2="53.47999954223633" y1="286.67999267578125" y2="286.67999267578125"/><line x1="43.47999954223633" x2="53.47999954223633" y1="323.0299987792969" y2="323.0299987792969"/></g></g></g><g id="Wall" class="Wall" fill="#000000" stroke="#000000" style="fill-opacity: 1; stroke-opacity: 1; stroke-width: 0.2;"><polygon points="300.39,111.02 300.39,509.43 310.39,509.43 310.39,111.02 "/></g><g id="Wall" class="Wall" fill="#000000" stroke="#000000" style="fill-opacity: 1; stroke-opacity: 1; stroke-width: 0.2;"><polygon points="43.48,359.95 250.40,359.95 250.40,372.95 43.48,372.95 "/><g id="Door" fill="#ffffff" stroke="#000000" style="fill-opacity: 1; stroke-width: 1; stroke-opacity: 1;" class="Door Swing Beside"><polygon points="66.52,359.95 135.27,359.95 135.27,372.95 66.52,372.95 "/><g id="Threshold" class="Threshold"><polygon points="66.52,359.95 135.27,359.95 135.27,372.95 66.52,372.95 "/></g><g id="Panel" fill="none" style="" class="Panel Left Positive"><g id="PanelArea" fill="none" stroke="none" style="" class="PanelArea"><polygon points="66.52,359.95 135.27,359.95 135.27,372.95 66.52,372.95 "/></g><path d="M135.27,372.95 q0.00,68.75 -68.75,68.75 l0.00,-68.75Z"/></g></g></g><g id="Wall" class="Wall" fill="#000000" stroke="#000000" style="fill-opacity: 1; stroke-opacity: 1; stroke-width: 0.2;"><polygon points="250.40,324.39 310.39,324.39 310.39,373.12 250.40,373.12 "/></g><g id="Stairs" class="Stairs" fill="#ffffff" stroke="#000000" style="fill-opacity: 1; stroke-opacity: 1;"><g id="Flight" class="Flight"><polygon points="53.72,737.96 53.48,677.82 392.86,677.82 393.11,737.96 "/><g class="WalkinLine "><path fill="none" stroke="#d3d3d3" d="M223.41,737.96 L223.17,677.82 " style="pointer-events: none; marker-end: url(&quot;#Marker2&quot;);"/><defs><marker viewBox="0 0 12 12" markerWidth="12" markerHeight="12" orient="auto" refX="11" refY="6" id="Marker2" fill="#d3d3d3" stroke="#d3d3d3" style="pointer-events: none;"><polygon points="0.00,0.00 0.00,12.00 10.00,6.00 0.00,0.00 "/></marker></defs></g><g id="Steps" class="Steps"><line x1="53.720001220703125" x2="393.0999870300293" y1="737.9600219726562" y2="737.9600219726562"/><line x1="53.60000038146973" x2="392.9799861907959" y1="707.8900146484375" y2="707.8900146484375"/><line x1="53.47999954223633" x2="392.8599853515625" y1="677.8200073242188" y2="677.8200073242188"/></g></g></g><g id="Railing" class="Railing" fill="#ffffff" stroke="#000000" style="fill-opacity: 1; stroke-opacity: 1; stroke-width: 0.2;"><polygon points="53.48,508.07 53.48,692.74 43.48,692.74 43.48,508.07 "/></g><g id="Railing" class="Railing" fill="#ffffff" stroke="#000000" style="fill-opacity: 1; stroke-opacity: 1; stroke-width: 0.2;"><polygon points="740.23,508.23 740.23,691.04 750.23,691.04 750.23,508.23 "/></g><g id="Railing" class="Railing" fill="#ffffff" stroke="#000000" style="fill-opacity: 1; stroke-opacity: 1; stroke-width: 0.2;"><polygon points="28.42,667.56 70.33,667.56 70.33,677.56 28.42,677.56 "/></g><g id="Railing" class="Railing" fill="#ffffff" stroke="#000000" style="fill-opacity: 1; stroke-opacity: 1; stroke-width: 0.2;"><polygon points="376.66,677.21 767.92,677.21 767.92,667.21 376.66,667.21 "/></g><g id="Column" class="Column Rectangle" fill="#000000" stroke="none" style="fill-opacity: 1;"><polygon points="53.48,677.82 42.95,677.82 42.95,666.86 53.48,666.86 "/></g><g id="FixedFurnitureSet" transform="matrix(1,0,0,1,53.48,136.2374)" class="FixedFurnitureSet"><g class="FixedFurniture SaunaBenchHigh" fill="#ffffff" stroke="#000000" transform="matrix(1,0,0,1,0,0)" style="fill-opacity: 1; stroke-opacity: 1;">
        <g class="BoundaryPolygon">
            <polygon points="0.00,0.00 246.88,0.00 246.88,60.00 0.00,60.00 "/>
        </g>
        <g class="Bench" stroke="#9a9a9a" stroke-width="0.5">
            <line x1="0" y1="4" x2="246.87859116337478" y2="4"/>
            <line x1="0" y1="8" x2="246.87859116337478" y2="8"/>
            <line x1="0" y1="12" x2="246.87859116337478" y2="12"/>
            <line x1="0" y1="16" x2="246.87859116337478" y2="16"/>
            <line x1="0" y1="20" x2="246.87859116337478" y2="20"/>
            <line x1="0" y1="24" x2="246.87859116337478" y2="24"/>
            <line x1="0" y1="28" x2="246.87859116337478" y2="28"/>
            <line x1="0" y1="32" x2="246.87859116337478" y2="32"/>
            <line x1="0" y1="36" x2="246.87859116337478" y2="36"/>
            <line x1="0" y1="40" x2="246.87859116337478" y2="40"/>
            <line x1="0" y1="44" x2="246.87859116337478" y2="44"/>
            <line x1="0" y1="48" x2="246.87859116337478" y2="48"/>
            <line x1="0" y1="52" x2="246.87859116337478" y2="52"/>
            <line x1="0" y1="56" x2="246.87859116337478" y2="56"/>
        </g>
        <g class="Direction" fill-opacity="0.9" style="display: none;">
            <polygon points="127.32,54.66 127.32,44.04 124.31,44.04 124.31,54.66 120.51,54.66 125.81,59.96 131.12,54.66 127.32,54.66 " fill="#444444"/>
        </g> 
        <g class="Name" fill-opacity="0.9" style="display: none;">
            <text transform="translate(3 12)" font-size="12" font-family="Verdana, Sans-Serif">SB_HIGH</text>
        </g>
        <desc>Width:185 Height:5 Depth:60 Elevation:105</desc>
    </g><g class="FixedFurniture SaunaBenchMid" fill="#ffffff" stroke="#000000" transform="matrix(1,0,0,1,0,60)" style="fill-opacity: 1; stroke-opacity: 1;">
        <g class="BoundaryPolygon">
            <polygon points="0.00,0.00 246.88,0.00 246.88,40.00 0.00,40.00 "/>
        </g>
        <g class="Bench" fill="#ffffff" stroke="#9a9a9a" stroke-width="0.5">
            <line x1="0" y1="4" x2="246.87859116337478" y2="4"/>
            <line x1="0" y1="8" x2="246.87859116337478" y2="8"/>
            <line x1="0" y1="12" x2="246.87859116337478" y2="12"/>
            <line x1="0" y1="16" x2="246.87859116337478" y2="16"/>
            <line x1="0" y1="20" x2="246.87859116337478" y2="20"/>
            <line x1="0" y1="24" x2="246.87859116337478" y2="24"/>
            <line x1="0" y1="28" x2="246.87859116337478" y2="28"/>
            <line x1="0" y1="32" x2="246.87859116337478" y2="32"/>
            <line x1="0" y1="36" x2="246.87859116337478" y2="36"/>
        </g>
        <g class="Direction" fill-opacity="0.9" style="display: none;">
            <polygon points="125.45,34.66 125.45,24.04 122.44,24.04 122.44,34.66 118.64,34.66 123.94,39.96 129.25,34.66 125.45,34.66 " fill="#444444"/>
        </g> 
        <g class="Name" fill-opacity="0.9" style="display: none;">
            <text transform="translate(3 12)" font-size="12" font-family="Verdana, Sans-Serif">SB_MID</text>
        </g>
            <desc>Width:185 Height:5 Depth:40 Elevation:60</desc>
    </g><g class="FixedFurniture SaunaBenchLow" fill="#ffffff" stroke="#000000" transform="matrix(1,0,0,1,0,100)" style="fill-opacity: 1; stroke-opacity: 1;">
        <g class="BoundaryPolygon">
            <polygon points="0.00,0.00 121.44,0.00 121.44,40.00 0.00,40.00 "/>
        </g>
        <g class="Bench" fill="#ffffff" stroke="#9a9a9a" stroke-width="0.5">
            <line x1="0" y1="4" x2="121.43757727495735" y2="4"/>
            <line x1="0" y1="8" x2="121.43757727495735" y2="8"/>
            <line x1="0" y1="12" x2="121.43757727495735" y2="12"/>
            <line x1="0" y1="16" x2="121.43757727495735" y2="16"/>
            <line x1="0" y1="20" x2="121.43757727495735" y2="20"/>
            <line x1="0" y1="24" x2="121.43757727495735" y2="24"/>
            <line x1="0" y1="28" x2="121.43757727495735" y2="28"/>
            <line x1="0" y1="32" x2="121.43757727495735" y2="32"/>
            <line x1="0" y1="36" x2="121.43757727495735" y2="36"/>
        </g>
        <g class="Direction" fill-opacity="0.9" style="display: none;">
            <polygon points="62.80,34.66 62.80,24.04 59.79,24.04 59.79,34.66 55.99,34.66 61.29,39.96 66.59,34.66 62.80,34.66 " fill="#444444"/>
        </g> 
        <g class="Name" fill-opacity="0.9" style="display: none;">
            <text transform="translate(3 12)" font-size="12" font-family="Verdana, Sans-Serif">SB_LOW</text>
        </g>
        <desc>Width:91 Height:5 Depth:40 Elevation:30</desc>
    </g></g><g class="FixedFurniture Fireplace" fill="#ffffff" stroke="#000000" transform="matrix(0,-1.0573,1.1231,0,310.3862,372.1544)" style="fill-opacity: 1; stroke-opacity: 1;">     
	    <g class="BoundaryPolygon"> 
		    <polygon points="0,0 75,0 75,60 0,60"/> 
		</g>
	    <g class="Lines" fill="none" stroke="#4c4c4c"> 
		    <line x1="0.629" y1="9.556" x2="51.294" y2="60.205"/>
            <line x1="0.598" y1="25.167" x2="35.942" y2="60.5"/>
            <line x1="0.5" y1="40.841" x2="20.479" y2="60.5"/>
            <line x1="40.648" y1="0.5" x2="75.432" y2="35.274"/>
            <line x1="8.329" y1="0.5" x2="68.348" y2="60.5"/>
            <line x1="24.88" y1="0.5" x2="75.5" y2="51.104"/>
            <line x1="56.774" y1="0.5" x2="75.5" y2="19.22"/>
		</g>
	    <g class="FireBox">  &gt;	
		    <rect x="22.053" y="19.92" width="32.571" height="40.58"/>
	    </g>
        <g class="Direction" fill-opacity="0.9" style="display: none;">
            <polygon points="39.409 54.797 39.409 44.181 36.4 44.181 36.4 54.797 32.597 54.797 37.9 60.1 43.203 54.797 39.409 54.797" fill="#444444"/>
        </g> 
        <g class="Name" fill-opacity="0.9" style="display: none;">
            <text transform="translate(3 12)" font-size="12" font-family="Verdana, Sans-Serif">FP</text>
        </g>
        <desc>Width:75 Height:120 Depth:60 Elevation:0</desc>
    </g><g class="FixedFurniture SaunaBenchMid" fill="#ffffff" stroke="#000000" transform="matrix(0,1,-1,0,300.2613,389.6438)" style="fill-opacity: 1; stroke-opacity: 1;">
        <g class="BoundaryPolygon">
            <polygon points="0.00,0.00 93.39,0.00 93.39,33.37 0.00,33.37 "/>
        </g>
        <g class="Bench" stroke="#9a9a9a" stroke-width="0.5">
            <line x1="0" y1="3.3365436043616836" x2="93.39179466548424" y2="3.3365436043616836"/>
            <line x1="0" y1="6.673087208723367" x2="93.39179466548424" y2="6.673087208723367"/>
            <line x1="0" y1="10.00963081308505" x2="93.39179466548424" y2="10.00963081308505"/>
            <line x1="0" y1="13.346174417446734" x2="93.39179466548424" y2="13.346174417446734"/>
            <line x1="0" y1="16.682718021808412" x2="93.39179466548424" y2="16.682718021808412"/>
            <line x1="0" y1="20.0192616261701" x2="93.39179466548424" y2="20.0192616261701"/>
            <line x1="0" y1="23.355805230531775" x2="93.39179466548424" y2="23.355805230531775"/>
            <line x1="0" y1="26.69234883489347" x2="93.39179466548424" y2="26.69234883489347"/>
            <line x1="0" y1="30.028892439255152" x2="93.39179466548424" y2="30.028892439255152"/>
        </g>
        <g class="Direction" fill-opacity="0.9" style="display: none;">
            <polygon points="47.46,28.91 47.46,18.29 44.45,18.29 44.45,28.91 40.65,28.91 45.95,34.21 51.25,28.91 47.46,28.91 " fill="#444444"/>
        </g> 
        <g class="Name" fill-opacity="0.9" style="display: none;">
            <text transform="translate(3 12)" font-size="12" font-family="Verdana, Sans-Serif">SB_MID</text>
        </g>
        <desc>Width:185 Height:5 Depth:40 Elevation:60</desc>
    </g><g class="FixedFurniture ElectricalAppliance SaunaStove" fill="#ffffff" stroke="#000000" transform="matrix(-1.013,0,0,-1.2254,300.3862,324.254)" style="fill-opacity: 1; stroke-opacity: 1;"> 
	   <g class="BoundaryPolygon"> 
		    <polygon points="0,0 60,0 60,35 0,35"/>
		</g>
	    <g class="electricitySign" fill="none">
		    <polyline points="0 35 39.7 17.5 21.4 17.5 60 0"/>
		</g>
        <g class="Direction" fill-opacity="0.9" style="display: none;">
            <polygon points="31.509 29.697 31.509 19.081 28.5 19.081 28.5 29.697 24.697 29.697 30 35 35.303 29.697 31.509 29.697" fill="#444444"/>
        </g> 
        <g class="Name" fill-opacity="0.9" style="display: none;">
            <text transform="translate(3 12)" font-size="12" font-family="Verdana, Sans-Serif">SS</text>
        </g>
        <desc>Width:60 Height:60 Depth:35 Elevation:20</desc>
	</g><g class="FixedFurniture ElectricalAppliance Refrigerator" fill="#ffffff" stroke="#000000" transform="matrix(0.8737,0,0,1.0448,310.3863,136.1982)" style="fill-opacity: 1; stroke-opacity: 1;">
        <g class="BoundaryPolygon">
            <polygon points="0,0 60,0 60,60 0,60"/>
        </g>
        <g class="electricitySign" fill="none">
            <path d="M0,0,30,37.1v-18L60,56.3"/>
        </g>
        <g class="Doors">
            <rect y="56" width="60" height="4"/>
        </g>
        <g class="Direction" fill-opacity="0.9" style="display: none;">
            <polygon points="32.009 55.197 32.009 44.581 29 44.581 29 55.197 25.197 55.197 30.5 60 35.803 55.197 32.009 55.197" fill="#444444"/>
        </g> 
        <g class="Name" fill-opacity="0.9" style="display: none;">
            <text transform="translate(3 12)" font-size="12" font-family="Verdana, Sans-Serif">REF</text>
        </g>
        <desc>Width:60 Height:170 Depth:60 Elevation:0</desc>
    </g><g class="FixedFurniture BaseCabinet" fill="#ffffff" stroke="#000000" transform="matrix(1,0,0,1,362.8064,136.0187)" style="fill-opacity: 1; stroke-opacity: 1;">
        <g class="BoundaryPolygon">
            <polygon points="0.00,0.00 115.75,0.00 115.75,63.18 0.00,63.18 "/>
        </g>
        <g class="Direction" fill-opacity="0.9" style="display: none;">
            <polygon points="61.75,58.12 61.75,47.51 58.74,47.51 58.74,58.12 54.94,58.12 60.24,62.92 65.54,58.12 61.75,58.12 " fill="#444444"/>
        </g> 
        <g class="Name" fill-opacity="0.9" style="display: none;">
            <text transform="translate(3 12)" font-size="12" font-family="Verdana, Sans-Serif">CB</text>
        </g>
        <desc>Width:60 Height:90 Depth:60 Elevation:0</desc>
    </g><g class="FixedFurniture Sink" fill="#ffffff" stroke="#000000" transform="matrix(1,0,0,1,362.8063,136.0187)" style="fill-opacity: 1; stroke-opacity: 1;">
        <g class="BoundaryPolygon" fill="none" stroke="none">
            <polygon points="0.00,0.00 39.46,0.00 39.46,53.15 0.00,53.15 "/>
        </g>
        <g class="InnerPolygon">
            <polygon points="3.29,9.70 36.17,9.70 36.17,48.46 3.29,48.46 "/>
        </g>
        <g class="OuterDrain" stroke-width="0.8">
            <circle cx="19.730445220873722" cy="28.525781512357046" r="3.5"/>
        </g>
        <g class="InnerDrain" stroke-width="0.8">
            <circle cx="19.730445220873722" cy="28.525781512357046" r="2"/>
        </g>
        <g class="Faucet">
            <polygon points="17.76,4.43 23.76,4.43 23.76,18.43 17.76,18.43 "/>
        </g>
        <g class="Direction" fill-opacity="0.9" style="display: none;">
            <polygon points="21.05,48.90 21.05,38.28 18.04,38.28 18.04,48.90 14.24,48.90 19.54,53.70 24.85,48.90 21.05,48.90 " fill="#444444"/>
        </g> 
        <g class="Name" fill-opacity="0.9" style="display: none;">
            <text transform="translate(3 12)" font-size="12" font-family="Verdana, Sans-Serif">SINK</text>
        </g>
        <desc>Width:60 Height:90 Depth:60 Elevation:0</desc>
    </g><g class="FixedFurniture ElectricalAppliance IntegratedStove" fill="#ffffff" stroke="#000000" transform="matrix(1,0,0,1,402.2672,136.4033)" style="fill-opacity: 1; stroke-opacity: 1;">
        <g class="BoundaryPolygon" fill="none" stroke="none">
            <polygon points="0.00,0.00 42.62,0.00 42.62,62.79 0.00,62.79 "/>
        </g>
        <g class="InnerPolygon">
            <polygon points="2.00,2.00 41.20,2.00 41.20,60.70 2.00,60.70 "/>
        </g>
        <g class="OuterCircle">
            <circle cx="11.364303285309466" cy="16.745067626151634" r="8"/>
            <circle cx="31.251834034601032" cy="16.745067626151634" r="8"/>
            <circle cx="11.364303285309466" cy="46.048935971917" r="8"/>
            <circle cx="31.251834034601032" cy="46.048935971917" r="8"/>
        </g>
        <g class="Direction" fill-opacity="0.9" style="display: none;">
            <polygon points="22.73,57.77 22.73,47.15 19.73,47.15 19.73,57.77 15.92,57.77 21.23,62.57 26.53,57.77 22.73,57.77 " fill="#444444"/>
        </g> 
        <g class="Name" fill-opacity="0.9" style="display: none;">
            <text transform="translate(3 12)" font-size="12" font-family="Verdana, Sans-Serif">INT_STOVE</text>
        </g>
        <desc>Width:60 Height:90 Depth:30 Elevation:0</desc>
    </g><g class="FixedFurniture WallCabinet" fill="#ffffff" stroke="#000000" transform="matrix(1,0,0,1,362.8063,136.0187)" style="fill-opacity: 0.7; stroke-opacity: 1;">	
        <g class="BoundaryPolygon">
            <polygon points="0.00,0.00 40.22,0.00 40.22,30.00 0.00,30.00 "/>
        </g>
        <g class="Direction" fill-opacity="0.9" style="display: none;">
            <polygon points="21.46,25.20 21.46,14.58 18.45,14.58 18.45,25.20 14.65,25.20 19.95,30.00 25.26,25.20 21.46,25.20 " fill="#444444"/>
        </g> 
        <g class="Name" fill-opacity="0.9" style="display: none;">
            <text transform="translate(3 12)" font-size="12" font-family="Verdana, Sans-Serif">UC</text>
        </g>
        <desc>Width:60 Height:60 Depth:30 Elevation:140</desc>
    </g><g class="FixedFurniture WallCabinet" fill="#ffffff" stroke="#000000" transform="matrix(1,0,0,1,444.8833,136.0187)" style="fill-opacity: 0.7; stroke-opacity: 1;">	
        <g class="BoundaryPolygon">
            <polygon points="0.00,0.00 34.08,0.00 34.08,30.00 0.00,30.00 "/>
        </g>
        <g class="Direction" fill-opacity="0.9" style="display: none;">
            <polygon points="18.18,25.20 18.18,14.58 15.17,14.58 15.17,25.20 11.37,25.20 16.67,30.00 21.98,25.20 18.18,25.20 " fill="#444444"/>
        </g> 
        <g class="Name" fill-opacity="0.9" style="display: none;">
            <text transform="translate(3 12)" font-size="12" font-family="Verdana, Sans-Serif">UC</text>
        </g>
        <desc>Width:60 Height:60 Depth:30 Elevation:140</desc>
    </g><g class="FixedFurniture CoatCloset" fill="#ffffff" stroke="#000000" transform="matrix(0,-1,1,0,310.5112,483.0356)" style="fill-opacity: 1; stroke-opacity: 1;">
        <g class="BoundaryPolygon">
            <polygon points="0.00,0.00 92.34,0.00 92.34,37.75 0.00,37.75 "/>
        </g>
        <g class="Hanger" fill="#ffffff" stroke="#9a9a9a" stroke-dasharray="5,5">
            <line x1="0" y1="18.876430225596906" x2="92.34478734041075" y2="18.876430225596906"/>
        </g>
        <g class="Direction" fill-opacity="0.9" style="display: none;">
            <polygon points="47.33,34.30 47.33,23.69 44.32,23.69 44.32,34.30 40.52,34.30 45.82,39.61 51.13,34.30 47.33,34.30 " fill="#444444"/>
        </g> 
        <g class="Name" fill-opacity="0.9" style="display: none;">
            <text transform="translate(3 12)" font-size="12" font-family="Verdana, Sans-Serif">CWH</text>
        </g>
        <desc>Width:120 Height:200 Depth:60 Elevation:0</desc>
     </g><g id="Railing" fill="#ffffff" stroke="#000000" style="fill-opacity: 1; stroke-opacity: 1; stroke-width: 0.2;" class="Railing"><polygon points="401.65,650.86 401.65,691.53 392.65,691.53 392.65,650.86 " style="stroke-dasharray: 0;"/></g><g id="Column" fill="#000000" stroke="none" style="fill-opacity: 1;" class="Column Rectangle"><polygon points="401.51,667.36 401.51,677.15 392.24,677.15 392.24,667.36 "/></g><g id="Column" fill="#000000" stroke="none" style="fill-opacity: 1;" class="Column Rectangle"><polygon points="750.60,667.40 750.60,677.16 739.74,677.16 739.74,667.40 "/></g></g></g></g></svg>
