<?xml version="1.0"?>
<svg xmlns="http://www.w3.org/2000/svg" xmlns:xlink="http://www.w3.org/1999/xlink" height="1021.4500274658203" version="1.1" width="1123.8000106811523" id="temp" viewBox="0 0 1123.8000106811523 1021.4500274658203"><defs/><g id="Model" class="Model v1-1"><g class="Floor"><g id="Floor-1" class="Floorplan Floor-1"><g id="e2c7d9db-e7cb-4f50-b285-71a25453f385" fill="#ffffff" stroke="#000000" style="fill-opacity: 1; stroke-opacity: 1; stroke-width: 0.2;" class="Space Outdoor Porch"><polygon points="84.43,625.05 84.09,978.04 587.48,978.21 776.47,979.12 798.33,979.12 798.33,840.38 547.74,840.38 547.03,632.69 547.03,625.05 84.43,625.05 84.43,625.05 "/><g transform="matrix(1,0,0,1,84.2242,625.0455)" class="Dimension"><g transform="matrix(1,0,0,1,0,0)" style="display: none;" class="Visual"><g id="mark1" fill="#000000" stroke="none" transform="matrix(1,0,0,1,356.9873,0)" style="fill-opacity: 1; pointer-events: visible;" class="DimensionMark"><polygon points="-5,5,0,0,5,5"/></g><g id="mark2" fill="#000000" stroke="none" transform="matrix(1,0,0,1,714.1078,215.3339)" style="fill-opacity: 1; pointer-events: visible;" class="DimensionMark"><polygon points="-5,-5,0,0,-5,5"/></g><g id="mark3" fill="#000000" stroke="none" transform="matrix(1,0,0,1,356.9873,353.1186)" style="fill-opacity: 1; pointer-events: visible;" class="DimensionMark"><polygon points="-5,-5,0,0,5,-5"/></g><g id="mark4" fill="#000000" stroke="none" transform="matrix(1,0,0,1,0,215.3339)" style="fill-opacity: 1; pointer-events: visible;" class="DimensionMark"><polygon points="5,5,0,0,5,-5"/></g></g><g transform="matrix(1,0,0,1,172.7748,181.3793)" class="SpaceDimensionsLabel"><g id="NameLabel" style="display: block;" class="TextLabel NameLabel"><text x="0" y="0em" fill="#000000" stroke="none" style="font-family: Verdana; font-size: 33px; fill-opacity: 1; cursor: default;">KUISTI</text></g><g id="DimensionMeasureLabel" transform="matrix(1,0,0,1,-81.1563,79.375)" style="display: none;" class="TextLabel DimensionMeasureLabel"><text x="31.6953125" y="-1.2em" fill="#000000" stroke="none" style="font-family: Verdana; font-size: 33px; fill-opacity: 1; cursor: default;">23'5" x 11'7"</text><text x="0" y="0em" fill="#000000" stroke="none" style="font-family: Verdana; font-size: 33px; fill-opacity: 1; cursor: default;">7.14 m x 3.53 m</text></g></g></g></g><g id="910050f7-782d-4ad8-984b-0e314f0f56da" fill="#ffffff" stroke="#ffffff" style="fill-opacity: 1; stroke-opacity: 1; stroke-width: 0.2;" class="Space Kitchen Kitchenette"><polygon points="548.76,108.60 564.76,108.60 564.76,78.64 798.33,78.64 798.33,250.72 609.97,250.72 609.97,236.72 538.11,236.72 538.11,78.64 548.76,78.64 "/><g transform="matrix(1,0,0,1,538.1148,78.6442)" class="Dimension"><g transform="matrix(1,0,0,1,0,0)" style="display: none;" class="Visual"><g id="mark1" fill="#000000" stroke="none" transform="matrix(1,0,0,1,130.1086,0)" style="fill-opacity: 1; pointer-events: visible;" class="DimensionMark"><polygon points="-5,5,0,0,5,5"/></g><g id="mark2" fill="#000000" stroke="none" transform="matrix(1,0,0,1,260.2171,86.0386)" style="fill-opacity: 1; pointer-events: visible;" class="DimensionMark"><polygon points="-5,-5,0,0,-5,5"/></g><g id="mark3" fill="#000000" stroke="none" transform="matrix(1,0,0,1,130.1086,172.0773)" style="fill-opacity: 1; pointer-events: visible;" class="DimensionMark"><polygon points="-5,-5,0,0,5,-5"/></g><g id="mark4" fill="#000000" stroke="none" transform="matrix(1,0,0,1,0,86.0386)" style="fill-opacity: 1; pointer-events: visible;" class="DimensionMark"><polygon points="5,5,0,0,5,-5"/></g></g><g transform="matrix(1,0,0,1,128.0587,122.3516)" class="SpaceDimensionsLabel" style="display: block;"><g id="NameLabel" style="display: block;" class="TextLabel NameLabel"><text x="0" y="0em" fill="#000000" stroke="none" style="font-family: Verdana; font-size: 33px; fill-opacity: 1; cursor: default;">KK</text></g><g id="DimensionMeasureLabel" transform="matrix(1,0,0,1,-116.6953,79.5469)" style="display: none;" class="TextLabel DimensionMeasureLabel"><text x="52.671875" y="-1.2em" fill="#000000" stroke="none" style="font-family: Verdana; font-size: 33px; fill-opacity: 1; cursor: default;">8'6" x 5'8"</text><text x="0" y="0em" fill="#000000" stroke="none" style="font-family: Verdana; font-size: 33px; fill-opacity: 1; cursor: default;">2.60 m x 1.72 m</text></g></g></g></g><g id="f0af0d40-931e-414b-bba8-1844b9b204a1" fill="#ffffff" stroke="#ffffff" style="fill-opacity: 1; stroke-opacity: 1; stroke-width: 0.2;" class="Space Undefined"><polygon points="798.33,607.05 563.03,607.05 563.03,553.36 547.03,553.36 547.03,250.75 537.94,250.72 798.33,250.72 "/><g transform="matrix(1,0,0,1,547.0312,250.7215)" class="Dimension"><g transform="matrix(1,0,0,1,0,0)" style="display: none;" class="Visual"><g id="mark1" fill="#000000" stroke="none" transform="matrix(1,0,0,1,121.1056,0)" style="fill-opacity: 1; pointer-events: visible;" class="DimensionMark"><polygon points="-5,5,0,0,5,5"/></g><g id="mark2" fill="#000000" stroke="none" transform="matrix(1,0,0,1,251.3007,178.162)" style="fill-opacity: 1; pointer-events: visible;" class="DimensionMark"><polygon points="-5,-5,0,0,-5,5"/></g><g id="mark3" fill="#000000" stroke="none" transform="matrix(1,0,0,1,121.1056,356.324)" style="fill-opacity: 1; pointer-events: visible;" class="DimensionMark"><polygon points="-5,-5,0,0,5,-5"/></g><g id="mark4" fill="#000000" stroke="none" transform="matrix(1,0,0,1,0,178.162)" style="fill-opacity: 1; pointer-events: visible;" class="DimensionMark"><polygon points="5,5,0,0,5,-5"/></g></g><g transform="matrix(1,0,0,1,125.6827,150.0296)" class="SpaceDimensionsLabel"><g id="NameLabel" style="display: block;" class="TextLabel NameLabel"><text x="0" y="0em" fill="#000000" stroke="none" style="font-family: Verdana; font-size: 33px; fill-opacity: 1; cursor: default;">UNDEFINED</text></g><g id="DimensionMeasureLabel" transform="matrix(1,0,0,1,-40.5235,79.7344)" style="display: none;" class="TextLabel DimensionMeasureLabel"><text x="42.1875" y="-1.2em" fill="#000000" stroke="none" style="font-family: Verdana; font-size: 33px; fill-opacity: 1; cursor: default;">8'3" x 11'8"</text><text x="0" y="0em" fill="#000000" stroke="none" style="font-family: Verdana; font-size: 33px; fill-opacity: 1; cursor: default;">2.51 m x 3.56 m</text></g></g></g></g><g id="5e5d04f0-ccc7-486b-9d17-70d801ee2e1e" fill="#ffffff" stroke="#ffffff" style="fill-opacity: 1; stroke-opacity: 1; stroke-width: 0.2;" class="Space Room"><polygon points="524.11,166.24 448.61,166.24 448.61,179.24 493.90,179.24 493.90,250.72 537.94,250.72 547.03,250.75 547.03,607.05 84.43,607.05 85.26,78.64 524.11,78.64 "/><g transform="matrix(1,0,0,1,84.8481,78.6442)" class="Dimension"><g transform="matrix(1,0,0,1,0,0)" style="display: none;" class="Visual"><g id="mark1" fill="#000000" stroke="none" transform="matrix(1,0,0,1,230.8842,0)" style="fill-opacity: 1; pointer-events: visible;" class="DimensionMark"><polygon points="-5,5,0,0,5,5"/></g><g id="mark2" fill="#000000" stroke="none" transform="matrix(1,0,0,1,462.1831,264.2013)" style="fill-opacity: 1; pointer-events: visible;" class="DimensionMark"><polygon points="-5,-5,0,0,-5,5"/></g><g id="mark3" fill="#000000" stroke="none" transform="matrix(1,0,0,1,230.8842,528.4013)" style="fill-opacity: 1; pointer-events: visible;" class="DimensionMark"><polygon points="-5,-5,0,0,5,-5"/></g><g id="mark4" fill="#000000" stroke="none" transform="matrix(1,0,0,1,0,264.2013)" style="fill-opacity: 1; pointer-events: visible;" class="DimensionMark"><polygon points="5,5,0,0,5,-5"/></g></g><g transform="matrix(1,0,0,1,170.3245,284.4282)" class="SpaceDimensionsLabel" style="display: block;"><g id="NameLabel" style="display: block;" class="TextLabel NameLabel"><text x="0" y="0em" fill="#000000" stroke="none" style="font-family: Verdana; font-size: 33px; fill-opacity: 1; cursor: default;">TUPA</text></g><g id="DimensionMeasureLabel" transform="matrix(1,0,0,1,-96.8047,79.7813)" style="display: none;" class="TextLabel DimensionMeasureLabel"><text x="31.6953125" y="-1.2em" fill="#000000" stroke="none" style="font-family: Verdana; font-size: 33px; fill-opacity: 1; cursor: default;">15'2" x 17'4"</text><text x="0" y="0em" fill="#000000" stroke="none" style="font-family: Verdana; font-size: 33px; fill-opacity: 1; cursor: default;">4.62 m x 5.28 m</text></g></g></g></g><g id="f9007679-3575-4dce-a99e-c5b8d0c3ad52" fill="#ffffff" stroke="#ffffff" style="fill-opacity: 1; stroke-opacity: 1; stroke-width: 0.2;" class="Space Bedroom"><polygon points="1082.14,979.12 815.33,979.12 815.33,840.38 837.01,840.38 837.01,825.38 815.33,825.38 815.33,625.05 1082.14,625.05 "/><g transform="matrix(1,0,0,1,815.3319,625.0455)" class="Dimension"><g transform="matrix(1,0,0,1,0,0)" style="display: none;" class="Visual"><g id="mark1" fill="#000000" stroke="none" transform="matrix(1,0,0,1,133.4028,0)" style="fill-opacity: 1; pointer-events: visible;" class="DimensionMark"><polygon points="-5,5,0,0,5,5"/></g><g id="mark2" fill="#000000" stroke="none" transform="matrix(1,0,0,1,266.8055,177.0386)" style="fill-opacity: 1; pointer-events: visible;" class="DimensionMark"><polygon points="-5,-5,0,0,-5,5"/></g><g id="mark3" fill="#000000" stroke="none" transform="matrix(1,0,0,1,133.4028,354.0772)" style="fill-opacity: 1; pointer-events: visible;" class="DimensionMark"><polygon points="-5,-5,0,0,5,-5"/></g><g id="mark4" fill="#000000" stroke="none" transform="matrix(1,0,0,1,0,177.0386)" style="fill-opacity: 1; pointer-events: visible;" class="DimensionMark"><polygon points="5,5,0,0,5,-5"/></g></g><g transform="matrix(1,0,0,1,111.3868,193.6681)" class="SpaceDimensionsLabel" style="display: block;"><g id="NameLabel" style="display: block;" class="TextLabel NameLabel"><text x="0" y="0em" fill="#000000" stroke="none" style="font-family: Verdana; font-size: 33px; fill-opacity: 1; cursor: default;">MH</text></g><g id="DimensionMeasureLabel" transform="matrix(1,0,0,1,-113.7031,80)" style="display: none;" class="TextLabel DimensionMeasureLabel"><text x="42.1796875" y="-1.2em" fill="#000000" stroke="none" style="font-family: Verdana; font-size: 33px; fill-opacity: 1; cursor: default;">8'9" x 11'7"</text><text x="0" y="0em" fill="#000000" stroke="none" style="font-family: Verdana; font-size: 33px; fill-opacity: 1; cursor: default;">2.67 m x 3.54 m</text></g></g></g></g><g id="05246eeb-6f38-4d3c-b34d-9637e68072a0" fill="#ffffff" stroke="#ffffff" style="fill-opacity: 1; stroke-opacity: 1; stroke-width: 0.2;" class="Space Bedroom"><polygon points="1082.14,351.52 815.33,351.52 815.33,78.64 1082.14,78.64 "/><g transform="matrix(1,0,0,1,815.3319,78.6442)" class="Dimension"><g transform="matrix(1,0,0,1,0,0)" style="display: none;" class="Visual"><g id="mark1" fill="#000000" stroke="none" transform="matrix(1,0,0,1,133.4028,0)" style="fill-opacity: 1; pointer-events: visible;" class="DimensionMark"><polygon points="-5,5,0,0,5,5"/></g><g id="mark2" fill="#000000" stroke="none" transform="matrix(1,0,0,1,266.8055,136.4385)" style="fill-opacity: 1; pointer-events: visible;" class="DimensionMark"><polygon points="-5,-5,0,0,-5,5"/></g><g id="mark3" fill="#000000" stroke="none" transform="matrix(1,0,0,1,133.4028,272.8771)" style="fill-opacity: 1; pointer-events: visible;" class="DimensionMark"><polygon points="-5,-5,0,0,5,-5"/></g><g id="mark4" fill="#000000" stroke="none" transform="matrix(1,0,0,1,0,136.4385)" style="fill-opacity: 1; pointer-events: visible;" class="DimensionMark"><polygon points="5,5,0,0,5,-5"/></g></g><g transform="matrix(1,0,0,1,111.905,148.6222)" class="SpaceDimensionsLabel" style="display: block;"><g id="NameLabel" style="display: block;" class="TextLabel NameLabel"><text x="0" y="0em" fill="#000000" stroke="none" style="font-family: Verdana; font-size: 33px; fill-opacity: 1; cursor: default;">MH</text></g><g id="DimensionMeasureLabel" transform="matrix(1,0,0,1,-113.6954,79.75)" style="display: none;" class="TextLabel DimensionMeasureLabel"><text x="42.1796875" y="-1.2em" fill="#000000" stroke="none" style="font-family: Verdana; font-size: 33px; fill-opacity: 1; cursor: default;">8'9" x 8'11"</text><text x="0" y="0em" fill="#000000" stroke="none" style="font-family: Verdana; font-size: 33px; fill-opacity: 1; cursor: default;">2.67 m x 2.73 m</text></g></g></g></g><g id="347b7a1f-c256-4ccd-b157-1c4d3e66d2bd" fill="#ffffff" stroke="#ffffff" style="fill-opacity: 1; stroke-opacity: 1; stroke-width: 0.2;" class="Space Bedroom"><polygon points="1082.14,607.05 815.33,607.05 815.33,366.52 1082.14,366.52 "/><g transform="matrix(1,0,0,1,815.3319,366.5213)" class="Dimension"><g transform="matrix(1,0,0,1,0,0)" style="display: none;" class="Visual"><g id="mark1" fill="#000000" stroke="none" transform="matrix(1,0,0,1,133.4028,0)" style="fill-opacity: 1; pointer-events: visible;" class="DimensionMark"><polygon points="-5,5,0,0,5,5"/></g><g id="mark2" fill="#000000" stroke="none" transform="matrix(1,0,0,1,266.8055,120.2621)" style="fill-opacity: 1; pointer-events: visible;" class="DimensionMark"><polygon points="-5,-5,0,0,-5,5"/></g><g id="mark3" fill="#000000" stroke="none" transform="matrix(1,0,0,1,133.4028,240.5242)" style="fill-opacity: 1; pointer-events: visible;" class="DimensionMark"><polygon points="-5,-5,0,0,5,-5"/></g><g id="mark4" fill="#000000" stroke="none" transform="matrix(1,0,0,1,0,120.2621)" style="fill-opacity: 1; pointer-events: visible;" class="DimensionMark"><polygon points="5,5,0,0,5,-5"/></g></g><g transform="matrix(1,0,0,1,109.9966,129.0447)" class="SpaceDimensionsLabel" style="display: block;"><g id="NameLabel" style="display: block;" class="TextLabel NameLabel"><text x="0" y="0em" fill="#000000" stroke="none" style="font-family: Verdana; font-size: 33px; fill-opacity: 1; cursor: default;">MH</text></g><g id="DimensionMeasureLabel" transform="matrix(1,0,0,1,-113.6719,79.75)" style="display: none;" class="TextLabel DimensionMeasureLabel"><text x="42.171875" y="-1.2em" fill="#000000" stroke="none" style="font-family: Verdana; font-size: 33px; fill-opacity: 1; cursor: default;">8'9" x 7'11"</text><text x="0" y="0em" fill="#000000" stroke="none" style="font-family: Verdana; font-size: 33px; fill-opacity: 1; cursor: default;">2.67 m x 2.41 m</text></g></g></g></g><g id="cea3a56c-15a3-4448-910a-94e722a58090" fill="#ffffff" stroke="#ffffff" style="fill-opacity: 1; stroke-opacity: 1; stroke-width: 0.2;" class="Space DraughtLobby"><polygon points="798.33,825.38 663.24,825.38 663.24,625.05 798.33,625.05 "/><g transform="matrix(1,0,0,1,663.2367,625.0455)" class="Dimension"><g transform="matrix(1,0,0,1,0,0)" style="display: none;" class="Visual"><g id="mark1" fill="#000000" stroke="none" transform="matrix(1,0,0,1,67.5476,0)" style="fill-opacity: 1; pointer-events: visible;" class="DimensionMark"><polygon points="-5,5,0,0,5,5"/></g><g id="mark2" fill="#000000" stroke="none" transform="matrix(1,0,0,1,135.0952,100.1669)" style="fill-opacity: 1; pointer-events: visible;" class="DimensionMark"><polygon points="-5,-5,0,0,-5,5"/></g><g id="mark3" fill="#000000" stroke="none" transform="matrix(1,0,0,1,67.5476,200.3338)" style="fill-opacity: 1; pointer-events: visible;" class="DimensionMark"><polygon points="-5,-5,0,0,5,-5"/></g><g id="mark4" fill="#000000" stroke="none" transform="matrix(1,0,0,1,0,100.1669)" style="fill-opacity: 1; pointer-events: visible;" class="DimensionMark"><polygon points="5,5,0,0,5,-5"/></g></g><g transform="matrix(1,0,0,1,70.1518,132.8134)" class="SpaceDimensionsLabel" style="display: block;"><g id="NameLabel" style="display: block;" class="TextLabel NameLabel"><text x="0" y="0em" fill="#000000" stroke="none" style="font-family: Verdana; font-size: 33px; fill-opacity: 1; cursor: default;">TK</text></g><g id="DimensionMeasureLabel" transform="matrix(1,0,0,1,-118.625,79.7812)" style="display: none;" class="TextLabel DimensionMeasureLabel"><text x="52.671875" y="-1.2em" fill="#000000" stroke="none" style="font-family: Verdana; font-size: 33px; fill-opacity: 1; cursor: default;">4'5" x 6'7"</text><text x="0" y="0em" fill="#000000" stroke="none" style="font-family: Verdana; font-size: 33px; fill-opacity: 1; cursor: default;">1.35 m x 2.00 m</text></g></g></g></g><g id="9ae33d3e-13fc-4649-80fe-c66c3434232c" fill="#ffffff" stroke="#ffffff" style="fill-opacity: 1; stroke-opacity: 1; stroke-width: 0.2;" class="Space Bath"><polygon points="649.24,825.38 563.03,825.38 563.03,625.05 649.24,625.05 "/><g transform="matrix(1,0,0,1,563.0312,625.0455)" class="Dimension"><g transform="matrix(1,0,0,1,0,0)" style="display: none;" class="Visual"><g id="mark1" fill="#000000" stroke="none" transform="matrix(1,0,0,1,43.1028,0)" style="fill-opacity: 1; pointer-events: visible;" class="DimensionMark"><polygon points="-5,5,0,0,5,5"/></g><g id="mark2" fill="#000000" stroke="none" transform="matrix(1,0,0,1,86.2055,100.1669)" style="fill-opacity: 1; pointer-events: visible;" class="DimensionMark"><polygon points="-5,-5,0,0,-5,5"/></g><g id="mark3" fill="#000000" stroke="none" transform="matrix(1,0,0,1,43.1028,200.3338)" style="fill-opacity: 1; pointer-events: visible;" class="DimensionMark"><polygon points="-5,-5,0,0,5,-5"/></g><g id="mark4" fill="#000000" stroke="none" transform="matrix(1,0,0,1,0,100.1669)" style="fill-opacity: 1; pointer-events: visible;" class="DimensionMark"><polygon points="5,5,0,0,5,-5"/></g></g><g transform="matrix(1,0,0,1,15.5482,115.9572)" class="SpaceDimensionsLabel" style="display: block;"><g id="NameLabel" style="display: block;" class="TextLabel NameLabel"><text x="0" y="0em" fill="#000000" stroke="none" style="font-family: Verdana; font-size: 33px; fill-opacity: 1; cursor: default;">WC</text></g><g id="DimensionMeasureLabel" transform="matrix(1,0,0,1,-112.164,79.375)" style="display: none;" class="TextLabel DimensionMeasureLabel"><text x="42.1796875" y="-1.2em" fill="#000000" stroke="none" style="font-family: Verdana; font-size: 33px; fill-opacity: 1; cursor: default;">2'10" x 6'7"</text><text x="0" y="0em" fill="#000000" stroke="none" style="font-family: Verdana; font-size: 33px; fill-opacity: 1; cursor: default;">0.86 m x 2.00 m</text></g></g></g></g><g id="Wall" fill="#000000" stroke="#000000" style="fill-opacity: 1; stroke-opacity: 1; stroke-width: 0.2;" class="Wall External"><polygon points="68.26,78.64 1082.14,78.64 1082.14,62.64 85.26,62.64 "/><g id="Window" fill="#f0f0ff" stroke="#000000" style="fill-opacity: 1; stroke-width: 1; stroke-opacity: 1;" class="Window Regular"><polygon points="634.81,78.64 728.94,78.64 728.94,62.64 634.81,62.64 "/><g id="Glass" class="Glass"><polygon points="634.81,78.64 728.94,78.64 728.94,62.64 634.81,62.64 "/></g><g id="Panel" class="Panel"><line x1="642.3107896903284" x2="721.4428687929865" y1="70.64422120415179" y2="70.64422120415179"/><line x1="642.3107896903284" x2="642.3107896903284" y1="78.64422120415179" y2="62.64422120415179"/><line x1="721.4428687929865" x2="721.4428687929865" y1="78.64422120415179" y2="62.64422120415179"/></g></g></g><g id="Wall" fill="#000000" stroke="#000000" style="fill-opacity: 1; stroke-opacity: 1; stroke-width: 0.2;" class="Wall External"><polygon points="1082.14,78.64 1082.14,979.12 1098.14,995.12 1098.14,62.64 "/><g id="Window" fill="#f0f0ff" stroke="#000000" style="fill-opacity: 1; stroke-width: 1; stroke-opacity: 1;" class="Window Regular"><polygon points="1082.14,161.49 1082.14,268.35 1098.14,268.35 1098.14,161.49 "/><g id="Glass" class="Glass"><polygon points="1082.14,161.49 1082.14,268.35 1098.14,268.35 1098.14,161.49 "/></g><g id="Panel" class="Panel"><line x1="1090.1374417343793" x2="1090.1374417343793" y1="168.99121196440598" y2="260.8531284165848"/><line x1="1082.1374417343793" x2="1098.1374417343793" y1="168.99121196440598" y2="168.99121196440598"/><line x1="1082.1374417343793" x2="1098.1374417343793" y1="260.8531284165848" y2="260.8531284165848"/></g></g><g id="Window" fill="#f0f0ff" stroke="#000000" style="fill-opacity: 1; stroke-width: 1; stroke-opacity: 1;" class="Window Regular"><polygon points="1082.14,413.80 1082.14,519.18 1098.14,519.18 1098.14,413.80 "/><g id="Glass" class="Glass"><polygon points="1082.14,413.80 1082.14,519.18 1098.14,519.18 1098.14,413.80 "/></g><g id="Panel" class="Panel"><line x1="1090.1374417343793" x2="1090.1374417343793" y1="421.3040759160207" y2="511.6817990841415"/><line x1="1082.1374417343793" x2="1098.1374417343793" y1="421.3040759160207" y2="421.3040759160207"/><line x1="1082.1374417343793" x2="1098.1374417343793" y1="511.6817990841415" y2="511.6817990841415"/></g></g></g><g id="Wall" fill="#000000" stroke="#000000" style="fill-opacity: 1; stroke-opacity: 1; stroke-width: 0.2;" class="Wall External"><polygon points="1082.14,979.12 798.33,979.12 815.33,995.12 1098.14,995.12 "/><g id="Window" fill="#f0f0ff" stroke="#000000" style="fill-opacity: 1; stroke-width: 1; stroke-opacity: 1;" class="Window Regular"><polygon points="999.55,979.12 898.13,979.12 898.13,995.12 999.55,995.12 "/><g id="Glass" class="Glass"><polygon points="999.55,979.12 898.13,979.12 898.13,995.12 999.55,995.12 "/></g><g id="Panel" class="Panel"><line x1="992.0535683344093" x2="905.6336939237766" y1="987.1227530241824" y2="987.1227530241824"/><line x1="992.0535683344093" x2="992.0535683344093" y1="979.1227530241824" y2="995.1227530241824"/><line x1="905.6336939237766" x2="905.6336939237766" y1="979.1227530241824" y2="995.1227530241824"/></g></g></g><g id="Wall" fill="#000000" stroke="#000000" style="fill-opacity: 1; stroke-opacity: 1; stroke-width: 0.2;" class="Wall External"><polygon points="815.33,979.12 815.33,825.38 798.33,840.38 798.33,979.12 "/></g><g id="Wall" fill="#000000" stroke="#000000" style="fill-opacity: 1; stroke-opacity: 1; stroke-width: 0.2;" class="Wall External"><polygon points="815.33,825.38 563.03,825.38 563.03,840.38 798.33,840.38 "/><g id="Door" fill="#ffffff" stroke="#000000" style="fill-opacity: 1; stroke-width: 1; stroke-opacity: 1;" class="Door Swing Beside"><polygon points="769.44,825.38 685.28,825.38 685.28,840.38 769.44,840.38 "/><g id="Threshold" class="Threshold"><polygon points="769.44,825.38 685.28,825.38 685.28,840.38 769.44,840.38 "/></g><g id="Panel" fill="none" style="" class="Panel Left Positive"><g id="PanelArea" fill="none" stroke="none" style="" class="PanelArea"><polygon points="769.44,825.38 685.28,825.38 685.28,840.38 769.44,840.38 "/></g><path d="M685.28,840.38 q0.00,84.16 84.16,84.16 l0.00,-84.16Z"/></g></g></g><g id="Wall" fill="#000000" stroke="#000000" style="fill-opacity: 1; stroke-opacity: 1; stroke-width: 0.2;" class="Wall External"><polygon points="563.03,825.38 563.03,607.05 547.03,625.05 547.03,825.38 "/></g><g id="Wall" fill="#000000" stroke="#000000" style="fill-opacity: 1; stroke-opacity: 1; stroke-width: 0.2;" class="Wall External"><polygon points="563.03,607.05 84.43,607.05 84.43,625.05 547.03,625.05 "/><g id="Window" fill="#f0f0ff" stroke="#000000" style="fill-opacity: 1; stroke-width: 1; stroke-opacity: 1;" class="Window Regular"><polygon points="372.53,607.05 198.02,607.05 198.02,625.05 372.53,625.05 "/><g id="Glass" class="Glass"><polygon points="372.53,607.05 198.02,607.05 198.02,625.05 372.53,625.05 "/></g><g id="Panel" class="Panel"><line x1="365.0321741609064" x2="205.52283766925518" y1="616.0455140841655" y2="616.0455140841655"/><line x1="365.0321741609064" x2="365.0321741609064" y1="607.0455140841655" y2="625.0455140841655"/><line x1="205.52283766925518" x2="205.52283766925518" y1="607.0455140841655" y2="625.0455140841655"/></g></g><g id="Window" fill="#f0f0ff" stroke="#000000" style="fill-opacity: 1; stroke-width: 1; stroke-opacity: 1;" class="Window Regular"><polygon points="437.32,607.05 377.26,607.05 377.26,625.05 437.32,625.05 "/><g id="Glass" class="Glass"><polygon points="437.32,607.05 377.26,607.05 377.26,625.05 437.32,625.05 "/></g><g id="Panel" class="Panel"><line x1="429.82290342745443" x2="384.76142447233326" y1="616.0455140841655" y2="616.0455140841655"/><line x1="429.82290342745443" x2="429.82290342745443" y1="607.0455140841655" y2="625.0455140841655"/><line x1="384.76142447233326" x2="384.76142447233326" y1="607.0455140841655" y2="625.0455140841655"/></g></g></g><g id="Wall" fill="#000000" stroke="#000000" style="fill-opacity: 1; stroke-opacity: 1; stroke-width: 0.2;" class="Wall External"><polygon points="84.43,607.05 85.26,78.64 68.58,62.64 67.70,625.05 "/><g id="Window" fill="#f0f0ff" stroke="#000000" style="fill-opacity: 1; stroke-width: 1; stroke-opacity: 1;" class="Window Regular"><polygon points="84.56,524.75 84.89,318.13 68.18,318.10 67.86,524.73 "/><g id="Glass" class="Glass"><polygon points="84.56,524.75 84.89,318.13 68.18,318.10 67.86,524.73 "/></g><g id="Panel" class="Panel"><line x1="76.22106807411673" x2="76.52188490286031" y1="517.2382443813932" y2="325.61233793541146"/><line x1="84.57429957136982" x2="67.86783657686365" y1="517.2513573923392" y2="517.2251313704471"/><line x1="84.8751164001134" x2="68.16865340560723" y1="325.6254509463575" y2="325.5992249244655"/></g></g></g><g id="Wall" fill="#000000" stroke="#000000" style="fill-opacity: 1; stroke-opacity: 1; stroke-width: 0.2;" class="Wall"><polygon points="547.03,625.05 1098.14,625.05 1098.14,607.05 547.03,607.05 "/><g id="Door" fill="#ffffff" stroke="#000000" style="fill-opacity: 1; stroke-width: 1; stroke-opacity: 1;" class="Door Swing Beside"><polygon points="683.67,625.05 768.63,625.05 768.63,607.05 683.67,607.05 "/><g id="Threshold" class="Threshold"><polygon points="683.67,625.05 768.63,625.05 768.63,607.05 683.67,607.05 "/></g><g id="Panel" fill="none" style="" class="Panel Left Negative"><g id="PanelArea" fill="none" stroke="none" style="" class="PanelArea"><polygon points="683.67,625.05 768.63,625.05 768.63,607.05 683.67,607.05 "/></g><path d="M683.67,625.05 q0.00,84.96 84.96,84.96 l0.00,-84.96Z"/></g></g></g><g id="Wall" fill="#000000" stroke="#000000" style="fill-opacity: 1; stroke-opacity: 1; stroke-width: 0.2;" class="Wall External"><polygon points="1098.14,625.05 1123.80,625.05 1123.80,607.05 1098.14,607.05 "/></g><g id="Wall" fill="#000000" stroke="#000000" style="fill-opacity: 1; stroke-opacity: 1; stroke-width: 0.2;" class="Wall"><polygon points="798.33,840.38 798.33,607.05 815.33,607.05 815.33,840.38 "/><g id="Door" fill="#ffffff" stroke="#000000" style="fill-opacity: 1; stroke-width: 1; stroke-opacity: 1;" class="Door Swing Beside"><polygon points="798.33,797.26 798.33,722.36 815.33,722.36 815.33,797.26 "/><g id="Threshold" class="Threshold"><polygon points="798.33,797.26 798.33,722.36 815.33,722.36 815.33,797.26 "/></g><g id="Panel" fill="none" style="" class="Panel Right Positive"><g id="PanelArea" fill="none" stroke="none" style="" class="PanelArea"><polygon points="798.33,797.26 798.33,722.36 815.33,722.36 815.33,797.26 "/></g><path d="M815.33,797.26 q74.90,0.00 74.90,-74.90 l-74.90,0.00Z"/></g></g></g><g id="Wall" fill="#000000" stroke="#000000" style="fill-opacity: 1; stroke-opacity: 1; stroke-width: 0.2;" class="Wall"><polygon points="815.33,607.05 815.33,62.64 798.33,62.64 798.33,607.05 "/><g id="Door" fill="#ffffff" stroke="#000000" style="fill-opacity: 1; stroke-width: 1; stroke-opacity: 1;" class="Door Swing Beside"><polygon points="815.33,499.68 815.33,429.62 798.33,429.62 798.33,499.68 "/><g id="Threshold" class="Threshold"><polygon points="815.33,499.68 815.33,429.62 798.33,429.62 798.33,499.68 "/></g><g id="Panel" fill="none" style="" class="Panel Right Positive"><g id="PanelArea" fill="none" stroke="none" style="" class="PanelArea"><polygon points="815.33,499.68 815.33,429.62 798.33,429.62 798.33,499.68 "/></g><path d="M798.33,499.68 q-70.07,0.00 -70.07,-70.07 l70.07,0.00Z"/></g></g><g id="Door" fill="#ffffff" stroke="#000000" style="fill-opacity: 1; stroke-width: 1; stroke-opacity: 1;" class="Door Swing Beside"><polygon points="815.33,333.68 815.33,263.53 798.33,263.53 798.33,333.68 "/><g id="Threshold" class="Threshold"><polygon points="815.33,333.68 815.33,263.53 798.33,263.53 798.33,333.68 "/></g><g id="Panel" fill="none" style="" class="Panel Right Positive"><g id="PanelArea" fill="none" stroke="none" style="" class="PanelArea"><polygon points="815.33,333.68 815.33,263.53 798.33,263.53 798.33,333.68 "/></g><path d="M798.33,333.68 q-70.15,0.00 -70.15,-70.15 l70.15,0.00Z"/></g></g></g><g id="Wall" fill="#000000" stroke="#000000" style="fill-opacity: 1; stroke-opacity: 1; stroke-width: 0.2;" class="Wall External"><polygon points="815.33,62.64 815.33,44.42 798.33,44.42 798.33,62.64 "/></g><g id="Wall" fill="#000000" stroke="#000000" style="fill-opacity: 1; stroke-opacity: 1; stroke-width: 0.2;" class="Wall External"><polygon points="1082.14,62.64 1082.14,42.61 1098.14,42.61 1098.14,78.64 "/></g><g id="Wall" fill="#000000" stroke="#000000" style="fill-opacity: 1; stroke-opacity: 1; stroke-width: 0.2;" class="Wall External"><polygon points="1082.14,78.64 1122.38,78.64 1122.38,62.64 1082.14,62.64 "/></g><g id="Wall" fill="#000000" stroke="#000000" style="fill-opacity: 1; stroke-opacity: 1; stroke-width: 0.2;" class="Wall External"><polygon points="1082.14,366.52 1123.01,366.52 1123.01,351.52 1082.14,351.52 "/></g><g id="Wall" fill="#000000" stroke="#000000" style="fill-opacity: 1; stroke-opacity: 1; stroke-width: 0.2;" class="Wall"><polygon points="1082.14,366.52 1061.05,366.52 1061.05,351.52 1082.14,351.52 "/></g><g id="Wall" fill="#000000" stroke="#000000" style="fill-opacity: 1; stroke-opacity: 1; stroke-width: 0.2;" class="Wall External"><polygon points="1098.14,979.12 1122.28,979.12 1122.28,995.12 1098.14,995.12 "/></g><g id="Wall" fill="#000000" stroke="#000000" style="fill-opacity: 1; stroke-opacity: 1; stroke-width: 0.2;" class="Wall External"><polygon points="1082.14,979.12 1082.14,1020.17 1098.14,1020.17 1098.14,979.12 "/></g><g id="Wall" fill="#000000" stroke="#000000" style="fill-opacity: 1; stroke-opacity: 1; stroke-width: 0.2;" class="Wall External"><polygon points="815.33,979.12 776.47,979.12 776.47,995.12 815.33,995.12 "/></g><g id="Wall" fill="#000000" stroke="#000000" style="fill-opacity: 1; stroke-opacity: 1; stroke-width: 0.2;" class="Wall External"><polygon points="815.33,995.12 815.33,1020.95 798.33,1020.95 798.33,979.12 "/></g><g id="Wall" fill="#000000" stroke="#000000" style="fill-opacity: 1; stroke-opacity: 1; stroke-width: 0.2;" class="Wall External"><polygon points="563.03,840.38 563.03,863.98 547.03,863.98 547.03,825.38 "/></g><g id="Wall" fill="#000000" stroke="#000000" style="fill-opacity: 1; stroke-opacity: 1; stroke-width: 0.2;" class="Wall External"><polygon points="563.03,840.38 522.23,840.38 522.23,825.38 563.03,825.38 "/></g><g id="Wall" fill="#000000" stroke="#000000" style="fill-opacity: 1; stroke-opacity: 1; stroke-width: 0.2;" class="Wall External"><polygon points="84.43,625.05 84.43,651.95 67.43,651.95 67.43,607.05 "/></g><g id="Wall" fill="#000000" stroke="#000000" style="fill-opacity: 1; stroke-opacity: 1; stroke-width: 0.2;" class="Wall External"><polygon points="84.43,625.05 45.54,625.05 45.54,607.05 84.43,607.05 "/></g><g id="Wall" fill="#000000" stroke="#000000" style="fill-opacity: 1; stroke-opacity: 1; stroke-width: 0.2;" class="Wall External"><polygon points="85.26,78.64 46.49,78.64 46.49,62.64 85.26,62.64 "/></g><g id="Wall" fill="#000000" stroke="#000000" style="fill-opacity: 1; stroke-opacity: 1; stroke-width: 0.2;" class="Wall External"><polygon points="85.26,62.64 85.26,43.08 68.26,43.08 68.26,78.64 "/></g><g id="Wall" fill="#000000" stroke="#000000" style="fill-opacity: 1; stroke-opacity: 1; stroke-width: 0.2;" class="Wall External"><polygon points="564.76,78.64 564.76,43.20 548.76,43.20 548.76,78.64 "/></g><g id="Wall" fill="#000000" stroke="#000000" style="fill-opacity: 1; stroke-opacity: 1; stroke-width: 0.2;" class="Wall"><polygon points="564.76,78.64 564.76,108.60 548.76,108.60 548.76,78.64 "/></g><g id="Wall" fill="#000000" stroke="#000000" style="fill-opacity: 1; stroke-opacity: 1; stroke-width: 0.2;" class="Wall"><polygon points="524.11,62.64 524.11,166.24 538.11,166.24 538.11,62.64 "/></g><g id="Wall" fill="#000000" stroke="#000000" style="fill-opacity: 1; stroke-opacity: 1; stroke-width: 0.2;" class="Wall"><polygon points="493.90,166.24 493.90,250.72 538.11,236.72 538.11,166.24 "/></g><g id="Wall" fill="#000000" stroke="#000000" style="fill-opacity: 1; stroke-opacity: 1; stroke-width: 0.2;" class="Wall"><polygon points="493.90,250.72 609.97,250.72 609.97,236.72 538.11,236.72 "/></g><g id="Wall" fill="#000000" stroke="#000000" style="fill-opacity: 1; stroke-opacity: 1; stroke-width: 0.2;" class="Wall"><polygon points="524.11,166.24 448.61,166.24 448.61,179.24 538.11,179.24 "/></g><g id="Wall" fill="#000000" stroke="#000000" style="fill-opacity: 1; stroke-opacity: 1; stroke-width: 0.2;" class="Wall"><polygon points="563.03,625.05 563.03,553.36 547.03,553.36 547.03,625.05 "/></g><g id="Wall" fill="#000000" stroke="#000000" style="fill-opacity: 1; stroke-opacity: 1; stroke-width: 0.2;" class="Wall"><polygon points="649.24,607.05 649.24,840.38 663.24,840.38 663.24,607.05 "/><g id="Door" fill="#ffffff" stroke="#000000" style="fill-opacity: 1; stroke-width: 1; stroke-opacity: 1;" class="Door Swing Beside"><polygon points="649.24,701.42 649.24,763.43 663.24,763.43 663.24,701.42 "/><g id="Threshold" class="Threshold"><polygon points="649.24,701.42 649.24,763.43 663.24,763.43 663.24,701.42 "/></g><g id="Panel" fill="none" style="" class="Panel Right Positive"><g id="PanelArea" fill="none" stroke="none" style="" class="PanelArea"><polygon points="649.24,701.42 649.24,763.43 663.24,763.43 663.24,701.42 "/></g><path d="M663.24,701.42 q62.01,0.00 62.01,62.01 l-62.01,0.00Z"/></g></g></g><g id="Railing" fill="#ffffff" stroke="#000000" style="fill-opacity: 1; stroke-opacity: 1; stroke-width: 0.2;" class="Railing"><polygon points="67.43,651.95 67.43,978.21 84.43,995.21 84.43,651.95 " style="stroke-dasharray: 326.268, 24.0416, 360.268;"/></g><g id="Railing" fill="#ffffff" stroke="#000000" style="fill-opacity: 1; stroke-opacity: 1; stroke-width: 0.2;" class="Railing"><polygon points="84.43,995.21 587.48,995.21 587.48,978.21 84.43,978.21 " style="stroke-dasharray: 0;"/></g><g id="Railing" fill="#ffffff" stroke="#000000" style="fill-opacity: 1; stroke-opacity: 1; stroke-width: 0.2;" class="Railing"><polygon points="564.74,1021.45 564.74,961.42 547.74,961.42 547.74,1021.45 " style="stroke-dasharray: 0;"/></g><g id="Railing" fill="#ffffff" stroke="#000000" style="fill-opacity: 1; stroke-opacity: 1; stroke-width: 0.2;" class="Railing"><polygon points="84.43,978.21 84.43,1020.91 67.43,1020.91 67.43,995.21 " style="stroke-dasharray: 85.394, 24.0416;"/></g><g id="Railing" fill="#ffffff" stroke="#000000" style="fill-opacity: 1; stroke-opacity: 1; stroke-width: 0.2;" class="Railing"><polygon points="67.43,995.21 45.64,995.21 45.64,978.21 84.43,978.21 " style="stroke-dasharray: 77.5899, 24.0416;"/></g><g id="Wall" fill="#000000" stroke="#000000" style="fill-opacity: 1; stroke-opacity: 1; stroke-width: 0.2;" class="Wall"><polygon points="1061.05,366.52 798.33,366.52 798.33,351.52 1061.05,351.52 "/></g><g transform="matrix(1,0,0,1,538.1148,236.7215)" class="FixedFurniture BaseCabinet" style="fill-opacity: 1; stroke-opacity: 1;" fill="#ffffff" stroke="#000000"><desc>Width:60 Height:90 Depth:60 Elevation:0</desc><g class="BoundaryPolygon"><polygon points="0.00,0.00 0.00,-158.08 10.64,-158.08 10.64,-128.12 26.64,-128.12 26.64,-158.08 260.15,-158.08 260.15,-92.73 60.10,-92.73 60.10,0.12 0.00,0.00 " fill="#ffffff" stroke="#000000" style=""/></g></g><g id="FixedFurnitureSet" transform="matrix(-1,0,0,-1,640.6176,825.2387)" class="FixedFurnitureSet" style="fill-opacity: 1; stroke-opacity: 1;" fill="#ffffff" stroke="#000000"><g class="FixedFurniture BaseCabinet" transform="matrix(1,0,0,1,0,0)">
            <g class="BoundaryPolygon" fill="rgb(255, 255, 255)" stroke="rgb(0, 0, 0)">
            <polygon points="0.00,0.00 66.43,0.00 66.43,55.25 0.00,55.25 "/>
            </g>
            <g class="Direction" fill-opacity="0.9" style="display: none;">
                <polygon points="35.44,50.83 35.44,40.21 32.43,40.21 32.43,50.83 28.63,50.83 33.93,55.63 39.23,50.83 35.44,50.83 " fill="#444444"/>
            </g> 
            <g class="Name" fill-opacity="0.9" style="display: none;">
                <text transform="translate(3 12)" font-size="12" font-family="Verdana, Sans-Serif">CB</text>
            </g>
            <desc>Width:185 Height:5 Depth:60 Elevation:105</desc>
        </g><g class="FixedFurniture Sink" transform="matrix(1,0,0,1,0,0)">
            <g class="InnerPolygon" fill="rgb(255, 255, 255)" stroke="rgb(0, 0, 0)">
                <polygon points="5.00,9.70 60.89,9.70 60.89,50.37 5.00,50.37 "/>
            </g>
            <g class="OuterDrain" fill="rgb(255, 255, 255)" stroke="rgb(0, 0, 0)" stroke-width="0.8">
                <circle cx="33.21430256653807" cy="29.650406655265286" r="3.5"/>
            </g>
            <g class="InnerDrain" fill="rgb(255, 255, 255)" stroke="rgb(0, 0, 0)" stroke-width="0.8">
                <circle cx="33.21430256653807" cy="29.650406655265286" r="2"/>
            </g>
            <g class="Faucet" fill="rgb(255, 255, 255)" stroke="rgb(0, 0, 0)">
                <polygon points="29.89,4.60 35.89,4.60 35.89,18.60 29.89,18.60 "/>
            </g>
           <g class="Direction" fill-opacity="0.9" style="display: none;">
                <polygon points="35.44,50.83 35.44,40.21 32.43,40.21 32.43,50.83 28.63,50.83 33.93,55.63 39.23,50.83 35.44,50.83 " fill="#444444"/>
            </g> 
            <g class="Name" fill-opacity="0.9" style="display: none;">
                <text transform="translate(3 12)" font-size="12" font-family="Verdana, Sans-Serif">SINK</text>
            </g>
            <desc>Width:60 Height:90 Depth:60 Elevation:0</desc>
        </g></g><g class="FixedFurniture Toilet" transform="matrix(1,0,0,1,585.3678,632.6899)" style="fill-opacity: 1; stroke-opacity: 1;" fill="#ffffff" stroke="#000000">
	   <g class="BoundaryPolygon" fill="rgb(255, 255, 255)" stroke="rgb(0, 0, 0)"> 
		<rect x="0.502" y="0.5" width="39.989" height="17.98"/>
          <path d="M40.491,44.237S41.619,70.5,20.907,70.5C-.523,70.5.6,44.237.6,44.237L.5,18.48H40.491Z"/>
          <rect x="17.318" y="7.975" width="6.357" height="3.03"/>
		</g>
        <desc>Width:40 Height:85 Depth:70 Elevation:0</desc>
    </g><g class="FixedFurniture CoatCloset" transform="matrix(-1,0,0,-1,670.4512,606.9049)" style="fill-opacity: 1; stroke-opacity: 1;" fill="#ffffff" stroke="#000000">
        <g class="BoundaryPolygon" fill="rgb(255, 255, 255)" stroke="rgb(0, 0, 0)">
                <polygon points="0.00,0.00 107.42,0.00 107.42,53.39 0.00,53.39 "/>
            </g>
        <g class="Hanger" fill="rgb(255, 255, 255)" stroke="rgb(154, 154, 154)" stroke-dasharray="5,5">
            <line x1="0" y1="26.694647683224705" x2="107.41833634259733" y2="26.694647683224705"/>
            </g>
        <g class="Direction" fill-opacity="0.9" style="display: none;">
            <polygon points="55.06,48.51 55.06,37.89 52.05,37.89 52.05,48.51 48.25,48.51 53.55,53.81 58.85,48.51 55.06,48.51 " fill="#444444"/>
        </g> 
        <g class="Name" fill-opacity="0.9" style="display: none;">
            <text transform="translate(3 12)" font-size="12" font-family="Verdana, Sans-Serif">CWH</text>
        </g>
        <desc>Width:120 Height:200 Depth:60 Elevation:0</desc>
     </g><g id="Wall" fill="#000000" stroke="#000000" style="fill-opacity: 1; stroke-opacity: 1; stroke-width: 0.2;" class="Wall"><polygon points="815.33,840.38 837.01,840.38 837.01,825.38 815.33,825.38 "/></g><g id="Column" fill="#000000" stroke="none" style="fill-opacity: 1;" class="Column Circle"><circle cx="75.36337656777452" cy="986.7703474396661" r="8.727048413261343"/></g><g id="Column" fill="#000000" stroke="none" style="fill-opacity: 1;" transform="matrix(1,0,0,1,0,0)" class="Column Circle"><circle cx="556.282760477236" cy="986.9406371728853" r="8.727048413261343"/></g><g class="FixedFurniture ElectricalAppliance IntegratedStove" transform="matrix(0,-1,1,0,536.2688,238.8164)" style="fill-opacity: 1; stroke-opacity: 1;" fill="#ffffff" stroke="#000000">
            <g class="BoundaryPolygon" fill="rgb(255, 255, 255)" stroke="rgb(0, 0, 0)">
                <polygon points="2.00,2.00 86.12,2.00 86.12,61.59 2.00,61.59 "/>
            </g>
            <g class="OuterCircle" fill="rgb(255, 255, 255)" stroke="rgb(0, 0, 0)" stroke-width="0.8">
                <circle cx="23.755918525313415" cy="16.991329747021773" r="8"/>
                <circle cx="65.32877594461188" cy="16.991329747021773" r="8"/>
                <circle cx="23.755918525313415" cy="46.61996099339095" r="8"/>
                <circle cx="65.32877594461188" cy="46.72615680430986" r="8"/>
            </g>
             <g class="Direction" fill-opacity="0.9" style="display: none;">
                <polygon points="47.53,58.62 47.53,48.00 44.52,48.00 44.52,58.62 40.71,58.62 46.02,63.42 51.32,58.62 47.53,58.62 " fill="#444444"/>
            </g> 
            <g class="Name" fill-opacity="0.9" style="display: none;">
                <text transform="translate(3 12)" font-size="12" font-family="Verdana, Sans-Serif">INT_STOVE</text>
            </g>
            <desc>Width:60 Height:90 Depth:30 Elevation:0</desc>
        </g><g class="FixedFurniture Fireplace" transform="matrix(0,1.157,-1.4671,0,524.0002,78.6442)" style="fill-opacity: 1; stroke-opacity: 1;" fill="#ffffff" stroke="#000000">     
	   <g class="BoundaryPolygon" fill="rgb(255, 255, 255)" stroke="none"> 
		<polygon points="0,0 75,0 75,60 0,60"/> 
		</g>
		
	   <g class="Lines" fill="none" stroke="rgb(76, 76, 76)"> 
		    <line x1="0.629" y1="9.556" x2="51.294" y2="60.205"/>
            <line x1="0.598" y1="25.167" x2="35.942" y2="60.5"/>
            <line x1="0.5" y1="40.841" x2="20.479" y2="60.5"/>
            <line x1="40.648" y1="0.5" x2="75.432" y2="35.274"/>
            <line x1="8.329" y1="0.5" x2="68.348" y2="60.5"/>
            <line x1="24.88" y1="0.5" x2="75.5" y2="51.104"/>
            <line x1="56.774" y1="0.5" x2="75.5" y2="19.22"/>
		</g>
		
	   <g class="OverlayPolygon" fill="none" stroke="rgb(0, 0, 0)"> 
		<polygon points="0.5 60.5 75.5 60.5 75.5 0.5 0.5 0.5 0.5 60.5"/>  
		</g>
		
	   <g class="FireBox" fill="rgb(255, 255, 255)" stroke="rgb(0, 0, 0)">	
		<rect x="22.053" y="19.92" width="32.571" height="40.58"/>
	   </g>
        <g class="Direction" fill-opacity="0.9" style="display: none;">
            <polygon points="39.409 54.797 39.409 44.181 36.4 44.181 36.4 54.797 32.597 54.797 37.9 60.1 43.203 54.797 39.409 54.797" fill="#444444"/>
        </g> 
        <g class="Name" fill-opacity="0.9" style="display: none;">
            <text transform="translate(3 12)" font-size="12" font-family="Verdana, Sans-Serif">FP</text>
        </g>
    <desc>Width:75 Height:120 Depth:60 Elevation:0</desc>
    </g><g transform="matrix(1,0,0,1,448.6065,179.2402)" class="FixedFurniture BaseCabinet" style="fill-opacity: 1; stroke-opacity: 1;" fill="#ffffff" stroke="#000000"><desc>Width:60 Height:90 Depth:60 Elevation:0</desc><g class="BoundaryPolygon"><polygon points="0.00,0.00 44.99,0.00 45.30,71.48 20.19,71.48 -13.06,16.30 -13.85,14.94 -13.48,-13.24 0.00,-13.00 0.00,0.00 " fill="#ffffff" stroke="#000000" style=""/></g></g><g fill="#0000ff" stroke="#0000ff" style="display: none;" class="SelectionControls"><g style="display: none;" class="rotateControl"><circle cx="754.7557076662109" cy="694.5776640841653" r="5" style="stroke : none; fill-opacity: 0.5; cursor:crosshair"/></g><g style="display: none;" class="ResizeNControl"><circle cx="0" cy="0" r="5" style="stroke : none; fill-opacity: 0.5"/></g><g style="display: none;" class="ResizeNEControl"><circle cx="0" cy="0" r="5" style="stroke : none; fill-opacity: 0.5"/></g><g style="display: none;" class="ResizeEControl"><circle cx="0" cy="0" r="5" style="stroke : none; fill-opacity: 0.5"/></g><g style="display: none;" class="ResizeSEControl"><circle cx="0" cy="0" r="5" style="stroke : none; fill-opacity: 0.5"/></g><g style="display: none;" class="ResizeSControl"><circle cx="0" cy="0" r="5" style="stroke : none; fill-opacity: 0.5"/></g><g style="display: none;" class="ResizeSWControl"><circle cx="0" cy="0" r="5" style="stroke : none; fill-opacity: 0.5"/></g><g style="display: none;" class="ResizeWControl"><circle cx="0" cy="0" r="5" style="stroke : none; fill-opacity: 0.5"/></g><g style="display: none;" class="ResizeNWControl"><circle cx="0" cy="0" r="5" style="stroke : none; fill-opacity: 0.5"/></g><g style="display: none;" class="removeControl"><polygon style="stroke : none; fill-opacity: 0.1" points="732.83,724.58 776.69,724.58 776.69,764.75 732.83,764.75 "/></g><g style="display: none;" class="copyPasteControl"><polygon style="stroke : none; fill-opacity: 0.1"/></g><g style="display: none;" class="translateControl"><polygon style="stroke : none; fill-opacity: 0.1; cursor:move" points="732.83,724.58 776.69,724.58 776.69,764.75 732.83,764.75 "/></g></g><g fill="#0000ff" stroke="#0000ff" style="display: none;" class="SelectionControls"><polygon fill="none" stroke="#0000ff" style="" points="663.24,625.05 798.33,625.05 798.33,825.38 663.24,825.38 "/><g style="display: none;" class="rotateControl"><circle cx="730.7843199586914" cy="595.0455140841653" r="5" style="stroke : none; fill-opacity: 0.5; cursor:crosshair"/></g><g style="display: none;" class="ResizeNControl"><circle cx="0" cy="0" r="5" style="stroke : none; fill-opacity: 0.5"/></g><g style="display: none;" class="ResizeNEControl"><circle cx="0" cy="0" r="5" style="stroke : none; fill-opacity: 0.5"/></g><g style="display: none;" class="ResizeEControl"><circle cx="0" cy="0" r="5" style="stroke : none; fill-opacity: 0.5"/></g><g style="display: none;" class="ResizeSEControl"><circle cx="0" cy="0" r="5" style="stroke : none; fill-opacity: 0.5"/></g><g style="display: none;" class="ResizeSControl"><circle cx="0" cy="0" r="5" style="stroke : none; fill-opacity: 0.5"/></g><g style="display: none;" class="ResizeSWControl"><circle cx="0" cy="0" r="5" style="stroke : none; fill-opacity: 0.5"/></g><g style="display: none;" class="ResizeWControl"><circle cx="0" cy="0" r="5" style="stroke : none; fill-opacity: 0.5"/></g><g style="display: none;" class="ResizeNWControl"><circle cx="0" cy="0" r="5" style="stroke : none; fill-opacity: 0.5"/></g><g style="display: none;" class="removeControl"><polygon style="stroke : none; fill-opacity: 0.1"/></g><g style="display: none;" class="copyPasteControl"><polygon style="stroke : none; fill-opacity: 0.1"/></g><g style="display: none;" class="translateControl"><polygon style="stroke : none; fill-opacity: 0.1; cursor:move"/></g></g></g></g></g></svg>
