<?xml version="1.0"?>
<svg xmlns="http://www.w3.org/2000/svg" xmlns:xlink="http://www.w3.org/1999/xlink" height="1053.281623840332" version="1.1" width="1111.8199615478516" id="temp" viewBox="0 0 1111.8199615478516 1053.281623840332"><defs/><g id="Model" class="Model v1-1"><g class="Floor"><g id="Floor-1" class="Floorplan Floor-1"><g id="ca3e7956-c96b-4e30-b687-231af59181a4" fill="#ffffff" stroke="#ffffff" style="fill-opacity: 1; stroke-opacity: 1; stroke-width: 0.2;" class="Space Undefined"><polygon points="405.00,442.13 405.00,791.90 294.08,791.90 294.08,442.13 "/><g transform="matrix(1,0,0,1,294.0769,442.1334)" class="Dimension"><g transform="matrix(1,0,0,1,0,0)" style="display: none;" class="Visual"><g id="mark1" fill="#000000" stroke="none" transform="matrix(1,0,0,1,55.4615,0)" style="fill-opacity: 1; pointer-events: visible;" class="DimensionMark"><polygon points="-5,5,0,0,5,5"/></g><g id="mark2" fill="#000000" stroke="none" transform="matrix(1,0,0,1,110.923,174.8832)" style="fill-opacity: 1; pointer-events: visible;" class="DimensionMark"><polygon points="-5,-5,0,0,-5,5"/></g><g id="mark3" fill="#000000" stroke="none" transform="matrix(1,0,0,1,55.4615,349.7664)" style="fill-opacity: 1; pointer-events: visible;" class="DimensionMark"><polygon points="-5,-5,0,0,5,-5"/></g><g id="mark4" fill="#000000" stroke="none" transform="matrix(1,0,0,1,0,174.8832)" style="fill-opacity: 1; pointer-events: visible;" class="DimensionMark"><polygon points="5,5,0,0,5,-5"/></g></g><g transform="matrix(1,0,0,1,-32.362,177.1451)" class="SpaceDimensionsLabel"><g id="NameLabel" style="display: block;" class="TextLabel NameLabel"><text x="0" y="0em" fill="#000000" stroke="none" style="font-family: Verdana; font-size: 33px; fill-opacity: 1; cursor: default;">UNDEFINED</text></g><g id="DimensionMeasureLabel" transform="matrix(1,0,0,1,-40.5234,79.9063)" style="display: none;" class="TextLabel DimensionMeasureLabel"><text x="42.1796875" y="-1.2em" fill="#000000" stroke="none" style="font-family: Verdana; font-size: 33px; fill-opacity: 1; cursor: default;">3'8" x 11'6"</text><text x="0" y="0em" fill="#000000" stroke="none" style="font-family: Verdana; font-size: 33px; fill-opacity: 1; cursor: default;">1.11 m x 3.50 m</text></g></g></g></g><g id="bbdff8ca-cff0-4136-af51-9e05d4f08da9" fill="#ffffff" stroke="#ffffff" style="fill-opacity: 1; stroke-opacity: 1; stroke-width: 0.2;" class="Space Entry Lobby"><polygon points="520.64,442.13 520.64,666.02 413.00,666.02 413.00,442.13 "/><g transform="matrix(1,0,0,1,412.9999,442.1334)" class="Dimension"><g transform="matrix(1,0,0,1,0,0)" style="display: none;" class="Visual"><g id="mark1" fill="#000000" stroke="none" transform="matrix(1,0,0,1,53.8186,0)" style="fill-opacity: 1; pointer-events: visible;" class="DimensionMark"><polygon points="-5,5,0,0,5,5"/></g><g id="mark2" fill="#000000" stroke="none" transform="matrix(1,0,0,1,107.6371,111.9434)" style="fill-opacity: 1; pointer-events: visible;" class="DimensionMark"><polygon points="-5,-5,0,0,-5,5"/></g><g id="mark3" fill="#000000" stroke="none" transform="matrix(1,0,0,1,53.8186,223.8869)" style="fill-opacity: 1; pointer-events: visible;" class="DimensionMark"><polygon points="-5,-5,0,0,5,-5"/></g><g id="mark4" fill="#000000" stroke="none" transform="matrix(1,0,0,1,0,111.9434)" style="fill-opacity: 1; pointer-events: visible;" class="DimensionMark"><polygon points="5,5,0,0,5,-5"/></g></g><g transform="matrix(1,0,0,1,18.9579,107.228)" class="SpaceDimensionsLabel"><g id="NameLabel" style="display: block;" class="TextLabel NameLabel"><text x="0" y="0em" fill="#000000" stroke="none" style="font-family: Verdana; font-size: 33px; fill-opacity: 1; cursor: default;">ET</text></g><g id="DimensionMeasureLabel" transform="matrix(1,0,0,1,-119.0859,79.9063)" style="display: none;" class="TextLabel DimensionMeasureLabel"><text x="52.671875" y="-1.2em" fill="#000000" stroke="none" style="font-family: Verdana; font-size: 33px; fill-opacity: 1; cursor: default;">3'6" x 7'4"</text><text x="0" y="0em" fill="#000000" stroke="none" style="font-family: Verdana; font-size: 33px; fill-opacity: 1; cursor: default;">1.08 m x 2.24 m</text></g></g></g></g><g id="937a8576-3e26-46d8-a27f-e6028e54ebb6" fill="#ffffff" stroke="#ffffff" style="fill-opacity: 1; stroke-opacity: 1; stroke-width: 0.2;" class="Space Kitchen"><polygon points="695.94,427.13 413.00,427.13 413.00,374.53 294.08,374.53 294.08,87.19 695.94,87.19 "/><g transform="matrix(1,0,0,1,294.0769,87.1874)" class="Dimension"><g transform="matrix(1,0,0,1,0,0)" style="display: none;" class="Visual"><g id="mark1" fill="#000000" stroke="none" transform="matrix(1,0,0,1,200.9301,0)" style="fill-opacity: 1; pointer-events: visible;" class="DimensionMark"><polygon points="-5,5,0,0,5,5"/></g><g id="mark2" fill="#000000" stroke="none" transform="matrix(1,0,0,1,401.8602,169.973)" style="fill-opacity: 1; pointer-events: visible;" class="DimensionMark"><polygon points="-5,-5,0,0,-5,5"/></g><g id="mark3" fill="#000000" stroke="none" transform="matrix(1,0,0,1,200.9301,339.946)" style="fill-opacity: 1; pointer-events: visible;" class="DimensionMark"><polygon points="-5,-5,0,0,5,-5"/></g><g id="mark4" fill="#000000" stroke="none" transform="matrix(1,0,0,1,0,169.973)" style="fill-opacity: 1; pointer-events: visible;" class="DimensionMark"><polygon points="5,5,0,0,5,-5"/></g></g><g transform="matrix(1,0,0,1,138.0108,165.8823)" class="SpaceDimensionsLabel"><g id="NameLabel" style="display: block;" class="TextLabel NameLabel"><text x="0" y="0em" fill="#000000" stroke="none" style="font-family: Verdana; font-size: 33px; fill-opacity: 1; cursor: default;">KEITTI&#xD6;</text></g><g id="DimensionMeasureLabel" transform="matrix(1,0,0,1,-71.4922,79.6406)" style="display: none;" class="TextLabel DimensionMeasureLabel"><text x="31.6953125" y="-1.2em" fill="#000000" stroke="none" style="font-family: Verdana; font-size: 33px; fill-opacity: 1; cursor: default;">13'2" x 11'2"</text><text x="0" y="0em" fill="#000000" stroke="none" style="font-family: Verdana; font-size: 33px; fill-opacity: 1; cursor: default;">4.02 m x 3.40 m</text></g></g></g></g><g id="5f0335b6-e09b-4bf4-a1ce-0805b29d8bbd" fill="#ffffff" stroke="#ffffff" style="fill-opacity: 1; stroke-opacity: 1; stroke-width: 0.2;" class="Space Room"><polygon points="1096.82,427.13 710.94,427.13 710.94,87.19 1096.82,87.19 "/><g transform="matrix(1,0,0,1,710.9371,87.1874)" class="Dimension"><g transform="matrix(1,0,0,1,0,0)" style="display: none;" class="Visual"><g id="mark1" fill="#000000" stroke="none" transform="matrix(1,0,0,1,192.9433,0)" style="fill-opacity: 1; pointer-events: visible;" class="DimensionMark"><polygon points="-5,5,0,0,5,5"/></g><g id="mark2" fill="#000000" stroke="none" transform="matrix(1,0,0,1,385.8867,169.973)" style="fill-opacity: 1; pointer-events: visible;" class="DimensionMark"><polygon points="-5,-5,0,0,-5,5"/></g><g id="mark3" fill="#000000" stroke="none" transform="matrix(1,0,0,1,192.9433,339.946)" style="fill-opacity: 1; pointer-events: visible;" class="DimensionMark"><polygon points="-5,-5,0,0,5,-5"/></g><g id="mark4" fill="#000000" stroke="none" transform="matrix(1,0,0,1,0,169.973)" style="fill-opacity: 1; pointer-events: visible;" class="DimensionMark"><polygon points="5,5,0,0,5,-5"/></g></g><g transform="matrix(1,0,0,1,196.9578,167.1745)" class="SpaceDimensionsLabel"><g id="NameLabel" style="display: block;" class="TextLabel NameLabel"><text x="0" y="0em" fill="#000000" stroke="none" style="font-family: Verdana; font-size: 33px; fill-opacity: 1; cursor: default;">H</text></g><g id="DimensionMeasureLabel" transform="matrix(1,0,0,1,-127.6016,79.8438)" style="display: none;" class="TextLabel DimensionMeasureLabel"><text x="31.6953125" y="-1.2em" fill="#000000" stroke="none" style="font-family: Verdana; font-size: 33px; fill-opacity: 1; cursor: default;">12'8" x 11'2"</text><text x="0" y="0em" fill="#000000" stroke="none" style="font-family: Verdana; font-size: 33px; fill-opacity: 1; cursor: default;">3.86 m x 3.40 m</text></g></g></g></g><g id="d8542a77-977d-4a4a-ad6f-0e860420d212" fill="#ffffff" stroke="#ffffff" style="fill-opacity: 1; stroke-opacity: 1; stroke-width: 0.2;" class="Space Room"><polygon points="1096.82,791.90 528.64,791.90 528.64,532.13 625.88,532.13 625.88,442.13 1096.82,442.13 "/><g transform="matrix(1,0,0,1,528.637,442.1334)" class="Dimension"><g transform="matrix(1,0,0,1,0,0)" style="display: none;" class="Visual"><g id="mark1" fill="#000000" stroke="none" transform="matrix(1,0,0,1,284.0934,0)" style="fill-opacity: 1; pointer-events: visible;" class="DimensionMark"><polygon points="-5,5,0,0,5,5"/></g><g id="mark2" fill="#000000" stroke="none" transform="matrix(1,0,0,1,568.1867,174.8832)" style="fill-opacity: 1; pointer-events: visible;" class="DimensionMark"><polygon points="-5,-5,0,0,-5,5"/></g><g id="mark3" fill="#000000" stroke="none" transform="matrix(1,0,0,1,284.0934,349.7664)" style="fill-opacity: 1; pointer-events: visible;" class="DimensionMark"><polygon points="-5,-5,0,0,5,-5"/></g><g id="mark4" fill="#000000" stroke="none" transform="matrix(1,0,0,1,0,174.8832)" style="fill-opacity: 1; pointer-events: visible;" class="DimensionMark"><polygon points="5,5,0,0,5,-5"/></g></g><g transform="matrix(1,0,0,1,292.3625,188.3118)" class="SpaceDimensionsLabel"><g id="NameLabel" style="display: block;" class="TextLabel NameLabel"><text x="0" y="0em" fill="#000000" stroke="none" style="font-family: Verdana; font-size: 33px; fill-opacity: 1; cursor: default;">H</text></g><g id="DimensionMeasureLabel" transform="matrix(1,0,0,1,-127.5781,80.0312)" style="display: none;" class="TextLabel DimensionMeasureLabel"><text x="31.6875" y="-1.2em" fill="#000000" stroke="none" style="font-family: Verdana; font-size: 33px; fill-opacity: 1; cursor: default;">18'8" x 11'6"</text><text x="0" y="0em" fill="#000000" stroke="none" style="font-family: Verdana; font-size: 33px; fill-opacity: 1; cursor: default;">5.68 m x 3.50 m</text></g></g></g></g><g id="b12766b4-893c-4876-82e4-3e90a37c1a90" fill="#ffffff" stroke="#ffffff" style="fill-opacity: 1; stroke-opacity: 1; stroke-width: 0.2;" class="Space DraughtLobby"><polygon points="520.64,791.90 413.00,791.90 413.00,674.02 520.64,674.02 "/><g transform="matrix(1,0,0,1,412.9999,674.0203)" class="Dimension"><g transform="matrix(1,0,0,1,0,0)" style="display: none;" class="Visual"><g id="mark1" fill="#000000" stroke="none" transform="matrix(1,0,0,1,53.8186,0)" style="fill-opacity: 1; pointer-events: visible;" class="DimensionMark"><polygon points="-5,5,0,0,5,5"/></g><g id="mark2" fill="#000000" stroke="none" transform="matrix(1,0,0,1,107.6371,58.9397)" style="fill-opacity: 1; pointer-events: visible;" class="DimensionMark"><polygon points="-5,-5,0,0,-5,5"/></g><g id="mark3" fill="#000000" stroke="none" transform="matrix(1,0,0,1,53.8186,117.8795)" style="fill-opacity: 1; pointer-events: visible;" class="DimensionMark"><polygon points="-5,-5,0,0,5,-5"/></g><g id="mark4" fill="#000000" stroke="none" transform="matrix(1,0,0,1,0,58.9397)" style="fill-opacity: 1; pointer-events: visible;" class="DimensionMark"><polygon points="5,5,0,0,5,-5"/></g></g><g transform="matrix(1,0,0,1,32.0441,103.174)" class="SpaceDimensionsLabel"><g id="NameLabel" style="display: block;" class="TextLabel NameLabel"><text x="0" y="0em" fill="#000000" stroke="none" style="font-family: Verdana; font-size: 33px; fill-opacity: 1; cursor: default;">TK</text></g><g id="DimensionMeasureLabel" transform="matrix(1,0,0,1,-118.7969,79.8906)" style="display: none;" class="TextLabel DimensionMeasureLabel"><text x="42.1796875" y="-1.2em" fill="#000000" stroke="none" style="font-family: Verdana; font-size: 33px; fill-opacity: 1; cursor: default;">3'6" x 3'10"</text><text x="0" y="0em" fill="#000000" stroke="none" style="font-family: Verdana; font-size: 33px; fill-opacity: 1; cursor: default;">1.08 m x 1.18 m</text></g></g></g></g><g id="bfc16642-93e9-4fd6-8a43-b2efbc87d438" fill="#ffffff" stroke="#ffffff" style="fill-opacity: 1; stroke-opacity: 1; stroke-width: 0.2;" class="Space Undefined"><polygon points="617.88,524.13 528.64,524.13 528.64,442.13 617.88,442.13 "/><g transform="matrix(1,0,0,1,528.637,442.1334)" class="Dimension"><g transform="matrix(1,0,0,1,0,0)" style="display: none;" class="Visual"><g id="mark1" fill="#000000" stroke="none" transform="matrix(1,0,0,1,44.6234,0)" style="fill-opacity: 1; pointer-events: visible;" class="DimensionMark"><polygon points="-5,5,0,0,5,5"/></g><g id="mark2" fill="#000000" stroke="none" transform="matrix(1,0,0,1,89.2468,40.9961)" style="fill-opacity: 1; pointer-events: visible;" class="DimensionMark"><polygon points="-5,-5,0,0,-5,5"/></g><g id="mark3" fill="#000000" stroke="none" transform="matrix(1,0,0,1,44.6234,81.9921)" style="fill-opacity: 1; pointer-events: visible;" class="DimensionMark"><polygon points="-5,-5,0,0,5,-5"/></g><g id="mark4" fill="#000000" stroke="none" transform="matrix(1,0,0,1,0,40.9961)" style="fill-opacity: 1; pointer-events: visible;" class="DimensionMark"><polygon points="5,5,0,0,5,-5"/></g></g><g transform="matrix(1,0,0,1,40.9961,40.996)" class="SpaceDimensionsLabel"><g id="NameLabel" style="display: block;" class="TextLabel NameLabel"><text x="0" y="0em" fill="#000000" stroke="none" style="font-family: Verdana; font-size: 33px; fill-opacity: 1; cursor: default;">UNDEFINED</text></g><g id="DimensionMeasureLabel" transform="matrix(1,0,0,1,-40.5078,80.3437)" style="display: none;" class="TextLabel DimensionMeasureLabel"><text x="42.171875" y="-1.2em" fill="#000000" stroke="none" style="font-family: Verdana; font-size: 33px; fill-opacity: 1; cursor: default;">2'11" x 2'8"</text><text x="0" y="0em" fill="#000000" stroke="none" style="font-family: Verdana; font-size: 33px; fill-opacity: 1; cursor: default;">0.89 m x 0.82 m</text></g></g></g></g><g id="2cbceb16-a79a-4aba-ad05-60a3ca98515d" fill="#ffffff" stroke="#ffffff" style="fill-opacity: 1; stroke-opacity: 1; stroke-width: 0.2;" class="Space Undefined"><polygon points="405.00,427.13 294.08,427.13 294.08,382.53 405.00,382.53 "/><g transform="matrix(1,0,0,1,294.0769,382.5327)" class="Dimension"><g transform="matrix(1,0,0,1,0,0)" style="display: none;" class="Visual"><g id="mark1" fill="#000000" stroke="none" transform="matrix(1,0,0,1,55.4615,0)" style="fill-opacity: 1; pointer-events: visible;" class="DimensionMark"><polygon points="-5,5,0,0,5,5"/></g><g id="mark2" fill="#000000" stroke="none" transform="matrix(1,0,0,1,110.923,22.3004)" style="fill-opacity: 1; pointer-events: visible;" class="DimensionMark"><polygon points="-5,-5,0,0,-5,5"/></g><g id="mark3" fill="#000000" stroke="none" transform="matrix(1,0,0,1,55.4615,44.6007)" style="fill-opacity: 1; pointer-events: visible;" class="DimensionMark"><polygon points="-5,-5,0,0,5,-5"/></g><g id="mark4" fill="#000000" stroke="none" transform="matrix(1,0,0,1,0,22.3004)" style="fill-opacity: 1; pointer-events: visible;" class="DimensionMark"><polygon points="5,5,0,0,5,-5"/></g></g><g transform="matrix(1,0,0,1,22.3004,22.3003)" class="SpaceDimensionsLabel"><g id="NameLabel" style="display: block;" class="TextLabel NameLabel"><text x="0" y="0em" fill="#000000" stroke="none" style="font-family: Verdana; font-size: 33px; fill-opacity: 1; cursor: default;">UNDEFINED</text></g><g id="DimensionMeasureLabel" transform="matrix(1,0,0,1,-40.5078,80.3437)" style="display: none;" class="TextLabel DimensionMeasureLabel"><text x="52.65625" y="-1.2em" fill="#000000" stroke="none" style="font-family: Verdana; font-size: 33px; fill-opacity: 1; cursor: default;">3'8" x 1'6"</text><text x="0" y="0em" fill="#000000" stroke="none" style="font-family: Verdana; font-size: 33px; fill-opacity: 1; cursor: default;">1.11 m x 0.45 m</text></g></g></g></g><g id="Wall" fill="#000000" stroke="#000000" style="fill-opacity: 1; stroke-opacity: 1; stroke-width: 0.2;" class="Wall External"><polygon points="294.08,791.90 294.08,87.19 279.08,72.19 279.08,806.90 "/><g id="Door" fill="#ffffff" stroke="#000000" style="fill-opacity: 1; stroke-width: 1; stroke-opacity: 1;" class="Door Swing Beside"><polygon points="294.08,528.65 294.08,450.91 279.08,450.91 279.08,528.65 "/><g id="Threshold" class="Threshold"><polygon points="294.08,528.65 294.08,450.91 279.08,450.91 279.08,528.65 "/></g><g id="Panel" fill="none" style="" class="Panel Right Positive"><g id="PanelArea" fill="none" stroke="none" style="" class="PanelArea"><polygon points="294.08,528.65 294.08,450.91 279.08,450.91 279.08,528.65 "/></g><path d="M279.08,528.65 q-77.74,0.00 -77.74,-77.74 l77.74,0.00Z"/></g></g></g><g id="Wall" fill="#000000" stroke="#000000" style="fill-opacity: 1; stroke-opacity: 1; stroke-width: 0.2;" class="Wall External"><polygon points="294.08,87.19 1096.82,87.19 1111.82,72.19 279.08,72.19 "/><g id="Window" fill="#f0f0ff" stroke="#000000" style="fill-opacity: 1; stroke-width: 1; stroke-opacity: 1;" class="Window Regular"><polygon points="837.04,87.19 991.81,87.19 991.81,72.19 837.04,72.19 "/><g id="Glass" class="Glass"><polygon points="837.04,87.19 991.81,87.19 991.81,72.19 837.04,72.19 "/></g><g id="Panel" class="Panel"><line x1="844.5363312393063" x2="984.3133040380524" y1="79.68738195516859" y2="79.68738195516856"/><line x1="844.5363312393063" x2="844.5363312393063" y1="87.18738195516859" y2="72.18738195516859"/><line x1="984.3133040380524" x2="984.3133040380524" y1="87.18738195516856" y2="72.18738195516856"/></g></g><g id="Window" fill="#f0f0ff" stroke="#000000" style="fill-opacity: 1; stroke-width: 1; stroke-opacity: 1;" class="Window Regular"><polygon points="447.28,87.19 595.72,87.19 595.72,72.19 447.28,72.19 "/><g id="Glass" class="Glass"><polygon points="447.28,87.19 595.72,87.19 595.72,72.19 447.28,72.19 "/></g><g id="Panel" class="Panel"><line x1="454.77958810627575" x2="588.2247300045009" y1="79.68738195516866" y2="79.68738195516863"/><line x1="454.77958810627575" x2="454.77958810627575" y1="87.18738195516866" y2="72.18738195516866"/><line x1="588.2247300045009" x2="588.2247300045009" y1="87.18738195516863" y2="72.18738195516863"/></g></g></g><g id="Wall" fill="#000000" stroke="#000000" style="fill-opacity: 1; stroke-opacity: 1; stroke-width: 0.2;" class="Wall External"><polygon points="1096.82,87.19 1096.82,791.90 1111.82,806.90 1111.82,72.19 "/></g><g id="Wall" fill="#000000" stroke="#000000" style="fill-opacity: 1; stroke-opacity: 1; stroke-width: 0.2;" class="Wall External"><polygon points="1096.82,791.90 294.08,791.90 279.08,806.90 1111.82,806.90 "/><g id="Door" fill="#ffffff" stroke="#000000" style="fill-opacity: 1; stroke-width: 1; stroke-opacity: 1;" class="Door Swing Beside"><polygon points="504.32,791.90 427.40,791.90 427.40,806.90 504.32,806.90 "/><g id="Threshold" class="Threshold"><polygon points="504.32,791.90 427.40,791.90 427.40,806.90 504.32,806.90 "/></g><g id="Panel" fill="none" style="" class="Panel Right Positive"><g id="PanelArea" fill="none" stroke="none" style="" class="PanelArea"><polygon points="504.32,791.90 427.40,791.90 427.40,806.90 504.32,806.90 "/></g><path d="M504.32,806.90 q0.00,76.91 -76.91,76.91 l0.00,-76.91Z"/></g></g><g id="Window" fill="#f0f0ff" stroke="#000000" style="fill-opacity: 1; stroke-width: 1; stroke-opacity: 1;" class="Window Regular"><polygon points="817.12,791.90 684.12,791.90 684.12,806.90 817.12,806.90 "/><g id="Glass" class="Glass"><polygon points="817.12,791.90 684.12,791.90 684.12,806.90 817.12,806.90 "/></g><g id="Panel" class="Panel"><line x1="809.6163912521357" x2="691.6244884440412" y1="799.3997573141073" y2="799.3997573141073"/><line x1="809.6163912521357" x2="809.6163912521357" y1="791.8997573141073" y2="806.8997573141073"/><line x1="691.6244884440412" x2="691.6244884440412" y1="791.8997573141073" y2="806.8997573141073"/></g></g><g id="Window" fill="#f0f0ff" stroke="#000000" style="fill-opacity: 1; stroke-width: 1; stroke-opacity: 1;" class="Window Regular"><polygon points="963.32,791.90 842.72,791.90 842.72,806.90 963.32,806.90 "/><g id="Glass" class="Glass"><polygon points="963.32,791.90 842.72,791.90 842.72,806.90 963.32,806.90 "/></g><g id="Panel" class="Panel"><line x1="955.8248806746994" x2="850.2235278176695" y1="799.3997573141073" y2="799.3997573141073"/><line x1="955.8248806746994" x2="955.8248806746994" y1="791.8997573141073" y2="806.8997573141073"/><line x1="850.2235278176695" x2="850.2235278176695" y1="791.8997573141073" y2="806.8997573141073"/></g></g></g><g id="Wall" fill="#000000" stroke="#000000" style="fill-opacity: 1; stroke-opacity: 1; stroke-width: 0.2;" class="Wall"><polygon points="294.08,442.13 1096.82,442.13 1096.82,427.13 294.08,427.13 "/><g id="Door" fill="#ffffff" stroke="#000000" style="fill-opacity: 1; stroke-width: 1; stroke-opacity: 1;" class="Door Swing Beside"><polygon points="430.71,442.13 503.30,442.13 503.30,427.13 430.71,427.13 "/><g id="Threshold" class="Threshold"><polygon points="430.71,442.13 503.30,442.13 503.30,427.13 430.71,427.13 "/></g><g id="Panel" fill="none" style="" class="Panel Right Negative"><g id="PanelArea" fill="none" stroke="none" style="" class="PanelArea"><polygon points="430.71,442.13 503.30,442.13 503.30,427.13 430.71,427.13 "/></g><path d="M503.30,442.13 q0.00,72.59 -72.59,72.59 l0.00,-72.59Z"/></g></g><g id="Door" fill="#ffffff" stroke="#000000" style="fill-opacity: 1; stroke-width: 1; stroke-opacity: 1;" class="Door Swing Beside"><polygon points="829.67,442.13 905.47,442.13 905.47,427.13 829.67,427.13 "/><g id="Threshold" class="Threshold"><polygon points="829.67,442.13 905.47,442.13 905.47,427.13 829.67,427.13 "/></g><g id="Panel" fill="none" style="" class="Panel Left Negative"><g id="PanelArea" fill="none" stroke="none" style="" class="PanelArea"><polygon points="829.67,442.13 905.47,442.13 905.47,427.13 829.67,427.13 "/></g><path d="M829.67,442.13 q0.00,75.80 75.80,75.80 l0.00,-75.80Z"/></g></g></g><g id="Wall" fill="#000000" stroke="#000000" style="fill-opacity: 1; stroke-opacity: 1; stroke-width: 0.2;" class="Wall"><polygon points="710.94,427.13 710.94,87.19 695.94,87.19 695.94,427.13 "/><g id="Door" fill="#ffffff" stroke="#000000" style="fill-opacity: 1; stroke-width: 1; stroke-opacity: 1;" class="Door Swing Beside"><polygon points="710.94,203.23 710.94,129.53 695.94,129.53 695.94,203.23 "/><g id="Threshold" class="Threshold"><polygon points="710.94,203.23 710.94,129.53 695.94,129.53 695.94,203.23 "/></g><g id="Panel" fill="none" style="" class="Panel Left Negative"><g id="PanelArea" fill="none" stroke="none" style="" class="PanelArea"><polygon points="710.94,203.23 710.94,129.53 695.94,129.53 695.94,203.23 "/></g><path d="M710.94,203.23 q73.70,0.00 73.70,-73.70 l-73.70,0.00Z"/></g></g></g><g id="Wall" fill="#000000" stroke="#000000" style="fill-opacity: 1; stroke-opacity: 1; stroke-width: 0.2;" class="Wall"><polygon points="413.00,791.90 413.00,442.13 405.00,442.13 405.00,791.90 "/></g><g id="Wall" fill="#000000" stroke="#000000" style="fill-opacity: 1; stroke-opacity: 1; stroke-width: 0.2;" class="Wall"><polygon points="528.64,791.90 528.64,442.13 520.64,442.13 520.64,791.90 "/><g id="Door" fill="#ffffff" stroke="#000000" style="fill-opacity: 1; stroke-width: 1; stroke-opacity: 1;" class="Door Swing Beside"><polygon points="528.64,619.55 528.64,539.24 520.64,539.24 520.64,619.55 "/><g id="Threshold" class="Threshold"><polygon points="528.64,619.55 528.64,539.24 520.64,539.24 520.64,619.55 "/></g><g id="Panel" fill="none" style="" class="Panel Left Positive"><g id="PanelArea" fill="none" stroke="none" style="" class="PanelArea"><polygon points="528.64,619.55 528.64,539.24 520.64,539.24 520.64,619.55 "/></g><path d="M520.64,539.24 q-80.31,0.00 -80.31,80.31 l80.31,0.00Z"/></g></g><g id="Door" fill="#ffffff" stroke="#000000" style="fill-opacity: 1; stroke-width: 1; stroke-opacity: 1;" class="Door Swing Beside"><polygon points="528.64,518.36 528.64,469.13 520.64,469.13 520.64,518.36 "/><g id="Threshold" class="Threshold"><polygon points="528.64,518.36 528.64,469.13 520.64,469.13 520.64,518.36 "/></g><g id="Panel" fill="none" style="" class="Panel Left Positive"><g id="PanelArea" fill="none" stroke="none" style="" class="PanelArea"><polygon points="528.64,518.36 528.64,469.13 520.64,469.13 520.64,518.36 "/></g><path d="M520.64,469.13 q-49.23,0.00 -49.23,49.23 l49.23,0.00Z"/></g></g></g><g id="Wall" fill="#000000" stroke="#000000" style="fill-opacity: 1; stroke-opacity: 1; stroke-width: 0.2;" class="Wall"><polygon points="411.00,674.02 520.64,674.02 520.64,666.02 411.00,666.02 "/><g id="Door" fill="#ffffff" stroke="#000000" style="fill-opacity: 1; stroke-width: 1; stroke-opacity: 1;" class="Door Swing Beside"><polygon points="430.17,674.02 502.58,674.02 502.58,666.02 430.17,666.02 "/><g id="Threshold" class="Threshold"><polygon points="430.17,674.02 502.58,674.02 502.58,666.02 430.17,666.02 "/></g><g id="Panel" fill="none" style="" class="Panel Right Negative"><g id="PanelArea" fill="none" stroke="none" style="" class="PanelArea"><polygon points="430.17,674.02 502.58,674.02 502.58,666.02 430.17,666.02 "/></g><path d="M502.58,674.02 q0.00,72.41 -72.41,72.41 l0.00,-72.41Z"/></g></g></g><g id="Wall" fill="#000000" stroke="#000000" style="fill-opacity: 1; stroke-opacity: 1; stroke-width: 0.2;" class="Wall"><polygon points="528.64,532.13 625.88,532.13 617.88,524.13 528.64,524.13 "/></g><g id="Wall" fill="#000000" stroke="#000000" style="fill-opacity: 1; stroke-opacity: 1; stroke-width: 0.2;" class="Wall"><polygon points="625.88,532.13 625.88,442.13 617.88,442.13 617.88,524.13 "/></g><g id="Wall" fill="#000000" stroke="#000000" style="fill-opacity: 1; stroke-opacity: 1; stroke-width: 0.2;" class="Wall"><polygon points="413.00,427.13 413.00,374.53 405.00,382.53 405.00,427.13 "/></g><g id="Wall" fill="#000000" stroke="#000000" style="fill-opacity: 1; stroke-opacity: 1; stroke-width: 0.2;" class="Wall"><polygon points="413.00,374.53 294.08,374.53 294.08,382.53 405.00,382.53 "/><g id="Door" fill="#ffffff" stroke="#000000" style="fill-opacity: 1; stroke-width: 1; stroke-opacity: 1;" class="Door Swing Beside"><polygon points="398.75,374.53 353.11,374.53 353.11,382.53 398.75,382.53 "/><g id="Threshold" class="Threshold"><polygon points="398.75,374.53 353.11,374.53 353.11,382.53 398.75,382.53 "/></g><g id="Panel" fill="none" style="" class="Panel Left Negative"><g id="PanelArea" fill="none" stroke="none" style="" class="PanelArea"><polygon points="398.75,374.53 353.11,374.53 353.11,382.53 398.75,382.53 "/></g><path d="M398.75,374.53 q0.00,-45.65 -45.65,-45.65 l0.00,45.65Z"/></g></g></g><g id="Railing" fill="#ffffff" stroke="#000000" style="fill-opacity: 1; stroke-opacity: 1; stroke-width: 0.2;" class="Railing"><polygon points="176.64,685.37 176.64,571.73 168.64,575.07 168.64,685.37 " style="stroke-dasharray: 113.637, 8.66823, 118.3;"/></g><g id="Railing" fill="#ffffff" stroke="#000000" style="fill-opacity: 1; stroke-opacity: 1; stroke-width: 0.2;" class="Railing"><polygon points="176.64,571.73 140.42,535.87 132.42,539.21 168.64,575.07 " style="stroke-dasharray: 50.9647, 8.66823, 50.9647, 8.66823;"/></g><g id="Railing" fill="#ffffff" stroke="#000000" style="fill-opacity: 1; stroke-opacity: 1; stroke-width: 0.2;" class="Railing"><polygon points="140.42,535.87 140.42,445.85 132.42,442.56 132.42,539.21 " style="stroke-dasharray: 90.0231, 8.65029, 96.651, 8.66823;"/></g><g id="Railing" fill="#ffffff" stroke="#000000" style="fill-opacity: 1; stroke-opacity: 1; stroke-width: 0.2;" class="Railing"><polygon points="140.42,445.85 173.25,412.69 169.91,404.69 132.42,442.56 " style="stroke-dasharray: 46.6655, 8.66806, 53.293, 8.65029;"/></g><g id="Railing" fill="#ffffff" stroke="#000000" style="fill-opacity: 1; stroke-opacity: 1; stroke-width: 0.2;" class="Railing"><polygon points="173.25,412.69 279.08,412.69 279.08,404.69 169.91,404.69 " style="stroke-dasharray: 222.988, 8.66806;"/></g><g id="Stairs" fill="#ffffff" stroke="#000000" style="fill-opacity: 1; stroke-opacity: 1;" class="Stairs"><g id="Flight" class="Flight"><polygon points="279.08,685.37 279.08,591.76 176.64,591.76 176.64,685.37 "/><g class="WalkinLine "><path fill="none" stroke="#d3d3d3" d="M227.86,685.37 L227.86,591.76 " style="pointer-events: none; marker-end: url(&quot;#Marker3&quot;);"/><defs><marker viewBox="0 0 12 12" markerWidth="12" markerHeight="12" orient="auto" refX="11" refY="6" id="Marker3" fill="#d3d3d3" stroke="#d3d3d3" style="pointer-events: none;"><polygon points="0.00,0.00 0.00,12.00 10.00,6.00 0.00,0.00 "/></marker></defs></g><g id="Steps" class="Steps"><line x1="279.07689158672156" x2="176.6367084216223" y1="685.3667281070502" y2="685.3667281070502"/><line x1="279.07689158672156" x2="176.6367084216223" y1="661.965979800383" y2="661.965979800383"/><line x1="279.07689158672156" x2="176.6367084216223" y1="638.5652314937158" y2="638.5652314937158"/><line x1="279.0768915867215" x2="176.63670842162225" y1="615.1644831870487" y2="615.1644831870487"/><line x1="279.0768915867215" x2="176.63670842162225" y1="591.7637348803815" y2="591.7637348803815"/></g></g></g><g id="Stairs" fill="#ffffff" stroke="#000000" style="fill-opacity: 1; stroke-opacity: 1;" class="Stairs"><g id="Flight" class="Flight"><polygon points="294.09,563.39 294.09,674.22 404.96,674.22 404.96,563.39 "/><g class="WalkinLine "><path fill="none" stroke="#d3d3d3" d="M349.52,563.39 L349.52,674.22 " style="pointer-events: none; marker-end: none;"/><defs><marker viewBox="0 0 12 12" markerWidth="12" markerHeight="12" orient="auto" refX="11" refY="6" id="Marker6" fill="#d3d3d3" stroke="#d3d3d3" style="pointer-events: none;"><polygon points="0.00,0.00 0.00,12.00 10.00,6.00 0.00,0.00 "/></marker></defs></g><g id="Steps" class="Steps"><line x1="294.0869112324445" x2="404.9552659553298" y1="563.3883729358685" y2="563.3883729358685"/><line x1="294.0869112324445" x2="404.9552659553298" y1="585.5542274743904" y2="585.5542274743904"/><line x1="294.0869112324445" x2="404.9552659553298" y1="607.7200820129123" y2="607.7200820129123"/><line x1="294.0869112324445" x2="404.9552659553298" y1="629.8859365514343" y2="629.8859365514343"/><line x1="294.0869112324445" x2="404.9552659553298" y1="652.0517910899562" y2="652.0517910899562"/><line x1="294.0869112324445" x2="404.9552659553298" y1="674.2176456284781" y2="674.2176456284781"/></g></g><g id="Winding" class="Winding"><polygon points="405.01,674.22 294.09,674.22 294.08,791.90 405.00,791.90 "/><g class="WalkinLine "><path fill="none" stroke="#d3d3d3" d="M349.55,674.22 L349.54,733.06 L405.00,733.06 " style="pointer-events: none; marker-end: url(&quot;#Marker7&quot;);"/><defs><marker viewBox="0 0 12 12" markerWidth="12" markerHeight="12" orient="auto" refX="11" refY="6" id="Marker7" fill="#d3d3d3" stroke="#d3d3d3" style="pointer-events: none;"><polygon points="0.00,0.00 0.00,12.00 10.00,6.00 0.00,0.00 "/></marker></defs></g><g id="Steps" class="Steps"><line x1="405.0099027865711" x2="294.0869112324445" y1="674.2176456284781" y2="674.2176456284781"/><line x1="405.0099027865711" x2="294.081901409583" y1="674.2176456284781" y2="733.0587014712927"/><line x1="405.0099027865711" x2="294.07689158672156" y1="674.2176456284781" y2="791.8997573141073"/><line x1="405.0099027865711" x2="349.53838736378486" y1="674.2176456284781" y2="791.8997573141073"/><line x1="405.0099027865711" x2="404.99988314084817" y1="674.2176456284781" y2="791.8997573141073"/></g></g></g><g id="Railing" fill="#ffffff" stroke="#000000" style="fill-opacity: 1; stroke-opacity: 1; stroke-width: 0.2;" class="Railing"><polygon points="368.43,806.90 368.43,963.49 376.43,955.49 376.43,806.90 " style="stroke-dasharray: 156.593, 11.3137, 156.593;"/></g><g id="Railing" fill="#ffffff" stroke="#000000" style="fill-opacity: 1; stroke-opacity: 1; stroke-width: 0.2;" class="Railing"><polygon points="368.43,963.49 415.00,963.49 423.00,955.49 376.43,955.49 " style="stroke-dasharray: 46.5649, 11.3137, 46.5649, 11.3137;"/></g><g id="Railing" fill="#ffffff" stroke="#000000" style="fill-opacity: 1; stroke-opacity: 1; stroke-width: 0.2;" class="Railing"><polygon points="415.00,963.49 415.00,1053.28 423.00,1053.28 423.00,955.49 " style="stroke-dasharray: 195.577, 11.3137;"/></g><g id="Railing" fill="#ffffff" stroke="#000000" style="fill-opacity: 1; stroke-opacity: 1; stroke-width: 0.2;" class="Railing"><polygon points="517.98,1053.28 517.98,806.90 509.98,806.90 509.98,1053.28 " style="stroke-dasharray: 0;"/></g><g id="Stairs" fill="#ffffff" stroke="#000000" style="fill-opacity: 1; stroke-opacity: 1;" class="Stairs"><g id="Flight" class="Flight"><polygon points="509.98,1053.28 509.98,963.49 422.98,963.49 422.98,1053.28 "/><g class="WalkinLine "><path fill="none" stroke="#d3d3d3" d="M466.48,1053.28 L466.48,963.49 " style="pointer-events: none; marker-end: url(&quot;#Marker8&quot;);"/><defs><marker viewBox="0 0 12 12" markerWidth="12" markerHeight="12" orient="auto" refX="11" refY="6" id="Marker8" fill="#d3d3d3" stroke="#d3d3d3" style="pointer-events: none;"><polygon points="0.00,0.00 0.00,12.00 10.00,6.00 0.00,0.00 "/></marker></defs></g><g id="Steps" class="Steps"><line x1="509.978995492972" x2="422.98350601843856" y1="1053.2816473013436" y2="1053.2816473013436"/><line x1="509.978995492972" x2="422.98350601843856" y1="1030.834505909419" y2="1030.834505909419"/><line x1="509.978995492972" x2="422.98350601843856" y1="1008.3873645174945" y2="1008.3873645174945"/><line x1="509.978995492972" x2="422.98350601843856" y1="985.94022312557" y2="985.94022312557"/><line x1="509.978995492972" x2="422.98350601843856" y1="963.4930817336455" y2="963.4930817336455"/></g></g></g><g id="Column" fill="#000000" stroke="none" style="fill-opacity: 1;" class="Column FreeShape"><polygon points="695.94,427.13 695.94,373.44 611.40,373.44 611.40,427.74 695.94,427.13 "/></g><g id="Column" fill="#000000" stroke="none" style="fill-opacity: 1;" class="Column FreeShape"><polygon points="564.44,442.13 564.44,457.51 617.88,457.51 617.88,442.13 564.44,442.13 "/></g><g class="FixedFurniture Toilet" transform="matrix(0,0.9021,-0.9225,0,618.3451,469.9698)" style="fill-opacity: 1; stroke-opacity: 1;" fill="#ffffff" stroke="#000000">
	   <g class="BoundaryPolygon" fill="rgb(255, 255, 255)" stroke="rgb(0, 0, 0)"> 
		<rect x="0.502" y="0.5" width="39.989" height="17.98"/>
          <path d="M40.491,44.237S41.619,70.5,20.907,70.5C-.523,70.5.6,44.237.6,44.237L.5,18.48H40.491Z"/>
          <rect x="17.318" y="7.975" width="6.357" height="3.03"/>
		</g>
        <desc>Width:40 Height:85 Depth:70 Elevation:0</desc>
    </g><g class="FixedFurniture FireplaceCorner" transform="matrix(0,-1,1,0,625.9307,517.6334)" style="fill-opacity: 1; stroke-opacity: 1;" fill="#ffffff" stroke="#000000"> 
	   <g class="BoundaryPolygon" fill="rgb(255, 255, 255)" stroke="none"> 
		<polygon points="0,0 75,0 75,75, 0,75"/> 
		</g>
		
	   <g class="Lines" fill="none" stroke="rgb(76, 76, 76)"> 
		  <line x1="41.978" y1="0.5" x2="75.5" y2="34.026"/>
            <line x1="9.726" y1="0.5" x2="75.5" y2="66.237"/>
            <line x1="0.5" y1="8.611" x2="67.386" y2="75.5"/>
            <line x1="26.284" y1="0.5" x2="75.183" y2="49.404"/>
            <line x1="0.5" y1="25.759" x2="50.143" y2="75.4"/>
            <line x1="59.944" y1="0.5" x2="75.5" y2="16.058"/>
		</g>
		
	   <g class="OverlayPolygon" fill="none" stroke="rgb(0, 0, 0)"> 
		<polygon points="33.933 75.5 75.5 75.5 75.5 0.5 0.5 0.5 0.5 41.735 33.933 75.5"/>  
		</g>
		
	   <g class="FireBox" fill="rgb(255, 255, 255)" stroke="rgb(0, 0, 0)">	
		<polygon points="0.739 41.989 34.215 8.38 67.304 41.602 33.829 75.21 0.739 41.989"/>
	       </g>
        <g class="Direction" fill-opacity="0.9" style="display: none;">
            <polygon points="35.459 70.197 35.459 59.581 32.45 59.581 32.45 70.197 28.647 70.197 33.95 75.5 39.253 70.197 35.459 70.197" fill="#444444"/>
        </g> 
        <g class="Name" fill-opacity="0.9" style="display: none;">
            <text transform="translate(3 12)" font-size="12" font-family="Verdana, Sans-Serif">FP</text>
        </g>
         <desc>Width:75 Height:120 Depth:75 Elevation:0</desc>
    </g><g class="FixedFurniture FireplaceCorner" transform="matrix(-1,0,0,-1,786.437,427.0865)" style="fill-opacity: 1; stroke-opacity: 1;" fill="#ffffff" stroke="#000000"> 
	   <g class="BoundaryPolygon" fill="rgb(255, 255, 255)" stroke="none"> 
		<polygon points="0,0 75,0 75,75, 0,75"/> 
		</g>
		
	   <g class="Lines" fill="none" stroke="rgb(76, 76, 76)"> 
		  <line x1="41.978" y1="0.5" x2="75.5" y2="34.026"/>
            <line x1="9.726" y1="0.5" x2="75.5" y2="66.237"/>
            <line x1="0.5" y1="8.611" x2="67.386" y2="75.5"/>
            <line x1="26.284" y1="0.5" x2="75.183" y2="49.404"/>
            <line x1="0.5" y1="25.759" x2="50.143" y2="75.4"/>
            <line x1="59.944" y1="0.5" x2="75.5" y2="16.058"/>
		</g>
		
	   <g class="OverlayPolygon" fill="none" stroke="rgb(0, 0, 0)"> 
		<polygon points="33.933 75.5 75.5 75.5 75.5 0.5 0.5 0.5 0.5 41.735 33.933 75.5"/>  
		</g>
		
	   <g class="FireBox" fill="rgb(255, 255, 255)" stroke="rgb(0, 0, 0)">	
		<polygon points="0.739 41.989 34.215 8.38 67.304 41.602 33.829 75.21 0.739 41.989"/>
	       </g>
        <g class="Direction" fill-opacity="0.9" style="display: none;">
            <polygon points="35.459 70.197 35.459 59.581 32.45 59.581 32.45 70.197 28.647 70.197 33.95 75.5 39.253 70.197 35.459 70.197" fill="#444444"/>
        </g> 
        <g class="Name" fill-opacity="0.9" style="display: none;">
            <text transform="translate(3 12)" font-size="12" font-family="Verdana, Sans-Serif">FP</text>
        </g>
         <desc>Width:75 Height:120 Depth:75 Elevation:0</desc>
    </g><g class="FixedFurniture BaseCabinet" transform="matrix(0,1,-1,0,695.7496,223.02)" style="fill-opacity: 1; stroke-opacity: 1;" fill="#ffffff" stroke="#000000">
            <g class="BoundaryPolygon" fill="rgb(255, 255, 255)" stroke="rgb(0, 0, 0)">
                <polygon points="0.00,0.00 150.42,0.00 150.42,55.92 0.00,55.92 "/>
            </g>
            <g class="Direction" fill-opacity="0.9" style="display: none;">
                <polygon points="80.25,51.44 80.25,40.83 77.24,40.83 77.24,51.44 73.44,51.44 78.74,56.25 84.04,51.44 80.25,51.44 " fill="#444444"/>
            </g> 
            <g class="Name" fill-opacity="0.9" style="display: none;">
                <text transform="translate(3 12)" font-size="12" font-family="Verdana, Sans-Serif">CB</text>
            </g>
            <desc>Width:60 Height:90 Depth:60 Elevation:0</desc>
        </g><g class="FixedFurniture Sink" transform="matrix(0,1,-1,0,695.7784,239.9369)" style="fill-opacity: 1; stroke-opacity: 1;" fill="#ffffff" stroke="#000000">
            <g class="InnerPolygon" fill="rgb(255, 255, 255)" stroke="rgb(0, 0, 0)">
                <polygon points="5.00,9.70 55.00,9.70 55.00,50.69 5.00,50.69 "/>
            </g>
            <g class="OuterDrain" fill="rgb(255, 255, 255)" stroke="rgb(0, 0, 0)" stroke-width="0.8">
                <circle cx="30" cy="29.837774778530164" r="3.5"/>
            </g>
            <g class="InnerDrain" fill="rgb(255, 255, 255)" stroke="rgb(0, 0, 0)" stroke-width="0.8">
                <circle cx="30" cy="29.837774778530164" r="2"/>
            </g>
            <g class="Faucet" fill="rgb(255, 255, 255)" stroke="rgb(0, 0, 0)">
                <polygon points="27.00,4.63 33.00,4.63 33.00,18.63 27.00,18.63 "/>
            </g>
           <g class="Direction" fill-opacity="0.9" style="display: none;">
                <polygon points="32.01,51.15 32.01,40.53 29.00,40.53 29.00,51.15 25.20,51.15 30.50,55.95 35.80,51.15 32.01,51.15 " fill="#444444"/>
            </g> 
            <g class="Name" fill-opacity="0.9" style="display: none;">
                <text transform="translate(3 12)" font-size="12" font-family="Verdana, Sans-Serif">SINK</text>
            </g>
            <desc>Width:60 Height:90 Depth:60 Elevation:0</desc>
        </g><g class="FixedFurniture BaseCabinet" transform="matrix(-1,0,0,-1,611.4,427.0553)" style="fill-opacity: 1; stroke-opacity: 1;" fill="#ffffff" stroke="#000000">
            <g class="BoundaryPolygon" fill="rgb(255, 255, 255)" stroke="rgb(0, 0, 0)">
                <polygon points="0.00,0.00 89.34,0.00 89.34,53.18 0.00,53.18 "/>
            </g>
            <g class="Direction" fill-opacity="0.9" style="display: none;">
                <polygon points="47.66,48.92 47.66,38.30 44.65,38.30 44.65,48.92 40.85,48.92 46.15,53.72 51.45,48.92 47.66,48.92 " fill="#444444"/>
            </g> 
            <g class="Name" fill-opacity="0.9" style="display: none;">
                <text transform="translate(3 12)" font-size="12" font-family="Verdana, Sans-Serif">CB</text>
            </g>
            <desc>Width:60 Height:90 Depth:60 Elevation:0</desc>
        </g><g class="FixedFurniture BaseCabinet" transform="matrix(0,-1,1,0,294.1394,374.5326)" style="fill-opacity: 1; stroke-opacity: 1;" fill="#ffffff" stroke="#000000">
            <g class="BoundaryPolygon" fill="rgb(255, 255, 255)" stroke="rgb(0, 0, 0)">
                <polygon points="0.00,0.00 287.39,0.00 287.39,55.58 0.00,55.58 "/>
            </g>
            <g class="Direction" fill-opacity="0.9" style="display: none;">
                <polygon points="153.32,51.13 153.32,40.51 150.31,40.51 150.31,51.13 146.51,51.13 151.81,55.93 157.11,51.13 153.32,51.13 " fill="#444444"/>
            </g> 
            <g class="Name" fill-opacity="0.9" style="display: none;">
                <text transform="translate(3 12)" font-size="12" font-family="Verdana, Sans-Serif">CB</text>
            </g>
            <desc>Width:60 Height:90 Depth:60 Elevation:0</desc>
        </g><g class="FixedFurniture WallCabinet" transform="matrix(0,-1,1,0,294.2019,374.2874)" style="fill-opacity: 0.7; stroke-opacity: 1;" fill="#ffffff" stroke="#000000">	
        <g class="BoundaryPolygon" fill="rgb(255, 255, 255)" stroke="rgb(0, 0, 0)">
                <polygon points="0.00,0.00 287.10,0.00 287.10,30.00 0.00,30.00 "/>
        </g>
        <g class="Direction" fill-opacity="0.9" style="display: none;">
                <polygon points="153.16,25.20 153.16,14.58 150.15,14.58 150.15,25.20 146.35,25.20 151.65,30.00 156.96,25.20 153.16,25.20 " fill="#444444"/>
        </g> 
        <g class="Name" fill-opacity="0.9" style="display: none;">
                <text transform="translate(3 12)" font-size="12" font-family="Verdana, Sans-Serif">UC</text>
        </g>
        <desc>Width:60 Height:60 Depth:50 Elevation:140</desc>
        </g><g fill="#0000ff" stroke="#0000ff" style="display: none;" class="SelectionControls"><g style="display: none;" class="rotateControl"><circle cx="500.5876915867215" cy="190.10093195516865" r="5" style="stroke : none; fill-opacity: 0.5; cursor:crosshair"/></g><g style="display: none;" class="ResizeNControl"><circle cx="0" cy="0" r="5" style="stroke : none; fill-opacity: 0.5"/></g><g style="display: none;" class="ResizeNEControl"><circle cx="0" cy="0" r="5" style="stroke : none; fill-opacity: 0.5"/></g><g style="display: none;" class="ResizeEControl"><circle cx="0" cy="0" r="5" style="stroke : none; fill-opacity: 0.5"/></g><g style="display: none;" class="ResizeSEControl"><circle cx="0" cy="0" r="5" style="stroke : none; fill-opacity: 0.5"/></g><g style="display: none;" class="ResizeSControl"><circle cx="0" cy="0" r="5" style="stroke : none; fill-opacity: 0.5"/></g><g style="display: none;" class="ResizeSWControl"><circle cx="0" cy="0" r="5" style="stroke : none; fill-opacity: 0.5"/></g><g style="display: none;" class="ResizeWControl"><circle cx="0" cy="0" r="5" style="stroke : none; fill-opacity: 0.5"/></g><g style="display: none;" class="ResizeNWControl"><circle cx="0" cy="0" r="5" style="stroke : none; fill-opacity: 0.5"/></g><g style="display: none;" class="removeControl"><polygon style="stroke : none; fill-opacity: 0.1" points="432.09,220.10 569.09,220.10 569.09,259.98 432.09,259.98 "/></g><g style="display: none;" class="copyPasteControl"><polygon style="stroke : none; fill-opacity: 0.1"/></g><g style="display: none;" class="translateControl"><polygon style="stroke : none; fill-opacity: 0.1; cursor:move" points="432.09,220.10 569.09,220.10 569.09,259.98 432.09,259.98 "/></g></g><g fill="#0000ff" stroke="#0000ff" style="display: none;" class="SelectionControls"><polygon fill="none" stroke="#0000ff" style="" points="294.08,87.19 695.94,87.19 695.94,427.13 294.08,427.13 "/><g style="display: none;" class="rotateControl"><circle cx="495.00699107402625" cy="57.18738195516866" r="5" style="stroke : none; fill-opacity: 0.5; cursor:crosshair"/></g><g style="display: none;" class="ResizeNControl"><circle cx="0" cy="0" r="5" style="stroke : none; fill-opacity: 0.5"/></g><g style="display: none;" class="ResizeNEControl"><circle cx="0" cy="0" r="5" style="stroke : none; fill-opacity: 0.5"/></g><g style="display: none;" class="ResizeEControl"><circle cx="0" cy="0" r="5" style="stroke : none; fill-opacity: 0.5"/></g><g style="display: none;" class="ResizeSEControl"><circle cx="0" cy="0" r="5" style="stroke : none; fill-opacity: 0.5"/></g><g style="display: none;" class="ResizeSControl"><circle cx="0" cy="0" r="5" style="stroke : none; fill-opacity: 0.5"/></g><g style="display: none;" class="ResizeSWControl"><circle cx="0" cy="0" r="5" style="stroke : none; fill-opacity: 0.5"/></g><g style="display: none;" class="ResizeWControl"><circle cx="0" cy="0" r="5" style="stroke : none; fill-opacity: 0.5"/></g><g style="display: none;" class="ResizeNWControl"><circle cx="0" cy="0" r="5" style="stroke : none; fill-opacity: 0.5"/></g><g style="display: none;" class="removeControl"><polygon style="stroke : none; fill-opacity: 0.1"/></g><g style="display: none;" class="copyPasteControl"><polygon style="stroke : none; fill-opacity: 0.1"/></g><g style="display: none;" class="translateControl"><polygon style="stroke : none; fill-opacity: 0.1; cursor:move"/></g></g></g></g></g></svg>
