<?xml version="1.0"?>
<svg xmlns="http://www.w3.org/2000/svg" xmlns:xlink="http://www.w3.org/1999/xlink" height="1141.569902420044" version="1.1" width="652.2147026062012" id="temp" viewBox="0 0 652.2147026062012 1141.569902420044"><defs/><g id="Model" class="Model v1-1"><g class="Floor"><g id="Floor-1" transform="matrix(1,0,0,1,0,0)" class="Floorplan Floor-1"><g id="822caf65-cae2-45f2-aba6-472c4dbaacfb" class="Space DraughtLobby" fill="#ffffff" stroke="#ffffff" style="fill-opacity: 1; stroke-opacity: 1; stroke-width: 0.2;"><polygon points="233.01,993.44 63.52,993.44 63.52,893.64 233.01,893.64 "/><g transform="matrix(1,0,0,1,63.5241,893.6434)" class="Dimension"><g transform="matrix(1,0,0,1,0,0)" style="display: none;" class="Visual"><g id="mark1" fill="#000000" stroke="none" transform="matrix(1,0,0,1,84.7428,0)" style="fill-opacity: 1; pointer-events: visible;" class="DimensionMark"><polygon points="-5,5,0,0,5,5"/></g><g id="mark2" fill="#000000" stroke="none" transform="matrix(1,0,0,1,169.4855,49.8969)" style="fill-opacity: 1; pointer-events: visible;" class="DimensionMark"><polygon points="-5,-5,0,0,-5,5"/></g><g id="mark3" fill="#000000" stroke="none" transform="matrix(1,0,0,1,84.7428,99.7937)" style="fill-opacity: 1; pointer-events: visible;" class="DimensionMark"><polygon points="-5,-5,0,0,5,-5"/></g><g id="mark4" fill="#000000" stroke="none" transform="matrix(1,0,0,1,0,49.8969)" style="fill-opacity: 1; pointer-events: visible;" class="DimensionMark"><polygon points="5,5,0,0,5,-5"/></g></g><g transform="matrix(1,0,0,1,89.9121,62.1682)" class="SpaceDimensionsLabel"><g id="NameLabel" style="display: block;" class="TextLabel NameLabel"><text x="0" y="0em" fill="#000000" stroke="none" style="font-family: Verdana; font-size: 33px; fill-opacity: 1; cursor: default;">TK</text></g><g id="DimensionMeasureLabel" transform="matrix(1,0,0,1,-66.164,39.9999)" style="display: none;" class="TextLabel DimensionMeasureLabel"><text x="0" y="0em" fill="#000000" stroke="none" style="font-family: Verdana; font-size: 33px; fill-opacity: 1; cursor: default;">5'7" x 3'3"</text><text x="0" y="0" fill="#000000" stroke="none" style="font-family: Verdana; font-size: 33px; fill-opacity: 1; cursor: default;"/></g></g></g></g><g id="db6c4147-33ec-44e6-b78c-0566828e3162" class="Space Bath" fill="#ffffff" stroke="#ffffff" style="fill-opacity: 1; stroke-opacity: 1; stroke-width: 0.2;"><polygon points="239.64,582.74 63.52,582.74 63.52,413.68 239.64,413.68 "/><g transform="matrix(1,0,0,1,63.5241,413.683)" class="Dimension"><g transform="matrix(1,0,0,1,0,0)" style="display: none;" class="Visual"><g id="mark1" fill="#000000" stroke="none" transform="matrix(1,0,0,1,88.0583,0)" style="fill-opacity: 1; pointer-events: visible;" class="DimensionMark"><polygon points="-5,5,0,0,5,5"/></g><g id="mark2" fill="#000000" stroke="none" transform="matrix(1,0,0,1,176.1165,84.5263)" style="fill-opacity: 1; pointer-events: visible;" class="DimensionMark"><polygon points="-5,-5,0,0,-5,5"/></g><g id="mark3" fill="#000000" stroke="none" transform="matrix(1,0,0,1,88.0583,169.0526)" style="fill-opacity: 1; pointer-events: visible;" class="DimensionMark"><polygon points="-5,-5,0,0,5,-5"/></g><g id="mark4" fill="#000000" stroke="none" transform="matrix(1,0,0,1,0,84.5263)" style="fill-opacity: 1; pointer-events: visible;" class="DimensionMark"><polygon points="5,5,0,0,5,-5"/></g></g><g transform="matrix(1,0,0,1,106.8445,133.7803)" class="SpaceDimensionsLabel"><g id="NameLabel" style="display: block;" class="TextLabel NameLabel"><text x="0" y="0em" fill="#000000" stroke="none" style="font-family: Verdana; font-size: 33px; fill-opacity: 1; cursor: default;">KH</text></g><g id="DimensionMeasureLabel" transform="matrix(1,0,0,1,-63.5,39.9999)" style="display: none;" class="TextLabel DimensionMeasureLabel"><text x="0" y="0em" fill="#000000" stroke="none" style="font-family: Verdana; font-size: 33px; fill-opacity: 1; cursor: default;">5'9" x 5'7"</text><text x="0" y="0" fill="#000000" stroke="none" style="font-family: Verdana; font-size: 33px; fill-opacity: 1; cursor: default;"/></g></g></g></g><g id="ce58e400-ffae-4f84-b384-069365a970bc" class="Space Kitchen Kitchenette" fill="#ffffff" stroke="#ffffff" style="fill-opacity: 1; stroke-opacity: 1; stroke-width: 0.2;"><polygon points="239.64,405.68 63.52,405.68 63.52,184.52 239.64,184.52 "/><g transform="matrix(1,0,0,1,63.5241,184.52)" class="Dimension"><g transform="matrix(1,0,0,1,0,0)" style="display: none;" class="Visual"><g id="mark1" fill="#000000" stroke="none" transform="matrix(1,0,0,1,88.0583,0)" style="fill-opacity: 1; pointer-events: visible;" class="DimensionMark"><polygon points="-5,5,0,0,5,5"/></g><g id="mark2" fill="#000000" stroke="none" transform="matrix(1,0,0,1,176.1165,110.5815)" style="fill-opacity: 1; pointer-events: visible;" class="DimensionMark"><polygon points="-5,-5,0,0,-5,5"/></g><g id="mark3" fill="#000000" stroke="none" transform="matrix(1,0,0,1,88.0583,221.1629)" style="fill-opacity: 1; pointer-events: visible;" class="DimensionMark"><polygon points="-5,-5,0,0,5,-5"/></g><g id="mark4" fill="#000000" stroke="none" transform="matrix(1,0,0,1,0,110.5815)" style="fill-opacity: 1; pointer-events: visible;" class="DimensionMark"><polygon points="5,5,0,0,5,-5"/></g></g><g transform="matrix(1,0,0,1,59.1755,122.0142)" class="SpaceDimensionsLabel"><g id="NameLabel" style="display: block;" class="TextLabel NameLabel"><text x="0" y="0em" fill="#000000" stroke="none" style="font-family: Verdana; font-size: 33px; fill-opacity: 1; cursor: default;">KK</text></g><g id="DimensionMeasureLabel" transform="matrix(1,0,0,1,-64.3985,39.9999)" style="display: none;" class="TextLabel DimensionMeasureLabel"><text x="0" y="0em" fill="#000000" stroke="none" style="font-family: Verdana; font-size: 33px; fill-opacity: 1; cursor: default;">5'9" x 7'3"</text><text x="0" y="0" fill="#000000" stroke="none" style="font-family: Verdana; font-size: 33px; fill-opacity: 1; cursor: default;"/></g></g></g></g><g id="7f9c14ec-80e0-47c6-8c3f-070f7f8d17dd" class="Space Bedroom" fill="#ffffff" stroke="#ffffff" style="fill-opacity: 1; stroke-opacity: 1; stroke-width: 0.2;"><polygon points="602.21,993.44 242.01,993.44 242.01,690.65 602.21,690.65 "/><g transform="matrix(1,0,0,1,242.0096,690.6464)" class="Dimension"><g transform="matrix(1,0,0,1,0,0)" style="display: none;" class="Visual"><g id="mark1" fill="#000000" stroke="none" transform="matrix(1,0,0,1,180.1012,0)" style="fill-opacity: 1; pointer-events: visible;" class="DimensionMark"><polygon points="-5,5,0,0,5,5"/></g><g id="mark2" fill="#000000" stroke="none" transform="matrix(1,0,0,1,360.2023,151.3953)" style="fill-opacity: 1; pointer-events: visible;" class="DimensionMark"><polygon points="-5,-5,0,0,-5,5"/></g><g id="mark3" fill="#000000" stroke="none" transform="matrix(1,0,0,1,180.1012,302.7906)" style="fill-opacity: 1; pointer-events: visible;" class="DimensionMark"><polygon points="-5,-5,0,0,5,-5"/></g><g id="mark4" fill="#000000" stroke="none" transform="matrix(1,0,0,1,0,151.3953)" style="fill-opacity: 1; pointer-events: visible;" class="DimensionMark"><polygon points="5,5,0,0,5,-5"/></g></g><g transform="matrix(1,0,0,1,181.079,167.0184)" class="SpaceDimensionsLabel"><g id="NameLabel" style="display: block;" class="TextLabel NameLabel"><text x="0" y="0em" fill="#000000" stroke="none" style="font-family: Verdana; font-size: 33px; fill-opacity: 1; cursor: default;">MH</text></g><g id="DimensionMeasureLabel" transform="matrix(1,0,0,1,-92.4922,39.9999)" style="display: none;" class="TextLabel DimensionMeasureLabel"><text x="0" y="0em" fill="#000000" stroke="none" style="font-family: Verdana; font-size: 33px; fill-opacity: 1; cursor: default;">11'10" x 9'11"</text><text x="0" y="0" fill="#000000" stroke="none" style="font-family: Verdana; font-size: 33px; fill-opacity: 1; cursor: default;"/></g></g></g></g><g id="0cc26c28-2627-43ac-8b66-5b4ce128638c" class="Space Entry Lobby" fill="#ffffff" stroke="#ffffff" style="fill-opacity: 1; stroke-opacity: 1; stroke-width: 0.2;"><polygon points="248.64,682.65 233.01,682.65 233.01,885.64 63.52,885.64 63.52,590.74 248.64,590.74 "/><g transform="matrix(1,0,0,1,63.5241,590.7356)" class="Dimension"><g transform="matrix(1,0,0,1,0,0)" style="display: none;" class="Visual"><g id="mark1" fill="#000000" stroke="none" transform="matrix(1,0,0,1,92.5583,0)" style="fill-opacity: 1; pointer-events: visible;" class="DimensionMark"><polygon points="-5,5,0,0,5,5"/></g><g id="mark2" fill="#000000" stroke="none" transform="matrix(1,0,0,1,169.4855,147.4539)" style="fill-opacity: 1; pointer-events: visible;" class="DimensionMark"><polygon points="-5,-5,0,0,-5,5"/></g><g id="mark3" fill="#000000" stroke="none" transform="matrix(1,0,0,1,92.5583,294.9078)" style="fill-opacity: 1; pointer-events: visible;" class="DimensionMark"><polygon points="-5,-5,0,0,5,-5"/></g><g id="mark4" fill="#000000" stroke="none" transform="matrix(1,0,0,1,0,147.4539)" style="fill-opacity: 1; pointer-events: visible;" class="DimensionMark"><polygon points="5,5,0,0,5,-5"/></g></g><g transform="matrix(1,0,0,1,82.6221,157.6127)" class="SpaceDimensionsLabel"><g id="NameLabel" style="display: block;" class="TextLabel NameLabel"><text x="0" y="0em" fill="#000000" stroke="none" style="font-family: Verdana; font-size: 33px; fill-opacity: 1; cursor: default;">ET</text></g><g id="DimensionMeasureLabel" transform="matrix(1,0,0,1,-66.3985,39.9999)" style="display: none;" class="TextLabel DimensionMeasureLabel"><text x="0" y="0em" fill="#000000" stroke="none" style="font-family: Verdana; font-size: 33px; fill-opacity: 1; cursor: default;">5'7" x 9'8"</text><text x="0" y="0" fill="#000000" stroke="none" style="font-family: Verdana; font-size: 33px; fill-opacity: 1; cursor: default;"/></g></g></g></g><g id="d1e89306-78d9-428e-afe0-84a21a43b3d5" class="Space LivingRoom" fill="#ffffff" stroke="#ffffff" style="fill-opacity: 1; stroke-opacity: 1; stroke-width: 0.2;"><polygon points="602.21,682.65 248.64,682.65 248.64,348.73 602.21,348.73 "/><g transform="matrix(1,0,0,1,248.6406,348.7297)" class="Dimension"><g transform="matrix(1,0,0,1,0,0)" style="display: none;" class="Visual"><g id="mark1" fill="#000000" stroke="none" transform="matrix(1,0,0,1,176.7857,0)" style="fill-opacity: 1; pointer-events: visible;" class="DimensionMark"><polygon points="-5,5,0,0,5,5"/></g><g id="mark2" fill="#000000" stroke="none" transform="matrix(1,0,0,1,353.5713,166.9584)" style="fill-opacity: 1; pointer-events: visible;" class="DimensionMark"><polygon points="-5,-5,0,0,-5,5"/></g><g id="mark3" fill="#000000" stroke="none" transform="matrix(1,0,0,1,176.7857,333.9168)" style="fill-opacity: 1; pointer-events: visible;" class="DimensionMark"><polygon points="-5,-5,0,0,5,-5"/></g><g id="mark4" fill="#000000" stroke="none" transform="matrix(1,0,0,1,0,166.9584)" style="fill-opacity: 1; pointer-events: visible;" class="DimensionMark"><polygon points="5,5,0,0,5,-5"/></g></g><g transform="matrix(1,0,0,1,151.6245,177.0228)" class="SpaceDimensionsLabel"><g id="NameLabel" style="display: block;" class="TextLabel NameLabel"><text x="0" y="0em" fill="#000000" stroke="none" style="font-family: Verdana; font-size: 33px; fill-opacity: 1; cursor: default;">OH</text></g><g id="DimensionMeasureLabel" transform="matrix(1,0,0,1,-93.4141,39.9999)" style="display: none;" class="TextLabel DimensionMeasureLabel"><text x="0" y="0em" fill="#000000" stroke="none" style="font-family: Verdana; font-size: 33px; fill-opacity: 1; cursor: default;">11'7" x 10'11"</text><text x="0" y="0" fill="#000000" stroke="none" style="font-family: Verdana; font-size: 33px; fill-opacity: 1; cursor: default;"/></g></g></g></g><g id="f51ff80f-f011-42b0-9f72-8b53e1f16315" class="Space Dining" fill="#ffffff" stroke="#ffffff" style="fill-opacity: 1; stroke-opacity: 1; stroke-width: 0.2;"><polygon points="602.21,348.73 248.64,348.73 248.64,184.52 602.21,184.52 "/><g transform="matrix(1,0,0,1,248.6406,184.52)" class="Dimension"><g transform="matrix(1,0,0,1,0,0)" style="display: none;" class="Visual"><g id="mark1" fill="#000000" stroke="none" transform="matrix(1,0,0,1,176.7857,0)" style="fill-opacity: 1; pointer-events: visible;" class="DimensionMark"><polygon points="-5,5,0,0,5,5"/></g><g id="mark2" fill="#000000" stroke="none" transform="matrix(1,0,0,1,353.5713,82.1048)" style="fill-opacity: 1; pointer-events: visible;" class="DimensionMark"><polygon points="-5,-5,0,0,-5,5"/></g><g id="mark3" fill="#000000" stroke="none" transform="matrix(1,0,0,1,176.7857,164.2096)" style="fill-opacity: 1; pointer-events: visible;" class="DimensionMark"><polygon points="-5,-5,0,0,5,-5"/></g><g id="mark4" fill="#000000" stroke="none" transform="matrix(1,0,0,1,0,82.1048)" style="fill-opacity: 1; pointer-events: visible;" class="DimensionMark"><polygon points="5,5,0,0,5,-5"/></g></g><g transform="matrix(1,0,0,1,90.1177,102.74)" class="SpaceDimensionsLabel"><g id="NameLabel" style="display: block;" class="TextLabel NameLabel"><text x="0" y="0em" fill="#000000" stroke="none" style="font-family: Verdana; font-size: 33px; fill-opacity: 1; cursor: default;">RUOK</text></g><g id="DimensionMeasureLabel" transform="matrix(1,0,0,1,-49.789,39.9999)" style="display: none;" class="TextLabel DimensionMeasureLabel"><text x="0" y="0em" fill="#000000" stroke="none" style="font-family: Verdana; font-size: 33px; fill-opacity: 1; cursor: default;">11'7" x 5'5"</text><text x="0" y="0" fill="#000000" stroke="none" style="font-family: Verdana; font-size: 33px; fill-opacity: 1; cursor: default;"/></g></g></g></g><g id="09c92636-1dd7-482b-86d5-52593fffabf2" class="Space Outdoor" fill="#ffffff" stroke="#000000" style="stroke-width: 0.2; fill-opacity: 1; stroke-opacity: 1;"><polygon points="562.36,157.47 562.36,10.92 411.72,10.92 411.72,157.47 562.36,157.47 562.36,157.47 "/><g transform="matrix(1,0,0,1,411.7208,10.9169)" class="Dimension"><g transform="matrix(1,0,0,1,0,0)" style="display: none;" class="Visual"><g id="mark1" fill="#000000" stroke="none" transform="matrix(1,0,0,1,75.32,0)" style="fill-opacity: 1; pointer-events: visible;" class="DimensionMark"><polygon points="-5,5,0,0,5,5"/></g><g id="mark2" fill="#000000" stroke="none" transform="matrix(1,0,0,1,150.6401,73.2751)" style="fill-opacity: 1; pointer-events: visible;" class="DimensionMark"><polygon points="-5,-5,0,0,-5,5"/></g><g id="mark3" fill="#000000" stroke="none" transform="matrix(1,0,0,1,75.32,146.5503)" style="fill-opacity: 1; pointer-events: visible;" class="DimensionMark"><polygon points="-5,-5,0,0,5,-5"/></g><g id="mark4" fill="#000000" stroke="none" transform="matrix(1,0,0,1,0,73.2751)" style="fill-opacity: 1; pointer-events: visible;" class="DimensionMark"><polygon points="5,5,0,0,5,-5"/></g></g><g transform="matrix(1,0,0,1,73.2752,73.2752)" class="SpaceDimensionsLabel"><g id="NameLabel" style="display: block;" class="TextLabel NameLabel"><text x="0" y="0em" fill="#000000" stroke="none" style="font-family: Verdana; font-size: 33px; fill-opacity: 1; cursor: default;">ULKOTILA</text></g><g id="DimensionMeasureLabel" transform="matrix(1,0,0,1,-24.8359,39.9999)" style="display: none;" class="TextLabel DimensionMeasureLabel"><text x="0" y="0em" fill="#000000" stroke="none" style="font-family: Verdana; font-size: 33px; fill-opacity: 1; cursor: default;">4'11" x 4'10"</text><text x="0" y="0" fill="#000000" stroke="none" style="font-family: Verdana; font-size: 33px; fill-opacity: 1; cursor: default;"/></g></g></g></g><g id="1612f2c9-df5a-4768-a69a-0dd5058ee1c5" class="Space Outdoor" fill="#ffffff" stroke="#000000" style="stroke-width: 0.2; fill-opacity: 1; stroke-opacity: 1;"><polygon points="217.31,1023.44 217.31,1010.06 119.26,1010.06 119.26,1023.44 99.34,1023.44 99.34,1141.57 308.61,1141.57 308.61,1023.60 217.31,1023.44 217.31,1023.44 "/><g transform="matrix(1,0,0,1,99.3391,1010.0608)" class="Dimension"><g transform="matrix(1,0,0,1,0,0)" style="display: none;" class="Visual"><g id="mark1" fill="#000000" stroke="none" transform="matrix(1,0,0,1,104.6337,0)" style="fill-opacity: 1; pointer-events: visible;" class="DimensionMark"><polygon points="-5,5,0,0,5,5"/></g><g id="mark2" fill="#000000" stroke="none" transform="matrix(1,0,0,1,209.2673,65.7548)" style="fill-opacity: 1; pointer-events: visible;" class="DimensionMark"><polygon points="-5,-5,0,0,-5,5"/></g><g id="mark3" fill="#000000" stroke="none" transform="matrix(1,0,0,1,104.6337,131.5095)" style="fill-opacity: 1; pointer-events: visible;" class="DimensionMark"><polygon points="-5,-5,0,0,5,-5"/></g><g id="mark4" fill="#000000" stroke="none" transform="matrix(1,0,0,1,0,65.7548)" style="fill-opacity: 1; pointer-events: visible;" class="DimensionMark"><polygon points="5,5,0,0,5,-5"/></g></g><g transform="matrix(1,0,0,1,65.7547,65.7547)" class="SpaceDimensionsLabel"><g id="NameLabel" style="display: block;" class="TextLabel NameLabel"><text x="0" y="0em" fill="#000000" stroke="none" style="font-family: Verdana; font-size: 33px; fill-opacity: 1; cursor: default;">ULKOTILA</text></g><g id="DimensionMeasureLabel" transform="matrix(1,0,0,1,-14.3437,39.9999)" style="display: none;" class="TextLabel DimensionMeasureLabel"><text x="0" y="0em" fill="#000000" stroke="none" style="font-family: Verdana; font-size: 33px; fill-opacity: 1; cursor: default;">6'10" x 4'4"</text><text x="0" y="0" fill="#000000" stroke="none" style="font-family: Verdana; font-size: 33px; fill-opacity: 1; cursor: default;"/></g></g></g></g><g id="Wall" class="Wall External" fill="#000000" stroke="#000000" style="fill-opacity: 1; stroke-opacity: 1; stroke-width: 0.2;"><polygon points="63.52,993.44 63.52,184.52 37.52,156.52 37.52,1023.44 "/></g><g id="Wall" class="Wall External" fill="#000000" stroke="#000000" style="fill-opacity: 1; stroke-opacity: 1; stroke-width: 0.2;"><polygon points="63.52,184.52 602.21,184.52 630.21,156.52 37.52,156.52 "/><g id="Door" fill="#ffffff" stroke="#000000" style="fill-opacity: 1; stroke-width: 1; stroke-opacity: 1;" class="Door Swing Opposite"><polygon points="474.25,184.52 549.74,184.52 549.74,156.52 474.25,156.52 "/><g id="Threshold" class="Threshold"><polygon points="474.25,184.52 549.74,184.52 549.74,156.52 474.25,156.52 "/></g><g id="Panel" fill="none" style="" class="Panel Left Negative"><g id="PanelArea" fill="none" stroke="none" style="" class="PanelArea"><polygon points="474.25,184.52 549.74,184.52 549.74,156.52 474.25,156.52 "/></g><path d="M474.25,184.52 q0.00,75.49 75.49,75.49 l0.00,-75.49Z"/></g><g id="Panel" fill="none" style="" class="Panel Right Positive"><g id="PanelArea" fill="none" stroke="none" style="" class="PanelArea"><polygon points="474.25,184.52 549.74,184.52 549.74,156.52 474.25,156.52 "/></g><path d="M474.25,156.52 q0.00,-75.49 75.49,-75.49 l0.00,75.49Z"/></g></g><g id="Window" fill="#f0f0ff" stroke="#000000" style="fill-opacity: 1; stroke-width: 1; stroke-opacity: 1;" class="Window Regular"><polygon points="262.49,184.52 466.48,184.52 466.48,156.52 262.49,156.52 "/><g id="Glass" class="Glass"><polygon points="262.49,184.52 466.48,184.52 466.48,156.52 262.49,156.52 "/></g><g id="Panel" class="Panel"><line x1="269.989990234375" x2="458.9800109863281" y1="170.52000427246094" y2="170.52000427246094"/><line x1="269.989990234375" x2="269.989990234375" y1="184.52000427246094" y2="156.52000427246094"/><line x1="458.9800109863281" x2="458.9800109863281" y1="184.52000427246094" y2="156.52000427246094"/></g></g></g><g id="Wall" class="Wall External" fill="#000000" stroke="#000000" style="fill-opacity: 1; stroke-opacity: 1; stroke-width: 0.2;"><polygon points="630.21,156.52 630.21,1023.44 602.21,993.44 602.21,184.52 "/></g><g id="Wall" class="Wall" fill="#000000" stroke="#000000" style="fill-opacity: 1; stroke-opacity: 1; stroke-width: 0.2;"><polygon points="242.01,1023.44 242.01,690.65 233.01,682.65 233.01,1023.44 "/><g id="Door" fill="#ffffff" stroke="#000000" style="fill-opacity: 1; stroke-width: 1; stroke-opacity: 1;" class="Door Swing Beside"><polygon points="242.01,773.45 242.01,696.59 233.01,696.59 233.01,773.45 "/><g id="Threshold" class="Threshold"><polygon points="242.01,773.45 242.01,696.59 233.01,696.59 233.01,773.45 "/></g><g id="Panel" fill="none" style="" class="Panel Left Negative"><g id="PanelArea" fill="none" stroke="none" style="" class="PanelArea"><polygon points="242.01,773.45 242.01,696.59 233.01,696.59 233.01,773.45 "/></g><path d="M242.01,773.45 q76.86,0.00 76.86,-76.86 l-76.86,0.00Z"/></g></g></g><g id="Wall" class="Wall" fill="#000000" stroke="#000000" style="fill-opacity: 1; stroke-opacity: 1; stroke-width: 0.2;"><polygon points="242.01,690.65 630.21,690.65 630.21,682.65 233.01,682.65 "/></g><g id="Wall" class="Wall" fill="#000000" stroke="#000000" style="fill-opacity: 1; stroke-opacity: 1; stroke-width: 0.2;"><polygon points="37.52,893.64 242.01,893.64 242.01,885.64 37.52,885.64 "/><g id="Door" fill="#ffffff" stroke="#000000" style="fill-opacity: 1; stroke-width: 1; stroke-opacity: 1;" class="Door Swing Beside"><polygon points="127.54,893.64 212.97,893.64 212.97,885.64 127.54,885.64 "/><g id="Threshold" class="Threshold"><polygon points="127.54,893.64 212.97,893.64 212.97,885.64 127.54,885.64 "/></g><g id="Panel" fill="none" style="" class="Panel Left Positive"><g id="PanelArea" fill="none" stroke="none" style="" class="PanelArea"><polygon points="127.54,893.64 212.97,893.64 212.97,885.64 127.54,885.64 "/></g><path d="M212.97,885.64 q0.00,-85.43 -85.43,-85.43 l0.00,85.43Z"/></g></g></g><g id="Wall" class="Wall" fill="#000000" stroke="#000000" style="fill-opacity: 1; stroke-opacity: 1; stroke-width: 0.2;"><polygon points="37.52,590.74 248.64,590.74 239.64,582.74 37.52,582.74 "/><g id="Door" fill="#ffffff" stroke="#000000" style="fill-opacity: 1; stroke-width: 1; stroke-opacity: 1;" class="Door Swing Beside"><polygon points="153.17,590.74 233.74,590.74 233.74,582.74 153.17,582.74 "/><g id="Threshold" class="Threshold"><polygon points="153.17,590.74 233.74,590.74 233.74,582.74 153.17,582.74 "/></g><g id="Panel" fill="none" style="" class="Panel Right Negative"><g id="PanelArea" fill="none" stroke="none" style="" class="PanelArea"><polygon points="153.17,590.74 233.74,590.74 233.74,582.74 153.17,582.74 "/></g><path d="M233.74,590.74 q0.00,80.57 -80.57,80.57 l0.00,-80.57Z"/></g></g></g><g id="Wall" class="Wall" fill="#000000" stroke="#000000" style="fill-opacity: 1; stroke-opacity: 1; stroke-width: 0.2;"><polygon points="248.64,590.74 248.64,156.52 239.64,156.52 239.64,582.74 "/></g><g id="Wall" class="Wall" fill="#000000" stroke="#000000" style="fill-opacity: 1; stroke-opacity: 1; stroke-width: 0.2;"><polygon points="37.52,413.68 248.64,413.68 248.64,405.68 37.52,405.68 "/></g><g id="Wall" class="Wall External" fill="#000000" stroke="#000000" style="fill-opacity: 1; stroke-opacity: 1; stroke-width: 0.2;"><polygon points="119.26,1023.44 37.52,1023.44 63.52,993.44 119.26,993.44 "/></g><g id="Wall" class="Wall External" fill="#000000" stroke="#000000" style="fill-opacity: 1; stroke-opacity: 1; stroke-width: 0.2;"><polygon points="630.21,1023.44 217.31,1023.44 217.31,993.44 602.21,993.44 "/><g id="Window" fill="#f0f0ff" stroke="#000000" style="fill-opacity: 1; stroke-width: 1; stroke-opacity: 1;" class="Window Regular"><polygon points="485.88,1023.44 308.25,1023.44 308.25,993.44 485.88,993.44 "/><g id="Glass" class="Glass"><polygon points="485.88,1023.44 308.25,1023.44 308.25,993.44 485.88,993.44 "/></g><g id="Panel" class="Panel"><line x1="478.3800048828125" x2="315.75" y1="1008.4400024414062" y2="1008.4400024414062"/><line x1="478.3800048828125" x2="478.3800048828125" y1="1023.4400024414062" y2="993.4400024414062"/><line x1="315.75" x2="315.75" y1="1023.4400024414062" y2="993.4400024414062"/></g></g></g><g id="Wall" class="Wall External" fill="#000000" stroke="#000000" style="fill-opacity: 1; stroke-opacity: 1; stroke-width: 0.2;"><polygon points="217.31,993.44 119.26,993.44 119.26,1010.06 217.31,1010.06 "/><g id="Door" fill="#ffffff" stroke="#000000" style="fill-opacity: 1; stroke-width: 1; stroke-opacity: 1;" class="Door Swing Beside"><polygon points="212.53,993.44 125.58,993.44 125.58,1010.06 212.53,1010.06 "/><g id="Threshold" class="Threshold"><polygon points="212.53,993.44 125.58,993.44 125.58,1010.06 212.53,1010.06 "/></g><g id="Panel" fill="none" style="" class="Panel Right Positive"><g id="PanelArea" fill="none" stroke="none" style="" class="PanelArea"><polygon points="212.53,993.44 125.58,993.44 125.58,1010.06 212.53,1010.06 "/></g><path d="M212.53,1010.06 q0.00,86.95 -86.95,86.95 l0.00,-86.95Z"/></g></g></g><g id="Wall" class="Wall" fill="#000000" stroke="#000000" style="fill-opacity: 1; stroke-opacity: 1; stroke-width: 0.2;"><polygon points="625.05,156.52 625.05,10.92 616.05,10.92 616.05,156.52 "/></g><g id="Wall" class="Wall" fill="#000000" stroke="#000000" style="fill-opacity: 1; stroke-opacity: 1; stroke-width: 0.2;"><polygon points="59.28,156.52 59.28,10.92 50.28,10.92 50.28,156.52 "/></g><g id="FixedFurnitureSet" transform="matrix(1,0,0,1,113.1804,413.683)" class="FixedFurnitureSet" style=""><g class="FixedFurniture BaseCabinet" fill="#ffffff" stroke="#000000" transform="matrix(1,0,0,1,0,0)" style="fill-opacity: 1; stroke-opacity: 1; stroke-width: 1;">
        <g class="BoundaryPolygon">
            <polygon points="0.00,0.00 52.08,0.00 52.08,43.05 0.00,43.05 "/>
        </g>
        <g class="Direction" fill-opacity="0.9" style="display: none;">
            <polygon points="27.78,39.60 27.78,28.99 24.77,28.99 24.77,39.60 20.97,39.60 26.27,44.41 31.58,39.60 27.78,39.60 " fill="#444444"/>
        </g> 
        <g class="Name" fill-opacity="0.9" style="display: none;">
            <text transform="translate(3 12)" font-size="12" font-family="Verdana, Sans-Serif">CB</text>
        </g>
        <desc>Width:60 Height:5 Depth:60 Elevation:105</desc>
    </g><g class="FixedFurniture Sink" fill="#ffffff" stroke="#000000" transform="matrix(1,0,0,1,0,0)" style="fill-opacity: 1; stroke-opacity: 1; stroke-width: 1;">
        <g class="BoundaryPolygon" fill="none" stroke="none">
        <polygon points="0.00,0.00 52.08,0.00 52.08,43.05 0.00,43.05 "/>
        </g>
        <g class="InnerPolygon">
            <polygon points="4.34,9.70 47.74,9.70 47.74,39.25 4.34,39.25 "/>
        </g>
        <g class="OuterDrain" stroke-width="0.8">
            <circle cx="26.038959010186083" cy="23.103730365717237" r="3.5"/>
        </g>
        <g class="InnerDrain" stroke-width="0.8">
            <circle cx="26.038959010186083" cy="23.103730365717237" r="2"/>
        </g>
        <g class="Faucet">
            <polygon points="23.44,3.59 29.44,3.59 29.44,17.59 23.44,17.59 "/>
        </g>
        <g class="Direction" fill-opacity="0.9" style="display: none;">
            <polygon points="27.78,39.60 27.78,28.99 24.77,28.99 24.77,39.60 20.97,39.60 26.27,44.41 31.58,39.60 27.78,39.60 " fill="#444444"/>
        </g> 
        <g class="Name" fill-opacity="0.9" style="display: none;">
            <text transform="translate(3 12)" font-size="12" font-family="Verdana, Sans-Serif">SINK</text>
        </g>
        <desc>Width:60 Height:90 Depth:60 Elevation:0</desc>
    </g></g><g class="FixedFurniture CoatCloset" fill="#ffffff" stroke="#000000" transform="matrix(0,-1,1,0,63.5241,993.441)" style="fill-opacity: 1; stroke-opacity: 1; stroke-width: 1;">
        <g class="BoundaryPolygon">
            <polygon points="0.00,0.00 50.36,0.00 50.36,55.79 0.00,55.79 "/>
        </g>
        <g class="Hanger" stroke="#9a9a9a" stroke-dasharray="5,5">
            <line x1="0" y1="27.89266875556304" x2="50.35618916674454" y2="27.89266875556304"/>
        </g>
        <g class="Direction" fill-opacity="0.9" style="display: none;">
            <polygon points="26.44,50.85 26.44,40.24 23.44,40.24 23.44,50.85 19.63,50.85 24.94,56.16 30.24,50.85 26.44,50.85 " fill="#444444"/>
        </g> 
        <g class="Name" fill-opacity="0.9" style="display: none;">
            <text transform="translate(3 12)" font-size="12" font-family="Verdana, Sans-Serif">CWH</text>
        </g>
        <desc>Width:60 Height:200 Depth:60 Elevation:0</desc>
     </g><g class="FixedFurniture Closet" fill="#ffffff" stroke="#000000" transform="matrix(0,-1,1,0,63.5241,943.0809)" style="fill-opacity: 1; stroke-opacity: 1; stroke-width: 1;">
        <g class="BoundaryPolygon">
            <polygon points="0.00,0.00 49.53,0.00 49.53,55.79 0.00,55.79 "/>
        </g>
        <g class="Direction" fill-opacity="0.9" style="display: none;">
            <polygon points="26.01,50.85 26.01,40.24 23.00,40.24 23.00,50.85 19.20,50.85 24.50,56.16 29.81,50.85 26.01,50.85 " fill="#444444"/>
        </g> 
        <g class="Name" fill-opacity="0.9" style="display: none;">
            <text transform="translate(3 12)" font-size="12" font-family="Verdana, Sans-Serif">CL</text>
        </g>
        <desc>Width:60 Height:200 Depth:60 Elevation:0</desc>
     </g><g class="FixedFurniture Closet" fill="#ffffff" stroke="#000000" transform="matrix(0,-1,1,0,63.5241,885.6433)" style="fill-opacity: 1; stroke-opacity: 1; stroke-width: 1;">
        <g class="BoundaryPolygon">
            <polygon points="0.00,0.00 49.53,0.00 49.53,57.05 0.00,57.05 "/>
        </g>
        <g class="Direction" fill-opacity="0.9" style="display: none;">
            <polygon points="26.01,52.00 26.01,41.39 23.00,41.39 23.00,52.00 19.20,52.00 24.50,57.31 29.81,52.00 26.01,52.00 " fill="#444444"/>
        </g> 
        <g class="Name" fill-opacity="0.9" style="display: none;">
            <text transform="translate(3 12)" font-size="12" font-family="Verdana, Sans-Serif">CL</text>
        </g>
        <desc>Width:60 Height:200 Depth:60 Elevation:0</desc>
     </g><g class="FixedFurniture CoatCloset" fill="#ffffff" stroke="#000000" transform="matrix(0,-1,1,0,63.6959,836.1134)" style="fill-opacity: 1; stroke-opacity: 1; stroke-width: 1;">
        <g class="BoundaryPolygon">
            <polygon points="0.00,0.00 50.36,0.00 50.36,57.05 0.00,57.05 "/>
        </g>
        <g class="Hanger" stroke="#9a9a9a" stroke-dasharray="5,5">
            <line x1="0" y1="28.522467849215918" x2="50.35618916674454" y2="28.522467849215918"/>
        </g>
        <g class="Direction" fill-opacity="0.9" style="display: none;">
            <polygon points="26.44,52.00 26.44,41.39 23.44,41.39 23.44,52.00 19.63,52.00 24.94,57.31 30.24,52.00 26.44,52.00 " fill="#444444"/>
        </g> 
        <g class="Name" fill-opacity="0.9" style="display: none;">
            <text transform="translate(3 12)" font-size="12" font-family="Verdana, Sans-Serif">CWH</text>
        </g>
        <desc>Width:60 Height:200 Depth:60 Elevation:0</desc>
     </g><g class="FixedFurniture CoatCloset" fill="#ffffff" stroke="#000000" transform="matrix(0,-1,1,0,63.5241,785.7533)" style="fill-opacity: 1; stroke-opacity: 1; stroke-width: 1;">
        <g class="BoundaryPolygon">
            <polygon points="0.00,0.00 85.82,0.00 85.82,41.63 0.00,41.63 "/>
        </g>
        <g class="Hanger" stroke="#9a9a9a" stroke-dasharray="5,5">
            <line x1="0" y1="20.815276028914475" x2="85.80899158590398" y2="20.815276028914475"/>
        </g>
        <g class="Direction" fill-opacity="0.9" style="display: none;">
            <polygon points="45.05,37.95 45.05,27.34 42.05,27.34 42.05,37.95 38.24,37.95 43.55,43.26 48.85,37.95 45.05,37.95 " fill="#444444"/>
        </g> 
        <g class="Name" fill-opacity="0.9" style="display: none;">
            <text transform="translate(3 12)" font-size="12" font-family="Verdana, Sans-Serif">CWH</text>
        </g>
        <desc>Width:60 Height:200 Depth:60 Elevation:0</desc>
     </g><g class="FixedFurniture Closet" fill="#ffffff" stroke="#000000" transform="matrix(0,-1,1,0,63.5241,699.9379)" style="fill-opacity: 1; stroke-opacity: 1; stroke-width: 1;">
        <g class="BoundaryPolygon">
            <polygon points="0.00,0.00 59.89,0.00 59.89,57.05 0.00,57.05 "/>
        </g>
        <g class="Direction" fill-opacity="0.9" style="display: none;">
            <polygon points="31.45,52.00 31.45,41.39 28.44,41.39 28.44,52.00 24.64,52.00 29.94,57.31 35.25,52.00 31.45,52.00 " fill="#444444"/>
        </g> 
        <g class="Name" fill-opacity="0.9" style="display: none;">
            <text transform="translate(3 12)" font-size="12" font-family="Verdana, Sans-Serif">CL</text>
        </g>
        <desc>Width:60 Height:200 Depth:60 Elevation:0</desc>
     </g><g class="FixedFurniture Closet" fill="#ffffff" stroke="#000000" transform="matrix(0,-1,1,0,63.6335,640.0479)" style="fill-opacity: 1; stroke-opacity: 1; stroke-width: 1;">
        <g class="BoundaryPolygon">
            <polygon points="0.00,0.00 49.50,0.00 49.50,57.05 0.00,57.05 "/>
        </g>
        <g class="Direction" fill-opacity="0.9" style="display: none;">
            <polygon points="26.00,52.00 26.00,41.39 22.99,41.39 22.99,52.00 19.19,52.00 24.49,57.31 29.80,52.00 26.00,52.00 " fill="#444444"/>
        </g> 
        <g class="Name" fill-opacity="0.9" style="display: none;">
            <text transform="translate(3 12)" font-size="12" font-family="Verdana, Sans-Serif">CL</text>
        </g>
        <desc>Width:60 Height:200 Depth:60 Elevation:0</desc>
     </g><g class="FixedFurniture Shower" fill="#ffffff" stroke="#000000" transform="matrix(0,-1,1,0,63.5241,552.2693)" style="fill-opacity: 1; stroke-opacity: 1; stroke-width: 1;"> 
	    <g class="BoundaryPolygon" fill="none" stroke="none">
            <polygon points="0,0 32,0 32,19 0,19"/>
        </g>
        <g class="InnerPolygon"> 
			<rect x="3.7" y="0.5" width="11.2" height="6.1"/>
			<rect x="17.6" y="0.5" width="11.2" height="6.1"/>
			<rect x="28.7" y="0.5" width="3.4" height="6.1"/>
			<rect x="0.5" y="0.5" width="3.2" height="6.1"/>
			<path d="M14.9,8.5c0,1.5-0.4,3.3-1.6,5    c-0.4,0.6-1,1.1-1.1,1.7c-0.2,1.1,0.3,2.8,2.5,3.2c0.5,0.1,1.3,0.1,1.6,0.1h-0.1c0.3,0,1.1,0,1.6-0.1c2.2-0.4,2.7-2.1,2.5-3.2    c-0.1-0.6-0.7-1.1-1.1-1.7c-1.2-1.7-1.6-3.5-1.6-5"/>
			<path d="M12.2,15.3c0.1,0.2,1.6,1.9,4.2,1.9 c2.4-0.1,3.7-1.7,3.9-1.9"/>
			<path d="M14.9,0.5h2.7v8c-0.9,0-1.8,0-2.7,0l0,0 C14.9,5.9,14.9,3.2,14.9,0.5z"/>
		</g>
	    <g class="Indicator"> 
			<path d="M3.7,3.6C5,3.1,5.2,3,5.2,3 c0,1.1,0,0,0,1.1C5.2,4.1,5.1,4.1,3.7,3.6"/>
			<path d="M28.7,3.6 C27.4,3.1,27.2,3,27.2,3c0,1.1,0,0,0,1.1C27.2,4.1,27.3,4.1,28.7,3.6"/>	
		</g>
        <desc>Width:32 Height:97 Depth:19 Elevation:135</desc>
	</g><g transform="matrix(1,0,0,1,149.0594,582.7356)" class="FixedFurniture Misc" fill="none" stroke="#000000" style="fill-opacity: 1; stroke-opacity: 1; stroke-width: 1.8; stroke-dasharray: 5, 5;"><desc>Width:120 Height:200 Depth:60 Elevation:0</desc><g class="BoundaryPolygon"><path d="M0.00,0.00 L0.00,-88.49 L-85.54,-88.49 "/></g></g><g class="FixedFurniture Toilet" fill="#ffffff" stroke="#000000" transform="matrix(1,0,0,0.9363,181.7717,418.1543)" style="fill-opacity: 1; stroke-opacity: 1; stroke-width: 1;">
	   <g class="BoundaryPolygon" fill="none" stroke="none"> 
            <polygon points="0,0 41,0 41,71 0,71"/>
		</g>
        <g class="InnerPolygon">
            <rect x="0.502" y="0.5" width="39.989" height="17.98"/>
            <path d="M40.491,44.237S41.619,70.5,20.907,70.5C-.523,70.5.6,44.237.6,44.237L.5,18.48H40.491Z"/>
            <rect x="17.318" y="7.975" width="6.357" height="3.03"/>
        </g>
        <desc>Width:41 Height:85 Depth:71 Elevation:0</desc>
    </g><g class="FixedFurniture ElectricalAppliance SpaceForAppliance2" fill="#ffffff" stroke="#000000" stroke-dasharray="4,4" transform="matrix(0.7808,0,0,0.8939,66.332,417.6967)" style="fill-opacity: 1; stroke-opacity: 1; stroke-width: 1;">
	    <g class="BoundaryPolygon"> 
		    <polygon points="0,0 60,0 60,60 0,60"/>
		</g>	
	    <g class="electricitySign" fill="none">
            <path d="M0,0,30.1,39.8V19.4L59.9,60"/>
		</g>
        <g class="Direction" fill-opacity="0.9" style="display: none;">
            <polygon points="32.009 55.197 32.009 44.581 29 44.581 29 55.197 25.197 55.197 30.5 60 35.803 55.197 32.009 55.197" fill="#444444"/>
        </g> 
        <g class="Name" fill-opacity="0.9" stroke-dasharray="none" style="display: none;">
            <text transform="translate(3 12)" font-size="12" font-family="Verdana, Sans-Serif">SFA</text>
        </g>
        <desc>Width:60 Height:90 Depth:60 Elevation:0</desc>
	</g><g class="FixedFurniture ElectricalAppliance Refrigerator" fill="#ffffff" stroke="#000000" transform="matrix(-0.9843,0,0,-0.9687,122.5821,405.6376)" style="fill-opacity: 1; stroke-opacity: 1; stroke-width: 1;">
        <g class="BoundaryPolygon">
            <polygon points="0,0 60,0 60,60 0,60"/>
        </g>
        <g class="electricitySign" fill="none" style="display: block;">
            <path d="M0,0,30,37.1v-18L60,56.3"/>
        </g>
        <g class="Doors">
            <rect y="56" width="60" height="4"/>
        </g>
        <g class="Direction" fill-opacity="0.9" style="display: none;">
            <polygon points="32.009 55.197 32.009 44.581 29 44.581 29 55.197 25.197 55.197 30.5 60 35.803 55.197 32.009 55.197" fill="#444444"/>
        </g> 
        <g class="Name" fill-opacity="0.9" style="display: none;">
            <text transform="translate(3 12)" font-size="12" font-family="Verdana, Sans-Serif">REF</text>
        </g>
        <desc>Width:60 Height:170 Depth:60 Elevation:0</desc>
    </g><g class="FixedFurniture BaseCabinet" fill="#ffffff" stroke="#000000" transform="matrix(-1,0,0,-1,239.9566,405.4416)" style="fill-opacity: 1; stroke-opacity: 1; stroke-width: 1;">
        <g class="BoundaryPolygon">
            <polygon points="0.00,0.00 117.18,0.00 117.18,58.25 0.00,58.25 "/>
        </g>
        <g class="Direction" fill-opacity="0.9" style="display: none;">
            <polygon points="62.51,53.59 62.51,42.97 59.50,42.97 59.50,53.59 55.70,53.59 61.00,58.39 66.31,53.59 62.51,53.59 " fill="#444444"/>
        </g> 
        <g class="Name" fill-opacity="0.9" style="display: none;">
            <text transform="translate(3 12)" font-size="12" font-family="Verdana, Sans-Serif">CB</text>
        </g>
        <desc>Width:60 Height:90 Depth:60 Elevation:0</desc>
    </g><g class="FixedFurniture DoubleSinkRight" fill="#ffffff" stroke="#000000" transform="matrix(-1,0,0,-1,230.0432,397.0865)" style="fill-opacity: 1; stroke-opacity: 1; stroke-width: 1;">
        <g class="BoundaryPolygon" fill="none" stroke="none">
            <polygon points="0.00,0.00 61.83,0.00 61.83,47.17 0.00,47.17 0.00,0.00 "/>
        </g>
        <g class="InnerPolygonLeft">
            <polygon points="4.42,9.90 22.08,9.90 22.08,43.16 4.42,43.16 "/>
        </g>
        <g class="InnerPolygonRight">
            <polygon points="24.73,10.00 57.42,10.00 57.42,43.24 24.73,43.24 "/>
        </g>
        <g class="OuterDrain" stroke-width="0.8">
            <circle cx="13.24971386426257" cy="25.552901936738266" r="3.5"/>
            <circle cx="40.63245585040523" cy="25.552901936738266" r="3.5"/>
        </g>
        <g class="InnerDrain" stroke-width="0.8">
            <circle cx="13.24971386426257" cy="25.552901936738266" r="2"/>
            <circle cx="40.63245585040523" cy="25.552901936738266" r="2"/>
        </g>
        <g class="Faucet">
            <polygon points="28.27,3.85 34.27,3.85 34.27,17.85 28.27,17.85 "/>
        </g>
        <g class="Direction" fill-opacity="0.9" style="display: none;">
            <polygon points="32.25,43.01 32.25,32.39 29.24,32.39 29.24,43.01 25.44,43.01 30.74,48.31 36.04,43.01 32.25,43.01 " fill="#444444"/>
        </g> 
        <g class="Name" fill-opacity="0.9" style="display: none;">
            <text transform="translate(3 12)" font-size="12" font-family="Verdana, Sans-Serif">DSINK</text>
        </g>
        <desc>Width:70 Height:90 Depth:60 Elevation:0</desc>
    </g><g class="FixedFurniture WallCabinet" fill="#ffffff" stroke="#000000" transform="matrix(-1,0,0,-1,239.9566,405.3948)" style="fill-opacity: 0.7; stroke-opacity: 1; stroke-width: 1.5;">	
        <g class="BoundaryPolygon">
            <polygon points="0.00,0.00 117.18,0.00 117.18,28.06 0.00,28.06 "/>
        </g>
        <g class="Direction" fill-opacity="0.9" style="display: none;">
            <polygon points="62.51,23.57 62.51,12.95 59.50,12.95 59.50,23.57 55.70,23.57 61.00,28.37 66.31,23.57 62.51,23.57 " fill="#444444"/>
        </g> 
        <g class="Name" fill-opacity="0.9" style="display: none;">
            <text transform="translate(3 12)" font-size="12" font-family="Verdana, Sans-Serif">UC</text>
        </g>
        <desc>Width:60 Height:60 Depth:30 Elevation:140</desc>
    </g><g class="FixedFurniture ElectricalAppliance" fill="#ffffff" stroke="#000000" transform="matrix(1,0,0,0.9244,63.5241,184.5633)" style="fill-opacity: 1; stroke-opacity: 1; stroke-width: 1;">
	    <g class="BoundaryPolygon"> 
		    <polygon points="0,0 60,0 60,60 0,60"/>
		</g>	
	    <g class="electricitySign" fill="none" style="display: block;">
            <path d="M0,0,30.1,39.8V19.4L59.9,60"/>
		</g>
        <g class="Direction" fill-opacity="0.9" style="display: none;">
            <polygon points="32.009 55.197 32.009 44.581 29 44.581 29 55.197 25.197 55.197 30.5 60 35.803 55.197 32.009 55.197" fill="#444444"/>
        </g> 
        <g class="Name" fill-opacity="0.9" style="display: none;">
            <text transform="translate(3 12)" font-size="12" font-family="Verdana, Sans-Serif">HEB</text>
        </g>
        <desc>Width:60 Height:200 Depth:60 Elevation:0</desc>
	</g><g class="FixedFurniture BaseCabinet" fill="#ffffff" stroke="#000000" transform="matrix(1,0,0,1,123.524,184.5825)" style="fill-opacity: 1; stroke-opacity: 1; stroke-width: 1;">
        <g class="BoundaryPolygon">
            <polygon points="0.00,0.00 116.12,0.00 116.12,55.21 0.00,55.21 "/>
        </g>
        <g class="Direction" fill-opacity="0.9" style="display: none;">
            <polygon points="61.95,50.79 61.95,40.18 58.94,40.18 58.94,50.79 55.14,50.79 60.44,55.60 65.74,50.79 61.95,50.79 " fill="#444444"/>
        </g> 
        <g class="Name" fill-opacity="0.9" style="display: none;">
            <text transform="translate(3 12)" font-size="12" font-family="Verdana, Sans-Serif">CB</text>
        </g>
        <desc>Width:60 Height:90 Depth:60 Elevation:0</desc>
    </g><g class="FixedFurniture ElectricalAppliance IntegratedStove" fill="#ffffff" stroke="#000000" transform="matrix(1,0,0,1,123.524,184.52)" style="fill-opacity: 1; stroke-opacity: 1; stroke-width: 1;">
        <g class="BoundaryPolygon" fill="none" stroke="none">
            <polygon points="0.00,0.00 50.56,0.00 50.56,55.22 0.00,55.22 "/>
        </g>
        <g class="InnerPolygon">
            <polygon points="2.00,2.00 48.87,2.00 48.87,53.38 2.00,53.38 "/>
        </g>
        <g class="OuterCircle">
            <circle cx="13.482005714803764" cy="14.72570254490502" r="8"/>
            <circle cx="37.07551571571036" cy="14.72570254490502" r="8"/>
            <circle cx="13.482005714803764" cy="40.49568199848882" r="8"/>
            <circle cx="37.07551571571036" cy="40.49568199848882" r="8"/>
        </g>
        <g class="Direction" fill-opacity="0.9" style="display: none;">
            <polygon points="26.97,50.80 26.97,40.18 23.96,40.18 23.96,50.80 20.16,50.80 25.46,55.60 30.77,50.80 26.97,50.80 " fill="#444444"/>
        </g> 
        <g class="Name" fill-opacity="0.9" style="display: none;">
            <text transform="translate(3 12)" font-size="12" font-family="Verdana, Sans-Serif">INT_STOVE</text>
        </g>
        <desc>Width:60 Height:90 Depth:30 Elevation:0</desc>
    </g><g class="FixedFurniture WallCabinet" fill="#ffffff" stroke="#000000" transform="matrix(1,0,0,1,172.4335,184.5357)" style="fill-opacity: 0.7; stroke-opacity: 1; stroke-width: 1.5;">	
        <g class="BoundaryPolygon">
            <polygon points="0.00,0.00 67.46,0.00 67.46,26.41 0.00,26.41 "/>
        </g>
        <g class="Direction" fill-opacity="0.9" style="display: none;">
            <polygon points="35.99,22.18 35.99,11.57 32.98,11.57 32.98,22.18 29.18,22.18 34.48,26.99 39.78,22.18 35.99,22.18 " fill="#444444"/>
        </g> 
        <g class="Name" fill-opacity="0.9" style="display: none;">
            <text transform="translate(3 12)" font-size="12" font-family="Verdana, Sans-Serif">UC</text>
        </g>
        <desc>Width:60 Height:60 Depth:30 Elevation:140</desc>
    </g><g class="FixedFurniture CoatCloset" fill="#ffffff" stroke="#000000" transform="matrix(0,-1,1,0,242.0096,993.4371)" style="fill-opacity: 1; stroke-opacity: 1; stroke-width: 1;">
        <g class="BoundaryPolygon">
            <polygon points="0.00,0.00 100.00,0.00 100.00,60.00 0.00,60.00 "/>
        </g>
        <g class="Hanger" fill="#ffffff" stroke="#9a9a9a" stroke-dasharray="5,5">
            <line x1="0" y1="30" x2="99.99785066798502" y2="30"/>
        </g>
        <g class="Direction" fill-opacity="0.9" style="display: none;">
            <polygon points="51.26,54.52 51.26,43.90 48.25,43.90 48.25,54.52 44.44,54.52 49.75,59.82 55.05,54.52 51.26,54.52 " fill="#444444"/>
        </g> 
        <g class="Name" fill-opacity="0.9" style="display: none;">
            <text transform="translate(3 12)" font-size="12" font-family="Verdana, Sans-Serif">CWH</text>
        </g>
        <desc>Width:120 Height:200 Depth:60 Elevation:0</desc>
     </g><g class="FixedFurniture Closet" fill="#ffffff" stroke="#000000" transform="matrix(0,-1,1,0,242.0096,893.4392)" style="fill-opacity: 1; stroke-opacity: 1; stroke-width: 1;">
        <g class="BoundaryPolygon">
            <polygon points="0,0 60,0 60,60 0,60"/>
        </g>
        <g class="Direction" fill-opacity="0.9" style="display: none;">
            <polygon points="31.509 54.697 31.509 44.081 28.5 44.081 28.5 54.697 24.697 54.697 30 60 35.303 54.697 31.509 54.697" fill="#444444"/>
        </g> 
        <g class="Name" fill-opacity="0.9" style="display: none;">
            <text transform="translate(3 12)" font-size="12" font-family="Verdana, Sans-Serif">CL</text>
        </g>
        <desc>Width:60 Height:200 Depth:60 Elevation:0</desc>
     </g><g class="FixedFurniture Closet" fill="#ffffff" stroke="#000000" transform="matrix(0,-1,1,0,242.0096,833.4392)" style="fill-opacity: 1; stroke-opacity: 1; stroke-width: 1;">
        <g class="BoundaryPolygon">
            <polygon points="0.00,0.00 58.06,0.00 58.06,60.00 0.00,60.00 "/>
        </g>
        <g class="Direction" fill-opacity="0.9" style="display: none;">
            <polygon points="30.49,54.70 30.49,44.08 27.48,44.08 27.48,54.70 23.68,54.70 28.98,60.00 34.28,54.70 30.49,54.70 " fill="#444444"/>
        </g> 
        <g class="Name" fill-opacity="0.9" style="display: none;">
            <text transform="translate(3 12)" font-size="12" font-family="Verdana, Sans-Serif">CL</text>
        </g>
        <desc>Width:60 Height:200 Depth:60 Elevation:0</desc>
     </g></g></g></g></svg>
