<?xml version="1.0"?>
<svg xmlns="http://www.w3.org/2000/svg" xmlns:xlink="http://www.w3.org/1999/xlink" height="728.8800201416016" version="1.1" width="1505.8018341064453" id="temp" viewBox="0 0 1505.8018341064453 728.8800201416016"><defs/><g id="Model" class="Model v1-1"><g class="Floor"><g id="Floor-1" class="Floorplan Floor-1"><g id="1765eadf-019f-4e20-a07b-4723223fa94f" fill="#ffffff" stroke="#ffffff" style="fill-opacity: 1; stroke-opacity: 1; stroke-width: 0.2;" class="Space Undefined"><polygon points="665.46,408.85 655.72,408.85 655.72,628.17 500.75,628.17 500.75,262.78 665.46,262.78 "/><g transform="matrix(1,0,0,1,500.747,262.7844)" class="Dimension"><g transform="matrix(1,0,0,1,0,0)" style="display: none;" class="Visual"><g id="mark1" fill="#000000" stroke="none" transform="matrix(1,0,0,1,82.3553,0)" style="fill-opacity: 1; pointer-events: visible;" class="DimensionMark"><polygon points="-5,5,0,0,5,5"/></g><g id="mark2" fill="#000000" stroke="none" transform="matrix(1,0,0,1,154.9712,182.6903)" style="fill-opacity: 1; pointer-events: visible;" class="DimensionMark"><polygon points="-5,-5,0,0,-5,5"/></g><g id="mark3" fill="#000000" stroke="none" transform="matrix(1,0,0,1,82.3553,365.3807)" style="fill-opacity: 1; pointer-events: visible;" class="DimensionMark"><polygon points="-5,-5,0,0,5,-5"/></g><g id="mark4" fill="#000000" stroke="none" transform="matrix(1,0,0,1,0,182.6903)" style="fill-opacity: 1; pointer-events: visible;" class="DimensionMark"><polygon points="5,5,0,0,5,-5"/></g></g><g transform="matrix(1,0,0,1,12.8993,118.2539)" class="SpaceDimensionsLabel"><g id="NameLabel" style="display: block;" class="TextLabel NameLabel"><text x="0" y="0em" fill="#000000" stroke="none" style="font-family: Verdana; font-size: 33px; fill-opacity: 1; cursor: default;">UNDEFINED</text></g><g id="DimensionMeasureLabel" transform="matrix(1,0,0,1,1.6562,39.875)" style="display: none;" class="TextLabel DimensionMeasureLabel"><text x="0" y="0em" fill="#000000" stroke="none" style="font-family: Verdana; font-size: 33px; fill-opacity: 1; cursor: default;">5'1" x 12'0"</text><text x="0" y="0"/></g></g></g></g><g id="fbd9408b-ea2f-4cff-bfb1-6728f3a67229" fill="#ffffff" stroke="#ffffff" style="fill-opacity: 1; stroke-opacity: 1; stroke-width: 0.2;" class="Space LivingRoom"><polygon points="1247.62,408.85 665.46,408.85 665.46,80.92 1247.62,80.92 "/><g transform="matrix(1,0,0,1,665.4576,80.9169)" class="Dimension"><g transform="matrix(1,0,0,1,0,0)" style="display: none;" class="Visual"><g id="mark1" fill="#000000" stroke="none" transform="matrix(1,0,0,1,291.0812,0)" style="fill-opacity: 1; pointer-events: visible;" class="DimensionMark"><polygon points="-5,5,0,0,5,5"/></g><g id="mark2" fill="#000000" stroke="none" transform="matrix(1,0,0,1,582.1624,163.9661)" style="fill-opacity: 1; pointer-events: visible;" class="DimensionMark"><polygon points="-5,-5,0,0,-5,5"/></g><g id="mark3" fill="#000000" stroke="none" transform="matrix(1,0,0,1,291.0812,327.9322)" style="fill-opacity: 1; pointer-events: visible;" class="DimensionMark"><polygon points="-5,-5,0,0,5,-5"/></g><g id="mark4" fill="#000000" stroke="none" transform="matrix(1,0,0,1,0,163.9661)" style="fill-opacity: 1; pointer-events: visible;" class="DimensionMark"><polygon points="5,5,0,0,5,-5"/></g></g><g transform="matrix(1,0,0,1,265.9989,174.0541)" class="SpaceDimensionsLabel" style="display: block;"><g id="NameLabel" style="display: block;" class="TextLabel NameLabel"><text x="0" y="0em" fill="#000000" stroke="none" style="font-family: Verdana; font-size: 33px; fill-opacity: 1; cursor: default;">OH</text></g><g id="DimensionMeasureLabel" transform="matrix(1,0,0,1,-82.914,40.4219)" style="display: none;" class="TextLabel DimensionMeasureLabel"><text x="0" y="0em" fill="#000000" stroke="none" style="font-family: Verdana; font-size: 33px; fill-opacity: 1; cursor: default;">19'1" x 10'9"</text><text x="0" y="0"/></g></g></g></g><g id="a4004b59-8a0f-4a48-a0aa-4b49964c77bc" fill="#ffffff" stroke="#000000" style="fill-opacity: 1; stroke-opacity: 1; stroke-width: 0.2;" class="Space Outdoor"><polygon points="1269.25,392.60 1409.97,392.60 1409.97,80.92 1269.23,80.92 1269.25,392.60 "/><g transform="matrix(1,0,0,1,1269.2411,80.9169)" class="Dimension"><g transform="matrix(1,0,0,1,0,0)" style="display: none;" class="Visual"><g id="mark1" fill="#000000" stroke="none" transform="matrix(1,0,0,1,70.3577,0)" style="fill-opacity: 1; pointer-events: visible;" class="DimensionMark"><polygon points="-5,5,0,0,5,5"/></g><g id="mark2" fill="#000000" stroke="none" transform="matrix(1,0,0,1,140.7264,155.8433)" style="fill-opacity: 1; pointer-events: visible;" class="DimensionMark"><polygon points="-5,-5,0,0,-5,5"/></g><g id="mark3" fill="#000000" stroke="none" transform="matrix(1,0,0,1,70.3577,311.6867)" style="fill-opacity: 1; pointer-events: visible;" class="DimensionMark"><polygon points="-5,-5,0,0,5,-5"/></g><g id="mark4" fill="#000000" stroke="none" transform="matrix(1,0,0,1,0,155.8433)" style="fill-opacity: 1; pointer-events: visible;" class="DimensionMark"><polygon points="5,5,0,0,5,-5"/></g></g><g transform="matrix(1,0,0,1,70.3577,70.3687)" class="SpaceDimensionsLabel"><g id="NameLabel" style="display: block;" class="TextLabel NameLabel"><text x="0" y="0em" fill="#000000" stroke="none" style="font-family: Verdana; font-size: 33px; fill-opacity: 1; cursor: default;">ULKOTILA</text></g><g id="DimensionMeasureLabel" transform="matrix(1,0,0,1,-14.9062,40.25)" style="display: none;" class="TextLabel DimensionMeasureLabel"><text x="0" y="0em" fill="#000000" stroke="none" style="font-family: Verdana; font-size: 33px; fill-opacity: 1; cursor: default;">4'7" x 10'3"</text><text x="0" y="0"/></g></g></g></g><g id="cf70def4-e298-4d6d-8e2e-9448ff524142" fill="#ffffff" stroke="#ffffff" style="fill-opacity: 1; stroke-opacity: 1; stroke-width: 0.2;" class="Space Kitchen"><polygon points="491.95,566.05 432.05,566.05 432.05,628.17 106.95,628.17 106.95,360.46 491.95,360.46 "/><g transform="matrix(1,0,0,1,106.9544,360.4624)" class="Dimension"><g transform="matrix(1,0,0,1,0,0)" style="display: none;" class="Visual"><g id="mark1" fill="#000000" stroke="none" transform="matrix(1,0,0,1,192.4958,0)" style="fill-opacity: 1; pointer-events: visible;" class="DimensionMark"><polygon points="-5,5,0,0,5,5"/></g><g id="mark2" fill="#000000" stroke="none" transform="matrix(1,0,0,1,384.9915,133.8514)" style="fill-opacity: 1; pointer-events: visible;" class="DimensionMark"><polygon points="-5,-5,0,0,-5,5"/></g><g id="mark3" fill="#000000" stroke="none" transform="matrix(1,0,0,1,192.4958,267.7027)" style="fill-opacity: 1; pointer-events: visible;" class="DimensionMark"><polygon points="-5,-5,0,0,5,-5"/></g><g id="mark4" fill="#000000" stroke="none" transform="matrix(1,0,0,1,0,133.8514)" style="fill-opacity: 1; pointer-events: visible;" class="DimensionMark"><polygon points="5,5,0,0,5,-5"/></g></g><g transform="matrix(1,0,0,1,157.3739,119.4767)" class="SpaceDimensionsLabel" style="display: block;"><g id="NameLabel" style="display: block;" class="TextLabel NameLabel"><text x="0" y="0em" fill="#000000" stroke="none" style="font-family: Verdana; font-size: 33px; fill-opacity: 1; cursor: default;">K</text></g><g id="DimensionMeasureLabel" transform="matrix(1,0,0,1,-86.1797,39.8281)" style="display: none;" class="TextLabel DimensionMeasureLabel"><text x="0" y="0em" fill="#000000" stroke="none" style="font-family: Verdana; font-size: 33px; fill-opacity: 1; cursor: default;">12'8" x 8'9"</text><text x="0" y="0"/></g></g></g></g><g id="0fd79e05-618f-4db9-bfd2-ceef6398d645" fill="#ffffff" stroke="#ffffff" style="fill-opacity: 1; stroke-opacity: 1; stroke-width: 0.2;" class="Space Bedroom"><polygon points="491.95,344.49 106.95,344.49 106.95,80.92 491.95,80.92 "/><g transform="matrix(1,0,0,1,106.9544,80.9169)" class="Dimension"><g transform="matrix(1,0,0,1,0,0)" style="display: none;" class="Visual"><g id="mark1" fill="#000000" stroke="none" transform="matrix(1,0,0,1,192.4958,0)" style="fill-opacity: 1; pointer-events: visible;" class="DimensionMark"><polygon points="-5,5,0,0,5,5"/></g><g id="mark2" fill="#000000" stroke="none" transform="matrix(1,0,0,1,384.9915,131.7842)" style="fill-opacity: 1; pointer-events: visible;" class="DimensionMark"><polygon points="-5,-5,0,0,-5,5"/></g><g id="mark3" fill="#000000" stroke="none" transform="matrix(1,0,0,1,192.4958,263.5684)" style="fill-opacity: 1; pointer-events: visible;" class="DimensionMark"><polygon points="-5,-5,0,0,5,-5"/></g><g id="mark4" fill="#000000" stroke="none" transform="matrix(1,0,0,1,0,131.7842)" style="fill-opacity: 1; pointer-events: visible;" class="DimensionMark"><polygon points="5,5,0,0,5,-5"/></g></g><g transform="matrix(1,0,0,1,165.5988,149.342)" class="SpaceDimensionsLabel" style="display: block;"><g id="NameLabel" style="display: block;" class="TextLabel NameLabel"><text x="0" y="0em" fill="#000000" stroke="none" style="font-family: Verdana; font-size: 33px; fill-opacity: 1; cursor: default;">MH</text></g><g id="DimensionMeasureLabel" transform="matrix(1,0,0,1,-71.5,39.8282)" style="display: none;" class="TextLabel DimensionMeasureLabel"><text x="0" y="0em" fill="#000000" stroke="none" style="font-family: Verdana; font-size: 33px; fill-opacity: 1; cursor: default;">12'8" x 8'8"</text><text x="0" y="0"/></g></g></g></g><g id="5996546b-a779-4282-b719-dfe321016e6c" fill="#ffffff" stroke="#ffffff" style="fill-opacity: 1; stroke-opacity: 1; stroke-width: 0.2;" class="Space Bath"><polygon points="807.75,599.96 739.95,599.96 739.95,628.17 663.63,628.17 663.63,428.12 807.75,428.12 "/><g transform="matrix(1,0,0,1,663.6314,428.1219)" class="Dimension"><g transform="matrix(1,0,0,1,0,0)" style="display: none;" class="Visual"><g id="mark1" fill="#000000" stroke="none" transform="matrix(1,0,0,1,72.0574,0)" style="fill-opacity: 1; pointer-events: visible;" class="DimensionMark"><polygon points="-5,5,0,0,5,5"/></g><g id="mark2" fill="#000000" stroke="none" transform="matrix(1,0,0,1,144.1147,100.0216)" style="fill-opacity: 1; pointer-events: visible;" class="DimensionMark"><polygon points="-5,-5,0,0,-5,5"/></g><g id="mark3" fill="#000000" stroke="none" transform="matrix(1,0,0,1,72.0574,200.0432)" style="fill-opacity: 1; pointer-events: visible;" class="DimensionMark"><polygon points="-5,-5,0,0,5,-5"/></g><g id="mark4" fill="#000000" stroke="none" transform="matrix(1,0,0,1,0,100.0216)" style="fill-opacity: 1; pointer-events: visible;" class="DimensionMark"><polygon points="5,5,0,0,5,-5"/></g></g><g transform="matrix(1,0,0,1,21.8959,132.7292)" class="SpaceDimensionsLabel" style="display: block;"><g id="NameLabel" style="display: block;" class="TextLabel NameLabel"><text x="0" y="0em" fill="#000000" stroke="none" style="font-family: Verdana; font-size: 33px; fill-opacity: 1; cursor: default;">KH</text></g><g id="DimensionMeasureLabel" transform="matrix(1,0,0,1,-63.4921,39.9531)" style="display: none;" class="TextLabel DimensionMeasureLabel"><text x="0" y="0em" fill="#000000" stroke="none" style="font-family: Verdana; font-size: 33px; fill-opacity: 1; cursor: default;">4'9" x 6'7"</text><text x="0" y="0"/></g></g></g></g><g id="fb54b4f0-664e-46de-9b25-25669c56669e" fill="#ffffff" stroke="#ffffff" style="fill-opacity: 1; stroke-opacity: 1; stroke-width: 0.2;" class="Space Closet WalkIn"><polygon points="656.72,229.39 629.47,229.39 629.47,255.78 500.75,255.78 500.75,80.92 656.72,80.92 "/><g transform="matrix(1,0,0,1,500.747,80.9169)" class="Dimension"><g transform="matrix(1,0,0,1,0,0)" style="display: none;" class="Visual"><g id="mark1" fill="#000000" stroke="none" transform="matrix(1,0,0,1,77.9856,0)" style="fill-opacity: 1; pointer-events: visible;" class="DimensionMark"><polygon points="-5,5,0,0,5,5"/></g><g id="mark2" fill="#000000" stroke="none" transform="matrix(1,0,0,1,155.9712,87.4338)" style="fill-opacity: 1; pointer-events: visible;" class="DimensionMark"><polygon points="-5,-5,0,0,-5,5"/></g><g id="mark3" fill="#000000" stroke="none" transform="matrix(1,0,0,1,77.9856,174.8675)" style="fill-opacity: 1; pointer-events: visible;" class="DimensionMark"><polygon points="-5,-5,0,0,5,-5"/></g><g id="mark4" fill="#000000" stroke="none" transform="matrix(1,0,0,1,0,87.4338)" style="fill-opacity: 1; pointer-events: visible;" class="DimensionMark"><polygon points="5,5,0,0,5,-5"/></g></g><g transform="matrix(1,0,0,1,59.6676,121.622)" class="SpaceDimensionsLabel" style="display: block;"><g id="NameLabel" style="display: block;" class="TextLabel NameLabel"><text x="0" y="0em" fill="#000000" stroke="none" style="font-family: Verdana; font-size: 33px; fill-opacity: 1; cursor: default;">VH</text></g><g id="DimensionMeasureLabel" transform="matrix(1,0,0,1,-63.6407,40.4219)" style="display: none;" class="TextLabel DimensionMeasureLabel"><text x="0" y="0em" fill="#000000" stroke="none" style="font-family: Verdana; font-size: 33px; fill-opacity: 1; cursor: default;">5'1" x 5'9"</text><text x="0" y="0"/></g></g></g></g><g id="Wall" fill="#000000" stroke="#000000" style="fill-opacity: 1; stroke-opacity: 1; stroke-width: 0.2;" class="Wall External"><polygon points="1247.62,408.85 807.75,408.85 822.19,426.85 1269.23,426.85 "/></g><g id="Wall" fill="#000000" stroke="#000000" style="fill-opacity: 1; stroke-opacity: 1; stroke-width: 0.2;" class="Wall External"><polygon points="822.19,426.85 822.19,643.83 807.75,599.96 807.75,408.85 "/></g><g id="Wall" fill="#000000" stroke="#000000" style="fill-opacity: 1; stroke-opacity: 1; stroke-width: 0.2;" class="Wall External"><polygon points="822.19,643.83 739.95,643.83 739.95,599.96 807.75,599.96 "/></g><g id="Wall" fill="#000000" stroke="#000000" style="fill-opacity: 1; stroke-opacity: 1; stroke-width: 0.2;" class="Wall External"><polygon points="739.95,642.89 245.50,642.89 245.50,628.17 739.95,628.17 "/><g id="Door" fill="#ffffff" stroke="#000000" style="fill-opacity: 1; stroke-width: 1; stroke-opacity: 1;" class="Door Swing Opposite"><polygon points="648.67,642.89 562.68,642.89 562.68,628.17 648.67,628.17 "/><g id="Threshold" class="Threshold"><polygon points="648.67,642.89 562.68,642.89 562.68,628.17 648.67,628.17 "/></g><g id="Panel" fill="none" style="" class="Panel Right Negative"><g id="PanelArea" fill="none" stroke="none" style="" class="PanelArea"><polygon points="648.67,642.89 562.68,642.89 562.68,628.17 648.67,628.17 "/></g><path d="M562.68,642.89 q0.00,85.99 85.99,85.99 l0.00,-85.99Z"/></g><g id="Panel" fill="none" style="" class="Panel Left Positive"><g id="PanelArea" fill="none" stroke="none" style="" class="PanelArea"><polygon points="648.67,642.89 562.68,642.89 562.68,628.17 648.67,628.17 "/></g><path d="M562.68,628.17 q0.00,-85.99 85.99,-85.99 l0.00,85.99Z"/></g></g></g><g id="Wall" fill="#000000" stroke="#000000" style="fill-opacity: 1; stroke-opacity: 1; stroke-width: 0.2;" class="Wall External"><polygon points="245.50,657.18 84.30,657.18 106.95,628.17 245.50,628.17 "/></g><g id="Wall" fill="#000000" stroke="#000000" style="fill-opacity: 1; stroke-opacity: 1; stroke-width: 0.2;" class="Wall External"><polygon points="84.30,657.18 84.30,62.92 106.95,80.92 106.95,628.17 "/><g id="Window" fill="#f0f0ff" stroke="#000000" style="fill-opacity: 1; stroke-width: 1; stroke-opacity: 1;" class="Window Regular"><polygon points="84.30,567.46 84.30,424.45 106.95,424.45 106.95,567.46 "/><g id="Glass" class="Glass"><polygon points="84.30,567.46 84.30,424.45 106.95,424.45 106.95,567.46 "/></g><g id="Panel" class="Panel"><line x1="95.6274641580377" x2="95.62746415803768" y1="559.9600039623542" y2="431.94970282170055"/><line x1="84.30051183874367" x2="106.95441647733172" y1="559.9600039623542" y2="559.9600039623542"/><line x1="84.30051183874366" x2="106.9544164773317" y1="431.94970282170055" y2="431.94970282170055"/></g></g><g id="Window" fill="#f0f0ff" stroke="#000000" style="fill-opacity: 1; stroke-width: 1; stroke-opacity: 1;" class="Window Regular"><polygon points="84.30,424.45 84.30,395.89 106.95,395.89 106.95,424.45 "/><g id="Glass" class="Glass"><polygon points="84.30,424.45 84.30,395.89 106.95,395.89 106.95,424.45 "/></g><g id="Panel" class="Panel"><line x1="95.62746415803767" x2="95.62746415803767" y1="416.94970282170055" y2="403.3882264966816"/><line x1="84.30051183874366" x2="106.95441647733169" y1="416.94970282170055" y2="416.94970282170055"/><line x1="84.30051183874366" x2="106.95441647733169" y1="403.3882264966816" y2="403.3882264966816"/></g></g><g id="Window" fill="#f0f0ff" stroke="#000000" style="fill-opacity: 1; stroke-width: 1; stroke-opacity: 1;" class="Window Regular"><polygon points="84.30,309.56 84.30,280.01 106.95,280.01 106.95,309.56 "/><g id="Glass" class="Glass"><polygon points="84.30,309.56 84.30,280.01 106.95,280.01 106.95,309.56 "/></g><g id="Panel" class="Panel"><line x1="95.62746415803767" x2="95.62746415803767" y1="302.057940461228" y2="287.5131990107414"/><line x1="84.30051183874365" x2="106.95441647733168" y1="302.057940461228" y2="302.057940461228"/><line x1="84.30051183874365" x2="106.95441647733168" y1="287.5131990107414" y2="287.5131990107414"/></g></g><g id="Window" fill="#f0f0ff" stroke="#000000" style="fill-opacity: 1; stroke-width: 1; stroke-opacity: 1;" class="Window Regular"><polygon points="84.30,280.01 84.30,139.90 106.95,139.90 106.95,280.01 "/><g id="Glass" class="Glass"><polygon points="84.30,280.01 84.30,139.90 106.95,139.90 106.95,280.01 "/></g><g id="Panel" class="Panel"><line x1="95.62746415803767" x2="95.62746415803765" y1="272.5131990107414" y2="147.3994998658635"/><line x1="84.30051183874365" x2="106.95441647733168" y1="272.5131990107414" y2="272.5131990107414"/><line x1="84.30051183874363" x2="106.95441647733166" y1="147.3994998658635" y2="147.3994998658635"/></g></g></g><g id="Wall" fill="#000000" stroke="#000000" style="fill-opacity: 1; stroke-opacity: 1; stroke-width: 0.2;" class="Wall External"><polygon points="106.95,80.92 1247.62,80.92 1269.23,62.92 84.30,62.92 "/></g><g id="Wall" fill="#000000" stroke="#000000" style="fill-opacity: 1; stroke-opacity: 1; stroke-width: 0.2;" class="Wall External"><polygon points="1247.62,80.92 1247.62,408.85 1269.23,426.85 1269.23,62.92 "/><g id="Door" fill="#ffffff" stroke="#000000" style="fill-opacity: 1; stroke-width: 1; stroke-opacity: 1;" class="Door Swing Beside"><polygon points="1247.62,287.47 1247.62,360.09 1269.23,360.09 1269.23,287.47 "/><g id="Threshold" class="Threshold"><polygon points="1247.62,287.47 1247.62,360.09 1269.23,360.09 1269.23,287.47 "/></g><g id="Panel" fill="none" style="" class="Panel Right Positive"><g id="PanelArea" fill="none" stroke="none" style="" class="PanelArea"><polygon points="1247.62,287.47 1247.62,360.09 1269.23,360.09 1269.23,287.47 "/></g><path d="M1269.23,287.47 q72.62,0.00 72.62,72.62 l-72.62,0.00Z"/></g></g><g id="Window" fill="#f0f0ff" stroke="#000000" style="fill-opacity: 1; stroke-width: 1; stroke-opacity: 1;" class="Window Regular"><polygon points="1247.62,112.07 1247.62,282.68 1269.23,282.68 1269.23,112.07 "/><g id="Glass" class="Glass"><polygon points="1247.62,112.07 1247.62,282.68 1269.23,282.68 1269.23,112.07 "/></g><g id="Panel" class="Panel"><line x1="1258.4250943053876" x2="1258.4250943053876" y1="119.57346698436271" y2="275.17641333190136"/><line x1="1247.6200361833971" x2="1269.2301524273782" y1="119.57346698436271" y2="119.57346698436271"/><line x1="1247.6200361833971" x2="1269.2301524273782" y1="275.17641333190136" y2="275.17641333190136"/></g></g></g><g id="Wall" fill="#000000" stroke="#000000" style="fill-opacity: 1; stroke-opacity: 1; stroke-width: 0.2;" class="Wall"><polygon points="1247.62,426.85 1421.28,426.85 1421.28,392.60 1247.62,392.60 "/></g><g id="Wall" fill="#000000" stroke="#000000" style="fill-opacity: 1; stroke-opacity: 1; stroke-width: 0.2;" class="Wall"><polygon points="1247.62,62.92 1421.28,62.92 1421.28,80.92 1247.62,80.92 "/></g><g id="Railing" fill="#ffffff" stroke="#000000" style="fill-opacity: 1; stroke-opacity: 1; stroke-width: 0.2;" class="Railing"><polygon points="1421.28,80.92 1421.28,392.60 1409.97,392.60 1409.97,80.92 " style="stroke-dasharray: 0;"/></g><g id="Wall" fill="#000000" stroke="#000000" style="fill-opacity: 1; stroke-opacity: 1; stroke-width: 0.2;" class="Wall"><polygon points="500.75,642.89 500.75,566.05 432.05,566.05 432.05,642.89 "/></g><g id="Wall" fill="#000000" stroke="#000000" style="fill-opacity: 1; stroke-opacity: 1; stroke-width: 0.2;" class="Wall"><polygon points="500.75,566.05 500.75,62.92 491.95,62.92 491.95,566.05 "/><g id="Door" fill="#ffffff" stroke="#000000" style="fill-opacity: 1; stroke-width: 1; stroke-opacity: 1;" class="Door Swing Beside"><polygon points="500.75,341.11 500.75,266.86 491.95,266.86 491.95,341.11 "/><g id="Threshold" class="Threshold"><polygon points="500.75,341.11 500.75,266.86 491.95,266.86 491.95,341.11 "/></g><g id="Panel" fill="none" style="" class="Panel Left Positive"><g id="PanelArea" fill="none" stroke="none" style="" class="PanelArea"><polygon points="500.75,341.11 500.75,266.86 491.95,266.86 491.95,341.11 "/></g><path d="M491.95,266.86 q-74.25,0.00 -74.25,74.25 l74.25,0.00Z"/></g></g><g id="Door" fill="#ffffff" stroke="#000000" style="fill-opacity: 1; stroke-width: 1; stroke-opacity: 1;" class="Door Swing Beside"><polygon points="500.75,432.87 500.75,366.59 491.95,366.59 491.95,432.87 "/><g id="Threshold" class="Threshold"><polygon points="500.75,432.87 500.75,366.59 491.95,366.59 491.95,432.87 "/></g><g id="Panel" fill="none" style="" class="Panel Right Positive"><g id="PanelArea" fill="none" stroke="none" style="" class="PanelArea"><polygon points="500.75,432.87 500.75,366.59 491.95,366.59 491.95,432.87 "/></g><path d="M491.95,432.87 q-66.28,0.00 -66.28,-66.28 l66.28,0.00Z"/></g></g></g><g id="Wall" fill="#000000" stroke="#000000" style="fill-opacity: 1; stroke-opacity: 1; stroke-width: 0.2;" class="Wall"><polygon points="500.75,344.49 84.30,344.49 84.30,360.46 500.75,360.46 "/></g><g id="Wall" fill="#000000" stroke="#000000" style="fill-opacity: 1; stroke-opacity: 1; stroke-width: 0.2;" class="Wall"><polygon points="665.46,262.78 665.46,62.92 656.72,62.92 656.72,229.39 "/></g><g id="Wall" fill="#000000" stroke="#000000" style="fill-opacity: 1; stroke-opacity: 1; stroke-width: 0.2;" class="Wall"><polygon points="629.47,262.78 500.75,262.78 500.75,255.78 629.47,255.78 "/><g id="Door" fill="#ffffff" stroke="#000000" style="fill-opacity: 1; stroke-width: 1; stroke-opacity: 1;" class="Door Swing Beside"><polygon points="615.21,262.78 555.92,262.78 555.92,255.78 615.21,255.78 "/><g id="Threshold" class="Threshold"><polygon points="615.21,262.78 555.92,262.78 555.92,255.78 615.21,255.78 "/></g><g id="Panel" fill="none" style="" class="Panel Right Negative"><g id="PanelArea" fill="none" stroke="none" style="" class="PanelArea"><polygon points="615.21,262.78 555.92,262.78 555.92,255.78 615.21,255.78 "/></g><path d="M555.92,262.78 q0.00,59.29 59.29,59.29 l0.00,-59.29Z"/></g></g></g><g id="Wall" fill="#000000" stroke="#000000" style="fill-opacity: 1; stroke-opacity: 1; stroke-width: 0.2;" class="Wall"><polygon points="822.19,408.85 655.72,408.85 663.63,428.12 822.19,428.12 "/></g><g id="Wall" fill="#000000" stroke="#000000" style="fill-opacity: 1; stroke-opacity: 1; stroke-width: 0.2;" class="Wall"><polygon points="655.72,408.85 655.72,642.89 663.63,642.89 663.63,428.12 "/><g id="Door" fill="#ffffff" stroke="#000000" style="fill-opacity: 1; stroke-width: 1; stroke-opacity: 1;" class="Door Swing Beside"><polygon points="655.72,558.86 655.72,623.86 663.63,623.86 663.63,558.86 "/><g id="Threshold" class="Threshold"><polygon points="655.72,558.86 655.72,623.86 663.63,623.86 663.63,558.86 "/></g><g id="Panel" fill="none" style="" class="Panel Left Negative"><g id="PanelArea" fill="none" stroke="none" style="" class="PanelArea"><polygon points="655.72,558.86 655.72,623.86 663.63,623.86 663.63,558.86 "/></g><path d="M655.72,558.86 q-65.00,0.00 -65.00,65.00 l65.00,0.00Z"/></g></g></g><g class="FixedFurniture CoatCloset" fill="#ffffff" stroke="#000000" transform="matrix(0,-1,1,0,500.8408,255.7844)" style="fill-opacity: 1; stroke-opacity: 1; stroke-width: 1;">
        <g class="BoundaryPolygon">
            <polygon points="0.00,0.00 175.05,0.00 175.05,49.71 0.00,49.71 "/>
        </g>
        <g class="Hanger" fill="#ffffff" stroke="#9a9a9a" stroke-dasharray="5,5">
            <line x1="0" y1="24.85630474885142" x2="175.0510174797143" y2="24.85630474885142"/>
        </g>
        <g class="Direction" fill-opacity="0.9" style="display: none;">
            <polygon points="89.73,45.17 89.73,34.55 86.72,34.55 86.72,45.17 82.91,45.17 88.22,50.47 93.52,45.17 89.73,45.17 " fill="#444444"/>
        </g> 
        <g class="Name" fill-opacity="0.9" style="display: none;">
            <text transform="translate(3 12)" font-size="12" font-family="Verdana, Sans-Serif">CWH</text>
        </g>
        <desc>Width:120 Height:200 Depth:60 Elevation:0</desc>
     </g><g transform="matrix(1,0,0,1,550.7582,80.7344)" class="FixedFurniture Closet" fill="#ffffff" stroke="#000000" style="fill-opacity: 1; stroke-opacity: 1; stroke-width: 1;"><desc>Width:120 Height:200 Depth:60 Elevation:0</desc><g class="BoundaryPolygon"><polygon points="0.00,0.00 105.87,-0.00 105.96,175.05 68.28,175.05 68.28,36.61 0.00,36.61 "/></g></g><g id="Wall" fill="#000000" stroke="#000000" style="fill-opacity: 1; stroke-opacity: 1; stroke-width: 0.2;" class="Wall"><polygon points="665.46,262.78 629.47,262.78 629.47,229.39 656.72,229.39 "/></g><g class="FixedFurniture ElectricalAppliance Refrigerator" fill="#ffffff" stroke="#000000" transform="matrix(-0.9455,0,0,-1,175.3864,628.0869)" style="fill-opacity: 1; stroke-opacity: 1; stroke-width: 1;">
        <g class="BoundaryPolygon">
            <polygon points="0,0 60,0 60,60 0,60"/>
        </g>
        <g class="electricitySign" fill="none" style="display: block;">
            <path d="M0,0,30,37.1v-18L60,56.3"/>
        </g>
        <g class="Doors">
            <rect y="56" width="60" height="4"/>
        </g>
        <g class="Direction" fill-opacity="0.9" style="display: none;">
            <polygon points="32.009 55.197 32.009 44.581 29 44.581 29 55.197 25.197 55.197 30.5 60 35.803 55.197 32.009 55.197" fill="#444444"/>
        </g> 
        <g class="Name" fill-opacity="0.9" style="display: none;">
            <text transform="translate(3 12)" font-size="12" font-family="Verdana, Sans-Serif">REF</text>
        </g>
        <desc>Width:60 Height:170 Depth:60 Elevation:0</desc>
    </g><g class="FixedFurniture Housing" fill="#ffffff" stroke="#000000" transform="matrix(1.1555,0,0,1,106.9544,568.0869)" style="fill-opacity: 1; stroke-opacity: 1; stroke-width: 1;">
        <g class="BoundaryPolygon">
            <polygon points="0,0 10,0 10,60 0,60"/>
        </g> 
        <g class="Name" fill-opacity="0.9" style="display: none;">
            <text transform="translate(3 12)" font-size="12" font-family="Verdana, Sans-Serif">EMPTY</text>
        </g>
        <desc>Width:60 Height:200 Depth:60 Elevation:0</desc>
     </g><g class="FixedFurniture BaseCabinet" fill="#ffffff" stroke="#000000" transform="matrix(-1,0,0,-1,432.0541,628.1651)" style="fill-opacity: 1; stroke-opacity: 1; stroke-width: 1;">
        <g class="BoundaryPolygon">
            <polygon points="0.00,0.00 256.53,0.00 256.53,60.00 0.00,60.00 "/>
        </g>
        <g class="Direction" fill-opacity="0.9" style="display: none;">
            <polygon points="136.86,55.20 136.86,44.58 133.85,44.58 133.85,55.20 130.04,55.20 135.35,60.00 140.65,55.20 136.86,55.20 " fill="#444444"/>
        </g> 
        <g class="Name" fill-opacity="0.9" style="display: none;">
            <text transform="translate(3 12)" font-size="12" font-family="Verdana, Sans-Serif">CB</text>
        </g>
        <desc>Width:60 Height:90 Depth:60 Elevation:0</desc>
    </g><g class="FixedFurniture DoubleSink" fill="#ffffff" stroke="#000000" transform="matrix(-1,0,0,-1,400.8379,621.2486)" style="fill-opacity: 1; stroke-opacity: 1; stroke-width: 1;">
        <g class="BoundaryPolygon" fill="none" stroke="none">
            <polygon points="0.00,0.00 80.77,0.00 80.77,51.37 0.00,51.37 "/>
        </g>
        <g class="InnerPolygonLeft">
            <polygon points="5.77,9.90 38.65,9.90 38.65,47.00 5.77,47.00 "/>
        </g>
        <g class="InnerPolygonRight">
            <polygon points="42.11,10.00 75.00,10.00 75.00,47.09 42.11,47.09 "/>
        </g>
        <g class="OuterDrain" stroke-width="0.8">
            <circle cx="22.72968174144789" cy="27.823375888335246" r="3.5"/>
            <circle cx="57.92030575739515" cy="27.823375888335246" r="3.5"/>
        </g>
        <g class="InnerDrain" stroke-width="0.8">
            <circle cx="22.72968174144789" cy="27.823375888335246" r="2"/>
            <circle cx="57.92030575739515" cy="27.823375888335246" r="2"/>
        </g>
        <g class="Faucet">
            <polygon points="36.92,4.19 42.92,4.19 42.92,18.19 36.92,18.19 "/>
        </g>
        <g class="Direction" fill-opacity="0.9" style="display: none;">
            <polygon points="42.12,46.83 42.12,36.21 39.11,36.21 39.11,46.83 35.31,46.83 40.61,52.13 45.92,46.83 42.12,46.83 " fill="#444444"/>
        </g> 
        <g class="Name" fill-opacity="0.9" style="display: none;">
            <text transform="translate(3 12)" font-size="12" font-family="Verdana, Sans-Serif">DSINK</text>
        </g>
        <desc>Width:70 Height:90 Depth:60 Elevation:0</desc>
    </g><g class="FixedFurniture BaseCabinet" fill="#ffffff" stroke="#000000" transform="matrix(0,1,-1,0,491.8835,436.2324)" style="fill-opacity: 1; stroke-opacity: 1; stroke-width: 1;">
        <g class="BoundaryPolygon">
            <polygon points="0.00,0.00 129.82,0.00 129.82,58.06 0.00,58.06 "/>
        </g>
        <g class="Direction" fill-opacity="0.9" style="display: none;">
            <polygon points="69.25,53.41 69.25,42.80 66.25,42.80 66.25,53.41 62.44,53.41 67.75,58.21 73.05,53.41 69.25,53.41 " fill="#444444"/>
        </g> 
        <g class="Name" fill-opacity="0.9" style="display: none;">
            <text transform="translate(3 12)" font-size="12" font-family="Verdana, Sans-Serif">CB</text>
        </g>
        <desc>Width:60 Height:90 Depth:60 Elevation:0</desc>
    </g><g class="FixedFurniture ElectricalAppliance IntegratedStove" fill="#ffffff" stroke="#000000" transform="matrix(0,1,-1,0,493.6479,509.4727)" style="fill-opacity: 1; stroke-opacity: 1; stroke-width: 1;">
        <g class="BoundaryPolygon" fill="none" stroke="none">
            <polygon points="0.00,0.00 58.30,0.00 58.30,61.67 0.00,61.67 "/>
        </g>
        <g class="InnerPolygon">
            <polygon points="2.00,2.00 56.36,2.00 56.36,59.61 2.00,59.61 "/>
        </g>
        <g class="OuterCircle">
            <circle cx="15.547412161097757" cy="16.445187054323423" r="8"/>
            <circle cx="42.75538344301885" cy="16.445187054323423" r="8"/>
            <circle cx="15.547412161097757" cy="45.22426439938941" r="8"/>
            <circle cx="42.75538344301885" cy="45.22426439938941" r="8"/>
        </g>
        <g class="Direction" fill-opacity="0.9" style="display: none;">
            <polygon points="31.10,56.73 31.10,46.12 28.09,46.12 28.09,56.73 24.29,56.73 29.59,61.54 34.90,56.73 31.10,56.73 " fill="#444444"/>
        </g> 
        <g class="Name" fill-opacity="0.9" style="display: none;">
            <text transform="translate(3 12)" font-size="12" font-family="Verdana, Sans-Serif">INT_STOVE</text>
        </g>
        <desc>Width:60 Height:90 Depth:30 Elevation:0</desc>
    </g><g class="FixedFurniture WallCabinet" fill="#ffffff" stroke="#000000" transform="matrix(0,1,-1,0,491.8834,436.2324)" style="fill-opacity: 0.7; stroke-opacity: 1; stroke-width: 1.5;">	
        <g class="BoundaryPolygon">
            <polygon points="0.00,0.00 74.97,0.00 74.97,27.99 0.00,27.99 "/>
        </g>
        <g class="Direction" fill-opacity="0.9" style="display: none;">
            <polygon points="39.99,23.51 39.99,12.89 36.99,12.89 36.99,23.51 33.18,23.51 38.49,28.31 43.79,23.51 39.99,23.51 " fill="#444444"/>
        </g> 
        <g class="Name" fill-opacity="0.9" style="display: none;">
            <text transform="translate(3 12)" font-size="12" font-family="Verdana, Sans-Serif">UC</text>
        </g>
        <desc>Width:60 Height:60 Depth:30 Elevation:140</desc>
    </g><g class="FixedFurniture WallCabinet" fill="#ffffff" stroke="#000000" transform="matrix(-1,0,0,-1,432.0541,628.1026)" style="fill-opacity: 0.7; stroke-opacity: 1; stroke-width: 1.5;">	
        <g class="BoundaryPolygon">
            <polygon points="0.00,0.00 256.70,0.00 256.70,30.00 0.00,30.00 "/>
        </g>
        <g class="Direction" fill-opacity="0.9" style="display: none;">
            <polygon points="136.95,25.20 136.95,14.58 133.94,14.58 133.94,25.20 130.13,25.20 135.44,30.00 140.74,25.20 136.95,25.20 " fill="#444444"/>
        </g> 
        <g class="Name" fill-opacity="0.9" style="display: none;">
            <text transform="translate(3 12)" font-size="12" font-family="Verdana, Sans-Serif">UC</text>
        </g>
        <desc>Width:60 Height:60 Depth:30 Elevation:140</desc>
    </g><g class="FixedFurniture Closet" fill="#ffffff" stroke="#000000" transform="matrix(0,-1,1,0,500.7938,628.1651)" style="fill-opacity: 1; stroke-opacity: 1; stroke-width: 1;">
        <g class="BoundaryPolygon">
            <polygon points="0.00,0.00 57.87,0.00 57.87,55.74 0.00,55.74 "/>
        </g>
        <g class="Direction" fill-opacity="0.9" style="display: none;">
            <polygon points="30.39,50.82 30.39,40.20 27.38,40.20 27.38,50.82 23.58,50.82 28.88,56.12 34.19,50.82 30.39,50.82 " fill="#444444"/>
        </g> 
        <g class="Name" fill-opacity="0.9" style="display: none;">
            <text transform="translate(3 12)" font-size="12" font-family="Verdana, Sans-Serif">CL</text>
        </g>
        <desc>Width:60 Height:200 Depth:60 Elevation:0</desc>
     </g><g class="FixedFurniture CoatRack" fill="#ffffff" stroke="#000000" transform="matrix(0,-1,1,0,500.9033,570.2951)" style="fill-opacity: 1; stroke-opacity: 1; stroke-width: 1;">
	   <g class="BoundaryPolygon"> 
		    <polygon points="0.00,0.00 133.96,0.00 133.96,32.68 0.00,32.68 "/>
		</g>	
	    <g class="Bar" stroke-width="0.65"> 
		    <line x1="0" y1="4.574812549267102" x2="133.95588142880683" y2="4.574812549267102"/>
            <line x1="0" y1="8.605004556954785" x2="133.95588142880683" y2="8.605004556954785"/>
            <line x1="0" y1="12.52627245632659" x2="133.95588142880683" y2="12.52627245632659"/>
            <line x1="0" y1="16.33861624738251" x2="133.95588142880683" y2="16.33861624738251"/>
            <line x1="0" y1="20.25988414675431" x2="133.95588142880683" y2="20.25988414675431"/>
            <line x1="0" y1="24.181152046126105" x2="133.95588142880683" y2="24.181152046126105"/>
            <line x1="0" y1="28.21134405381379" x2="133.95588142880683" y2="28.21134405381379"/>
		</g>
        <g class="Direction" fill-opacity="0.9" style="display: none;">
            <polygon points="69.22,26.90 69.22,16.28 66.21,16.28 66.21,26.90 62.41,26.90 67.71,32.20 73.02,26.90 69.22,26.90 " fill="#444444"/>
        </g> 
        <g class="Name" fill-opacity="0.9" style="display: none;">
            <text transform="translate(3 12)" font-size="12" font-family="Verdana, Sans-Serif">COATRACK</text>
        </g>
        <desc>Width:90 Height:30 Depth:30 Elevation:160</desc>
	</g><g class="FixedFurniture Toilet" fill="#ffffff" stroke="#000000" transform="matrix(0,0.9516,-0.8789,0,804.1899,550.4742)" style="fill-opacity: 1; stroke-opacity: 1; stroke-width: 1;">
	   <g class="BoundaryPolygon" fill="none" stroke="none"> 
            <polygon points="0,0 41,0 41,71 0,71"/>
		</g>
        <g class="InnerPolygon">
            <rect x="0.502" y="0.5" width="39.989" height="17.98"/>
            <path d="M40.491,44.237S41.619,70.5,20.907,70.5C-.523,70.5.6,44.237.6,44.237L.5,18.48H40.491Z"/>
            <rect x="17.318" y="7.975" width="6.357" height="3.03"/>
        </g>
        <desc>Width:41 Height:85 Depth:71 Elevation:0</desc>
    </g><g class="FixedFurniture Bathtub" fill="#ffffff" stroke="#000000" transform="matrix(0.8239,0,0,0.7379,663.5636,428.1334)" style="fill-opacity: 1; stroke-opacity: 1; stroke-width: 1;"> 
	   <g class="BoundaryPolygon">
		    <polygon points="0,0 175,0 175,82 0,82"/>
		</g>
	    <g class="Tub">
		    <path d="M166.6,41.2c0,19.7,0,35.7-79.3,35.7S8,60.9,8,41.2,8,5.5,87.3,5.5,166.6,21.5,166.6,41.2Z"/>
		</g>
        <g class="Name" fill-opacity="0.9" style="display: none;">
            <text transform="translate(3 12)" font-size="12" font-family="Verdana, Sans-Serif">BT</text>
        </g>
        <desc>Width:175 Height:38 Depth:82 Elevation:0</desc>
	</g><g class="FixedFurniture Shower" fill="#ffffff" stroke="#000000" transform="matrix(0,1,-1,0,807.6569,441.6058)" style="fill-opacity: 1; stroke-opacity: 1; stroke-width: 1;"> 
	    <g class="BoundaryPolygon" fill="none" stroke="none">
            <polygon points="0,0 32,0 32,19 0,19"/>
        </g>
        <g class="InnerPolygon"> 
			<rect x="3.7" y="0.5" width="11.2" height="6.1"/>
			<rect x="17.6" y="0.5" width="11.2" height="6.1"/>
			<rect x="28.7" y="0.5" width="3.4" height="6.1"/>
			<rect x="0.5" y="0.5" width="3.2" height="6.1"/>
			<path d="M14.9,8.5c0,1.5-0.4,3.3-1.6,5    c-0.4,0.6-1,1.1-1.1,1.7c-0.2,1.1,0.3,2.8,2.5,3.2c0.5,0.1,1.3,0.1,1.6,0.1h-0.1c0.3,0,1.1,0,1.6-0.1c2.2-0.4,2.7-2.1,2.5-3.2    c-0.1-0.6-0.7-1.1-1.1-1.7c-1.2-1.7-1.6-3.5-1.6-5"/>
			<path d="M12.2,15.3c0.1,0.2,1.6,1.9,4.2,1.9 c2.4-0.1,3.7-1.7,3.9-1.9"/>
			<path d="M14.9,0.5h2.7v8c-0.9,0-1.8,0-2.7,0l0,0 C14.9,5.9,14.9,3.2,14.9,0.5z"/>
		</g>
	    <g class="Indicator"> 
			<path d="M3.7,3.6C5,3.1,5.2,3,5.2,3 c0,1.1,0,0,0,1.1C5.2,4.1,5.1,4.1,3.7,3.6"/>
			<path d="M28.7,3.6 C27.4,3.1,27.2,3,27.2,3c0,1.1,0,0,0,1.1C27.2,4.1,27.3,4.1,28.7,3.6"/>	
		</g>
        <desc>Width:32 Height:97 Depth:19 Elevation:135</desc>
	</g><g id="FixedFurnitureSet" transform="matrix(0,1,-1,0,807.6524,488.6409)" class="FixedFurnitureSet" fill="#ffffff" stroke="#fc0fc0" style="fill-opacity: 0.4; stroke-opacity: 0.9; stroke-width: 1.5;"><g class="FixedFurniture BaseCabinet" fill="#ffffff" stroke="#000000" transform="matrix(1,0,0,1,0,0)" style="fill-opacity: 1; stroke-opacity: 1; stroke-width: 1;">
        <g class="BoundaryPolygon">
            <polygon points="0.00,0.00 52.14,0.00 52.14,41.61 0.00,41.61 "/>
        </g>
        <g class="Direction" fill-opacity="0.9" style="display: none;">
            <polygon points="27.82,38.28 27.82,27.66 24.81,27.66 24.81,38.28 21.01,38.28 26.31,43.08 31.61,38.28 27.82,38.28 " fill="#444444"/>
        </g> 
        <g class="Name" fill-opacity="0.9" style="display: none;">
            <text transform="translate(3 12)" font-size="12" font-family="Verdana, Sans-Serif">CB</text>
        </g>
        <desc>Width:60 Height:5 Depth:60 Elevation:105</desc>
    </g><g class="FixedFurniture Sink" fill="#ffffff" stroke="#000000" transform="matrix(1,0,0,1,0,0)" style="fill-opacity: 1; stroke-opacity: 1; stroke-width: 1;">
        <g class="BoundaryPolygon" fill="none" stroke="none">
        <polygon points="0.00,0.00 52.14,0.00 52.14,41.61 0.00,41.61 "/>
        </g>
        <g class="InnerPolygon">
            <polygon points="4.35,9.70 47.80,9.70 47.80,37.93 4.35,37.93 "/>
        </g>
        <g class="OuterDrain" stroke-width="0.8">
            <circle cx="26.07220088164617" cy="22.330009274821272" r="3.5"/>
        </g>
        <g class="InnerDrain" stroke-width="0.8">
            <circle cx="26.07220088164617" cy="22.330009274821272" r="2"/>
        </g>
        <g class="Faucet">
            <polygon points="23.46,3.47 29.46,3.47 29.46,17.47 23.46,17.47 "/>
        </g>
        <g class="Direction" fill-opacity="0.9" style="display: none;">
            <polygon points="27.82,38.28 27.82,27.66 24.81,27.66 24.81,38.28 21.01,38.28 26.31,43.08 31.61,38.28 27.82,38.28 " fill="#444444"/>
        </g> 
        <g class="Name" fill-opacity="0.9" style="display: none;">
            <text transform="translate(3 12)" font-size="12" font-family="Verdana, Sans-Serif">SINK</text>
        </g>
        <desc>Width:60 Height:90 Depth:60 Elevation:0</desc>
    </g></g><g fill="#0000ff" stroke="#0000ff" style="display: none;" class="SelectionControls"><g style="display: none;" class="rotateControl"><circle cx="709.3554002847441" cy="497.72609135644575" r="5" style="stroke : none; fill-opacity: 0.5; cursor:crosshair"/></g><g style="display: none;" class="ResizeNControl"><circle cx="0" cy="0" r="5" style="stroke : none; fill-opacity: 0.5"/></g><g style="display: none;" class="ResizeNEControl"><circle cx="0" cy="0" r="5" style="stroke : none; fill-opacity: 0.5"/></g><g style="display: none;" class="ResizeEControl"><circle cx="0" cy="0" r="5" style="stroke : none; fill-opacity: 0.5"/></g><g style="display: none;" class="ResizeSEControl"><circle cx="0" cy="0" r="5" style="stroke : none; fill-opacity: 0.5"/></g><g style="display: none;" class="ResizeSControl"><circle cx="0" cy="0" r="5" style="stroke : none; fill-opacity: 0.5"/></g><g style="display: none;" class="ResizeSWControl"><circle cx="0" cy="0" r="5" style="stroke : none; fill-opacity: 0.5"/></g><g style="display: none;" class="ResizeWControl"><circle cx="0" cy="0" r="5" style="stroke : none; fill-opacity: 0.5"/></g><g style="display: none;" class="ResizeNWControl"><circle cx="0" cy="0" r="5" style="stroke : none; fill-opacity: 0.5"/></g><g style="display: none;" class="removeControl"><polygon style="stroke : none; fill-opacity: 0.1" points="685.53,527.73 733.18,527.73 733.18,567.68 685.53,567.68 "/></g><g style="display: none;" class="copyPasteControl"><polygon style="stroke : none; fill-opacity: 0.1"/></g><g style="display: none;" class="translateControl"><polygon style="stroke : none; fill-opacity: 0.1; cursor:move" points="685.53,527.73 733.18,527.73 733.18,567.68 685.53,567.68 "/></g></g><g fill="#0000ff" stroke="#0000ff" style="display: none;" class="SelectionControls"><polygon fill="none" stroke="#0000ff" style="" points="663.63,428.12 807.75,428.12 807.75,628.17 663.63,628.17 "/><g style="display: none;" class="rotateControl"><circle cx="735.6887254434355" cy="398.12189135644576" r="5" style="stroke : none; fill-opacity: 0.5; cursor:crosshair"/></g><g style="display: none;" class="ResizeNControl"><circle cx="0" cy="0" r="5" style="stroke : none; fill-opacity: 0.5"/></g><g style="display: none;" class="ResizeNEControl"><circle cx="0" cy="0" r="5" style="stroke : none; fill-opacity: 0.5"/></g><g style="display: none;" class="ResizeEControl"><circle cx="0" cy="0" r="5" style="stroke : none; fill-opacity: 0.5"/></g><g style="display: none;" class="ResizeSEControl"><circle cx="0" cy="0" r="5" style="stroke : none; fill-opacity: 0.5"/></g><g style="display: none;" class="ResizeSControl"><circle cx="0" cy="0" r="5" style="stroke : none; fill-opacity: 0.5"/></g><g style="display: none;" class="ResizeSWControl"><circle cx="0" cy="0" r="5" style="stroke : none; fill-opacity: 0.5"/></g><g style="display: none;" class="ResizeWControl"><circle cx="0" cy="0" r="5" style="stroke : none; fill-opacity: 0.5"/></g><g style="display: none;" class="ResizeNWControl"><circle cx="0" cy="0" r="5" style="stroke : none; fill-opacity: 0.5"/></g><g style="display: none;" class="removeControl"><polygon style="stroke : none; fill-opacity: 0.1"/></g><g style="display: none;" class="copyPasteControl"><polygon style="stroke : none; fill-opacity: 0.1"/></g><g style="display: none;" class="translateControl"><polygon style="stroke : none; fill-opacity: 0.1; cursor:move"/></g></g></g></g></g></svg>
