<?xml version="1.0"?>
<svg xmlns="http://www.w3.org/2000/svg" xmlns:xlink="http://www.w3.org/1999/xlink" height="976.5800170898438" version="1.1" width="1635.0601196289062" id="temp" viewBox="0 0 1635.0601196289062 976.5800170898438"><defs/><g id="Model" class="Model v1-1"><g class="Floor"><g id="Floor-1" class="Floorplan Floor-1"><g id="03775509-0cf5-4fb5-bd9c-d124504d500b" fill="#ffffff" stroke="#000000" style="fill-opacity: 1; stroke-opacity: 1; stroke-width: 0.2;" class="Space Outdoor"><polygon points="920.83,374.38 920.83,253.52 1091.51,253.52 1091.51,375.24 920.83,374.38 920.83,374.38 "/><g transform="matrix(1,0,0,1,920.8299,253.5185)" class="Dimension"><g transform="matrix(1,0,0,1,0,0)" style="display: none;" class="Visual"><g id="mark1" fill="#000000" stroke="none" transform="matrix(1,0,0,1,85.3425,0)" style="fill-opacity: 1; pointer-events: visible;" class="DimensionMark"><polygon points="-5,5,0,0,5,5"/></g><g id="mark2" fill="#000000" stroke="none" transform="matrix(1,0,0,1,170.6805,60.8607)" style="fill-opacity: 1; pointer-events: visible;" class="DimensionMark"><polygon points="-5,-5,0,0,-5,5"/></g><g id="mark3" fill="#000000" stroke="none" transform="matrix(1,0,0,1,85.3425,121.2903)" style="fill-opacity: 1; pointer-events: visible;" class="DimensionMark"><polygon points="-5,-5,0,0,5,-5"/></g><g id="mark4" fill="#000000" stroke="none" transform="matrix(1,0,0,1,0,60.8607)" style="fill-opacity: 1; pointer-events: visible;" class="DimensionMark"><polygon points="5,5,0,0,5,-5"/></g></g><g transform="matrix(1,0,0,1,85.4414,60.6454)" class="SpaceDimensionsLabel"><g id="NameLabel" style="display: block;" class="TextLabel NameLabel"><text x="0" y="0em" fill="#000000" stroke="none" style="font-family: Verdana; font-size: 33px; fill-opacity: 1; cursor: default;">ULKOTILA</text></g><g id="DimensionMeasureLabel" transform="matrix(1,0,0,1,-4.0781,40.1093)" style="display: none;" class="TextLabel DimensionMeasureLabel"><text x="0" y="0em" fill="#000000" stroke="none" style="font-family: Verdana; font-size: 33px; fill-opacity: 1; cursor: default;">5'7" x 4'0"</text><text x="0" y="0"/></g></g></g></g><g id="cc9009a1-b967-4c66-bd44-bc59d98051e7" fill="#ffffff" stroke="#000000" style="fill-opacity: 1; stroke-opacity: 1; stroke-width: 0.2;" class="Space Outdoor Porch"><polygon points="1103.98,976.37 1427.44,976.37 1427.44,831.95 1103.98,831.95 1103.98,976.37 1103.98,976.37 "/><g transform="matrix(1,0,0,1,1103.978,831.9479)" class="Dimension"><g transform="matrix(1,0,0,1,0,0)" style="display: none;" class="Visual"><g id="mark1" fill="#000000" stroke="none" transform="matrix(1,0,0,1,161.732,0)" style="fill-opacity: 1; pointer-events: visible;" class="DimensionMark"><polygon points="-5,5,0,0,5,5"/></g><g id="mark2" fill="#000000" stroke="none" transform="matrix(1,0,0,1,323.4641,72.2131)" style="fill-opacity: 1; pointer-events: visible;" class="DimensionMark"><polygon points="-5,-5,0,0,-5,5"/></g><g id="mark3" fill="#000000" stroke="none" transform="matrix(1,0,0,1,161.732,144.4261)" style="fill-opacity: 1; pointer-events: visible;" class="DimensionMark"><polygon points="-5,-5,0,0,5,-5"/></g><g id="mark4" fill="#000000" stroke="none" transform="matrix(1,0,0,1,0,72.2131)" style="fill-opacity: 1; pointer-events: visible;" class="DimensionMark"><polygon points="5,5,0,0,5,-5"/></g></g><g transform="matrix(1,0,0,1,105.7493,115.7399)" class="SpaceDimensionsLabel"><g id="NameLabel" style="display: block;" class="TextLabel NameLabel"><text x="0" y="0em" fill="#000000" stroke="none" style="font-family: Verdana; font-size: 33px; fill-opacity: 1; cursor: default;">KUISTI</text></g><g id="DimensionMeasureLabel" transform="matrix(1,0,0,1,-38.9766,39.8907)" style="display: none;" class="TextLabel DimensionMeasureLabel"><text x="0" y="0em" fill="#000000" stroke="none" style="font-family: Verdana; font-size: 33px; fill-opacity: 1; cursor: default;">10'7" x 4'9"</text><text x="0" y="0"/></g></g></g></g><g id="041e99ca-2a0a-4bc9-95ff-899a74bc1f76" fill="#ffffff" stroke="#ffffff" style="fill-opacity: 1; stroke-opacity: 1; stroke-width: 0.2;" class="Space Undefined"><polygon points="877.36,529.47 877.36,649.66 773.07,649.66 773.07,529.47 "/><g transform="matrix(1,0,0,1,773.0671,529.4729)" class="Dimension"><g transform="matrix(1,0,0,1,0,0)" style="display: none;" class="Visual"><g id="mark1" fill="#000000" stroke="none" transform="matrix(1,0,0,1,52.1454,0)" style="fill-opacity: 1; pointer-events: visible;" class="DimensionMark"><polygon points="-5,5,0,0,5,5"/></g><g id="mark2" fill="#000000" stroke="none" transform="matrix(1,0,0,1,104.2908,60.0949)" style="fill-opacity: 1; pointer-events: visible;" class="DimensionMark"><polygon points="-5,-5,0,0,-5,5"/></g><g id="mark3" fill="#000000" stroke="none" transform="matrix(1,0,0,1,52.1454,120.1898)" style="fill-opacity: 1; pointer-events: visible;" class="DimensionMark"><polygon points="-5,-5,0,0,5,-5"/></g><g id="mark4" fill="#000000" stroke="none" transform="matrix(1,0,0,1,0,60.0949)" style="fill-opacity: 1; pointer-events: visible;" class="DimensionMark"><polygon points="5,5,0,0,5,-5"/></g></g><g transform="matrix(1,0,0,1,52.1454,52.1454)" class="SpaceDimensionsLabel"><g id="NameLabel" style="display: block;" class="TextLabel NameLabel"><text x="0" y="0em" fill="#000000" stroke="none" style="font-family: Verdana; font-size: 33px; fill-opacity: 1; cursor: default;">UNDEFINED</text></g><g id="DimensionMeasureLabel" transform="matrix(1,0,0,1,1.6562,39.5)" style="display: none;" class="TextLabel DimensionMeasureLabel"><text x="0" y="0em" fill="#000000" stroke="none" style="font-family: Verdana; font-size: 33px; fill-opacity: 1; cursor: default;">3'5" x 3'11"</text><text x="0" y="0"/></g></g></g></g><g id="70e9cd7c-be47-4d4f-a7de-2f65419cf307" fill="#ffffff" stroke="#ffffff" style="fill-opacity: 1; stroke-opacity: 1; stroke-width: 0.2;" class="Space Kitchen Open"><polygon points="1139.52,816.95 584.78,816.95 584.78,388.80 1139.52,388.80 "/><g transform="matrix(1,0,0,1,584.7769,388.796)" class="Dimension"><g transform="matrix(1,0,0,1,0,0)" style="display: none;" class="Visual"><g id="mark1" fill="#000000" stroke="none" transform="matrix(1,0,0,1,277.3721,0)" style="fill-opacity: 1; pointer-events: visible;" class="DimensionMark"><polygon points="-5,5,0,0,5,5"/></g><g id="mark2" fill="#000000" stroke="none" transform="matrix(1,0,0,1,554.7442,214.0759)" style="fill-opacity: 1; pointer-events: visible;" class="DimensionMark"><polygon points="-5,-5,0,0,-5,5"/></g><g id="mark3" fill="#000000" stroke="none" transform="matrix(1,0,0,1,277.3721,428.1519)" style="fill-opacity: 1; pointer-events: visible;" class="DimensionMark"><polygon points="-5,-5,0,0,5,-5"/></g><g id="mark4" fill="#000000" stroke="none" transform="matrix(1,0,0,1,0,214.0759)" style="fill-opacity: 1; pointer-events: visible;" class="DimensionMark"><polygon points="5,5,0,0,5,-5"/></g></g><g transform="matrix(1,0,0,1,161.7392,357.9329)" class="SpaceDimensionsLabel"><g id="NameLabel" style="display: block;" class="TextLabel NameLabel"><text x="0" y="0em" fill="#000000" stroke="none" style="font-family: Verdana; font-size: 33px; fill-opacity: 1; cursor: default;">TUPAKEITTI&#xD6;</text></g><g id="DimensionMeasureLabel" transform="matrix(1,0,0,1,4.0391,40.2969)" style="display: none;" class="TextLabel DimensionMeasureLabel"><text x="0" y="0em" fill="#000000" stroke="none" style="font-family: Verdana; font-size: 33px; fill-opacity: 1; cursor: default;">18'2" x 14'1"</text><text x="0" y="0"/></g></g></g></g><g id="ebb8f65b-e4e3-4101-a62f-b09b9f1ccc53" fill="#ffffff" stroke="#ffffff" style="fill-opacity: 1; stroke-opacity: 1; stroke-width: 0.2;" class="Space Bedroom"><polygon points="570.78,816.95 243.69,816.95 243.69,388.80 570.78,388.80 "/><g transform="matrix(1,0,0,1,243.6926,388.796)" class="Dimension"><g transform="matrix(1,0,0,1,0,0)" style="display: none;" class="Visual"><g id="mark1" fill="#000000" stroke="none" transform="matrix(1,0,0,1,163.5421,0)" style="fill-opacity: 1; pointer-events: visible;" class="DimensionMark"><polygon points="-5,5,0,0,5,5"/></g><g id="mark2" fill="#000000" stroke="none" transform="matrix(1,0,0,1,327.0843,214.0759)" style="fill-opacity: 1; pointer-events: visible;" class="DimensionMark"><polygon points="-5,-5,0,0,-5,5"/></g><g id="mark3" fill="#000000" stroke="none" transform="matrix(1,0,0,1,163.5421,428.1519)" style="fill-opacity: 1; pointer-events: visible;" class="DimensionMark"><polygon points="-5,-5,0,0,5,-5"/></g><g id="mark4" fill="#000000" stroke="none" transform="matrix(1,0,0,1,0,214.0759)" style="fill-opacity: 1; pointer-events: visible;" class="DimensionMark"><polygon points="5,5,0,0,5,-5"/></g></g><g transform="matrix(1,0,0,1,144.4287,217.4489)" class="SpaceDimensionsLabel"><g id="NameLabel" style="display: block;" class="TextLabel NameLabel"><text x="0" y="0em" fill="#000000" stroke="none" style="font-family: Verdana; font-size: 33px; fill-opacity: 1; cursor: default;">MH</text></g><g id="DimensionMeasureLabel" transform="matrix(1,0,0,1,-82.0078,40.3437)" style="display: none;" class="TextLabel DimensionMeasureLabel"><text x="0" y="0em" fill="#000000" stroke="none" style="font-family: Verdana; font-size: 33px; fill-opacity: 1; cursor: default;">10'9" x 14'1"</text><text x="0" y="0"/></g></g></g></g><g id="25b9e4c9-5859-49e0-a9f9-93d829aa9cba" fill="#ffffff" stroke="#ffffff" style="fill-opacity: 1; stroke-opacity: 1; stroke-width: 0.2;" class="Space DressingRoom"><polygon points="1427.44,816.95 1154.52,816.95 1154.52,675.69 1427.44,675.69 "/><g transform="matrix(1,0,0,1,1154.5212,675.6909)" class="Dimension"><g transform="matrix(1,0,0,1,0,0)" style="display: none;" class="Visual"><g id="mark1" fill="#000000" stroke="none" transform="matrix(1,0,0,1,136.4605,0)" style="fill-opacity: 1; pointer-events: visible;" class="DimensionMark"><polygon points="-5,5,0,0,5,5"/></g><g id="mark2" fill="#000000" stroke="none" transform="matrix(1,0,0,1,272.921,70.6285)" style="fill-opacity: 1; pointer-events: visible;" class="DimensionMark"><polygon points="-5,-5,0,0,-5,5"/></g><g id="mark3" fill="#000000" stroke="none" transform="matrix(1,0,0,1,136.4605,141.2569)" style="fill-opacity: 1; pointer-events: visible;" class="DimensionMark"><polygon points="-5,-5,0,0,5,-5"/></g><g id="mark4" fill="#000000" stroke="none" transform="matrix(1,0,0,1,0,70.6285)" style="fill-opacity: 1; pointer-events: visible;" class="DimensionMark"><polygon points="5,5,0,0,5,-5"/></g></g><g transform="matrix(1,0,0,1,35.9352,82.1863)" class="SpaceDimensionsLabel" style="display: block;"><g id="NameLabel" style="display: block;" class="TextLabel NameLabel"><text x="0" y="0em" fill="#000000" stroke="none" style="font-family: Verdana; font-size: 33px; fill-opacity: 1; cursor: default;">PKH</text></g><g id="DimensionMeasureLabel" transform="matrix(1,0,0,1,-64.0391,40.3437)" style="display: none;" class="TextLabel DimensionMeasureLabel"><text x="0" y="0em" fill="#000000" stroke="none" style="font-family: Verdana; font-size: 33px; fill-opacity: 1; cursor: default;">8'11" x 4'8"</text><text x="0" y="0"/></g></g></g></g><g id="7b2d4399-a62a-4d14-9c0a-06064062423d" fill="#ffffff" stroke="#ffffff" style="fill-opacity: 1; stroke-opacity: 1; stroke-width: 0.2;" class="Space UserDefined"><polygon points="1427.44,662.69 1154.52,662.69 1154.52,546.27 1427.44,546.27 "/><g transform="matrix(1,0,0,1,1154.5212,546.2744)" class="Dimension"><g transform="matrix(1,0,0,1,0,0)" style="display: none;" class="Visual"><g id="mark1" fill="#000000" stroke="none" transform="matrix(1,0,0,1,136.4605,0)" style="fill-opacity: 1; pointer-events: visible;" class="DimensionMark"><polygon points="-5,5,0,0,5,5"/></g><g id="mark2" fill="#000000" stroke="none" transform="matrix(1,0,0,1,272.921,58.2083)" style="fill-opacity: 1; pointer-events: visible;" class="DimensionMark"><polygon points="-5,-5,0,0,-5,5"/></g><g id="mark3" fill="#000000" stroke="none" transform="matrix(1,0,0,1,136.4605,116.4166)" style="fill-opacity: 1; pointer-events: visible;" class="DimensionMark"><polygon points="-5,-5,0,0,5,-5"/></g><g id="mark4" fill="#000000" stroke="none" transform="matrix(1,0,0,1,0,58.2083)" style="fill-opacity: 1; pointer-events: visible;" class="DimensionMark"><polygon points="5,5,0,0,5,-5"/></g></g><g transform="matrix(1,0,0,1,80.3682,100.734)" class="SpaceDimensionsLabel"><g id="NameLabel" style="display: block;" class="TextLabel NameLabel"><text x="0" y="0em" fill="#000000" stroke="none" style="font-family: Verdana; font-size: 33px; fill-opacity: 1; cursor: default;">PH/WC</text></g><g id="DimensionMeasureLabel" transform="matrix(1,0,0,1,-50.6328,40.0937)" style="display: none;" class="TextLabel DimensionMeasureLabel"><text x="0" y="0em" fill="#000000" stroke="none" style="font-family: Verdana; font-size: 33px; fill-opacity: 1; cursor: default;">8'11" x 3'10"</text><text x="0" y="0"/></g></g></g></g><g id="124c3bba-3d35-4eba-adc9-3b3c89ab4603" fill="#ffffff" stroke="#ffffff" style="fill-opacity: 1; stroke-opacity: 1; stroke-width: 0.2;" class="Space Storage"><polygon points="1622.06,963.37 1442.44,963.37 1442.44,807.09 1622.06,807.09 "/><g transform="matrix(1,0,0,1,1442.4421,807.0899)" class="Dimension"><g transform="matrix(1,0,0,1,0,0)" style="display: none;" class="Visual"><g id="mark1" fill="#000000" stroke="none" transform="matrix(1,0,0,1,89.8106,0)" style="fill-opacity: 1; pointer-events: visible;" class="DimensionMark"><polygon points="-5,5,0,0,5,5"/></g><g id="mark2" fill="#000000" stroke="none" transform="matrix(1,0,0,1,179.6212,78.1421)" style="fill-opacity: 1; pointer-events: visible;" class="DimensionMark"><polygon points="-5,-5,0,0,-5,5"/></g><g id="mark3" fill="#000000" stroke="none" transform="matrix(1,0,0,1,89.8106,156.2841)" style="fill-opacity: 1; pointer-events: visible;" class="DimensionMark"><polygon points="-5,-5,0,0,5,-5"/></g><g id="mark4" fill="#000000" stroke="none" transform="matrix(1,0,0,1,0,78.1421)" style="fill-opacity: 1; pointer-events: visible;" class="DimensionMark"><polygon points="5,5,0,0,5,-5"/></g></g><g transform="matrix(1,0,0,1,61.2149,95.7601)" class="SpaceDimensionsLabel"><g id="NameLabel" style="display: block;" class="TextLabel NameLabel"><text x="0" y="0em" fill="#000000" stroke="none" style="font-family: Verdana; font-size: 33px; fill-opacity: 1; cursor: default;">VAR</text></g><g id="DimensionMeasureLabel" transform="matrix(1,0,0,1,-63.3437,39.8907)" style="display: none;" class="TextLabel DimensionMeasureLabel"><text x="0" y="0em" fill="#000000" stroke="none" style="font-family: Verdana; font-size: 33px; fill-opacity: 1; cursor: default;">5'11" x 5'2"</text><text x="0" y="0"/></g></g></g></g><g id="7630528f-4e2e-4eab-9a9b-98ceb42ea11c" fill="#ffffff" stroke="#ffffff" style="fill-opacity: 1; stroke-opacity: 1; stroke-width: 0.2;" class="Space Undefined"><polygon points="1427.44,534.58 1243.12,534.58 1243.12,388.80 1427.44,388.80 "/><g transform="matrix(1,0,0,1,1243.1246,388.796)" class="Dimension"><g transform="matrix(1,0,0,1,0,0)" style="display: none;" class="Visual"><g id="mark1" fill="#000000" stroke="none" transform="matrix(1,0,0,1,92.1587,0)" style="fill-opacity: 1; pointer-events: visible;" class="DimensionMark"><polygon points="-5,5,0,0,5,5"/></g><g id="mark2" fill="#000000" stroke="none" transform="matrix(1,0,0,1,184.3175,72.8925)" style="fill-opacity: 1; pointer-events: visible;" class="DimensionMark"><polygon points="-5,-5,0,0,-5,5"/></g><g id="mark3" fill="#000000" stroke="none" transform="matrix(1,0,0,1,92.1587,145.785)" style="fill-opacity: 1; pointer-events: visible;" class="DimensionMark"><polygon points="-5,-5,0,0,5,-5"/></g><g id="mark4" fill="#000000" stroke="none" transform="matrix(1,0,0,1,0,72.8925)" style="fill-opacity: 1; pointer-events: visible;" class="DimensionMark"><polygon points="5,5,0,0,5,-5"/></g></g><g transform="matrix(1,0,0,1,72.8925,72.8925)" class="SpaceDimensionsLabel"><g id="NameLabel" style="display: block;" class="TextLabel NameLabel"><text x="0" y="0em" fill="#000000" stroke="none" style="font-family: Verdana; font-size: 33px; fill-opacity: 1; cursor: default;">UNDEFINED</text></g><g id="DimensionMeasureLabel" transform="matrix(1,0,0,1,12.1406,39.5)" style="display: none;" class="TextLabel DimensionMeasureLabel"><text x="0" y="0em" fill="#000000" stroke="none" style="font-family: Verdana; font-size: 33px; fill-opacity: 1; cursor: default;">6'1" x 4'9"</text><text x="0" y="0"/></g></g></g></g><g id="9ceab134-ba71-4748-bc1b-3319ab61912d" fill="#ffffff" stroke="#ffffff" style="fill-opacity: 1; stroke-opacity: 1; stroke-width: 0.2;" class="Space Storage"><polygon points="1229.12,534.58 1154.52,534.58 1154.52,388.80 1229.12,388.80 "/><g transform="matrix(1,0,0,1,1154.5212,388.796)" class="Dimension"><g transform="matrix(1,0,0,1,0,0)" style="display: none;" class="Visual"><g id="mark1" fill="#000000" stroke="none" transform="matrix(1,0,0,1,37.3017,0)" style="fill-opacity: 1; pointer-events: visible;" class="DimensionMark"><polygon points="-5,5,0,0,5,5"/></g><g id="mark2" fill="#000000" stroke="none" transform="matrix(1,0,0,1,74.6035,72.8925)" style="fill-opacity: 1; pointer-events: visible;" class="DimensionMark"><polygon points="-5,-5,0,0,-5,5"/></g><g id="mark3" fill="#000000" stroke="none" transform="matrix(1,0,0,1,37.3017,145.785)" style="fill-opacity: 1; pointer-events: visible;" class="DimensionMark"><polygon points="-5,-5,0,0,5,-5"/></g><g id="mark4" fill="#000000" stroke="none" transform="matrix(1,0,0,1,0,72.8925)" style="fill-opacity: 1; pointer-events: visible;" class="DimensionMark"><polygon points="5,5,0,0,5,-5"/></g></g><g transform="matrix(1,0,0,1,4.1263,87.7087)" class="SpaceDimensionsLabel"><g id="NameLabel" style="display: block;" class="TextLabel NameLabel"><text x="0" y="0em" fill="#000000" stroke="none" style="font-family: Verdana; font-size: 33px; fill-opacity: 1; cursor: default;">VAR</text></g><g id="DimensionMeasureLabel" transform="matrix(1,0,0,1,-52.961,39.625)" style="display: none;" class="TextLabel DimensionMeasureLabel"><text x="0" y="0em" fill="#000000" stroke="none" style="font-family: Verdana; font-size: 33px; fill-opacity: 1; cursor: default;">2'5" x 4'9"</text><text x="0" y="0"/></g></g></g></g><g id="Wall" fill="#000000" stroke="#000000" style="fill-opacity: 1; stroke-opacity: 1; stroke-width: 0.2;" class="Wall External"><polygon points="1442.44,373.80 228.69,373.80 243.69,388.80 1427.44,388.80 "/><g id="Door" fill="#ffffff" stroke="#000000" style="fill-opacity: 1; stroke-width: 1; stroke-opacity: 1;" class="Door Swing Opposite"><polygon points="1047.34,373.80 962.98,373.80 962.98,388.80 1047.34,388.80 "/><g id="Threshold" class="Threshold"><polygon points="1047.34,373.80 962.98,373.80 962.98,388.80 1047.34,388.80 "/></g><g id="Panel" fill="none" style="" class="Panel Right Negative"><g id="PanelArea" fill="none" stroke="none" style="" class="PanelArea"><polygon points="1047.34,373.80 962.98,373.80 962.98,388.80 1047.34,388.80 "/></g><path d="M962.98,373.80 q0.00,-84.36 84.36,-84.36 l0.00,84.36Z"/></g><g id="Panel" fill="none" style="" class="Panel Left Positive"><g id="PanelArea" fill="none" stroke="none" style="" class="PanelArea"><polygon points="1047.34,373.80 962.98,373.80 962.98,388.80 1047.34,388.80 "/></g><path d="M962.98,388.80 q0.00,84.36 84.36,84.36 l0.00,-84.36Z"/></g></g><g id="Window" fill="#f0f0ff" stroke="#000000" style="fill-opacity: 1; stroke-width: 1; stroke-opacity: 1;" class="Window Regular"><polygon points="785.15,373.80 675.82,373.80 675.82,388.80 785.15,388.80 "/><g id="Glass" class="Glass"><polygon points="785.15,373.80 675.82,373.80 675.82,388.80 785.15,388.80 "/></g><g id="Panel" class="Panel"><line x1="777.6485813613558" x2="683.3184125231493" y1="381.29603594737824" y2="381.29603594737824"/><line x1="777.6485813613558" x2="777.6485813613558" y1="373.79603594737824" y2="388.79603594737824"/><line x1="683.3184125231489" x2="683.3184125231489" y1="373.79603594737824" y2="388.79603594737824"/></g></g></g><g id="Wall" fill="#000000" stroke="#000000" style="fill-opacity: 1; stroke-opacity: 1; stroke-width: 0.2;" class="Wall External"><polygon points="243.69,388.80 243.69,816.95 228.69,831.95 228.69,373.80 "/><g id="Window" fill="#f0f0ff" stroke="#000000" style="fill-opacity: 1; stroke-width: 1; stroke-opacity: 1;" class="Window Regular"><polygon points="243.69,648.24 243.69,752.11 228.69,752.11 228.69,648.24 "/><g id="Glass" class="Glass"><polygon points="243.69,648.24 243.69,752.11 228.69,752.11 228.69,648.24 "/></g><g id="Panel" class="Panel"><line x1="236.19261192206704" x2="236.19261192206704" y1="655.7364561716847" y2="744.6093601888128"/><line x1="243.69261192206704" x2="228.69261192206704" y1="655.7364561716847" y2="655.7364561716847"/><line x1="243.69261192206704" x2="228.69261192206704" y1="744.6093601888128" y2="744.6093601888128"/></g></g></g><g id="Wall" fill="#000000" stroke="#000000" style="fill-opacity: 1; stroke-opacity: 1; stroke-width: 0.2;" class="Wall External"><polygon points="228.69,831.95 1442.44,831.95 1427.44,816.95 243.69,816.95 "/><g id="Window" fill="#f0f0ff" stroke="#000000" style="fill-opacity: 1; stroke-width: 1; stroke-opacity: 1;" class="Window Regular"><polygon points="317.09,831.95 448.42,831.95 448.42,816.95 317.09,816.95 "/><g id="Glass" class="Glass"><polygon points="317.09,831.95 448.42,831.95 448.42,816.95 317.09,816.95 "/></g><g id="Panel" class="Panel"><line x1="324.58941379780043" x2="440.9246638153011" y1="824.4478884293272" y2="824.4478884293272"/><line x1="324.58941379780043" x2="324.58941379780043" y1="831.9478884293272" y2="816.9478884293272"/><line x1="440.924663815301" x2="440.924663815301" y1="831.9478884293272" y2="816.9478884293272"/></g></g><g id="Window" fill="#f0f0ff" stroke="#000000" style="fill-opacity: 1; stroke-width: 1; stroke-opacity: 1;" class="Window Regular"><polygon points="676.09,831.95 780.71,831.95 780.71,816.95 676.09,816.95 "/><g id="Glass" class="Glass"><polygon points="676.09,831.95 780.71,831.95 780.71,816.95 676.09,816.95 "/></g><g id="Panel" class="Panel"><line x1="683.5876471498259" x2="773.2143032514836" y1="824.4478884293271" y2="824.4478884293271"/><line x1="683.5876471498259" x2="683.5876471498259" y1="831.9478884293271" y2="816.9478884293271"/><line x1="773.2143032514836" x2="773.2143032514836" y1="831.9478884293271" y2="816.9478884293271"/></g></g><g id="Window" fill="#f0f0ff" stroke="#000000" style="fill-opacity: 1; stroke-width: 1; stroke-opacity: 1;" class="Window Regular"><polygon points="939.61,831.95 1070.64,831.95 1070.64,816.95 939.61,816.95 "/><g id="Glass" class="Glass"><polygon points="939.61,831.95 1070.64,831.95 1070.64,816.95 939.61,816.95 "/></g><g id="Panel" class="Panel"><line x1="947.10758800852" x2="1063.1362989722145" y1="824.4478884293271" y2="824.4478884293271"/><line x1="947.10758800852" x2="947.10758800852" y1="831.9478884293271" y2="816.9478884293271"/><line x1="1063.1362989722145" x2="1063.1362989722145" y1="831.9478884293271" y2="816.9478884293271"/></g></g><g id="Door" fill="#ffffff" stroke="#000000" style="fill-opacity: 1; stroke-width: 1; stroke-opacity: 1;" class="Door Swing Opposite"><polygon points="1261.76,831.95 1342.61,831.95 1342.61,816.95 1261.76,816.95 "/><g id="Threshold" class="Threshold"><polygon points="1261.76,831.95 1342.61,831.95 1342.61,816.95 1261.76,816.95 "/></g><g id="Panel" fill="none" style="" class="Panel Left Negative"><g id="PanelArea" fill="none" stroke="none" style="" class="PanelArea"><polygon points="1261.76,831.95 1342.61,831.95 1342.61,816.95 1261.76,816.95 "/></g><path d="M1261.76,831.95 q0.00,80.85 80.85,80.85 l0.00,-80.85Z"/></g><g id="Panel" fill="none" style="" class="Panel Right Positive"><g id="PanelArea" fill="none" stroke="none" style="" class="PanelArea"><polygon points="1261.76,831.95 1342.61,831.95 1342.61,816.95 1261.76,816.95 "/></g><path d="M1261.76,816.95 q0.00,-80.85 80.85,-80.85 l0.00,80.85Z"/></g></g></g><g id="Wall" fill="#000000" stroke="#000000" style="fill-opacity: 1; stroke-opacity: 1; stroke-width: 0.2;" class="Wall External"><polygon points="1442.44,831.95 1442.44,373.80 1427.44,388.80 1427.44,816.95 "/><g id="Window" fill="#f0f0ff" stroke="#000000" style="fill-opacity: 1; stroke-width: 1; stroke-opacity: 1;" class="Window Regular"><polygon points="1442.44,784.57 1442.44,725.65 1427.44,725.65 1427.44,784.57 "/><g id="Glass" class="Glass"><polygon points="1442.44,784.57 1442.44,725.65 1427.44,725.65 1427.44,784.57 "/></g><g id="Panel" class="Panel"><line x1="1434.9421061789144" x2="1434.9421061789144" y1="777.0659211698351" y2="733.1517553867004"/><line x1="1442.4421061789144" x2="1427.4421061789144" y1="777.0659211698351" y2="777.0659211698351"/><line x1="1442.4421061789144" x2="1427.4421061789144" y1="733.1517553867004" y2="733.1517553867004"/></g></g><g id="Window" fill="#f0f0ff" stroke="#000000" style="fill-opacity: 1; stroke-width: 1; stroke-opacity: 1;" class="Window Regular"><polygon points="1442.44,529.05 1442.44,470.46 1427.44,470.46 1427.44,529.05 "/><g id="Glass" class="Glass"><polygon points="1442.44,529.05 1442.44,470.46 1427.44,470.46 1427.44,529.05 "/></g><g id="Panel" class="Panel"><line x1="1434.9421061789142" x2="1434.9421061789142" y1="521.5524328966587" y2="477.9586822196783"/><line x1="1442.4421061789142" x2="1427.4421061789142" y1="521.5524328966587" y2="521.5524328966587"/><line x1="1442.4421061789142" x2="1427.4421061789142" y1="477.9586822196783" y2="477.9586822196783"/></g></g></g><g id="Wall" fill="#000000" stroke="#000000" style="fill-opacity: 1; stroke-opacity: 1; stroke-width: 0.2;" class="Wall"><polygon points="1154.52,831.95 1154.52,373.80 1139.52,373.80 1139.52,831.95 "/><g id="Door" fill="#ffffff" stroke="#000000" style="fill-opacity: 1; stroke-width: 1; stroke-opacity: 1;" class="Door Swing Beside"><polygon points="1154.52,800.25 1154.52,725.93 1139.52,725.93 1139.52,800.25 "/><g id="Threshold" class="Threshold"><polygon points="1154.52,800.25 1154.52,725.93 1139.52,725.93 1139.52,800.25 "/></g><g id="Panel" fill="none" style="" class="Panel Left Positive"><g id="PanelArea" fill="none" stroke="none" style="" class="PanelArea"><polygon points="1154.52,800.25 1154.52,725.93 1139.52,725.93 1139.52,800.25 "/></g><path d="M1139.52,725.93 q-74.33,0.00 -74.33,74.33 l74.33,0.00Z"/></g></g><g id="Door" fill="#ffffff" stroke="#000000" style="fill-opacity: 1; stroke-width: 1; stroke-opacity: 1;" class="Door Swing Beside"><polygon points="1154.52,482.58 1154.52,421.82 1139.52,421.82 1139.52,482.58 "/><g id="Threshold" class="Threshold"><polygon points="1154.52,482.58 1154.52,421.82 1139.52,421.82 1139.52,482.58 "/></g><g id="Panel" fill="none" style="" class="Panel Right Positive"><g id="PanelArea" fill="none" stroke="none" style="" class="PanelArea"><polygon points="1154.52,482.58 1154.52,421.82 1139.52,421.82 1139.52,482.58 "/></g><path d="M1139.52,482.58 q-60.76,0.00 -60.76,-60.76 l60.76,0.00Z"/></g></g></g><g id="Wall" fill="#000000" stroke="#000000" style="fill-opacity: 1; stroke-opacity: 1; stroke-width: 0.2;" class="Wall"><polygon points="1139.52,546.27 1442.44,546.27 1442.44,534.58 1139.52,534.58 "/><g id="Door" fill="#ffffff" stroke="#000000" style="fill-opacity: 1; stroke-width: 1; stroke-opacity: 1;" class="Door Swing Beside"><polygon points="1305.44,546.27 1364.19,546.27 1364.19,534.58 1305.44,534.58 "/><g id="Threshold" class="Threshold"><polygon points="1305.44,546.27 1364.19,546.27 1364.19,534.58 1305.44,534.58 "/></g><g id="Panel" fill="none" style="" class="Panel Left Negative"><g id="PanelArea" fill="none" stroke="none" style="" class="PanelArea"><polygon points="1305.44,546.27 1364.19,546.27 1364.19,534.58 1305.44,534.58 "/></g><path d="M1305.44,546.27 q0.00,58.75 58.75,58.75 l0.00,-58.75Z"/></g></g></g><g id="Wall" fill="#000000" stroke="#000000" style="fill-opacity: 1; stroke-opacity: 1; stroke-width: 0.2;" class="Wall"><polygon points="1243.12,546.27 1243.12,373.80 1229.12,373.80 1229.12,546.27 "/></g><g id="Wall" fill="#000000" stroke="#000000" style="fill-opacity: 1; stroke-opacity: 1; stroke-width: 0.2;" class="Wall"><polygon points="1139.52,675.69 1442.44,675.69 1442.44,662.69 1139.52,662.69 "/><g id="Door" fill="#ffffff" stroke="#000000" style="fill-opacity: 1; stroke-width: 1; stroke-opacity: 1;" class="Door Swing Beside"><polygon points="1297.89,675.69 1364.32,675.69 1364.32,662.69 1297.89,662.69 "/><g id="Threshold" class="Threshold"><polygon points="1297.89,675.69 1364.32,675.69 1364.32,662.69 1297.89,662.69 "/></g><g id="Panel" fill="none" style="" class="Panel Left Negative"><g id="PanelArea" fill="none" stroke="none" style="" class="PanelArea"><polygon points="1297.89,675.69 1364.32,675.69 1364.32,662.69 1297.89,662.69 "/></g><path d="M1297.89,675.69 q0.00,66.43 66.43,66.43 l0.00,-66.43Z"/></g></g></g><g id="Wall" fill="#000000" stroke="#000000" style="fill-opacity: 1; stroke-opacity: 1; stroke-width: 0.2;" class="Wall"><polygon points="584.78,831.95 584.78,373.80 570.78,373.80 570.78,831.95 "/><g id="Door" fill="#ffffff" stroke="#000000" style="fill-opacity: 1; stroke-width: 1; stroke-opacity: 1;" class="Door Zfold Beside"><polygon points="584.78,577.18 584.78,467.97 570.78,467.97 570.78,577.18 "/><g id="Threshold" stroke="#ffffff" style="" class="Threshold"><polygon points="584.78,577.18 584.78,467.97 570.78,467.97 570.78,577.18 "/></g><g id="Panel" class="Panel Right Center"><g id="PanelArea" fill="none" stroke="none" style="" class="PanelArea"><polygon points="584.78,577.18 584.78,467.97 570.78,467.97 570.78,577.18 "/></g><path d="M570.78,577.18 L584.78,569.98 L570.78,562.77 L584.78,555.56 L570.78,548.35 L584.78,541.14 L570.78,533.94 L584.78,526.73 L570.78,519.52 L584.78,512.31 L570.78,505.10 "/></g></g></g><g id="Wall" fill="#000000" stroke="#000000" style="fill-opacity: 1; stroke-opacity: 1; stroke-width: 0.2;" class="Wall External"><polygon points="1442.44,831.95 1442.44,963.37 1427.44,976.37 1427.44,831.95 "/></g><g id="Wall" fill="#000000" stroke="#000000" style="fill-opacity: 1; stroke-opacity: 1; stroke-width: 0.2;" class="Wall External"><polygon points="1427.44,976.37 1635.06,976.37 1622.06,963.37 1442.44,963.37 "/></g><g id="Wall" fill="#000000" stroke="#000000" style="fill-opacity: 1; stroke-opacity: 1; stroke-width: 0.2;" class="Wall External"><polygon points="1635.06,976.37 1635.06,794.09 1622.06,807.09 1622.06,963.37 "/></g><g id="Wall" fill="#000000" stroke="#000000" style="fill-opacity: 1; stroke-opacity: 1; stroke-width: 0.2;" class="Wall External"><polygon points="1635.06,794.09 1427.44,794.09 1427.44,807.09 1622.06,807.09 "/><g id="Door" fill="#ffffff" stroke="#000000" style="fill-opacity: 1; stroke-width: 1; stroke-opacity: 1;" class="Door Swing Beside"><polygon points="1569.24,794.09 1511.77,794.09 1511.77,807.09 1569.24,807.09 "/><g id="Threshold" class="Threshold"><polygon points="1569.24,794.09 1511.77,794.09 1511.77,807.09 1569.24,807.09 "/></g><g id="Panel" fill="none" style="" class="Panel Left Negative"><g id="PanelArea" fill="none" stroke="none" style="" class="PanelArea"><polygon points="1569.24,794.09 1511.77,794.09 1511.77,807.09 1569.24,807.09 "/></g><path d="M1569.24,794.09 q0.00,-57.46 -57.46,-57.46 l0.00,57.46Z"/></g></g></g><g id="Railing" fill="#ffffff" stroke="#000000" style="fill-opacity: 1; stroke-opacity: 1; stroke-width: 0.2;" class="Railing"><polygon points="1427.44,976.37 1355.89,976.37 1355.89,966.37 1427.44,966.37 " style="stroke-dasharray: 0;"/></g><g id="Railing" fill="#ffffff" stroke="#000000" style="fill-opacity: 1; stroke-opacity: 1; stroke-width: 0.2;" class="Railing"><polygon points="1242.22,976.37 1093.98,976.37 1103.98,966.37 1242.22,966.37 " style="stroke-dasharray: 148.238, 14.1421, 148.238;"/></g><g id="Railing" fill="#ffffff" stroke="#000000" style="fill-opacity: 1; stroke-opacity: 1; stroke-width: 0.2;" class="Railing"><polygon points="1093.98,976.37 1093.98,831.95 1103.98,831.95 1103.98,966.37 " style="stroke-dasharray: 288.852, 14.1421;"/></g><g id="Wall" fill="#000000" stroke="#000000" style="fill-opacity: 1; stroke-opacity: 1; stroke-width: 0.2;" class="Wall"><polygon points="877.36,649.66 877.36,529.47 773.07,529.47 773.07,649.66 "/></g><g class="FixedFurniture Closet" fill="#ffffff" stroke="#000000" transform="matrix(0,1,-1,0,1139.5212,493.9948)" style="fill-opacity: 1; stroke-opacity: 1; stroke-width: 1;">
        <g class="BoundaryPolygon">
            <polygon points="0.00,0.00 46.66,0.00 46.66,60.00 0.00,60.00 "/>
        </g>
        <g class="Direction" fill-opacity="0.9" style="display: none;">
            <polygon points="24.50,54.70 24.50,44.08 21.49,44.08 21.49,54.70 17.69,54.70 22.99,60.00 28.30,54.70 24.50,54.70 " fill="#444444"/>
        </g> 
        <g class="Name" fill-opacity="0.9" style="display: none;">
            <text transform="translate(3 12)" font-size="12" font-family="Verdana, Sans-Serif">CL</text>
        </g>
        <desc>Width:60 Height:200 Depth:60 Elevation:0</desc>
     </g><g class="FixedFurniture BaseCabinet" fill="#ffffff" stroke="#000000" transform="matrix(0,1,-1,0,1139.5211,540.6548)" style="fill-opacity: 1; stroke-opacity: 1; stroke-width: 1;">
        <g class="BoundaryPolygon">
            <polygon points="0.00,0.00 169.82,0.00 169.82,60.00 0.00,60.00 "/>
        </g>
        <g class="Direction" fill-opacity="0.9" style="display: none;">
            <polygon points="90.60,55.20 90.60,44.58 87.59,44.58 87.59,55.20 83.78,55.20 89.09,60.00 94.39,55.20 90.60,55.20 " fill="#444444"/>
        </g> 
        <g class="Name" fill-opacity="0.9" style="display: none;">
            <text transform="translate(3 12)" font-size="12" font-family="Verdana, Sans-Serif">CB</text>
        </g>
        <desc>Width:60 Height:90 Depth:60 Elevation:0</desc>
    </g><g class="FixedFurniture WallCabinet" fill="#ffffff" stroke="#000000" transform="matrix(0,1,-1,0,1139.5212,540.6549)" style="fill-opacity: 0.7; stroke-opacity: 1; stroke-width: 1.5;">	
        <g class="BoundaryPolygon">
            <polygon points="0.00,0.00 169.74,0.00 169.74,30.55 0.00,30.55 "/>
        </g>
        <g class="Direction" fill-opacity="0.9" style="display: none;">
            <polygon points="90.55,25.66 90.55,15.04 87.54,15.04 87.54,25.66 83.74,25.66 89.04,30.46 94.35,25.66 90.55,25.66 " fill="#444444"/>
        </g> 
        <g class="Name" fill-opacity="0.9" style="display: none;">
            <text transform="translate(3 12)" font-size="12" font-family="Verdana, Sans-Serif">UC</text>
        </g>
        <desc>Width:60 Height:60 Depth:30 Elevation:140</desc>
    </g><g class="FixedFurniture SaunaBenchHigh" fill="#ffffff" stroke="#000000" transform="matrix(1,0,0,1,1243.1246,388.796)" style="fill-opacity: 1; stroke-opacity: 1; stroke-width: 1;">
        <g class="BoundaryPolygon">
            <polygon points="0.00,0.00 184.04,0.00 184.04,41.55 0.00,41.55 "/> 
        </g>
        <g class="Bench" stroke="#9a9a9a" stroke-width="0.5">
            <line x1="0" y1="2.7702920060573772" x2="184.03642284056735" y2="2.7702920060573772"/>
            <line x1="0" y1="5.5405840121147545" x2="184.03642284056735" y2="5.5405840121147545"/>
            <line x1="0" y1="8.310876018172133" x2="184.03642284056735" y2="8.310876018172133"/>
            <line x1="0" y1="11.081168024229509" x2="184.03642284056735" y2="11.081168024229509"/>
            <line x1="0" y1="13.851460030286887" x2="184.03642284056735" y2="13.851460030286887"/>
            <line x1="0" y1="16.621752036344265" x2="184.03642284056735" y2="16.621752036344265"/>
            <line x1="0" y1="19.39204404240164" x2="184.03642284056735" y2="19.39204404240164"/>
            <line x1="0" y1="22.162336048459018" x2="184.03642284056735" y2="22.162336048459018"/>
            <line x1="0" y1="24.932628054516393" x2="184.03642284056735" y2="24.932628054516393"/>
            <line x1="0" y1="27.702920060573774" x2="184.03642284056735" y2="27.702920060573774"/>
            <line x1="0" y1="30.473212066631156" x2="184.03642284056735" y2="30.473212066631156"/>
            <line x1="0" y1="33.24350407268853" x2="184.03642284056735" y2="33.24350407268853"/>
            <line x1="0" y1="36.01379607874592" x2="184.03642284056735" y2="36.01379607874592"/>
            <line x1="0" y1="38.78408808480328" x2="184.03642284056735" y2="38.78408808480328"/>
        </g>
         <g class="Direction" fill-opacity="0.9" style="display: none;">
            <polygon points="94.91,37.85 94.91,27.24 91.90,27.24 91.90,37.85 88.10,37.85 93.40,43.16 98.71,37.85 94.91,37.85 " fill="#444444"/>
        </g> 
        <g class="Name" fill-opacity="0.9" style="display: none;">
            <text transform="translate(3 12)" font-size="12" font-family="Verdana, Sans-Serif">SB_HIGH</text>
        </g>
        <desc>Width:185 Height:5 Depth:60 Elevation:105</desc>
    </g><g class="FixedFurniture SaunaBenchMid" fill="#ffffff" stroke="#000000" transform="matrix(1,0,0,1,1243.1247,430.5067)" style="fill-opacity: 1; stroke-opacity: 1; stroke-width: 1;">
        <g class="BoundaryPolygon">
            <polygon points="0.00,0.00 184.08,0.00 184.08,39.39 0.00,39.39 "/>
        </g>
        <g class="Bench" stroke="#9a9a9a" stroke-width="0.5">
            <line x1="0" y1="3.939058550351492" x2="184.082307467207" y2="3.939058550351492"/>
            <line x1="0" y1="7.878117100702984" x2="184.082307467207" y2="7.878117100702984"/>
            <line x1="0" y1="11.817175651054477" x2="184.082307467207" y2="11.817175651054477"/>
            <line x1="0" y1="15.756234201405968" x2="184.082307467207" y2="15.756234201405968"/>
            <line x1="0" y1="19.695292751757467" x2="184.082307467207" y2="19.695292751757467"/>
            <line x1="0" y1="23.634351302108954" x2="184.082307467207" y2="23.634351302108954"/>
            <line x1="0" y1="27.57340985246044" x2="184.082307467207" y2="27.57340985246044"/>
            <line x1="0" y1="31.512468402811937" x2="184.082307467207" y2="31.512468402811937"/>
            <line x1="0" y1="35.45152695316342" x2="184.082307467207" y2="35.45152695316342"/>
        </g>
        <g class="Direction" fill-opacity="0.9" style="display: none;">
            <polygon points="93.54,34.13 93.54,23.51 90.53,23.51 90.53,34.13 86.73,34.13 92.03,39.43 97.34,34.13 93.54,34.13 " fill="#444444"/>
        </g> 
        <g class="Name" fill-opacity="0.9" style="display: none;">
            <text transform="translate(3 12)" font-size="12" font-family="Verdana, Sans-Serif">SB_MID</text>
        </g>
        <desc>Width:185 Height:5 Depth:40 Elevation:60</desc>
    </g><g class="FixedFurniture SaunaBenchLow" fill="#ffffff" stroke="#000000" transform="matrix(1,0,0,1,1316.2521,470.0535)" style="fill-opacity: 1; stroke-opacity: 1; stroke-width: 1;">
        <g class="BoundaryPolygon">
            <polygon points="0.00,0.00 111.04,0.00 111.04,26.75 0.00,26.75 "/>
        </g>
        <g class="Bench" stroke="#9a9a9a" stroke-width="0.5">
            <line x1="0" y1="2.6745234701448926" x2="111.03628802065157" y2="2.6745234701448926"/>
            <line x1="0" y1="5.349046940289785" x2="111.03628802065157" y2="5.349046940289785"/>
            <line x1="0" y1="8.023570410434674" x2="111.03628802065157" y2="8.023570410434674"/>
            <line x1="0" y1="10.69809388057957" x2="111.03628802065157" y2="10.69809388057957"/>
            <line x1="0" y1="13.372617350724461" x2="111.03628802065157" y2="13.372617350724461"/>
            <line x1="0" y1="16.04714082086935" x2="111.03628802065157" y2="16.04714082086935"/>
            <line x1="0" y1="18.721664291014246" x2="111.03628802065157" y2="18.721664291014246"/>
            <line x1="0" y1="21.39618776115914" x2="111.03628802065157" y2="21.39618776115914"/>
            <line x1="0" y1="24.07071123130403" x2="111.03628802065157" y2="24.07071123130403"/>
        </g>
        <g class="Direction" fill-opacity="0.9" style="display: none;">
            <polygon points="57.42,23.17 57.42,12.56 54.41,12.56 54.41,23.17 50.61,23.17 55.91,28.48 61.21,23.17 57.42,23.17 " fill="#444444"/>
        </g> 
        <g class="Name" fill-opacity="0.9" style="display: none;">
            <text transform="translate(3 12)" font-size="12" font-family="Verdana, Sans-Serif">SB_LOW</text>
        </g>
        <desc>Width:91 Height:5 Depth:40 Elevation:30</desc>
    </g><g class="FixedFurniture CoatCloset" fill="#ffffff" stroke="#000000" transform="matrix(0,1,-1,0,570.6676,638.9719)" style="fill-opacity: 1; stroke-opacity: 1; stroke-width: 1;">
        <g class="BoundaryPolygon">
            <polygon points="0.00,0.00 60.00,0.00 60.00,62.54 0.00,62.54 "/>
        </g>
        <g class="Hanger" stroke="#9a9a9a" stroke-dasharray="5,5">
            <line x1="0" y1="31.269754399227942" x2="60" y2="31.269754399227942"/>
        </g>
        <g class="Direction" fill-opacity="0.9" style="display: none;">
            <polygon points="31.51,57.01 31.51,46.40 28.50,46.40 28.50,57.01 24.70,57.01 30.00,62.32 35.30,57.01 31.51,57.01 " fill="#444444"/>
        </g> 
        <g class="Name" fill-opacity="0.9" style="display: none;">
            <text transform="translate(3 12)" font-size="12" font-family="Verdana, Sans-Serif">CWH</text>
        </g>
        <desc>Width:60 Height:200 Depth:60 Elevation:0</desc>
     </g><g id="FixedFurnitureSet" transform="matrix(0,1,-1,0,570.6207,698.9719)" class="FixedFurnitureSet" fill="#ffffff" stroke="#fc0fc0" style="fill-opacity: 0.4; stroke-opacity: 0.9; stroke-width: 1.5;"><g class="FixedFurniture Closet" fill="#ffffff" stroke="#000000" transform="matrix(1,0,0,1,0,0)" style="fill-opacity: 1; stroke-opacity: 1; stroke-width: 1;">
        <g class="BoundaryPolygon">
            <polygon points="0.00,0.00 58.99,0.00 58.99,62.70 0.00,62.70 "/>
        </g>
        <g class="Direction" fill-opacity="0.9" style="display: none;">
            <polygon points="30.98,57.16 30.98,46.54 27.97,46.54 27.97,57.16 24.16,57.16 29.47,62.46 34.77,57.16 30.98,57.16 " fill="#444444"/>
        </g> 
        <g class="Name" fill-opacity="0.9" style="display: none;">
            <text transform="translate(3 12)" font-size="12" font-family="Verdana, Sans-Serif">CL</text>
        </g>
        <desc>Width:60 Height:200 Depth:60 Elevation:0</desc>
    </g><g class="FixedFurniture Closet" fill="#ffffff" stroke="#000000" transform="matrix(1,0,0,1,58.986,0)" style="fill-opacity: 1; stroke-opacity: 1; stroke-width: 1;">
        <g class="BoundaryPolygon">
            <polygon points="0.00,0.00 58.99,0.00 58.99,62.70 0.00,62.70 "/>
        </g>
        <g class="Direction" fill-opacity="0.9" style="display: none;">
            <polygon points="30.98,57.16 30.98,46.54 27.97,46.54 27.97,57.16 24.16,57.16 29.47,62.46 34.77,57.16 30.98,57.16 " fill="#444444"/>
        </g> 
        <g class="Name" fill-opacity="0.9" style="display: none;">
            <text transform="translate(3 12)" font-size="12" font-family="Verdana, Sans-Serif">CL</text>
        </g>
        <desc>Width:60 Height:200 Depth:60 Elevation:0</desc>
     </g></g><g class="FixedFurniture CoatCloset" fill="#ffffff" stroke="#000000" transform="matrix(0,1,-1,0,570.5895,388.796)" style="fill-opacity: 1; stroke-opacity: 1; stroke-width: 1;">
        <g class="BoundaryPolygon">
            <polygon points="0.00,0.00 58.49,0.00 58.49,63.44 0.00,63.44 "/>
        </g>
        <g class="Hanger" stroke="#9a9a9a" stroke-dasharray="5,5">
            <line x1="0" y1="31.72030041460375" x2="58.493665517209266" y2="31.72030041460375"/>
        </g>
        <g class="Direction" fill-opacity="0.9" style="display: none;">
            <polygon points="30.72,57.83 30.72,47.22 27.71,47.22 27.71,57.83 23.91,57.83 29.21,63.14 34.51,57.83 30.72,57.83 " fill="#444444"/>
        </g> 
        <g class="Name" fill-opacity="0.9" style="display: none;">
            <text transform="translate(3 12)" font-size="12" font-family="Verdana, Sans-Serif">CWH</text>
        </g>
        <desc>Width:60 Height:200 Depth:60 Elevation:0</desc>
     </g><g id="Column" fill="#000000" stroke="none" style="fill-opacity: 1;" class="Column Rectangle"><polygon points="1243.47,976.37 1243.47,962.69 1229.64,962.69 1229.64,976.37 "/></g><g id="Column" fill="#000000" stroke="none" style="fill-opacity: 1;" transform="matrix(1,0,0,1,0,0)" class="Column Rectangle"><polygon points="1107.81,976.38 1107.81,962.70 1093.98,962.70 1093.98,976.38 "/></g><g id="Column" fill="#000000" stroke="none" style="fill-opacity: 1;" transform="matrix(1,0,0,1,0,0)" class="Column Rectangle"><polygon points="1368.94,976.58 1368.94,962.90 1355.11,962.90 1355.11,976.58 "/></g><g id="Column" fill="#000000" stroke="none" style="fill-opacity: 1;" class="Column Rectangle"><polygon points="920.58,253.13 920.58,268.15 939.56,268.15 939.56,253.13 "/></g><g id="Column" fill="#000000" stroke="none" style="fill-opacity: 1;" transform="matrix(1,0,0,1,0,0)" class="Column Rectangle"><polygon points="1072.43,253.38 1072.43,268.40 1091.41,268.40 1091.41,253.38 "/></g><g fill="#0000ff" stroke="#0000ff" style="display: none;" class="SelectionControls"><g style="display: none;" class="rotateControl"><circle cx="1224.2376020824327" cy="694.5491187871852" r="5" style="stroke : none; fill-opacity: 0.5; cursor:crosshair"/></g><g style="display: none;" class="ResizeNControl"><circle cx="0" cy="0" r="5" style="stroke : none; fill-opacity: 0.5"/></g><g style="display: none;" class="ResizeNEControl"><circle cx="0" cy="0" r="5" style="stroke : none; fill-opacity: 0.5"/></g><g style="display: none;" class="ResizeEControl"><circle cx="0" cy="0" r="5" style="stroke : none; fill-opacity: 0.5"/></g><g style="display: none;" class="ResizeSEControl"><circle cx="0" cy="0" r="5" style="stroke : none; fill-opacity: 0.5"/></g><g style="display: none;" class="ResizeSControl"><circle cx="0" cy="0" r="5" style="stroke : none; fill-opacity: 0.5"/></g><g style="display: none;" class="ResizeSWControl"><circle cx="0" cy="0" r="5" style="stroke : none; fill-opacity: 0.5"/></g><g style="display: none;" class="ResizeWControl"><circle cx="0" cy="0" r="5" style="stroke : none; fill-opacity: 0.5"/></g><g style="display: none;" class="ResizeNWControl"><circle cx="0" cy="0" r="5" style="stroke : none; fill-opacity: 0.5"/></g><g style="display: none;" class="removeControl"><polygon style="stroke : none; fill-opacity: 0.1" points="1190.46,724.55 1258.02,724.55 1258.02,764.89 1190.46,764.89 "/></g><g style="display: none;" class="copyPasteControl"><polygon style="stroke : none; fill-opacity: 0.1"/></g><g style="display: none;" class="translateControl"><polygon style="stroke : none; fill-opacity: 0.1; cursor:move" points="1190.46,724.55 1258.02,724.55 1258.02,764.89 1190.46,764.89 "/></g></g><g fill="#0000ff" stroke="#0000ff" style="display: none;" class="SelectionControls"><polygon fill="none" stroke="#0000ff" style="" points="1154.52,675.69 1427.44,675.69 1427.44,816.95 1154.52,816.95 "/><g style="display: none;" class="rotateControl"><circle cx="1290.98164707755" cy="645.6909437871852" r="5" style="stroke : none; fill-opacity: 0.5; cursor:crosshair"/></g><g style="display: none;" class="ResizeNControl"><circle cx="0" cy="0" r="5" style="stroke : none; fill-opacity: 0.5"/></g><g style="display: none;" class="ResizeNEControl"><circle cx="0" cy="0" r="5" style="stroke : none; fill-opacity: 0.5"/></g><g style="display: none;" class="ResizeEControl"><circle cx="0" cy="0" r="5" style="stroke : none; fill-opacity: 0.5"/></g><g style="display: none;" class="ResizeSEControl"><circle cx="0" cy="0" r="5" style="stroke : none; fill-opacity: 0.5"/></g><g style="display: none;" class="ResizeSControl"><circle cx="0" cy="0" r="5" style="stroke : none; fill-opacity: 0.5"/></g><g style="display: none;" class="ResizeSWControl"><circle cx="0" cy="0" r="5" style="stroke : none; fill-opacity: 0.5"/></g><g style="display: none;" class="ResizeWControl"><circle cx="0" cy="0" r="5" style="stroke : none; fill-opacity: 0.5"/></g><g style="display: none;" class="ResizeNWControl"><circle cx="0" cy="0" r="5" style="stroke : none; fill-opacity: 0.5"/></g><g style="display: none;" class="removeControl"><polygon style="stroke : none; fill-opacity: 0.1"/></g><g style="display: none;" class="copyPasteControl"><polygon style="stroke : none; fill-opacity: 0.1"/></g><g style="display: none;" class="translateControl"><polygon style="stroke : none; fill-opacity: 0.1; cursor:move"/></g></g></g></g></g></svg>
