<?xml version="1.0"?>
<svg xmlns="http://www.w3.org/2000/svg" xmlns:xlink="http://www.w3.org/1999/xlink" height="733.309980392456" version="1.1" width="985.0924224853516" id="temp" viewBox="0 0 985.0924224853516 733.309980392456"><defs/><g id="Model" class="Model v1-1"><g class="Floor"><g id="Floor-1" class="Floorplan Floor-1"><g id="b339c5b6-b3cd-4228-9a5d-ca79a4d97323" fill="#ffffff" stroke="#000000" style="fill-opacity: 1; stroke-opacity: 1; stroke-width: 0.2;" class="Space Outdoor"><polygon points="510.24,585.26 730.96,585.26 730.96,733.31 509.87,733.31 510.24,585.26 "/><g transform="matrix(1,0,0,1,510.0541,585.256)" class="Dimension"><g transform="matrix(1,0,0,1,0,0)" style="display: none;" class="Visual"><g id="mark1" fill="#000000" stroke="none" transform="matrix(1,0,0,1,110.3598,0)" style="fill-opacity: 1; pointer-events: visible;" class="DimensionMark"><polygon points="-5,5,0,0,5,5"/></g><g id="mark2" fill="#000000" stroke="none" transform="matrix(1,0,0,1,220.9034,74.0253)" style="fill-opacity: 1; pointer-events: visible;" class="DimensionMark"><polygon points="-5,-5,0,0,-5,5"/></g><g id="mark3" fill="#000000" stroke="none" transform="matrix(1,0,0,1,110.3598,148.0496)" style="fill-opacity: 1; pointer-events: visible;" class="DimensionMark"><polygon points="-5,-5,0,0,5,-5"/></g><g id="mark4" fill="#000000" stroke="none" transform="matrix(1,0,0,1,0,74.0253)" style="fill-opacity: 1; pointer-events: visible;" class="DimensionMark"><polygon points="5,5,0,0,5,-5"/></g></g><g transform="matrix(1,0,0,1,110.4516,74.0453)" class="SpaceDimensionsLabel"><g id="NameLabel" style="display: block;" class="TextLabel NameLabel"><text x="0" y="0em" fill="#000000" stroke="none" style="font-family: Verdana; font-size: 33px; fill-opacity: 1; cursor: default;">ULKOTILA</text></g><g id="DimensionMeasureLabel" transform="matrix(1,0,0,1,-14.5703,40.375)" style="display: none;" class="TextLabel DimensionMeasureLabel"><text x="0" y="0em" fill="#000000" stroke="none" style="font-family: Verdana; font-size: 33px; fill-opacity: 1; cursor: default;">7'3" x 4'10"</text><text x="0" y="0"/></g></g></g></g><g id="2f3cfdb1-1b99-46cf-bb42-278ee9b12e03" fill="#ffffff" stroke="#ffffff" style="fill-opacity: 1; stroke-opacity: 1; stroke-width: 0.2;" class="Space Undefined"><polygon points="950.09,550.31 699.95,550.31 699.95,408.07 690.95,408.07 690.95,550.31 519.53,550.31 519.53,39.83 950.09,39.83 "/><g transform="matrix(1,0,0,1,519.5274,39.8309)" class="Dimension"><g transform="matrix(1,0,0,1,0,0)" style="display: none;" class="Visual"><g id="mark1" fill="#000000" stroke="none" transform="matrix(1,0,0,1,215.2825,0)" style="fill-opacity: 1; pointer-events: visible;" class="DimensionMark"><polygon points="-5,5,0,0,5,5"/></g><g id="mark2" fill="#000000" stroke="none" transform="matrix(1,0,0,1,430.5651,255.2391)" style="fill-opacity: 1; pointer-events: visible;" class="DimensionMark"><polygon points="-5,-5,0,0,-5,5"/></g><g id="mark3" fill="#000000" stroke="none" transform="matrix(1,0,0,1,215.2825,510.4782)" style="fill-opacity: 1; pointer-events: visible;" class="DimensionMark"><polygon points="-5,-5,0,0,5,-5"/></g><g id="mark4" fill="#000000" stroke="none" transform="matrix(1,0,0,1,0,255.2391)" style="fill-opacity: 1; pointer-events: visible;" class="DimensionMark"><polygon points="5,5,0,0,5,-5"/></g></g><g transform="matrix(1,0,0,1,241.3519,189.2132)" class="SpaceDimensionsLabel"><g id="NameLabel" style="display: block;" class="TextLabel NameLabel"><text x="0" y="0em" fill="#000000" stroke="none" style="font-family: Verdana; font-size: 33px; fill-opacity: 1; cursor: default;">UNDEFINED</text></g><g id="DimensionMeasureLabel" transform="matrix(1,0,0,1,-8.8281,39.8437)" style="display: none;" class="TextLabel DimensionMeasureLabel"><text x="0" y="0em" fill="#000000" stroke="none" style="font-family: Verdana; font-size: 33px; fill-opacity: 1; cursor: default;">14'2" x 16'9"</text><text x="0" y="0"/></g></g></g></g><g id="257d846a-9b6a-464e-9cf7-3a2181090f52" fill="#ffffff" stroke="#ffffff" style="fill-opacity: 1; stroke-opacity: 1; stroke-width: 0.2;" class="Space Undefined"><polygon points="297.31,358.33 150.14,358.33 150.14,39.83 297.31,39.83 "/><g transform="matrix(1,0,0,1,150.1373,39.8309)" class="Dimension"><g transform="matrix(1,0,0,1,0,0)" style="display: none;" class="Visual"><g id="mark1" fill="#000000" stroke="none" transform="matrix(1,0,0,1,73.586,0)" style="fill-opacity: 1; pointer-events: visible;" class="DimensionMark"><polygon points="-5,5,0,0,5,5"/></g><g id="mark2" fill="#000000" stroke="none" transform="matrix(1,0,0,1,147.1719,159.2517)" style="fill-opacity: 1; pointer-events: visible;" class="DimensionMark"><polygon points="-5,-5,0,0,-5,5"/></g><g id="mark3" fill="#000000" stroke="none" transform="matrix(1,0,0,1,73.586,318.5035)" style="fill-opacity: 1; pointer-events: visible;" class="DimensionMark"><polygon points="-5,-5,0,0,5,-5"/></g><g id="mark4" fill="#000000" stroke="none" transform="matrix(1,0,0,1,0,159.2517)" style="fill-opacity: 1; pointer-events: visible;" class="DimensionMark"><polygon points="5,5,0,0,5,-5"/></g></g><g transform="matrix(1,0,0,1,73.5859,159.2518)" class="SpaceDimensionsLabel"><g id="NameLabel" style="display: block;" class="TextLabel NameLabel"><text x="0" y="0em" fill="#000000" stroke="none" style="font-family: Verdana; font-size: 33px; fill-opacity: 1; cursor: default;">UNDEFINED</text></g><g id="DimensionMeasureLabel" transform="matrix(1,0,0,1,-8.8281,39.8437)" style="display: none;" class="TextLabel DimensionMeasureLabel"><text x="0" y="0em" fill="#000000" stroke="none" style="font-family: Verdana; font-size: 33px; fill-opacity: 1; cursor: default;">4'10" x 10'5"</text><text x="0" y="0"/></g></g></g></g><g id="832d1c5d-5daf-4750-a144-20a8390475c3" fill="#ffffff" stroke="#ffffff" style="fill-opacity: 1; stroke-opacity: 1; stroke-width: 0.2;" class="Space Undefined"><polygon points="510.53,540.44 321.00,540.44 321.00,390.55 321.31,390.55 321.31,249.53 510.53,249.53 "/><g transform="matrix(1,0,0,1,321.0006,249.5274)" class="Dimension"><g transform="matrix(1,0,0,1,0,0)" style="display: none;" class="Visual"><g id="mark1" fill="#000000" stroke="none" transform="matrix(1,0,0,1,94.7634,0)" style="fill-opacity: 1; pointer-events: visible;" class="DimensionMark"><polygon points="-5,5,0,0,5,5"/></g><g id="mark2" fill="#000000" stroke="none" transform="matrix(1,0,0,1,189.5268,145.4586)" style="fill-opacity: 1; pointer-events: visible;" class="DimensionMark"><polygon points="-5,-5,0,0,-5,5"/></g><g id="mark3" fill="#000000" stroke="none" transform="matrix(1,0,0,1,94.7634,290.9171)" style="fill-opacity: 1; pointer-events: visible;" class="DimensionMark"><polygon points="-5,-5,0,0,5,-5"/></g><g id="mark4" fill="#000000" stroke="none" transform="matrix(1,0,0,1,0,145.4586)" style="fill-opacity: 1; pointer-events: visible;" class="DimensionMark"><polygon points="5,5,0,0,5,-5"/></g></g><g transform="matrix(1,0,0,1,94.8381,145.5178)" class="SpaceDimensionsLabel"><g id="NameLabel" style="display: block;" class="TextLabel NameLabel"><text x="0" y="0em" fill="#000000" stroke="none" style="font-family: Verdana; font-size: 33px; fill-opacity: 1; cursor: default;">UNDEFINED</text></g><g id="DimensionMeasureLabel" transform="matrix(1,0,0,1,12.1485,39.8437)" style="display: none;" class="TextLabel DimensionMeasureLabel"><text x="0" y="0em" fill="#000000" stroke="none" style="font-family: Verdana; font-size: 33px; fill-opacity: 1; cursor: default;">6'3" x 9'7"</text><text x="0" y="0"/></g></g></g></g><g id="c52eeab5-10d8-4efd-899c-5b570c47d63b" fill="#ffffff" stroke="#ffffff" style="fill-opacity: 1; stroke-opacity: 1; stroke-width: 0.2;" class="Space Undefined"><polygon points="510.53,240.53 321.31,240.53 321.31,48.36 510.53,48.36 "/><g transform="matrix(1,0,0,1,321.3092,48.3641)" class="Dimension"><g transform="matrix(1,0,0,1,0,0)" style="display: none;" class="Visual"><g id="mark1" fill="#000000" stroke="none" transform="matrix(1,0,0,1,94.6091,0)" style="fill-opacity: 1; pointer-events: visible;" class="DimensionMark"><polygon points="-5,5,0,0,5,5"/></g><g id="mark2" fill="#000000" stroke="none" transform="matrix(1,0,0,1,189.2181,96.0817)" style="fill-opacity: 1; pointer-events: visible;" class="DimensionMark"><polygon points="-5,-5,0,0,-5,5"/></g><g id="mark3" fill="#000000" stroke="none" transform="matrix(1,0,0,1,94.6091,192.1634)" style="fill-opacity: 1; pointer-events: visible;" class="DimensionMark"><polygon points="-5,-5,0,0,5,-5"/></g><g id="mark4" fill="#000000" stroke="none" transform="matrix(1,0,0,1,0,96.0817)" style="fill-opacity: 1; pointer-events: visible;" class="DimensionMark"><polygon points="5,5,0,0,5,-5"/></g></g><g transform="matrix(1,0,0,1,94.609,94.6091)" class="SpaceDimensionsLabel"><g id="NameLabel" style="display: block;" class="TextLabel NameLabel"><text x="0" y="0em" fill="#000000" stroke="none" style="font-family: Verdana; font-size: 33px; fill-opacity: 1; cursor: default;">UNDEFINED</text></g><g id="DimensionMeasureLabel" transform="matrix(1,0,0,1,12.1485,39.8437)" style="display: none;" class="TextLabel DimensionMeasureLabel"><text x="0" y="0em" fill="#000000" stroke="none" style="font-family: Verdana; font-size: 33px; fill-opacity: 1; cursor: default;">6'2" x 6'4"</text><text x="0" y="0"/></g></g></g></g><g id="df51df59-ba8a-464a-b5de-f6d20160b116" fill="#ffffff" stroke="#ffffff" style="fill-opacity: 1; stroke-opacity: 1; stroke-width: 0.2;" class="Space Undefined"><polygon points="286.02,569.08 131.99,569.08 131.99,390.57 150.14,390.55 286.27,390.55 "/><g transform="matrix(1,0,0,1,131.9903,390.5454)" class="Dimension"><g transform="matrix(1,0,0,1,0,0)" style="display: none;" class="Visual"><g id="mark1" fill="#000000" stroke="none" transform="matrix(1,0,0,1,77.1376,0)" style="fill-opacity: 1; pointer-events: visible;" class="DimensionMark"><polygon points="-5,5,0,0,5,5"/></g><g id="mark2" fill="#000000" stroke="none" transform="matrix(1,0,0,1,154.1537,89.2667)" style="fill-opacity: 1; pointer-events: visible;" class="DimensionMark"><polygon points="-5,-5,0,0,-5,5"/></g><g id="mark3" fill="#000000" stroke="none" transform="matrix(1,0,0,1,77.1376,178.5338)" style="fill-opacity: 1; pointer-events: visible;" class="DimensionMark"><polygon points="-5,-5,0,0,5,-5"/></g><g id="mark4" fill="#000000" stroke="none" transform="matrix(1,0,0,1,0,89.2667)" style="fill-opacity: 1; pointer-events: visible;" class="DimensionMark"><polygon points="5,5,0,0,5,-5"/></g></g><g transform="matrix(1,0,0,1,77.0775,89.2443)" class="SpaceDimensionsLabel"><g id="NameLabel" style="display: block;" class="TextLabel NameLabel"><text x="0" y="0em" fill="#000000" stroke="none" style="font-family: Verdana; font-size: 33px; fill-opacity: 1; cursor: default;">UNDEFINED</text></g><g id="DimensionMeasureLabel" transform="matrix(1,0,0,1,1.664,39.8437)" style="display: none;" class="TextLabel DimensionMeasureLabel"><text x="0" y="0em" fill="#000000" stroke="none" style="font-family: Verdana; font-size: 33px; fill-opacity: 1; cursor: default;">5'1" x 5'10"</text><text x="0" y="0"/></g></g></g></g><g id="Wall" fill="#000000" stroke="#000000" style="fill-opacity: 1; stroke-opacity: 1; stroke-width: 0.2;" class="Wall External"><polygon points="950.09,39.83 950.09,550.31 985.09,585.31 985.09,22.83 "/><g id="Window" fill="#f0f0ff" stroke="#000000" style="fill-opacity: 1; stroke-width: 1; stroke-opacity: 1;" class="Window Regular"><polygon points="950.09,256.12 950.09,376.75 985.09,376.75 985.09,256.12 "/><g id="Glass" class="Glass"><polygon points="950.09,256.12 950.09,376.75 985.09,376.75 985.09,256.12 "/></g><g id="Panel" class="Panel"><line x1="967.592428941206" x2="967.5924289412059" y1="263.62335336640643" y2="369.25122417706154"/><line x1="950.092428941206" x2="985.092428941206" y1="263.62335336640643" y2="263.62335336640643"/><line x1="950.0924289412059" x2="985.0924289412059" y1="369.25122417706154" y2="369.25122417706154"/></g></g></g><g id="Wall" fill="#000000" stroke="#000000" style="fill-opacity: 1; stroke-opacity: 1; stroke-width: 0.2;" class="Wall External"><polygon points="286.02,569.08 131.99,569.08 115.14,585.31 321.00,585.31 "/><g id="Door" fill="#ffffff" stroke="#000000" style="fill-opacity: 1; stroke-width: 1; stroke-opacity: 1;" class="Door Swing Beside"><polygon points="271.04,569.08 190.29,569.08 190.29,585.31 271.04,585.31 "/><g id="Threshold" class="Threshold"><polygon points="271.04,569.08 190.29,569.08 190.29,585.31 271.04,585.31 "/></g><g id="Panel" fill="none" style="" class="Panel Right Positive"><g id="PanelArea" fill="none" stroke="none" style="" class="PanelArea"><polygon points="271.04,569.08 190.29,569.08 190.29,585.31 271.04,585.31 "/></g><path d="M271.04,585.31 q0.00,80.75 -80.75,80.75 l0.00,-80.75Z"/></g></g></g><g id="Wall" fill="#000000" stroke="#000000" style="fill-opacity: 1; stroke-opacity: 1; stroke-width: 0.2;" class="Wall External"><polygon points="115.14,585.31 115.14,390.57 131.99,390.57 131.99,569.08 "/></g><g id="Wall" fill="#000000" stroke="#000000" style="fill-opacity: 1; stroke-opacity: 1; stroke-width: 0.2;" class="Wall External"><polygon points="115.14,390.57 115.14,22.83 150.14,39.83 150.14,390.57 "/><g id="Door" fill="#ffffff" stroke="#000000" style="fill-opacity: 1; stroke-width: 1; stroke-opacity: 1;" class="Door Swing Beside"><polygon points="115.14,346.47 115.14,256.63 150.14,256.63 150.14,346.47 "/><g id="Threshold" class="Threshold"><polygon points="115.14,346.47 115.14,256.63 150.14,256.63 150.14,346.47 "/></g><g id="Panel" fill="none" style="" class="Panel Right Negative"><g id="PanelArea" fill="none" stroke="none" style="" class="PanelArea"><polygon points="115.14,346.47 115.14,256.63 150.14,256.63 150.14,346.47 "/></g><path d="M115.14,256.63 q-89.84,0.00 -89.84,89.84 l89.84,0.00Z"/></g></g></g><g id="Wall" fill="#000000" stroke="#000000" style="fill-opacity: 1; stroke-opacity: 1; stroke-width: 0.2;" class="Wall"><polygon points="150.14,390.55 321.31,390.55 297.31,358.33 150.14,358.33 "/></g><g id="Wall" fill="#000000" stroke="#000000" style="fill-opacity: 1; stroke-opacity: 1; stroke-width: 0.2;" class="Wall"><polygon points="286.27,390.55 286.02,569.08 321.00,585.31 321.31,358.33 "/></g><g id="Wall" fill="#000000" stroke="#000000" style="fill-opacity: 1; stroke-opacity: 1; stroke-width: 0.2;" class="Wall"><polygon points="321.31,390.55 321.31,22.83 297.31,39.83 297.31,358.33 "/></g><g id="Wall" fill="#000000" stroke="#000000" style="fill-opacity: 1; stroke-opacity: 1; stroke-width: 0.2;" class="Wall"><polygon points="519.53,22.83 519.53,540.44 510.53,540.44 510.53,39.83 "/><g id="Door" fill="#ffffff" stroke="#000000" style="fill-opacity: 1; stroke-width: 1; stroke-opacity: 1;" class="Door Swing Beside"><polygon points="519.53,352.02 519.53,431.77 510.53,431.77 510.53,352.02 "/><g id="Threshold" class="Threshold"><polygon points="519.53,352.02 519.53,431.77 510.53,431.77 510.53,352.02 "/></g><g id="Panel" fill="none" style="" class="Panel Left Negative"><g id="PanelArea" fill="none" stroke="none" style="" class="PanelArea"><polygon points="519.53,352.02 519.53,431.77 510.53,431.77 510.53,352.02 "/></g><path d="M519.53,352.02 q79.75,0.00 79.75,79.75 l-79.75,0.00Z"/></g></g></g><g id="Wall" fill="#000000" stroke="#000000" style="fill-opacity: 1; stroke-opacity: 1; stroke-width: 0.2;" class="Wall"><polygon points="297.31,249.53 519.53,249.53 519.53,240.53 297.31,240.53 "/><g id="Door" fill="#ffffff" stroke="#000000" style="fill-opacity: 1; stroke-width: 1; stroke-opacity: 1;" class="Door Swing Beside"><polygon points="421.45,249.53 504.73,249.53 504.73,240.53 421.45,240.53 "/><g id="Threshold" class="Threshold"><polygon points="421.45,249.53 504.73,249.53 504.73,240.53 421.45,240.53 "/></g><g id="Panel" fill="none" style="" class="Panel Left Negative"><g id="PanelArea" fill="none" stroke="none" style="" class="PanelArea"><polygon points="421.45,249.53 504.73,249.53 504.73,240.53 421.45,240.53 "/></g><path d="M421.45,249.53 q0.00,83.28 83.28,83.28 l0.00,-83.28Z"/></g></g></g><g id="Wall" fill="#000000" stroke="#000000" style="fill-opacity: 1; stroke-opacity: 1; stroke-width: 0.2;" class="Wall"><polygon points="699.95,408.07 699.95,585.31 690.95,585.31 690.95,408.07 "/></g><g id="Wall" fill="#000000" stroke="#000000" style="fill-opacity: 1; stroke-opacity: 1; stroke-width: 0.2;" class="Wall External"><polygon points="150.14,39.83 297.31,39.83 297.31,22.83 115.14,22.83 "/></g><g id="Wall" fill="#000000" stroke="#000000" style="fill-opacity: 1; stroke-opacity: 1; stroke-width: 0.2;" class="Wall External"><polygon points="297.31,48.36 510.53,48.36 510.53,22.83 297.31,22.83 "/></g><g id="Wall" fill="#000000" stroke="#000000" style="fill-opacity: 1; stroke-opacity: 1; stroke-width: 0.2;" class="Wall External"><polygon points="510.53,39.83 950.09,39.83 985.09,22.83 510.53,22.83 "/></g><g id="FixedFurnitureSet" transform="matrix(1,0,0,1,321.3092,48.4422)" class="FixedFurnitureSet" fill="#ffffff" stroke="#fc0fc0" style="fill-opacity: 0.4; stroke-opacity: 0.9; stroke-width: 1.5;"><g class="FixedFurniture SaunaBenchHigh" fill="#ffffff" stroke="#000000" transform="matrix(1,0,0,1,0,0)" style="fill-opacity: 1; stroke-opacity: 1; stroke-width: 1;">
        <g class="BoundaryPolygon">
            <polygon points="0.00,0.00 187.86,0.00 187.86,55.50 0.00,55.50 "/>
        </g>
        <g class="Bench" stroke="#9a9a9a" stroke-width="0.5">
            <line x1="0" y1="3.700140080188925" x2="187.86389649975814" y2="3.700140080188925"/>
            <line x1="0" y1="7.40028016037785" x2="187.86389649975814" y2="7.40028016037785"/>
            <line x1="0" y1="11.100420240566773" x2="187.86389649975814" y2="11.100420240566773"/>
            <line x1="0" y1="14.8005603207557" x2="187.86389649975814" y2="14.8005603207557"/>
            <line x1="0" y1="18.500700400944634" x2="187.86389649975814" y2="18.500700400944634"/>
            <line x1="0" y1="22.200840481133547" x2="187.86389649975814" y2="22.200840481133547"/>
            <line x1="0" y1="25.900980561322484" x2="187.86389649975814" y2="25.900980561322484"/>
            <line x1="0" y1="29.6011206415114" x2="187.86389649975814" y2="29.6011206415114"/>
            <line x1="0" y1="33.30126072170035" x2="187.86389649975814" y2="33.30126072170035"/>
            <line x1="0" y1="37.00140080188927" x2="187.86389649975814" y2="37.00140080188927"/>
            <line x1="0" y1="40.70154088207819" x2="187.86389649975814" y2="40.70154088207819"/>
            <line x1="0" y1="44.40168096226709" x2="187.86389649975814" y2="44.40168096226709"/>
            <line x1="0" y1="48.10182104245604" x2="187.86389649975814" y2="48.10182104245604"/>
            <line x1="0" y1="51.80196112264497" x2="187.86389649975814" y2="51.80196112264497"/>
        </g>
        <g class="Direction" fill-opacity="0.9" style="display: none;">
            <polygon points="96.89,50.56 96.89,39.94 93.88,39.94 93.88,50.56 90.07,50.56 95.38,55.86 100.68,50.56 96.89,50.56 " fill="#444444"/>
        </g> 
        <g class="Name" fill-opacity="0.9" style="display: none;">
            <text transform="translate(3 12)" font-size="12" font-family="Verdana, Sans-Serif">SB_HIGH</text>
        </g>
        <desc>Width:185 Height:5 Depth:60 Elevation:105</desc>
    </g><g class="FixedFurniture SaunaBenchMid" fill="#ffffff" stroke="#000000" transform="matrix(1,0,0,1,0,55.5021)" style="fill-opacity: 1; stroke-opacity: 1; stroke-width: 1;">
        <g class="BoundaryPolygon">
            <polygon points="0.00,0.00 187.86,0.00 187.86,37.00 0.00,37.00 "/>
        </g>
        <g class="Bench" stroke="#9a9a9a" stroke-width="0.5">
            <line x1="0" y1="3.700140080188925" x2="187.86389649975814" y2="3.700140080188925"/>
            <line x1="0" y1="7.40028016037785" x2="187.86389649975814" y2="7.40028016037785"/>
            <line x1="0" y1="11.100420240566773" x2="187.86389649975814" y2="11.100420240566773"/>
            <line x1="0" y1="14.8005603207557" x2="187.86389649975814" y2="14.8005603207557"/>
            <line x1="0" y1="18.500700400944634" x2="187.86389649975814" y2="18.500700400944634"/>
            <line x1="0" y1="22.200840481133547" x2="187.86389649975814" y2="22.200840481133547"/>
            <line x1="0" y1="25.900980561322484" x2="187.86389649975814" y2="25.900980561322484"/>
            <line x1="0" y1="29.6011206415114" x2="187.86389649975814" y2="29.6011206415114"/>
            <line x1="0" y1="33.30126072170035" x2="187.86389649975814" y2="33.30126072170035"/>
        </g>
        <g class="Direction" fill-opacity="0.9" style="display: none;">
            <polygon points="95.46,32.06 95.46,21.44 92.46,21.44 92.46,32.06 88.65,32.06 93.96,37.36 99.26,32.06 95.46,32.06 " fill="#444444"/>
        </g> 
        <g class="Name" fill-opacity="0.9" style="display: none;">
            <text transform="translate(3 12)" font-size="12" font-family="Verdana, Sans-Serif">SB_MID</text>
        </g>
        <desc>Width:185 Height:5 Depth:40 Elevation:60</desc>
    </g><g class="FixedFurniture SaunaBenchLow" transform="matrix(1,0,0,1,95.4552,92.5035)" fill="#ffffff" stroke="#000000" style="fill-opacity: 1; stroke-opacity: 1; stroke-width: 1;">
        <g class="BoundaryPolygon" fill="#ffffff" stroke="#000000">
            <polygon points="0.00,0.00 92.41,0.00 92.41,37.00 0.00,37.00 "/>
        </g>
        <g class="Bench" stroke="#9a9a9a" stroke-width="0.5">
            <line x1="0" y1="3.700140080188925" x2="92.4087274674486" y2="3.700140080188925"/>
            <line x1="0" y1="7.40028016037785" x2="92.4087274674486" y2="7.40028016037785"/>
            <line x1="0" y1="11.100420240566773" x2="92.4087274674486" y2="11.100420240566773"/>
            <line x1="0" y1="14.8005603207557" x2="92.4087274674486" y2="14.8005603207557"/>
            <line x1="0" y1="18.500700400944634" x2="92.4087274674486" y2="18.500700400944634"/>
            <line x1="0" y1="22.200840481133547" x2="92.4087274674486" y2="22.200840481133547"/>
            <line x1="0" y1="25.900980561322484" x2="92.4087274674486" y2="25.900980561322484"/>
            <line x1="0" y1="29.6011206415114" x2="92.4087274674486" y2="29.6011206415114"/>
            <line x1="0" y1="33.30126072170035" x2="92.4087274674486" y2="33.30126072170035"/>
        </g>
        <g class="Direction" fill-opacity="0.9" style="display: none;">
            <polygon points="47.79,32.06 47.79,21.44 44.78,21.44 44.78,32.06 40.98,32.06 46.28,37.36 51.58,32.06 47.79,32.06 " fill="#444444"/>
        </g> 
        <g class="Name" fill-opacity="0.9" style="display: none;">
            <text transform="translate(3 12)" font-size="12" font-family="Verdana, Sans-Serif">SB_LOW</text>
        </g>
        <desc>Width:91 Height:5 Depth:40 Elevation:30</desc>
    </g></g><g class="FixedFurniture ElectricalAppliance SaunaStove" fill="#ffffff" stroke="#000000" transform="matrix(-1,0,0,-1.127,390.7552,232.7754)" style="fill-opacity: 1; stroke-opacity: 1; stroke-width: 1;"> 
	   <g class="BoundaryPolygon"> 
		    <polygon points="0,0 60,0 60,35 0,35"/>
		</g>
	    <g class="electricitySign" fill="none">
		    <polyline points="0 35 39.7 17.5 21.4 17.5 60 0"/>
		</g>
        <g class="Direction" fill-opacity="0.9" style="display: none;">
            <polygon points="31.509 29.697 31.509 19.081 28.5 19.081 28.5 29.697 24.697 29.697 30 35 35.303 29.697 31.509 29.697" fill="#444444"/>
        </g> 
        <g class="Name" fill-opacity="0.9" style="display: none;">
            <text transform="translate(3 12)" font-size="12" font-family="Verdana, Sans-Serif">SS</text>
        </g>
        <desc>Width:60 Height:60 Depth:35 Elevation:20</desc>
	</g><g class="FixedFurniture ShowerScreen" fill="#ffffff" stroke="#000000" transform="matrix(1,0,0,0.8833,408.6629,249.5275)" style="fill-opacity: 1; stroke-opacity: 1; stroke-width: 1;">
        <g class="BoundaryPolygon">
            <polygon points="0,0 2.5,0 2.5,60 0,60"/>
        </g>
	    <g class="InnerPolygon" stroke-linejoin="round"> 
			<rect width="2.5" height="60"/>
	    </g> 
        <desc>Width:2.5 Height:180 Depth:60 Elevation:135</desc>
    </g><g class="FixedFurniture ShowerScreen" fill="#ffffff" stroke="#000000" transform="matrix(1,0,0,0.8833,406.1629,264.6189)" style="fill-opacity: 1; stroke-opacity: 1; stroke-width: 1;">
        <g class="BoundaryPolygon">
            <polygon points="0,0 2.5,0 2.5,60 0,60"/>
        </g>
	    <g class="InnerPolygon" stroke-linejoin="round"> 
			<rect width="2.5" height="60"/>
	    </g> 
        <desc>Width:2.5 Height:180 Depth:60 Elevation:135</desc>
    </g><g class="FixedFurniture ShowerScreen" fill="#ffffff" stroke="#000000" transform="matrix(0,-1,0.8833,0,321.3093,340.5532)" style="fill-opacity: 1; stroke-opacity: 1; stroke-width: 1;">
        <g class="BoundaryPolygon">
            <polygon points="0,0 2.5,0 2.5,60 0,60"/>
        </g>
	    <g class="InnerPolygon" stroke-linejoin="round"> 
			<rect width="2.5" height="60"/>
	    </g> 
        <desc>Width:2.5 Height:180 Depth:60 Elevation:135</desc>
    </g><g class="FixedFurniture ShowerScreen" fill="#ffffff" stroke="#000000" transform="matrix(0,-1,0.8833,0,338.3099,338.0532)" style="fill-opacity: 1; stroke-opacity: 1; stroke-width: 1;">
        <g class="BoundaryPolygon">
            <polygon points="0,0 2.5,0 2.5,60 0,60"/>
        </g>
	    <g class="InnerPolygon" stroke-linejoin="round"> 
			<rect width="2.5" height="60"/>
	    </g> 
        <desc>Width:2.5 Height:180 Depth:60 Elevation:135</desc>
    </g><g class="FixedFurniture Shower" fill="#ffffff" stroke="#000000" transform="matrix(1,0,0,1,348.9813,249.5275)" style="fill-opacity: 1; stroke-opacity: 1; stroke-width: 1;"> 
	    <g class="BoundaryPolygon" fill="none" stroke="none">
            <polygon points="0,0 32,0 32,19 0,19"/>
        </g>
        <g class="InnerPolygon"> 
			<rect x="3.7" y="0.5" width="11.2" height="6.1"/>
			<rect x="17.6" y="0.5" width="11.2" height="6.1"/>
			<rect x="28.7" y="0.5" width="3.4" height="6.1"/>
			<rect x="0.5" y="0.5" width="3.2" height="6.1"/>
			<path d="M14.9,8.5c0,1.5-0.4,3.3-1.6,5    c-0.4,0.6-1,1.1-1.1,1.7c-0.2,1.1,0.3,2.8,2.5,3.2c0.5,0.1,1.3,0.1,1.6,0.1h-0.1c0.3,0,1.1,0,1.6-0.1c2.2-0.4,2.7-2.1,2.5-3.2    c-0.1-0.6-0.7-1.1-1.1-1.7c-1.2-1.7-1.6-3.5-1.6-5"/>
			<path d="M12.2,15.3c0.1,0.2,1.6,1.9,4.2,1.9 c2.4-0.1,3.7-1.7,3.9-1.9"/>
			<path d="M14.9,0.5h2.7v8c-0.9,0-1.8,0-2.7,0l0,0 C14.9,5.9,14.9,3.2,14.9,0.5z"/>
		</g>
	    <g class="Indicator"> 
			<path d="M3.7,3.6C5,3.1,5.2,3,5.2,3 c0,1.1,0,0,0,1.1C5.2,4.1,5.1,4.1,3.7,3.6"/>
			<path d="M28.7,3.6 C27.4,3.1,27.2,3,27.2,3c0,1.1,0,0,0,1.1C27.2,4.1,27.3,4.1,28.7,3.6"/>	
		</g>
        <desc>Width:32 Height:97 Depth:19 Elevation:135</desc>
	</g><g class="FixedFurniture Toilet" fill="#ffffff" stroke="#000000" transform="matrix(0,-1,0.9328,0,333.2586,412.1345)" style="fill-opacity: 1; stroke-opacity: 1; stroke-width: 1;">
	   <g class="BoundaryPolygon" fill="none" stroke="none"> 
            <polygon points="0,0 41,0 41,71 0,71"/>
		</g>
        <g class="InnerPolygon">
            <rect x="0.502" y="0.5" width="39.989" height="17.98"/>
            <path d="M40.491,44.237S41.619,70.5,20.907,70.5C-.523,70.5.6,44.237.6,44.237L.5,18.48H40.491Z"/>
            <rect x="17.318" y="7.975" width="6.357" height="3.03"/>
        </g>
        <desc>Width:41 Height:85 Depth:71 Elevation:0</desc>
    </g><g class="FixedFurniture BaseCabinet" fill="#ffffff" stroke="#000000" transform="matrix(-1,0,0,-1,509.3425,540.3664)" style="fill-opacity: 1; stroke-opacity: 1; stroke-width: 1;">
        <g class="BoundaryPolygon">
            <polygon points="0.00,0.00 188.24,0.00 188.24,60.00 0.00,60.00 "/>
        </g>
        <g class="Direction" fill-opacity="0.9" style="display: none;">
            <polygon points="100.42,55.20 100.42,44.58 97.41,44.58 97.41,55.20 93.61,55.20 98.91,60.00 104.22,55.20 100.42,55.20 " fill="#444444"/>
        </g> 
        <g class="Name" fill-opacity="0.9" style="display: none;">
            <text transform="translate(3 12)" font-size="12" font-family="Verdana, Sans-Serif">CB</text>
        </g>
        <desc>Width:60 Height:90 Depth:60 Elevation:0</desc>
    </g><g id="Wall" fill="#000000" stroke="#000000" style="fill-opacity: 1; stroke-opacity: 1; stroke-width: 0.2;" class="Wall External"><polygon points="950.09,550.31 519.53,550.31 519.53,585.31 985.09,585.31 "/><g id="Window" fill="#f0f0ff" stroke="#000000" style="fill-opacity: 1; stroke-width: 1; stroke-opacity: 1;" class="Window Regular"><polygon points="822.70,550.31 763.65,550.31 763.65,585.31 822.70,585.31 "/><g id="Glass" class="Glass"><polygon points="822.70,550.31 763.65,550.31 763.65,585.31 822.70,585.31 "/></g><g id="Panel" class="Panel"><line x1="815.1995974633264" x2="771.1474598698258" y1="567.8091163124992" y2="567.8091163124992"/><line x1="815.1995974633264" x2="815.1995974633264" y1="550.3091163124992" y2="585.3091163124992"/><line x1="771.1474598698258" x2="771.1474598698258" y1="550.3091163124992" y2="585.3091163124992"/></g></g><g id="Door" fill="#ffffff" stroke="#000000" style="fill-opacity: 1; stroke-width: 1; stroke-opacity: 1;" class="Door Swing Beside"><polygon points="623.84,550.31 535.51,550.31 535.51,585.31 623.84,585.31 "/><g id="Threshold" class="Threshold"><polygon points="623.84,550.31 535.51,550.31 535.51,585.31 623.84,585.31 "/></g><g id="Panel" fill="none" style="" class="Panel Right Positive"><g id="PanelArea" fill="none" stroke="none" style="" class="PanelArea"><polygon points="623.84,550.31 535.51,550.31 535.51,585.31 623.84,585.31 "/></g><path d="M623.84,585.31 q0.00,88.33 -88.33,88.33 l0.00,-88.33Z"/></g></g></g><g id="Wall" fill="#000000" stroke="#000000" style="fill-opacity: 1; stroke-opacity: 1; stroke-width: 0.2;" class="Wall External"><polygon points="519.53,540.44 286.05,540.44 286.05,585.31 519.53,585.31 "/><g id="Window" fill="#f0f0ff" stroke="#000000" style="fill-opacity: 1; stroke-width: 1; stroke-opacity: 1;" class="Window Regular"><polygon points="492.11,540.44 411.86,540.44 411.86,585.31 492.11,585.31 "/><g id="Glass" class="Glass"><polygon points="492.11,540.44 411.86,540.44 411.86,585.31 492.11,585.31 "/></g><g id="Panel" class="Panel"><line x1="484.60856691396793" x2="419.3582260817749" y1="562.876850118472" y2="562.876850118472"/><line x1="484.60856691396793" x2="484.60856691396793" y1="540.4445839244443" y2="585.3091163124998"/><line x1="419.3582260817749" x2="419.3582260817749" y1="540.4445839244443" y2="585.3091163124998"/></g></g></g><g class="FixedFurniture RoundSink" fill="#ffffff" stroke="#000000" transform="matrix(-1.2391,0,0,-0.9283,414.5382,534.3895)" style="fill-opacity: 1; stroke-opacity: 1; stroke-width: 1;">
        <g class="BoundaryPolygon" fill="none" stroke="none">
            <polygon points="0,0 46,0 46,50 0,50"/>
        </g>
        <g class="InnerPolygon">
            <circle cx="23" cy="27" r="23"/>
        </g>
        <g class="OuterDrain">
            <circle cx="23" cy="27" r="3.5"/>
        </g>
        <g class="InnerDrain">
            <circle cx="23" cy="27" r="2"/>
        </g>
        <g class="Faucet">
            <polygon points="20 0 26 0 26 14 20 14 20 0"/>
        </g>
        <g class="Name" fill-opacity="0.9" style="display: none;">
            <text transform="translate(6.5 24.5)" font-size="12" font-family="Verdana, Sans-Serif">SINK</text>
        </g>
        <desc>Width:46 Height:90 Depth:50 Elevation:60</desc>
    </g><g class="FixedFurniture WallCabinet" fill="#ffffff" stroke="#000000" transform="matrix(-1,0,0,-1,451.6325,540.3664)" style="fill-opacity: 0.7; stroke-opacity: 1; stroke-width: 1.5;">	
        <g class="BoundaryPolygon">
            <polygon points="0.00,0.00 130.53,0.00 130.53,30.00 0.00,30.00 "/>
        </g>
        <g class="Direction" fill-opacity="0.9" style="display: none;">
            <polygon points="69.63,25.20 69.63,14.58 66.63,14.58 66.63,25.20 62.82,25.20 68.13,30.00 73.43,25.20 69.63,25.20 " fill="#444444"/>
        </g> 
        <g class="Name" fill-opacity="0.9" style="display: none;">
            <text transform="translate(3 12)" font-size="12" font-family="Verdana, Sans-Serif">UC</text>
        </g>
        <desc>Width:60 Height:60 Depth:30 Elevation:140</desc>
    </g><g class="FixedFurniture ElectricalAppliance SpaceForAppliance2" fill="#ffffff" stroke="#000000" stroke-dasharray="4,4" transform="matrix(-0.9283,0,0,-1,507.3305,540.304)" style="fill-opacity: 1; stroke-opacity: 1; stroke-width: 1;">
	    <g class="BoundaryPolygon"> 
		    <polygon points="0,0 60,0 60,60 0,60"/>
		</g>	
	    <g class="electricitySign" fill="none">
            <path d="M0,0,30.1,39.8V19.4L59.9,60"/>
		</g>
        <g class="Direction" fill-opacity="0.9" style="display: none;">
            <polygon points="32.009 55.197 32.009 44.581 29 44.581 29 55.197 25.197 55.197 30.5 60 35.803 55.197 32.009 55.197" fill="#444444"/>
        </g> 
        <g class="Name" fill-opacity="0.9" stroke-dasharray="none" style="display: none;">
            <text transform="translate(3 12)" font-size="12" font-family="Verdana, Sans-Serif">SFA</text>
        </g>
        <desc>Width:60 Height:90 Depth:60 Elevation:0</desc>
	</g><g class="FixedFurniture Closet" fill="#ffffff" stroke="#000000" transform="matrix(0,1,-1,0,690.9482,500.2891)" style="fill-opacity: 1; stroke-opacity: 1; stroke-width: 1;">
        <g class="BoundaryPolygon">
            <polygon points="0.00,0.00 50.02,0.00 50.02,60.00 0.00,60.00 "/>
        </g>
        <g class="Direction" fill-opacity="0.9" style="display: none;">
            <polygon points="26.27,54.70 26.27,44.08 23.26,44.08 23.26,54.70 19.46,54.70 24.76,60.00 30.06,54.70 26.27,54.70 " fill="#444444"/>
        </g> 
        <g class="Name" fill-opacity="0.9" style="display: none;">
            <text transform="translate(3 12)" font-size="12" font-family="Verdana, Sans-Serif">CL</text>
        </g>
        <desc>Width:60 Height:200 Depth:60 Elevation:0</desc>
     </g><g class="FixedFurniture CoatCloset" fill="#ffffff" stroke="#000000" transform="matrix(0,1,-1,0,690.9482,450.2642)" style="fill-opacity: 1; stroke-opacity: 1; stroke-width: 1;">
        <g class="BoundaryPolygon">
            <polygon points="0.00,0.00 50.02,0.00 50.02,60.00 0.00,60.00 "/>
        </g>
        <g class="Hanger" stroke="#9a9a9a" stroke-dasharray="5,5">
            <line x1="0" y1="30" x2="50.02493058683176" y2="30"/>
        </g>
        <g class="Direction" fill-opacity="0.9" style="display: none;">
            <polygon points="26.27,54.70 26.27,44.08 23.26,44.08 23.26,54.70 19.46,54.70 24.76,60.00 30.06,54.70 26.27,54.70 " fill="#444444"/>
        </g> 
        <g class="Name" fill-opacity="0.9" style="display: none;">
            <text transform="translate(3 12)" font-size="12" font-family="Verdana, Sans-Serif">CWH</text>
        </g>
        <desc>Width:60 Height:200 Depth:60 Elevation:0</desc>
     </g><g class="FixedFurniture ElectricalAppliance Refrigerator" fill="#ffffff" stroke="#000000" transform="matrix(0,-1,1,0,519.5273,300.1842)" style="fill-opacity: 1; stroke-opacity: 1; stroke-width: 1;">
        <g class="BoundaryPolygon">
            <polygon points="0,0 60,0 60,60 0,60"/>
        </g>
        <g class="electricitySign" fill="none" style="display: block;">
            <path d="M0,0,30,37.1v-18L60,56.3"/>
        </g>
        <g class="Doors">
            <rect y="56" width="60" height="4"/>
        </g>
        <g class="Direction" fill-opacity="0.9" style="display: none;">
            <polygon points="32.009 55.197 32.009 44.581 29 44.581 29 55.197 25.197 55.197 30.5 60 35.803 55.197 32.009 55.197" fill="#444444"/>
        </g> 
        <g class="Name" fill-opacity="0.9" style="display: none;">
            <text transform="translate(3 12)" font-size="12" font-family="Verdana, Sans-Serif">REF</text>
        </g>
        <desc>Width:60 Height:170 Depth:60 Elevation:0</desc>
    </g><g transform="matrix(1,0,0,1,579.5873,241.3009)" class="FixedFurniture BaseCabinet" fill="#ffffff" stroke="#000000" style="fill-opacity: 1; stroke-opacity: 1; stroke-width: 1;"><desc>Width:60 Height:90 Depth:60 Elevation:0</desc><g class="BoundaryPolygon"><polygon points="0.00,0.00 0.00,-140.62 90.61,-140.62 90.61,-201.47 -59.29,-201.47 -60.06,0.00 0.00,0.00 "/></g></g><g class="FixedFurniture DoubleSinkRight" fill="#ffffff" stroke="#000000" transform="matrix(0,-1,1,0,519.5274,184.3986)" style="fill-opacity: 1; stroke-opacity: 1; stroke-width: 1;">
        <g class="BoundaryPolygon" fill="none" stroke="none">
            <polygon points="0.00,0.00 61.17,0.00 61.17,57.30 0.00,57.30 0.00,0.00 "/>
        </g>
        <g class="InnerPolygonLeft">
            <polygon points="4.37,9.90 21.85,9.90 21.85,52.43 4.37,52.43 "/>
        </g>
        <g class="InnerPolygonRight">
            <polygon points="24.47,10.00 56.80,10.00 56.80,52.53 24.47,52.53 "/>
        </g>
        <g class="OuterDrain" stroke-width="0.8">
            <circle cx="13.10843159556216" cy="31.03901240248644" r="3.5"/>
            <circle cx="40.19919022639063" cy="31.03901240248644" r="3.5"/>
        </g>
        <g class="InnerDrain" stroke-width="0.8">
            <circle cx="13.10843159556216" cy="31.03901240248644" r="2"/>
            <circle cx="40.19919022639063" cy="31.03901240248644" r="2"/>
        </g>
        <g class="Faucet">
            <polygon points="27.96,4.68 33.96,4.68 33.96,18.68 27.96,18.68 "/>
        </g>
        <g class="Direction" fill-opacity="0.9" style="display: none;">
            <polygon points="31.91,52.24 31.91,41.62 28.90,41.62 28.90,52.24 25.09,52.24 30.40,57.54 35.70,52.24 31.91,52.24 " fill="#444444"/>
        </g> 
        <g class="Name" fill-opacity="0.9" style="display: none;">
            <text transform="translate(3 12)" font-size="12" font-family="Verdana, Sans-Serif">DSINK</text>
        </g>
        <desc>Width:70 Height:90 Depth:60 Elevation:0</desc>
    </g><g class="FixedFurniture ElectricalAppliance SpaceForAppliance2" fill="#ffffff" stroke="#000000" stroke-dasharray="4,4" transform="matrix(0,-0.8284,1,0,519.543,240.1843)" style="fill-opacity: 1; stroke-opacity: 1; stroke-width: 1;">
	    <g class="BoundaryPolygon"> 
		    <polygon points="0,0 60,0 60,60 0,60"/>
		</g>	
	    <g class="electricitySign" fill="none">
            <path d="M0,0,30.1,39.8V19.4L59.9,60"/>
		</g>
        <g class="Direction" fill-opacity="0.9" style="display: none;">
            <polygon points="32.009 55.197 32.009 44.581 29 44.581 29 55.197 25.197 55.197 30.5 60 35.803 55.197 32.009 55.197" fill="#444444"/>
        </g> 
        <g class="Name" fill-opacity="0.9" stroke-dasharray="none" style="display: none;">
            <text transform="translate(3 12)" font-size="12" font-family="Verdana, Sans-Serif">SFA</text>
        </g>
        <desc>Width:60 Height:90 Depth:60 Elevation:0</desc>
	</g><g class="FixedFurniture ElectricalAppliance IntegratedStove" fill="#ffffff" stroke="#000000" transform="matrix(1,0,0,1,619.0541,39.8309)" style="fill-opacity: 1; stroke-opacity: 1; stroke-width: 1;">
        <g class="BoundaryPolygon" fill="none" stroke="none">
            <polygon points="0.00,0.00 52.33,0.00 52.33,60.00 0.00,60.00 "/>
        </g>
        <g class="InnerPolygon">
            <polygon points="2.00,2.00 50.58,2.00 50.58,58.00 2.00,58.00 "/>
        </g>
        <g class="OuterCircle">
            <circle cx="13.95383867724228" cy="16" r="8"/>
            <circle cx="38.37305636241627" cy="16" r="8"/>
            <circle cx="13.95383867724228" cy="44" r="8"/>
            <circle cx="38.37305636241627" cy="44" r="8"/>
        </g>
        <g class="Direction" fill-opacity="0.9" style="display: none;">
            <polygon points="27.92,55.20 27.92,44.58 24.91,44.58 24.91,55.20 21.10,55.20 26.41,60.00 31.71,55.20 27.92,55.20 " fill="#444444"/>
        </g> 
        <g class="Name" fill-opacity="0.9" style="display: none;">
            <text transform="translate(3 12)" font-size="12" font-family="Verdana, Sans-Serif">INT_STOVE</text>
        </g>
        <desc>Width:60 Height:90 Depth:30 Elevation:0</desc>
    </g><g class="FixedFurniture Closet" fill="#ffffff" stroke="#000000" transform="matrix(1,0,0,1,671.3809,39.8308)" style="fill-opacity: 1; stroke-opacity: 1; stroke-width: 1;">
        <g class="BoundaryPolygon">
            <polygon points="0.00,0.00 38.08,0.00 38.08,60.78 0.00,60.78 "/>
        </g>
        <g class="Direction" fill-opacity="0.9" style="display: none;">
            <polygon points="20.00,55.41 20.00,44.79 16.99,44.79 16.99,55.41 13.19,55.41 18.49,60.71 23.79,55.41 20.00,55.41 " fill="#444444"/>
        </g> 
        <g class="Name" fill-opacity="0.9" style="display: none;">
            <text transform="translate(3 12)" font-size="12" font-family="Verdana, Sans-Serif">CL</text>
        </g>
        <desc>Width:60 Height:200 Depth:60 Elevation:0</desc>
     </g><g class="FixedFurniture BaseCabinet" fill="#ffffff" stroke="#000000" transform="matrix(0,1,-1,0,762.4708,38.9969)" style="fill-opacity: 1; stroke-opacity: 1; stroke-width: 1;">
        <g class="BoundaryPolygon">
            <polygon points="0.00,0.00 160.63,0.00 160.63,49.99 0.00,49.99 "/>
        </g>
        <g class="Direction" fill-opacity="0.9" style="display: none;">
            <polygon points="85.69,45.99 85.69,35.37 82.68,35.37 82.68,45.99 78.88,45.99 84.18,50.79 89.49,45.99 85.69,45.99 " fill="#444444"/>
        </g> 
        <g class="Name" fill-opacity="0.9" style="display: none;">
            <text transform="translate(3 12)" font-size="12" font-family="Verdana, Sans-Serif">CB</text>
        </g>
        <desc>Width:60 Height:90 Depth:60 Elevation:0</desc>
    </g><g id="Column" fill="#000000" stroke="none" style="fill-opacity: 1;" class="Column Rectangle"><polygon points="712.98,715.24 721.34,715.24 721.34,723.82 712.98,723.82 "/></g><g id="Column" fill="#000000" stroke="none" style="fill-opacity: 1;" transform="matrix(1,0,0,1,0,0)" class="Column Rectangle"><polygon points="521.22,715.45 529.58,715.45 529.58,724.03 521.22,724.03 "/></g><g transform="matrix(1,0,0,1,519.5273,241.3009)" style="stroke-opacity: 1; fill-opacity: 0.7; stroke-width: 1.5;" class="FixedFurniture WallCabinet" fill="#ffffff" stroke="#000000"><desc>Width:60 Height:60 Depth:50 Elevation:140</desc><g class="BoundaryPolygon"><polygon points="0.00,0.00 28.53,0.00 28.53,-169.00 150.39,-169.00 150.67,-201.47 0.00,-201.47 0.00,0.00 "/></g></g></g></g></g></svg>
