<?xml version="1.0"?>
<svg xmlns="http://www.w3.org/2000/svg" xmlns:xlink="http://www.w3.org/1999/xlink" height="806.9299802780151" version="1.1" width="769.2399759292603" id="temp" viewBox="0 0 769.2399759292603 806.9299802780151"><defs/><g id="Model" class="Model v1-1"><g class="Floor"><g id="Floor-1" class="Floorplan Floor-1"><g id="a5263d24-aa7d-490b-a64e-1797b7e4993e" fill="#ffffff" stroke="#000000" style="fill-opacity: 1; stroke-opacity: 1; stroke-width: 0.2;" class="Space Outdoor Balcony"><polygon points="26.14,176.26 26.14,19.70 423.89,19.70 423.89,176.26 26.14,176.26 "/><g transform="matrix(1,0,0,1,26.1375,19.7009)" class="Dimension"><g transform="matrix(1,0,0,1,0,0)" style="display: none;" class="Visual"><g id="mark1" fill="#000000" stroke="none" transform="matrix(1,0,0,1,198.8767,0)" style="fill-opacity: 1; pointer-events: visible;" class="DimensionMark"><polygon points="-5,5,0,0,5,5"/></g><g id="mark2" fill="#000000" stroke="none" transform="matrix(1,0,0,1,397.7534,78.2785)" style="fill-opacity: 1; pointer-events: visible;" class="DimensionMark"><polygon points="-5,-5,0,0,-5,5"/></g><g id="mark3" fill="#000000" stroke="none" transform="matrix(1,0,0,1,198.8767,156.5569)" style="fill-opacity: 1; pointer-events: visible;" class="DimensionMark"><polygon points="-5,-5,0,0,5,-5"/></g><g id="mark4" fill="#000000" stroke="none" transform="matrix(1,0,0,1,0,78.2785)" style="fill-opacity: 1; pointer-events: visible;" class="DimensionMark"><polygon points="5,5,0,0,5,-5"/></g></g><g transform="matrix(1,0,0,1,86.4941,84.2246)" class="SpaceDimensionsLabel"><g id="NameLabel" style="display: block;" class="TextLabel NameLabel"><text x="0" y="0em" fill="#000000" stroke="none" style="font-family: Verdana; font-size: 33px; fill-opacity: 1; cursor: default;">PARVEKE</text></g><g id="DimensionMeasureLabel" transform="matrix(1,0,0,1,-63.7188,80.0157)" style="display: none;" class="TextLabel DimensionMeasureLabel"><text x="42.1796875" y="-1.2em" fill="#000000" stroke="none" style="font-family: Verdana; font-size: 33px; fill-opacity: 1; cursor: default;">13'1" x 5'2"</text><text x="0" y="0em" fill="#000000" stroke="none" style="font-family: Verdana; font-size: 33px; fill-opacity: 1; cursor: default;">3.98 m x 1.57 m</text></g></g></g></g><g id="bcdb8db1-aafb-4d20-9504-8af3032ae221" fill="#ffffff" stroke="#ffffff" style="fill-opacity: 1; stroke-opacity: 1; stroke-width: 0.2;" class="Space Bath"><polygon points="525.90,375.83 525.90,532.19 742.10,532.19 742.10,375.83 525.90,375.83 "/><g transform="matrix(1,0,0,1,525.896,375.827)" class="Dimension"><g transform="matrix(1,0,0,1,0,0)" style="display: none;" class="Visual"><g id="mark1" fill="#000000" stroke="none" transform="matrix(1,0,0,1,108.1043,0)" style="fill-opacity: 1; pointer-events: visible;" class="DimensionMark"><polygon points="-5,5,0,0,5,5"/></g><g id="mark2" fill="#000000" stroke="none" transform="matrix(1,0,0,1,216.2086,78.1813)" style="fill-opacity: 1; pointer-events: visible;" class="DimensionMark"><polygon points="-5,-5,0,0,-5,5"/></g><g id="mark3" fill="#000000" stroke="none" transform="matrix(1,0,0,1,108.1043,156.3626)" style="fill-opacity: 1; pointer-events: visible;" class="DimensionMark"><polygon points="-5,-5,0,0,5,-5"/></g><g id="mark4" fill="#000000" stroke="none" transform="matrix(1,0,0,1,0,78.1813)" style="fill-opacity: 1; pointer-events: visible;" class="DimensionMark"><polygon points="5,5,0,0,5,-5"/></g></g><g transform="matrix(1,0,0,1,57.4108,112.2217)" class="SpaceDimensionsLabel"><g id="NameLabel" style="display: block;" class="TextLabel NameLabel"><text x="0" y="0em" fill="#000000" stroke="none" style="font-family: Verdana; font-size: 33px; fill-opacity: 1; cursor: default;">KH</text></g><g id="DimensionMeasureLabel" transform="matrix(1,0,0,1,-116.164,79.4062)" style="display: none;" class="TextLabel DimensionMeasureLabel"><text x="52.671875" y="-1.2em" fill="#000000" stroke="none" style="font-family: Verdana; font-size: 33px; fill-opacity: 1; cursor: default;">7'1" x 5'2"</text><text x="0" y="0em" fill="#000000" stroke="none" style="font-family: Verdana; font-size: 33px; fill-opacity: 1; cursor: default;">2.16 m x 1.56 m</text></g></g></g></g><g id="77b42018-318a-405e-9297-dd5696d59d54" fill="#ffffff" stroke="#ffffff" style="fill-opacity: 1; stroke-opacity: 1; stroke-width: 0.2;" class="Space LivingRoom"><polygon points="423.89,206.90 513.90,206.90 513.90,532.19 408.34,532.19 408.34,531.71 243.26,531.71 243.26,532.19 26.14,532.19 26.14,192.26 423.89,192.26 "/><g transform="matrix(1,0,0,1,26.1375,192.2578)" class="Dimension"><g transform="matrix(1,0,0,1,0,0)" style="display: none;" class="Visual"><g id="mark1" fill="#000000" stroke="none" transform="matrix(1,0,0,1,243.8793,0)" style="fill-opacity: 1; pointer-events: visible;" class="DimensionMark"><polygon points="-5,5,0,0,5,5"/></g><g id="mark2" fill="#000000" stroke="none" transform="matrix(1,0,0,1,487.7585,169.9659)" style="fill-opacity: 1; pointer-events: visible;" class="DimensionMark"><polygon points="-5,-5,0,0,-5,5"/></g><g id="mark3" fill="#000000" stroke="none" transform="matrix(1,0,0,1,243.8793,339.4557)" style="fill-opacity: 1; pointer-events: visible;" class="DimensionMark"><polygon points="-5,-5,0,0,5,-5"/></g><g id="mark4" fill="#000000" stroke="none" transform="matrix(1,0,0,1,0,169.9659)" style="fill-opacity: 1; pointer-events: visible;" class="DimensionMark"><polygon points="5,5,0,0,5,-5"/></g></g><g transform="matrix(1,0,0,1,221.4091,182.6288)" class="SpaceDimensionsLabel" style="display: block;"><g id="NameLabel" style="display: block;" class="TextLabel NameLabel"><text x="0" y="0em" fill="#000000" stroke="none" style="font-family: Verdana; font-size: 33px; fill-opacity: 1; cursor: default;">OH</text></g><g id="DimensionMeasureLabel" transform="matrix(1,0,0,1,-114.6015,79.9531)" style="display: none;" class="TextLabel DimensionMeasureLabel"><text x="31.6875" y="-1.2em" fill="#000000" stroke="none" style="font-family: Verdana; font-size: 33px; fill-opacity: 1; cursor: default;">16'0" x 11'2"</text><text x="0" y="0em" fill="#000000" stroke="none" style="font-family: Verdana; font-size: 33px; fill-opacity: 1; cursor: default;">4.88 m x 3.39 m</text></g></g></g></g><g id="4b759603-936e-4b1d-954a-795eac5f16ca" fill="#ffffff" stroke="#ffffff" style="fill-opacity: 1; stroke-opacity: 1; stroke-width: 0.2;" class="Space Undefined"><polygon points="243.26,702.55 26.14,702.55 26.14,532.19 243.26,532.19 "/><g transform="matrix(1,0,0,1,26.1375,532.1896)" class="Dimension"><g transform="matrix(1,0,0,1,0,0)" style="display: none;" class="Visual"><g id="mark1" fill="#000000" stroke="none" transform="matrix(1,0,0,1,108.5605,0)" style="fill-opacity: 1; pointer-events: visible;" class="DimensionMark"><polygon points="-5,5,0,0,5,5"/></g><g id="mark2" fill="#000000" stroke="none" transform="matrix(1,0,0,1,217.121,85.1803)" style="fill-opacity: 1; pointer-events: visible;" class="DimensionMark"><polygon points="-5,-5,0,0,-5,5"/></g><g id="mark3" fill="#000000" stroke="none" transform="matrix(1,0,0,1,108.5605,170.3605)" style="fill-opacity: 1; pointer-events: visible;" class="DimensionMark"><polygon points="-5,-5,0,0,5,-5"/></g><g id="mark4" fill="#000000" stroke="none" transform="matrix(1,0,0,1,0,85.1803)" style="fill-opacity: 1; pointer-events: visible;" class="DimensionMark"><polygon points="5,5,0,0,5,-5"/></g></g><g transform="matrix(1,0,0,1,108.5605,85.1802)" class="SpaceDimensionsLabel"><g id="NameLabel" style="display: block;" class="TextLabel NameLabel"><text x="0" y="0em" fill="#000000" stroke="none" style="font-family: Verdana; font-size: 33px; fill-opacity: 1; cursor: default;">UNDEFINED</text></g><g id="DimensionMeasureLabel" transform="matrix(1,0,0,1,-40.5235,79.4062)" style="display: none;" class="TextLabel DimensionMeasureLabel"><text x="52.671875" y="-1.2em" fill="#000000" stroke="none" style="font-family: Verdana; font-size: 33px; fill-opacity: 1; cursor: default;">7'1" x 5'7"</text><text x="0" y="0em" fill="#000000" stroke="none" style="font-family: Verdana; font-size: 33px; fill-opacity: 1; cursor: default;">2.17 m x 1.70 m</text></g></g></g></g><g id="b59fc624-c9a4-436b-94cc-f0717a65b47a" fill="#ffffff" stroke="#ffffff" style="fill-opacity: 1; stroke-opacity: 1; stroke-width: 0.2;" class="Space Undefined"><polygon points="513.90,543.71 609.68,543.88 610.00,703.00 408.34,702.55 408.34,532.19 513.90,532.19 "/><g transform="matrix(1,0,0,1,408.345,532.1896)" class="Dimension"><g transform="matrix(1,0,0,1,0,0)" style="display: none;" class="Visual"><g id="mark1" fill="#000000" stroke="none" transform="matrix(1,0,0,1,100.828,0)" style="fill-opacity: 1; pointer-events: visible;" class="DimensionMark"><polygon points="-5,5,0,0,5,5"/></g><g id="mark2" fill="#000000" stroke="none" transform="matrix(1,0,0,1,201.4826,85.4056)" style="fill-opacity: 1; pointer-events: visible;" class="DimensionMark"><polygon points="-5,-5,0,0,-5,5"/></g><g id="mark3" fill="#000000" stroke="none" transform="matrix(1,0,0,1,100.828,170.5855)" style="fill-opacity: 1; pointer-events: visible;" class="DimensionMark"><polygon points="-5,-5,0,0,5,-5"/></g><g id="mark4" fill="#000000" stroke="none" transform="matrix(1,0,0,1,0,85.4056)" style="fill-opacity: 1; pointer-events: visible;" class="DimensionMark"><polygon points="5,5,0,0,5,-5"/></g></g><g transform="matrix(1,0,0,1,-46.8106,75.9542)" class="SpaceDimensionsLabel"><g id="NameLabel" style="display: block;" class="TextLabel NameLabel"><text x="0" y="0em" fill="#000000" stroke="none" style="font-family: Verdana; font-size: 33px; fill-opacity: 1; cursor: default;">UNDEFINED</text></g><g id="DimensionMeasureLabel" transform="matrix(1,0,0,1,-40.5156,79.9531)" style="display: none;" class="TextLabel DimensionMeasureLabel"><text x="52.6640625" y="-1.2em" fill="#000000" stroke="none" style="font-family: Verdana; font-size: 33px; fill-opacity: 1; cursor: default;">6'7" x 5'7"</text><text x="0" y="0em" fill="#000000" stroke="none" style="font-family: Verdana; font-size: 33px; fill-opacity: 1; cursor: default;">2.01 m x 1.71 m</text></g></g></g></g><g id="ac063559-1e58-4b16-a431-18a6a8c7ed7b" fill="#ffffff" stroke="#ffffff" style="fill-opacity: 1; stroke-opacity: 1; stroke-width: 0.2;" class="Space Kitchen Kitchenette"><polygon points="742.24,364.83 525.90,364.83 525.90,206.90 742.24,206.90 "/><g transform="matrix(1,0,0,1,525.896,206.9043)" class="Dimension"><g transform="matrix(1,0,0,1,0,0)" style="display: none;" class="Visual"><g id="mark1" fill="#000000" stroke="none" transform="matrix(1,0,0,1,108.1725,0)" style="fill-opacity: 1; pointer-events: visible;" class="DimensionMark"><polygon points="-5,5,0,0,5,5"/></g><g id="mark2" fill="#000000" stroke="none" transform="matrix(1,0,0,1,216.345,78.9614)" style="fill-opacity: 1; pointer-events: visible;" class="DimensionMark"><polygon points="-5,-5,0,0,-5,5"/></g><g id="mark3" fill="#000000" stroke="none" transform="matrix(1,0,0,1,108.1725,157.9227)" style="fill-opacity: 1; pointer-events: visible;" class="DimensionMark"><polygon points="-5,-5,0,0,5,-5"/></g><g id="mark4" fill="#000000" stroke="none" transform="matrix(1,0,0,1,0,78.9614)" style="fill-opacity: 1; pointer-events: visible;" class="DimensionMark"><polygon points="5,5,0,0,5,-5"/></g></g><g transform="matrix(1,0,0,1,59.9218,62.8066)" class="SpaceDimensionsLabel" style="display: block;"><g id="NameLabel" style="display: block;" class="TextLabel NameLabel"><text x="0" y="0em" fill="#000000" stroke="none" style="font-family: Verdana; font-size: 33px; fill-opacity: 1; cursor: default;">KK</text></g><g id="DimensionMeasureLabel" transform="matrix(1,0,0,1,-117.0234,79.4063)" style="display: none;" class="TextLabel DimensionMeasureLabel"><text x="52.671875" y="-1.2em" fill="#000000" stroke="none" style="font-family: Verdana; font-size: 33px; fill-opacity: 1; cursor: default;">7'1" x 5'2"</text><text x="0" y="0em" fill="#000000" stroke="none" style="font-family: Verdana; font-size: 33px; fill-opacity: 1; cursor: default;">2.16 m x 1.58 m</text></g></g></g></g><g id="5223086a-12fd-4e91-84ae-00864f546710" fill="#ffffff" stroke="#ffffff" style="fill-opacity: 1; stroke-opacity: 1; stroke-width: 0.2;" class="Space Closet WalkIn"><polygon points="716.84,703.00 622.00,703.00 621.68,543.88 716.84,543.88 "/><g transform="matrix(1,0,0,1,621.8394,543.8759)" class="Dimension"><g transform="matrix(1,0,0,1,0,0)" style="display: none;" class="Visual"><g id="mark1" fill="#000000" stroke="none" transform="matrix(1,0,0,1,47.4195,0)" style="fill-opacity: 1; pointer-events: visible;" class="DimensionMark"><polygon points="-5,5,0,0,5,5"/></g><g id="mark2" fill="#000000" stroke="none" transform="matrix(1,0,0,1,94.9997,79.5639)" style="fill-opacity: 1; pointer-events: visible;" class="DimensionMark"><polygon points="-5,-5,0,0,-5,5"/></g><g id="mark3" fill="#000000" stroke="none" transform="matrix(1,0,0,1,47.4195,159.1263)" style="fill-opacity: 1; pointer-events: visible;" class="DimensionMark"><polygon points="-5,-5,0,0,5,-5"/></g><g id="mark4" fill="#000000" stroke="none" transform="matrix(1,0,0,1,0,79.5639)" style="fill-opacity: 1; pointer-events: visible;" class="DimensionMark"><polygon points="5,5,0,0,5,-5"/></g></g><g transform="matrix(1,0,0,1,22.9655,86.6412)" class="SpaceDimensionsLabel" style="display: block;"><g id="NameLabel" style="display: block;" class="TextLabel NameLabel"><text x="0" y="0em" fill="#000000" stroke="none" style="font-family: Verdana; font-size: 33px; fill-opacity: 1; cursor: default;">VH</text></g><g id="DimensionMeasureLabel" transform="matrix(1,0,0,1,-116.3125,80.0156)" style="display: none;" class="TextLabel DimensionMeasureLabel"><text x="52.671875" y="-1.2em" fill="#000000" stroke="none" style="font-family: Verdana; font-size: 33px; fill-opacity: 1; cursor: default;">3'1" x 5'3"</text><text x="0" y="0em" fill="#000000" stroke="none" style="font-family: Verdana; font-size: 33px; fill-opacity: 1; cursor: default;">0.95 m x 1.59 m</text></g></g></g></g><g id="Wall" fill="#000000" stroke="#000000" style="fill-opacity: 1; stroke-opacity: 1; stroke-width: 0.2;" class="Wall External"><polygon points="408.34,531.71 243.26,531.71 268.26,556.71 382.34,556.71 "/></g><g id="Wall" fill="#000000" stroke="#000000" style="fill-opacity: 1; stroke-opacity: 1; stroke-width: 0.2;" class="Wall External"><polygon points="243.26,531.71 243.26,702.55 268.26,718.55 268.26,556.71 "/></g><g id="Wall" fill="#000000" stroke="#000000" style="fill-opacity: 1; stroke-opacity: 1; stroke-width: 0.2;" class="Wall External"><polygon points="243.26,702.55 26.14,702.55 10.14,718.55 268.26,718.55 "/></g><g id="Wall" fill="#000000" stroke="#000000" style="fill-opacity: 1; stroke-opacity: 1; stroke-width: 0.2;" class="Wall External"><polygon points="26.14,702.55 26.14,192.26 10.14,176.26 10.14,718.55 "/></g><g id="Wall" fill="#000000" stroke="#000000" style="fill-opacity: 1; stroke-opacity: 1; stroke-width: 0.2;" class="Wall External"><polygon points="26.14,192.26 439.89,192.26 423.89,176.26 10.14,176.26 "/><g id="Window" fill="#f0f0ff" stroke="#000000" style="fill-opacity: 1; stroke-width: 1; stroke-opacity: 1;" class="Window Regular"><polygon points="66.03,192.26 285.87,192.26 285.87,176.26 66.03,176.26 "/><g id="Glass" class="Glass"><polygon points="66.03,192.26 285.87,192.26 285.87,176.26 66.03,176.26 "/></g><g id="Panel" class="Panel"><line x1="73.53384652673071" x2="278.36945196358386" y1="184.25779075102906" y2="184.25779075102903"/><line x1="73.53384652673071" x2="73.53384652673071" y1="192.25779075102906" y2="176.25779075102906"/><line x1="278.36945196358386" x2="278.36945196358386" y1="192.25779075102903" y2="176.25779075102903"/></g></g><g id="Door" fill="#ffffff" stroke="#000000" style="fill-opacity: 1; stroke-width: 1; stroke-opacity: 1;" class="Door Swing Opposite"><polygon points="291.57,192.26 373.92,192.26 373.92,176.26 291.57,176.26 "/><g id="Threshold" class="Threshold"><polygon points="291.57,192.26 373.92,192.26 373.92,176.26 291.57,176.26 "/></g><g id="Panel" fill="none" style="" class="Panel Left Negative"><g id="PanelArea" fill="none" stroke="none" style="" class="PanelArea"><polygon points="291.57,192.26 373.92,192.26 373.92,176.26 291.57,176.26 "/></g><path d="M291.57,192.26 q0.00,82.35 82.35,82.35 l0.00,-82.35Z"/></g><g id="Panel" fill="none" style="" class="Panel Right Positive"><g id="PanelArea" fill="none" stroke="none" style="" class="PanelArea"><polygon points="291.57,192.26 373.92,192.26 373.92,176.26 291.57,176.26 "/></g><path d="M291.57,176.26 q0.00,-82.35 82.35,-82.35 l0.00,82.35Z"/></g></g></g><g id="Wall" fill="#000000" stroke="#000000" style="fill-opacity: 1; stroke-opacity: 1; stroke-width: 0.2;" class="Wall External"><polygon points="423.89,206.90 742.24,206.90 769.24,166.98 423.89,166.98 "/><g id="Window" fill="#f0f0ff" stroke="#000000" style="fill-opacity: 1; stroke-width: 1; stroke-opacity: 1;" class="Window Regular"><polygon points="532.68,206.90 658.23,206.90 658.23,166.98 532.68,166.98 "/><g id="Glass" class="Glass"><polygon points="532.68,206.90 658.23,206.90 658.23,166.98 532.68,166.98 "/></g><g id="Panel" class="Panel"><line x1="540.1849885641594" x2="650.7274078869884" y1="186.94298329441258" y2="186.94298329441258"/><line x1="540.1849885641594" x2="540.1849885641594" y1="206.90429553312163" y2="166.98167105570354"/><line x1="650.7274078869884" x2="650.7274078869884" y1="206.90429553312163" y2="166.98167105570354"/></g></g></g><g id="Wall" fill="#000000" stroke="#000000" style="fill-opacity: 1; stroke-opacity: 1; stroke-width: 0.2;" class="Wall External"><polygon points="742.24,206.90 742.24,531.88 769.24,531.88 769.24,166.98 "/></g><g id="Wall" fill="#000000" stroke="#000000" style="fill-opacity: 1; stroke-opacity: 1; stroke-width: 0.2;" class="Wall External"><polygon points="716.84,543.88 716.84,703.00 769.24,719.08 769.24,531.92 "/></g><g id="Wall" fill="#000000" stroke="#000000" style="fill-opacity: 1; stroke-opacity: 1; stroke-width: 0.2;" class="Wall External"><polygon points="716.84,703.00 408.34,702.55 382.34,718.51 769.24,719.08 "/><g id="Door" fill="#ffffff" stroke="#000000" style="fill-opacity: 1; stroke-width: 1; stroke-opacity: 1;" class="Door Swing Opposite"><polygon points="508.87,702.70 420.64,702.57 420.61,718.57 508.84,718.70 "/><g id="Threshold" class="Threshold"><polygon points="508.87,702.70 420.64,702.57 420.61,718.57 508.84,718.70 "/></g><g id="Panel" fill="none" style="" class="Panel Left Negative"><g id="PanelArea" fill="none" stroke="none" style="" class="PanelArea"><polygon points="508.87,702.70 420.64,702.57 420.61,718.57 508.84,718.70 "/></g><path d="M508.87,702.70 q0.13,-88.23 -88.10,-88.36 l-0.13,88.23Z"/></g><g id="Panel" fill="none" style="" class="Panel Left Positive"><g id="PanelArea" fill="none" stroke="none" style="" class="PanelArea"><polygon points="508.87,702.70 420.64,702.57 420.61,718.57 508.84,718.70 "/></g><path d="M420.61,718.57 q-0.13,88.23 88.10,88.36 l0.13,-88.23Z"/></g></g></g><g id="Wall" fill="#000000" stroke="#000000" style="fill-opacity: 1; stroke-opacity: 1; stroke-width: 0.2;" class="Wall External"><polygon points="408.34,702.55 408.34,531.71 382.34,556.71 382.34,718.51 "/></g><g id="Wall" fill="#000000" stroke="#000000" style="fill-opacity: 1; stroke-opacity: 1; stroke-width: 0.2;" class="Wall"><polygon points="769.24,531.92 525.90,531.72 513.90,543.71 716.84,543.88 "/><g id="Door" fill="#ffffff" stroke="#000000" style="fill-opacity: 1; stroke-width: 1; stroke-opacity: 1;" class="Door Swing Beside"><polygon points="604.53,531.79 530.81,531.73 530.80,543.73 604.52,543.79 "/><g id="Threshold" class="Threshold"><polygon points="604.53,531.79 530.81,531.73 530.80,543.73 604.52,543.79 "/></g><g id="Panel" fill="none" style="" class="Panel Left Positive"><g id="PanelArea" fill="none" stroke="none" style="" class="PanelArea"><polygon points="604.53,531.79 530.81,531.73 530.80,543.73 604.52,543.79 "/></g><path d="M530.80,543.73 q-0.06,73.72 73.66,73.78 l0.06,-73.72Z"/></g></g></g><g id="Wall" fill="#000000" stroke="#000000" style="fill-opacity: 1; stroke-opacity: 1; stroke-width: 0.2;" class="Wall"><polygon points="513.90,543.71 513.90,176.26 525.90,176.26 525.90,531.72 "/><g id="Door" fill="#ffffff" stroke="#000000" style="fill-opacity: 1; stroke-width: 1; stroke-opacity: 1;" class="Door Swing Beside"><polygon points="513.90,295.12 513.90,211.54 525.90,211.54 525.90,295.12 "/><g id="Threshold" class="Threshold"><polygon points="513.90,295.12 513.90,211.54 525.90,211.54 525.90,295.12 "/></g><g id="Panel" fill="none" style="" class="Panel Left Negative"><g id="PanelArea" fill="none" stroke="none" style="" class="PanelArea"><polygon points="513.90,295.12 513.90,211.54 525.90,211.54 525.90,295.12 "/></g><path d="M513.90,295.12 q-83.58,0.00 -83.58,-83.58 l83.58,0.00Z"/></g></g></g><g id="Wall" fill="#000000" stroke="#000000" style="fill-opacity: 1; stroke-opacity: 1; stroke-width: 0.2;" class="Wall"><polygon points="423.89,176.26 423.89,8.70 439.89,8.70 439.89,192.26 "/></g><g id="Wall" fill="#000000" stroke="#000000" style="fill-opacity: 1; stroke-opacity: 1; stroke-width: 0.2;" class="Wall"><polygon points="10.14,176.26 10.14,8.70 26.14,8.70 26.14,176.26 "/></g><g id="Railing" fill="#ffffff" stroke="#000000" style="fill-opacity: 1; stroke-opacity: 1; stroke-width: 0.2;" class="Railing"><polygon points="26.14,8.70 423.89,8.70 423.89,19.70 26.14,19.70 " style="stroke-dasharray: 0;"/></g><g id="Wall" fill="#000000" stroke="#000000" style="fill-opacity: 1; stroke-opacity: 1; stroke-width: 0.2;" class="Wall"><polygon points="513.90,364.83 769.24,364.83 769.24,375.83 513.90,375.83 "/></g><g id="Wall" fill="#000000" stroke="#000000" style="fill-opacity: 1; stroke-opacity: 1; stroke-width: 0.2;" class="Wall"><polygon points="609.68,531.79 609.68,718.85 621.68,718.85 621.68,531.79 "/><g id="Door" fill="#ffffff" stroke="#000000" style="fill-opacity: 1; stroke-width: 1; stroke-opacity: 1;" class="Door Swing Beside"><polygon points="609.68,581.99 609.68,646.42 621.68,646.42 621.68,581.99 "/><g id="Threshold" class="Threshold"><polygon points="609.68,581.99 609.68,646.42 621.68,646.42 621.68,581.99 "/></g><g id="Panel" fill="none" style="" class="Panel Right Negative"><g id="PanelArea" fill="none" stroke="none" style="" class="PanelArea"><polygon points="609.68,581.99 609.68,646.42 621.68,646.42 621.68,581.99 "/></g><path d="M609.68,646.42 q-64.43,-0.00 -64.43,-64.43 l64.43,0.00Z"/></g></g></g><g class="FixedFurniture ElectricalAppliance Refrigerator" fill="#ffffff" stroke="#000000" transform="matrix(-1,0,0,-1.0556,585.896,364.6126)" style="fill-opacity: 1; stroke-opacity: 1;">
        <g class="BoundaryPolygon">
            <polygon points="0,0 60,0 60,60 0,60"/>
        </g>
        <g class="electricitySign" fill="none">
            <path d="M0,0,30,37.1v-18L60,56.3"/>
        </g>
        <g class="Doors">
            <rect y="56" width="60" height="4"/>
        </g>
        <g class="Direction" fill-opacity="0.9" style="display: none;">
            <polygon points="32.009 55.197 32.009 44.581 29 44.581 29 55.197 25.197 55.197 30.5 60 35.803 55.197 32.009 55.197" fill="#444444"/>
        </g> 
        <g class="Name" fill-opacity="0.9" style="display: none;">
            <text transform="translate(3 12)" font-size="12" font-family="Verdana, Sans-Serif">REF</text>
        </g>
        <desc>Width:60 Height:170 Depth:60 Elevation:0</desc>
    </g><g transform="matrix(1,0,0,1,585.896,364.6126)" class="FixedFurniture BaseCabinet" fill="#ffffff" stroke="#000000" style="fill-opacity: 1; stroke-opacity: 1;"><desc>Width:60 Height:90 Depth:60 Elevation:0</desc><g class="BoundaryPolygon"><polygon points="0.00,0.00 0.00,-63.55 95.67,-63.55 95.67,-157.71 156.35,-157.71 156.35,0.00 0.00,0.00 "/></g></g><g class="FixedFurniture ElectricalAppliance IntegratedStove" fill="#ffffff" stroke="#000000" transform="matrix(-1,0,0,-1,682.823,364.5813)" style="fill-opacity: 1; stroke-opacity: 1;">
        <g class="BoundaryPolygon" fill="none" stroke="none">
            <polygon points="0.00,0.00 54.36,0.00 54.36,63.77 0.00,63.77 "/>
        </g>
        <g class="InnerPolygon">
            <polygon points="2.00,2.00 52.55,2.00 52.55,61.65 2.00,61.65 "/>
        </g>
        <g class="OuterCircle">
            <circle cx="14.496676922837423" cy="17.00563630875438" r="8"/>
            <circle cx="39.86586153780293" cy="17.00563630875438" r="8"/>
            <circle cx="14.496676922837423" cy="46.765499849074516" r="8"/>
            <circle cx="39.86586153780293" cy="46.765499849074516" r="8"/>
        </g>
        <g class="Direction" fill-opacity="0.9" style="display: none;">
            <polygon points="29.00,58.67 29.00,48.05 25.99,48.05 25.99,58.67 22.19,58.67 27.49,63.47 32.80,58.67 29.00,58.67 " fill="#444444"/>
        </g> 
        <g class="Name" fill-opacity="0.9" style="display: none;">
            <text transform="translate(3 12)" font-size="12" font-family="Verdana, Sans-Serif">INT_STOVE</text>
        </g>
        <desc>Width:60 Height:90 Depth:30 Elevation:0</desc>
    </g><g class="FixedFurniture WallCabinet" fill="#ffffff" stroke="#000000" transform="matrix(-1,0,0,-1,630.076,364.5813)" style="fill-opacity: 0.7; stroke-opacity: 1;">	
        <g class="BoundaryPolygon">
            <polygon points="0.00,0.00 44.18,0.00 44.18,30.00 0.00,30.00 "/>
        </g>
        <g class="Direction" fill-opacity="0.9" style="display: none;">
            <polygon points="23.57,25.20 23.57,14.58 20.56,14.58 20.56,25.20 16.76,25.20 22.06,30.00 27.36,25.20 23.57,25.20 " fill="#444444"/>
        </g> 
        <g class="Name" fill-opacity="0.9" style="display: none;">
            <text transform="translate(3 12)" font-size="12" font-family="Verdana, Sans-Serif">UC</text>
        </g>
        <desc>Width:60 Height:60 Depth:30 Elevation:140</desc>
    </g><g class="FixedFurniture DoubleSink" fill="#ffffff" stroke="#000000" transform="matrix(0,1,-1,0,742.2097,212.3348)" style="fill-opacity: 1; stroke-opacity: 1;">
        <g class="BoundaryPolygon" fill="none" stroke="none">
            <polygon points="0.00,0.00 82.28,0.00 82.28,57.40 0.00,57.40 "/>
        </g>
        <g class="InnerPolygonLeft">
            <polygon points="5.88,9.90 39.38,9.90 39.38,52.52 5.88,52.52 "/>
        </g>
        <g class="InnerPolygonRight">
            <polygon points="42.90,10.00 76.40,10.00 76.40,52.62 42.90,52.62 "/>
        </g>
        <g class="OuterDrain" stroke-width="0.8">
            <circle cx="23.15528950670811" cy="31.09391501350805" r="3.5"/>
            <circle cx="59.004849402880566" cy="31.09391501350805" r="3.5"/>
        </g>
        <g class="InnerDrain" stroke-width="0.8">
            <circle cx="23.15528950670811" cy="31.09391501350805" r="2"/>
            <circle cx="59.004849402880566" cy="31.09391501350805" r="2"/>
        </g>
        <g class="Faucet">
            <polygon points="37.61,4.69 43.61,4.69 43.61,18.69 37.61,18.69 "/>
        </g>
        <g class="Direction" fill-opacity="0.9" style="display: none;">
            <polygon points="42.91,52.33 42.91,41.71 39.90,41.71 39.90,52.33 36.10,52.33 41.40,57.63 46.71,52.33 42.91,52.33 " fill="#444444"/>
        </g> 
        <g class="Name" fill-opacity="0.9" style="display: none;">
            <text transform="translate(3 12)" font-size="12" font-family="Verdana, Sans-Serif">DSINK</text>
        </g>
        <desc>Width:70 Height:90 Depth:60 Elevation:0</desc>
    </g><g class="FixedFurniture WallCabinet" fill="#ffffff" stroke="#000000" transform="matrix(0,1,-1,0,742.2148,206.9043)" style="fill-opacity: 0.7; stroke-opacity: 1;">	
        <g class="BoundaryPolygon">
            <polygon points="0.00,0.00 157.75,0.00 157.75,30.00 0.00,30.00 "/>
        </g>
        <g class="Direction" fill-opacity="0.9" style="display: none;">
            <polygon points="84.16,25.20 84.16,14.58 81.15,14.58 81.15,25.20 77.34,25.20 82.65,30.00 87.95,25.20 84.16,25.20 " fill="#444444"/>
        </g> 
        <g class="Name" fill-opacity="0.9" style="display: none;">
            <text transform="translate(3 12)" font-size="12" font-family="Verdana, Sans-Serif">UC</text>
        </g>
        <desc>Width:60 Height:60 Depth:30 Elevation:140</desc>
    </g><g class="FixedFurniture Toilet" fill="#ffffff" stroke="#000000" transform="matrix(1,0,0,1,547.6753,375.827)" style="fill-opacity: 1; stroke-opacity: 1;">
	   <g class="BoundaryPolygon" fill="none" stroke="none"> 
            <polygon points="0,0 41,0 41,71 0,71"/>
		</g>
        <g class="InnerPolygon">
            <rect x="0.502" y="0.5" width="39.989" height="17.98"/>
            <path d="M40.491,44.237S41.619,70.5,20.907,70.5C-.523,70.5.6,44.237.6,44.237L.5,18.48H40.491Z"/>
            <rect x="17.318" y="7.975" width="6.357" height="3.03"/>
        </g>
        <desc>Width:41 Height:85 Depth:71 Elevation:0</desc>
    </g><g class="FixedFurniture Bathtub" fill="#ffffff" stroke="#000000" transform="matrix(0,0.8935,-0.8729,0,742.1046,375.8271)" style="fill-opacity: 1; stroke-opacity: 1;"> 
	   <g class="BoundaryPolygon">
		    <polygon points="0,0 175,0 175,82 0,82"/>
		</g>
	    <g class="Tub">
		    <path d="M166.6,41.2c0,19.7,0,35.7-79.3,35.7S8,60.9,8,41.2,8,5.5,87.3,5.5,166.6,21.5,166.6,41.2Z"/>
		</g>
        <g class="Name" fill-opacity="0.9" style="display: none;">
            <text transform="translate(3 12)" font-size="12" font-family="Verdana, Sans-Serif">BT</text>
        </g>
        <desc>Width:175 Height:38 Depth:82 Elevation:0</desc>
	</g><g class="FixedFurniture Shower" fill="#ffffff" stroke="#000000" transform="matrix(1,0,0,1,693.9474,375.827)" style="fill-opacity: 1; stroke-opacity: 1;"> 
	    <g class="BoundaryPolygon" fill="none" stroke="none">
            <polygon points="0,0 32,0 32,19 0,19"/>
        </g>
        <g class="InnerPolygon"> 
			<rect x="3.7" y="0.5" width="11.2" height="6.1"/>
			<rect x="17.6" y="0.5" width="11.2" height="6.1"/>
			<rect x="28.7" y="0.5" width="3.4" height="6.1"/>
			<rect x="0.5" y="0.5" width="3.2" height="6.1"/>
			<path d="M14.9,8.5c0,1.5-0.4,3.3-1.6,5    c-0.4,0.6-1,1.1-1.1,1.7c-0.2,1.1,0.3,2.8,2.5,3.2c0.5,0.1,1.3,0.1,1.6,0.1h-0.1c0.3,0,1.1,0,1.6-0.1c2.2-0.4,2.7-2.1,2.5-3.2    c-0.1-0.6-0.7-1.1-1.1-1.7c-1.2-1.7-1.6-3.5-1.6-5"/>
			<path d="M12.2,15.3c0.1,0.2,1.6,1.9,4.2,1.9 c2.4-0.1,3.7-1.7,3.9-1.9"/>
			<path d="M14.9,0.5h2.7v8c-0.9,0-1.8,0-2.7,0l0,0 C14.9,5.9,14.9,3.2,14.9,0.5z"/>
		</g>
	    <g class="Indicator"> 
			<path d="M3.7,3.6C5,3.1,5.2,3,5.2,3 c0,1.1,0,0,0,1.1C5.2,4.1,5.1,4.1,3.7,3.6"/>
			<path d="M28.7,3.6 C27.4,3.1,27.2,3,27.2,3c0,1.1,0,0,0,1.1C27.2,4.1,27.3,4.1,28.7,3.6"/>	
		</g>
        <desc>Width:32 Height:97 Depth:19 Elevation:135</desc>
	</g><g id="FixedFurnitureSet" transform="matrix(1,0,0,1,614.3192,375.827)" class="FixedFurnitureSet" fill="#ffffff" stroke="#000000" style="fill-opacity: 0.4; stroke-opacity: 0.4;"><g class="FixedFurniture BaseCabinet" fill="#ffffff" stroke="#000000" transform="matrix(1,0,0,1,0,0)" style="fill-opacity: 1; stroke-opacity: 1;">
        <g class="BoundaryPolygon">
            <polygon points="0.00,0.00 56.21,0.00 56.21,38.83 0.00,38.83 "/>
        </g>
        <g class="Direction" fill-opacity="0.9" style="display: none;">
            <polygon points="29.99,35.73 29.99,25.11 26.98,25.11 26.98,35.73 23.17,35.73 28.48,40.53 33.78,35.73 29.99,35.73 " fill="#444444"/>
        </g> 
        <g class="Name" fill-opacity="0.9" style="display: none;">
            <text transform="translate(3 12)" font-size="12" font-family="Verdana, Sans-Serif">CB</text>
        </g>
        <desc>Width:60 Height:5 Depth:60 Elevation:105</desc>
    </g><g class="FixedFurniture Sink" fill="#ffffff" stroke="#000000" transform="matrix(1,0,0,1,0,0)" style="fill-opacity: 1; stroke-opacity: 1;">
        <g class="BoundaryPolygon" fill="none" stroke="none">
        <polygon points="0.00,0.00 56.21,0.00 56.21,38.83 0.00,38.83 "/>
        </g>
        <g class="InnerPolygon">
            <polygon points="4.68,9.70 51.53,9.70 51.53,35.40 4.68,35.40 "/>
        </g>
        <g class="OuterDrain" stroke-width="0.8">
            <circle cx="28.104614358929616" cy="20.84137504987429" r="3.5"/>
        </g>
        <g class="InnerDrain" stroke-width="0.8">
            <circle cx="28.104614358929616" cy="20.84137504987429" r="2"/>
        </g>
        <g class="Faucet">
            <polygon points="25.29,3.24 31.29,3.24 31.29,17.24 25.29,17.24 "/>
        </g>
        <g class="Direction" fill-opacity="0.9" style="display: none;">
            <polygon points="29.99,35.73 29.99,25.11 26.98,25.11 26.98,35.73 23.17,35.73 28.48,40.53 33.78,35.73 29.99,35.73 " fill="#444444"/>
        </g> 
        <g class="Name" fill-opacity="0.9" style="display: none;">
            <text transform="translate(3 12)" font-size="12" font-family="Verdana, Sans-Serif">SINK</text>
        </g>
        <desc>Width:60 Height:90 Depth:60 Elevation:0</desc>
    </g></g><g class="FixedFurniture Closet" fill="#ffffff" stroke="#000000" transform="matrix(1,0,0,1,621.5991,543.9159)" style="fill-opacity: 1; stroke-opacity: 1;">
        <g class="BoundaryPolygon">
            <polygon points="0.00,0.00 95.24,0.00 95.24,33.76 0.00,33.76 "/>
        </g>
        <g class="Direction" fill-opacity="0.9" style="display: none;">
            <polygon points="48.82,30.68 48.82,20.06 45.81,20.06 45.81,30.68 42.00,30.68 47.31,35.98 52.61,30.68 48.82,30.68 " fill="#444444"/>
        </g> 
        <g class="Name" fill-opacity="0.9" style="display: none;">
            <text transform="translate(3 12)" font-size="12" font-family="Verdana, Sans-Serif">CL</text>
        </g>
        <desc>Width:120 Height:200 Depth:60 Elevation:0</desc>
     </g><g class="FixedFurniture CoatCloset" fill="#ffffff" stroke="#000000" transform="matrix(-1,0,0,-1,716.8391,702.8564)" style="fill-opacity: 1; stroke-opacity: 1;">
        <g class="BoundaryPolygon">
            <polygon points="0.00,0.00 94.94,0.00 94.94,52.46 0.00,52.46 "/>
        </g>
        <g class="Hanger" fill="#ffffff" stroke="#9a9a9a" stroke-dasharray="5,5">
            <line x1="0" y1="26.230163014750413" x2="94.93568903567446" y2="26.230163014750413"/>
        </g>
        <g class="Direction" fill-opacity="0.9" style="display: none;">
            <polygon points="48.66,47.67 48.66,37.05 45.65,37.05 45.65,47.67 41.85,47.67 47.15,52.97 52.46,47.67 48.66,47.67 " fill="#444444"/>
        </g> 
        <g class="Name" fill-opacity="0.9" style="display: none;">
            <text transform="translate(3 12)" font-size="12" font-family="Verdana, Sans-Serif">CWH</text>
        </g>
        <desc>Width:120 Height:200 Depth:60 Elevation:0</desc>
     </g><g class="FixedFurniture Closet" fill="#ffffff" stroke="#000000" transform="matrix(-1,0,0,-1,609.6788,702.6992)" style="fill-opacity: 1; stroke-opacity: 1;">
        <g class="BoundaryPolygon">
            <polygon points="0.00,0.00 94.03,0.00 94.03,33.46 0.00,33.46 "/>
        </g>
        <g class="Direction" fill-opacity="0.9" style="display: none;">
            <polygon points="48.20,30.40 48.20,19.79 45.19,19.79 45.19,30.40 41.39,30.40 46.69,35.71 51.99,30.40 48.20,30.40 " fill="#444444"/>
        </g> 
        <g class="Name" fill-opacity="0.9" style="display: none;">
            <text transform="translate(3 12)" font-size="12" font-family="Verdana, Sans-Serif">CL</text>
        </g>
        <desc>Width:120 Height:200 Depth:60 Elevation:0</desc>
     </g><g fill="#0000ff" stroke="#0000ff" style="display: none;" class="SelectionControls"><g style="display: none;" class="rotateControl"><circle cx="188.89719547940837" cy="40.62860949475635" r="5" style="stroke : none; fill-opacity: 0.5; cursor:crosshair"/></g><g style="display: none;" class="ResizeNControl"><circle cx="0" cy="0" r="5" style="stroke : none; fill-opacity: 0.5"/></g><g style="display: none;" class="ResizeNEControl"><circle cx="0" cy="0" r="5" style="stroke : none; fill-opacity: 0.5"/></g><g style="display: none;" class="ResizeEControl"><circle cx="0" cy="0" r="5" style="stroke : none; fill-opacity: 0.5"/></g><g style="display: none;" class="ResizeSEControl"><circle cx="0" cy="0" r="5" style="stroke : none; fill-opacity: 0.5"/></g><g style="display: none;" class="ResizeSControl"><circle cx="0" cy="0" r="5" style="stroke : none; fill-opacity: 0.5"/></g><g style="display: none;" class="ResizeSWControl"><circle cx="0" cy="0" r="5" style="stroke : none; fill-opacity: 0.5"/></g><g style="display: none;" class="ResizeWControl"><circle cx="0" cy="0" r="5" style="stroke : none; fill-opacity: 0.5"/></g><g style="display: none;" class="ResizeNWControl"><circle cx="0" cy="0" r="5" style="stroke : none; fill-opacity: 0.5"/></g><g style="display: none;" class="removeControl"><polygon style="stroke : none; fill-opacity: 0.1" points="112.63,70.63 265.16,70.63 265.16,111.05 112.63,111.05 "/></g><g style="display: none;" class="copyPasteControl"><polygon style="stroke : none; fill-opacity: 0.1"/></g><g style="display: none;" class="translateControl"><polygon style="stroke : none; fill-opacity: 0.1; cursor:move" points="112.63,70.63 265.16,70.63 265.16,111.05 112.63,111.05 "/></g></g><g fill="#0000ff" stroke="#0000ff" style="display: none;" class="SelectionControls"><polygon fill="none" stroke="#0000ff" style="" points="26.14,19.70 423.89,19.70 423.89,176.26 26.14,176.26 "/><g style="display: none;" class="rotateControl"><circle cx="225.0141642049943" cy="-10.299115505243648" r="5" style="stroke : none; fill-opacity: 0.5; cursor:crosshair"/></g><g style="display: none;" class="ResizeNControl"><circle cx="0" cy="0" r="5" style="stroke : none; fill-opacity: 0.5"/></g><g style="display: none;" class="ResizeNEControl"><circle cx="0" cy="0" r="5" style="stroke : none; fill-opacity: 0.5"/></g><g style="display: none;" class="ResizeEControl"><circle cx="0" cy="0" r="5" style="stroke : none; fill-opacity: 0.5"/></g><g style="display: none;" class="ResizeSEControl"><circle cx="0" cy="0" r="5" style="stroke : none; fill-opacity: 0.5"/></g><g style="display: none;" class="ResizeSControl"><circle cx="0" cy="0" r="5" style="stroke : none; fill-opacity: 0.5"/></g><g style="display: none;" class="ResizeSWControl"><circle cx="0" cy="0" r="5" style="stroke : none; fill-opacity: 0.5"/></g><g style="display: none;" class="ResizeWControl"><circle cx="0" cy="0" r="5" style="stroke : none; fill-opacity: 0.5"/></g><g style="display: none;" class="ResizeNWControl"><circle cx="0" cy="0" r="5" style="stroke : none; fill-opacity: 0.5"/></g><g style="display: none;" class="removeControl"><polygon style="stroke : none; fill-opacity: 0.1"/></g><g style="display: none;" class="copyPasteControl"><polygon style="stroke : none; fill-opacity: 0.1"/></g><g style="display: none;" class="translateControl"><polygon style="stroke : none; fill-opacity: 0.1; cursor:move"/></g></g></g></g></g></svg>
