<?xml version="1.0"?>
<svg xmlns="http://www.w3.org/2000/svg" xmlns:xlink="http://www.w3.org/1999/xlink" height="1038.910057067871" version="1.1" width="839.0191040039062" id="temp" viewBox="0 0 839.0191040039062 1038.910057067871"><defs/><g id="Model" class="Model v1-1"><g class="Floor"><g id="Floor-1" class="Floorplan Floor-1"><g id="73e04586-6f4f-4f50-8ff1-d5fac32765ce" fill="#ffffff" stroke="#000000" style="fill-opacity: 1; stroke-opacity: 1; stroke-width: 0.2;" class="Space Outdoor"><polygon points="180.38,301.98 180.38,95.45 481.65,95.45 481.65,301.98 180.38,301.98 180.38,301.98 "/><g transform="matrix(1,0,0,1,180.3804,95.4486)" class="Dimension"><g transform="matrix(1,0,0,1,0,0)" style="display: none;" class="Visual"><g id="mark1" fill="#000000" stroke="none" transform="matrix(1,0,0,1,150.6351,0)" style="fill-opacity: 1; pointer-events: visible;" class="DimensionMark"><polygon points="-5,5,0,0,5,5"/></g><g id="mark2" fill="#000000" stroke="none" transform="matrix(1,0,0,1,301.2723,103.2681)" style="fill-opacity: 1; pointer-events: visible;" class="DimensionMark"><polygon points="-5,-5,0,0,-5,5"/></g><g id="mark3" fill="#000000" stroke="none" transform="matrix(1,0,0,1,150.6351,206.5361)" style="fill-opacity: 1; pointer-events: visible;" class="DimensionMark"><polygon points="-5,-5,0,0,5,-5"/></g><g id="mark4" fill="#000000" stroke="none" transform="matrix(1,0,0,1,0,103.2681)" style="fill-opacity: 1; pointer-events: visible;" class="DimensionMark"><polygon points="5,5,0,0,5,-5"/></g></g><g transform="matrix(1,0,0,1,67.4833,80.0814)" class="SpaceDimensionsLabel"><g id="NameLabel" style="display: block;" class="TextLabel NameLabel"><text x="0" y="0em" fill="#000000" stroke="none" style="font-family: Verdana; font-size: 33px; fill-opacity: 1; cursor: default;">ULKOTILA</text></g><g id="DimensionMeasureLabel" transform="matrix(1,0,0,1,-57.3125,79.5625)" style="display: none;" class="TextLabel DimensionMeasureLabel"><text x="42.1796875" y="-1.2em" fill="#000000" stroke="none" style="font-family: Verdana; font-size: 33px; fill-opacity: 1; cursor: default;">9'11" x 6'9"</text><text x="0" y="0em" fill="#000000" stroke="none" style="font-family: Verdana; font-size: 33px; fill-opacity: 1; cursor: default;">3.01 m x 2.07 m</text></g></g></g></g><g id="648d964d-35a1-4b93-826c-9436e5cb0435" fill="#ffffff" stroke="#ffffff" style="fill-opacity: 1; stroke-opacity: 1; stroke-width: 0.2;" class="Space Kitchen Open"><polygon points="565.70,445.92 559.33,445.92 559.33,737.68 180.38,737.68 180.38,345.04 565.70,345.04 "/><g transform="matrix(1,0,0,1,180.3783,345.0441)" class="Dimension"><g transform="matrix(1,0,0,1,0,0)" style="display: none;" class="Visual"><g id="mark1" fill="#000000" stroke="none" transform="matrix(1,0,0,1,192.6613,0)" style="fill-opacity: 1; pointer-events: visible;" class="DimensionMark"><polygon points="-5,5,0,0,5,5"/></g><g id="mark2" fill="#000000" stroke="none" transform="matrix(1,0,0,1,378.9516,196.3198)" style="fill-opacity: 1; pointer-events: visible;" class="DimensionMark"><polygon points="-5,-5,0,0,-5,5"/></g><g id="mark3" fill="#000000" stroke="none" transform="matrix(1,0,0,1,192.6613,392.6395)" style="fill-opacity: 1; pointer-events: visible;" class="DimensionMark"><polygon points="-5,-5,0,0,5,-5"/></g><g id="mark4" fill="#000000" stroke="none" transform="matrix(1,0,0,1,0,196.3198)" style="fill-opacity: 1; pointer-events: visible;" class="DimensionMark"><polygon points="5,5,0,0,5,-5"/></g></g><g transform="matrix(1,0,0,1,164.0655,224.8309)" class="SpaceDimensionsLabel"><g id="NameLabel" style="display: block;" class="TextLabel NameLabel"><text x="0" y="0em" fill="#000000" stroke="none" style="font-family: Verdana; font-size: 33px; fill-opacity: 1; cursor: default;">TUPAK</text></g><g id="DimensionMeasureLabel" transform="matrix(1,0,0,1,-85.7344,79.5625)" style="display: none;" class="TextLabel DimensionMeasureLabel"><text x="21.203125" y="-1.2em" fill="#000000" stroke="none" style="font-family: Verdana; font-size: 33px; fill-opacity: 1; cursor: default;">12'5" x 12'11"</text><text x="0" y="0em" fill="#000000" stroke="none" style="font-family: Verdana; font-size: 33px; fill-opacity: 1; cursor: default;">3.79 m x 3.93 m</text></g></g></g></g><g id="60a76676-af9a-4fd5-8027-595e6ffe9b81" fill="#ffffff" stroke="#ffffff" style="fill-opacity: 1; stroke-opacity: 1; stroke-width: 0.2;" class="Space Entry Lobby"><polygon points="340.34,745.68 394.32,745.68 394.32,927.41 213.20,927.41 213.20,894.42 180.38,894.42 180.38,737.68 340.34,737.68 "/><g transform="matrix(1,0,0,1,180.3783,737.6836)" class="Dimension"><g transform="matrix(1,0,0,1,0,0)" style="display: none;" class="Visual"><g id="mark1" fill="#000000" stroke="none" transform="matrix(1,0,0,1,106.9687,0)" style="fill-opacity: 1; pointer-events: visible;" class="DimensionMark"><polygon points="-5,5,0,0,5,5"/></g><g id="mark2" fill="#000000" stroke="none" transform="matrix(1,0,0,1,213.9374,94.8642)" style="fill-opacity: 1; pointer-events: visible;" class="DimensionMark"><polygon points="-5,-5,0,0,-5,5"/></g><g id="mark3" fill="#000000" stroke="none" transform="matrix(1,0,0,1,106.9687,189.7283)" style="fill-opacity: 1; pointer-events: visible;" class="DimensionMark"><polygon points="-5,-5,0,0,5,-5"/></g><g id="mark4" fill="#000000" stroke="none" transform="matrix(1,0,0,1,0,94.8642)" style="fill-opacity: 1; pointer-events: visible;" class="DimensionMark"><polygon points="5,5,0,0,5,-5"/></g></g><g transform="matrix(1,0,0,1,81.1716,95.0181)" class="SpaceDimensionsLabel"><g id="NameLabel" style="display: block;" class="TextLabel NameLabel"><text x="0" y="0em" fill="#000000" stroke="none" style="font-family: Verdana; font-size: 33px; fill-opacity: 1; cursor: default;">ET</text></g><g id="DimensionMeasureLabel" transform="matrix(1,0,0,1,-119.0625,79.4532)" style="display: none;" class="TextLabel DimensionMeasureLabel"><text x="52.6640625" y="-1.2em" fill="#000000" stroke="none" style="font-family: Verdana; font-size: 33px; fill-opacity: 1; cursor: default;">7'0" x 6'3"</text><text x="0" y="0em" fill="#000000" stroke="none" style="font-family: Verdana; font-size: 33px; fill-opacity: 1; cursor: default;">2.14 m x 1.90 m</text></g></g></g></g><g id="dd8f2248-ea79-4335-9f46-038591093269" fill="#ffffff" stroke="#ffffff" style="fill-opacity: 1; stroke-opacity: 1; stroke-width: 0.2;" class="Space Alcove"><polygon points="730.80,586.03 565.70,586.03 565.70,345.04 730.80,345.04 "/><g transform="matrix(1,0,0,1,565.7008,345.0441)" class="Dimension"><g transform="matrix(1,0,0,1,0,0)" style="display: none;" class="Visual"><g id="mark1" fill="#000000" stroke="none" transform="matrix(1,0,0,1,82.5512,0)" style="fill-opacity: 1; pointer-events: visible;" class="DimensionMark"><polygon points="-5,5,0,0,5,5"/></g><g id="mark2" fill="#000000" stroke="none" transform="matrix(1,0,0,1,165.1024,120.492)" style="fill-opacity: 1; pointer-events: visible;" class="DimensionMark"><polygon points="-5,-5,0,0,-5,5"/></g><g id="mark3" fill="#000000" stroke="none" transform="matrix(1,0,0,1,82.5512,240.9839)" style="fill-opacity: 1; pointer-events: visible;" class="DimensionMark"><polygon points="-5,-5,0,0,5,-5"/></g><g id="mark4" fill="#000000" stroke="none" transform="matrix(1,0,0,1,0,120.492)" style="fill-opacity: 1; pointer-events: visible;" class="DimensionMark"><polygon points="5,5,0,0,5,-5"/></g></g><g transform="matrix(1,0,0,1,19.3871,136.4829)" class="SpaceDimensionsLabel"><g id="NameLabel" style="display: block;" class="TextLabel NameLabel"><text x="0" y="0em" fill="#000000" stroke="none" style="font-family: Verdana; font-size: 33px; fill-opacity: 1; cursor: default;">ALKOVI</text></g><g id="DimensionMeasureLabel" transform="matrix(1,0,0,1,-77.0546,79.5625)" style="display: none;" class="TextLabel DimensionMeasureLabel"><text x="42.1796875" y="-1.2em" fill="#000000" stroke="none" style="font-family: Verdana; font-size: 33px; fill-opacity: 1; cursor: default;">5'5" x 7'11"</text><text x="0" y="0em" fill="#000000" stroke="none" style="font-family: Verdana; font-size: 33px; fill-opacity: 1; cursor: default;">1.65 m x 2.41 m</text></g></g></g></g><g id="5a38f6ee-59c6-4a78-b014-7975c7e3802c" fill="#ffffff" stroke="#ffffff" style="fill-opacity: 1; stroke-opacity: 1; stroke-width: 0.2;" class="Space Bath"><polygon points="730.80,927.41 402.32,927.41 402.32,745.68 730.80,745.68 "/><g transform="matrix(1,0,0,1,402.3156,745.6836)" class="Dimension"><g transform="matrix(1,0,0,1,0,0)" style="display: none;" class="Visual"><g id="mark1" fill="#000000" stroke="none" transform="matrix(1,0,0,1,164.2438,0)" style="fill-opacity: 1; pointer-events: visible;" class="DimensionMark"><polygon points="-5,5,0,0,5,5"/></g><g id="mark2" fill="#000000" stroke="none" transform="matrix(1,0,0,1,328.4876,90.8642)" style="fill-opacity: 1; pointer-events: visible;" class="DimensionMark"><polygon points="-5,-5,0,0,-5,5"/></g><g id="mark3" fill="#000000" stroke="none" transform="matrix(1,0,0,1,164.2438,181.7283)" style="fill-opacity: 1; pointer-events: visible;" class="DimensionMark"><polygon points="-5,-5,0,0,5,-5"/></g><g id="mark4" fill="#000000" stroke="none" transform="matrix(1,0,0,1,0,90.8642)" style="fill-opacity: 1; pointer-events: visible;" class="DimensionMark"><polygon points="5,5,0,0,5,-5"/></g></g><g transform="matrix(1,0,0,1,97.6838,85.6183)" class="SpaceDimensionsLabel"><g id="NameLabel" style="display: block;" class="TextLabel NameLabel"><text x="0" y="0em" fill="#000000" stroke="none" style="font-family: Verdana; font-size: 33px; fill-opacity: 1; cursor: default;">KPH</text></g><g id="DimensionMeasureLabel" transform="matrix(1,0,0,1,-106.2188,79.5625)" style="display: none;" class="TextLabel DimensionMeasureLabel"><text x="42.1796875" y="-1.2em" fill="#000000" stroke="none" style="font-family: Verdana; font-size: 33px; fill-opacity: 1; cursor: default;">10'9" x 6'0"</text><text x="0" y="0em" fill="#000000" stroke="none" style="font-family: Verdana; font-size: 33px; fill-opacity: 1; cursor: default;">3.28 m x 1.82 m</text></g></g></g></g><g id="0c37ee88-9a8c-4693-bc27-6aa5209216ed" fill="#ffffff" stroke="#ffffff" style="fill-opacity: 1; stroke-opacity: 1; stroke-width: 0.2;" class="Space Undefined"><polygon points="730.80,724.68 580.33,724.68 580.33,605.18 730.80,605.18 "/><g transform="matrix(1,0,0,1,580.3299,605.1802)" class="Dimension"><g transform="matrix(1,0,0,1,0,0)" style="display: none;" class="Visual"><g id="mark1" fill="#000000" stroke="none" transform="matrix(1,0,0,1,75.2367,0)" style="fill-opacity: 1; pointer-events: visible;" class="DimensionMark"><polygon points="-5,5,0,0,5,5"/></g><g id="mark2" fill="#000000" stroke="none" transform="matrix(1,0,0,1,150.4733,59.7517)" style="fill-opacity: 1; pointer-events: visible;" class="DimensionMark"><polygon points="-5,-5,0,0,-5,5"/></g><g id="mark3" fill="#000000" stroke="none" transform="matrix(1,0,0,1,75.2367,119.5034)" style="fill-opacity: 1; pointer-events: visible;" class="DimensionMark"><polygon points="-5,-5,0,0,5,-5"/></g><g id="mark4" fill="#000000" stroke="none" transform="matrix(1,0,0,1,0,59.7517)" style="fill-opacity: 1; pointer-events: visible;" class="DimensionMark"><polygon points="5,5,0,0,5,-5"/></g></g><g transform="matrix(1,0,0,1,59.7517,59.7517)" class="SpaceDimensionsLabel"><g id="NameLabel" style="display: block;" class="TextLabel NameLabel"><text x="0" y="0em" fill="#000000" stroke="none" style="font-family: Verdana; font-size: 33px; fill-opacity: 1; cursor: default;">UNDEFINED</text></g><g id="DimensionMeasureLabel" transform="matrix(1,0,0,1,-40.5235,78.9687)" style="display: none;" class="TextLabel DimensionMeasureLabel"><text x="31.6953125" y="-1.2em" fill="#000000" stroke="none" style="font-family: Verdana; font-size: 33px; fill-opacity: 1; cursor: default;">4'11" x 3'11"</text><text x="0" y="0em" fill="#000000" stroke="none" style="font-family: Verdana; font-size: 33px; fill-opacity: 1; cursor: default;">1.50 m x 1.20 m</text></g></g></g></g><g id="Wall" fill="#000000" stroke="#000000" style="fill-opacity: 1; stroke-opacity: 1; stroke-width: 0.2;" class="Wall External"><polygon points="730.80,345.04 730.80,927.41 751.80,949.75 751.80,290.22 "/></g><g id="Wall" fill="#000000" stroke="#000000" style="fill-opacity: 1; stroke-opacity: 1; stroke-width: 0.2;" class="Wall External"><polygon points="180.38,927.41 180.38,345.04 159.38,301.98 159.38,949.75 "/></g><g id="Wall" fill="#000000" stroke="#000000" style="fill-opacity: 1; stroke-opacity: 1; stroke-width: 0.2;" class="Wall External"><polygon points="730.80,345.04 486.65,345.04 486.65,290.22 751.80,290.22 "/><g id="Window" fill="#f0f0ff" stroke="#000000" style="fill-opacity: 1; stroke-width: 1; stroke-opacity: 1;" class="Window Regular"><polygon points="702.44,345.04 573.15,345.04 573.15,290.22 702.44,290.22 "/><g id="Glass" class="Glass"><polygon points="702.44,345.04 573.15,345.04 573.15,290.22 702.44,290.22 "/></g><g id="Panel" class="Panel"><line x1="694.9418137033847" x2="580.6455741224914" y1="317.63193787974876" y2="317.63193787974876"/><line x1="694.9418137033847" x2="694.9418137033847" y1="345.04405701732776" y2="290.2198187421698"/><line x1="580.6455741224914" x2="580.6455741224914" y1="345.04405701732776" y2="290.2198187421698"/></g></g></g><g id="Wall" fill="#000000" stroke="#000000" style="fill-opacity: 1; stroke-opacity: 1; stroke-width: 0.2;" class="Wall External"><polygon points="486.65,345.04 180.38,345.04 159.38,301.98 486.65,301.98 "/><g id="Door" fill="#ffffff" stroke="#000000" style="fill-opacity: 1; stroke-width: 1; stroke-opacity: 1;" class="Door Swing Beside"><polygon points="330.92,345.04 241.18,345.04 241.18,301.98 330.92,301.98 "/><g id="Threshold" class="Threshold"><polygon points="330.92,345.04 241.18,345.04 241.18,301.98 330.92,301.98 "/></g><g id="Panel" fill="none" style="" class="Panel Right Positive"><g id="PanelArea" fill="none" stroke="none" style="" class="PanelArea"><polygon points="330.92,345.04 241.18,345.04 241.18,301.98 330.92,301.98 "/></g><path d="M330.92,301.98 q0.00,-89.74 -89.74,-89.74 l0.00,89.74Z"/></g></g><g id="Window" fill="#f0f0ff" stroke="#000000" style="fill-opacity: 1; stroke-width: 1; stroke-opacity: 1;" class="Window Regular"><polygon points="461.03,345.04 416.84,345.04 416.84,301.98 461.03,301.98 "/><g id="Glass" class="Glass"><polygon points="461.03,345.04 416.84,345.04 416.84,301.98 461.03,301.98 "/></g><g id="Panel" class="Panel"><line x1="453.5342777770335" x2="424.34442374305735" y1="323.5144141015154" y2="323.5144141015154"/><line x1="453.5342777770335" x2="453.5342777770335" y1="345.04405701732776" y2="301.98477118570304"/><line x1="424.34442374305735" x2="424.34442374305735" y1="345.04405701732776" y2="301.98477118570304"/></g></g><g id="Window" fill="#f0f0ff" stroke="#000000" style="fill-opacity: 1; stroke-width: 1; stroke-opacity: 1;" class="Window Regular"><polygon points="416.84,345.04 336.92,345.04 336.92,301.98 416.84,301.98 "/><g id="Glass" class="Glass"><polygon points="416.84,345.04 336.92,345.04 336.92,301.98 416.84,301.98 "/></g><g id="Panel" class="Panel"><line x1="409.34442374305735" x2="344.42079885444616" y1="323.5144141015154" y2="323.5144141015154"/><line x1="409.34442374305735" x2="409.34442374305735" y1="345.04405701732776" y2="301.98477118570304"/><line x1="344.42079885444616" x2="344.42079885444616" y1="345.04405701732776" y2="301.98477118570304"/></g></g></g><g id="Wall" fill="#000000" stroke="#000000" style="fill-opacity: 1; stroke-opacity: 1; stroke-width: 0.2;" class="Wall"><polygon points="751.80,586.03 565.70,586.03 559.33,605.18 751.80,605.18 "/></g><g id="Wall" fill="#000000" stroke="#000000" style="fill-opacity: 1; stroke-opacity: 1; stroke-width: 0.2;" class="Wall"><polygon points="559.33,586.03 559.33,737.68 580.33,745.68 580.33,586.03 "/></g><g id="Wall" fill="#000000" stroke="#000000" style="fill-opacity: 1; stroke-opacity: 1; stroke-width: 0.2;" class="Wall"><polygon points="559.33,745.68 751.80,745.68 751.80,724.68 559.33,724.68 "/><g id="Door" fill="#ffffff" stroke="#000000" style="fill-opacity: 1; stroke-width: 1; stroke-opacity: 1;" class="Door Swing Beside"><polygon points="581.70,745.68 658.45,745.68 658.45,724.68 581.70,724.68 "/><g id="Threshold" class="Threshold"><polygon points="581.70,745.68 658.45,745.68 658.45,724.68 581.70,724.68 "/></g><g id="Panel" fill="none" style="" class="Panel Left Negative"><g id="PanelArea" fill="none" stroke="none" style="" class="PanelArea"><polygon points="581.70,745.68 658.45,745.68 658.45,724.68 581.70,724.68 "/></g><path d="M581.70,745.68 q0.00,76.75 76.75,76.75 l0.00,-76.75Z"/></g></g></g><g id="Wall" fill="#000000" stroke="#000000" style="fill-opacity: 1; stroke-opacity: 1; stroke-width: 0.2;" class="Wall"><polygon points="580.33,745.68 340.34,745.68 340.34,737.68 559.33,737.68 "/></g><g id="Wall" fill="#000000" stroke="#000000" style="fill-opacity: 1; stroke-opacity: 1; stroke-width: 0.2;" class="Wall"><polygon points="394.32,737.68 394.32,949.41 402.32,949.41 402.32,737.68 "/><g id="Door" fill="#ffffff" stroke="#000000" style="fill-opacity: 1; stroke-width: 1; stroke-opacity: 1;" class="Door Swing Beside"><polygon points="394.32,753.21 394.32,839.65 402.32,839.65 402.32,753.21 "/><g id="Threshold" class="Threshold"><polygon points="394.32,753.21 394.32,839.65 402.32,839.65 402.32,753.21 "/></g><g id="Panel" fill="none" style="" class="Panel Right Negative"><g id="PanelArea" fill="none" stroke="none" style="" class="PanelArea"><polygon points="394.32,753.21 394.32,839.65 402.32,839.65 402.32,753.21 "/></g><path d="M394.32,839.65 q-86.44,0.00 -86.44,-86.44 l86.44,0.00Z"/></g></g></g><g id="Wall" fill="#000000" stroke="#000000" style="fill-opacity: 1; stroke-opacity: 1; stroke-width: 0.2;" class="Wall"><polygon points="159.38,928.84 205.20,928.84 213.20,894.42 159.38,894.42 "/></g><g id="Wall" fill="#000000" stroke="#000000" style="fill-opacity: 1; stroke-opacity: 1; stroke-width: 0.2;" class="Wall"><polygon points="205.20,928.84 205.20,949.41 213.20,949.41 213.20,894.42 "/></g><g id="Wall" fill="#000000" stroke="#000000" style="fill-opacity: 1; stroke-opacity: 1; stroke-width: 0.2;" class="Wall"><polygon points="159.38,301.98 159.38,90.45 180.68,90.45 180.68,301.98 "/></g><g id="Railing" fill="#ffffff" stroke="#000000" style="fill-opacity: 1; stroke-opacity: 1; stroke-width: 0.2;" class="Railing"><polygon points="180.68,90.45 486.65,90.45 481.65,95.45 180.68,95.45 " style="stroke-dasharray: 305.975, 7.07107, 305.975;"/></g><g id="Railing" fill="#ffffff" stroke="#000000" style="fill-opacity: 1; stroke-opacity: 1; stroke-width: 0.2;" class="Railing"><polygon points="486.65,90.45 486.65,301.98 481.65,301.98 481.65,95.45 " style="stroke-dasharray: 423.072, 7.07107;"/></g><g id="Column" fill="#000000" stroke="none" style="fill-opacity: 1;" class="Column Rectangle"><polygon points="455.93,90.23 455.93,128.48 486.26,128.48 486.26,90.23 "/></g><g id="Column" fill="#000000" stroke="none" style="fill-opacity: 1;" class="Column Rectangle"><polygon points="486.48,250.68 457.50,250.68 457.50,281.25 486.48,281.25 "/></g><g id="Column" fill="#000000" stroke="none" style="fill-opacity: 1;" class="Column Rectangle"><polygon points="731.06,604.91 721.85,604.91 721.85,724.50 731.06,724.50 "/></g><g id="Wall" fill="#000000" stroke="#000000" style="fill-opacity: 1; stroke-opacity: 1; stroke-width: 0.2;" class="Wall External"><polygon points="751.80,949.75 159.38,949.75 180.38,927.41 730.80,927.41 "/><g id="Door" fill="#ffffff" stroke="#000000" style="fill-opacity: 1; stroke-width: 1; stroke-opacity: 1;" class="Door Swing Opposite"><polygon points="348.13,949.75 258.98,949.75 258.98,927.41 348.13,927.41 "/><g id="Threshold" class="Threshold"><polygon points="348.13,949.75 258.98,949.75 258.98,927.41 348.13,927.41 "/></g><g id="Panel" fill="none" style="" class="Panel Right Negative"><g id="PanelArea" fill="none" stroke="none" style="" class="PanelArea"><polygon points="348.13,949.75 258.98,949.75 258.98,927.41 348.13,927.41 "/></g><path d="M258.98,949.75 q0.00,89.16 89.16,89.16 l0.00,-89.16Z"/></g><g id="Panel" fill="none" style="" class="Panel Left Positive"><g id="PanelArea" fill="none" stroke="none" style="" class="PanelArea"><polygon points="348.13,949.75 258.98,949.75 258.98,927.41 348.13,927.41 "/></g><path d="M258.98,927.41 q0.00,-89.16 89.16,-89.16 l0.00,89.16Z"/></g></g></g><g id="Wall" fill="#000000" stroke="#000000" style="fill-opacity: 1; stroke-opacity: 1; stroke-width: 0.2;" class="Wall"><polygon points="559.33,605.18 559.33,445.92 565.70,445.92 565.70,586.03 "/></g><g class="FixedFurniture Closet" fill="#ffffff" stroke="#000000" transform="matrix(0,-1,1,0,180.5345,806.1839)" style="fill-opacity: 1; stroke-opacity: 1;">
        <g class="BoundaryPolygon">
            <polygon points="0.00,0.00 54.47,0.00 54.47,58.24 0.00,58.24 "/>
        </g>
        <g class="Direction" fill-opacity="0.9" style="display: none;">
            <polygon points="28.61,53.09 28.61,42.47 25.60,42.47 25.60,53.09 21.80,53.09 27.10,58.39 32.40,53.09 28.61,53.09 " fill="#444444"/>
        </g> 
        <g class="Name" fill-opacity="0.9" style="display: none;">
            <text transform="translate(3 12)" font-size="12" font-family="Verdana, Sans-Serif">CL</text>
        </g>
        <desc>Width:60 Height:200 Depth:60 Elevation:0</desc>
     </g><g class="FixedFurniture CoatCloset" fill="#ffffff" stroke="#000000" transform="matrix(0,-1,1,0,180.4251,888.6139)" style="fill-opacity: 1; stroke-opacity: 1;">
        <g class="BoundaryPolygon">
            <polygon points="0.00,0.00 82.43,0.00 82.43,58.27 0.00,58.27 "/>
        </g>
        <g class="Hanger" fill="#ffffff" stroke="#9a9a9a" stroke-dasharray="5,5">
            <line x1="0" y1="29.137339573741308" x2="82.42583837373786" y2="29.137339573741308"/>
        </g>
        <g class="Direction" fill-opacity="0.9" style="display: none;">
            <polygon points="42.25,52.95 42.25,42.33 39.24,42.33 39.24,52.95 35.44,52.95 40.74,58.25 46.04,52.95 42.25,52.95 " fill="#444444"/>
        </g> 
        <g class="Name" fill-opacity="0.9" style="display: none;">
            <text transform="translate(3 12)" font-size="12" font-family="Verdana, Sans-Serif">CWH</text>
        </g>
        <desc>Width:120 Height:200 Depth:60 Elevation:0</desc>
     </g><g class="FixedFurniture Closet" fill="#ffffff" stroke="#000000" transform="matrix(0,-1,1,0,180.4095,751.7095)" style="fill-opacity: 1; stroke-opacity: 1;">
        <g class="BoundaryPolygon">
            <polygon points="0.00,0.00 62.92,0.00 62.92,58.24 0.00,58.24 "/>
        </g>
        <g class="Direction" fill-opacity="0.9" style="display: none;">
            <polygon points="33.05,53.09 33.05,42.47 30.04,42.47 30.04,53.09 26.24,53.09 31.54,58.39 36.84,53.09 33.05,53.09 " fill="#444444"/>
        </g> 
        <g class="Name" fill-opacity="0.9" style="display: none;">
            <text transform="translate(3 12)" font-size="12" font-family="Verdana, Sans-Serif">CL</text>
        </g>
        <desc>Width:60 Height:200 Depth:60 Elevation:0</desc>
     </g><g class="FixedFurniture Closet" fill="#ffffff" stroke="#000000" transform="matrix(0,-1,1,0,180.4095,688.788)" style="fill-opacity: 1; stroke-opacity: 1;">
        <g class="BoundaryPolygon">
            <polygon points="0.00,0.00 50.67,0.00 50.67,58.24 0.00,58.24 "/>
        </g>
        <g class="Direction" fill-opacity="0.9" style="display: none;">
            <polygon points="26.61,53.09 26.61,42.47 23.60,42.47 23.60,53.09 19.80,53.09 25.10,58.39 30.40,53.09 26.61,53.09 " fill="#444444"/>
        </g> 
        <g class="Name" fill-opacity="0.9" style="display: none;">
            <text transform="translate(3 12)" font-size="12" font-family="Verdana, Sans-Serif">CL</text>
        </g>
        <desc>Width:60 Height:200 Depth:60 Elevation:0</desc>
     </g><g class="FixedFurniture BaseCabinet" fill="#ffffff" stroke="#000000" transform="matrix(0,-1,1,0,180.5345,638.1227)" style="fill-opacity: 1; stroke-opacity: 1;">
        <g class="BoundaryPolygon">
            <polygon points="0.00,0.00 223.52,0.00 223.52,58.22 0.00,58.22 "/>
        </g>
        <g class="Direction" fill-opacity="0.9" style="display: none;">
            <polygon points="119.25,53.56 119.25,42.94 116.24,42.94 116.24,53.56 112.43,53.56 117.74,58.36 123.04,53.56 119.25,53.56 " fill="#444444"/>
        </g> 
        <g class="Name" fill-opacity="0.9" style="display: none;">
            <text transform="translate(3 12)" font-size="12" font-family="Verdana, Sans-Serif">CB</text>
        </g>
        <desc>Width:60 Height:90 Depth:60 Elevation:0</desc>
    </g><g class="FixedFurniture ElectricalAppliance Refrigerator" fill="#ffffff" stroke="#000000" transform="matrix(0,-1,0.975,0,180.3783,414.601)" style="fill-opacity: 1; stroke-opacity: 1;">
        <g class="BoundaryPolygon">
            <polygon points="0,0 60,0 60,60 0,60"/>
        </g>
        <g class="electricitySign" fill="none">
            <path d="M0,0,30,37.1v-18L60,56.3"/>
        </g>
        <g class="Doors">
            <rect y="56" width="60" height="4"/>
        </g>
        <g class="Direction" fill-opacity="0.9" style="display: none;">
            <polygon points="32.009 55.197 32.009 44.581 29 44.581 29 55.197 25.197 55.197 30.5 60 35.803 55.197 32.009 55.197" fill="#444444"/>
        </g> 
        <g class="Name" fill-opacity="0.9" style="display: none;">
            <text transform="translate(3 12)" font-size="12" font-family="Verdana, Sans-Serif">REF</text>
        </g>
        <desc>Width:60 Height:170 Depth:60 Elevation:0</desc>
    </g><g class="FixedFurniture Housing" fill="#ffffff" stroke="#000000" transform="matrix(0,-0.922,0.9778,0,180.3825,354.768)" style="fill-opacity: 1; stroke-opacity: 1;">
        <g class="BoundaryPolygon">
            <polygon points="0,0 10,0 10,60 0,60"/>
        </g> 
        <g class="Name" fill-opacity="0.9" style="display: none;">
            <text transform="translate(3 12)" font-size="12" font-family="Verdana, Sans-Serif">EMPTY</text>
        </g>
        <desc>Width:60 Height:200 Depth:60 Elevation:0</desc>
     </g><g class="FixedFurniture ElectricalAppliance IntegratedStove" fill="#ffffff" stroke="#000000" transform="matrix(0,-1,1,0,178.3183,517.0922)" style="fill-opacity: 1; stroke-opacity: 1;">
        <g class="BoundaryPolygon" fill="none" stroke="none">
            <polygon points="0.00,0.00 61.66,0.00 61.66,62.50 0.00,62.50 "/>
        </g>
        <g class="InnerPolygon">
            <polygon points="2.00,2.00 59.60,2.00 59.60,60.42 2.00,60.42 "/>
        </g>
        <g class="OuterCircle">
            <circle cx="16.44158384383288" cy="16.66752048769973" r="8"/>
            <circle cx="45.21435557054041" cy="16.66752048769973" r="8"/>
            <circle cx="16.44158384383288" cy="45.835681341174265" r="8"/>
            <circle cx="45.21435557054041" cy="45.835681341174265" r="8"/>
        </g>
        <g class="Direction" fill-opacity="0.9" style="display: none;">
            <polygon points="32.89,57.50 32.89,46.88 29.88,46.88 29.88,57.50 26.08,57.50 31.38,62.30 36.69,57.50 32.89,57.50 " fill="#444444"/>
        </g> 
        <g class="Name" fill-opacity="0.9" style="display: none;">
            <text transform="translate(3 12)" font-size="12" font-family="Verdana, Sans-Serif">INT_STOVE</text>
        </g>
        <desc>Width:60 Height:90 Depth:30 Elevation:0</desc>
    </g><g class="FixedFurniture ElectricalAppliance SpaceForAppliance" fill="#ffffff" stroke="#000000" transform="matrix(0,-1,0.9666,0,180.7601,577.9268)" style="fill-opacity: 1; stroke-opacity: 1;">
	    <g class="BoundaryPolygon"> 
		    <polygon points="0,0 60,0 60,60 0,60"/>
		</g>	
	    <g class="electricitySign" fill="none" stroke-dasharray="4,4">
            <path d="M0,0,30.1,39.8V19.4L59.9,60"/>
		</g>
        <g class="Direction" fill-opacity="0.9" style="display: none;">
            <polygon points="32.009 55.197 32.009 44.581 29 44.581 29 55.197 25.197 55.197 30.5 60 35.803 55.197 32.009 55.197" fill="#444444"/>
        </g> 
        <g class="Name" fill-opacity="0.9" style="display: none;">
            <text transform="translate(3 12)" font-size="12" font-family="Verdana, Sans-Serif">SFA</text>
        </g>
        <desc>Width:60 Height:90 Depth:60 Elevation:0</desc>
	</g><g class="FixedFurniture DoubleSinkRight" fill="#ffffff" stroke="#000000" transform="matrix(0,-1,1,0,180.55,638.746)" style="fill-opacity: 1; stroke-opacity: 1;">
        <g class="BoundaryPolygon" fill="none" stroke="none">
            <polygon points="0.00,0.00 60.82,0.00 60.82,51.32 0.00,51.32 0.00,0.00 "/>
        </g>
        <g class="InnerPolygonLeft">
            <polygon points="4.34,9.90 21.72,9.90 21.72,46.96 4.34,46.96 "/>
        </g>
        <g class="InnerPolygonRight">
            <polygon points="24.33,10.00 56.47,10.00 56.47,47.05 24.33,47.05 "/>
        </g>
        <g class="OuterDrain" stroke-width="0.8">
            <circle cx="13.032686375153393" cy="27.799543232447775" r="3.5"/>
            <circle cx="39.966904883803736" cy="27.799543232447775" r="3.5"/>
        </g>
        <g class="InnerDrain" stroke-width="0.8">
            <circle cx="13.032686375153393" cy="27.799543232447775" r="2"/>
            <circle cx="39.966904883803736" cy="27.799543232447775" r="2"/>
        </g>
        <g class="Faucet">
            <polygon points="27.80,4.19 33.80,4.19 33.80,18.19 27.80,18.19 "/>
        </g>
        <g class="Direction" fill-opacity="0.9" style="display: none;">
            <polygon points="31.72,46.79 31.72,36.17 28.71,36.17 28.71,46.79 24.91,46.79 30.21,52.09 35.51,46.79 31.72,46.79 " fill="#444444"/>
        </g> 
        <g class="Name" fill-opacity="0.9" style="display: none;">
            <text transform="translate(3 12)" font-size="12" font-family="Verdana, Sans-Serif">DSINK</text>
        </g>
        <desc>Width:70 Height:90 Depth:60 Elevation:0</desc>
    </g><g class="FixedFurniture WallCabinet" fill="#ffffff" stroke="#000000" transform="matrix(0,-1,1,0,180.3782,638.241)" style="fill-opacity: 0.7; stroke-opacity: 1;">	
        <g class="BoundaryPolygon">
            <polygon points="0.00,0.00 223.64,0.00 223.64,30.00 0.00,30.00 "/>
        </g>
        <g class="Direction" fill-opacity="0.9" style="display: none;">
            <polygon points="119.31,25.20 119.31,14.58 116.30,14.58 116.30,25.20 112.50,25.20 117.80,30.00 123.10,25.20 119.31,25.20 " fill="#444444"/>
        </g> 
        <g class="Name" fill-opacity="0.9" style="display: none;">
            <text transform="translate(3 12)" font-size="12" font-family="Verdana, Sans-Serif">UC</text>
        </g>
        <desc>Width:60 Height:60 Depth:30 Elevation:140</desc>
    </g><g class="FixedFurniture ElectricalAppliance SpaceForAppliance" fill="#ffffff" stroke="#000000" transform="matrix(-1,0,0,-1,462.3156,927.3806)" style="fill-opacity: 1; stroke-opacity: 1;">
	    <g class="BoundaryPolygon"> 
		    <polygon points="0,0 60,0 60,60 0,60"/>
		</g>	
	    <g class="electricitySign" fill="none" stroke-dasharray="4,4">
            <path d="M0,0,30.1,39.8V19.4L59.9,60"/>
		</g>
        <g class="Direction" fill-opacity="0.9" style="display: none;">
            <polygon points="32.009 55.197 32.009 44.581 29 44.581 29 55.197 25.197 55.197 30.5 60 35.803 55.197 32.009 55.197" fill="#444444"/>
        </g> 
        <g class="Name" fill-opacity="0.9" style="display: none;">
            <text transform="translate(3 12)" font-size="12" font-family="Verdana, Sans-Serif">SFA</text>
        </g>
        <desc>Width:60 Height:90 Depth:60 Elevation:0</desc>
	</g><g id="FixedFurnitureSet" transform="matrix(-1,0,0,-1,560.4342,927.3806)" class="FixedFurnitureSet" fill="#ffffff" stroke="#000000" style="fill-opacity: 0.4; stroke-opacity: 0.4;"><g class="FixedFurniture BaseCabinet" fill="#ffffff" stroke="#000000" transform="matrix(1,0,0,1,0,0)" style="fill-opacity: 1; stroke-opacity: 1;">
        <g class="BoundaryPolygon">
            <polygon points="0.00,0.00 62.41,0.00 62.41,49.30 0.00,49.30 "/>
        </g>
        <g class="Direction" fill-opacity="0.9" style="display: none;">
            <polygon points="33.29,45.35 33.29,34.74 30.28,34.74 30.28,45.35 26.48,45.35 31.78,50.16 37.09,45.35 33.29,45.35 " fill="#444444"/>
        </g> 
        <g class="Name" fill-opacity="0.9" style="display: none;">
            <text transform="translate(3 12)" font-size="12" font-family="Verdana, Sans-Serif">CB</text>
        </g>
        <desc>Width:60 Height:5 Depth:60 Elevation:105</desc>
    </g><g class="FixedFurniture Sink" fill="#ffffff" stroke="#000000" transform="matrix(1,0,0,1,0,0)" style="fill-opacity: 1; stroke-opacity: 1;">
        <g class="BoundaryPolygon" fill="none" stroke="none">
        <polygon points="0.00,0.00 62.41,0.00 62.41,49.30 0.00,49.30 "/>
        </g>
        <g class="InnerPolygon">
            <polygon points="5.20,9.70 57.21,9.70 57.21,44.95 5.20,44.95 "/>
        </g>
        <g class="OuterDrain" stroke-width="0.8">
            <circle cx="31.204287355695865" cy="26.45809385709289" r="3.5"/>
        </g>
        <g class="InnerDrain" stroke-width="0.8">
            <circle cx="31.204287355695865" cy="26.45809385709289" r="2"/>
        </g>
        <g class="Faucet">
            <polygon points="28.08,4.11 34.08,4.11 34.08,18.11 28.08,18.11 "/>
        </g>
        <g class="Direction" fill-opacity="0.9" style="display: none;">
            <polygon points="33.29,45.35 33.29,34.74 30.28,34.74 30.28,45.35 26.48,45.35 31.78,50.16 37.09,45.35 33.29,45.35 " fill="#444444"/>
        </g> 
        <g class="Name" fill-opacity="0.9" style="display: none;">
            <text transform="translate(3 12)" font-size="12" font-family="Verdana, Sans-Serif">SINK</text>
        </g>
        <desc>Width:60 Height:90 Depth:60 Elevation:0</desc>
    </g></g><g class="FixedFurniture Toilet" fill="#ffffff" stroke="#000000" transform="matrix(-1,0,0,-1,622.9149,927.4119)" style="fill-opacity: 1; stroke-opacity: 1;">
	   <g class="BoundaryPolygon" fill="none" stroke="none"> 
            <polygon points="0,0 41,0 41,71 0,71"/>
		</g>
        <g class="InnerPolygon">
            <rect x="0.502" y="0.5" width="39.989" height="17.98"/>
            <path d="M40.491,44.237S41.619,70.5,20.907,70.5C-.523,70.5.6,44.237.6,44.237L.5,18.48H40.491Z"/>
            <rect x="17.318" y="7.975" width="6.357" height="3.03"/>
        </g>
        <desc>Width:41 Height:85 Depth:71 Elevation:0</desc>
    </g><g class="FixedFurniture ShowerScreen" fill="#ffffff" stroke="#000000" transform="matrix(1,0,0,1.3944,641.2443,843.7479)" style="fill-opacity: 1; stroke-opacity: 1;">
        <g class="BoundaryPolygon">
            <polygon points="0,0 2.5,0 2.5,60 0,60"/>
        </g>
	    <g class="InnerPolygon" stroke-linejoin="round"> 
			<rect width="2.5" height="60"/>
	    </g> 
        <desc>Width:2.5 Height:180 Depth:60 Elevation:135</desc>
    </g><g class="FixedFurniture Shower" fill="#ffffff" stroke="#000000" transform="matrix(-1,0,0,-1,705.3308,927.4119)" style="fill-opacity: 1; stroke-opacity: 1;"> 
	    <g class="BoundaryPolygon" fill="none" stroke="none">
            <polygon points="0,0 32,0 32,19 0,19"/>
        </g>
        <g class="InnerPolygon"> 
			<rect x="3.7" y="0.5" width="11.2" height="6.1"/>
			<rect x="17.6" y="0.5" width="11.2" height="6.1"/>
			<rect x="28.7" y="0.5" width="3.4" height="6.1"/>
			<rect x="0.5" y="0.5" width="3.2" height="6.1"/>
			<path d="M14.9,8.5c0,1.5-0.4,3.3-1.6,5    c-0.4,0.6-1,1.1-1.1,1.7c-0.2,1.1,0.3,2.8,2.5,3.2c0.5,0.1,1.3,0.1,1.6,0.1h-0.1c0.3,0,1.1,0,1.6-0.1c2.2-0.4,2.7-2.1,2.5-3.2    c-0.1-0.6-0.7-1.1-1.1-1.7c-1.2-1.7-1.6-3.5-1.6-5"/>
			<path d="M12.2,15.3c0.1,0.2,1.6,1.9,4.2,1.9 c2.4-0.1,3.7-1.7,3.9-1.9"/>
			<path d="M14.9,0.5h2.7v8c-0.9,0-1.8,0-2.7,0l0,0 C14.9,5.9,14.9,3.2,14.9,0.5z"/>
		</g>
	    <g class="Indicator"> 
			<path d="M3.7,3.6C5,3.1,5.2,3,5.2,3 c0,1.1,0,0,0,1.1C5.2,4.1,5.1,4.1,3.7,3.6"/>
			<path d="M28.7,3.6 C27.4,3.1,27.2,3,27.2,3c0,1.1,0,0,0,1.1C27.2,4.1,27.3,4.1,28.7,3.6"/>	
		</g>
        <desc>Width:32 Height:97 Depth:19 Elevation:135</desc>
	</g><g class="FixedFurniture ElectricalAppliance TumbleDryer" fill="#ffffff" stroke="#000000" transform="matrix(0,0.9412,-0.8199,0,730.7392,745.6836)" style="fill-opacity: 1; stroke-opacity: 1;">
	   <g class="BoundaryPolygon"> 
		    <polygon points="0,0 60,0 60,60 0,60"/>
        </g>
	    <g class="electricitySign" fill="none">
            <path d="M.5.5l30,40.832V20.866L60.5,60.4"/>
		</g>
	    <g class="Handle"> 
		    <rect x="5.8" y="58.803" width="49.4" height="1.697"/>
		</g>
        <g class="Direction" fill-opacity="0.9" style="display: none;">
            <polygon points="32.009 55.197 32.009 44.581 29 44.581 29 55.197 25.197 55.197 30.5 60 35.803 55.197 32.009 55.197" fill="#444444"/>
        </g> 
        <g class="Name" fill-opacity="0.9" style="display: none;">
            <text transform="translate(3 12)" font-size="12" font-family="Verdana, Sans-Serif">DR</text>
        </g>
        <desc>Width:60 Height:90 Depth:60 Elevation:0</desc>
	</g><g class="FixedFurniture ElectricalAppliance SaunaStove" fill="#ffffff" stroke="#000000" transform="matrix(0,-0.9654,1.1591,0,580.4748,675.312)" style="fill-opacity: 1; stroke-opacity: 1;"> 
	   <g class="BoundaryPolygon"> 
		    <polygon points="0,0 60,0 60,35 0,35"/>
		</g>
	    <g class="electricitySign" fill="none">
		    <polyline points="0 35 39.7 17.5 21.4 17.5 60 0"/>
		</g>
        <g class="Direction" fill-opacity="0.9" style="display: none;">
            <polygon points="31.509 29.697 31.509 19.081 28.5 19.081 28.5 29.697 24.697 29.697 30 35 35.303 29.697 31.509 29.697" fill="#444444"/>
        </g> 
        <g class="Name" fill-opacity="0.9" style="display: none;">
            <text transform="translate(3 12)" font-size="12" font-family="Verdana, Sans-Serif">SS</text>
        </g>
        <desc>Width:60 Height:60 Depth:35 Elevation:20</desc>
	</g><g class="FixedFurniture SaunaBenchLow" fill="#ffffff" stroke="#000000" transform="matrix(0.5446,0.8387,-0.8387,0.5446,663.9844,654.5296)" style="fill-opacity: 1; stroke-opacity: 1;">
        <g class="BoundaryPolygon">
            <polygon points="0.00,0.00 57.97,0.00 57.97,40.00 0.00,40.00 "/>
        </g>
        <g class="Bench" stroke="#9a9a9a" stroke-width="0.5">
            <line x1="0" y1="4" x2="57.96702541846298" y2="4"/>
            <line x1="0" y1="8" x2="57.96702541846298" y2="8"/>
            <line x1="0" y1="12" x2="57.96702541846298" y2="12"/>
            <line x1="0" y1="16" x2="57.96702541846298" y2="16"/>
            <line x1="0" y1="20" x2="57.96702541846298" y2="20"/>
            <line x1="0" y1="24" x2="57.96702541846298" y2="24"/>
            <line x1="0" y1="28" x2="57.96702541846298" y2="28"/>
            <line x1="0" y1="32" x2="57.96702541846298" y2="32"/>
            <line x1="0" y1="36" x2="57.96702541846298" y2="36"/>
        </g>
        <g class="Direction" fill-opacity="0.9" style="display: none;">
            <polygon points="29.98,34.66 29.98,24.04 26.97,24.04 26.97,34.66 23.16,34.66 28.47,39.96 33.77,34.66 29.98,34.66 " fill="#444444"/>
        </g> 
        <g class="Name" fill-opacity="0.9" style="display: none;">
            <text transform="translate(3 12)" font-size="12" font-family="Verdana, Sans-Serif">SB_LOW</text>
        </g>
        <desc>Width:91 Height:5 Depth:40 Elevation:30</desc>
    </g><g class="FixedFurniture SaunaBenchHigh" fill="#ffffff" stroke="#000000" transform="matrix(0,1,-1,0,721.85,605.6131)" style="fill-opacity: 1; stroke-opacity: 1;">
        <g class="BoundaryPolygon">
            <polygon points="0.00,0.00 119.07,0.00 119.07,60.00 0.00,60.00 "/> 
        </g>
        <g class="Bench" stroke="#9a9a9a" stroke-width="0.5">
            <line x1="0" y1="4" x2="119.0704874236553" y2="4"/>
            <line x1="0" y1="8" x2="119.0704874236553" y2="8"/>
            <line x1="0" y1="12" x2="119.0704874236553" y2="12"/>
            <line x1="0" y1="16" x2="119.0704874236553" y2="16"/>
            <line x1="0" y1="20" x2="119.0704874236553" y2="20"/>
            <line x1="0" y1="24" x2="119.0704874236553" y2="24"/>
            <line x1="0" y1="28" x2="119.0704874236553" y2="28"/>
            <line x1="0" y1="32" x2="119.0704874236553" y2="32"/>
            <line x1="0" y1="36" x2="119.0704874236553" y2="36"/>
            <line x1="0" y1="40" x2="119.0704874236553" y2="40"/>
            <line x1="0" y1="44" x2="119.0704874236553" y2="44"/>
            <line x1="0" y1="48" x2="119.0704874236553" y2="48"/>
            <line x1="0" y1="52" x2="119.0704874236553" y2="52"/>
            <line x1="0" y1="56" x2="119.0704874236553" y2="56"/>
        </g>
         <g class="Direction" fill-opacity="0.9" style="display: none;">
            <polygon points="61.41,54.66 61.41,44.04 58.40,44.04 58.40,54.66 54.60,54.66 59.90,59.96 65.20,54.66 61.41,54.66 " fill="#444444"/>
        </g> 
        <g class="Name" fill-opacity="0.9" style="display: none;">
            <text transform="translate(3 12)" font-size="12" font-family="Verdana, Sans-Serif">SB_HIGH</text>
        </g>
        <desc>Width:185 Height:5 Depth:60 Elevation:105</desc>
    </g><g class="FixedFurniture SaunaBenchMid" fill="#ffffff" stroke="#000000" transform="matrix(0,1,-1,0,661.8187,605.1802)" style="fill-opacity: 1; stroke-opacity: 1;">
        <g class="BoundaryPolygon">
            <polygon points="0.00,0.00 71.38,0.00 71.38,31.44 0.00,31.44 "/>
        </g>
        <g class="Bench" stroke="#9a9a9a" stroke-width="0.5">
            <line x1="0" y1="3.144266256487914" x2="71.37772566008444" y2="3.144266256487914"/>
            <line x1="0" y1="6.288532512975828" x2="71.37772566008444" y2="6.288532512975828"/>
            <line x1="0" y1="9.432798769463735" x2="71.37772566008444" y2="9.432798769463735"/>
            <line x1="0" y1="12.577065025951656" x2="71.37772566008444" y2="12.577065025951656"/>
            <line x1="0" y1="15.721331282439564" x2="71.37772566008444" y2="15.721331282439564"/>
            <line x1="0" y1="18.86559753892747" x2="71.37772566008444" y2="18.86559753892747"/>
            <line x1="0" y1="22.009863795415402" x2="71.37772566008444" y2="22.009863795415402"/>
            <line x1="0" y1="25.154130051903312" x2="71.37772566008444" y2="25.154130051903312"/>
            <line x1="0" y1="28.298396308391226" x2="71.37772566008444" y2="28.298396308391226"/>
        </g>
        <g class="Direction" fill-opacity="0.9" style="display: none;">
            <polygon points="36.27,27.24 36.27,16.63 33.26,16.63 33.26,27.24 29.46,27.24 34.76,32.55 40.07,27.24 36.27,27.24 " fill="#444444"/>
        </g> 
        <g class="Name" fill-opacity="0.9" style="display: none;">
            <text transform="translate(3 12)" font-size="12" font-family="Verdana, Sans-Serif">SB_MID</text>
        </g>
        <desc>Width:185 Height:5 Depth:40 Elevation:60</desc>
    </g><g fill="#0000ff" stroke="#0000ff" style="display: none;" class="SelectionControls"><g style="display: none;" class="rotateControl"><circle cx="330.543352972007" cy="112.74878218781885" r="5" style="stroke : none; fill-opacity: 0.5; cursor:crosshair"/></g><g style="display: none;" class="ResizeNControl"><circle cx="0" cy="0" r="5" style="stroke : none; fill-opacity: 0.5"/></g><g style="display: none;" class="ResizeNEControl"><circle cx="0" cy="0" r="5" style="stroke : none; fill-opacity: 0.5"/></g><g style="display: none;" class="ResizeEControl"><circle cx="0" cy="0" r="5" style="stroke : none; fill-opacity: 0.5"/></g><g style="display: none;" class="ResizeSEControl"><circle cx="0" cy="0" r="5" style="stroke : none; fill-opacity: 0.5"/></g><g style="display: none;" class="ResizeSControl"><circle cx="0" cy="0" r="5" style="stroke : none; fill-opacity: 0.5"/></g><g style="display: none;" class="ResizeSWControl"><circle cx="0" cy="0" r="5" style="stroke : none; fill-opacity: 0.5"/></g><g style="display: none;" class="ResizeWControl"><circle cx="0" cy="0" r="5" style="stroke : none; fill-opacity: 0.5"/></g><g style="display: none;" class="ResizeNWControl"><circle cx="0" cy="0" r="5" style="stroke : none; fill-opacity: 0.5"/></g><g style="display: none;" class="removeControl"><polygon style="stroke : none; fill-opacity: 0.1" points="247.86,142.75 413.22,142.75 413.22,182.72 247.86,182.72 "/></g><g style="display: none;" class="copyPasteControl"><polygon style="stroke : none; fill-opacity: 0.1"/></g><g style="display: none;" class="translateControl"><polygon style="stroke : none; fill-opacity: 0.1; cursor:move" points="247.86,142.75 413.22,142.75 413.22,182.72 247.86,182.72 "/></g></g><g fill="#0000ff" stroke="#0000ff" style="display: none;" class="SelectionControls"><polygon fill="none" stroke="#0000ff" style="" points="180.38,95.45 481.65,95.45 481.65,301.98 180.38,301.98 "/><g style="display: none;" class="rotateControl"><circle cx="331.01757250325704" cy="65.44863218781884" r="5" style="stroke : none; fill-opacity: 0.5; cursor:crosshair"/></g><g style="display: none;" class="ResizeNControl"><circle cx="0" cy="0" r="5" style="stroke : none; fill-opacity: 0.5"/></g><g style="display: none;" class="ResizeNEControl"><circle cx="0" cy="0" r="5" style="stroke : none; fill-opacity: 0.5"/></g><g style="display: none;" class="ResizeEControl"><circle cx="0" cy="0" r="5" style="stroke : none; fill-opacity: 0.5"/></g><g style="display: none;" class="ResizeSEControl"><circle cx="0" cy="0" r="5" style="stroke : none; fill-opacity: 0.5"/></g><g style="display: none;" class="ResizeSControl"><circle cx="0" cy="0" r="5" style="stroke : none; fill-opacity: 0.5"/></g><g style="display: none;" class="ResizeSWControl"><circle cx="0" cy="0" r="5" style="stroke : none; fill-opacity: 0.5"/></g><g style="display: none;" class="ResizeWControl"><circle cx="0" cy="0" r="5" style="stroke : none; fill-opacity: 0.5"/></g><g style="display: none;" class="ResizeNWControl"><circle cx="0" cy="0" r="5" style="stroke : none; fill-opacity: 0.5"/></g><g style="display: none;" class="removeControl"><polygon style="stroke : none; fill-opacity: 0.1"/></g><g style="display: none;" class="copyPasteControl"><polygon style="stroke : none; fill-opacity: 0.1"/></g><g style="display: none;" class="translateControl"><polygon style="stroke : none; fill-opacity: 0.1; cursor:move"/></g></g></g></g></g></svg>
