<?xml version="1.0"?>
<svg xmlns="http://www.w3.org/2000/svg" xmlns:xlink="http://www.w3.org/1999/xlink" height="764.6800003051758" version="1.1" width="1560.5507907867432" id="temp" viewBox="0 0 1560.5507907867432 764.6800003051758"><defs/><g id="Model" class="Model v1-1"><g class="Floor"><g id="Floor-1" class="Floorplan Floor-1"><g id="14c57a47-9eb8-43dc-84ee-49a8ada919d9" class="Space Undefined" fill="#ffffff" stroke="#ffffff" style="fill-opacity: 1; stroke-opacity: 1; stroke-width: 0.2;"><polygon points="1436.59,185.02 1435.50,506.26 1286.60,506.26 1286.60,185.02 1436.59,185.02 1436.59,185.02 "/><g transform="matrix(1,0,0,1,1286.6044,185.0241)" class="Dimension"><g class="Visual" style="display: none;" transform="matrix(1,0,0,1,0,0)"><g id="mark1" fill="#000000" stroke="none" transform="matrix(1,0,0,1,74.9935,0)" style="fill-opacity: 1; pointer-events: visible;" class="DimensionMark"><polygon points="-5,5,0,0,5,5"/></g><g id="mark2" fill="#000000" stroke="none" transform="matrix(1,0,0,1,149.4393,160.6157)" style="fill-opacity: 1; pointer-events: visible;" class="DimensionMark"><polygon points="-5,-5,0,0,-5,5"/></g><g id="mark3" fill="#000000" stroke="none" transform="matrix(1,0,0,1,74.9935,321.2351)" style="fill-opacity: 1; pointer-events: visible;" class="DimensionMark"><polygon points="-5,-5,0,0,5,-5"/></g><g id="mark4" fill="#000000" stroke="none" transform="matrix(1,0,0,1,0,160.6157)" style="fill-opacity: 1; pointer-events: visible;" class="DimensionMark"><polygon points="5,5,0,0,5,-5"/></g></g><g transform="matrix(1,0,0,1,74.9934,74.9935)" class="SpaceDimensionsLabel"><g id="NameLabel" class="TextLabel NameLabel" style="display: block;"><text x="0" y="0em" fill="#000000" stroke="none" style="font-family: Verdana; font-size: 33px; fill-opacity: 1; cursor: default;">UNDEFINED</text></g><g id="DimensionMeasureLabel" class="TextLabel DimensionMeasureLabel" style="display: none;" transform="matrix(1,0,0,1,-40.5156,79.3906)"><text x="31.6875" y="-1.2em" fill="#000000" stroke="none" style="font-family: Verdana; font-size: 33px; fill-opacity: 1; cursor: default;">4'11" x 10'6"</text><text x="0" y="0em" fill="#000000" stroke="none" style="font-family: Verdana; font-size: 33px; fill-opacity: 1; cursor: default;">1.49 m x 3.21 m</text></g></g></g></g><g id="d342d819-4f75-4857-b015-7f7a91d73633" fill="#ffffff" stroke="#ffffff" style="fill-opacity: 1; stroke-opacity: 1; stroke-width: 0.2;" class="Space Undefined"><polygon points="1264.67,506.26 778.81,506.26 778.81,65.93 1264.67,65.93 "/><g transform="matrix(1,0,0,1,778.8109,65.9328)" class="Dimension"><g class="Visual" style="display: none;" transform="matrix(1,0,0,1,0,0)"><g id="mark1" fill="#000000" stroke="none" transform="matrix(1,0,0,1,242.9298,0)" style="fill-opacity: 1; pointer-events: visible;" class="DimensionMark"><polygon points="-5,5,0,0,5,5"/></g><g id="mark2" fill="#000000" stroke="none" transform="matrix(1,0,0,1,485.8597,220.1632)" style="fill-opacity: 1; pointer-events: visible;" class="DimensionMark"><polygon points="-5,-5,0,0,-5,5"/></g><g id="mark3" fill="#000000" stroke="none" transform="matrix(1,0,0,1,242.9298,440.3263)" style="fill-opacity: 1; pointer-events: visible;" class="DimensionMark"><polygon points="-5,-5,0,0,5,-5"/></g><g id="mark4" fill="#000000" stroke="none" transform="matrix(1,0,0,1,0,220.1632)" style="fill-opacity: 1; pointer-events: visible;" class="DimensionMark"><polygon points="5,5,0,0,5,-5"/></g></g><g transform="matrix(1,0,0,1,242.9299,220.1631)" class="SpaceDimensionsLabel"><g id="NameLabel" class="TextLabel NameLabel" style="display: block;"><text x="0" y="0em" fill="#000000" stroke="none" style="font-family: Verdana; font-size: 33px; fill-opacity: 1; cursor: default;">UNDEFINED</text></g><g id="DimensionMeasureLabel" class="TextLabel DimensionMeasureLabel" style="display: none;" transform="matrix(1,0,0,1,-40.5235,79.9062)"><text x="21.203125" y="-1.2em" fill="#000000" stroke="none" style="font-family: Verdana; font-size: 33px; fill-opacity: 1; cursor: default;">15'11" x 14'5"</text><text x="0" y="0em" fill="#000000" stroke="none" style="font-family: Verdana; font-size: 33px; fill-opacity: 1; cursor: default;">4.86 m x 4.40 m</text></g></g></g></g><g id="3176cfc0-9b38-44f8-881d-5ba53502085d" fill="#ffffff" stroke="#ffffff" style="fill-opacity: 1; stroke-opacity: 1; stroke-width: 0.2;" class="Space Undefined"><polygon points="770.81,506.26 639.71,506.26 639.71,657.36 479.62,657.36 479.62,392.70 378.95,392.70 378.95,294.30 612.66,294.30 770.81,293.92 "/><g transform="matrix(1,0,0,1,378.9516,294.2991)" class="Dimension"><g class="Visual" style="display: none;" transform="matrix(1,0,0,1,0,0)"><g id="mark1" fill="#000000" stroke="none" transform="matrix(1,0,0,1,195.9297,0)" style="fill-opacity: 1; pointer-events: visible;" class="DimensionMark"><polygon points="-5,5,0,0,5,5"/></g><g id="mark2" fill="#000000" stroke="none" transform="matrix(1,0,0,1,391.8593,98.4045)" style="fill-opacity: 1; pointer-events: visible;" class="DimensionMark"><polygon points="-5,-5,0,0,-5,5"/></g><g id="mark3" fill="#000000" stroke="none" transform="matrix(1,0,0,1,195.9297,363.0639)" style="fill-opacity: 1; pointer-events: visible;" class="DimensionMark"><polygon points="-5,-5,0,0,5,-5"/></g><g id="mark4" fill="#000000" stroke="none" transform="matrix(1,0,0,1,0,98.4045)" style="fill-opacity: 1; pointer-events: visible;" class="DimensionMark"><polygon points="5,5,0,0,5,-5"/></g></g><g transform="matrix(1,0,0,1,212.598,111.4244)" class="SpaceDimensionsLabel"><g id="NameLabel" class="TextLabel NameLabel" style="display: block;"><text x="0" y="0em" fill="#000000" stroke="none" style="font-family: Verdana; font-size: 33px; fill-opacity: 1; cursor: default;">UNDEFINED</text></g><g id="DimensionMeasureLabel" class="TextLabel DimensionMeasureLabel" style="display: none;" transform="matrix(1,0,0,1,-40.5235,79.9062)"><text x="10.71875" y="-1.2em" fill="#000000" stroke="none" style="font-family: Verdana; font-size: 33px; fill-opacity: 1; cursor: default;">12'10" x 11'11"</text><text x="0" y="0em" fill="#000000" stroke="none" style="font-family: Verdana; font-size: 33px; fill-opacity: 1; cursor: default;">3.92 m x 3.63 m</text></g></g></g></g><g id="4e23d6a8-50cb-4c8e-8be9-5d46aaa89d8c" fill="#ffffff" stroke="#ffffff" style="fill-opacity: 1; stroke-opacity: 1; stroke-width: 0.2;" class="Space Undefined"><polygon points="471.62,657.36 37.99,657.36 37.99,400.70 471.62,400.70 "/><g transform="matrix(1,0,0,1,37.992,400.7036)" class="Dimension"><g class="Visual" style="display: none;" transform="matrix(1,0,0,1,0,0)"><g id="mark1" fill="#000000" stroke="none" transform="matrix(1,0,0,1,216.8117,0)" style="fill-opacity: 1; pointer-events: visible;" class="DimensionMark"><polygon points="-5,5,0,0,5,5"/></g><g id="mark2" fill="#000000" stroke="none" transform="matrix(1,0,0,1,433.6234,128.3297)" style="fill-opacity: 1; pointer-events: visible;" class="DimensionMark"><polygon points="-5,-5,0,0,-5,5"/></g><g id="mark3" fill="#000000" stroke="none" transform="matrix(1,0,0,1,216.8117,256.6594)" style="fill-opacity: 1; pointer-events: visible;" class="DimensionMark"><polygon points="-5,-5,0,0,5,-5"/></g><g id="mark4" fill="#000000" stroke="none" transform="matrix(1,0,0,1,0,128.3297)" style="fill-opacity: 1; pointer-events: visible;" class="DimensionMark"><polygon points="5,5,0,0,5,-5"/></g></g><g transform="matrix(1,0,0,1,216.8117,128.3297)" class="SpaceDimensionsLabel"><g id="NameLabel" class="TextLabel NameLabel" style="display: block;"><text x="0" y="0em" fill="#000000" stroke="none" style="font-family: Verdana; font-size: 33px; fill-opacity: 1; cursor: default;">UNDEFINED</text></g><g id="DimensionMeasureLabel" class="TextLabel DimensionMeasureLabel" style="display: none;" transform="matrix(1,0,0,1,-40.5235,79.9062)"><text x="42.1796875" y="-1.2em" fill="#000000" stroke="none" style="font-family: Verdana; font-size: 33px; fill-opacity: 1; cursor: default;">14'3" x 8'5"</text><text x="0" y="0em" fill="#000000" stroke="none" style="font-family: Verdana; font-size: 33px; fill-opacity: 1; cursor: default;">4.34 m x 2.57 m</text></g></g></g></g><g id="3b00bed6-c104-4605-8e93-feca4c9516cc" fill="#ffffff" stroke="#ffffff" style="fill-opacity: 1; stroke-opacity: 1; stroke-width: 0.2;" class="Space Undefined"><polygon points="370.95,392.70 37.99,392.70 37.99,65.93 370.95,65.93 "/><g transform="matrix(1,0,0,1,37.992,65.9328)" class="Dimension"><g class="Visual" style="display: none;" transform="matrix(1,0,0,1,0,0)"><g id="mark1" fill="#000000" stroke="none" transform="matrix(1,0,0,1,166.4798,0)" style="fill-opacity: 1; pointer-events: visible;" class="DimensionMark"><polygon points="-5,5,0,0,5,5"/></g><g id="mark2" fill="#000000" stroke="none" transform="matrix(1,0,0,1,332.9595,163.3854)" style="fill-opacity: 1; pointer-events: visible;" class="DimensionMark"><polygon points="-5,-5,0,0,-5,5"/></g><g id="mark3" fill="#000000" stroke="none" transform="matrix(1,0,0,1,166.4798,326.7708)" style="fill-opacity: 1; pointer-events: visible;" class="DimensionMark"><polygon points="-5,-5,0,0,5,-5"/></g><g id="mark4" fill="#000000" stroke="none" transform="matrix(1,0,0,1,0,163.3854)" style="fill-opacity: 1; pointer-events: visible;" class="DimensionMark"><polygon points="5,5,0,0,5,-5"/></g></g><g transform="matrix(1,0,0,1,166.4797,163.3854)" class="SpaceDimensionsLabel"><g id="NameLabel" class="TextLabel NameLabel" style="display: block;"><text x="0" y="0em" fill="#000000" stroke="none" style="font-family: Verdana; font-size: 33px; fill-opacity: 1; cursor: default;">UNDEFINED</text></g><g id="DimensionMeasureLabel" class="TextLabel DimensionMeasureLabel" style="display: none;" transform="matrix(1,0,0,1,-40.5235,79.9062)"><text x="21.203125" y="-1.2em" fill="#000000" stroke="none" style="font-family: Verdana; font-size: 33px; fill-opacity: 1; cursor: default;">10'11" x 10'9"</text><text x="0" y="0em" fill="#000000" stroke="none" style="font-family: Verdana; font-size: 33px; fill-opacity: 1; cursor: default;">3.33 m x 3.27 m</text></g></g></g></g><g id="304d03c8-1c08-4abe-a249-29f2c4a247f1" fill="#ffffff" stroke="#ffffff" style="fill-opacity: 1; stroke-opacity: 1; stroke-width: 0.2;" class="Space Undefined"><polygon points="604.22,286.90 378.95,286.90 378.95,201.85 410.36,201.85 410.36,65.93 604.22,65.93 "/><g transform="matrix(1,0,0,1,378.9516,65.9328)" class="Dimension"><g class="Visual" style="display: none;" transform="matrix(1,0,0,1,0,0)"><g id="mark1" fill="#000000" stroke="none" transform="matrix(1,0,0,1,112.6346,0)" style="fill-opacity: 1; pointer-events: visible;" class="DimensionMark"><polygon points="-5,5,0,0,5,5"/></g><g id="mark2" fill="#000000" stroke="none" transform="matrix(1,0,0,1,225.2692,135.9214)" style="fill-opacity: 1; pointer-events: visible;" class="DimensionMark"><polygon points="-5,-5,0,0,-5,5"/></g><g id="mark3" fill="#000000" stroke="none" transform="matrix(1,0,0,1,112.6346,220.9715)" style="fill-opacity: 1; pointer-events: visible;" class="DimensionMark"><polygon points="-5,-5,0,0,5,-5"/></g><g id="mark4" fill="#000000" stroke="none" transform="matrix(1,0,0,1,0,135.9214)" style="fill-opacity: 1; pointer-events: visible;" class="DimensionMark"><polygon points="5,5,0,0,5,-5"/></g></g><g transform="matrix(1,0,0,1,128.1807,121.2754)" class="SpaceDimensionsLabel"><g id="NameLabel" class="TextLabel NameLabel" style="display: block;"><text x="0" y="0em" fill="#000000" stroke="none" style="font-family: Verdana; font-size: 33px; fill-opacity: 1; cursor: default;">UNDEFINED</text></g><g id="DimensionMeasureLabel" class="TextLabel DimensionMeasureLabel" style="display: none;" transform="matrix(1,0,0,1,-40.5235,79.9062)"><text x="52.671875" y="-1.2em" fill="#000000" stroke="none" style="font-family: Verdana; font-size: 33px; fill-opacity: 1; cursor: default;">7'5" x 7'3"</text><text x="0" y="0em" fill="#000000" stroke="none" style="font-family: Verdana; font-size: 33px; fill-opacity: 1; cursor: default;">2.25 m x 2.21 m</text></g></g></g></g><g id="1147f380-541f-46a9-b62a-bba9db6f25c0" fill="#ffffff" stroke="#ffffff" style="fill-opacity: 1; stroke-opacity: 1; stroke-width: 0.2;" class="Space Undefined"><polygon points="770.84,285.92 612.66,286.00 612.66,102.33 646.86,102.33 646.86,65.93 770.84,65.93 "/><g transform="matrix(1,0,0,1,612.6588,65.9328)" class="Dimension"><g class="Visual" style="display: none;" transform="matrix(1,0,0,1,0,0)"><g id="mark1" fill="#000000" stroke="none" transform="matrix(1,0,0,1,79.0894,0)" style="fill-opacity: 1; pointer-events: visible;" class="DimensionMark"><polygon points="-5,5,0,0,5,5"/></g><g id="mark2" fill="#000000" stroke="none" transform="matrix(1,0,0,1,158.1788,110.0336)" style="fill-opacity: 1; pointer-events: visible;" class="DimensionMark"><polygon points="-5,-5,0,0,-5,5"/></g><g id="mark3" fill="#000000" stroke="none" transform="matrix(1,0,0,1,79.0894,220.0288)" style="fill-opacity: 1; pointer-events: visible;" class="DimensionMark"><polygon points="-5,-5,0,0,5,-5"/></g><g id="mark4" fill="#000000" stroke="none" transform="matrix(1,0,0,1,0,110.0336)" style="fill-opacity: 1; pointer-events: visible;" class="DimensionMark"><polygon points="5,5,0,0,5,-5"/></g></g><g transform="matrix(1,0,0,1,79.7072,119.2519)" class="SpaceDimensionsLabel"><g id="NameLabel" class="TextLabel NameLabel" style="display: block;"><text x="0" y="0em" fill="#000000" stroke="none" style="font-family: Verdana; font-size: 33px; fill-opacity: 1; cursor: default;">UNDEFINED</text></g><g id="DimensionMeasureLabel" class="TextLabel DimensionMeasureLabel" style="display: none;" transform="matrix(1,0,0,1,-40.5235,79.9062)"><text x="52.671875" y="-1.2em" fill="#000000" stroke="none" style="font-family: Verdana; font-size: 33px; fill-opacity: 1; cursor: default;">5'2" x 7'3"</text><text x="0" y="0em" fill="#000000" stroke="none" style="font-family: Verdana; font-size: 33px; fill-opacity: 1; cursor: default;">1.58 m x 2.20 m</text></g></g></g></g><g id="Wall" fill="#000000" stroke="#000000" style="fill-opacity: 1; stroke-opacity: 1; stroke-width: 0.2;" class="Wall External"><polygon points="1264.67,65.93 1264.67,506.26 1286.60,523.26 1286.60,47.93 "/><g id="Door" fill="#ffffff" stroke="#000000" style="fill-opacity: 1; stroke-width: 1; stroke-opacity: 1;" class="Door Swing Beside"><polygon points="1264.67,382.50 1264.67,463.66 1286.60,463.66 1286.60,382.50 "/><g id="Threshold" class="Threshold"><polygon points="1264.67,382.50 1264.67,463.66 1286.60,463.66 1286.60,382.50 "/></g><g id="Panel" fill="none" style="" class="Panel Left Negative"><g id="PanelArea" fill="none" stroke="none" style="" class="PanelArea"><polygon points="1264.67,382.50 1264.67,463.66 1286.60,463.66 1286.60,382.50 "/></g><path d="M1264.67,382.50 q-81.16,0.00 -81.16,81.16 l81.16,0.00Z"/></g></g><g id="Window" fill="#f0f0ff" stroke="#000000" style="fill-opacity: 1; stroke-width: 1; stroke-opacity: 1;" class="Window Regular"><polygon points="1264.67,193.04 1264.67,377.59 1286.60,377.59 1286.60,193.04 "/><g id="Glass" class="Glass"><polygon points="1264.67,193.04 1264.67,377.59 1286.60,377.59 1286.60,193.04 "/></g><g id="Panel" class="Panel"><line x1="1275.6374861695992" x2="1275.6374861695992" y1="200.54445501505566" y2="370.09071459039393"/><line x1="1264.6705454535047" x2="1286.6044268856938" y1="200.54445501505566" y2="200.54445501505566"/><line x1="1264.6705454535047" x2="1286.6044268856938" y1="370.09071459039393" y2="370.09071459039393"/></g></g></g><g id="Wall" fill="#000000" stroke="#000000" style="fill-opacity: 1; stroke-opacity: 1; stroke-width: 0.2;" class="Wall External"><polygon points="1286.60,523.26 658.71,523.26 639.71,506.26 1264.67,506.26 "/></g><g id="Wall" fill="#000000" stroke="#000000" style="fill-opacity: 1; stroke-opacity: 1; stroke-width: 0.2;" class="Wall External"><polygon points="658.71,523.26 658.71,675.36 639.71,657.36 639.71,506.26 "/></g><g id="Wall" fill="#000000" stroke="#000000" style="fill-opacity: 1; stroke-opacity: 1; stroke-width: 0.2;" class="Wall External"><polygon points="658.71,675.36 16.99,675.36 37.99,657.36 639.71,657.36 "/><g id="Door" fill="#ffffff" stroke="#000000" style="fill-opacity: 1; stroke-width: 1; stroke-opacity: 1;" class="Door Swing Opposite"><polygon points="630.46,675.36 541.13,675.36 541.13,657.36 630.46,657.36 "/><g id="Threshold" class="Threshold"><polygon points="630.46,675.36 541.13,675.36 541.13,657.36 630.46,657.36 "/></g><g id="Panel" fill="none" style="" class="Panel Right Negative"><g id="PanelArea" fill="none" stroke="none" style="" class="PanelArea"><polygon points="630.46,675.36 541.13,675.36 541.13,657.36 630.46,657.36 "/></g><path d="M541.13,675.36 q0.00,89.32 89.32,89.32 l0.00,-89.32Z"/></g><g id="Panel" fill="none" style="" class="Panel Left Positive"><g id="PanelArea" fill="none" stroke="none" style="" class="PanelArea"><polygon points="630.46,675.36 541.13,675.36 541.13,657.36 630.46,657.36 "/></g><path d="M541.13,657.36 q0.00,-89.32 89.32,-89.32 l0.00,89.32Z"/></g></g></g><g id="Wall" fill="#000000" stroke="#000000" style="fill-opacity: 1; stroke-opacity: 1; stroke-width: 0.2;" class="Wall External"><polygon points="16.99,675.36 16.99,47.93 37.99,65.93 37.99,657.36 "/><g id="Window" fill="#f0f0ff" stroke="#000000" style="fill-opacity: 1; stroke-width: 1; stroke-opacity: 1;" class="Window Regular"><polygon points="16.99,440.49 16.99,411.23 37.99,411.23 37.99,440.49 "/><g id="Glass" class="Glass"><polygon points="16.99,440.49 16.99,411.23 37.99,411.23 37.99,440.49 "/></g><g id="Panel" class="Panel"><line x1="27.492045166843894" x2="27.492045166843894" y1="432.99434499434835" y2="418.73444677569637"/><line x1="16.992045166843894" x2="37.992045166843894" y1="432.99434499434835" y2="432.99434499434835"/><line x1="16.99204516684389" x2="37.992045166843894" y1="418.73444677569637" y2="418.73444677569637"/></g></g><g id="Window" fill="#f0f0ff" stroke="#000000" style="fill-opacity: 1; stroke-width: 1; stroke-opacity: 1;" class="Window Regular"><polygon points="16.99,563.56 16.99,440.49 37.99,440.49 37.99,563.56 "/><g id="Glass" class="Glass"><polygon points="16.99,563.56 16.99,440.49 37.99,440.49 37.99,563.56 "/></g><g id="Panel" class="Panel"><line x1="27.49204516684391" x2="27.492045166843894" y1="556.0580345610317" y2="447.99434499434835"/><line x1="16.99204516684391" x2="37.99204516684391" y1="556.0580345610317" y2="556.0580345610317"/><line x1="16.992045166843894" x2="37.992045166843894" y1="447.99434499434835" y2="447.99434499434835"/></g></g><g id="Window" fill="#f0f0ff" stroke="#000000" style="fill-opacity: 1; stroke-width: 1; stroke-opacity: 1;" class="Window Regular"><polygon points="16.99,380.30 16.99,348.62 37.99,348.62 37.99,380.30 "/><g id="Glass" class="Glass"><polygon points="16.99,380.30 16.99,348.62 37.99,348.62 37.99,380.30 "/></g><g id="Panel" class="Panel"><line x1="27.492045166843887" x2="27.492045166843884" y1="372.7980133432635" y2="356.1156129155098"/><line x1="16.992045166843887" x2="37.99204516684389" y1="372.7980133432635" y2="372.7980133432635"/><line x1="16.992045166843884" x2="37.99204516684388" y1="356.1156129155098" y2="356.1156129155098"/></g></g><g id="Window" fill="#f0f0ff" stroke="#000000" style="fill-opacity: 1; stroke-width: 1; stroke-opacity: 1;" class="Window Regular"><polygon points="16.99,348.62 16.99,229.00 37.99,229.00 37.99,348.62 "/><g id="Glass" class="Glass"><polygon points="16.99,348.62 16.99,229.00 37.99,229.00 37.99,348.62 "/></g><g id="Panel" class="Panel"><line x1="27.49204516684388" x2="27.492045166843866" y1="341.1156129155098" y2="236.49838681072544"/><line x1="16.992045166843884" x2="37.99204516684388" y1="341.1156129155098" y2="341.1156129155098"/><line x1="16.992045166843866" x2="37.992045166843866" y1="236.49838681072544" y2="236.49838681072544"/></g></g></g><g id="Wall" fill="#000000" stroke="#000000" style="fill-opacity: 1; stroke-opacity: 1; stroke-width: 0.2;" class="Wall External"><polygon points="16.99,47.93 1286.60,47.93 1264.67,65.93 37.99,65.93 "/></g><g id="Wall" fill="#000000" stroke="#000000" style="fill-opacity: 1; stroke-opacity: 1; stroke-width: 0.2;" class="Wall"><polygon points="604.22,47.93 604.22,102.33 646.86,102.33 646.86,47.93 "/></g><g id="Wall" fill="#000000" stroke="#000000" style="fill-opacity: 1; stroke-opacity: 1; stroke-width: 0.2;" class="Wall"><polygon points="604.22,102.33 604.22,294.30 612.66,294.30 612.66,102.33 "/></g><g id="Wall" fill="#000000" stroke="#000000" style="fill-opacity: 1; stroke-opacity: 1; stroke-width: 0.2;" class="Wall"><polygon points="778.81,293.90 778.81,47.93 770.84,47.93 770.84,285.92 "/></g><g id="Wall" fill="#000000" stroke="#000000" style="fill-opacity: 1; stroke-opacity: 1; stroke-width: 0.2;" class="Wall"><polygon points="778.81,293.90 778.81,523.26 770.81,523.26 770.81,293.92 "/><g id="Door" fill="#ffffff" stroke="#000000" style="fill-opacity: 1; stroke-width: 1; stroke-opacity: 1;" class="Door Swing Beside"><polygon points="778.81,408.09 778.81,501.12 770.81,501.12 770.81,408.09 "/><g id="Threshold" class="Threshold"><polygon points="778.81,408.09 778.81,501.12 770.81,501.12 770.81,408.09 "/></g><g id="Panel" fill="none" style="" class="Panel Left Negative"><g id="PanelArea" fill="none" stroke="none" style="" class="PanelArea"><polygon points="778.81,408.09 778.81,501.12 770.81,501.12 770.81,408.09 "/></g><path d="M778.81,408.09 q93.03,0.00 93.03,93.03 l-93.03,0.00Z"/></g></g></g><g id="Wall" fill="#000000" stroke="#000000" style="fill-opacity: 1; stroke-opacity: 1; stroke-width: 0.2;" class="Wall"><polygon points="16.99,400.70 471.62,400.70 479.62,392.70 16.99,392.70 "/><g id="Door" fill="#ffffff" stroke="#000000" style="fill-opacity: 1; stroke-width: 1; stroke-opacity: 1;" class="Door Swing Beside"><polygon points="381.21,400.70 466.56,400.70 466.56,392.70 381.21,392.70 "/><g id="Threshold" class="Threshold"><polygon points="381.21,400.70 466.56,400.70 466.56,392.70 381.21,392.70 "/></g><g id="Panel" fill="none" style="" class="Panel Left Negative"><g id="PanelArea" fill="none" stroke="none" style="" class="PanelArea"><polygon points="381.21,400.70 466.56,400.70 466.56,392.70 381.21,392.70 "/></g><path d="M381.21,400.70 q0.00,85.35 85.35,85.35 l0.00,-85.35Z"/></g></g></g><g id="Wall" fill="#000000" stroke="#000000" style="fill-opacity: 1; stroke-opacity: 1; stroke-width: 0.2;" class="Wall"><polygon points="479.62,392.70 479.62,675.36 471.62,675.36 471.62,400.70 "/></g><g id="Wall" fill="#000000" stroke="#000000" style="fill-opacity: 1; stroke-opacity: 1; stroke-width: 0.2;" class="Wall"><polygon points="378.95,400.70 378.95,201.85 370.95,201.85 370.95,400.70 "/><g id="Door" fill="#ffffff" stroke="#000000" style="fill-opacity: 1; stroke-width: 1; stroke-opacity: 1;" class="Door Swing Beside"><polygon points="378.95,386.76 378.95,300.12 370.95,300.12 370.95,386.76 "/><g id="Threshold" class="Threshold"><polygon points="378.95,386.76 378.95,300.12 370.95,300.12 370.95,386.76 "/></g><g id="Panel" fill="none" style="" class="Panel Left Positive"><g id="PanelArea" fill="none" stroke="none" style="" class="PanelArea"><polygon points="378.95,386.76 378.95,300.12 370.95,300.12 370.95,386.76 "/></g><path d="M370.95,300.12 q-86.64,0.00 -86.64,86.64 l86.64,0.00Z"/></g></g></g><g id="Wall" fill="#000000" stroke="#000000" style="fill-opacity: 1; stroke-opacity: 1; stroke-width: 0.2;" class="Wall"><polygon points="370.95,201.85 370.95,47.93 410.36,47.93 410.36,201.85 "/></g><g id="Column" fill="#000000" stroke="none" style="fill-opacity: 1;" class="Column FreeShape"><polygon points="370.95,65.93 309.71,65.93 309.71,127.63 370.95,127.63 370.95,65.93 370.95,65.93 "/></g><g id="Column" fill="#000000" stroke="none" style="fill-opacity: 1;" class="Column FreeShape"><polygon points="410.36,65.94 604.22,65.94 604.22,73.95 410.36,73.95 410.36,65.94 410.36,65.94 "/></g><g id="Wall" fill="#000000" stroke="#000000" style="fill-opacity: 1; stroke-opacity: 1; stroke-width: 0.2;" class="Wall"><polygon points="612.66,294.30 370.95,294.30 370.95,286.90 604.22,286.90 "/><g id="Door" fill="#ffffff" stroke="#000000" style="fill-opacity: 1; stroke-width: 1; stroke-opacity: 1;" class="Door Swing Beside"><polygon points="524.57,294.30 453.16,294.30 453.16,286.90 524.57,286.90 "/><g id="Threshold" class="Threshold"><polygon points="524.57,294.30 453.16,294.30 453.16,286.90 524.57,286.90 "/></g><g id="Panel" fill="none" style="" class="Panel Left Negative"><g id="PanelArea" fill="none" stroke="none" style="" class="PanelArea"><polygon points="524.57,294.30 453.16,294.30 453.16,286.90 524.57,286.90 "/></g><path d="M524.57,294.30 q0.00,71.41 -71.41,71.41 l0.00,-71.41Z"/></g></g></g><g id="Wall" fill="#000000" stroke="#000000" style="fill-opacity: 1; stroke-opacity: 1; stroke-width: 0.2;" class="Wall"><polygon points="612.66,294.30 778.81,293.90 770.84,285.92 612.64,286.30 "/><g id="Door" fill="#ffffff" stroke="#000000" style="fill-opacity: 1; stroke-width: 1; stroke-opacity: 1;" class="Door Swing Beside"><polygon points="672.26,294.16 736.39,294.01 736.37,286.01 672.24,286.16 "/><g id="Threshold" class="Threshold"><polygon points="672.26,294.16 736.39,294.01 736.37,286.01 672.24,286.16 "/></g><g id="Panel" fill="none" style="" class="Panel Left Negative"><g id="PanelArea" fill="none" stroke="none" style="" class="PanelArea"><polygon points="672.26,294.16 736.39,294.01 736.37,286.01 672.24,286.16 "/></g><path d="M672.26,294.16 q0.15,64.13 64.28,63.97 l-0.15,-64.13Z"/></g></g></g><g id="Wall" fill="#000000" stroke="#000000" style="fill-opacity: 1; stroke-opacity: 1; stroke-width: 0.2;" class="Wall"><polygon points="1286.60,523.26 1435.50,523.26 1435.50,506.26 1286.60,506.26 "/></g><g id="Wall" fill="#000000" stroke="#000000" style="fill-opacity: 1; stroke-opacity: 1; stroke-width: 0.2;" class="Wall"><polygon points="1286.60,169.39 1436.59,169.39 1436.59,185.02 1286.60,185.02 "/></g><g id="Railing" fill="#ffffff" stroke="#000000" style="fill-opacity: 1; stroke-opacity: 1; stroke-width: 0.2;" class="Railing"><polygon points="1436.59,169.39 1435.50,523.26 1443.50,523.28 1444.59,169.41 " style="stroke-dasharray: 0;"/></g><g class="FixedFurniture CoatCloset" transform="matrix(0,-1,1,0,479.6155,657.3631)" style="fill-opacity: 1; stroke-opacity: 1;" fill="#ffffff" stroke="#000000">
        <g class="BoundaryPolygon" fill="rgb(255, 255, 255)" stroke="rgb(0, 0, 0)">
                <polygon points="0.00,0.00 123.10,0.00 123.10,27.72 0.00,27.72 "/>
            </g>
        <g class="Hanger" fill="rgb(255, 255, 255)" stroke="rgb(154, 154, 154)" stroke-dasharray="5,5">
            <line x1="0" y1="13.859478010497321" x2="123.09919190096147" y2="13.859478010497321"/>
            </g>
        <g class="Direction" fill-opacity="0.9" style="display: none;">
            <polygon points="63.10,25.19 63.10,14.57 60.09,14.57 60.09,25.19 56.29,25.19 61.59,30.49 66.89,25.19 63.10,25.19 " fill="#444444"/>
        </g> 
        <g class="Name" fill-opacity="0.9" style="display: none;">
            <text transform="translate(3 12)" font-size="12" font-family="Verdana, Sans-Serif">CWH</text>
        </g>
        <desc>Width:120 Height:200 Depth:60 Elevation:0</desc>
     </g><g class="FixedFurniture Closet" transform="matrix(0,-1,1,0,479.8654,443.8106)" style="fill-opacity: 1; stroke-opacity: 1;" fill="#ffffff" stroke="#000000">
        <g class="BoundaryPolygon" fill="rgb(255, 255, 255)" stroke="rgb(0, 0, 0)">
            <polygon points="0.00,0.00 50.80,0.00 50.80,57.96 0.00,57.96 "/>
        </g>
        <g class="Direction" fill-opacity="0.9" style="display: none;">
            <polygon points="26.68,52.83 26.68,42.22 23.67,42.22 23.67,52.83 19.87,52.83 25.17,58.14 30.47,52.83 26.68,52.83 " fill="#444444"/>
        </g> 
        <g class="Name" fill-opacity="0.9" style="display: none;">
            <text transform="translate(3 12)" font-size="12" font-family="Verdana, Sans-Serif">CL</text>
        </g>
        <desc>Width:60 Height:200 Depth:60 Elevation:0</desc>
     </g><g class="FixedFurniture Housing" transform="matrix(1.345,0,0,0.8991,37.9921,65.9469)" style="fill-opacity: 1; stroke-opacity: 1;" fill="#ffffff" stroke="#000000">
        <g class="BoundaryPolygon" fill="rgb(255, 255, 255)" stroke="rgb(0, 0, 0)">
            <polygon points="0,0 10,0 10,60 0,60"/>
        </g> 
        <g class="Name" fill-opacity="0.9" style="display: none;">
            <text transform="translate(3 12)" font-size="12" font-family="Verdana, Sans-Serif">EMPTY</text>
        </g>
        <desc>Width:60 Height:200 Depth:60 Elevation:0</desc>
     </g><g class="FixedFurniture Closet" transform="matrix(1,0,0,1,51.4418,66.0734)" style="fill-opacity: 1; stroke-opacity: 1;" fill="#ffffff" stroke="#000000">
        <g class="BoundaryPolygon" fill="rgb(255, 255, 255)" stroke="rgb(0, 0, 0)">
            <polygon points="0.00,0.00 59.08,0.00 59.08,60.00 0.00,60.00 "/>
        </g>
        <g class="Direction" fill-opacity="0.9" style="display: none;">
            <polygon points="31.03,54.70 31.03,44.08 28.02,44.08 28.02,54.70 24.21,54.70 29.52,60.00 34.82,54.70 31.03,54.70 " fill="#444444"/>
        </g> 
        <g class="Name" fill-opacity="0.9" style="display: none;">
            <text transform="translate(3 12)" font-size="12" font-family="Verdana, Sans-Serif">CL</text>
        </g>
        <desc>Width:60 Height:200 Depth:60 Elevation:0</desc>
     </g><g class="FixedFurniture ElectricalAppliance Refrigerator" transform="matrix(1.0195,0,0,1,110.5211,65.9641)" style="fill-opacity: 1; stroke-opacity: 1;" fill="#ffffff" stroke="#000000">
            <g class="BoundaryPolygon" fill="rgb(255, 255, 255)" stroke="rgb(0, 0, 0)">
                <polygon points="0,0 60,0 60,60 0,60"/>
            </g>
            <g class="electricitySign" fill="none" stroke="rgb(0, 0, 0)">
                    <path d="M0,0,30,37.1v-18L60,56.3"/>
            </g>
            <g class="Doors" fill="rgb(255, 255, 255)" stroke="rgb(0, 0, 0)">
                <rect y="56" width="60" height="4"/>
            </g>
             <g class="Direction" fill-opacity="0.9" style="display: none;">
                <polygon points="32.009 55.197 32.009 44.581 29 44.581 29 55.197 25.197 55.197 30.5 60 35.803 55.197 32.009 55.197" fill="#444444"/>
             </g> 
             <g class="Name" fill-opacity="0.9" style="display: none;">
                <text transform="translate(3 12)" font-size="12" font-family="Verdana, Sans-Serif">REF</text>
             </g>
            <desc>Width:60 Height:170 Depth:60 Elevation:0</desc>
        </g><g transform="matrix(1,0,0,1,171.6915,65.9629)" class="FixedFurniture BaseCabinet" style="fill-opacity: 1; stroke-opacity: 1;" fill="#ffffff" stroke="#000000"><desc>Width:60 Height:90 Depth:60 Elevation:0</desc><g class="BoundaryPolygon"><polygon points="0.00,0.00 138.02,-0.03 138.02,61.67 199.26,61.67 199.26,223.75 138.50,223.75 138.02,61.67 138.02,60.17 0.00,60.03 0.00,0.00 " fill="#ffffff" stroke="#000000" style=""/></g></g><g class="FixedFurniture ElectricalAppliance IntegratedStove" transform="matrix(1,0,0,1,256.019,64.2007)" style="fill-opacity: 1; stroke-opacity: 1;" fill="#ffffff" stroke="#000000">
            <g class="BoundaryPolygon" fill="rgb(255, 255, 255)" stroke="rgb(0, 0, 0)">
                <polygon points="2.00,2.00 49.17,2.00 49.17,61.70 2.00,61.70 "/>
            </g>
            <g class="OuterCircle" fill="rgb(255, 255, 255)" stroke="rgb(0, 0, 0)" stroke-width="0.8">
                <circle cx="13.564021487874982" cy="17.020838075343505" r="8"/>
                <circle cx="37.30105909165621" cy="17.020838075343505" r="8"/>
                <circle cx="13.564021487874982" cy="46.70092446922373" r="8"/>
                <circle cx="37.30105909165621" cy="46.80730470719463" r="8"/>
            </g>
             <g class="Direction" fill-opacity="0.9" style="display: none;">
                <polygon points="27.14,58.72 27.14,48.10 24.13,48.10 24.13,58.72 20.32,58.72 25.63,63.52 30.93,58.72 27.14,58.72 " fill="#444444"/>
            </g> 
            <g class="Name" fill-opacity="0.9" style="display: none;">
                <text transform="translate(3 12)" font-size="12" font-family="Verdana, Sans-Serif">INT_STOVE</text>
            </g>
            <desc>Width:60 Height:90 Depth:30 Elevation:0</desc>
        </g><g class="FixedFurniture WallCabinet" transform="matrix(1,0,0,1,171.6916,66.1047)" style="fill-opacity: 0.7; stroke-opacity: 1;" fill="#ffffff" stroke="#000000">	
        <g class="BoundaryPolygon" fill="rgb(255, 255, 255)" stroke="rgb(0, 0, 0)">
                <polygon points="0.00,0.00 86.42,0.00 86.42,30.00 0.00,30.00 "/>
        </g>
        <g class="Direction" fill-opacity="0.9" style="display: none;">
                <polygon points="46.10,25.20 46.10,14.58 43.09,14.58 43.09,25.20 39.29,25.20 44.59,30.00 49.90,25.20 46.10,25.20 " fill="#444444"/>
        </g> 
        <g class="Name" fill-opacity="0.9" style="display: none;">
                <text transform="translate(3 12)" font-size="12" font-family="Verdana, Sans-Serif">UC</text>
        </g>
        <desc>Width:60 Height:60 Depth:50 Elevation:140</desc>
        </g><g class="FixedFurniture DoubleSink" transform="matrix(0,1,-1,0,365.2921,142.3528)" style="fill-opacity: 1; stroke-opacity: 1;" fill="#ffffff" stroke="#000000">
            <g class="InnerPolygonLeft" fill="rgb(255, 255, 255)" stroke="rgb(0, 0, 0)">
                <polygon points="5.00,9.90 33.88,9.90 33.88,49.40 5.00,49.40 "/>
            </g>
            <g class="InnerPolygonRight" fill="rgb(255, 255, 255)" stroke="rgb(0, 0, 0)">
                <polygon points="36.92,10.00 65.74,10.00 65.74,49.49 36.92,49.49 "/>
            </g>
            <g class="OuterDrain" fill="rgb(255, 255, 255)" stroke="rgb(0, 0, 0)" stroke-width="0.8">
                <circle cx="19.925275406503197" cy="29.24586753545463" r="3.5"/>
                <circle cx="50.774052051089384" cy="29.24586753545463" r="3.5"/>
            </g>
            <g class="InnerDrain" fill="rgb(255, 255, 255)" stroke="rgb(0, 0, 0)" stroke-width="0.8">
                <circle cx="19.925275406503197" cy="29.24586753545463" r="2"/>
                <circle cx="50.774052051089384" cy="29.24586753545463" r="2"/>
            </g>
            <g class="Faucet" fill="rgb(255, 255, 255)" stroke="rgb(0, 0, 0)">
                <polygon points="32.37,4.41 38.37,4.41 38.37,18.41 32.37,18.41 "/>
            </g>
            <g class="Direction" fill-opacity="0.9" style="display: none;">
                <polygon points="36.93,49.22 36.93,38.60 33.92,38.60 33.92,49.22 30.11,49.22 35.42,54.52 40.72,49.22 36.93,49.22 " fill="#444444"/>
            </g> 
            <g class="Name" fill-opacity="0.9" style="display: none;">
                <text transform="translate(3 12)" font-size="12" font-family="Verdana, Sans-Serif">DSINK</text>
            </g>
         <desc>Width:70 Height:90 Depth:60 Elevation:0</desc>
        </g><g class="FixedFurniture ElectricalAppliance Dishwasher" transform="matrix(0,1.0467,-1.0042,0,370.7077,226.5563)" style="fill-opacity: 1; stroke-opacity: 1;" fill="#ffffff" stroke="#000000"> 
        <g class="BoundaryPolygon" fill="rgb(255, 255, 255)" stroke="rgb(0, 0, 0)"> 
		<polygon points="0,0 60,0 60,60 0,60"/>
		</g>
	   <g class="electricitySign" fill="none" stroke="rgb(0, 0, 0)">
        <path d="M0,0,30,38.9v-20L60,60"/>
	   </g>
	   <g class="Handle" fill="none" stroke="rgb(0, 0, 0)"> 
		<path d="M10,59.6H49.8"/>
		</g>
        <g class="Direction" fill-opacity="0.9" style="display: none;">
                <polygon points="32.009 55.197 32.009 44.581 29 44.581 29 55.197 25.197 55.197 30.5 60 35.803 55.197 32.009 55.197" fill="#444444"/>
        </g> 
        <g class="Name" fill-opacity="0.9" style="display: none;">
                <text transform="translate(3 12)" font-size="12" font-family="Verdana, Sans-Serif">DW</text>
        </g>
        <desc>Width:60 Height:90 Depth:60 Elevation:0</desc>
	</g><g class="FixedFurniture WallCabinet" transform="matrix(0,1,-1,0,370.7953,127.6329)" fill="#ffffff" stroke="#000000" style="fill-opacity: 0.7; stroke-opacity: 1;">	
        <g class="BoundaryPolygon" fill="rgb(255, 255, 255)" stroke="rgb(0, 0, 0)">
                <polygon points="0.00,0.00 162.59,0.00 162.59,30.85 0.00,30.85 "/>
        </g>
        <g class="Direction" fill-opacity="0.9" style="display: none;">
                <polygon points="86.74,25.91 86.74,15.29 83.73,15.29 83.73,25.91 79.93,25.91 85.23,30.71 90.53,25.91 86.74,25.91 " fill="#444444"/>
        </g> 
        <g class="Name" fill-opacity="0.9" style="display: none;">
                <text transform="translate(3 12)" font-size="12" font-family="Verdana, Sans-Serif">UC</text>
        </g>
        <desc>Width:60 Height:60 Depth:50 Elevation:140</desc>
        </g><g class="FixedFurniture Toilet" transform="matrix(0,-1,1,0,383.396,262.0476)" style="fill-opacity: 1; stroke-opacity: 1;" fill="#ffffff" stroke="#000000">
	   <g class="BoundaryPolygon" fill="rgb(255, 255, 255)" stroke="rgb(0, 0, 0)"> 
		<rect x="0.502" y="0.5" width="39.989" height="17.98"/>
          <path d="M40.491,44.237S41.619,70.5,20.907,70.5C-.523,70.5.6,44.237.6,44.237L.5,18.48H40.491Z"/>
          <rect x="17.318" y="7.975" width="6.357" height="3.03"/>
		</g>
        <desc>Width:40 Height:85 Depth:70 Elevation:0</desc>
    </g><g id="FixedFurnitureSet" class="FixedFurnitureSet" transform="matrix(0,-1,1,0,410.364,201.1399)" style="fill-opacity: 1; stroke-opacity: 1;" fill="#ffffff" stroke="#000000"><g class="FixedFurniture BaseCabinet" transform="matrix(1,0,0,1,0,0)">
            <g class="BoundaryPolygon" fill="rgb(255, 255, 255)" stroke="rgb(0, 0, 0)">
            <polygon points="0.00,0.00 54.89,0.00 54.89,36.81 0.00,36.81 "/>
            </g>
            <g class="Direction" fill-opacity="0.9" style="display: none;">
                <polygon points="29.28,33.87 29.28,23.25 26.27,23.25 26.27,33.87 22.47,33.87 27.77,38.67 33.08,33.87 29.28,33.87 " fill="#444444"/>
            </g> 
            <g class="Name" fill-opacity="0.9" style="display: none;">
                <text transform="translate(3 12)" font-size="12" font-family="Verdana, Sans-Serif">CB</text>
            </g>
            <desc>Width:185 Height:5 Depth:60 Elevation:105</desc>
        </g><g class="FixedFurniture Sink" transform="matrix(1,0,0,1,0,0)">
            <g class="InnerPolygon" fill="rgb(255, 255, 255)" stroke="rgb(0, 0, 0)">
                <polygon points="5.00,9.70 50.32,9.70 50.32,33.56 5.00,33.56 "/>
            </g>
            <g class="OuterDrain" fill="rgb(255, 255, 255)" stroke="rgb(0, 0, 0)" stroke-width="0.8">
                <circle cx="27.44583361714274" cy="19.757268307204058" r="3.5"/>
            </g>
            <g class="InnerDrain" fill="rgb(255, 255, 255)" stroke="rgb(0, 0, 0)" stroke-width="0.8">
                <circle cx="27.44583361714274" cy="19.757268307204058" r="2"/>
            </g>
            <g class="Faucet" fill="rgb(255, 255, 255)" stroke="rgb(0, 0, 0)">
                <polygon points="24.70,3.07 30.70,3.07 30.70,17.07 24.70,17.07 "/>
            </g>
           <g class="Direction" fill-opacity="0.9" style="display: none;">
                <polygon points="29.28,33.87 29.28,23.25 26.27,23.25 26.27,33.87 22.47,33.87 27.77,38.67 33.08,33.87 29.28,33.87 " fill="#444444"/>
            </g> 
            <g class="Name" fill-opacity="0.9" style="display: none;">
                <text transform="translate(3 12)" font-size="12" font-family="Verdana, Sans-Serif">SINK</text>
            </g>
            <desc>Width:60 Height:90 Depth:60 Elevation:0</desc>
        </g></g><g class="FixedFurniture ElectricalAppliance WashingMachine" transform="matrix(0,0.9206,-0.9524,0,598.6853,225.7169)" style="fill-opacity: 1; stroke-opacity: 1;" fill="#ffffff" stroke="#000000">
	   <g class="BoundaryPolygon" fill="rgb(255, 255, 255)" stroke="rgb(0, 0, 0)"> 
		<polygon points="0,0 60,0 60,60 0,60"/>
		</g>	
	   <g class="electricitySign" fill="none" stroke="rgb(0, 0, 0)">
        <path d="M0,0,30,41V20.8L60,60"/>
		</g>
	   <g class="Handle" fill="rgb(255, 255, 255)" stroke="rgb(0, 0, 0)"> 
		<path d="M2.7,59.4H57.3"/>
		</g>
         <g class="Direction" fill-opacity="0.9" style="display: none;">
                <polygon points="32.009 55.197 32.009 44.581 29 44.581 29 55.197 25.197 55.197 30.5 60 35.803 55.197 32.009 55.197" fill="#444444"/>
        </g> 
        <g class="Name" fill-opacity="0.9" style="display: none;">
                <text transform="translate(3 12)" font-size="12" font-family="Verdana, Sans-Serif">WM</text>
        </g>
        <desc>Width:60 Height:90 Depth:60 Elevation:0</desc>
    </g><g class="FixedFurniture CoatCloset" transform="matrix(1,0,0,1,646.8608,66.0109)" style="fill-opacity: 1; stroke-opacity: 1;" fill="#ffffff" stroke="#000000">
        <g class="BoundaryPolygon" fill="rgb(255, 255, 255)" stroke="rgb(0, 0, 0)">
                <polygon points="0.00,0.00 124.25,0.00 124.25,60.86 0.00,60.86 "/>
            </g>
        <g class="Hanger" fill="rgb(255, 255, 255)" stroke="rgb(154, 154, 154)" stroke-dasharray="5,5">
            <line x1="0" y1="30.428779812526415" x2="124.24899353438126" y2="30.428779812526415"/>
            </g>
        <g class="Direction" fill-opacity="0.9" style="display: none;">
            <polygon points="63.69,55.30 63.69,44.68 60.68,44.68 60.68,55.30 56.87,55.30 62.18,60.60 67.48,55.30 63.69,55.30 " fill="#444444"/>
        </g> 
        <g class="Name" fill-opacity="0.9" style="display: none;">
            <text transform="translate(3 12)" font-size="12" font-family="Verdana, Sans-Serif">CWH</text>
        </g>
        <desc>Width:120 Height:200 Depth:60 Elevation:0</desc>
     </g><g class="FixedFurniture CoatCloset" transform="matrix(0,-1,1,0,612.6588,286.5035)" style="fill-opacity: 1; stroke-opacity: 1;" fill="#ffffff" stroke="#000000">
        <g class="BoundaryPolygon" fill="rgb(255, 255, 255)" stroke="rgb(0, 0, 0)">
                <polygon points="0.00,0.00 184.17,0.00 184.17,30.04 0.00,30.04 "/>
            </g>
        <g class="Hanger" fill="rgb(255, 255, 255)" stroke="rgb(154, 154, 154)" stroke-dasharray="5,5">
            <line x1="0" y1="15.017784473250858" x2="184.1738231729089" y2="15.017784473250858"/>
            </g>
        <g class="Direction" fill-opacity="0.9" style="display: none;">
            <polygon points="94.40,27.29 94.40,16.67 91.39,16.67 91.39,27.29 87.59,27.29 92.89,32.59 98.20,27.29 94.40,27.29 " fill="#444444"/>
        </g> 
        <g class="Name" fill-opacity="0.9" style="display: none;">
            <text transform="translate(3 12)" font-size="12" font-family="Verdana, Sans-Serif">CWH</text>
        </g>
        <desc>Width:120 Height:200 Depth:60 Elevation:0</desc>
     </g><g class="FixedFurniture Closet" transform="matrix(0,1,-1,0,770.7282,126.8684)" style="fill-opacity: 1; stroke-opacity: 1;" fill="#ffffff" stroke="#000000">
        <g class="BoundaryPolygon" fill="rgb(255, 255, 255)" stroke="rgb(0, 0, 0)">
            <polygon points="0.00,0.00 159.54,0.00 159.54,29.37 0.00,29.37 "/>
        </g>
        <g class="Direction" fill-opacity="0.9" style="display: none;">
            <polygon points="81.78,26.68 81.78,16.07 78.77,16.07 78.77,26.68 74.96,26.68 80.27,31.99 85.57,26.68 81.78,26.68 " fill="#444444"/>
        </g> 
        <g class="Name" fill-opacity="0.9" style="display: none;">
            <text transform="translate(3 12)" font-size="12" font-family="Verdana, Sans-Serif">CL</text>
        </g>
        <desc>Width:120 Height:200 Depth:60 Elevation:0</desc>
     </g><g class="FixedFurniture Bathtub" transform="matrix(0.8581,0,0,0.8651,410.364,74.1638)" style="fill-opacity: 1; stroke-opacity: 1;" fill="#ffffff" stroke="#000000"> 
	   <g class="BoundaryPolygon" fill="rgb(255, 255, 255)" stroke="rgb(0, 0, 0)"> 
		  <polygon points="0,0 175,0 175,82 0,82"/>
		  </g>
		
	   <g class="Tub" fill="rgb(255, 255, 255)" stroke="rgb(0, 0, 0)"> 
		  <path d="M166.6,41.2c0,19.7,0,35.7-79.3,35.7S8,60.9,8,41.2,8,5.5,87.3,5.5,166.6,21.5,166.6,41.2Z"/>
		  </g>
        <g class="Name" fill-opacity="0.9" style="display: none;">
            <text transform="translate(3 12)" font-size="12" font-family="Verdana, Sans-Serif">BT</text>
        </g>
        <desc>Width:175 Height:38 Depth:82 Elevation:0</desc>
	</g><g class="FixedFurniture Shower" transform="matrix(0,-1,1,0,409.864,125.0042)" style="fill-opacity: 1; stroke-opacity: 1;" fill="#ffffff" stroke="#000000"> 
	   <g class="BoundaryPolygon" fill="rgb(255, 255, 255)" stroke="rgb(0, 0, 0)" stroke-linejoin="round"> 
			<rect x="3.7" y="0.5" width="11.2" height="6.1"/>
			<rect x="17.6" y="0.5" width="11.2" height="6.1"/>
			<rect x="28.7" y="0.5" width="3.4" height="6.1"/>
			<rect x="0.5" y="0.5" width="3.2" height="6.1"/>
			<path d="M14.9,8.5c0,1.5-0.4,3.3-1.6,5    c-0.4,0.6-1,1.1-1.1,1.7c-0.2,1.1,0.3,2.8,2.5,3.2c0.5,0.1,1.3,0.1,1.6,0.1h-0.1c0.3,0,1.1,0,1.6-0.1c2.2-0.4,2.7-2.1,2.5-3.2    c-0.1-0.6-0.7-1.1-1.1-1.7c-1.2-1.7-1.6-3.5-1.6-5"/>
			<path d="M12.2,15.3c0.1,0.2,1.6,1.9,4.2,1.9 c2.4-0.1,3.7-1.7,3.9-1.9"/>
			<path d="M14.9,0.5h2.7v8c-0.9,0-1.8,0-2.7,0l0,0 C14.9,5.9,14.9,3.2,14.9,0.5z"/>
		</g>
	   <g class="Indicator" fill="rgb(255, 255, 255)" stroke="rgb(0, 0, 0)" stroke-width="0.5" stroke-linejoin="round"> 
			<path d="M3.7,3.6C5,3.1,5.2,3,5.2,3 c0,1.1,0,0,0,1.1C5.2,4.1,5.1,4.1,3.7,3.6"/>
			<path d="M28.7,3.6 C27.4,3.1,27.2,3,27.2,3c0,1.1,0,0,0,1.1C27.2,4.1,27.3,4.1,28.7,3.6"/>	
		</g>
        <desc>Width:35 Height:97 Depth:20 Elevation:135</desc>
	</g></g></g></g></svg>
