<?xml version="1.0"?>
<svg xmlns="http://www.w3.org/2000/svg" xmlns:xlink="http://www.w3.org/1999/xlink" height="1063.0799407958984" version="1.1" width="1556.746681213379" id="temp" viewBox="0 0 1556.746681213379 1063.0799407958984"><defs/><g id="Model" class="Model v1-1"><g class="Floor"><g id="Floor-1" class="Floorplan Floor-1"><g id="2bc487e2-6e6a-47b4-b626-cb65207f36b7" fill="#ffffff" stroke="#000000" style="fill-opacity: 1; stroke-opacity: 1; stroke-width: 0.2;" class="Space Outdoor"><polygon points="1300.38,130.33 1300.38,507.34 1478.06,507.33 1478.27,130.33 1300.38,130.33 1300.38,130.33 "/><g transform="matrix(1,0,0,1,1300.3813,130.3304)" class="Dimension"><g transform="matrix(1,0,0,1,0,0)" style="display: none;" class="Visual"><g id="mark1" fill="#000000" stroke="none" transform="matrix(1,0,0,1,88.9435,0)" style="fill-opacity: 1; pointer-events: visible;" class="DimensionMark"><polygon points="-5,5,0,0,5,5"/></g><g id="mark2" fill="#000000" stroke="none" transform="matrix(1,0,0,1,177.7807,188.5028)" style="fill-opacity: 1; pointer-events: visible;" class="DimensionMark"><polygon points="-5,-5,0,0,-5,5"/></g><g id="mark3" fill="#000000" stroke="none" transform="matrix(1,0,0,1,88.9435,377.0056)" style="fill-opacity: 1; pointer-events: visible;" class="DimensionMark"><polygon points="-5,-5,0,0,5,-5"/></g><g id="mark4" fill="#000000" stroke="none" transform="matrix(1,0,0,1,0,188.5028)" style="fill-opacity: 1; pointer-events: visible;" class="DimensionMark"><polygon points="5,5,0,0,5,-5"/></g></g><g transform="matrix(1,0,0,1,88.9435,88.9407)" class="SpaceDimensionsLabel"><g id="NameLabel" style="display: block;" class="TextLabel NameLabel"><text x="0" y="0em" fill="#000000" stroke="none" style="font-family: Verdana; font-size: 33px; fill-opacity: 1; cursor: default;">ULKOTILA</text></g><g id="DimensionMeasureLabel" transform="matrix(1,0,0,1,-25.0547,39.5937)" style="display: none;" class="TextLabel DimensionMeasureLabel"><text x="0" y="0em" fill="#000000" stroke="none" style="font-family: Verdana; font-size: 33px; fill-opacity: 1; cursor: default;">5'10" x 12'4"</text><text x="0" y="0"/></g></g></g></g><g id="effae257-0782-463e-85a4-231fb8e8430a" fill="#ffffff" stroke="#ffffff" style="fill-opacity: 1; stroke-opacity: 1; stroke-width: 0.2;" class="Space LivingRoom"><polygon points="1273.38,507.34 707.06,507.34 707.06,130.33 1273.38,130.33 "/><g transform="matrix(1,0,0,1,707.0637,130.3332)" class="Dimension"><g transform="matrix(1,0,0,1,0,0)" style="display: none;" class="Visual"><g id="mark1" fill="#000000" stroke="none" transform="matrix(1,0,0,1,283.1588,0)" style="fill-opacity: 1; pointer-events: visible;" class="DimensionMark"><polygon points="-5,5,0,0,5,5"/></g><g id="mark2" fill="#000000" stroke="none" transform="matrix(1,0,0,1,566.3176,188.5028)" style="fill-opacity: 1; pointer-events: visible;" class="DimensionMark"><polygon points="-5,-5,0,0,-5,5"/></g><g id="mark3" fill="#000000" stroke="none" transform="matrix(1,0,0,1,283.1588,377.0057)" style="fill-opacity: 1; pointer-events: visible;" class="DimensionMark"><polygon points="-5,-5,0,0,5,-5"/></g><g id="mark4" fill="#000000" stroke="none" transform="matrix(1,0,0,1,0,188.5028)" style="fill-opacity: 1; pointer-events: visible;" class="DimensionMark"><polygon points="5,5,0,0,5,-5"/></g></g><g transform="matrix(1,0,0,1,270.7654,202.5741)" class="SpaceDimensionsLabel"><g id="NameLabel" style="display: block;" class="TextLabel NameLabel"><text x="0" y="0em" fill="#000000" stroke="none" style="font-family: Verdana; font-size: 33px; fill-opacity: 1; cursor: default;">OH</text></g><g id="DimensionMeasureLabel" transform="matrix(1,0,0,1,-82.9219,39.8282)" style="display: none;" class="TextLabel DimensionMeasureLabel"><text x="0" y="0em" fill="#000000" stroke="none" style="font-family: Verdana; font-size: 33px; fill-opacity: 1; cursor: default;">18'7" x 12'4"</text><text x="0" y="0"/></g></g></g></g><g id="33ff4e83-3820-44d3-b7c3-257d5a93088e" fill="#ffffff" stroke="#ffffff" style="fill-opacity: 1; stroke-opacity: 1; stroke-width: 0.2;" class="Space Undefined"><polygon points="697.06,507.34 654.89,507.34 654.89,920.30 615.85,920.30 615.85,963.12 499.01,963.12 499.01,359.73 697.06,359.73 "/><g transform="matrix(1,0,0,1,499.0136,359.7312)" class="Dimension"><g transform="matrix(1,0,0,1,0,0)" style="display: none;" class="Visual"><g id="mark1" fill="#000000" stroke="none" transform="matrix(1,0,0,1,99.0251,0)" style="fill-opacity: 1; pointer-events: visible;" class="DimensionMark"><polygon points="-5,5,0,0,5,5"/></g><g id="mark2" fill="#000000" stroke="none" transform="matrix(1,0,0,1,155.879,301.6938)" style="fill-opacity: 1; pointer-events: visible;" class="DimensionMark"><polygon points="-5,-5,0,0,-5,5"/></g><g id="mark3" fill="#000000" stroke="none" transform="matrix(1,0,0,1,99.0251,603.3876)" style="fill-opacity: 1; pointer-events: visible;" class="DimensionMark"><polygon points="-5,-5,0,0,5,-5"/></g><g id="mark4" fill="#000000" stroke="none" transform="matrix(1,0,0,1,0,301.6938)" style="fill-opacity: 1; pointer-events: visible;" class="DimensionMark"><polygon points="5,5,0,0,5,-5"/></g></g><g transform="matrix(1,0,0,1,88.9678,88.9678)" class="SpaceDimensionsLabel"><g id="NameLabel" style="display: block;" class="TextLabel NameLabel"><text x="0" y="0em" fill="#000000" stroke="none" style="font-family: Verdana; font-size: 33px; fill-opacity: 1; cursor: default;">UNDEFINED</text></g><g id="DimensionMeasureLabel" transform="matrix(1,0,0,1,-8.8281,40.4218)" style="display: none;" class="TextLabel DimensionMeasureLabel"><text x="0" y="0em" fill="#000000" stroke="none" style="font-family: Verdana; font-size: 33px; fill-opacity: 1; cursor: default;">5'1" x 19'10"</text><text x="0" y="0"/></g></g></g></g><g id="8729ea29-2436-455d-a631-ba091b57c861" fill="#ffffff" stroke="#ffffff" style="fill-opacity: 1; stroke-opacity: 1; stroke-width: 0.2;" class="Space Bedroom"><polygon points="489.01,963.12 152.04,963.12 152.04,514.36 489.01,514.36 "/><g transform="matrix(1,0,0,1,152.0372,514.3625)" class="Dimension"><g transform="matrix(1,0,0,1,0,0)" style="display: none;" class="Visual"><g id="mark1" fill="#000000" stroke="none" transform="matrix(1,0,0,1,168.4882,0)" style="fill-opacity: 1; pointer-events: visible;" class="DimensionMark"><polygon points="-5,5,0,0,5,5"/></g><g id="mark2" fill="#000000" stroke="none" transform="matrix(1,0,0,1,336.9764,224.3782)" style="fill-opacity: 1; pointer-events: visible;" class="DimensionMark"><polygon points="-5,-5,0,0,-5,5"/></g><g id="mark3" fill="#000000" stroke="none" transform="matrix(1,0,0,1,168.4882,448.7563)" style="fill-opacity: 1; pointer-events: visible;" class="DimensionMark"><polygon points="-5,-5,0,0,5,-5"/></g><g id="mark4" fill="#000000" stroke="none" transform="matrix(1,0,0,1,0,224.3782)" style="fill-opacity: 1; pointer-events: visible;" class="DimensionMark"><polygon points="5,5,0,0,5,-5"/></g></g><g transform="matrix(1,0,0,1,147.8865,257.6578)" class="SpaceDimensionsLabel"><g id="NameLabel" style="display: block;" class="TextLabel NameLabel"><text x="0" y="0em" fill="#000000" stroke="none" style="font-family: Verdana; font-size: 33px; fill-opacity: 1; cursor: default;">MH</text></g><g id="DimensionMeasureLabel" transform="matrix(1,0,0,1,-82.0078,39.8282)" style="display: none;" class="TextLabel DimensionMeasureLabel"><text x="0" y="0em" fill="#000000" stroke="none" style="font-family: Verdana; font-size: 33px; fill-opacity: 1; cursor: default;">11'1" x 14'9"</text><text x="0" y="0"/></g></g></g></g><g id="82b0666c-6866-4fec-b4c2-bd12103dd114" fill="#ffffff" stroke="#ffffff" style="fill-opacity: 1; stroke-opacity: 1; stroke-width: 0.2;" class="Space Kitchen"><polygon points="489.01,507.36 152.04,507.36 152.04,130.33 489.01,130.33 "/><g transform="matrix(1,0,0,1,152.0372,130.3332)" class="Dimension"><g transform="matrix(1,0,0,1,0,0)" style="display: none;" class="Visual"><g id="mark1" fill="#000000" stroke="none" transform="matrix(1,0,0,1,168.4882,0)" style="fill-opacity: 1; pointer-events: visible;" class="DimensionMark"><polygon points="-5,5,0,0,5,5"/></g><g id="mark2" fill="#000000" stroke="none" transform="matrix(1,0,0,1,336.9764,188.5146)" style="fill-opacity: 1; pointer-events: visible;" class="DimensionMark"><polygon points="-5,-5,0,0,-5,5"/></g><g id="mark3" fill="#000000" stroke="none" transform="matrix(1,0,0,1,168.4882,377.0292)" style="fill-opacity: 1; pointer-events: visible;" class="DimensionMark"><polygon points="-5,-5,0,0,5,-5"/></g><g id="mark4" fill="#000000" stroke="none" transform="matrix(1,0,0,1,0,188.5146)" style="fill-opacity: 1; pointer-events: visible;" class="DimensionMark"><polygon points="5,5,0,0,5,-5"/></g></g><g transform="matrix(1,0,0,1,137.1011,205.3291)" class="SpaceDimensionsLabel"><g id="NameLabel" style="display: block;" class="TextLabel NameLabel"><text x="0" y="0em" fill="#000000" stroke="none" style="font-family: Verdana; font-size: 33px; fill-opacity: 1; cursor: default;">K</text></g><g id="DimensionMeasureLabel" transform="matrix(1,0,0,1,-96.8594,39.75)" style="display: none;" class="TextLabel DimensionMeasureLabel"><text x="0" y="0em" fill="#000000" stroke="none" style="font-family: Verdana; font-size: 33px; fill-opacity: 1; cursor: default;">11'1" x 12'4"</text><text x="0" y="0"/></g></g></g></g><g id="1f1e256a-d801-492f-bfd9-17b5c62faaa9" fill="#ffffff" stroke="#ffffff" style="fill-opacity: 1; stroke-opacity: 1; stroke-width: 0.2;" class="Space Bath Shower"><polygon points="697.06,350.73 499.01,350.73 499.01,284.87 529.01,284.87 529.01,130.33 697.06,130.33 "/><g transform="matrix(1,0,0,1,529.0136,130.3332)" class="Dimension"><g transform="matrix(1,0,0,1,0,0)" style="display: none;" class="Visual"><g id="mark1" fill="#000000" stroke="none" transform="matrix(1,0,0,1,69.0251,0)" style="fill-opacity: 1; pointer-events: visible;" class="DimensionMark"><polygon points="-5,5,0,0,5,5"/></g><g id="mark2" fill="#000000" stroke="none" transform="matrix(1,0,0,1,168.0501,110.199)" style="fill-opacity: 1; pointer-events: visible;" class="DimensionMark"><polygon points="-5,-5,0,0,-5,5"/></g><g id="mark3" fill="#000000" stroke="none" transform="matrix(1,0,0,1,69.0251,220.398)" style="fill-opacity: 1; pointer-events: visible;" class="DimensionMark"><polygon points="-5,-5,0,0,5,-5"/></g><g id="mark4" fill="#000000" stroke="none" transform="matrix(1,0,0,1,0,110.199)" style="fill-opacity: 1; pointer-events: visible;" class="DimensionMark"><polygon points="5,5,0,0,5,-5"/></g></g><g transform="matrix(1,0,0,1,74.8467,138.3678)" class="SpaceDimensionsLabel"><g id="NameLabel" style="display: block;" class="TextLabel NameLabel"><text x="0" y="0em" fill="#000000" stroke="none" style="font-family: Verdana; font-size: 33px; fill-opacity: 1; cursor: default;">SH</text></g><g id="DimensionMeasureLabel" transform="matrix(1,0,0,1,-63.6328,39.2968)" style="display: none;" class="TextLabel DimensionMeasureLabel"><text x="0" y="0em" fill="#000000" stroke="none" style="font-family: Verdana; font-size: 33px; fill-opacity: 1; cursor: default;">5'6" x 7'3"</text><text x="0" y="0"/></g></g></g></g><g id="Wall" fill="#000000" stroke="#000000" style="fill-opacity: 1; stroke-opacity: 1; stroke-width: 0.2;" class="Wall External"><polygon points="124.04,109.33 1300.38,109.33 1273.38,130.33 152.04,130.33 "/></g><g id="Wall" fill="#000000" stroke="#000000" style="fill-opacity: 1; stroke-opacity: 1; stroke-width: 0.2;" class="Wall External"><polygon points="1300.38,109.33 1300.38,529.34 1273.38,507.34 1273.38,130.33 "/><g id="Door" fill="#ffffff" stroke="#000000" style="fill-opacity: 1; stroke-width: 1; stroke-opacity: 1;" class="Door Swing Beside"><polygon points="1300.38,388.15 1300.38,468.61 1273.38,468.61 1273.38,388.15 "/><g id="Threshold" class="Threshold"><polygon points="1300.38,388.15 1300.38,468.61 1273.38,468.61 1273.38,388.15 "/></g><g id="Panel" fill="none" style="" class="Panel Left Negative"><g id="PanelArea" fill="none" stroke="none" style="" class="PanelArea"><polygon points="1300.38,388.15 1300.38,468.61 1273.38,468.61 1273.38,388.15 "/></g><path d="M1300.38,388.15 q80.46,0.00 80.46,80.46 l-80.46,0.00Z"/></g></g><g id="Window" fill="#f0f0ff" stroke="#000000" style="fill-opacity: 1; stroke-width: 1; stroke-opacity: 1;" class="Window Regular"><polygon points="1300.38,157.73 1300.38,193.08 1273.38,193.08 1273.38,157.73 "/><g id="Glass" class="Glass"><polygon points="1300.38,157.73 1300.38,193.08 1273.38,193.08 1273.38,157.73 "/></g><g id="Panel" class="Panel"><line x1="1286.8812521759346" x2="1286.8812521759346" y1="165.22794407286696" y2="185.58301726540572"/><line x1="1300.3812521759346" x2="1273.3812521759346" y1="165.22794407286696" y2="165.22794407286696"/><line x1="1300.3812521759346" x2="1273.3812521759346" y1="185.58301726540572" y2="185.58301726540572"/></g></g><g id="Window" fill="#f0f0ff" stroke="#000000" style="fill-opacity: 1; stroke-width: 1; stroke-opacity: 1;" class="Window Regular"><polygon points="1300.38,193.08 1300.38,382.66 1273.38,382.66 1273.38,193.08 "/><g id="Glass" class="Glass"><polygon points="1300.38,193.08 1300.38,382.66 1273.38,382.66 1273.38,193.08 "/></g><g id="Panel" class="Panel"><line x1="1286.8812521759346" x2="1286.8812521759346" y1="200.58301726540572" y2="375.15935800470817"/><line x1="1300.3812521759346" x2="1273.3812521759346" y1="200.58301726540572" y2="200.58301726540572"/><line x1="1300.3812521759346" x2="1273.3812521759346" y1="375.15935800470817" y2="375.15935800470817"/></g></g></g><g id="Wall" fill="#000000" stroke="#000000" style="fill-opacity: 1; stroke-opacity: 1; stroke-width: 0.2;" class="Wall External"><polygon points="1300.38,529.34 674.89,529.34 654.89,507.34 1273.38,507.34 "/></g><g id="Wall" fill="#000000" stroke="#000000" style="fill-opacity: 1; stroke-opacity: 1; stroke-width: 0.2;" class="Wall External"><polygon points="674.89,529.34 674.89,984.12 654.89,920.30 654.89,507.34 "/></g><g id="Wall" fill="#000000" stroke="#000000" style="fill-opacity: 1; stroke-opacity: 1; stroke-width: 0.2;" class="Wall External"><polygon points="674.89,984.12 615.85,984.12 615.85,920.30 654.89,920.30 "/></g><g id="Wall" fill="#000000" stroke="#000000" style="fill-opacity: 1; stroke-opacity: 1; stroke-width: 0.2;" class="Wall External"><polygon points="615.85,984.12 124.04,984.12 152.04,963.12 615.85,963.12 "/><g id="Door" fill="#ffffff" stroke="#000000" style="fill-opacity: 1; stroke-width: 1; stroke-opacity: 1;" class="Door Swing Opposite"><polygon points="584.53,984.12 505.57,984.12 505.57,963.12 584.53,963.12 "/><g id="Threshold" class="Threshold"><polygon points="584.53,984.12 505.57,984.12 505.57,963.12 584.53,963.12 "/></g><g id="Panel" fill="none" style="" class="Panel Left Negative"><g id="PanelArea" fill="none" stroke="none" style="" class="PanelArea"><polygon points="584.53,984.12 505.57,984.12 505.57,963.12 584.53,963.12 "/></g><path d="M584.53,984.12 q0.00,78.96 -78.96,78.96 l0.00,-78.96Z"/></g><g id="Panel" fill="none" style="" class="Panel Right Positive"><g id="PanelArea" fill="none" stroke="none" style="" class="PanelArea"><polygon points="584.53,984.12 505.57,984.12 505.57,963.12 584.53,963.12 "/></g><path d="M584.53,963.12 q0.00,-78.96 -78.96,-78.96 l0.00,78.96Z"/></g></g></g><g id="Wall" fill="#000000" stroke="#000000" style="fill-opacity: 1; stroke-opacity: 1; stroke-width: 0.2;" class="Wall External"><polygon points="124.04,984.12 124.04,109.33 152.04,130.33 152.04,963.12 "/><g id="Window" fill="#f0f0ff" stroke="#000000" style="fill-opacity: 1; stroke-width: 1; stroke-opacity: 1;" class="Window Regular"><polygon points="124.04,250.67 124.04,214.76 152.04,214.76 152.04,250.67 "/><g id="Glass" class="Glass"><polygon points="124.04,250.67 124.04,214.76 152.04,214.76 152.04,250.67 "/></g><g id="Panel" class="Panel"><line x1="138.03720958145118" x2="138.03720958145118" y1="243.16725768068147" y2="222.26378758902013"/><line x1="124.03720958145118" x2="152.03720958145118" y1="243.16725768068147" y2="243.16725768068147"/><line x1="124.03720958145118" x2="152.03720958145118" y1="222.26378758902013" y2="222.26378758902013"/></g></g><g id="Window" fill="#f0f0ff" stroke="#000000" style="fill-opacity: 1; stroke-width: 1; stroke-opacity: 1;" class="Window Regular"><polygon points="124.04,433.72 124.04,250.67 152.04,250.67 152.04,433.72 "/><g id="Glass" class="Glass"><polygon points="124.04,433.72 124.04,250.67 152.04,250.67 152.04,433.72 "/></g><g id="Panel" class="Panel"><line x1="138.03720958145118" x2="138.03720958145118" y1="426.21609700046304" y2="258.1672576806815"/><line x1="124.0372095814512" x2="152.03720958145118" y1="426.21609700046304" y2="426.21609700046304"/><line x1="124.03720958145118" x2="152.03720958145118" y1="258.1672576806815" y2="258.1672576806815"/></g></g><g id="Window" fill="#f0f0ff" stroke="#000000" style="fill-opacity: 1; stroke-width: 1; stroke-opacity: 1;" class="Window Regular"><polygon points="124.04,646.19 124.04,609.70 152.04,609.70 152.04,646.19 "/><g id="Glass" class="Glass"><polygon points="124.04,646.19 124.04,609.70 152.04,609.70 152.04,646.19 "/></g><g id="Panel" class="Panel"><line x1="138.0372095814512" x2="138.0372095814512" y1="638.6940328114225" y2="617.2019812428487"/><line x1="124.03720958145121" x2="152.0372095814512" y1="638.6940328114225" y2="638.6940328114225"/><line x1="124.03720958145121" x2="152.0372095814512" y1="617.2019812428487" y2="617.2019812428487"/></g></g><g id="Window" fill="#f0f0ff" stroke="#000000" style="fill-opacity: 1; stroke-width: 1; stroke-opacity: 1;" class="Window Regular"><polygon points="124.04,832.19 124.04,646.19 152.04,646.19 152.04,832.19 "/><g id="Glass" class="Glass"><polygon points="124.04,832.19 124.04,646.19 152.04,646.19 152.04,832.19 "/></g><g id="Panel" class="Panel"><line x1="138.03720958145124" x2="138.03720958145124" y1="824.6857795157665" y2="653.6940328114225"/><line x1="124.03720958145122" x2="152.03720958145124" y1="824.6857795157665" y2="824.6857795157665"/><line x1="124.03720958145121" x2="152.0372095814512" y1="653.6940328114225" y2="653.6940328114225"/></g></g></g><g id="Wall" fill="#000000" stroke="#000000" style="fill-opacity: 1; stroke-opacity: 1; stroke-width: 0.2;" class="Wall"><polygon points="489.01,109.33 489.01,284.87 529.01,284.87 529.01,109.33 "/></g><g id="Wall" fill="#000000" stroke="#000000" style="fill-opacity: 1; stroke-opacity: 1; stroke-width: 0.2;" class="Wall"><polygon points="489.01,284.87 489.01,984.12 499.01,984.12 499.01,284.87 "/><g id="Door" fill="#ffffff" stroke="#000000" style="fill-opacity: 1; stroke-width: 1; stroke-opacity: 1;" class="Door Swing Beside"><polygon points="489.01,584.76 489.01,668.31 499.01,668.31 499.01,584.76 "/><g id="Threshold" class="Threshold"><polygon points="489.01,584.76 489.01,668.31 499.01,668.31 499.01,584.76 "/></g><g id="Panel" fill="none" style="" class="Panel Right Negative"><g id="PanelArea" fill="none" stroke="none" style="" class="PanelArea"><polygon points="489.01,584.76 489.01,668.31 499.01,668.31 499.01,584.76 "/></g><path d="M489.01,668.31 q-83.55,0.00 -83.55,-83.55 l83.55,0.00Z"/></g></g><g id="Door" fill="#ffffff" stroke="#000000" style="fill-opacity: 1; stroke-width: 1; stroke-opacity: 1;" class="Door Swing Beside"><polygon points="489.01,412.59 489.01,497.23 499.01,497.23 499.01,412.59 "/><g id="Threshold" class="Threshold"><polygon points="489.01,412.59 489.01,497.23 499.01,497.23 499.01,412.59 "/></g><g id="Panel" fill="none" style="" class="Panel Left Negative"><g id="PanelArea" fill="none" stroke="none" style="" class="PanelArea"><polygon points="489.01,412.59 489.01,497.23 499.01,497.23 499.01,412.59 "/></g><path d="M489.01,412.59 q-84.64,0.00 -84.64,84.64 l84.64,0.00Z"/></g></g></g><g id="Wall" fill="#000000" stroke="#000000" style="fill-opacity: 1; stroke-opacity: 1; stroke-width: 0.2;" class="Wall"><polygon points="124.04,514.36 499.01,514.36 499.01,507.36 124.04,507.36 "/></g><g id="Wall" fill="#000000" stroke="#000000" style="fill-opacity: 1; stroke-opacity: 1; stroke-width: 0.2;" class="Wall"><polygon points="707.06,529.34 707.06,109.33 697.06,109.33 697.06,529.34 "/><g id="Door" fill="#ffffff" stroke="#000000" style="fill-opacity: 1; stroke-width: 1; stroke-opacity: 1;" class="Door Swing Beside"><polygon points="707.06,501.57 707.06,418.38 697.06,418.38 697.06,501.57 "/><g id="Threshold" class="Threshold"><polygon points="707.06,501.57 707.06,418.38 697.06,418.38 697.06,501.57 "/></g><g id="Panel" fill="none" style="" class="Panel Right Negative"><g id="PanelArea" fill="none" stroke="none" style="" class="PanelArea"><polygon points="707.06,501.57 707.06,418.38 697.06,418.38 697.06,501.57 "/></g><path d="M707.06,418.38 q83.19,0.00 83.19,83.19 l-83.19,0.00Z"/></g></g></g><g id="Wall" fill="#000000" stroke="#000000" style="fill-opacity: 1; stroke-opacity: 1; stroke-width: 0.2;" class="Wall"><polygon points="489.01,359.73 707.06,359.73 707.06,350.73 489.01,350.73 "/><g id="Door" fill="#ffffff" stroke="#000000" style="fill-opacity: 1; stroke-width: 1; stroke-opacity: 1;" class="Door Swing Beside"><polygon points="563.60,359.73 631.24,359.73 631.24,350.73 563.60,350.73 "/><g id="Threshold" class="Threshold"><polygon points="563.60,359.73 631.24,359.73 631.24,350.73 563.60,350.73 "/></g><g id="Panel" fill="none" style="" class="Panel Left Negative"><g id="PanelArea" fill="none" stroke="none" style="" class="PanelArea"><polygon points="563.60,359.73 631.24,359.73 631.24,350.73 563.60,350.73 "/></g><path d="M563.60,359.73 q0.00,67.64 67.64,67.64 l0.00,-67.64Z"/></g></g></g><g id="Wall" fill="#000000" stroke="#000000" style="fill-opacity: 1; stroke-opacity: 1; stroke-width: 0.2;" class="Wall"><polygon points="1300.38,130.33 1488.27,130.33 1488.27,113.33 1300.38,113.33 "/></g><g id="Wall" fill="#000000" stroke="#000000" style="fill-opacity: 1; stroke-opacity: 1; stroke-width: 0.2;" class="Wall"><polygon points="1300.38,507.34 1488.06,507.34 1488.06,524.34 1300.38,524.34 "/></g><g id="Railing" fill="#ffffff" stroke="#000000" style="fill-opacity: 1; stroke-opacity: 1; stroke-width: 0.2;" class="Railing"><polygon points="1488.06,507.34 1488.27,130.33 1478.27,130.33 1478.06,507.33 " style="stroke-dasharray: 0;"/></g><g class="FixedFurniture CoatRack" fill="#ffffff" stroke="#000000" transform="matrix(0,1,-1,0,654.8769,796.2387)" style="fill-opacity: 1; stroke-opacity: 1; stroke-width: 1;">
	   <g class="BoundaryPolygon"> 
		    <polygon points="0.00,0.00 124.06,0.00 124.06,61.38 0.00,61.38 "/>
		</g>	
	    <g class="Bar" stroke-width="0.65"> 
		    <line x1="0" y1="8.593503478565193" x2="124.06487649379496" y2="8.593503478565193"/>
            <line x1="0" y1="16.163970828729767" x2="124.06487649379496" y2="16.163970828729767"/>
            <line x1="0" y1="23.529830953214212" x2="124.06487649379496" y2="23.529830953214212"/>
            <line x1="0" y1="30.691083852018533" x2="124.06487649379496" y2="30.691083852018533"/>
            <line x1="0" y1="38.056943976503" x2="124.06487649379496" y2="38.056943976503"/>
            <line x1="0" y1="45.42280410098744" x2="124.06487649379496" y2="45.42280410098744"/>
            <line x1="0" y1="52.993271451152005" x2="124.06487649379496" y2="52.993271451152005"/>
		</g>
        <g class="Direction" fill-opacity="0.9" style="display: none;">
            <polygon points="64.11,50.53 64.11,39.92 61.10,39.92 61.10,50.53 57.30,50.53 62.60,55.83 67.91,50.53 64.11,50.53 " fill="#444444"/>
        </g> 
        <g class="Name" fill-opacity="0.9" style="display: none;">
            <text transform="translate(3 12)" font-size="12" font-family="Verdana, Sans-Serif">COATRACK</text>
        </g>
        <desc>Width:90 Height:30 Depth:30 Elevation:160</desc>
	</g><g class="FixedFurniture CoatCloset" fill="#ffffff" stroke="#000000" transform="matrix(0,1,-1,0,654.8614,743.3087)" style="fill-opacity: 1; stroke-opacity: 1; stroke-width: 1;">
        <g class="BoundaryPolygon">
            <polygon points="0.00,0.00 52.93,0.00 52.93,61.37 0.00,61.37 "/>
        </g>
        <g class="Hanger" stroke="#9a9a9a" stroke-dasharray="5,5">
            <line x1="0" y1="30.68396050588195" x2="52.92872706844169" y2="30.68396050588195"/>
        </g>
        <g class="Direction" fill-opacity="0.9" style="display: none;">
            <polygon points="27.80,55.94 27.80,45.33 24.79,45.33 24.79,55.94 20.98,55.94 26.29,61.25 31.59,55.94 27.80,55.94 " fill="#444444"/>
        </g> 
        <g class="Name" fill-opacity="0.9" style="display: none;">
            <text transform="translate(3 12)" font-size="12" font-family="Verdana, Sans-Serif">CWH</text>
        </g>
        <desc>Width:60 Height:200 Depth:60 Elevation:0</desc>
     </g><g class="FixedFurniture Closet" fill="#ffffff" stroke="#000000" transform="matrix(0,1,-1,0,654.8614,691.7487)" style="fill-opacity: 1; stroke-opacity: 1; stroke-width: 1;">
        <g class="BoundaryPolygon">
            <polygon points="0.00,0.00 51.56,0.00 51.56,61.60 0.00,61.60 "/>
        </g>
        <g class="Direction" fill-opacity="0.9" style="display: none;">
            <polygon points="27.08,56.15 27.08,45.54 24.07,45.54 24.07,56.15 20.26,56.15 25.57,61.45 30.87,56.15 27.08,56.15 " fill="#444444"/>
        </g> 
        <g class="Name" fill-opacity="0.9" style="display: none;">
            <text transform="translate(3 12)" font-size="12" font-family="Verdana, Sans-Serif">CL</text>
        </g>
        <desc>Width:60 Height:200 Depth:60 Elevation:0</desc>
     </g><g class="FixedFurniture Housing" fill="#ffffff" stroke="#000000" transform="matrix(1.5747,0,0,1.0258,152.0372,514.4907)" style="fill-opacity: 1; stroke-opacity: 1; stroke-width: 1;">
        <g class="BoundaryPolygon">
            <polygon points="0,0 10,0 10,60 0,60"/>
        </g> 
        <g class="Name" fill-opacity="0.9" style="display: none;">
            <text transform="translate(3 12)" font-size="12" font-family="Verdana, Sans-Serif">EMPTY</text>
        </g>
        <desc>Width:60 Height:200 Depth:60 Elevation:0</desc>
     </g><g class="FixedFurniture CoatCloset" fill="#ffffff" stroke="#000000" transform="matrix(1,0,0,1,167.7839,514.3937)" style="fill-opacity: 1; stroke-opacity: 1; stroke-width: 1;">
        <g class="BoundaryPolygon">
            <polygon points="0.00,0.00 100.96,0.00 100.96,61.77 0.00,61.77 "/>
        </g>
        <g class="Hanger" fill="#ffffff" stroke="#9a9a9a" stroke-dasharray="5,5">
            <line x1="0" y1="30.885158975771645" x2="100.95917008446219" y2="30.885158975771645"/>
        </g>
        <g class="Direction" fill-opacity="0.9" style="display: none;">
            <polygon points="51.75,56.12 51.75,45.51 48.74,45.51 48.74,56.12 44.94,56.12 50.24,61.43 55.54,56.12 51.75,56.12 " fill="#444444"/>
        </g> 
        <g class="Name" fill-opacity="0.9" style="display: none;">
            <text transform="translate(3 12)" font-size="12" font-family="Verdana, Sans-Serif">CWH</text>
        </g>
        <desc>Width:120 Height:200 Depth:60 Elevation:0</desc>
     </g><g id="FixedFurnitureSet" transform="matrix(1,0,0,1,268.7431,514.3937)" class="FixedFurnitureSet" fill="#ffffff" stroke="#fc0fc0" style="fill-opacity: 0.4; stroke-opacity: 0.9; stroke-width: 1.5;"><g class="FixedFurniture Closet" fill="#ffffff" stroke="#000000" transform="matrix(1,0,0,1,0,0)" style="fill-opacity: 1; stroke-opacity: 1; stroke-width: 1;">
        <g class="BoundaryPolygon">
            <polygon points="0.00,0.00 60.00,0.00 60.00,61.77 0.00,61.77 "/>
        </g>
        <g class="Direction" fill-opacity="0.9" style="display: none;">
            <polygon points="31.51,56.31 31.51,45.69 28.50,45.69 28.50,56.31 24.70,56.31 30.00,61.61 35.30,56.31 31.51,56.31 " fill="#444444"/>
        </g> 
        <g class="Name" fill-opacity="0.9" style="display: none;">
            <text transform="translate(3 12)" font-size="12" font-family="Verdana, Sans-Serif">CL</text>
        </g>
        <desc>Width:60 Height:200 Depth:60 Elevation:0</desc>
    </g><g class="FixedFurniture Closet" fill="#ffffff" stroke="#000000" transform="matrix(1,0,0,1,60,0)" style="fill-opacity: 1; stroke-opacity: 1; stroke-width: 1;">
        <g class="BoundaryPolygon">
            <polygon points="0.00,0.00 60.00,0.00 60.00,61.77 0.00,61.77 "/>
        </g>
        <g class="Direction" fill-opacity="0.9" style="display: none;">
            <polygon points="31.51,56.31 31.51,45.69 28.50,45.69 28.50,56.31 24.70,56.31 30.00,61.61 35.30,56.31 31.51,56.31 " fill="#444444"/>
        </g> 
        <g class="Name" fill-opacity="0.9" style="display: none;">
            <text transform="translate(3 12)" font-size="12" font-family="Verdana, Sans-Serif">CL</text>
        </g>
        <desc>Width:60 Height:200 Depth:60 Elevation:0</desc>
     </g></g><g class="FixedFurniture CoatCloset" fill="#ffffff" stroke="#000000" transform="matrix(1,0,0,1,388.7431,514.3937)" style="fill-opacity: 1; stroke-opacity: 1; stroke-width: 1;">
        <g class="BoundaryPolygon">
            <polygon points="0.00,0.00 100.96,0.00 100.96,61.99 0.00,61.99 "/>
        </g>
        <g class="Hanger" stroke="#9a9a9a" stroke-dasharray="5,5">
            <line x1="0" y1="30.995803847743108" x2="100.9599248183081" y2="30.995803847743108"/>
        </g>
        <g class="Direction" fill-opacity="0.9" style="display: none;">
            <polygon points="53.02,56.51 53.02,45.90 50.01,45.90 50.01,56.51 46.21,56.51 51.51,61.82 56.81,56.51 53.02,56.51 " fill="#444444"/>
        </g> 
        <g class="Name" fill-opacity="0.9" style="display: none;">
            <text transform="translate(3 12)" font-size="12" font-family="Verdana, Sans-Serif">CWH</text>
        </g>
        <desc>Width:60 Height:200 Depth:60 Elevation:0</desc>
     </g><g class="FixedFurniture Shower" fill="#ffffff" stroke="#000000" transform="matrix(0,-1,1,0,529.0136,190.945)" style="fill-opacity: 1; stroke-opacity: 1; stroke-width: 1;"> 
	    <g class="BoundaryPolygon" fill="none" stroke="none">
            <polygon points="0,0 32,0 32,19 0,19"/>
        </g>
        <g class="InnerPolygon"> 
			<rect x="3.7" y="0.5" width="11.2" height="6.1"/>
			<rect x="17.6" y="0.5" width="11.2" height="6.1"/>
			<rect x="28.7" y="0.5" width="3.4" height="6.1"/>
			<rect x="0.5" y="0.5" width="3.2" height="6.1"/>
			<path d="M14.9,8.5c0,1.5-0.4,3.3-1.6,5    c-0.4,0.6-1,1.1-1.1,1.7c-0.2,1.1,0.3,2.8,2.5,3.2c0.5,0.1,1.3,0.1,1.6,0.1h-0.1c0.3,0,1.1,0,1.6-0.1c2.2-0.4,2.7-2.1,2.5-3.2    c-0.1-0.6-0.7-1.1-1.1-1.7c-1.2-1.7-1.6-3.5-1.6-5"/>
			<path d="M12.2,15.3c0.1,0.2,1.6,1.9,4.2,1.9 c2.4-0.1,3.7-1.7,3.9-1.9"/>
			<path d="M14.9,0.5h2.7v8c-0.9,0-1.8,0-2.7,0l0,0 C14.9,5.9,14.9,3.2,14.9,0.5z"/>
		</g>
	    <g class="Indicator"> 
			<path d="M3.7,3.6C5,3.1,5.2,3,5.2,3 c0,1.1,0,0,0,1.1C5.2,4.1,5.1,4.1,3.7,3.6"/>
			<path d="M28.7,3.6 C27.4,3.1,27.2,3,27.2,3c0,1.1,0,0,0,1.1C27.2,4.1,27.3,4.1,28.7,3.6"/>	
		</g>
        <desc>Width:32 Height:97 Depth:19 Elevation:135</desc>
	</g><g transform="matrix(1,0,0,1,529.0136,223.4099)" class="FixedFurniture Misc" fill="none" stroke="#000000" style="fill-opacity: 1; stroke-opacity: 1; stroke-width: 1.8; stroke-dasharray: 5, 5;"><desc>Width:120 Height:200 Depth:60 Elevation:0</desc><g class="BoundaryPolygon"><path d="M0.00,0.00 L66.56,0.00 L77.48,-2.65 L84.09,-9.93 L86.41,-17.20 L86.41,-92.99 "/></g></g><g id="FixedFurnitureSet" transform="matrix(0,-1,1,0,529.076,284.2498)" class="FixedFurnitureSet" fill="#ffffff" stroke="#fc0fc0" style="fill-opacity: 0.4; stroke-opacity: 0.9; stroke-width: 1.5;"><g class="FixedFurniture BaseCabinet" fill="#ffffff" stroke="#000000" transform="matrix(1,0,0,1,0,0)" style="fill-opacity: 1; stroke-opacity: 1; stroke-width: 1;">
        <g class="BoundaryPolygon">
            <polygon points="0.00,0.00 60.84,0.00 60.84,44.09 0.00,44.09 "/>
        </g>
        <g class="Direction" fill-opacity="0.9" style="display: none;">
            <polygon points="32.46,40.56 32.46,29.94 29.45,29.94 29.45,40.56 25.64,40.56 30.95,45.36 36.25,40.56 32.46,40.56 " fill="#444444"/>
        </g> 
        <g class="Name" fill-opacity="0.9" style="display: none;">
            <text transform="translate(3 12)" font-size="12" font-family="Verdana, Sans-Serif">CB</text>
        </g>
        <desc>Width:60 Height:5 Depth:60 Elevation:105</desc>
    </g><g class="FixedFurniture Sink" fill="#ffffff" stroke="#000000" transform="matrix(1,0,0,1,0,0)" style="fill-opacity: 1; stroke-opacity: 1; stroke-width: 1;">
        <g class="BoundaryPolygon" fill="none" stroke="none">
        <polygon points="0.00,0.00 60.84,0.00 60.84,44.09 0.00,44.09 "/>
        </g>
        <g class="InnerPolygon">
            <polygon points="5.07,9.70 55.77,9.70 55.77,40.19 5.07,40.19 "/>
        </g>
        <g class="OuterDrain" stroke-width="0.8">
            <circle cx="30.419208313620583" cy="23.659841123060982" r="3.5"/>
        </g>
        <g class="InnerDrain" stroke-width="0.8">
            <circle cx="30.419208313620583" cy="23.659841123060982" r="2"/>
        </g>
        <g class="Faucet">
            <polygon points="27.38,3.67 33.38,3.67 33.38,17.67 27.38,17.67 "/>
        </g>
        <g class="Direction" fill-opacity="0.9" style="display: none;">
            <polygon points="32.46,40.56 32.46,29.94 29.45,29.94 29.45,40.56 25.64,40.56 30.95,45.36 36.25,40.56 32.46,40.56 " fill="#444444"/>
        </g> 
        <g class="Name" fill-opacity="0.9" style="display: none;">
            <text transform="translate(3 12)" font-size="12" font-family="Verdana, Sans-Serif">SINK</text>
        </g>
        <desc>Width:60 Height:90 Depth:60 Elevation:0</desc>
    </g></g><g class="FixedFurniture Toilet" fill="#ffffff" stroke="#000000" transform="matrix(0,-1.0358,0.8731,0,499.0136,342.9759)" style="fill-opacity: 1; stroke-opacity: 1; stroke-width: 1;">
	   <g class="BoundaryPolygon" fill="none" stroke="none"> 
            <polygon points="0,0 41,0 41,71 0,71"/>
		</g>
        <g class="InnerPolygon">
            <rect x="0.502" y="0.5" width="39.989" height="17.98"/>
            <path d="M40.491,44.237S41.619,70.5,20.907,70.5C-.523,70.5.6,44.237.6,44.237L.5,18.48H40.491Z"/>
            <rect x="17.318" y="7.975" width="6.357" height="3.03"/>
        </g>
        <desc>Width:41 Height:85 Depth:71 Elevation:0</desc>
    </g><g class="FixedFurniture ElectricalAppliance SpaceForAppliance2" fill="#ffffff" stroke="#000000" stroke-dasharray="4,4" transform="matrix(-0.9301,0,0,-0.9441,697.0637,347.3151)" style="fill-opacity: 1; stroke-opacity: 1; stroke-width: 1;">
	    <g class="BoundaryPolygon"> 
		    <polygon points="0,0 60,0 60,60 0,60"/>
		</g>	
	    <g class="electricitySign" fill="none">
            <path d="M0,0,30.1,39.8V19.4L59.9,60"/>
		</g>
        <g class="Direction" fill-opacity="0.9" style="display: none;">
            <polygon points="32.009 55.197 32.009 44.581 29 44.581 29 55.197 25.197 55.197 30.5 60 35.803 55.197 32.009 55.197" fill="#444444"/>
        </g> 
        <g class="Name" fill-opacity="0.9" stroke-dasharray="none" style="display: none;">
            <text transform="translate(3 12)" font-size="12" font-family="Verdana, Sans-Serif">SFA</text>
        </g>
        <desc>Width:60 Height:90 Depth:60 Elevation:0</desc>
	</g><g transform="matrix(1,0,0,1,489.0658,362.7221)" class="FixedFurniture BaseCabinet" fill="#ffffff" stroke="#000000" style="fill-opacity: 1; stroke-opacity: 1; stroke-width: 1;"><desc>Width:60 Height:90 Depth:60 Elevation:0</desc><g class="BoundaryPolygon"><polygon points="0.00,0.00 -59.11,0.00 -59.11,-167.99 -208.33,-167.99 -208.33,-232.48 -0.33,-232.48 0.00,0.00 "/></g></g><g class="FixedFurniture ElectricalAppliance IntegratedStove" fill="#ffffff" stroke="#000000" transform="matrix(1,0,0,1,360.6478,128.299)" style="fill-opacity: 1; stroke-opacity: 1; stroke-width: 1;">
        <g class="BoundaryPolygon" fill="none" stroke="none">
            <polygon points="0.00,0.00 57.24,0.00 57.24,68.38 0.00,68.38 "/>
        </g>
        <g class="InnerPolygon">
            <polygon points="2.00,2.00 55.33,2.00 55.33,66.10 2.00,66.10 "/>
        </g>
        <g class="OuterCircle">
            <circle cx="15.26344154176754" cy="18.23478314415572" r="8"/>
            <circle cx="41.974464239860744" cy="18.23478314415572" r="8"/>
            <circle cx="15.26344154176754" cy="50.145653646428215" r="8"/>
            <circle cx="41.974464239860744" cy="50.145653646428215" r="8"/>
        </g>
        <g class="Direction" fill-opacity="0.9" style="display: none;">
            <polygon points="30.54,62.91 30.54,52.29 27.53,52.29 27.53,62.91 23.72,62.91 29.03,67.71 34.33,62.91 30.54,62.91 " fill="#444444"/>
        </g> 
        <g class="Name" fill-opacity="0.9" style="display: none;">
            <text transform="translate(3 12)" font-size="12" font-family="Verdana, Sans-Serif">INT_STOVE</text>
        </g>
        <desc>Width:60 Height:90 Depth:30 Elevation:0</desc>
    </g><g class="FixedFurniture DoubleSink" fill="#ffffff" stroke="#000000" transform="matrix(0,1,-1,0,488.0952,215.2194)" style="fill-opacity: 1; stroke-opacity: 1; stroke-width: 1;">
        <g class="BoundaryPolygon" fill="none" stroke="none">
            <polygon points="0.00,0.00 87.07,0.00 87.07,54.15 0.00,54.15 "/>
        </g>
        <g class="InnerPolygonLeft">
            <polygon points="6.22,9.90 41.67,9.90 41.67,49.54 6.22,49.54 "/>
        </g>
        <g class="InnerPolygonRight">
            <polygon points="45.40,10.00 80.85,10.00 80.85,49.63 45.40,49.63 "/>
        </g>
        <g class="OuterDrain" stroke-width="0.8">
            <circle cx="24.505110237974495" cy="29.3291148861726" r="3.5"/>
            <circle cx="62.444494108950245" cy="29.3291148861726" r="3.5"/>
        </g>
        <g class="InnerDrain" stroke-width="0.8">
            <circle cx="24.505110237974495" cy="29.3291148861726" r="2"/>
            <circle cx="62.444494108950245" cy="29.3291148861726" r="2"/>
        </g>
        <g class="Faucet">
            <polygon points="39.81,4.42 45.81,4.42 45.81,18.42 39.81,18.42 "/>
        </g>
        <g class="Direction" fill-opacity="0.9" style="display: none;">
            <polygon points="45.41,49.36 45.41,38.74 42.41,38.74 42.41,49.36 38.60,49.36 43.91,54.66 49.21,49.36 45.41,49.36 " fill="#444444"/>
        </g> 
        <g class="Name" fill-opacity="0.9" style="display: none;">
            <text transform="translate(3 12)" font-size="12" font-family="Verdana, Sans-Serif">DSINK</text>
        </g>
        <desc>Width:70 Height:90 Depth:60 Elevation:0</desc>
    </g><g transform="matrix(1,0,0,1,280.7358,130.2421)" style="stroke-opacity: 1; fill-opacity: 0.7; stroke-width: 1.5;" class="FixedFurniture WallCabinet" fill="#ffffff" stroke="#000000"><desc>Width:60 Height:60 Depth:50 Elevation:140</desc><g class="BoundaryPolygon"><polygon points="0.00,0.00 0.00,32.78 179.11,32.78 179.11,232.55 208.33,232.48 208.33,0.00 0.00,0.00 "/></g></g><g class="FixedFurniture ElectricalAppliance Refrigerator" fill="#ffffff" stroke="#000000" transform="matrix(0.9765,0,0,1.0704,222.1458,130.4504)" style="fill-opacity: 1; stroke-opacity: 1; stroke-width: 1;">
        <g class="BoundaryPolygon">
            <polygon points="0,0 60,0 60,60 0,60"/>
        </g>
        <g class="electricitySign" fill="none" style="display: block;">
            <path d="M0,0,30,37.1v-18L60,56.3"/>
        </g>
        <g class="Doors">
            <rect y="56" width="60" height="4"/>
        </g>
        <g class="Direction" fill-opacity="0.9" style="display: none;">
            <polygon points="32.009 55.197 32.009 44.581 29 44.581 29 55.197 25.197 55.197 30.5 60 35.803 55.197 32.009 55.197" fill="#444444"/>
        </g> 
        <g class="Name" fill-opacity="0.9" style="display: none;">
            <text transform="translate(3 12)" font-size="12" font-family="Verdana, Sans-Serif">REF</text>
        </g>
        <desc>Width:60 Height:170 Depth:60 Elevation:0</desc>
    </g><g class="FixedFurniture Closet" fill="#ffffff" stroke="#000000" transform="matrix(1,0,0,1,163.5557,130.3333)" style="fill-opacity: 1; stroke-opacity: 1; stroke-width: 1;">
        <g class="BoundaryPolygon">
            <polygon points="0.00,0.00 58.59,0.00 58.59,64.51 0.00,64.51 "/>
        </g>
        <g class="Direction" fill-opacity="0.9" style="display: none;">
            <polygon points="30.77,58.81 30.77,48.19 27.76,48.19 27.76,58.81 23.96,58.81 29.26,64.11 34.56,58.81 30.77,58.81 " fill="#444444"/>
        </g> 
        <g class="Name" fill-opacity="0.9" style="display: none;">
            <text transform="translate(3 12)" font-size="12" font-family="Verdana, Sans-Serif">CL</text>
        </g>
        <desc>Width:60 Height:200 Depth:60 Elevation:0</desc>
     </g><g class="FixedFurniture Housing" fill="#ffffff" stroke="#000000" transform="matrix(1.1431,0,0,1.0705,152.0372,130.4001)" style="fill-opacity: 1; stroke-opacity: 1; stroke-width: 1;">
        <g class="BoundaryPolygon">
            <polygon points="0,0 10,0 10,60 0,60"/>
        </g> 
        <g class="Name" fill-opacity="0.9" style="display: none;">
            <text transform="translate(3 12)" font-size="12" font-family="Verdana, Sans-Serif">EMPTY</text>
        </g>
        <desc>Width:60 Height:200 Depth:60 Elevation:0</desc>
     </g><g fill="#0000ff" stroke="#0000ff" style="display: none;" class="SelectionControls"><g style="display: none;" class="rotateControl"><circle cx="1003.2119087037734" cy="270.016711979872" r="5" style="stroke : none; fill-opacity: 0.5; cursor:crosshair"/></g><g style="display: none;" class="ResizeNControl"><circle cx="0" cy="0" r="5" style="stroke : none; fill-opacity: 0.5"/></g><g style="display: none;" class="ResizeNEControl"><circle cx="0" cy="0" r="5" style="stroke : none; fill-opacity: 0.5"/></g><g style="display: none;" class="ResizeEControl"><circle cx="0" cy="0" r="5" style="stroke : none; fill-opacity: 0.5"/></g><g style="display: none;" class="ResizeSEControl"><circle cx="0" cy="0" r="5" style="stroke : none; fill-opacity: 0.5"/></g><g style="display: none;" class="ResizeSControl"><circle cx="0" cy="0" r="5" style="stroke : none; fill-opacity: 0.5"/></g><g style="display: none;" class="ResizeSWControl"><circle cx="0" cy="0" r="5" style="stroke : none; fill-opacity: 0.5"/></g><g style="display: none;" class="ResizeWControl"><circle cx="0" cy="0" r="5" style="stroke : none; fill-opacity: 0.5"/></g><g style="display: none;" class="ResizeNWControl"><circle cx="0" cy="0" r="5" style="stroke : none; fill-opacity: 0.5"/></g><g style="display: none;" class="removeControl"><polygon style="stroke : none; fill-opacity: 0.1" points="977.83,300.02 1028.59,300.02 1028.59,339.84 977.83,339.84 "/></g><g style="display: none;" class="copyPasteControl"><polygon style="stroke : none; fill-opacity: 0.1"/></g><g style="display: none;" class="translateControl"><polygon style="stroke : none; fill-opacity: 0.1; cursor:move" points="977.83,300.02 1028.59,300.02 1028.59,339.84 977.83,339.84 "/></g></g><g fill="#0000ff" stroke="#0000ff" style="display: none;" class="SelectionControls"><polygon fill="none" stroke="#0000ff" style="" points="707.06,130.33 1273.38,130.33 1273.38,507.34 707.06,507.34 "/><g style="display: none;" class="rotateControl"><circle cx="990.2225096803359" cy="100.33323697987203" r="5" style="stroke : none; fill-opacity: 0.5; cursor:crosshair"/></g><g style="display: none;" class="ResizeNControl"><circle cx="0" cy="0" r="5" style="stroke : none; fill-opacity: 0.5"/></g><g style="display: none;" class="ResizeNEControl"><circle cx="0" cy="0" r="5" style="stroke : none; fill-opacity: 0.5"/></g><g style="display: none;" class="ResizeEControl"><circle cx="0" cy="0" r="5" style="stroke : none; fill-opacity: 0.5"/></g><g style="display: none;" class="ResizeSEControl"><circle cx="0" cy="0" r="5" style="stroke : none; fill-opacity: 0.5"/></g><g style="display: none;" class="ResizeSControl"><circle cx="0" cy="0" r="5" style="stroke : none; fill-opacity: 0.5"/></g><g style="display: none;" class="ResizeSWControl"><circle cx="0" cy="0" r="5" style="stroke : none; fill-opacity: 0.5"/></g><g style="display: none;" class="ResizeWControl"><circle cx="0" cy="0" r="5" style="stroke : none; fill-opacity: 0.5"/></g><g style="display: none;" class="ResizeNWControl"><circle cx="0" cy="0" r="5" style="stroke : none; fill-opacity: 0.5"/></g><g style="display: none;" class="removeControl"><polygon style="stroke : none; fill-opacity: 0.1"/></g><g style="display: none;" class="copyPasteControl"><polygon style="stroke : none; fill-opacity: 0.1"/></g><g style="display: none;" class="translateControl"><polygon style="stroke : none; fill-opacity: 0.1; cursor:move"/></g></g></g></g></g></svg>
