<?xml version="1.0"?>
<svg xmlns="http://www.w3.org/2000/svg" xmlns:xlink="http://www.w3.org/1999/xlink" height="972.8400230407715" version="1.1" width="789.9251327514648" id="temp" viewBox="0 0 789.9251327514648 972.8400230407715"><defs/><g id="Model" class="Model v1-1"><g class="Floor"><g id="Floor-1" class="Floorplan Floor-1"><g id="3d9a1b81-80c7-4b7a-b0aa-613961e60b33" fill="#ffffff" stroke="#ffffff" style="fill-opacity: 1; stroke-opacity: 1; stroke-width: 0.2;" class="Space LivingRoom"><polygon points="241.89,94.94 389.91,94.94 389.91,298.21 397.91,298.21 397.91,453.09 389.91,453.09 389.91,547.95 280.96,547.95 280.96,758.55 38.79,758.55 38.79,94.94 114.65,94.94 114.65,57.12 241.89,57.12 "/><g transform="matrix(1,0,0,1,38.7872,57.1228)" class="Dimension"><g transform="matrix(1,0,0,1,0,0)" style="display: none;" class="Visual"><g id="mark1" fill="#000000" stroke="none" transform="matrix(1,0,0,1,179.5613,0)" style="fill-opacity: 1; pointer-events: visible;" class="DimensionMark"><polygon points="-5,5,0,0,5,5"/></g><g id="mark2" fill="#000000" stroke="none" transform="matrix(1,0,0,1,359.1227,350.7127)" style="fill-opacity: 1; pointer-events: visible;" class="DimensionMark"><polygon points="-5,-5,0,0,-5,5"/></g><g id="mark3" fill="#000000" stroke="none" transform="matrix(1,0,0,1,179.5613,701.4254)" style="fill-opacity: 1; pointer-events: visible;" class="DimensionMark"><polygon points="-5,-5,0,0,5,-5"/></g><g id="mark4" fill="#000000" stroke="none" transform="matrix(1,0,0,1,0,350.7127)" style="fill-opacity: 1; pointer-events: visible;" class="DimensionMark"><polygon points="5,5,0,0,5,-5"/></g></g><g transform="matrix(1,0,0,1,156.5493,321.4974)" class="SpaceDimensionsLabel" style="display: block;"><g id="NameLabel" style="display: block;" class="TextLabel NameLabel"><text x="0" y="0em" fill="#000000" stroke="none" style="font-family: Verdana; font-size: 33px; fill-opacity: 1; cursor: default;">OH</text></g><g id="DimensionMeasureLabel" transform="matrix(1,0,0,1,-82.9219,40.3906)" style="display: none;" class="TextLabel DimensionMeasureLabel"><text x="0" y="0em" fill="#000000" stroke="none" style="font-family: Verdana; font-size: 33px; fill-opacity: 1; cursor: default;">11'9" x 23'0"</text><text x="0" y="0"/></g></g></g></g><g id="8c5e3040-79ae-46c8-b6ea-ca301e7ff8cf" fill="#ffffff" stroke="#ffffff" style="fill-opacity: 1; stroke-opacity: 1; stroke-width: 0.2;" class="Space Kitchen"><polygon points="526.00,94.94 555.65,94.94 555.65,164.25 643.97,164.25 643.97,281.11 647.97,281.11 647.97,395.95 631.97,395.95 631.97,489.13 502.42,489.13 502.42,547.95 397.91,547.95 397.91,94.94 401.96,94.94 401.96,56.68 526.00,56.68 "/><g transform="matrix(1,0,0,1,397.9099,56.683)" class="Dimension"><g transform="matrix(1,0,0,1,0,0)" style="display: none;" class="Visual"><g id="mark1" fill="#000000" stroke="none" transform="matrix(1,0,0,1,104.508,0)" style="fill-opacity: 1; pointer-events: visible;" class="DimensionMark"><polygon points="-5,5,0,0,5,5"/></g><g id="mark2" fill="#000000" stroke="none" transform="matrix(1,0,0,1,250.063,245.6328)" style="fill-opacity: 1; pointer-events: visible;" class="DimensionMark"><polygon points="-5,-5,0,0,-5,5"/></g><g id="mark3" fill="#000000" stroke="none" transform="matrix(1,0,0,1,104.508,491.2655)" style="fill-opacity: 1; pointer-events: visible;" class="DimensionMark"><polygon points="-5,-5,0,0,5,-5"/></g><g id="mark4" fill="#000000" stroke="none" transform="matrix(1,0,0,1,0,245.6328)" style="fill-opacity: 1; pointer-events: visible;" class="DimensionMark"><polygon points="5,5,0,0,5,-5"/></g></g><g transform="matrix(1,0,0,1,26.0189,260.9461)" class="SpaceDimensionsLabel" style="display: block;"><g id="NameLabel" style="display: block;" class="TextLabel NameLabel"><text x="0" y="0em" fill="#000000" stroke="none" style="font-family: Verdana; font-size: 33px; fill-opacity: 1; cursor: default;">KEITTI&#xD6;</text></g><g id="DimensionMeasureLabel" transform="matrix(1,0,0,1,-28.7422,40.2031)" style="display: none;" class="TextLabel DimensionMeasureLabel"><text x="0" y="0em" fill="#000000" stroke="none" style="font-family: Verdana; font-size: 33px; fill-opacity: 1; cursor: default;">8'2" x 16'1"</text><text x="0" y="0"/></g></g></g></g><g id="11d9440e-34a5-4142-be15-fa00f225c246" fill="#ffffff" stroke="#ffffff" style="fill-opacity: 1; stroke-opacity: 1; stroke-width: 0.2;" class="Space Entry Lobby"><polygon points="509.39,628.64 644.97,628.64 644.97,798.59 550.31,798.59 550.31,758.55 290.96,758.55 290.96,556.95 509.39,556.95 "/><g transform="matrix(1,0,0,1,290.9593,556.9485)" class="Dimension"><g transform="matrix(1,0,0,1,0,0)" style="display: none;" class="Visual"><g id="mark1" fill="#000000" stroke="none" transform="matrix(1,0,0,1,177.0068,0)" style="fill-opacity: 1; pointer-events: visible;" class="DimensionMark"><polygon points="-5,5,0,0,5,5"/></g><g id="mark2" fill="#000000" stroke="none" transform="matrix(1,0,0,1,354.0137,120.8196)" style="fill-opacity: 1; pointer-events: visible;" class="DimensionMark"><polygon points="-5,-5,0,0,-5,5"/></g><g id="mark3" fill="#000000" stroke="none" transform="matrix(1,0,0,1,177.0068,201.5997)" style="fill-opacity: 1; pointer-events: visible;" class="DimensionMark"><polygon points="-5,-5,0,0,5,-5"/></g><g id="mark4" fill="#000000" stroke="none" transform="matrix(1,0,0,1,0,120.8196)" style="fill-opacity: 1; pointer-events: visible;" class="DimensionMark"><polygon points="5,5,0,0,5,-5"/></g></g><g transform="matrix(1,0,0,1,178.1291,141.4401)" class="SpaceDimensionsLabel" style="display: block;"><g id="NameLabel" style="display: block;" class="TextLabel NameLabel"><text x="0" y="0em" fill="#000000" stroke="none" style="font-family: Verdana; font-size: 33px; fill-opacity: 1; cursor: default;">ET</text></g><g id="DimensionMeasureLabel" transform="matrix(1,0,0,1,-76.8203,40.2032)" style="display: none;" class="TextLabel DimensionMeasureLabel"><text x="0" y="0em" fill="#000000" stroke="none" style="font-family: Verdana; font-size: 33px; fill-opacity: 1; cursor: default;">11'7" x 6'7"</text><text x="0" y="0"/></g></g></g></g><g id="9270b076-2481-4fa3-a649-ff8c7ade0a49" fill="#ffffff" stroke="#ffffff" style="fill-opacity: 1; stroke-opacity: 1; stroke-width: 0.2;" class="Space Bath"><polygon points="378.15,956.84 226.86,956.84 226.86,809.45 238.06,809.45 238.06,771.55 378.15,771.55 "/><g transform="matrix(1,0,0,1,226.8623,771.5482)" class="Dimension"><g transform="matrix(1,0,0,1,0,0)" style="display: none;" class="Visual"><g id="mark1" fill="#000000" stroke="none" transform="matrix(1,0,0,1,75.6461,0)" style="fill-opacity: 1; pointer-events: visible;" class="DimensionMark"><polygon points="-5,5,0,0,5,5"/></g><g id="mark2" fill="#000000" stroke="none" transform="matrix(1,0,0,1,151.2923,92.6449)" style="fill-opacity: 1; pointer-events: visible;" class="DimensionMark"><polygon points="-5,-5,0,0,-5,5"/></g><g id="mark3" fill="#000000" stroke="none" transform="matrix(1,0,0,1,75.6461,185.2899)" style="fill-opacity: 1; pointer-events: visible;" class="DimensionMark"><polygon points="-5,-5,0,0,5,-5"/></g><g id="mark4" fill="#000000" stroke="none" transform="matrix(1,0,0,1,0,92.6449)" style="fill-opacity: 1; pointer-events: visible;" class="DimensionMark"><polygon points="5,5,0,0,5,-5"/></g></g><g transform="matrix(1,0,0,1,34.7996,138.4528)" class="SpaceDimensionsLabel" style="display: block;"><g id="NameLabel" style="display: block;" class="TextLabel NameLabel"><text x="0" y="0em" fill="#000000" stroke="none" style="font-family: Verdana; font-size: 33px; fill-opacity: 1; cursor: default;">KH</text></g><g id="DimensionMeasureLabel" transform="matrix(1,0,0,1,-63.5,40.2031)" style="display: none;" class="TextLabel DimensionMeasureLabel"><text x="0" y="0em" fill="#000000" stroke="none" style="font-family: Verdana; font-size: 33px; fill-opacity: 1; cursor: default;">5'0" x 6'1"</text><text x="0" y="0"/></g></g></g></g><g id="2a25c54f-1876-43cd-9702-ee609cf13bd8" fill="#ffffff" stroke="#ffffff" style="fill-opacity: 1; stroke-opacity: 1; stroke-width: 0.2;" class="Space Undefined"><polygon points="497.98,809.06 510.82,809.06 510.82,848.52 472.69,848.52 472.69,828.52 392.88,828.52 392.88,771.55 497.98,771.55 "/><g transform="matrix(1,0,0,1,392.8774,771.5482)" class="Dimension"><g transform="matrix(1,0,0,1,0,0)" style="display: none;" class="Visual"><g id="mark1" fill="#000000" stroke="none" transform="matrix(1,0,0,1,58.9701,0)" style="fill-opacity: 1; pointer-events: visible;" class="DimensionMark"><polygon points="-5,5,0,0,5,5"/></g><g id="mark2" fill="#000000" stroke="none" transform="matrix(1,0,0,1,117.9402,38.4875)" style="fill-opacity: 1; pointer-events: visible;" class="DimensionMark"><polygon points="-5,-5,0,0,-5,5"/></g><g id="mark3" fill="#000000" stroke="none" transform="matrix(1,0,0,1,58.9701,56.9751)" style="fill-opacity: 1; pointer-events: visible;" class="DimensionMark"><polygon points="-5,-5,0,0,5,-5"/></g><g id="mark4" fill="#000000" stroke="none" transform="matrix(1,0,0,1,0,38.4875)" style="fill-opacity: 1; pointer-events: visible;" class="DimensionMark"><polygon points="5,5,0,0,5,-5"/></g></g><g transform="matrix(1,0,0,1,73.9682,28.2643)" class="SpaceDimensionsLabel"><g id="NameLabel" style="display: block;" class="TextLabel NameLabel"><text x="0" y="0em" fill="#000000" stroke="none" style="font-family: Verdana; font-size: 33px; fill-opacity: 1; cursor: default;">UNDEFINED</text></g><g id="DimensionMeasureLabel" transform="matrix(1,0,0,1,1.6562,40.0312)" style="display: none;" class="TextLabel DimensionMeasureLabel"><text x="0" y="0em" fill="#000000" stroke="none" style="font-family: Verdana; font-size: 33px; fill-opacity: 1; cursor: default;">3'10" x 1'10"</text><text x="0" y="0"/></g></g></g></g><g id="dfeaabae-f466-4798-931f-19364db0fccb" fill="#ffffff" stroke="#ffffff" style="fill-opacity: 1; stroke-opacity: 1; stroke-width: 0.2;" class="Space Undefined"><polygon points="644.97,618.64 518.39,618.64 518.39,556.95 644.97,556.95 "/><g transform="matrix(1,0,0,1,518.3928,556.9485)" class="Dimension"><g transform="matrix(1,0,0,1,0,0)" style="display: none;" class="Visual"><g id="mark1" fill="#000000" stroke="none" transform="matrix(1,0,0,1,63.2901,0)" style="fill-opacity: 1; pointer-events: visible;" class="DimensionMark"><polygon points="-5,5,0,0,5,5"/></g><g id="mark2" fill="#000000" stroke="none" transform="matrix(1,0,0,1,126.5801,30.8437)" style="fill-opacity: 1; pointer-events: visible;" class="DimensionMark"><polygon points="-5,-5,0,0,-5,5"/></g><g id="mark3" fill="#000000" stroke="none" transform="matrix(1,0,0,1,63.2901,61.6875)" style="fill-opacity: 1; pointer-events: visible;" class="DimensionMark"><polygon points="-5,-5,0,0,5,-5"/></g><g id="mark4" fill="#000000" stroke="none" transform="matrix(1,0,0,1,0,30.8437)" style="fill-opacity: 1; pointer-events: visible;" class="DimensionMark"><polygon points="5,5,0,0,5,-5"/></g></g><g transform="matrix(1,0,0,1,63.29,30.8438)" class="SpaceDimensionsLabel"><g id="NameLabel" style="display: block;" class="TextLabel NameLabel"><text x="0" y="0em" fill="#000000" stroke="none" style="font-family: Verdana; font-size: 33px; fill-opacity: 1; cursor: default;">UNDEFINED</text></g><g id="DimensionMeasureLabel" transform="matrix(1,0,0,1,12.1485,40.0312)" style="display: none;" class="TextLabel DimensionMeasureLabel"><text x="0" y="0em" fill="#000000" stroke="none" style="font-family: Verdana; font-size: 33px; fill-opacity: 1; cursor: default;">4'2" x 2'0"</text><text x="0" y="0"/></g></g></g></g><g id="abb82524-a8e4-4775-ba0f-b6e4a44485b5" fill="#ffffff" stroke="#ffffff" style="fill-opacity: 1; stroke-opacity: 1; stroke-width: 0.2;" class="Space Undefined"><polygon points="589.97,516.16 604.97,516.16 604.97,532.43 607.97,532.43 607.97,547.95 510.42,547.95 510.42,497.13 589.97,497.13 "/><g transform="matrix(1,0,0,1,510.4179,497.1293)" class="Dimension"><g transform="matrix(1,0,0,1,0,0)" style="display: none;" class="Visual"><g id="mark1" fill="#000000" stroke="none" transform="matrix(1,0,0,1,48.7775,0)" style="fill-opacity: 1; pointer-events: visible;" class="DimensionMark"><polygon points="-5,5,0,0,5,5"/></g><g id="mark2" fill="#000000" stroke="none" transform="matrix(1,0,0,1,94.555,25.4096)" style="fill-opacity: 1; pointer-events: visible;" class="DimensionMark"><polygon points="-5,-5,0,0,-5,5"/></g><g id="mark3" fill="#000000" stroke="none" transform="matrix(1,0,0,1,48.7775,50.8192)" style="fill-opacity: 1; pointer-events: visible;" class="DimensionMark"><polygon points="-5,-5,0,0,5,-5"/></g><g id="mark4" fill="#000000" stroke="none" transform="matrix(1,0,0,1,0,25.4096)" style="fill-opacity: 1; pointer-events: visible;" class="DimensionMark"><polygon points="5,5,0,0,5,-5"/></g></g><g transform="matrix(1,0,0,1,25.4096,25.4096)" class="SpaceDimensionsLabel"><g id="NameLabel" style="display: block;" class="TextLabel NameLabel"><text x="0" y="0em" fill="#000000" stroke="none" style="font-family: Verdana; font-size: 33px; fill-opacity: 1; cursor: default;">UNDEFINED</text></g><g id="DimensionMeasureLabel" transform="matrix(1,0,0,1,12.1485,40.0312)" style="display: none;" class="TextLabel DimensionMeasureLabel"><text x="0" y="0em" fill="#000000" stroke="none" style="font-family: Verdana; font-size: 33px; fill-opacity: 1; cursor: default;">3'1" x 1'8"</text><text x="0" y="0"/></g></g></g></g><g id="27892aaf-3072-4895-8421-85c54e57c9ad" fill="#ffffff" stroke="#ffffff" style="fill-opacity: 1; stroke-opacity: 1; stroke-width: 0.2;" class="Space Undefined"><polygon points="616.97,153.48 565.03,153.48 565.03,76.32 616.97,76.32 "/><g transform="matrix(1,0,0,1,565.0333,76.3198)" class="Dimension"><g transform="matrix(1,0,0,1,0,0)" style="display: none;" class="Visual"><g id="mark1" fill="#000000" stroke="none" transform="matrix(1,0,0,1,25.9698,0)" style="fill-opacity: 1; pointer-events: visible;" class="DimensionMark"><polygon points="-5,5,0,0,5,5"/></g><g id="mark2" fill="#000000" stroke="none" transform="matrix(1,0,0,1,51.9397,38.5782)" style="fill-opacity: 1; pointer-events: visible;" class="DimensionMark"><polygon points="-5,-5,0,0,-5,5"/></g><g id="mark3" fill="#000000" stroke="none" transform="matrix(1,0,0,1,25.9698,77.1565)" style="fill-opacity: 1; pointer-events: visible;" class="DimensionMark"><polygon points="-5,-5,0,0,5,-5"/></g><g id="mark4" fill="#000000" stroke="none" transform="matrix(1,0,0,1,0,38.5782)" style="fill-opacity: 1; pointer-events: visible;" class="DimensionMark"><polygon points="5,5,0,0,5,-5"/></g></g><g transform="matrix(1,0,0,1,25.9699,25.9699)" class="SpaceDimensionsLabel"><g id="NameLabel" style="display: block;" class="TextLabel NameLabel"><text x="0" y="0em" fill="#000000" stroke="none" style="font-family: Verdana; font-size: 33px; fill-opacity: 1; cursor: default;">UNDEFINED</text></g><g id="DimensionMeasureLabel" transform="matrix(1,0,0,1,12.1485,40.0312)" style="display: none;" class="TextLabel DimensionMeasureLabel"><text x="0" y="0em" fill="#000000" stroke="none" style="font-family: Verdana; font-size: 33px; fill-opacity: 1; cursor: default;">1'8" x 2'6"</text><text x="0" y="0"/></g></g></g></g><g id="Wall" fill="#000000" stroke="#000000" style="fill-opacity: 1; stroke-opacity: 1; stroke-width: 0.2;" class="Wall External"><polygon points="38.79,94.94 114.65,94.94 114.65,32.94 28.79,32.94 "/></g><g id="Wall" fill="#000000" stroke="#000000" style="fill-opacity: 1; stroke-opacity: 1; stroke-width: 0.2;" class="Wall External"><polygon points="114.65,57.12 241.89,57.12 241.89,32.94 114.65,32.94 "/><g id="Window" fill="#f0f0ff" stroke="#000000" style="fill-opacity: 1; stroke-width: 1; stroke-opacity: 1;" class="Window Regular"><polygon points="116.21,57.12 237.75,57.12 237.75,32.94 116.21,32.94 "/><g id="Glass" class="Glass"><polygon points="116.21,57.12 237.75,57.12 237.75,32.94 116.21,32.94 "/></g><g id="Panel" class="Panel"><line x1="123.70733747022332" x2="230.24706567600867" y1="45.0325545874315" y2="45.03255458743147"/><line x1="123.70733747022332" x2="123.70733747022332" y1="57.122752435102214" y2="32.94235673976078"/><line x1="230.24706567600867" x2="230.24706567600867" y1="57.122752435102186" y2="32.942356739760754"/></g></g></g><g id="Wall" fill="#000000" stroke="#000000" style="fill-opacity: 1; stroke-opacity: 1; stroke-width: 0.2;" class="Wall External"><polygon points="241.89,94.94 401.96,94.94 401.96,32.94 241.89,32.94 "/></g><g id="Wall" fill="#000000" stroke="#000000" style="fill-opacity: 1; stroke-opacity: 1; stroke-width: 0.2;" class="Wall External"><polygon points="401.96,56.68 526.00,56.68 526.00,32.94 401.96,32.94 "/><g id="Window" fill="#f0f0ff" stroke="#000000" style="fill-opacity: 1; stroke-width: 1; stroke-opacity: 1;" class="Window Regular"><polygon points="404.39,56.68 524.21,56.68 524.21,32.94 404.39,32.94 "/><g id="Glass" class="Glass"><polygon points="404.39,56.68 524.21,56.68 524.21,32.94 404.39,32.94 "/></g><g id="Panel" class="Panel"><line x1="411.89076183040515" x2="516.7089641409243" y1="44.81267316705559" y2="44.81267316705557"/><line x1="411.89076183040515" x2="411.89076183040515" y1="56.68298959435038" y2="32.9423567397608"/><line x1="516.7089641409243" x2="516.7089641409243" y1="56.68298959435035" y2="32.94235673976077"/></g></g></g><g id="Wall" fill="#000000" stroke="#000000" style="fill-opacity: 1; stroke-opacity: 1; stroke-width: 0.2;" class="Wall External"><polygon points="526.00,94.94 555.65,94.94 565.03,32.94 526.00,32.94 "/></g><g id="Wall" fill="#000000" stroke="#000000" style="fill-opacity: 1; stroke-opacity: 1; stroke-width: 0.2;" class="Wall External"><polygon points="563.65,76.32 616.97,76.32 661.97,32.94 563.65,32.94 "/></g><g id="Wall" fill="#000000" stroke="#000000" style="fill-opacity: 1; stroke-opacity: 1; stroke-width: 0.2;" class="Wall External"><polygon points="661.97,32.94 661.97,164.25 616.97,153.48 616.97,76.32 "/></g><g id="Wall" fill="#000000" stroke="#000000" style="fill-opacity: 1; stroke-opacity: 1; stroke-width: 0.2;" class="Wall External"><polygon points="661.97,164.25 661.97,281.11 643.97,281.11 643.97,164.25 "/></g><g id="Wall" fill="#000000" stroke="#000000" style="fill-opacity: 1; stroke-opacity: 1; stroke-width: 0.2;" class="Wall External"><polygon points="661.97,281.11 661.97,395.95 647.97,395.95 647.97,281.11 "/></g><g id="Wall" fill="#000000" stroke="#000000" style="fill-opacity: 1; stroke-opacity: 1; stroke-width: 0.2;" class="Wall External"><polygon points="661.97,395.95 661.97,489.13 631.97,489.13 631.97,395.95 "/></g><g id="Wall" fill="#000000" stroke="#000000" style="fill-opacity: 1; stroke-opacity: 1; stroke-width: 0.2;" class="Wall External"><polygon points="661.97,489.13 661.97,516.16 589.97,516.16 589.97,497.13 "/></g><g id="Wall" fill="#000000" stroke="#000000" style="fill-opacity: 1; stroke-opacity: 1; stroke-width: 0.2;" class="Wall External"><polygon points="661.97,516.16 661.97,532.43 604.97,532.43 604.97,516.16 "/></g><g id="Wall" fill="#000000" stroke="#000000" style="fill-opacity: 1; stroke-opacity: 1; stroke-width: 0.2;" class="Wall External"><polygon points="661.97,532.43 661.97,556.95 607.97,547.95 607.97,532.43 "/></g><g id="Wall" fill="#000000" stroke="#000000" style="fill-opacity: 1; stroke-opacity: 1; stroke-width: 0.2;" class="Wall External"><polygon points="661.97,556.95 661.97,811.59 644.97,798.59 644.97,556.95 "/></g><g id="Wall" fill="#000000" stroke="#000000" style="fill-opacity: 1; stroke-opacity: 1; stroke-width: 0.2;" class="Wall External"><polygon points="661.97,811.59 536.82,811.59 510.82,798.59 644.97,798.59 "/><g id="Door" fill="#ffffff" stroke="#000000" style="fill-opacity: 1; stroke-width: 1; stroke-opacity: 1;" class="Door Swing Beside"><polygon points="639.98,811.59 555.32,811.59 555.32,798.59 639.98,798.59 "/><g id="Threshold" class="Threshold"><polygon points="639.98,811.59 555.32,811.59 555.32,798.59 639.98,798.59 "/></g><g id="Panel" fill="none" style="" class="Panel Left Negative"><g id="PanelArea" fill="none" stroke="none" style="" class="PanelArea"><polygon points="639.98,811.59 555.32,811.59 555.32,798.59 639.98,798.59 "/></g><path d="M639.98,811.59 q0.00,84.66 -84.66,84.66 l0.00,-84.66Z"/></g></g></g><g id="Wall" fill="#000000" stroke="#000000" style="fill-opacity: 1; stroke-opacity: 1; stroke-width: 0.2;" class="Wall External"><polygon points="536.82,811.59 536.82,861.52 510.82,848.52 510.82,798.59 "/></g><g id="Wall" fill="#000000" stroke="#000000" style="fill-opacity: 1; stroke-opacity: 1; stroke-width: 0.2;" class="Wall External"><polygon points="536.82,861.52 472.69,861.52 472.69,848.52 510.82,848.52 "/></g><g id="Wall" fill="#000000" stroke="#000000" style="fill-opacity: 1; stroke-opacity: 1; stroke-width: 0.2;" class="Wall External"><polygon points="472.69,861.52 394.15,861.52 378.15,828.52 472.69,828.52 "/></g><g id="Wall" fill="#000000" stroke="#000000" style="fill-opacity: 1; stroke-opacity: 1; stroke-width: 0.2;" class="Wall External"><polygon points="378.15,828.52 378.15,956.84 394.15,972.84 394.15,861.52 "/></g><g id="Wall" fill="#000000" stroke="#000000" style="fill-opacity: 1; stroke-opacity: 1; stroke-width: 0.2;" class="Wall External"><polygon points="378.15,956.84 226.86,956.84 210.86,972.84 394.15,972.84 "/></g><g id="Wall" fill="#000000" stroke="#000000" style="fill-opacity: 1; stroke-opacity: 1; stroke-width: 0.2;" class="Wall External"><polygon points="226.86,956.84 226.86,809.45 210.86,809.45 210.86,972.84 "/></g><g id="Wall" fill="#000000" stroke="#000000" style="fill-opacity: 1; stroke-opacity: 1; stroke-width: 0.2;" class="Wall External"><polygon points="238.06,809.45 238.06,758.55 210.86,784.55 210.86,809.45 "/></g><g id="Wall" fill="#000000" stroke="#000000" style="fill-opacity: 1; stroke-opacity: 1; stroke-width: 0.2;" class="Wall External"><polygon points="238.06,758.55 38.79,758.55 28.79,784.55 210.86,784.55 "/></g><g id="Wall" fill="#000000" stroke="#000000" style="fill-opacity: 1; stroke-opacity: 1; stroke-width: 0.2;" class="Wall External"><polygon points="38.79,758.55 38.79,94.94 28.79,32.94 28.79,784.55 "/></g><g id="Wall" fill="#000000" stroke="#000000" style="fill-opacity: 1; stroke-opacity: 1; stroke-width: 0.2;" class="Wall"><polygon points="238.06,758.55 392.88,758.55 378.15,771.55 238.06,771.55 "/><g id="Door" fill="#ffffff" stroke="#000000" style="fill-opacity: 1; stroke-width: 1; stroke-opacity: 1;" class="Door Swing Beside"><polygon points="295.93,758.55 365.34,758.55 365.34,771.55 295.93,771.55 "/><g id="Threshold" class="Threshold"><polygon points="295.93,758.55 365.34,758.55 365.34,771.55 295.93,771.55 "/></g><g id="Panel" fill="none" style="" class="Panel Right Negative"><g id="PanelArea" fill="none" stroke="none" style="" class="PanelArea"><polygon points="295.93,758.55 365.34,758.55 365.34,771.55 295.93,771.55 "/></g><path d="M365.34,758.55 q0.00,-69.41 -69.41,-69.41 l0.00,69.41Z"/></g></g></g><g id="Wall" fill="#000000" stroke="#000000" style="fill-opacity: 1; stroke-opacity: 1; stroke-width: 0.2;" class="Wall"><polygon points="378.15,771.55 378.15,828.52 392.88,828.52 392.88,758.55 "/></g><g id="Wall" fill="#000000" stroke="#000000" style="fill-opacity: 1; stroke-opacity: 1; stroke-width: 0.2;" class="Wall"><polygon points="392.88,758.55 550.31,758.55 497.98,771.55 392.88,771.55 "/><g id="Door" fill="#ffffff" stroke="#000000" style="fill-opacity: 1; stroke-width: 1; stroke-opacity: 1;" class="Door Swing Beside"><polygon points="412.68,758.55 462.92,758.55 462.92,771.55 412.68,771.55 "/><g id="Threshold" class="Threshold"><polygon points="412.68,758.55 462.92,758.55 462.92,771.55 412.68,771.55 "/></g><g id="Panel" fill="none" style="" class="Panel Right Negative"><g id="PanelArea" fill="none" stroke="none" style="" class="PanelArea"><polygon points="412.68,758.55 462.92,758.55 462.92,771.55 412.68,771.55 "/></g><path d="M462.92,758.55 q0.00,-50.24 -50.24,-50.24 l0.00,50.24Z"/></g></g></g><g id="Wall" fill="#000000" stroke="#000000" style="fill-opacity: 1; stroke-opacity: 1; stroke-width: 0.2;" class="Wall"><polygon points="550.31,758.55 550.31,798.59 497.98,798.59 497.98,771.55 "/></g><g id="Wall" fill="#000000" stroke="#000000" style="fill-opacity: 1; stroke-opacity: 1; stroke-width: 0.2;" class="Wall"><polygon points="497.98,798.59 497.98,809.06 510.98,809.06 510.98,798.59 "/></g><g id="Wall" fill="#000000" stroke="#000000" style="fill-opacity: 1; stroke-opacity: 1; stroke-width: 0.2;" class="Wall"><polygon points="661.97,556.95 290.96,556.95 280.96,547.95 607.97,547.95 "/><g id="Door" fill="#ffffff" stroke="#000000" style="fill-opacity: 1; stroke-width: 1; stroke-opacity: 1;" class="Door Swing Beside"><polygon points="384.51,556.95 295.64,556.95 295.64,547.95 384.51,547.95 "/><g id="Threshold" class="Threshold"><polygon points="384.51,556.95 295.64,556.95 295.64,547.95 384.51,547.95 "/></g><g id="Panel" fill="none" style="" class="Panel Left Negative"><g id="PanelArea" fill="none" stroke="none" style="" class="PanelArea"><polygon points="384.51,556.95 295.64,556.95 295.64,547.95 384.51,547.95 "/></g><path d="M384.51,556.95 q0.00,88.87 -88.87,88.87 l0.00,-88.87Z"/></g></g><g id="Door" fill="#ffffff" stroke="#000000" style="fill-opacity: 1; stroke-width: 1; stroke-opacity: 1;" class="Door Swing Beside"><polygon points="495.45,556.95 403.10,556.95 403.10,547.95 495.45,547.95 "/><g id="Threshold" class="Threshold"><polygon points="495.45,556.95 403.10,556.95 403.10,547.95 495.45,547.95 "/></g><g id="Panel" fill="none" style="" class="Panel Right Negative"><g id="PanelArea" fill="none" stroke="none" style="" class="PanelArea"><polygon points="495.45,556.95 403.10,556.95 403.10,547.95 495.45,547.95 "/></g><path d="M403.10,556.95 q0.00,92.35 92.35,92.35 l0.00,-92.35Z"/></g></g></g><g id="Wall" fill="#000000" stroke="#000000" style="fill-opacity: 1; stroke-opacity: 1; stroke-width: 0.2;" class="Wall"><polygon points="290.96,556.95 290.96,771.55 280.96,771.55 280.96,547.95 "/></g><g id="Wall" fill="#000000" stroke="#000000" style="fill-opacity: 1; stroke-opacity: 1; stroke-width: 0.2;" class="Wall"><polygon points="509.39,547.95 509.39,628.64 518.39,618.64 518.39,547.95 "/><g id="Door" fill="#ffffff" stroke="#000000" style="fill-opacity: 1; stroke-width: 1; stroke-opacity: 1;" class="Door Swing Beside"><polygon points="509.39,565.53 509.39,614.03 518.39,614.03 518.39,565.53 "/><g id="Threshold" class="Threshold"><polygon points="509.39,565.53 509.39,614.03 518.39,614.03 518.39,565.53 "/></g><g id="Panel" fill="none" style="" class="Panel Right Negative"><g id="PanelArea" fill="none" stroke="none" style="" class="PanelArea"><polygon points="509.39,565.53 509.39,614.03 518.39,614.03 518.39,565.53 "/></g><path d="M509.39,614.03 q-48.50,0.00 -48.50,-48.50 l48.50,0.00Z"/></g></g></g><g id="Wall" fill="#000000" stroke="#000000" style="fill-opacity: 1; stroke-opacity: 1; stroke-width: 0.2;" class="Wall"><polygon points="509.39,628.64 661.97,628.64 661.97,618.64 518.39,618.64 "/><g id="Door" fill="#ffffff" stroke="#000000" style="fill-opacity: 1; stroke-width: 1; stroke-opacity: 1;" class="Door Swing Beside"><polygon points="589.83,628.64 640.37,628.64 640.37,618.64 589.83,618.64 "/><g id="Threshold" class="Threshold"><polygon points="589.83,628.64 640.37,628.64 640.37,618.64 589.83,618.64 "/></g><g id="Panel" fill="none" style="" class="Panel Left Negative"><g id="PanelArea" fill="none" stroke="none" style="" class="PanelArea"><polygon points="589.83,628.64 640.37,628.64 640.37,618.64 589.83,618.64 "/></g><path d="M589.83,628.64 q0.00,50.53 50.53,50.53 l0.00,-50.53Z"/></g></g></g><g id="Wall" fill="#000000" stroke="#000000" style="fill-opacity: 1; stroke-opacity: 1; stroke-width: 0.2;" class="Wall"><polygon points="661.97,489.13 502.42,489.13 510.42,497.13 589.97,497.13 "/><g id="Door" fill="#ffffff" stroke="#000000" style="fill-opacity: 1; stroke-width: 1; stroke-opacity: 1;" class="Door Swing Beside"><polygon points="566.19,489.13 515.30,489.13 515.30,497.13 566.19,497.13 "/><g id="Threshold" class="Threshold"><polygon points="566.19,489.13 515.30,489.13 515.30,497.13 566.19,497.13 "/></g><g id="Panel" fill="none" style="" class="Panel Left Negative"><g id="PanelArea" fill="none" stroke="none" style="" class="PanelArea"><polygon points="566.19,489.13 515.30,489.13 515.30,497.13 566.19,497.13 "/></g><path d="M566.19,489.13 q0.00,-50.90 -50.90,-50.90 l0.00,50.90Z"/></g></g></g><g id="Wall" fill="#000000" stroke="#000000" style="fill-opacity: 1; stroke-opacity: 1; stroke-width: 0.2;" class="Wall"><polygon points="502.42,489.13 502.42,556.95 510.42,556.95 510.42,497.13 "/></g><g id="Wall" fill="#000000" stroke="#000000" style="fill-opacity: 1; stroke-opacity: 1; stroke-width: 0.2;" class="Wall"><polygon points="389.91,32.94 389.91,298.21 397.91,298.21 397.91,32.94 "/></g><g id="Wall" fill="#000000" stroke="#000000" style="fill-opacity: 1; stroke-opacity: 1; stroke-width: 0.2;" class="Wall"><polygon points="389.91,453.09 389.91,556.95 397.91,556.95 397.91,453.09 "/></g><g id="Wall" fill="#000000" stroke="#000000" style="fill-opacity: 1; stroke-opacity: 1; stroke-width: 0.2;" class="Wall"><polygon points="565.03,32.94 565.03,153.48 555.65,164.25 555.65,94.94 "/><g id="Door" fill="#ffffff" stroke="#000000" style="fill-opacity: 1; stroke-width: 1; stroke-opacity: 1;" class="Door Swing Beside"><polygon points="565.03,99.86 565.03,150.42 555.65,150.42 555.65,99.86 "/><g id="Threshold" class="Threshold"><polygon points="565.03,99.86 565.03,150.42 555.65,150.42 555.65,99.86 "/></g><g id="Panel" fill="none" style="" class="Panel Left Positive"><g id="PanelArea" fill="none" stroke="none" style="" class="PanelArea"><polygon points="565.03,99.86 565.03,150.42 555.65,150.42 555.65,99.86 "/></g><path d="M555.65,150.42 q-50.56,0.00 -50.56,-50.56 l50.56,0.00Z"/></g></g></g><g id="Wall" fill="#000000" stroke="#000000" style="fill-opacity: 1; stroke-opacity: 1; stroke-width: 0.2;" class="Wall"><polygon points="555.65,164.25 661.97,164.25 616.97,153.48 565.03,153.48 "/></g><g class="FixedFurniture BaseCabinet" fill="#ffffff" stroke="#000000" transform="matrix(1,0,0,1,114.6541,57.1696)" style="fill-opacity: 1; stroke-opacity: 1; stroke-width: 1;">
        <g class="BoundaryPolygon">
            <polygon points="0.00,0.00 126.98,0.00 126.98,37.31 0.00,37.31 "/>
        </g>
        <g class="Direction" fill-opacity="0.9" style="display: none;">
            <polygon points="67.74,34.32 67.74,23.70 64.73,23.70 64.73,34.32 60.93,34.32 66.23,39.12 71.53,34.32 67.74,34.32 " fill="#444444"/>
        </g> 
        <g class="Name" fill-opacity="0.9" style="display: none;">
            <text transform="translate(3 12)" font-size="12" font-family="Verdana, Sans-Serif">CB</text>
        </g>
        <desc>Width:60 Height:90 Depth:60 Elevation:0</desc>
    </g><g class="FixedFurniture BaseCabinet" fill="#ffffff" stroke="#000000" transform="matrix(1,0,0,1,402.2695,56.7299)" style="fill-opacity: 1; stroke-opacity: 1; stroke-width: 1;">
        <g class="BoundaryPolygon">
            <polygon points="0.00,0.00 123.73,0.00 123.73,37.77 0.00,37.77 "/>
        </g>
        <g class="Direction" fill-opacity="0.9" style="display: none;">
            <polygon points="66.01,34.75 66.01,24.13 63.00,24.13 63.00,34.75 59.20,34.75 64.50,39.55 69.80,34.75 66.01,34.75 " fill="#444444"/>
        </g> 
        <g class="Name" fill-opacity="0.9" style="display: none;">
            <text transform="translate(3 12)" font-size="12" font-family="Verdana, Sans-Serif">CB</text>
        </g>
        <desc>Width:60 Height:90 Depth:60 Elevation:0</desc>
    </g><g class="FixedFurniture Closet" fill="#ffffff" stroke="#000000" transform="matrix(0,1,-1,0,616.8792,76.3198)" style="fill-opacity: 1; stroke-opacity: 1; stroke-width: 1;">
        <g class="BoundaryPolygon">
            <polygon points="0.00,0.00 76.67,0.00 76.67,51.79 0.00,51.79 "/>
        </g>
        <g class="Direction" fill-opacity="0.9" style="display: none;">
            <polygon points="40.26,47.22 40.26,36.60 37.25,36.60 37.25,47.22 33.45,47.22 38.75,52.52 44.06,47.22 40.26,47.22 " fill="#444444"/>
        </g> 
        <g class="Name" fill-opacity="0.9" style="display: none;">
            <text transform="translate(3 12)" font-size="12" font-family="Verdana, Sans-Serif">CL</text>
        </g>
        <desc>Width:60 Height:200 Depth:60 Elevation:0</desc>
     </g><g transform="matrix(1,0,0,1,644.3159,163.9077)" class="FixedFurniture BaseCabinet" fill="#ffffff" stroke="#000000" style="fill-opacity: 1; stroke-opacity: 1; stroke-width: 1;"><desc>Width:60 Height:90 Depth:60 Elevation:0</desc><g class="BoundaryPolygon"><polygon points="0.00,0.00 -59.37,0.00 -59.37,231.72 -62.37,231.72 -62.37,324.82 -12.00,324.88 -12.00,231.70 4.00,231.70 4.00,116.86 0.00,116.86 0.00,0.00 "/></g></g><g class="FixedFurniture ElectricalAppliance IntegratedStove" fill="#ffffff" stroke="#000000" transform="matrix(0,1,-1,0,643.9729,221.414)" style="fill-opacity: 1; stroke-opacity: 1; stroke-width: 1;">
        <g class="BoundaryPolygon" fill="none" stroke="none">
            <polygon points="0.00,0.00 53.77,0.00 53.77,58.41 0.00,58.41 "/>
        </g>
        <g class="InnerPolygon">
            <polygon points="2.00,2.00 51.98,2.00 51.98,56.46 2.00,56.46 "/>
        </g>
        <g class="OuterCircle">
            <circle cx="14.339231271293542" cy="15.575008118466906" r="8"/>
            <circle cx="39.432885996057244" cy="15.575008118466906" r="8"/>
            <circle cx="14.339231271293542" cy="42.831272325783985" r="8"/>
            <circle cx="39.432885996057244" cy="42.831272325783985" r="8"/>
        </g>
        <g class="Direction" fill-opacity="0.9" style="display: none;">
            <polygon points="28.69,53.73 28.69,43.11 25.68,43.11 25.68,53.73 21.87,53.73 27.18,58.53 32.48,53.73 28.69,53.73 " fill="#444444"/>
        </g> 
        <g class="Name" fill-opacity="0.9" style="display: none;">
            <text transform="translate(3 12)" font-size="12" font-family="Verdana, Sans-Serif">INT_STOVE</text>
        </g>
        <desc>Width:60 Height:90 Depth:30 Elevation:0</desc>
    </g><g class="FixedFurniture ElectricalAppliance" fill="#ffffff" stroke="#000000" transform="matrix(0,0.9527,-0.9867,0,643.8804,164.2506)" style="fill-opacity: 1; stroke-opacity: 1; stroke-width: 1;">
	    <g class="BoundaryPolygon"> 
		    <polygon points="0,0 60,0 60,60 0,60"/>
		</g>	
	    <g class="electricitySign" fill="none" style="display: block;">
            <path d="M0,0,30.1,39.8V19.4L59.9,60"/>
		</g>
        <g class="Direction" fill-opacity="0.9" style="display: none;">
            <polygon points="32.009 55.197 32.009 44.581 29 44.581 29 55.197 25.197 55.197 30.5 60 35.803 55.197 32.009 55.197" fill="#444444"/>
        </g> 
        <g class="Name" fill-opacity="0.9" style="display: none;">
            <text transform="translate(3 12)" font-size="12" font-family="Verdana, Sans-Serif">LEB</text>
        </g>
        <desc>Width:60 Height:90 Depth:60 Elevation:0</desc>
	</g><g class="FixedFurniture DoubleSinkRight" fill="#ffffff" stroke="#000000" transform="matrix(0,1,-1,0,640.2044,328.7858)" style="fill-opacity: 1; stroke-opacity: 1; stroke-width: 1;">
        <g class="BoundaryPolygon" fill="none" stroke="none">
            <polygon points="0.00,0.00 60.40,0.00 60.40,53.83 0.00,53.83 0.00,0.00 "/>
        </g>
        <g class="InnerPolygonLeft">
            <polygon points="4.31,9.90 21.57,9.90 21.57,49.25 4.31,49.25 "/>
        </g>
        <g class="InnerPolygonRight">
            <polygon points="24.16,10.00 56.08,10.00 56.08,49.34 24.16,49.34 "/>
        </g>
        <g class="OuterDrain" stroke-width="0.8">
            <circle cx="12.94213394536853" cy="29.155967661223844" r="3.5"/>
            <circle cx="39.68921076579684" cy="29.155967661223844" r="3.5"/>
        </g>
        <g class="InnerDrain" stroke-width="0.8">
            <circle cx="12.94213394536853" cy="29.155967661223844" r="2"/>
            <circle cx="39.68921076579684" cy="29.155967661223844" r="2"/>
        </g>
        <g class="Faucet">
            <polygon points="27.61,4.40 33.61,4.40 33.61,18.40 27.61,18.40 "/>
        </g>
        <g class="Direction" fill-opacity="0.9" style="display: none;">
            <polygon points="31.50,49.07 31.50,38.45 28.49,38.45 28.49,49.07 24.69,49.07 29.99,54.37 35.29,49.07 31.50,49.07 " fill="#444444"/>
        </g> 
        <g class="Name" fill-opacity="0.9" style="display: none;">
            <text transform="translate(3 12)" font-size="12" font-family="Verdana, Sans-Serif">DSINK</text>
        </g>
        <desc>Width:70 Height:90 Depth:60 Elevation:0</desc>
    </g><g transform="matrix(1,0,0,1,631.9729,489.1293)" style="stroke-opacity: 1; fill-opacity: 0.7; stroke-width: 1.5;" class="FixedFurniture WallCabinet" fill="#ffffff" stroke="#000000"><desc>Width:60 Height:60 Depth:50 Elevation:140</desc><g class="BoundaryPolygon"><polygon points="0.00,0.00 -17.27,0.00 -17.27,-325.10 11.91,-324.88 12.00,-208.02 16.00,-208.02 16.00,-93.18 0.00,-93.18 0.00,0.00 "/></g></g><g class="FixedFurniture Closet" fill="#ffffff" stroke="#000000" transform="matrix(0,1,-1,0,583.6728,556.9485)" style="fill-opacity: 1; stroke-opacity: 1; stroke-width: 1;">
        <g class="BoundaryPolygon">
            <polygon points="0.00,0.00 61.37,0.00 61.37,65.28 0.00,65.28 "/>
        </g>
        <g class="Direction" fill-opacity="0.9" style="display: none;">
            <polygon points="32.23,59.51 32.23,48.90 29.22,48.90 29.22,59.51 25.41,59.51 30.72,64.82 36.02,59.51 32.23,59.51 " fill="#444444"/>
        </g> 
        <g class="Name" fill-opacity="0.9" style="display: none;">
            <text transform="translate(3 12)" font-size="12" font-family="Verdana, Sans-Serif">CL</text>
        </g>
        <desc>Width:60 Height:200 Depth:60 Elevation:0</desc>
     </g><g class="FixedFurniture Closet" fill="#ffffff" stroke="#000000" transform="matrix(1,0,0,1,583.6728,557.0579)" style="fill-opacity: 1; stroke-opacity: 1; stroke-width: 1;">
        <g class="BoundaryPolygon">
            <polygon points="0.00,0.00 61.09,0.00 61.09,61.39 0.00,61.39 "/>
        </g>
        <g class="Direction" fill-opacity="0.9" style="display: none;">
            <polygon points="32.08,55.97 32.08,45.35 29.07,45.35 29.07,55.97 25.27,55.97 30.57,61.27 35.87,55.97 32.08,55.97 " fill="#444444"/>
        </g> 
        <g class="Name" fill-opacity="0.9" style="display: none;">
            <text transform="translate(3 12)" font-size="12" font-family="Verdana, Sans-Serif">CL</text>
        </g>
        <desc>Width:60 Height:200 Depth:60 Elevation:0</desc>
     </g><g transform="matrix(1,0,0,1,589.9729,497.1293)" class="FixedFurniture Closet" fill="#ffffff" stroke="#000000" style="fill-opacity: 1; stroke-opacity: 1; stroke-width: 1;"><desc>Width:120 Height:200 Depth:60 Elevation:0</desc><g class="BoundaryPolygon"><polygon points="0.00,0.00 0.00,19.04 15.00,19.04 15.00,35.30 18.00,35.30 18.00,50.82 -79.38,50.82 -79.55,0.00 0.00,0.00 "/></g></g><g class="FixedFurniture Toilet" fill="#ffffff" stroke="#000000" transform="matrix(0,-0.8659,0.8761,0,232.3641,846.6281)" style="fill-opacity: 1; stroke-opacity: 1; stroke-width: 1;">
	   <g class="BoundaryPolygon" fill="none" stroke="none"> 
            <polygon points="0,0 41,0 41,71 0,71"/>
		</g>
        <g class="InnerPolygon">
            <rect x="0.502" y="0.5" width="39.989" height="17.98"/>
            <path d="M40.491,44.237S41.619,70.5,20.907,70.5C-.523,70.5.6,44.237.6,44.237L.5,18.48H40.491Z"/>
            <rect x="17.318" y="7.975" width="6.357" height="3.03"/>
        </g>
        <desc>Width:41 Height:85 Depth:71 Elevation:0</desc>
    </g><g class="FixedFurniture BaseCabinet" fill="#ffffff" stroke="#000000" transform="matrix(0,1,-1,0,378.0765,835.1624)" style="fill-opacity: 1; stroke-opacity: 1; stroke-width: 1;">
        <g class="BoundaryPolygon">
            <polygon points="0.00,0.00 54.87,0.00 54.87,42.43 0.00,42.43 "/>
        </g>
        <g class="Direction" fill-opacity="0.9" style="display: none;">
            <polygon points="29.27,39.04 29.27,28.42 26.26,28.42 26.26,39.04 22.46,39.04 27.76,43.84 33.07,39.04 29.27,39.04 " fill="#444444"/>
        </g> 
        <g class="Name" fill-opacity="0.9" style="display: none;">
            <text transform="translate(3 12)" font-size="12" font-family="Verdana, Sans-Serif">CB</text>
        </g>
        <desc>Width:60 Height:90 Depth:60 Elevation:0</desc>
    </g><g class="FixedFurniture RoundSink" fill="#ffffff" stroke="#000000" transform="matrix(0,0.9701,-0.7577,0,376.7249,840.7287)" style="fill-opacity: 1; stroke-opacity: 1; stroke-width: 1;">
        <g class="BoundaryPolygon" fill="none" stroke="none">
            <polygon points="0,0 46,0 46,50 0,50"/>
        </g>
        <g class="InnerPolygon">
            <circle cx="23" cy="27" r="23"/>
        </g>
        <g class="OuterDrain">
            <circle cx="23" cy="27" r="3.5"/>
        </g>
        <g class="InnerDrain">
            <circle cx="23" cy="27" r="2"/>
        </g>
        <g class="Faucet">
            <polygon points="20 0 26 0 26 14 20 14 20 0"/>
        </g>
        <g class="Name" fill-opacity="0.9" style="display: none;">
            <text transform="translate(6.5 24.5)" font-size="12" font-family="Verdana, Sans-Serif">SINK</text>
        </g>
        <desc>Width:46 Height:90 Depth:50 Elevation:60</desc>
    </g><g class="FixedFurniture Shower" fill="#ffffff" stroke="#000000" transform="matrix(0,1,-1,0,378.1547,905.3112)" style="fill-opacity: 1; stroke-opacity: 1; stroke-width: 1;"> 
	    <g class="BoundaryPolygon" fill="none" stroke="none">
            <polygon points="0,0 32,0 32,19 0,19"/>
        </g>
        <g class="InnerPolygon"> 
			<rect x="3.7" y="0.5" width="11.2" height="6.1"/>
			<rect x="17.6" y="0.5" width="11.2" height="6.1"/>
			<rect x="28.7" y="0.5" width="3.4" height="6.1"/>
			<rect x="0.5" y="0.5" width="3.2" height="6.1"/>
			<path d="M14.9,8.5c0,1.5-0.4,3.3-1.6,5    c-0.4,0.6-1,1.1-1.1,1.7c-0.2,1.1,0.3,2.8,2.5,3.2c0.5,0.1,1.3,0.1,1.6,0.1h-0.1c0.3,0,1.1,0,1.6-0.1c2.2-0.4,2.7-2.1,2.5-3.2    c-0.1-0.6-0.7-1.1-1.1-1.7c-1.2-1.7-1.6-3.5-1.6-5"/>
			<path d="M12.2,15.3c0.1,0.2,1.6,1.9,4.2,1.9 c2.4-0.1,3.7-1.7,3.9-1.9"/>
			<path d="M14.9,0.5h2.7v8c-0.9,0-1.8,0-2.7,0l0,0 C14.9,5.9,14.9,3.2,14.9,0.5z"/>
		</g>
	    <g class="Indicator"> 
			<path d="M3.7,3.6C5,3.1,5.2,3,5.2,3 c0,1.1,0,0,0,1.1C5.2,4.1,5.1,4.1,3.7,3.6"/>
			<path d="M28.7,3.6 C27.4,3.1,27.2,3,27.2,3c0,1.1,0,0,0,1.1C27.2,4.1,27.3,4.1,28.7,3.6"/>	
		</g>
        <desc>Width:32 Height:97 Depth:19 Elevation:135</desc>
	</g><g transform="matrix(1,0,0,1,497.9759,771.5482)" class="FixedFurniture Closet" fill="#ffffff" stroke="#000000" style="fill-opacity: 1; stroke-opacity: 1; stroke-width: 1;"><desc>Width:120 Height:200 Depth:60 Elevation:0</desc><g class="BoundaryPolygon"><polygon points="0.00,0.00 0.00,37.51 13.00,37.51 12.84,76.98 -25.29,76.98 -25.29,56.98 -105.10,56.98 -105.10,0.00 0.00,0.00 "/></g></g><g fill="#0000ff" stroke="#0000ff" style="display: none;" class="SelectionControls"><g style="display: none;" class="rotateControl"><circle cx="285.4822577801477" cy="846.829087602638" r="5" style="stroke : none; fill-opacity: 0.5; cursor:crosshair"/></g><g style="display: none;" class="ResizeNControl"><circle cx="0" cy="0" r="5" style="stroke : none; fill-opacity: 0.5"/></g><g style="display: none;" class="ResizeNEControl"><circle cx="0" cy="0" r="5" style="stroke : none; fill-opacity: 0.5"/></g><g style="display: none;" class="ResizeEControl"><circle cx="0" cy="0" r="5" style="stroke : none; fill-opacity: 0.5"/></g><g style="display: none;" class="ResizeSEControl"><circle cx="0" cy="0" r="5" style="stroke : none; fill-opacity: 0.5"/></g><g style="display: none;" class="ResizeSControl"><circle cx="0" cy="0" r="5" style="stroke : none; fill-opacity: 0.5"/></g><g style="display: none;" class="ResizeSWControl"><circle cx="0" cy="0" r="5" style="stroke : none; fill-opacity: 0.5"/></g><g style="display: none;" class="ResizeWControl"><circle cx="0" cy="0" r="5" style="stroke : none; fill-opacity: 0.5"/></g><g style="display: none;" class="ResizeNWControl"><circle cx="0" cy="0" r="5" style="stroke : none; fill-opacity: 0.5"/></g><g style="display: none;" class="removeControl"><polygon style="stroke : none; fill-opacity: 0.1" points="261.66,876.83 309.30,876.83 309.30,917.03 261.66,917.03 "/></g><g style="display: none;" class="copyPasteControl"><polygon style="stroke : none; fill-opacity: 0.1"/></g><g style="display: none;" class="translateControl"><polygon style="stroke : none; fill-opacity: 0.1; cursor:move" points="261.66,876.83 309.30,876.83 309.30,917.03 261.66,917.03 "/></g></g><g fill="#0000ff" stroke="#0000ff" style="display: none;" class="SelectionControls"><polygon fill="none" stroke="#0000ff" style="" points="226.86,771.55 378.15,771.55 378.15,956.84 226.86,956.84 "/><g style="display: none;" class="rotateControl"><circle cx="302.5084939617883" cy="741.548162602638" r="5" style="stroke : none; fill-opacity: 0.5; cursor:crosshair"/></g><g style="display: none;" class="ResizeNControl"><circle cx="0" cy="0" r="5" style="stroke : none; fill-opacity: 0.5"/></g><g style="display: none;" class="ResizeNEControl"><circle cx="0" cy="0" r="5" style="stroke : none; fill-opacity: 0.5"/></g><g style="display: none;" class="ResizeEControl"><circle cx="0" cy="0" r="5" style="stroke : none; fill-opacity: 0.5"/></g><g style="display: none;" class="ResizeSEControl"><circle cx="0" cy="0" r="5" style="stroke : none; fill-opacity: 0.5"/></g><g style="display: none;" class="ResizeSControl"><circle cx="0" cy="0" r="5" style="stroke : none; fill-opacity: 0.5"/></g><g style="display: none;" class="ResizeSWControl"><circle cx="0" cy="0" r="5" style="stroke : none; fill-opacity: 0.5"/></g><g style="display: none;" class="ResizeWControl"><circle cx="0" cy="0" r="5" style="stroke : none; fill-opacity: 0.5"/></g><g style="display: none;" class="ResizeNWControl"><circle cx="0" cy="0" r="5" style="stroke : none; fill-opacity: 0.5"/></g><g style="display: none;" class="removeControl"><polygon style="stroke : none; fill-opacity: 0.1"/></g><g style="display: none;" class="copyPasteControl"><polygon style="stroke : none; fill-opacity: 0.1"/></g><g style="display: none;" class="translateControl"><polygon style="stroke : none; fill-opacity: 0.1; cursor:move"/></g></g></g></g></g></svg>
