<?xml version="1.0"?>
<svg xmlns="http://www.w3.org/2000/svg" xmlns:xlink="http://www.w3.org/1999/xlink" height="1217.190086364746" version="1.1" width="762.4799499511719" id="temp" viewBox="0 0 762.4799499511719 1217.190086364746"><defs/><g id="Model" class="Model v1-1"><g class="Floor"><g id="Floor-1" class="Floorplan Floor-1"><g id="21b8ff16-ade2-4951-a889-0d12177ff2d2" class="Space Entry Lobby" fill="#ffffff" stroke="#ffffff" style="fill-opacity: 1; stroke-opacity: 1; stroke-width: 0.2;"><polygon points="534.56,1030.57 534.71,1030.26 507.98,1080.54 507.98,1125.25 423.95,1125.18 423.91,1091.74 423.91,794.75 534.56,794.75 "/><g transform="matrix(1,0,0,1,423.9081,794.7495)" class="Dimension"><g class="Visual" style="display: none;" transform="matrix(1,0,0,1,0,0)"><g id="mark1" fill="#000000" stroke="none" transform="matrix(1,0,0,1,55.4024,0)" style="fill-opacity: 1; pointer-events: visible;" class="DimensionMark"><polygon points="-5,5,0,0,5,5"/></g><g id="mark2" fill="#000000" stroke="none" transform="matrix(1,0,0,1,110.647,165.2523)" style="fill-opacity: 1; pointer-events: visible;" class="DimensionMark"><polygon points="-5,-5,0,0,-5,5"/></g><g id="mark3" fill="#000000" stroke="none" transform="matrix(1,0,0,1,55.4024,330.4807)" style="fill-opacity: 1; pointer-events: visible;" class="DimensionMark"><polygon points="-5,-5,0,0,5,-5"/></g><g id="mark4" fill="#000000" stroke="none" transform="matrix(1,0,0,1,0,165.2523)" style="fill-opacity: 1; pointer-events: visible;" class="DimensionMark"><polygon points="5,5,0,0,5,-5"/></g></g><g transform="matrix(1,0,0,1,22.9859,282.1772)" class="SpaceDimensionsLabel"><g id="NameLabel" class="TextLabel NameLabel" style="display: block;"><text x="0" y="0em" fill="#000000" stroke="none" style="font-family: Verdana; font-size: 33px; fill-opacity: 1; cursor: default;">ET</text></g><g id="DimensionMeasureLabel" class="TextLabel DimensionMeasureLabel" style="display: none;" transform="matrix(1,0,0,1,-119.2578,79.75)"><text x="31.6875" y="-1.2em" fill="#000000" stroke="none" style="font-family: Verdana; font-size: 33px; fill-opacity: 1; cursor: default;">3'8" x 10'10"</text><text x="0" y="0em" fill="#000000" stroke="none" style="font-family: Verdana; font-size: 33px; fill-opacity: 1; cursor: default;">1.11 m x 3.30 m</text></g></g></g></g><g id="e1c179fd-bf7c-4c81-a5ea-675cf83077bd" class="Space Undefined" fill="#ffffff" stroke="#ffffff" style="fill-opacity: 1; stroke-opacity: 1; stroke-width: 0.2;"><polygon points="534.56,794.75 333.65,794.75 333.65,697.65 358.58,697.65 358.58,626.41 534.56,626.41 "/><g transform="matrix(1,0,0,1,333.6498,626.412)" class="Dimension"><g class="Visual" style="display: none;" transform="matrix(1,0,0,1,0,0)"><g id="mark1" fill="#000000" stroke="none" transform="matrix(1,0,0,1,100.4526,0)" style="fill-opacity: 1; pointer-events: visible;" class="DimensionMark"><polygon points="-5,5,0,0,5,5"/></g><g id="mark2" fill="#000000" stroke="none" transform="matrix(1,0,0,1,200.9053,84.1688)" style="fill-opacity: 1; pointer-events: visible;" class="DimensionMark"><polygon points="-5,-5,0,0,-5,5"/></g><g id="mark3" fill="#000000" stroke="none" transform="matrix(1,0,0,1,100.4526,168.3375)" style="fill-opacity: 1; pointer-events: visible;" class="DimensionMark"><polygon points="-5,-5,0,0,5,-5"/></g><g id="mark4" fill="#000000" stroke="none" transform="matrix(1,0,0,1,0,84.1688)" style="fill-opacity: 1; pointer-events: visible;" class="DimensionMark"><polygon points="5,5,0,0,5,-5"/></g></g><g transform="matrix(1,0,0,1,13.7898,96.485)" class="SpaceDimensionsLabel"><g id="NameLabel" class="TextLabel NameLabel" style="display: block;"><text x="0" y="0em" fill="#000000" stroke="none" style="font-family: Verdana; font-size: 33px; fill-opacity: 1; cursor: default;">UNDEFINED</text></g><g id="DimensionMeasureLabel" class="TextLabel DimensionMeasureLabel" style="display: none;" transform="matrix(1,0,0,1,-40.5234,79.7969)"><text x="52.671875" y="-1.2em" fill="#000000" stroke="none" style="font-family: Verdana; font-size: 33px; fill-opacity: 1; cursor: default;">6'7" x 5'6"</text><text x="0" y="0em" fill="#000000" stroke="none" style="font-family: Verdana; font-size: 33px; fill-opacity: 1; cursor: default;">2.01 m x 1.68 m</text></g></g></g></g><g id="9842be65-2fe8-479f-b8f7-b77f1b9e721b" class="Space LivingRoom" fill="#ffffff" stroke="#ffffff" style="fill-opacity: 1; stroke-opacity: 1; stroke-width: 0.2;"><polygon points="534.56,615.41 358.59,615.41 358.58,615.27 115.29,615.27 115.29,135.20 534.56,133.00 "/><g transform="matrix(1,0,0,1,115.2853,134.1001)" class="Dimension"><g class="Visual" style="display: none;" transform="matrix(1,0,0,1,0,0)"><g id="mark1" fill="#000000" stroke="none" transform="matrix(1,0,0,1,209.6407,0)" style="fill-opacity: 1; pointer-events: visible;" class="DimensionMark"><polygon points="-5,5,0,0,5,5"/></g><g id="mark2" fill="#000000" stroke="none" transform="matrix(1,0,0,1,419.2698,240.1059)" style="fill-opacity: 1; pointer-events: visible;" class="DimensionMark"><polygon points="-5,-5,0,0,-5,5"/></g><g id="mark3" fill="#000000" stroke="none" transform="matrix(1,0,0,1,209.6407,481.1684)" style="fill-opacity: 1; pointer-events: visible;" class="DimensionMark"><polygon points="-5,-5,0,0,5,-5"/></g><g id="mark4" fill="#000000" stroke="none" transform="matrix(1,0,0,1,0,240.1059)" style="fill-opacity: 1; pointer-events: visible;" class="DimensionMark"><polygon points="5,5,0,0,5,-5"/></g></g><g transform="matrix(1,0,0,1,196.5146,249.703)" class="SpaceDimensionsLabel"><g id="NameLabel" class="TextLabel NameLabel" style="display: block;"><text x="0" y="0em" fill="#000000" stroke="none" style="font-family: Verdana; font-size: 33px; fill-opacity: 1; cursor: default;">OH</text></g><g id="DimensionMeasureLabel" class="TextLabel DimensionMeasureLabel" style="display: none;" transform="matrix(1,0,0,1,-114.6015,79.5469)"><text x="31.6875" y="-1.2em" fill="#000000" stroke="none" style="font-family: Verdana; font-size: 33px; fill-opacity: 1; cursor: default;">13'9" x 15'9"</text><text x="0" y="0em" fill="#000000" stroke="none" style="font-family: Verdana; font-size: 33px; fill-opacity: 1; cursor: default;">4.19 m x 4.81 m</text></g></g></g></g><g id="23628d14-c0f8-4f48-a697-3916d15f0021" class="Space Alcove" fill="#ffffff" stroke="#ffffff" style="fill-opacity: 1; stroke-opacity: 1; stroke-width: 0.2;"><polygon points="743.48,390.46 534.56,390.46 534.56,133.00 743.48,132.16 "/><g transform="matrix(1,0,0,1,534.5551,132.5825)" class="Dimension"><g class="Visual" style="display: none;" transform="matrix(1,0,0,1,0,0)"><g id="mark1" fill="#000000" stroke="none" transform="matrix(1,0,0,1,104.4626,0)" style="fill-opacity: 1; pointer-events: visible;" class="DimensionMark"><polygon points="-5,5,0,0,5,5"/></g><g id="mark2" fill="#000000" stroke="none" transform="matrix(1,0,0,1,208.9218,128.7308)" style="fill-opacity: 1; pointer-events: visible;" class="DimensionMark"><polygon points="-5,-5,0,0,-5,5"/></g><g id="mark3" fill="#000000" stroke="none" transform="matrix(1,0,0,1,104.4626,257.8792)" style="fill-opacity: 1; pointer-events: visible;" class="DimensionMark"><polygon points="-5,-5,0,0,5,-5"/></g><g id="mark4" fill="#000000" stroke="none" transform="matrix(1,0,0,1,0,128.7308)" style="fill-opacity: 1; pointer-events: visible;" class="DimensionMark"><polygon points="5,5,0,0,5,-5"/></g></g><g transform="matrix(1,0,0,1,48.2026,140.2868)" class="SpaceDimensionsLabel"><g id="NameLabel" class="TextLabel NameLabel" style="display: block;"><text x="0" y="0em" fill="#000000" stroke="none" style="font-family: Verdana; font-size: 33px; fill-opacity: 1; cursor: default;">ALKOVI</text></g><g id="DimensionMeasureLabel" class="TextLabel DimensionMeasureLabel" style="display: none;" transform="matrix(1,0,0,1,-76.8906,79.5469)"><text x="42.1796875" y="-1.2em" fill="#000000" stroke="none" style="font-family: Verdana; font-size: 33px; fill-opacity: 1; cursor: default;">6'10" x 8'6"</text><text x="0" y="0em" fill="#000000" stroke="none" style="font-family: Verdana; font-size: 33px; fill-opacity: 1; cursor: default;">2.09 m x 2.58 m</text></g></g></g></g><g id="91f26787-c462-4d6f-8d34-2be7665a00c4" fill="#ffffff" stroke="#ffffff" style="fill-opacity: 1; stroke-opacity: 1; stroke-width: 0.2;" class="Space Kitchen"><polygon points="338.45,867.52 410.64,867.52 410.64,1091.74 198.88,1091.74 199.08,1045.36 115.29,1045.36 115.29,808.31 338.45,808.31 "/><g transform="matrix(1,0,0,1,115.2853,808.3067)" class="Dimension"><g class="Visual" style="display: none;" transform="matrix(1,0,0,1,0,0)"><g id="mark1" fill="#000000" stroke="none" transform="matrix(1,0,0,1,147.6794,0)" style="fill-opacity: 1; pointer-events: visible;" class="DimensionMark"><polygon points="-5,5,0,0,5,5"/></g><g id="mark2" fill="#000000" stroke="none" transform="matrix(1,0,0,1,295.3588,141.7173)" style="fill-opacity: 1; pointer-events: visible;" class="DimensionMark"><polygon points="-5,-5,0,0,-5,5"/></g><g id="mark3" fill="#000000" stroke="none" transform="matrix(1,0,0,1,147.6794,283.4347)" style="fill-opacity: 1; pointer-events: visible;" class="DimensionMark"><polygon points="-5,-5,0,0,5,-5"/></g><g id="mark4" fill="#000000" stroke="none" transform="matrix(1,0,0,1,0,141.7173)" style="fill-opacity: 1; pointer-events: visible;" class="DimensionMark"><polygon points="5,5,0,0,5,-5"/></g></g><g transform="matrix(1,0,0,1,139.3296,129.3021)" class="SpaceDimensionsLabel"><g id="NameLabel" class="TextLabel NameLabel" style="display: block;"><text x="0" y="0em" fill="#000000" stroke="none" style="font-family: Verdana; font-size: 33px; fill-opacity: 1; cursor: default;">K</text></g><g id="DimensionMeasureLabel" class="TextLabel DimensionMeasureLabel" style="display: none;" transform="matrix(1,0,0,1,-128.5547,79.5468)"><text x="52.6640625" y="-1.2em" fill="#000000" stroke="none" style="font-family: Verdana; font-size: 33px; fill-opacity: 1; cursor: default;">9'8" x 9'4"</text><text x="0" y="0em" fill="#000000" stroke="none" style="font-family: Verdana; font-size: 33px; fill-opacity: 1; cursor: default;">2.95 m x 2.83 m</text></g></g></g></g><g id="bca5177c-f4c1-4453-b6d7-df6ea2654693" fill="#ffffff" stroke="#ffffff" style="fill-opacity: 1; stroke-opacity: 1; stroke-width: 0.2;" class="Space Bath"><polygon points="319.59,697.65 321.54,697.65 321.54,794.75 115.29,794.75 115.29,627.21 319.59,627.21 "/><g transform="matrix(1,0,0,1,115.2853,627.2103)" class="Dimension"><g class="Visual" style="display: none;" transform="matrix(1,0,0,1,0,0)"><g id="mark1" fill="#000000" stroke="none" transform="matrix(1,0,0,1,103.1265,0)" style="fill-opacity: 1; pointer-events: visible;" class="DimensionMark"><polygon points="-5,5,0,0,5,5"/></g><g id="mark2" fill="#000000" stroke="none" transform="matrix(1,0,0,1,206.253,83.7696)" style="fill-opacity: 1; pointer-events: visible;" class="DimensionMark"><polygon points="-5,-5,0,0,-5,5"/></g><g id="mark3" fill="#000000" stroke="none" transform="matrix(1,0,0,1,103.1265,167.5392)" style="fill-opacity: 1; pointer-events: visible;" class="DimensionMark"><polygon points="-5,-5,0,0,5,-5"/></g><g id="mark4" fill="#000000" stroke="none" transform="matrix(1,0,0,1,0,83.7696)" style="fill-opacity: 1; pointer-events: visible;" class="DimensionMark"><polygon points="5,5,0,0,5,-5"/></g></g><g transform="matrix(1,0,0,1,82.809,86.7791)" class="SpaceDimensionsLabel"><g id="NameLabel" class="TextLabel NameLabel" style="display: block;"><text x="0" y="0em" fill="#000000" stroke="none" style="font-family: Verdana; font-size: 33px; fill-opacity: 1; cursor: default;">WC</text></g><g id="DimensionMeasureLabel" class="TextLabel DimensionMeasureLabel" style="display: none;" transform="matrix(1,0,0,1,-112.1563,79.5468)"><text x="52.6640625" y="-1.2em" fill="#000000" stroke="none" style="font-family: Verdana; font-size: 33px; fill-opacity: 1; cursor: default;">6'9" x 5'6"</text><text x="0" y="0em" fill="#000000" stroke="none" style="font-family: Verdana; font-size: 33px; fill-opacity: 1; cursor: default;">2.06 m x 1.68 m</text></g></g></g></g><g id="bf21051d-8fa5-4beb-8939-f6a01f0d32e9" fill="#ffffff" stroke="#ffffff" style="fill-opacity: 1; stroke-opacity: 1; stroke-width: 0.2;" class="Space Undefined"><polygon points="187.88,1121.78 115.29,1121.78 115.29,1056.36 188.05,1056.36 "/><g transform="matrix(1,0,0,1,115.2853,1056.3586)" class="Dimension"><g class="Visual" style="display: none;" transform="matrix(1,0,0,1,0,0)"><g id="mark1" fill="#000000" stroke="none" transform="matrix(1,0,0,1,36.3838,0)" style="fill-opacity: 1; pointer-events: visible;" class="DimensionMark"><polygon points="-5,5,0,0,5,5"/></g><g id="mark2" fill="#000000" stroke="none" transform="matrix(1,0,0,1,72.6823,32.7106)" style="fill-opacity: 1; pointer-events: visible;" class="DimensionMark"><polygon points="-5,-5,0,0,-5,5"/></g><g id="mark3" fill="#000000" stroke="none" transform="matrix(1,0,0,1,36.3838,65.4197)" style="fill-opacity: 1; pointer-events: visible;" class="DimensionMark"><polygon points="-5,-5,0,0,5,-5"/></g><g id="mark4" fill="#000000" stroke="none" transform="matrix(1,0,0,1,0,32.7106)" style="fill-opacity: 1; pointer-events: visible;" class="DimensionMark"><polygon points="5,5,0,0,5,-5"/></g></g><g transform="matrix(1,0,0,1,-26.6774,49.0937)" class="SpaceDimensionsLabel"><g id="NameLabel" class="TextLabel NameLabel" style="display: block;"><text x="0" y="0em" fill="#000000" stroke="none" style="font-family: Verdana; font-size: 33px; fill-opacity: 1; cursor: default;">UNDEFINED</text></g><g id="DimensionMeasureLabel" class="TextLabel DimensionMeasureLabel" style="display: none;" transform="matrix(1,0,0,1,-40.5234,79.3125)"><text x="52.671875" y="-1.2em" fill="#000000" stroke="none" style="font-family: Verdana; font-size: 33px; fill-opacity: 1; cursor: default;">2'5" x 2'2"</text><text x="0" y="0em" fill="#000000" stroke="none" style="font-family: Verdana; font-size: 33px; fill-opacity: 1; cursor: default;">0.73 m x 0.65 m</text></g></g></g></g><g id="048bf859-5c31-418d-8986-e78a163bb9e1" fill="#ffffff" stroke="#ffffff" style="fill-opacity: 1; stroke-opacity: 1; stroke-width: 0.2;" class="Space Undefined"><polygon points="410.64,857.40 347.39,857.40 347.39,808.31 410.64,808.31 "/><g transform="matrix(1,0,0,1,347.388,808.3067)" class="Dimension"><g class="Visual" style="display: none;" transform="matrix(1,0,0,1,0,0)"><g id="mark1" fill="#000000" stroke="none" transform="matrix(1,0,0,1,31.6281,0)" style="fill-opacity: 1; pointer-events: visible;" class="DimensionMark"><polygon points="-5,5,0,0,5,5"/></g><g id="mark2" fill="#000000" stroke="none" transform="matrix(1,0,0,1,63.2561,24.5469)" style="fill-opacity: 1; pointer-events: visible;" class="DimensionMark"><polygon points="-5,-5,0,0,-5,5"/></g><g id="mark3" fill="#000000" stroke="none" transform="matrix(1,0,0,1,31.6281,49.0938)" style="fill-opacity: 1; pointer-events: visible;" class="DimensionMark"><polygon points="-5,-5,0,0,5,-5"/></g><g id="mark4" fill="#000000" stroke="none" transform="matrix(1,0,0,1,0,24.5469)" style="fill-opacity: 1; pointer-events: visible;" class="DimensionMark"><polygon points="5,5,0,0,5,-5"/></g></g><g transform="matrix(1,0,0,1,-21.5302,35.8102)" class="SpaceDimensionsLabel"><g id="NameLabel" class="TextLabel NameLabel" style="display: block;"><text x="0" y="0em" fill="#000000" stroke="none" style="font-family: Verdana; font-size: 33px; fill-opacity: 1; cursor: default;">UNDEFINED</text></g><g id="DimensionMeasureLabel" class="TextLabel DimensionMeasureLabel" style="display: none;" transform="matrix(1,0,0,1,-40.5156,79.5156)"><text x="52.65625" y="-1.2em" fill="#000000" stroke="none" style="font-family: Verdana; font-size: 33px; fill-opacity: 1; cursor: default;">2'1" x 1'7"</text><text x="0" y="0em" fill="#000000" stroke="none" style="font-family: Verdana; font-size: 33px; fill-opacity: 1; cursor: default;">0.63 m x 0.49 m</text></g></g></g></g><g id="Wall" fill="#000000" stroke="#000000" style="fill-opacity: 1; stroke-opacity: 1; stroke-width: 0.2;" class="Wall External"><polygon points="762.48,90.60 762.48,406.34 743.48,390.46 743.48,132.16 "/></g><g id="Wall" fill="#000000" stroke="#000000" style="fill-opacity: 1; stroke-opacity: 1; stroke-width: 0.2;" class="Wall External"><polygon points="762.48,406.34 577.06,406.34 534.56,390.46 743.48,390.46 "/></g><g id="Wall" fill="#000000" stroke="#000000" style="fill-opacity: 1; stroke-opacity: 1; stroke-width: 0.2;" class="Wall External"><polygon points="577.06,406.34 577.06,987.27 534.56,1030.57 534.56,390.46 "/></g><g id="Wall" fill="#000000" stroke="#000000" style="fill-opacity: 1; stroke-opacity: 1; stroke-width: 0.2;" class="Wall External"><polygon points="524.47,1087.86 524.47,1139.86 507.98,1125.25 507.98,1080.54 "/></g><g id="Wall" fill="#000000" stroke="#000000" style="fill-opacity: 1; stroke-opacity: 1; stroke-width: 0.2;" class="Wall External"><polygon points="73.53,1139.78 73.53,93.93 115.29,135.20 115.29,1121.78 "/><g id="Window" fill="#f0f0ff" stroke="#000000" style="fill-opacity: 1; stroke-width: 1; stroke-opacity: 1;" class="Window Regular"><polygon points="73.53,472.50 73.53,349.74 115.29,349.74 115.29,472.50 "/><g id="Glass" class="Glass"><polygon points="73.53,472.50 73.53,349.74 115.29,349.74 115.29,472.50 "/></g><g id="Panel" class="Panel"><line x1="94.40835616757748" x2="94.40835616757747" y1="465.0018677031412" y2="357.2350380060825"/><line x1="73.53138152221858" x2="115.28533081293638" y1="465.0018677031412" y2="465.0018677031412"/><line x1="73.53138152221857" x2="115.28533081293637" y1="357.2350380060825" y2="357.2350380060825"/></g></g><g id="Window" fill="#f0f0ff" stroke="#000000" style="fill-opacity: 1; stroke-width: 1; stroke-opacity: 1;" class="Window Regular"><polygon points="73.53,714.18 73.53,663.93 115.29,663.93 115.29,714.18 "/><g id="Glass" class="Glass"><polygon points="73.53,714.18 73.53,663.93 115.29,663.93 115.29,714.18 "/></g><g id="Panel" class="Panel"><line x1="94.40835616757751" x2="94.40835616757751" y1="706.6753791139225" y2="671.4275829841216"/><line x1="73.53138152221861" x2="115.28533081293641" y1="706.6753791139225" y2="706.6753791139225"/><line x1="73.53138152221861" x2="115.28533081293641" y1="671.4275829841216" y2="671.4275829841216"/></g></g><g id="Window" fill="#f0f0ff" stroke="#000000" style="fill-opacity: 1; stroke-width: 1; stroke-opacity: 1;" class="Window Regular"><polygon points="73.53,999.83 73.53,900.71 115.29,900.71 115.29,999.83 "/><g id="Glass" class="Glass"><polygon points="73.53,999.83 73.53,900.71 115.29,900.71 115.29,999.83 "/></g><g id="Panel" class="Panel"><line x1="94.40835616757754" x2="94.40835616757752" y1="992.3306584819688" y2="908.2117181711287"/><line x1="73.53138152221865" x2="115.28533081293642" y1="992.3306584819688" y2="992.3306584819688"/><line x1="73.53138152221864" x2="115.28533081293642" y1="908.2117181711287" y2="908.2117181711287"/></g></g></g><g id="Wall" fill="#000000" stroke="#000000" style="fill-opacity: 1; stroke-opacity: 1; stroke-width: 0.2;" class="Wall External"><polygon points="73.53,93.93 762.48,90.60 743.48,132.16 115.29,135.20 "/></g><g id="Wall" fill="#000000" stroke="#000000" style="fill-opacity: 1; stroke-opacity: 1; stroke-width: 0.2;" class="Wall External"><polygon points="577.06,987.27 552.74,1034.69 534.71,1030.26 534.56,1030.57 "/></g><g id="Wall" fill="#000000" stroke="#000000" style="fill-opacity: 1; stroke-opacity: 1; stroke-width: 0.2;" class="Wall External"><polygon points="552.74,1034.69 524.47,1087.86 507.98,1080.54 534.71,1030.26 "/></g><g id="Wall" fill="#000000" stroke="#000000" style="fill-opacity: 1; stroke-opacity: 1; stroke-width: 0.2;" class="Wall External"><polygon points="188.08,1139.77 73.53,1139.78 115.29,1121.78 188.08,1121.77 "/></g><g id="Wall" fill="#000000" stroke="#000000" style="fill-opacity: 1; stroke-opacity: 1; stroke-width: 0.2;" class="Wall"><polygon points="187.88,1121.78 188.05,1056.36 199.08,1045.36 198.88,1121.81 "/></g><g id="Wall" fill="#000000" stroke="#000000" style="fill-opacity: 1; stroke-opacity: 1; stroke-width: 0.2;" class="Wall"><polygon points="199.08,1045.36 73.53,1045.36 73.53,1056.36 188.05,1056.36 "/><g id="Door" fill="#ffffff" stroke="#000000" style="fill-opacity: 1; stroke-width: 1; stroke-opacity: 1;" class="Door Swing Beside"><polygon points="173.71,1045.36 129.73,1045.36 129.73,1056.36 173.71,1056.36 "/><g id="Threshold" class="Threshold"><polygon points="173.71,1045.36 129.73,1045.36 129.73,1056.36 173.71,1056.36 "/></g><g id="Panel" fill="none" style="" class="Panel Left Negative"><g id="PanelArea" fill="none" stroke="none" style="" class="PanelArea"><polygon points="173.71,1045.36 129.73,1045.36 129.73,1056.36 173.71,1056.36 "/></g><path d="M173.71,1045.36 q0.00,-43.98 -43.98,-43.98 l0.00,43.98Z"/></g></g></g><g id="Wall" fill="#000000" stroke="#000000" style="fill-opacity: 1; stroke-opacity: 1; stroke-width: 0.2;" class="Wall"><polygon points="423.91,1123.56 423.91,794.75 410.64,808.31 410.64,1123.56 "/><g id="Door" fill="#ffffff" stroke="#000000" style="fill-opacity: 1; stroke-width: 1; stroke-opacity: 1;" class="Door Swing Beside"><polygon points="423.91,960.06 423.91,878.19 410.64,878.19 410.64,960.06 "/><g id="Threshold" class="Threshold"><polygon points="423.91,960.06 423.91,878.19 410.64,878.19 410.64,960.06 "/></g><g id="Panel" fill="none" style="" class="Panel Left Negative"><g id="PanelArea" fill="none" stroke="none" style="" class="PanelArea"><polygon points="423.91,960.06 423.91,878.19 410.64,878.19 410.64,960.06 "/></g><path d="M423.91,960.06 q81.87,0.00 81.87,-81.87 l-81.87,0.00Z"/></g></g></g><g id="Wall" fill="#000000" stroke="#000000" style="fill-opacity: 1; stroke-opacity: 1; stroke-width: 0.2;" class="Wall"><polygon points="423.91,794.75 73.53,794.75 73.53,808.31 410.64,808.31 "/><g id="Door" fill="#ffffff" stroke="#000000" style="fill-opacity: 1; stroke-width: 1; stroke-opacity: 1;" class="Door Swing Beside"><polygon points="399.05,794.75 355.21,794.75 355.21,808.31 399.05,808.31 "/><g id="Threshold" class="Threshold"><polygon points="399.05,794.75 355.21,794.75 355.21,808.31 399.05,808.31 "/></g><g id="Panel" fill="none" style="" class="Panel Left Negative"><g id="PanelArea" fill="none" stroke="none" style="" class="PanelArea"><polygon points="399.05,794.75 355.21,794.75 355.21,808.31 399.05,808.31 "/></g><path d="M399.05,794.75 q0.00,-43.83 -43.83,-43.83 l0.00,43.83Z"/></g></g></g><g id="Wall" fill="#000000" stroke="#000000" style="fill-opacity: 1; stroke-opacity: 1; stroke-width: 0.2;" class="Wall"><polygon points="338.45,794.75 338.45,867.52 347.39,857.40 347.39,794.75 "/></g><g id="Wall" fill="#000000" stroke="#000000" style="fill-opacity: 1; stroke-opacity: 1; stroke-width: 0.2;" class="Wall"><polygon points="338.45,867.52 423.91,867.52 423.91,857.40 347.39,857.40 "/></g><g id="Wall" fill="#000000" stroke="#000000" style="fill-opacity: 1; stroke-opacity: 1; stroke-width: 0.2;" class="Wall"><polygon points="358.58,697.65 358.58,615.27 319.59,627.21 319.59,697.65 "/></g><g id="Wall" fill="#000000" stroke="#000000" style="fill-opacity: 1; stroke-opacity: 1; stroke-width: 0.2;" class="Wall"><polygon points="358.58,615.27 73.53,615.27 73.53,627.21 319.59,627.21 "/></g><g id="Wall" fill="#000000" stroke="#000000" style="fill-opacity: 1; stroke-opacity: 1; stroke-width: 0.2;" class="Wall"><polygon points="321.54,697.65 321.54,808.31 333.65,808.31 333.65,697.65 "/><g id="Door" fill="#ffffff" stroke="#000000" style="fill-opacity: 1; stroke-width: 1; stroke-opacity: 1;" class="Door Swing Beside"><polygon points="321.54,706.84 321.54,790.16 333.65,790.16 333.65,706.84 "/><g id="Threshold" class="Threshold"><polygon points="321.54,706.84 321.54,790.16 333.65,790.16 333.65,706.84 "/></g><g id="Panel" fill="none" style="" class="Panel Left Positive"><g id="PanelArea" fill="none" stroke="none" style="" class="PanelArea"><polygon points="321.54,706.84 321.54,790.16 333.65,790.16 333.65,706.84 "/></g><path d="M333.65,790.16 q83.32,0.00 83.32,-83.32 l-83.32,0.00Z"/></g></g></g><g id="Wall" fill="#000000" stroke="#000000" style="fill-opacity: 1; stroke-opacity: 1; stroke-width: 0.2;" class="Wall"><polygon points="358.58,626.41 577.06,626.41 577.06,615.41 358.58,615.41 "/><g id="Door" fill="#ffffff" stroke="#000000" style="fill-opacity: 1; stroke-width: 1; stroke-opacity: 1;" class="Door Swing Beside"><polygon points="421.92,626.41 502.20,626.41 502.20,615.41 421.92,615.41 "/><g id="Threshold" class="Threshold"><polygon points="421.92,626.41 502.20,626.41 502.20,615.41 421.92,615.41 "/></g><g id="Panel" fill="none" style="" class="Panel Left Negative"><g id="PanelArea" fill="none" stroke="none" style="" class="PanelArea"><polygon points="421.92,626.41 502.20,626.41 502.20,615.41 421.92,615.41 "/></g><path d="M421.92,626.41 q0.00,80.28 80.28,80.28 l0.00,-80.28Z"/></g></g></g><g id="Wall" fill="#000000" stroke="#000000" style="fill-opacity: 1; stroke-opacity: 1; stroke-width: 0.2;" class="Wall External"><polygon points="188.08,1139.77 423.94,1139.77 423.94,1091.74 188.08,1091.74 "/></g><g id="Wall" fill="#000000" stroke="#000000" style="fill-opacity: 1; stroke-opacity: 1; stroke-width: 0.2;" class="Wall External"><polygon points="423.94,1139.77 524.47,1139.86 507.98,1125.25 423.95,1125.18 "/><g id="Door" fill="#ffffff" stroke="#000000" style="fill-opacity: 1; stroke-width: 1; stroke-opacity: 1;" class="Door Swing Beside"><polygon points="427.45,1139.78 504.87,1139.84 504.88,1125.25 427.46,1125.19 "/><g id="Threshold" class="Threshold"><polygon points="427.45,1139.78 504.87,1139.84 504.88,1125.25 427.46,1125.19 "/></g><g id="Panel" fill="none" style="" class="Panel Right Negative"><g id="PanelArea" fill="none" stroke="none" style="" class="PanelArea"><polygon points="427.45,1139.78 504.87,1139.84 504.88,1125.25 427.46,1125.19 "/></g><path d="M504.87,1139.84 q-0.06,77.42 -77.48,77.35 l0.06,-77.42Z"/></g></g></g><g class="FixedFurniture Closet" fill="#ffffff" stroke="#000000" transform="matrix(-1,0,0,-1,187.9676,1121.7772)" style="fill-opacity: 1; stroke-opacity: 1;">
        <g class="BoundaryPolygon">
            <polygon points="0.00,0.00 72.90,0.00 72.90,65.40 0.00,65.40 "/>
        </g>
        <g class="Direction" fill-opacity="0.9" style="display: none;">
            <polygon points="38.28,59.62 38.28,49.01 35.27,49.01 35.27,59.62 31.47,59.62 36.77,64.93 42.08,59.62 38.28,59.62 " fill="#444444"/>
        </g> 
        <g class="Name" fill-opacity="0.9" style="display: none;">
            <text transform="translate(3 12)" font-size="12" font-family="Verdana, Sans-Serif">CL</text>
        </g>
        <desc>Width:60 Height:200 Depth:60 Elevation:0</desc>
     </g><g class="FixedFurniture BaseCabinet" fill="#ffffff" stroke="#000000" transform="matrix(-1,0,0,-1,412.5706,1093.3112)" style="fill-opacity: 1; stroke-opacity: 1;">
        <g class="BoundaryPolygon">
            <polygon points="0.00,0.00 211.61,0.00 211.61,59.18 0.00,59.18 "/>
        </g>
        <g class="Direction" fill-opacity="0.9" style="display: none;">
            <polygon points="112.89,54.44 112.89,43.82 109.88,43.82 109.88,54.44 106.08,54.44 111.38,59.24 116.68,54.44 112.89,54.44 " fill="#444444"/>
        </g> 
        <g class="Name" fill-opacity="0.9" style="display: none;">
            <text transform="translate(3 12)" font-size="12" font-family="Verdana, Sans-Serif">CB</text>
        </g>
        <desc>Width:60 Height:90 Depth:60 Elevation:0</desc>
    </g><g class="FixedFurniture DoubleSink" fill="#ffffff" stroke="#000000" transform="matrix(-1,0,0,-1,288.101,1089.8093)" style="fill-opacity: 1; stroke-opacity: 1;">
        <g class="BoundaryPolygon" fill="none" stroke="none">
            <polygon points="0.00,0.00 84.56,0.00 84.56,53.42 0.00,53.42 "/>
        </g>
        <g class="InnerPolygonLeft">
            <polygon points="6.04,9.90 40.47,9.90 40.47,48.88 6.04,48.88 "/>
        </g>
        <g class="InnerPolygonRight">
            <polygon points="44.09,10.00 78.52,10.00 78.52,48.97 44.09,48.97 "/>
        </g>
        <g class="OuterDrain" stroke-width="0.8">
            <circle cx="23.79654906213191" cy="28.934233302111593" r="3.5"/>
            <circle cx="60.63892197558491" cy="28.934233302111593" r="3.5"/>
        </g>
        <g class="InnerDrain" stroke-width="0.8">
            <circle cx="23.79654906213191" cy="28.934233302111593" r="2"/>
            <circle cx="60.63892197558491" cy="28.934233302111593" r="2"/>
        </g>
        <g class="Faucet">
            <polygon points="38.65,4.36 44.65,4.36 44.65,18.36 38.65,18.36 "/>
        </g>
        <g class="Direction" fill-opacity="0.9" style="display: none;">
            <polygon points="44.10,48.70 44.10,38.08 41.09,38.08 41.09,48.70 37.29,48.70 42.59,54.00 47.89,48.70 44.10,48.70 " fill="#444444"/>
        </g> 
        <g class="Name" fill-opacity="0.9" style="display: none;">
            <text transform="translate(3 12)" font-size="12" font-family="Verdana, Sans-Serif">DSINK</text>
        </g>
        <desc>Width:70 Height:90 Depth:60 Elevation:0</desc>
    </g><g class="FixedFurniture Closet" fill="#ffffff" stroke="#000000" transform="matrix(-1,0,0,-1,410.478,857.4006)" style="fill-opacity: 1; stroke-opacity: 1;">
        <g class="BoundaryPolygon">
            <polygon points="0.00,0.00 63.09,0.00 63.09,49.20 0.00,49.20 "/>
        </g>
        <g class="Direction" fill-opacity="0.9" style="display: none;">
            <polygon points="33.13,44.85 33.13,34.24 30.12,34.24 30.12,44.85 26.32,44.85 31.62,50.15 36.92,44.85 33.13,44.85 " fill="#444444"/>
        </g> 
        <g class="Name" fill-opacity="0.9" style="display: none;">
            <text transform="translate(3 12)" font-size="12" font-family="Verdana, Sans-Serif">CL</text>
        </g>
        <desc>Width:60 Height:200 Depth:60 Elevation:0</desc>
     </g><g class="FixedFurniture Toilet" fill="#ffffff" stroke="#000000" transform="matrix(0,-1,1,0,120.3347,775.5166)" style="fill-opacity: 1; stroke-opacity: 1;">
	   <g class="BoundaryPolygon" fill="none" stroke="none"> 
            <polygon points="0,0 41,0 41,71 0,71"/>
		</g>
        <g class="InnerPolygon">
            <rect x="0.502" y="0.5" width="39.989" height="17.98"/>
            <path d="M40.491,44.237S41.619,70.5,20.907,70.5C-.523,70.5.6,44.237.6,44.237L.5,18.48H40.491Z"/>
            <rect x="17.318" y="7.975" width="6.357" height="3.03"/>
        </g>
        <desc>Width:41 Height:85 Depth:71 Elevation:0</desc>
    </g><g id="FixedFurnitureSet" class="FixedFurnitureSet" transform="matrix(-1,0,0,-1,278.5887,794.6713)" fill="#ffffff" stroke="#000000" style="fill-opacity: 0.4; stroke-opacity: 0.4;"><g class="FixedFurniture BaseCabinet" fill="#ffffff" stroke="#000000" transform="matrix(1,0,0,1,0,0)" style="fill-opacity: 1; stroke-opacity: 1;">
        <g class="BoundaryPolygon">
            <polygon points="0.00,0.00 60.79,0.00 60.79,47.00 0.00,47.00 "/>
        </g>
        <g class="Direction" fill-opacity="0.9" style="display: none;">
            <polygon points="32.43,43.24 32.43,32.62 29.42,32.62 29.42,43.24 25.62,43.24 30.92,48.04 36.22,43.24 32.43,43.24 " fill="#444444"/>
        </g> 
        <g class="Name" fill-opacity="0.9" style="display: none;">
            <text transform="translate(3 12)" font-size="12" font-family="Verdana, Sans-Serif">CB</text>
        </g>
        <desc>Width:60 Height:5 Depth:60 Elevation:105</desc>
    </g><g class="FixedFurniture Sink" fill="#ffffff" stroke="#000000" transform="matrix(1,0,0,1,0,0)" style="fill-opacity: 1; stroke-opacity: 1;">
        <g class="BoundaryPolygon" fill="none" stroke="none">
        <polygon points="0.00,0.00 60.79,0.00 60.79,47.00 0.00,47.00 "/>
        </g>
        <g class="InnerPolygon">
            <polygon points="5.07,9.70 55.72,9.70 55.72,42.85 5.07,42.85 "/>
        </g>
        <g class="OuterDrain" stroke-width="0.8">
            <circle cx="30.393951923517186" cy="25.225190547303114" r="3.5"/>
        </g>
        <g class="InnerDrain" stroke-width="0.8">
            <circle cx="30.393951923517186" cy="25.225190547303114" r="2"/>
        </g>
        <g class="Faucet">
            <polygon points="27.35,3.92 33.35,3.92 33.35,17.92 27.35,17.92 "/>
        </g>
        <g class="Direction" fill-opacity="0.9" style="display: none;">
            <polygon points="32.43,43.24 32.43,32.62 29.42,32.62 29.42,43.24 25.62,43.24 30.92,48.04 36.22,43.24 32.43,43.24 " fill="#444444"/>
        </g> 
        <g class="Name" fill-opacity="0.9" style="display: none;">
            <text transform="translate(3 12)" font-size="12" font-family="Verdana, Sans-Serif">SINK</text>
        </g>
        <desc>Width:60 Height:90 Depth:60 Elevation:0</desc>
    </g></g><g class="FixedFurniture Shower" fill="#ffffff" stroke="#000000" transform="matrix(1,0,0,1,148.7303,627.2103)" style="fill-opacity: 1; stroke-opacity: 1;"> 
	    <g class="BoundaryPolygon" fill="none" stroke="none">
            <polygon points="0,0 32,0 32,19 0,19"/>
        </g>
        <g class="InnerPolygon"> 
			<rect x="3.7" y="0.5" width="11.2" height="6.1"/>
			<rect x="17.6" y="0.5" width="11.2" height="6.1"/>
			<rect x="28.7" y="0.5" width="3.4" height="6.1"/>
			<rect x="0.5" y="0.5" width="3.2" height="6.1"/>
			<path d="M14.9,8.5c0,1.5-0.4,3.3-1.6,5    c-0.4,0.6-1,1.1-1.1,1.7c-0.2,1.1,0.3,2.8,2.5,3.2c0.5,0.1,1.3,0.1,1.6,0.1h-0.1c0.3,0,1.1,0,1.6-0.1c2.2-0.4,2.7-2.1,2.5-3.2    c-0.1-0.6-0.7-1.1-1.1-1.7c-1.2-1.7-1.6-3.5-1.6-5"/>
			<path d="M12.2,15.3c0.1,0.2,1.6,1.9,4.2,1.9 c2.4-0.1,3.7-1.7,3.9-1.9"/>
			<path d="M14.9,0.5h2.7v8c-0.9,0-1.8,0-2.7,0l0,0 C14.9,5.9,14.9,3.2,14.9,0.5z"/>
		</g>
	    <g class="Indicator"> 
			<path d="M3.7,3.6C5,3.1,5.2,3,5.2,3 c0,1.1,0,0,0,1.1C5.2,4.1,5.1,4.1,3.7,3.6"/>
			<path d="M28.7,3.6 C27.4,3.1,27.2,3,27.2,3c0,1.1,0,0,0,1.1C27.2,4.1,27.3,4.1,28.7,3.6"/>	
		</g>
        <desc>Width:32 Height:97 Depth:19 Elevation:135</desc>
	</g><g fill="#0000ff" stroke="#0000ff" style="display: none;" class="SelectionControls"><g class="rotateControl" style="display: none;"><circle cx="467.6596291993177" cy="1013.8641951095349" r="5" style="stroke : none; fill-opacity: 0.5; cursor:crosshair"/></g><g class="ResizeNControl" style="display: none;"><circle cx="0" cy="0" r="5" style="stroke : none; fill-opacity: 0.5"/></g><g class="ResizeNEControl" style="display: none;"><circle cx="0" cy="0" r="5" style="stroke : none; fill-opacity: 0.5"/></g><g class="ResizeEControl" style="display: none;"><circle cx="0" cy="0" r="5" style="stroke : none; fill-opacity: 0.5"/></g><g class="ResizeSEControl" style="display: none;"><circle cx="0" cy="0" r="5" style="stroke : none; fill-opacity: 0.5"/></g><g class="ResizeSControl" style="display: none;"><circle cx="0" cy="0" r="5" style="stroke : none; fill-opacity: 0.5"/></g><g class="ResizeSWControl" style="display: none;"><circle cx="0" cy="0" r="5" style="stroke : none; fill-opacity: 0.5"/></g><g class="ResizeWControl" style="display: none;"><circle cx="0" cy="0" r="5" style="stroke : none; fill-opacity: 0.5"/></g><g class="ResizeNWControl" style="display: none;"><circle cx="0" cy="0" r="5" style="stroke : none; fill-opacity: 0.5"/></g><g class="removeControl" style="display: none;"><polygon style="stroke : none; fill-opacity: 0.1" points="446.89,1043.86 488.43,1043.86 488.43,1083.82 446.89,1083.82 "/></g><g class="copyPasteControl" style="display: none;"><polygon style="stroke : none; fill-opacity: 0.1"/></g><g class="translateControl" style="display: none;"><polygon style="stroke : none; fill-opacity: 0.1; cursor:move" points="446.89,1043.86 488.43,1043.86 488.43,1083.82 446.89,1083.82 "/></g></g><g fill="#0000ff" stroke="#0000ff" style="display: none;" class="SelectionControls"><polygon fill="none" stroke="#0000ff" style="" points="423.91,794.75 534.71,794.75 534.71,1125.25 423.91,1125.25 "/><g class="rotateControl" style="display: none;"><circle cx="479.31050516977666" cy="764.7494951095349" r="5" style="stroke : none; fill-opacity: 0.5; cursor:crosshair"/></g><g class="ResizeNControl" style="display: none;"><circle cx="0" cy="0" r="5" style="stroke : none; fill-opacity: 0.5"/></g><g class="ResizeNEControl" style="display: none;"><circle cx="0" cy="0" r="5" style="stroke : none; fill-opacity: 0.5"/></g><g class="ResizeEControl" style="display: none;"><circle cx="0" cy="0" r="5" style="stroke : none; fill-opacity: 0.5"/></g><g class="ResizeSEControl" style="display: none;"><circle cx="0" cy="0" r="5" style="stroke : none; fill-opacity: 0.5"/></g><g class="ResizeSControl" style="display: none;"><circle cx="0" cy="0" r="5" style="stroke : none; fill-opacity: 0.5"/></g><g class="ResizeSWControl" style="display: none;"><circle cx="0" cy="0" r="5" style="stroke : none; fill-opacity: 0.5"/></g><g class="ResizeWControl" style="display: none;"><circle cx="0" cy="0" r="5" style="stroke : none; fill-opacity: 0.5"/></g><g class="ResizeNWControl" style="display: none;"><circle cx="0" cy="0" r="5" style="stroke : none; fill-opacity: 0.5"/></g><g class="removeControl" style="display: none;"><polygon style="stroke : none; fill-opacity: 0.1"/></g><g class="copyPasteControl" style="display: none;"><polygon style="stroke : none; fill-opacity: 0.1"/></g><g class="translateControl" style="display: none;"><polygon style="stroke : none; fill-opacity: 0.1; cursor:move"/></g></g><g id="Column" fill="#000000" stroke="none" style="fill-opacity: 1;" class="Column FreeShape"><polygon points="115.28,794.67 115.28,784.14 158.58,794.75 115.28,794.67 115.28,794.67 "/></g></g></g></g></svg>
