<?xml version="1.0"?>
<svg xmlns="http://www.w3.org/2000/svg" xmlns:xlink="http://www.w3.org/1999/xlink" height="908.9099578857422" version="1.1" width="731.3199768066406" id="temp" viewBox="0 0 731.3199768066406 908.9099578857422"><defs/><g id="Model" class="Model v1-1"><g class="Floor"><g id="Floor-1" transform="matrix(1,0,0,1,0,0)" class="Floorplan Floor-1"><g id="47f7ee4c-c313-4eaf-8ead-5c626c18a369" class="Space Outdoor Veranda" fill="#ffffff" stroke="#000000" style="fill-opacity: 1; stroke-opacity: 1; stroke-width: 0.2;"><polygon points="141.70,667.63 715.95,667.63 715.95,897.72 143.61,897.72 143.07,668.80 141.70,667.63 "/><g transform="matrix(1,0,0,1,143.3409,667.6297)" class="Dimension"><g transform="matrix(1,0,0,1,0,0)" style="display: none;" class="Visual"><g id="mark1" fill="#000000" stroke="none" transform="matrix(1,0,0,1,285.4867,0)" style="fill-opacity: 1; pointer-events: visible;" class="DimensionMark"><polygon points="-5,5,0,0,5,5"/></g><g id="mark2" fill="#000000" stroke="none" transform="matrix(1,0,0,1,572.6098,115.0405)" style="fill-opacity: 1; pointer-events: visible;" class="DimensionMark"><polygon points="-5,-5,0,0,-5,5"/></g><g id="mark3" fill="#000000" stroke="none" transform="matrix(1,0,0,1,285.4867,230.0887)" style="fill-opacity: 1; pointer-events: visible;" class="DimensionMark"><polygon points="-5,-5,0,0,5,-5"/></g><g id="mark4" fill="#000000" stroke="none" transform="matrix(1,0,0,1,0,115.0405)" style="fill-opacity: 1; pointer-events: visible;" class="DimensionMark"><polygon points="5,5,0,0,5,-5"/></g></g><g transform="matrix(1,0,0,1,213.5865,141.9893)" class="SpaceDimensionsLabel"><g id="NameLabel" style="display: block;" class="TextLabel NameLabel"><text x="0" y="0em" fill="#000000" stroke="none" style="font-family: Verdana; font-size: 33px; fill-opacity: 1; cursor: default;">VERANTA</text></g><g id="DimensionMeasureLabel" transform="matrix(1,0,0,1,-62.8203,79.5938)" style="display: none;" class="TextLabel DimensionMeasureLabel"><text x="42.1875" y="-1.2em" fill="#000000" stroke="none" style="font-family: Verdana; font-size: 33px; fill-opacity: 1; cursor: default;">18'9" x 7'7"</text><text x="0" y="0em" fill="#000000" stroke="none" style="font-family: Verdana; font-size: 33px; fill-opacity: 1; cursor: default;">5.73 m x 2.30 m</text></g></g></g></g><g id="524cda29-3120-4110-a037-b8b8425552b1" class="Space Room" fill="#ffffff" stroke="#ffffff" style="fill-opacity: 1; stroke-opacity: 1; stroke-width: 0.2;"><polygon points="475.63,296.96 482.87,296.96 482.87,352.19 473.74,352.19 473.74,364.60 482.87,364.60 482.87,379.99 168.50,379.99 168.58,108.48 475.63,108.48 "/><g transform="matrix(1,0,0,1,168.54,108.4799)" class="Dimension"><g transform="matrix(1,0,0,1,0,0)" style="display: none;" class="Visual"><g id="mark1" fill="#000000" stroke="none" transform="matrix(1,0,0,1,157.1426,0)" style="fill-opacity: 1; pointer-events: visible;" class="DimensionMark"><polygon points="-5,5,0,0,5,5"/></g><g id="mark2" fill="#000000" stroke="none" transform="matrix(1,0,0,1,307.0912,135.7548)" style="fill-opacity: 1; pointer-events: visible;" class="DimensionMark"><polygon points="-5,-5,0,0,-5,5"/></g><g id="mark3" fill="#000000" stroke="none" transform="matrix(1,0,0,1,157.1426,271.5096)" style="fill-opacity: 1; pointer-events: visible;" class="DimensionMark"><polygon points="-5,-5,0,0,5,-5"/></g><g id="mark4" fill="#000000" stroke="none" transform="matrix(1,0,0,1,0,135.7548)" style="fill-opacity: 1; pointer-events: visible;" class="DimensionMark"><polygon points="5,5,0,0,5,-5"/></g></g><g transform="matrix(1,0,0,1,101.3578,233.6101)" class="SpaceDimensionsLabel"><g id="NameLabel" style="display: block;" class="TextLabel NameLabel"><text x="0" y="0em" fill="#000000" stroke="none" style="font-family: Verdana; font-size: 33px; fill-opacity: 1; cursor: default;">TUPA</text></g><g id="DimensionMeasureLabel" transform="matrix(1,0,0,1,-96.8203,79.5938)" style="display: none;" class="TextLabel DimensionMeasureLabel"><text x="31.6953125" y="-1.2em" fill="#000000" stroke="none" style="font-family: Verdana; font-size: 33px; fill-opacity: 1; cursor: default;">10'1" x 8'11"</text><text x="0" y="0em" fill="#000000" stroke="none" style="font-family: Verdana; font-size: 33px; fill-opacity: 1; cursor: default;">3.07 m x 2.72 m</text></g></g></g></g><g id="26ff3253-2c95-4fe2-b8f1-31e66ac9c054" class="Space Bedroom" fill="#ffffff" stroke="#ffffff" style="fill-opacity: 1; stroke-opacity: 1; stroke-width: 0.2;"><polygon points="694.91,108.48 694.91,379.99 545.87,379.99 545.87,352.19 482.87,352.19 482.87,296.96 483.67,296.96 483.67,108.48 "/><g transform="matrix(1,0,0,1,483.6686,108.4805)" class="Dimension"><g transform="matrix(1,0,0,1,0,0)" style="display: none;" class="Visual"><g id="mark1" fill="#000000" stroke="none" transform="matrix(1,0,0,1,105.2228,0)" style="fill-opacity: 1; pointer-events: visible;" class="DimensionMark"><polygon points="-5,5,0,0,5,5"/></g><g id="mark2" fill="#000000" stroke="none" transform="matrix(1,0,0,1,211.2447,135.7541)" style="fill-opacity: 1; pointer-events: visible;" class="DimensionMark"><polygon points="-5,-5,0,0,-5,5"/></g><g id="mark3" fill="#000000" stroke="none" transform="matrix(1,0,0,1,105.2228,271.509)" style="fill-opacity: 1; pointer-events: visible;" class="DimensionMark"><polygon points="-5,-5,0,0,5,-5"/></g><g id="mark4" fill="#000000" stroke="none" transform="matrix(1,0,0,1,0,135.7541)" style="fill-opacity: 1; pointer-events: visible;" class="DimensionMark"><polygon points="5,5,0,0,5,-5"/></g></g><g transform="matrix(1,0,0,1,79.7624,138.5059)" class="SpaceDimensionsLabel"><g id="NameLabel" style="display: block;" class="TextLabel NameLabel"><text x="0" y="0em" fill="#000000" stroke="none" style="font-family: Verdana; font-size: 33px; fill-opacity: 1; cursor: default;">MH</text></g><g id="DimensionMeasureLabel" transform="matrix(1,0,0,1,-113.7031,79.5938)" style="display: none;" class="TextLabel DimensionMeasureLabel"><text x="31.6953125" y="-1.2em" fill="#000000" stroke="none" style="font-family: Verdana; font-size: 33px; fill-opacity: 1; cursor: default;">6'11" x 8'11"</text><text x="0" y="0em" fill="#000000" stroke="none" style="font-family: Verdana; font-size: 33px; fill-opacity: 1; cursor: default;">2.11 m x 2.72 m</text></g></g></g></g><g id="2d7e492c-7583-4b64-b12a-9e02c3fa0e95" class="Space Undefined" fill="#ffffff" stroke="#ffffff" style="fill-opacity: 1; stroke-opacity: 1; stroke-width: 0.2;"><polygon points="501.13,394.63 501.24,394.63 501.24,645.16 167.50,645.16 168.50,379.99 501.13,379.99 "/><g transform="matrix(1,0,0,1,167.9957,379.9895)" class="Dimension"><g transform="matrix(1,0,0,1,0,0)" style="display: none;" class="Visual"><g id="mark1" fill="#000000" stroke="none" transform="matrix(1,0,0,1,166.3729,0)" style="fill-opacity: 1; pointer-events: visible;" class="DimensionMark"><polygon points="-5,5,0,0,5,5"/></g><g id="mark2" fill="#000000" stroke="none" transform="matrix(1,0,0,1,333.2457,132.5856)" style="fill-opacity: 1; pointer-events: visible;" class="DimensionMark"><polygon points="-5,-5,0,0,-5,5"/></g><g id="mark3" fill="#000000" stroke="none" transform="matrix(1,0,0,1,166.3729,265.1674)" style="fill-opacity: 1; pointer-events: visible;" class="DimensionMark"><polygon points="-5,-5,0,0,5,-5"/></g><g id="mark4" fill="#000000" stroke="none" transform="matrix(1,0,0,1,0,132.5856)" style="fill-opacity: 1; pointer-events: visible;" class="DimensionMark"><polygon points="5,5,0,0,5,-5"/></g></g><g transform="matrix(1,0,0,1,110.5867,141.7165)" class="SpaceDimensionsLabel" style="display: block;"><g id="NameLabel" style="display: block;" class="TextLabel NameLabel"><text x="0" y="0em" fill="#000000" stroke="none" style="font-family: Verdana; font-size: 33px; fill-opacity: 1; cursor: default;">UNDEFINED</text></g><g id="DimensionMeasureLabel" transform="matrix(1,0,0,1,-40.5156,79.8437)" style="display: none;" class="TextLabel DimensionMeasureLabel"><text x="31.6875" y="-1.2em" fill="#000000" stroke="none" style="font-family: Verdana; font-size: 33px; fill-opacity: 1; cursor: default;">10'11" x 8'8"</text><text x="0" y="0em" fill="#000000" stroke="none" style="font-family: Verdana; font-size: 33px; fill-opacity: 1; cursor: default;">3.33 m x 2.65 m</text></g></g></g></g><g id="c1c5be25-32b0-4834-9b3d-e6b8aef44215" class="Space Kitchen Kitchenette" fill="#ffffff" stroke="#ffffff" style="fill-opacity: 1; stroke-opacity: 1; stroke-width: 0.2;"><polygon points="694.91,645.16 501.24,645.16 501.24,394.63 694.91,394.63 "/><g transform="matrix(1,0,0,1,501.2414,394.631)" class="Dimension"><g transform="matrix(1,0,0,1,0,0)" style="display: none;" class="Visual"><g id="mark1" fill="#000000" stroke="none" transform="matrix(1,0,0,1,96.8359,0)" style="fill-opacity: 1; pointer-events: visible;" class="DimensionMark"><polygon points="-5,5,0,0,5,5"/></g><g id="mark2" fill="#000000" stroke="none" transform="matrix(1,0,0,1,193.6719,125.2629)" style="fill-opacity: 1; pointer-events: visible;" class="DimensionMark"><polygon points="-5,-5,0,0,-5,5"/></g><g id="mark3" fill="#000000" stroke="none" transform="matrix(1,0,0,1,96.8359,250.5259)" style="fill-opacity: 1; pointer-events: visible;" class="DimensionMark"><polygon points="-5,-5,0,0,5,-5"/></g><g id="mark4" fill="#000000" stroke="none" transform="matrix(1,0,0,1,0,125.2629)" style="fill-opacity: 1; pointer-events: visible;" class="DimensionMark"><polygon points="5,5,0,0,5,-5"/></g></g><g transform="matrix(1,0,0,1,53.7103,164.1255)" class="SpaceDimensionsLabel"><g id="NameLabel" style="display: block;" class="TextLabel NameLabel"><text x="0" y="0em" fill="#000000" stroke="none" style="font-family: Verdana; font-size: 33px; fill-opacity: 1; cursor: default;">KK</text></g><g id="DimensionMeasureLabel" transform="matrix(1,0,0,1,-117.0781,79.5938)" style="display: none;" class="TextLabel DimensionMeasureLabel"><text x="52.6796875" y="-1.2em" fill="#000000" stroke="none" style="font-family: Verdana; font-size: 33px; fill-opacity: 1; cursor: default;">6'4" x 8'3"</text><text x="0" y="0em" fill="#000000" stroke="none" style="font-family: Verdana; font-size: 33px; fill-opacity: 1; cursor: default;">1.94 m x 2.51 m</text></g></g></g></g><g id="Wall" class="Wall External" fill="#000000" stroke="#000000" style="fill-opacity: 1; stroke-opacity: 1; stroke-width: 0.2;"><polygon points="168.58,108.48 694.91,108.48 717.07,83.48 143.86,83.48 "/></g><g id="Wall" class="Wall External" fill="#000000" stroke="#000000" style="fill-opacity: 1; stroke-opacity: 1; stroke-width: 0.2;"><polygon points="694.91,108.48 694.91,645.16 717.07,668.80 717.07,83.48 "/><g id="Window" fill="#f0f0ff" stroke="#000000" style="fill-opacity: 1; stroke-width: 1; stroke-opacity: 1;" class="Window Regular"><polygon points="694.91,162.68 694.91,247.97 717.07,247.97 717.07,162.68 "/><g id="Glass" class="Glass"><polygon points="694.91,162.68 694.91,247.97 717.07,247.97 717.07,162.68 "/></g><g id="Panel" class="Panel"><line x1="705.989990234375" x2="705.989990234375" y1="170.17999267578125" y2="240.47000122070312"/><line x1="694.9099731445312" x2="717.0700073242188" y1="170.17999267578125" y2="170.17999267578125"/><line x1="694.9099731445312" x2="717.0700073242188" y1="240.47000122070312" y2="240.47000122070312"/></g></g></g><g id="Wall" class="Wall External" fill="#000000" stroke="#000000" style="fill-opacity: 1; stroke-opacity: 1; stroke-width: 0.2;"><polygon points="694.91,645.16 167.50,645.16 142.67,668.80 717.07,668.80 "/><g id="Door" fill="#ffffff" stroke="#000000" style="fill-opacity: 1; stroke-width: 1; stroke-opacity: 1;" class="Door Swing Beside"><polygon points="466.74,645.16 390.92,645.16 390.92,668.80 466.74,668.80 "/><g id="Threshold" class="Threshold"><polygon points="466.74,645.16 390.92,645.16 390.92,668.80 466.74,668.80 "/></g><g id="Panel" fill="none" style="" class="Panel Left Positive"><g id="PanelArea" fill="none" stroke="none" style="" class="PanelArea"><polygon points="466.74,645.16 390.92,645.16 390.92,668.80 466.74,668.80 "/></g><path d="M390.92,668.80 q0.00,75.82 75.82,75.82 l0.00,-75.82Z"/></g></g><g id="Window" fill="#f0f0ff" stroke="#000000" style="fill-opacity: 1; stroke-width: 1; stroke-opacity: 1;" class="Window Regular"><polygon points="354.69,645.16 189.69,645.16 189.69,668.80 354.69,668.80 "/><g id="Glass" class="Glass"><polygon points="354.69,645.16 189.69,645.16 189.69,668.80 354.69,668.80 "/></g><g id="Panel" class="Panel"><line x1="347.19000244140625" x2="197.19000244140625" y1="656.97998046875" y2="656.97998046875"/><line x1="347.19000244140625" x2="347.19000244140625" y1="645.1599731445312" y2="668.7999877929688"/><line x1="197.19000244140625" x2="197.19000244140625" y1="645.1599731445312" y2="668.7999877929688"/></g></g><g id="Window" fill="#f0f0ff" stroke="#000000" style="fill-opacity: 1; stroke-width: 1; stroke-opacity: 1;" class="Window Regular"><polygon points="583.80,645.16 504.09,645.16 504.09,668.80 583.80,668.80 "/><g id="Glass" class="Glass"><polygon points="583.80,645.16 504.09,645.16 504.09,668.80 583.80,668.80 "/></g><g id="Panel" class="Panel"><line x1="576.2999877929688" x2="511.5899963378906" y1="656.97998046875" y2="656.97998046875"/><line x1="576.2999877929688" x2="576.2999877929688" y1="645.1599731445312" y2="668.7999877929688"/><line x1="511.5899963378906" x2="511.5899963378906" y1="645.1599731445312" y2="668.7999877929688"/></g></g></g><g id="Wall" class="Wall" fill="#000000" stroke="#000000" style="fill-opacity: 1; stroke-opacity: 1; stroke-width: 0.2;"><polygon points="545.87,380.83 545.87,352.49 501.13,352.49 501.13,394.63 "/></g><g id="Wall" class="Wall" fill="#000000" stroke="#000000" style="fill-opacity: 1; stroke-opacity: 1; stroke-width: 0.2;"><polygon points="545.87,352.19 473.74,352.19 473.74,364.60 545.87,364.60 "/></g><g id="Wall" class="Wall" fill="#000000" stroke="#000000" style="fill-opacity: 1; stroke-opacity: 1; stroke-width: 0.2;"><polygon points="475.63,83.48 475.63,296.96 483.67,296.96 483.67,83.48 "/></g><g id="Wall" class="Wall" fill="#000000" stroke="#000000" style="fill-opacity: 1; stroke-opacity: 1; stroke-width: 0.2;"><polygon points="488.60,83.48 488.60,70.88 497.60,70.88 497.60,83.48 "/></g><g id="Wall" class="Wall" fill="#000000" stroke="#000000" style="fill-opacity: 1; stroke-opacity: 1; stroke-width: 0.2;"><polygon points="694.91,83.48 731.32,83.48 731.32,94.48 694.91,94.48 "/></g><g id="Wall" class="Wall" fill="#000000" stroke="#000000" style="fill-opacity: 1; stroke-opacity: 1; stroke-width: 0.2;"><polygon points="717.07,83.48 717.07,71.90 706.07,71.90 706.07,83.48 "/></g><g id="Wall" class="Wall" fill="#000000" stroke="#000000" style="fill-opacity: 1; stroke-opacity: 1; stroke-width: 0.2;"><polygon points="694.91,326.45 730.07,326.45 730.07,315.45 694.91,315.45 "/></g><g id="Wall" class="Wall" fill="#000000" stroke="#000000" style="fill-opacity: 1; stroke-opacity: 1; stroke-width: 0.2;"><polygon points="717.07,668.80 728.14,668.80 728.14,657.80 717.07,657.80 "/></g><g id="Wall" class="Wall" fill="#000000" stroke="#000000" style="fill-opacity: 1; stroke-opacity: 1; stroke-width: 0.2;"><polygon points="482.09,645.16 482.09,680.37 493.09,680.37 493.09,645.16 "/></g><g id="Wall" class="Wall External" fill="#000000" stroke="#000000" style="fill-opacity: 1; stroke-opacity: 1; stroke-width: 0.2;"><polygon points="167.50,645.16 168.58,108.48 143.86,83.48 142.67,668.80 "/><g id="Window" fill="#f0f0ff" stroke="#000000" style="fill-opacity: 1; stroke-width: 1; stroke-opacity: 1;" class="Window Regular"><polygon points="168.31,245.67 168.48,160.96 143.70,160.91 143.53,245.62 "/><g id="Glass" class="Glass"><polygon points="168.31,245.67 168.48,160.96 143.70,160.91 143.53,245.62 "/></g><g id="Panel" class="Panel"><line x1="155.9350493297091" x2="156.0749451771268" y1="238.14501174557762" y2="168.43499008547704"/><line x1="168.32504871935754" x2="143.54504994006066" y1="238.17001327145653" y2="238.1200102196987"/><line x1="168.46494456677527" x2="143.6849457874784" y1="168.45999161135597" y2="168.40998855959816"/></g></g><g id="Window" fill="#f0f0ff" stroke="#000000" style="fill-opacity: 1; stroke-width: 1; stroke-opacity: 1;" class="Window Regular"><polygon points="167.73,531.20 167.89,449.02 143.11,448.97 142.95,531.15 "/><g id="Glass" class="Glass"><polygon points="167.73,531.20 167.89,449.02 143.11,448.97 142.95,531.15 "/></g><g id="Panel" class="Panel"><line x1="155.35459873327434" x2="155.48539760461625" y1="523.6750325258904" y2="456.494980901844"/><line x1="167.74459812292278" x2="142.9645993436259" y1="523.7000264223748" y2="523.650038629406"/><line x1="167.87539699426472" x2="143.09539821496784" y1="456.51997479832835" y2="456.4699870053596"/></g></g></g><g id="Wall" class="Wall" fill="#000000" stroke="#000000" style="fill-opacity: 1; stroke-opacity: 1; stroke-width: 0.2;"><polygon points="167.52,656.07 127.84,656.07 127.84,668.47 167.52,668.47 "/></g><g id="Wall" class="Wall" fill="#000000" stroke="#000000" style="fill-opacity: 1; stroke-opacity: 1; stroke-width: 0.2;"><polygon points="168.15,315.62 131.62,315.62 131.62,326.62 168.15,326.62 "/></g><g id="Wall" class="Wall" fill="#000000" stroke="#000000" style="fill-opacity: 1; stroke-opacity: 1; stroke-width: 0.2;"><polygon points="168.56,83.55 133.91,83.55 133.91,93.83 168.56,93.83 "/></g><g id="Wall" class="Wall" fill="#000000" stroke="#000000" style="fill-opacity: 1; stroke-opacity: 1; stroke-width: 0.2;"><polygon points="154.76,108.48 154.76,69.58 143.76,69.58 143.76,108.48 "/></g><g id="Wall" class="Wall" fill="#000000" stroke="#000000" style="fill-opacity: 1; stroke-opacity: 1; stroke-width: 0.2;"><polygon points="501.13,394.63 717.07,394.63 717.07,380.83 545.87,380.83 "/></g><g id="Stairs" class="Stairs" fill="#ffffff" stroke="#000000" style="fill-opacity: 1; stroke-opacity: 1;"><g><polygon points="476.12,209.12 421.61,209.12 "/><g class="WalkinLine "><path fill="none" stroke="#d3d3d3" style="pointer-events: none; marker-end: url(&quot;#Marker2&quot;);"/><defs><marker viewBox="0 0 12 12" markerWidth="12" markerHeight="12" orient="auto" refX="11" refY="6" id="Marker2" fill="#d3d3d3" stroke="#d3d3d3" style="pointer-events: none;"><polygon points="0.00,0.00 0.00,12.00 10.00,6.00 0.00,0.00 "/></marker></defs></g><g id="Steps" class="Steps"/></g></g><g id="Stairs" class="Stairs" fill="#ffffff" stroke="#000000" style="fill-opacity: 1; stroke-opacity: 1;"><g id="Flight" class="Flight"><polygon points="422.47,208.28 421.61,161.93 475.66,161.93 476.52,208.28 "/><g class="WalkinLine "><path fill="none" stroke="#d3d3d3" d="M449.49,208.28 L448.63,161.93 " style="pointer-events: none; marker-end: none;"/><defs><marker viewBox="0 0 12 12" markerWidth="12" markerHeight="12" orient="auto" refX="11" refY="6" id="Marker3" fill="#d3d3d3" stroke="#d3d3d3" style="pointer-events: none;"><polygon points="0.00,0.00 0.00,12.00 10.00,6.00 0.00,0.00 "/></marker></defs></g><g id="Steps" class="Steps"><line x1="422.4700012207031" x2="476.52001953125" y1="208.27999877929688" y2="208.27999877929688"/><line x1="422.25499725341797" x2="476.30501556396484" y1="196.69249725341797" y2="196.69249725341797"/><line x1="422.0399932861328" x2="476.0900115966797" y1="185.10499572753906" y2="185.10499572753906"/><line x1="421.82498931884766" x2="475.87500762939453" y1="173.51749420166016" y2="173.51749420166016"/><line x1="421.6099853515625" x2="475.6600036621094" y1="161.92999267578125" y2="161.92999267578125"/></g></g><g id="Winding" class="Winding"><polygon points="421.91,161.93 475.66,161.93 475.66,108.47 421.91,108.47 "/><g class="WalkinLine "><path fill="none" stroke="#d3d3d3" d="M448.79,161.93 L448.79,135.20 L421.91,135.20 " style="pointer-events: none; marker-end: none;"/><defs><marker viewBox="0 0 12 12" markerWidth="12" markerHeight="12" orient="auto" refX="11" refY="6" id="Marker4" fill="#d3d3d3" stroke="#d3d3d3" style="pointer-events: none;"><polygon points="0.00,0.00 0.00,12.00 10.00,6.00 0.00,0.00 "/></marker></defs></g><g id="Steps" class="Steps"><line x1="421.9100036621094" x2="475.6600036621094" y1="161.92999267578125" y2="161.92999267578125"/><line x1="421.9100036621094" x2="475.6600036621094" y1="161.92999267578125" y2="135.1999969482422"/><line x1="421.9100036621094" x2="475.6600036621094" y1="161.92999267578125" y2="108.47000122070312"/><line x1="421.9100036621094" x2="448.7850036621094" y1="161.92999267578125" y2="108.47000122070312"/><line x1="421.9100036621094" x2="421.9100036621094" y1="161.92999267578125" y2="108.47000122070312"/></g></g><g id="Flight" class="Flight"><polygon points="421.91,108.47 405.18,108.47 405.18,161.65 421.91,161.65 "/><g class="WalkinLine "><path fill="none" stroke="#d3d3d3" d="M421.91,135.06 L405.18,135.06 " style="pointer-events: none; marker-end: url(&quot;#Marker5&quot;);"/><defs><marker viewBox="0 0 12 12" markerWidth="12" markerHeight="12" orient="auto" refX="11" refY="6" id="Marker5" fill="#d3d3d3" stroke="#d3d3d3" style="pointer-events: none;"><polygon points="0.00,0.00 0.00,12.00 10.00,6.00 0.00,0.00 "/></marker></defs></g><g id="Steps" class="Steps"><line x1="421.9100036621094" x2="421.9100036621094" y1="108.47000122070312" y2="161.64999389648438"/><line x1="405.17999267578125" x2="405.17999267578125" y1="108.47000122070312" y2="161.64999389648438"/></g></g></g><g id="Railing" class="Railing" fill="#ffffff" stroke="#000000" style="fill-opacity: 1; stroke-opacity: 1; stroke-width: 0.2;"><polygon points="714.25,670.16 714.25,908.41 704.78,908.41 704.78,670.16 "/></g><g id="Railing" class="Railing" fill="#ffffff" stroke="#000000" style="fill-opacity: 1; stroke-opacity: 1; stroke-width: 0.2;"><polygon points="724.25,899.08 467.89,899.08 467.89,887.83 724.25,887.83 "/></g><g id="Railing" class="Railing" fill="#ffffff" stroke="#000000" style="fill-opacity: 1; stroke-opacity: 1; stroke-width: 0.2;"><polygon points="421.61,209.12 421.61,161.93 416.54,167.61 416.54,209.12 " style="stroke-dasharray: 47.19, 7.61362, 46.58;"/></g><g id="Railing" class="Railing" fill="#ffffff" stroke="#000000" style="fill-opacity: 1; stroke-opacity: 1; stroke-width: 0.2;"><polygon points="421.61,161.93 397.22,161.93 397.22,167.61 416.54,167.61 " style="stroke-dasharray: 49.39, 7.61362;"/></g><g id="Railing" class="Railing" fill="#ffffff" stroke="#000000" style="fill-opacity: 1; stroke-opacity: 1; stroke-width: 0.2;"><polygon points="479.67,879.05 479.67,908.91 490.67,908.91 490.67,879.05 "/></g><g id="Railing" class="Railing" fill="#ffffff" stroke="#000000" style="fill-opacity: 1; stroke-opacity: 1; stroke-width: 0.2;"><polygon points="143.17,668.80 143.17,906.51 152.58,906.51 152.58,668.80 "/></g><g id="Railing" class="Railing" fill="#ffffff" stroke="#000000" style="fill-opacity: 1; stroke-opacity: 1; stroke-width: 0.2;"><polygon points="129.48,896.63 165.47,896.63 165.47,885.63 129.48,885.63 "/></g><g id="Column" class="Column Rectangle" fill="#000000" stroke="none" style="fill-opacity: 1;"><polygon points="143.19,678.24 152.70,678.24 152.58,668.80 143.07,668.80 "/></g><g id="Column" class="Column Rectangle" fill="#000000" stroke="none" style="fill-opacity: 1;"><polygon points="704.61,680.94 714.42,680.94 714.42,668.38 704.61,668.38 "/></g><g id="Column" class="Column Rectangle" fill="#000000" stroke="none" style="fill-opacity: 1;"><polygon points="142.98,885.72 142.98,896.88 153.09,896.88 153.09,885.72 "/></g><g class="FixedFurniture Fireplace" transform="matrix(0,1.0749,-1.1555,0,501.5237,364.5956)" style="fill-opacity: 1; stroke-opacity: 1;" fill="#ffffff" stroke="#000000">     
	   <g class="BoundaryPolygon" fill="rgb(255, 255, 255)" stroke="none"> 
		<polygon points="0,0 75,0 75,60 0,60"/> 
		</g>
		
	   <g class="Lines" fill="none" stroke="rgb(76, 76, 76)"> 
		    <line x1="0.629" y1="9.556" x2="51.294" y2="60.205"/>
            <line x1="0.598" y1="25.167" x2="35.942" y2="60.5"/>
            <line x1="0.5" y1="40.841" x2="20.479" y2="60.5"/>
            <line x1="40.648" y1="0.5" x2="75.432" y2="35.274"/>
            <line x1="8.329" y1="0.5" x2="68.348" y2="60.5"/>
            <line x1="24.88" y1="0.5" x2="75.5" y2="51.104"/>
            <line x1="56.774" y1="0.5" x2="75.5" y2="19.22"/>
		</g>
		
	   <g class="OverlayPolygon" fill="none" stroke="rgb(0, 0, 0)"> 
		<polygon points="0.5 60.5 75.5 60.5 75.5 0.5 0.5 0.5 0.5 60.5"/>  
		</g>
		
	   <g class="FireBox" fill="rgb(255, 255, 255)" stroke="rgb(0, 0, 0)">	
		<rect x="22.053" y="19.92" width="32.571" height="40.58"/>
	   </g>
        <g class="Direction" fill-opacity="0.9" style="display: none;">
            <polygon points="39.409 54.797 39.409 44.181 36.4 44.181 36.4 54.797 32.597 54.797 37.9 60.1 43.203 54.797 39.409 54.797" fill="#444444"/>
        </g> 
        <g class="Name" fill-opacity="0.9" style="display: none;">
            <text transform="translate(3 12)" font-size="12" font-family="Verdana, Sans-Serif">FP</text>
        </g>
    <desc>Width:75 Height:120 Depth:60 Elevation:0</desc>
    </g><g class="FixedFurniture Closet" transform="matrix(-1,0,0,-1,689.1499,380.6919)" style="fill-opacity: 1; stroke-opacity: 1;" fill="#ffffff" stroke="#000000">
        <g class="BoundaryPolygon" fill="rgb(255, 255, 255)" stroke="rgb(0, 0, 0)">
            <polygon points="0.00,0.00 49.24,0.00 49.24,59.17 0.00,59.17 "/>
        </g>
        <g class="Direction" fill-opacity="0.9" style="display: none;">
            <polygon points="25.86,53.94 25.86,43.32 22.85,43.32 22.85,53.94 19.05,53.94 24.35,59.24 29.65,53.94 25.86,53.94 " fill="#444444"/>
        </g> 
        <g class="Name" fill-opacity="0.9" style="display: none;">
            <text transform="translate(3 12)" font-size="12" font-family="Verdana, Sans-Serif">CL</text>
        </g>
        <desc>Width:60 Height:200 Depth:60 Elevation:0</desc>
     </g><g class="FixedFurniture CoatCloset" transform="matrix(-1,0,0,-1,639.91,380.77)" style="fill-opacity: 1; stroke-opacity: 1;" fill="#ffffff" stroke="#000000">
        <g class="BoundaryPolygon" fill="rgb(255, 255, 255)" stroke="rgb(0, 0, 0)">
                <polygon points="0.00,0.00 81.73,0.00 81.73,59.17 0.00,59.17 "/>
            </g>
        <g class="Hanger" fill="rgb(255, 255, 255)" stroke="rgb(154, 154, 154)" stroke-dasharray="5,5">
            <line x1="0" y1="29.58440050367408" x2="81.72501805294976" y2="29.58440050367408"/>
            </g>
        <g class="Direction" fill-opacity="0.9" style="display: none;">
            <polygon points="41.89,53.76 41.89,43.14 38.88,43.14 38.88,53.76 35.08,53.76 40.38,59.06 45.68,53.76 41.89,53.76 " fill="#444444"/>
        </g> 
        <g class="Name" fill-opacity="0.9" style="display: none;">
            <text transform="translate(3 12)" font-size="12" font-family="Verdana, Sans-Serif">CWH</text>
        </g>
        <desc>Width:120 Height:200 Depth:60 Elevation:0</desc>
     </g><g class="FixedFurniture Housing" transform="matrix(-0.5595,0,0,-0.9858,694.9132,380.671)" style="fill-opacity: 1; stroke-opacity: 1;" fill="#ffffff" stroke="#000000">
        <g class="BoundaryPolygon" fill="rgb(255, 255, 255)" stroke="rgb(0, 0, 0)">
            <polygon points="0,0 10,0 10,60 0,60"/>
        </g> 
        <g class="Name" fill-opacity="0.9" style="display: none;">
            <text transform="translate(3 12)" font-size="12" font-family="Verdana, Sans-Serif">EMPTY</text>
        </g>
        <desc>Width:60 Height:200 Depth:60 Elevation:0</desc>
     </g><g fill="#0000ff" stroke="#0000ff" style="display: none;" class="SelectionControls"><g style="display: none;" class="rotateControl"><circle cx="329.48865" cy="458.67475" r="5" style="stroke : none; fill-opacity: 0.5; cursor:crosshair"/></g><g style="display: none;" class="ResizeNControl"><circle cx="0" cy="0" r="5" style="stroke : none; fill-opacity: 0.5"/></g><g style="display: none;" class="ResizeNEControl"><circle cx="0" cy="0" r="5" style="stroke : none; fill-opacity: 0.5"/></g><g style="display: none;" class="ResizeEControl"><circle cx="0" cy="0" r="5" style="stroke : none; fill-opacity: 0.5"/></g><g style="display: none;" class="ResizeSEControl"><circle cx="0" cy="0" r="5" style="stroke : none; fill-opacity: 0.5"/></g><g style="display: none;" class="ResizeSControl"><circle cx="0" cy="0" r="5" style="stroke : none; fill-opacity: 0.5"/></g><g style="display: none;" class="ResizeSWControl"><circle cx="0" cy="0" r="5" style="stroke : none; fill-opacity: 0.5"/></g><g style="display: none;" class="ResizeWControl"><circle cx="0" cy="0" r="5" style="stroke : none; fill-opacity: 0.5"/></g><g style="display: none;" class="ResizeNWControl"><circle cx="0" cy="0" r="5" style="stroke : none; fill-opacity: 0.5"/></g><g style="display: none;" class="removeControl"><polygon style="stroke : none; fill-opacity: 0.1" points="278.58,488.67 380.39,488.67 380.39,528.53 278.58,528.53 "/></g><g style="display: none;" class="copyPasteControl"><polygon style="stroke : none; fill-opacity: 0.1"/></g><g style="display: none;" class="translateControl"><polygon style="stroke : none; fill-opacity: 0.1; cursor:move" points="278.58,488.67 380.39,488.67 380.39,528.53 278.58,528.53 "/></g></g><g fill="#0000ff" stroke="#0000ff" style="display: none;" class="SelectionControls"><polygon fill="none" stroke="#0000ff" style="" points="168.00,379.99 501.24,379.99 501.24,645.16 168.00,645.16 "/><g style="display: none;" class="rotateControl"><circle cx="334.6185485107422" cy="349.9895" r="5" style="stroke : none; fill-opacity: 0.5; cursor:crosshair"/></g><g style="display: none;" class="ResizeNControl"><circle cx="0" cy="0" r="5" style="stroke : none; fill-opacity: 0.5"/></g><g style="display: none;" class="ResizeNEControl"><circle cx="0" cy="0" r="5" style="stroke : none; fill-opacity: 0.5"/></g><g style="display: none;" class="ResizeEControl"><circle cx="0" cy="0" r="5" style="stroke : none; fill-opacity: 0.5"/></g><g style="display: none;" class="ResizeSEControl"><circle cx="0" cy="0" r="5" style="stroke : none; fill-opacity: 0.5"/></g><g style="display: none;" class="ResizeSControl"><circle cx="0" cy="0" r="5" style="stroke : none; fill-opacity: 0.5"/></g><g style="display: none;" class="ResizeSWControl"><circle cx="0" cy="0" r="5" style="stroke : none; fill-opacity: 0.5"/></g><g style="display: none;" class="ResizeWControl"><circle cx="0" cy="0" r="5" style="stroke : none; fill-opacity: 0.5"/></g><g style="display: none;" class="ResizeNWControl"><circle cx="0" cy="0" r="5" style="stroke : none; fill-opacity: 0.5"/></g><g style="display: none;" class="removeControl"><polygon style="stroke : none; fill-opacity: 0.1"/></g><g style="display: none;" class="copyPasteControl"><polygon style="stroke : none; fill-opacity: 0.1"/></g><g style="display: none;" class="translateControl"><polygon style="stroke : none; fill-opacity: 0.1; cursor:move"/></g></g><g id="Stairs" fill="#ffffff" stroke="#000000" style="fill-opacity: 1; stroke-opacity: 1;" class="Stairs"/><g id="Column" fill="#000000" stroke="none" style="fill-opacity: 1;" transform="matrix(1,0,0,1,0,0)" class="Column Rectangle"><polygon points="480.56,887.92 480.56,899.08 490.67,899.08 490.67,887.92 "/></g><g id="Column" fill="#000000" stroke="none" style="fill-opacity: 1;" transform="matrix(1,0,0,1,0,0)" class="Column Rectangle"><polygon points="704.78,886.56 704.78,897.72 714.89,897.72 714.89,886.56 "/></g><g transform="matrix(1,0,0,1,252.1236,644.7981)" class="FixedFurniture Misc" style="fill-opacity: 1; stroke-opacity: 1; stroke-width: 1.8; stroke-dasharray: 5, 5;" fill="none" stroke="#000000"><desc>Width:120 Height:200 Depth:60 Elevation:0</desc><g class="BoundaryPolygon"><path d="M0.00,0.00 L360.71,-536.16 L360.71,1.55 " fill="none" stroke="#000000" style=""/></g></g><g transform="matrix(1,0,0,1,501.9562,394.63)" class="FixedFurniture BaseCabinet" style="fill-opacity: 1; stroke-opacity: 1;" fill="#ffffff" stroke="#000000"><desc>Width:60 Height:90 Depth:60 Elevation:0</desc><g class="BoundaryPolygon"><polygon points="0.00,0.00 193.67,0.00 193.67,250.53 127.03,250.53 127.03,62.94 1.08,62.94 1.08,-0.29 " fill="#ffffff" stroke="#000000" style=""/></g></g><g class="FixedFurniture ElectricalAppliance IntegratedStove" transform="matrix(1,0,0,1,499.7584,393.243)" style="fill-opacity: 1; stroke-opacity: 1;" fill="#ffffff" stroke="#000000">
            <g class="BoundaryPolygon" fill="rgb(255, 255, 255)" stroke="rgb(0, 0, 0)">
                <polygon points="2.00,2.00 42.87,2.00 42.87,64.25 2.00,64.25 "/>
            </g>
            <g class="OuterCircle" fill="rgb(255, 255, 255)" stroke="rgb(0, 0, 0)" stroke-width="0.8">
                <circle cx="22.865106372930576" cy="17.723548811612705" r="8"/>
                <circle cx="22.865106372930576" cy="48.62898705186235" r="8"/>
            </g>
             <g class="Direction" fill-opacity="0.9" style="display: none;">
                <polygon points="45.74,61.14 45.74,50.53 42.73,50.53 42.73,61.14 38.93,61.14 44.23,65.95 49.54,61.14 45.74,61.14 " fill="#444444"/>
            </g> 
            <g class="Name" fill-opacity="0.9" style="display: none;">
                <text transform="translate(3 12)" font-size="12" font-family="Verdana, Sans-Serif">INT_STOVE</text>
            </g>
            <desc>Width:60 Height:90 Depth:30 Elevation:0</desc>
        </g><g class="FixedFurniture RoundSink" transform="matrix(0,0.9455,-0.9217,0,681.3279,461.0528)" style="fill-opacity: 1; stroke-opacity: 1;" fill="#ffffff" stroke="#000000">
            <g class="InnerPolygon" fill="rgb(255, 255, 255)" stroke="rgb(0, 0, 0)">
                <circle cx="23.5" cy="27.8" r="23"/>
            </g>
            <g class="OuterDrain" fill="rgb(255, 255, 255)" stroke="rgb(0, 0, 0)" stroke-width="0.8">
                <circle cx="23.5" cy="27.7" r="3.5"/>
            </g>
            <g class="InnerDrain" fill="rgb(255, 255, 255)" stroke="rgb(0, 0, 0)" stroke-width="0.8">
                <circle cx="23.5" cy="27.7" r="2"/>
            </g>
            <g class="Faucet" fill="rgb(255, 255, 255)" stroke="rgb(0, 0, 0)">
                <polygon points="20.5 0.5 26.5 0.5 26.5 14.5 20.5 14.5 20.5 0.5"/>
            </g>
            <g class="Name" fill-opacity="0.9" style="display: none;">
                <text transform="translate(6.5 24.5)" font-size="12" font-family="Verdana, Sans-Serif">SINK</text>
            </g>
            <desc>Width:46 Height:90 Depth:50 Elevation:60</desc>
        </g><g class="FixedFurniture ElectricalAppliance Dishwasher" transform="matrix(0,0.86,-1.106,0,695.3756,512.1289)" style="fill-opacity: 1; stroke-opacity: 1;" fill="#ffffff" stroke="#000000"> 
        <g class="BoundaryPolygon" fill="rgb(255, 255, 255)" stroke="rgb(0, 0, 0)"> 
		<polygon points="0,0 60,0 60,60 0,60"/>
		</g>
	   <g class="electricitySign" fill="none" stroke="rgb(0, 0, 0)">
        <path d="M0,0,30,38.9v-20L60,60"/>
	   </g>
	   <g class="Handle" fill="none" stroke="rgb(0, 0, 0)"> 
		<path d="M10,59.6H49.8"/>
		</g>
        <g class="Direction" fill-opacity="0.9" style="display: none;">
                <polygon points="32.009 55.197 32.009 44.581 29 44.581 29 55.197 25.197 55.197 30.5 60 35.803 55.197 32.009 55.197" fill="#444444"/>
        </g> 
        <g class="Name" fill-opacity="0.9" style="display: none;">
                <text transform="translate(3 12)" font-size="12" font-family="Verdana, Sans-Serif">DW</text>
        </g>
        <desc>Width:60 Height:90 Depth:60 Elevation:0</desc>
	</g><g transform="matrix(1,0,0,1,543.3395,394.8635)" style="stroke-opacity: 1; fill-opacity: 0.7;" class="FixedFurniture WallCabinet" fill="#ffffff" stroke="#000000"><desc>Width:60 Height:60 Depth:50 Elevation:140</desc><g class="BoundaryPolygon"><polygon points="0.00,0.00 0.00,31.48 82.56,31.48 115.75,65.53 115.75,250.58 152.29,250.59 152.29,-0.23 0.00,0.00 " fill="#ffffff" stroke="#000000" style=""/></g></g></g></g></g></svg>
