<?xml version="1.0"?>
<svg xmlns="http://www.w3.org/2000/svg" xmlns:xlink="http://www.w3.org/1999/xlink" height="1176.2400131225586" version="1.1" width="661.5199966430664" id="temp" viewBox="0 0 661.5199966430664 1176.2400131225586"><defs/><g id="Model" class="Model v1-1"><g class="Floor"><g id="Floor-1" class="Floorplan Floor-1"><g id="5016b798-d4bc-4207-a9a2-d47ec483410a" fill="#ffffff" stroke="#ffffff" style="fill-opacity: 1; stroke-opacity: 1; stroke-width: 0.2;" class="Space Undefined"><polygon points="298.71,813.21 297.49,813.21 297.49,1067.61 165.83,1067.61 165.83,1036.41 92.21,1036.41 92.21,700.81 298.71,700.81 "/><g transform="matrix(1,0,0,1,92.2148,700.8113)" class="Dimension"><g transform="matrix(1,0,0,1,0,0)" style="display: none;" class="Visual"><g id="mark1" fill="#000000" stroke="none" transform="matrix(1,0,0,1,103.2489,0)" style="fill-opacity: 1; pointer-events: visible;" class="DimensionMark"><polygon points="-5,5,0,0,5,5"/></g><g id="mark2" fill="#000000" stroke="none" transform="matrix(1,0,0,1,205.2741,183.4004)" style="fill-opacity: 1; pointer-events: visible;" class="DimensionMark"><polygon points="-5,-5,0,0,-5,5"/></g><g id="mark3" fill="#000000" stroke="none" transform="matrix(1,0,0,1,103.2489,366.8007)" style="fill-opacity: 1; pointer-events: visible;" class="DimensionMark"><polygon points="-5,-5,0,0,5,-5"/></g><g id="mark4" fill="#000000" stroke="none" transform="matrix(1,0,0,1,0,183.4004)" style="fill-opacity: 1; pointer-events: visible;" class="DimensionMark"><polygon points="5,5,0,0,5,-5"/></g></g><g transform="matrix(1,0,0,1,44.9494,165.6689)" class="SpaceDimensionsLabel"><g id="NameLabel" style="display: block;" class="TextLabel NameLabel"><text x="0" y="0em" fill="#000000" stroke="none" style="font-family: Verdana; font-size: 33px; fill-opacity: 1; cursor: default;">UNDEFINED</text></g><g id="DimensionMeasureLabel" transform="matrix(1,0,0,1,-40.5234,79.8438)" style="display: none;" class="TextLabel DimensionMeasureLabel"><text x="42.1796875" y="-1.2em" fill="#000000" stroke="none" style="font-family: Verdana; font-size: 33px; fill-opacity: 1; cursor: default;">6'9" x 12'0"</text><text x="0" y="0em" fill="#000000" stroke="none" style="font-family: Verdana; font-size: 33px; fill-opacity: 1; cursor: default;">2.05 m x 3.67 m</text></g></g></g></g><g id="82e23e64-0d67-4294-8dc7-c83f5b015f38" fill="#ffffff" stroke="#ffffff" style="fill-opacity: 1; stroke-opacity: 1; stroke-width: 0.2;" class="Space Kitchen"><polygon points="621.52,872.41 308.49,872.41 308.49,813.21 298.71,813.21 298.71,700.81 621.52,700.81 "/><g transform="matrix(1,0,0,1,298.7125,700.8113)" class="Dimension"><g transform="matrix(1,0,0,1,0,0)" style="display: none;" class="Visual"><g id="mark1" fill="#000000" stroke="none" transform="matrix(1,0,0,1,161.4023,0)" style="fill-opacity: 1; pointer-events: visible;" class="DimensionMark"><polygon points="-5,5,0,0,5,5"/></g><g id="mark2" fill="#000000" stroke="none" transform="matrix(1,0,0,1,322.8045,85.7995)" style="fill-opacity: 1; pointer-events: visible;" class="DimensionMark"><polygon points="-5,-5,0,0,-5,5"/></g><g id="mark3" fill="#000000" stroke="none" transform="matrix(1,0,0,1,161.4023,171.599)" style="fill-opacity: 1; pointer-events: visible;" class="DimensionMark"><polygon points="-5,-5,0,0,5,-5"/></g><g id="mark4" fill="#000000" stroke="none" transform="matrix(1,0,0,1,0,85.7995)" style="fill-opacity: 1; pointer-events: visible;" class="DimensionMark"><polygon points="5,5,0,0,5,-5"/></g></g><g transform="matrix(1,0,0,1,149.3909,89.4761)" class="SpaceDimensionsLabel" style="display: block;"><g id="NameLabel" style="display: block;" class="TextLabel NameLabel"><text x="0" y="0em" fill="#000000" stroke="none" style="font-family: Verdana; font-size: 33px; fill-opacity: 1; cursor: default;">K</text></g><g id="DimensionMeasureLabel" transform="matrix(1,0,0,1,-128.2578,80.2501)" style="display: none;" class="TextLabel DimensionMeasureLabel"><text x="42.1640625" y="-1.2em" fill="#000000" stroke="none" style="font-family: Verdana; font-size: 33px; fill-opacity: 1; cursor: default;">10'7" x 5'8"</text><text x="0" y="0em" fill="#000000" stroke="none" style="font-family: Verdana; font-size: 33px; fill-opacity: 1; cursor: default;">3.23 m x 1.72 m</text></g></g></g></g><g id="2c76f06a-830c-4c46-866b-cea134f6dd86" fill="#ffffff" stroke="#ffffff" style="fill-opacity: 1; stroke-opacity: 1; stroke-width: 0.2;" class="Space LivingRoom"><polygon points="621.52,700.81 175.47,700.81 175.47,350.55 621.52,350.55 "/><g transform="matrix(1,0,0,1,175.4701,350.5536)" class="Dimension"><g transform="matrix(1,0,0,1,0,0)" style="display: none;" class="Visual"><g id="mark1" fill="#000000" stroke="none" transform="matrix(1,0,0,1,223.0235,0)" style="fill-opacity: 1; pointer-events: visible;" class="DimensionMark"><polygon points="-5,5,0,0,5,5"/></g><g id="mark2" fill="#000000" stroke="none" transform="matrix(1,0,0,1,446.047,175.1289)" style="fill-opacity: 1; pointer-events: visible;" class="DimensionMark"><polygon points="-5,-5,0,0,-5,5"/></g><g id="mark3" fill="#000000" stroke="none" transform="matrix(1,0,0,1,223.0235,350.2577)" style="fill-opacity: 1; pointer-events: visible;" class="DimensionMark"><polygon points="-5,-5,0,0,5,-5"/></g><g id="mark4" fill="#000000" stroke="none" transform="matrix(1,0,0,1,0,175.1289)" style="fill-opacity: 1; pointer-events: visible;" class="DimensionMark"><polygon points="5,5,0,0,5,-5"/></g></g><g transform="matrix(1,0,0,1,193.4595,182.5198)" class="SpaceDimensionsLabel" style="display: block;"><g id="NameLabel" style="display: block;" class="TextLabel NameLabel"><text x="0" y="0em" fill="#000000" stroke="none" style="font-family: Verdana; font-size: 33px; fill-opacity: 1; cursor: default;">OH</text></g><g id="DimensionMeasureLabel" transform="matrix(1,0,0,1,-114.5781,80.25)" style="display: none;" class="TextLabel DimensionMeasureLabel"><text x="31.6796875" y="-1.2em" fill="#000000" stroke="none" style="font-family: Verdana; font-size: 33px; fill-opacity: 1; cursor: default;">14'8" x 11'6"</text><text x="0" y="0em" fill="#000000" stroke="none" style="font-family: Verdana; font-size: 33px; fill-opacity: 1; cursor: default;">4.46 m x 3.50 m</text></g></g></g></g><g id="98fa2499-24b6-4c4b-8ace-4fd7df5e604c" fill="#ffffff" stroke="#ffffff" style="fill-opacity: 1; stroke-opacity: 1; stroke-width: 0.2;" class="Space Bedroom"><polygon points="621.52,340.55 175.47,340.55 175.47,108.60 621.52,108.60 "/><g transform="matrix(1,0,0,1,175.4701,108.6038)" class="Dimension"><g transform="matrix(1,0,0,1,0,0)" style="display: none;" class="Visual"><g id="mark1" fill="#000000" stroke="none" transform="matrix(1,0,0,1,223.0235,0)" style="fill-opacity: 1; pointer-events: visible;" class="DimensionMark"><polygon points="-5,5,0,0,5,5"/></g><g id="mark2" fill="#000000" stroke="none" transform="matrix(1,0,0,1,446.047,115.9749)" style="fill-opacity: 1; pointer-events: visible;" class="DimensionMark"><polygon points="-5,-5,0,0,-5,5"/></g><g id="mark3" fill="#000000" stroke="none" transform="matrix(1,0,0,1,223.0235,231.9498)" style="fill-opacity: 1; pointer-events: visible;" class="DimensionMark"><polygon points="-5,-5,0,0,5,-5"/></g><g id="mark4" fill="#000000" stroke="none" transform="matrix(1,0,0,1,0,115.9749)" style="fill-opacity: 1; pointer-events: visible;" class="DimensionMark"><polygon points="5,5,0,0,5,-5"/></g></g><g transform="matrix(1,0,0,1,191.3685,128.3616)" class="SpaceDimensionsLabel" style="display: block;"><g id="NameLabel" style="display: block;" class="TextLabel NameLabel"><text x="0" y="0em" fill="#000000" stroke="none" style="font-family: Verdana; font-size: 33px; fill-opacity: 1; cursor: default;">MH</text></g><g id="DimensionMeasureLabel" transform="matrix(1,0,0,1,-113.6953,79.7187)" style="display: none;" class="TextLabel DimensionMeasureLabel"><text x="42.1796875" y="-1.2em" fill="#000000" stroke="none" style="font-family: Verdana; font-size: 33px; fill-opacity: 1; cursor: default;">14'8" x 7'7"</text><text x="0" y="0em" fill="#000000" stroke="none" style="font-family: Verdana; font-size: 33px; fill-opacity: 1; cursor: default;">4.46 m x 2.32 m</text></g></g></g></g><g id="313736c9-57b9-4d73-a44a-d706b5939a19" fill="#ffffff" stroke="#ffffff" style="fill-opacity: 1; stroke-opacity: 1; stroke-width: 0.2;" class="Space Bath Shower"><polygon points="621.52,1067.61 308.49,1067.61 308.49,882.43 621.52,882.43 "/><g transform="matrix(1,0,0,1,308.4889,882.4292)" class="Dimension"><g transform="matrix(1,0,0,1,0,0)" style="display: none;" class="Visual"><g id="mark1" fill="#000000" stroke="none" transform="matrix(1,0,0,1,156.5141,0)" style="fill-opacity: 1; pointer-events: visible;" class="DimensionMark"><polygon points="-5,5,0,0,5,5"/></g><g id="mark2" fill="#000000" stroke="none" transform="matrix(1,0,0,1,313.0282,92.5914)" style="fill-opacity: 1; pointer-events: visible;" class="DimensionMark"><polygon points="-5,-5,0,0,-5,5"/></g><g id="mark3" fill="#000000" stroke="none" transform="matrix(1,0,0,1,156.5141,185.1829)" style="fill-opacity: 1; pointer-events: visible;" class="DimensionMark"><polygon points="-5,-5,0,0,5,-5"/></g><g id="mark4" fill="#000000" stroke="none" transform="matrix(1,0,0,1,0,92.5914)" style="fill-opacity: 1; pointer-events: visible;" class="DimensionMark"><polygon points="5,5,0,0,5,-5"/></g></g><g transform="matrix(1,0,0,1,135.5598,89.7269)" class="SpaceDimensionsLabel" style="display: block;"><g id="NameLabel" style="display: block;" class="TextLabel NameLabel"><text x="0" y="0em" fill="#000000" stroke="none" style="font-family: Verdana; font-size: 33px; fill-opacity: 1; cursor: default;">PH</text></g><g id="DimensionMeasureLabel" transform="matrix(1,0,0,1,-117.6406,79.5156)" style="display: none;" class="TextLabel DimensionMeasureLabel"><text x="42.1796875" y="-1.2em" fill="#000000" stroke="none" style="font-family: Verdana; font-size: 33px; fill-opacity: 1; cursor: default;">10'3" x 6'1"</text><text x="0" y="0em" fill="#000000" stroke="none" style="font-family: Verdana; font-size: 33px; fill-opacity: 1; cursor: default;">3.13 m x 1.85 m</text></g></g></g></g><g id="Wall" fill="#000000" stroke="#000000" style="fill-opacity: 1; stroke-opacity: 1; stroke-width: 0.2;" class="Wall External"><polygon points="154.30,70.60 661.52,70.60 621.52,108.60 154.30,108.60 "/><g id="Window" fill="#f0f0ff" stroke="#000000" style="fill-opacity: 1; stroke-width: 1; stroke-opacity: 1;" class="Window Regular"><polygon points="187.92,70.60 416.43,70.60 416.43,108.60 187.92,108.60 "/><g id="Glass" class="Glass"><polygon points="187.92,70.60 416.43,70.60 416.43,108.60 187.92,108.60 "/></g><g id="Panel" class="Panel"><line x1="195.4207632130914" x2="408.93024786491867" y1="89.60378421527427" y2="89.60378421527423"/><line x1="195.4207632130914" x2="195.4207632130914" y1="70.60378421527427" y2="108.60378421527427"/><line x1="408.9302478649188" x2="408.9302478649188" y1="70.60378421527425" y2="108.60378421527425"/></g></g><g id="Window" fill="#f0f0ff" stroke="#000000" style="fill-opacity: 1; stroke-width: 1; stroke-opacity: 1;" class="Window Regular"><polygon points="477.60,70.60 592.99,70.60 592.99,108.60 477.60,108.60 "/><g id="Glass" class="Glass"><polygon points="477.60,70.60 592.99,70.60 592.99,108.60 477.60,108.60 "/></g><g id="Panel" class="Panel"><line x1="485.09977313474576" x2="585.49197428108" y1="89.60378421527425" y2="89.60378421527422"/><line x1="485.09977313474576" x2="485.09977313474576" y1="70.60378421527425" y2="108.60378421527425"/><line x1="585.49197428108" x2="585.49197428108" y1="70.60378421527422" y2="108.60378421527422"/></g></g></g><g id="Wall" fill="#000000" stroke="#000000" style="fill-opacity: 1; stroke-opacity: 1; stroke-width: 0.2;" class="Wall External"><polygon points="661.52,70.60 661.52,1094.61 621.52,1067.61 621.52,108.60 "/><g id="Window" fill="#f0f0ff" stroke="#000000" style="fill-opacity: 1; stroke-width: 1; stroke-opacity: 1;" class="Window Regular"><polygon points="661.52,435.32 661.52,518.98 621.52,518.98 621.52,435.32 "/><g id="Glass" class="Glass"><polygon points="661.52,435.32 661.52,518.98 621.52,518.98 621.52,435.32 "/></g><g id="Panel" class="Panel"><line x1="641.5170924413936" x2="641.5170924413936" y1="442.81722958967214" y2="511.4803135534422"/><line x1="661.5170924413936" x2="621.5170924413936" y1="442.81722958967214" y2="442.81722958967214"/><line x1="661.5170924413936" x2="621.5170924413936" y1="511.4803135534422" y2="511.4803135534422"/></g></g><g id="Window" fill="#f0f0ff" stroke="#000000" style="fill-opacity: 1; stroke-width: 1; stroke-opacity: 1;" class="Window Regular"><polygon points="661.52,607.43 661.52,757.57 621.52,757.57 621.52,607.43 "/><g id="Glass" class="Glass"><polygon points="661.52,607.43 661.52,757.57 621.52,757.57 621.52,607.43 "/></g><g id="Panel" class="Panel"><line x1="641.5170924413936" x2="641.5170924413936" y1="614.9347716427731" y2="750.0705365757314"/><line x1="661.5170924413936" x2="621.5170924413936" y1="614.9347716427731" y2="614.9347716427731"/><line x1="661.5170924413936" x2="621.5170924413936" y1="750.0705365757314" y2="750.0705365757314"/></g></g><g id="Window" fill="#f0f0ff" stroke="#000000" style="fill-opacity: 1; stroke-width: 1; stroke-opacity: 1;" class="Window Regular"><polygon points="661.52,886.42 661.52,976.77 621.52,976.77 621.52,886.42 "/><g id="Glass" class="Glass"><polygon points="661.52,886.42 661.52,976.77 621.52,976.77 621.52,886.42 "/></g><g id="Panel" class="Panel"><line x1="641.5170924413936" x2="641.5170924413936" y1="893.9212672459961" y2="969.2662703675103"/><line x1="661.5170924413936" x2="621.5170924413936" y1="893.9212672459961" y2="893.9212672459961"/><line x1="661.5170924413936" x2="621.5170924413936" y1="969.2662703675103" y2="969.2662703675103"/></g></g></g><g id="Wall" fill="#000000" stroke="#000000" style="fill-opacity: 1; stroke-opacity: 1; stroke-width: 0.2;" class="Wall External"><polygon points="141.83,1094.61 141.83,1062.41 165.83,1036.41 165.83,1067.61 "/></g><g id="Wall" fill="#000000" stroke="#000000" style="fill-opacity: 1; stroke-opacity: 1; stroke-width: 0.2;" class="Wall External"><polygon points="165.83,1036.41 92.21,1036.41 72.21,1062.41 141.83,1062.41 "/></g><g id="Wall" fill="#000000" stroke="#000000" style="fill-opacity: 1; stroke-opacity: 1; stroke-width: 0.2;" class="Wall External"><polygon points="72.21,1062.41 72.21,680.81 92.21,700.81 92.21,1036.41 "/></g><g id="Wall" fill="#000000" stroke="#000000" style="fill-opacity: 1; stroke-opacity: 1; stroke-width: 0.2;" class="Wall External"><polygon points="72.21,680.81 155.47,680.81 175.47,700.81 92.21,700.81 "/></g><g id="Wall" fill="#000000" stroke="#000000" style="fill-opacity: 1; stroke-opacity: 1; stroke-width: 0.2;" class="Wall External"><polygon points="175.47,700.81 175.47,70.60 155.47,70.60 155.47,680.81 "/></g><g id="Wall" fill="#000000" stroke="#000000" style="fill-opacity: 1; stroke-opacity: 1; stroke-width: 0.2;" class="Wall"><polygon points="155.47,340.55 661.52,340.55 661.52,350.55 155.47,350.55 "/><g id="Door" fill="#ffffff" stroke="#000000" style="fill-opacity: 1; stroke-width: 1; stroke-opacity: 1;" class="Door Swing Beside"><polygon points="464.41,340.55 547.31,340.55 547.31,350.55 464.41,350.55 "/><g id="Threshold" class="Threshold"><polygon points="464.41,340.55 547.31,340.55 547.31,350.55 464.41,350.55 "/></g><g id="Panel" fill="none" style="" class="Panel Left Negative"><g id="PanelArea" fill="none" stroke="none" style="" class="PanelArea"><polygon points="464.41,340.55 547.31,340.55 547.31,350.55 464.41,350.55 "/></g><path d="M464.41,340.55 q0.00,-82.90 82.90,-82.90 l0.00,82.90Z"/></g></g></g><g id="Wall" fill="#000000" stroke="#000000" style="fill-opacity: 1; stroke-opacity: 1; stroke-width: 0.2;" class="Wall"><polygon points="297.49,1094.61 297.49,813.21 308.49,813.21 308.49,1094.61 "/><g id="Door" fill="#ffffff" stroke="#000000" style="fill-opacity: 1; stroke-width: 1; stroke-opacity: 1;" class="Door Swing Beside"><polygon points="297.49,971.89 297.49,886.36 308.49,886.36 308.49,971.89 "/><g id="Threshold" class="Threshold"><polygon points="297.49,971.89 297.49,886.36 308.49,886.36 308.49,971.89 "/></g><g id="Panel" fill="none" style="" class="Panel Right Negative"><g id="PanelArea" fill="none" stroke="none" style="" class="PanelArea"><polygon points="297.49,971.89 297.49,886.36 308.49,886.36 308.49,971.89 "/></g><path d="M297.49,886.36 q-85.53,0.00 -85.53,85.53 l85.53,0.00Z"/></g></g></g><g id="Wall" fill="#000000" stroke="#000000" style="fill-opacity: 1; stroke-opacity: 1; stroke-width: 0.2;" class="Wall"><polygon points="308.49,882.43 661.52,882.43 661.52,872.41 308.49,872.41 "/></g><g class="FixedFurniture Housing" fill="#ffffff" stroke="#000000" transform="matrix(0,-0.8962,0.9531,0,92.4084,1036.4092)" style="fill-opacity: 1; stroke-opacity: 1;">
        <g class="BoundaryPolygon">
            <polygon points="0,0 10,0 10,60 0,60"/>
        </g> 
        <g class="Name" fill-opacity="0.9" style="display: none;">
            <text transform="translate(3 12)" font-size="12" font-family="Verdana, Sans-Serif">EMPTY</text>
        </g>
        <desc>Width:60 Height:200 Depth:60 Elevation:0</desc>
     </g><g class="FixedFurniture Closet" fill="#ffffff" stroke="#000000" transform="matrix(0,-1,1,0,92.3554,1027.4472)" style="fill-opacity: 1; stroke-opacity: 1;">
        <g class="BoundaryPolygon">
            <polygon points="0.00,0.00 60.00,0.00 60.00,57.46 0.00,57.46 "/>
        </g>
        <g class="Direction" fill-opacity="0.9" style="display: none;">
            <polygon points="31.51,52.38 31.51,41.76 28.50,41.76 28.50,52.38 24.70,52.38 30.00,57.68 35.30,52.38 31.51,52.38 " fill="#444444"/>
        </g> 
        <g class="Name" fill-opacity="0.9" style="display: none;">
            <text transform="translate(3 12)" font-size="12" font-family="Verdana, Sans-Serif">CL</text>
        </g>
        <desc>Width:60 Height:200 Depth:60 Elevation:0</desc>
     </g><g class="FixedFurniture CoatCloset" fill="#ffffff" stroke="#000000" transform="matrix(0,-1,1,0,92.3555,967.4472)" style="fill-opacity: 1; stroke-opacity: 1;">
        <g class="BoundaryPolygon">
            <polygon points="0.00,0.00 111.99,0.00 111.99,58.02 0.00,58.02 "/>
        </g>
        <g class="Hanger" fill="#ffffff" stroke="#9a9a9a" stroke-dasharray="5,5">
            <line x1="0" y1="29.011470644679967" x2="111.98670248248064" y2="29.011470644679967"/>
        </g>
        <g class="Direction" fill-opacity="0.9" style="display: none;">
            <polygon points="57.40,52.72 57.40,42.10 54.39,42.10 54.39,52.72 50.59,52.72 55.89,58.02 61.20,52.72 57.40,52.72 " fill="#444444"/>
        </g> 
        <g class="Name" fill-opacity="0.9" style="display: none;">
            <text transform="translate(3 12)" font-size="12" font-family="Verdana, Sans-Serif">CWH</text>
        </g>
        <desc>Width:120 Height:200 Depth:60 Elevation:0</desc>
     </g><g id="FixedFurnitureSet" transform="matrix(0,-1,1,0,92.2929,855.4606)" class="FixedFurnitureSet" fill="#ffffff" stroke="#000000" style="fill-opacity: 0.4; stroke-opacity: 0.4;"><g class="FixedFurniture Closet" fill="#ffffff" stroke="#000000" transform="matrix(1,0,0,1,0,0)" style="fill-opacity: 1; stroke-opacity: 1;">
        <g class="BoundaryPolygon">
            <polygon points="0.00,0.00 45.65,0.00 45.65,58.32 0.00,58.32 "/>
        </g>
        <g class="Direction" fill-opacity="0.9" style="display: none;">
            <polygon points="23.97,53.16 23.97,42.55 20.96,42.55 20.96,53.16 17.16,53.16 22.46,58.47 27.76,53.16 23.97,53.16 " fill="#444444"/>
        </g> 
        <g class="Name" fill-opacity="0.9" style="display: none;">
            <text transform="translate(3 12)" font-size="12" font-family="Verdana, Sans-Serif">CL</text>
        </g>
        <desc>Width:60 Height:200 Depth:60 Elevation:0</desc>
    </g><g class="FixedFurniture Closet" fill="#ffffff" stroke="#000000" transform="matrix(1,0,0,1,45.646,0)" style="fill-opacity: 1; stroke-opacity: 1;">
        <g class="BoundaryPolygon">
            <polygon points="0.00,0.00 45.65,0.00 45.65,58.32 0.00,58.32 "/>
        </g>
        <g class="Direction" fill-opacity="0.9" style="display: none;">
            <polygon points="23.97,53.16 23.97,42.55 20.96,42.55 20.96,53.16 17.16,53.16 22.46,58.47 27.76,53.16 23.97,53.16 " fill="#444444"/>
        </g> 
        <g class="Name" fill-opacity="0.9" style="display: none;">
            <text transform="translate(3 12)" font-size="12" font-family="Verdana, Sans-Serif">CL</text>
        </g>
        <desc>Width:60 Height:200 Depth:60 Elevation:0</desc>
     </g></g><g class="FixedFurniture Housing" fill="#ffffff" stroke="#000000" transform="matrix(0,-0.9665,0.9719,0,92.3819,711.377)" style="fill-opacity: 1; stroke-opacity: 1;">
        <g class="BoundaryPolygon">
            <polygon points="0,0 10,0 10,60 0,60"/>
        </g> 
        <g class="Name" fill-opacity="0.9" style="display: none;">
            <text transform="translate(3 12)" font-size="12" font-family="Verdana, Sans-Serif">EMPTY</text>
        </g>
        <desc>Width:60 Height:200 Depth:60 Elevation:0</desc>
     </g><g class="FixedFurniture CoatCloset" fill="#ffffff" stroke="#000000" transform="matrix(0,-1,1,0,92.2929,763.5541)" style="fill-opacity: 1; stroke-opacity: 1;">
        <g class="BoundaryPolygon">
            <polygon points="0.00,0.00 52.18,0.00 52.18,58.04 0.00,58.04 "/>
        </g>
        <g class="Hanger" fill="#ffffff" stroke="#9a9a9a" stroke-dasharray="5,5">
            <line x1="0" y1="29.019069670359972" x2="52.177132273154825" y2="29.019069670359972"/>
        </g>
        <g class="Direction" fill-opacity="0.9" style="display: none;">
            <polygon points="26.74,52.73 26.74,42.12 23.74,42.12 23.74,52.73 19.93,52.73 25.24,58.04 30.54,52.73 26.74,52.73 " fill="#444444"/>
        </g> 
        <g class="Name" fill-opacity="0.9" style="display: none;">
            <text transform="translate(3 12)" font-size="12" font-family="Verdana, Sans-Serif">CWH</text>
        </g>
        <desc>Width:120 Height:200 Depth:60 Elevation:0</desc>
     </g><g class="FixedFurniture Closet" fill="#ffffff" stroke="#000000" transform="matrix(-1,0,0,-1,348.2689,1067.5495)" style="fill-opacity: 1; stroke-opacity: 1;">
        <g class="BoundaryPolygon">
            <polygon points="0.00,0.00 39.78,0.00 39.78,68.41 0.00,68.41 "/>
        </g>
        <g class="Direction" fill-opacity="0.9" style="display: none;">
            <polygon points="20.89,62.37 20.89,51.75 17.88,51.75 17.88,62.37 14.08,62.37 19.38,67.67 24.69,62.37 20.89,62.37 " fill="#444444"/>
        </g> 
        <g class="Name" fill-opacity="0.9" style="display: none;">
            <text transform="translate(3 12)" font-size="12" font-family="Verdana, Sans-Serif">CL</text>
        </g>
        <desc>Width:60 Height:200 Depth:60 Elevation:0</desc>
     </g><g class="FixedFurniture ElectricalAppliance WashingMachine" fill="#ffffff" stroke="#000000" transform="matrix(-1,0,0,-1,408.269,1067.5496)" style="fill-opacity: 1; stroke-opacity: 1;">
	   <g class="BoundaryPolygon">
		    <polygon points="0,0 60,0 60,60 0,60"/>
		</g>	
	    <g class="electricitySign" fill="none">
            <path d="M0,0,30,41V20.8L60,60"/>
		</g>
	    <g class="Handle">
		    <path d="M2.7,59.4H57.3"/>
		</g>
        <g class="Direction" fill-opacity="0.9" style="display: none;">
            <polygon points="32.009 55.197 32.009 44.581 29 44.581 29 55.197 25.197 55.197 30.5 60 35.803 55.197 32.009 55.197" fill="#444444"/>
        </g> 
        <g class="Name" fill-opacity="0.9" style="display: none;">
            <text transform="translate(3 12)" font-size="12" font-family="Verdana, Sans-Serif">WM</text>
        </g>
        <desc>Width:60 Height:90 Depth:60 Elevation:0</desc>
    </g><g id="FixedFurnitureSet" transform="matrix(-1,0,0,-1,479.2212,1066.988)" class="FixedFurnitureSet" fill="#ffffff" stroke="#000000" style="fill-opacity: 0.4; stroke-opacity: 0.4;"><g class="FixedFurniture BaseCabinet" fill="#ffffff" stroke="#000000" transform="matrix(1,0,0,1,0,0)" style="fill-opacity: 1; stroke-opacity: 1;">
        <g class="BoundaryPolygon">
            <polygon points="0.00,0.00 66.46,0.00 66.46,38.12 0.00,38.12 "/>
        </g>
        <g class="Direction" fill-opacity="0.9" style="display: none;">
            <polygon points="35.45,35.07 35.45,24.46 32.45,24.46 32.45,35.07 28.64,35.07 33.95,39.87 39.25,35.07 35.45,35.07 " fill="#444444"/>
        </g> 
        <g class="Name" fill-opacity="0.9" style="display: none;">
            <text transform="translate(3 12)" font-size="12" font-family="Verdana, Sans-Serif">CB</text>
        </g>
        <desc>Width:60 Height:5 Depth:60 Elevation:105</desc>
    </g><g class="FixedFurniture Sink" fill="#ffffff" stroke="#000000" transform="matrix(1,0,0,1,0,0)" style="fill-opacity: 1; stroke-opacity: 1;">
        <g class="BoundaryPolygon" fill="none" stroke="none">
        <polygon points="0.00,0.00 66.46,0.00 66.46,38.12 0.00,38.12 "/>
        </g>
        <g class="InnerPolygon">
            <polygon points="5.54,9.70 60.92,9.70 60.92,34.76 5.54,34.76 "/>
        </g>
        <g class="OuterDrain" stroke-width="0.8">
            <circle cx="33.22878616438821" cy="20.459448103186098" r="3.5"/>
        </g>
        <g class="InnerDrain" stroke-width="0.8">
            <circle cx="33.22878616438821" cy="20.459448103186098" r="2"/>
        </g>
        <g class="Faucet">
            <polygon points="29.91,3.18 35.91,3.18 35.91,17.18 29.91,17.18 "/>
        </g>
        <g class="Direction" fill-opacity="0.9" style="display: none;">
            <polygon points="35.45,35.07 35.45,24.46 32.45,24.46 32.45,35.07 28.64,35.07 33.95,39.87 39.25,35.07 35.45,35.07 " fill="#444444"/>
        </g> 
        <g class="Name" fill-opacity="0.9" style="display: none;">
            <text transform="translate(3 12)" font-size="12" font-family="Verdana, Sans-Serif">SINK</text>
        </g>
        <desc>Width:60 Height:90 Depth:60 Elevation:0</desc>
    </g></g><g class="FixedFurniture Toilet" fill="#ffffff" stroke="#000000" transform="matrix(-0.9315,0,0,-0.9249,523.9907,1067.612)" style="fill-opacity: 1; stroke-opacity: 1;">
	   <g class="BoundaryPolygon" fill="none" stroke="none"> 
            <polygon points="0,0 41,0 41,71 0,71"/>
		</g>
        <g class="InnerPolygon">
            <rect x="0.502" y="0.5" width="39.989" height="17.98"/>
            <path d="M40.491,44.237S41.619,70.5,20.907,70.5C-.523,70.5.6,44.237.6,44.237L.5,18.48H40.491Z"/>
            <rect x="17.318" y="7.975" width="6.357" height="3.03"/>
        </g>
        <desc>Width:41 Height:85 Depth:71 Elevation:0</desc>
    </g><g class="FixedFurniture ShowerScreen" fill="#ffffff" stroke="#000000" transform="matrix(-1,0,0,-1,535.3065,1067.612)" style="fill-opacity: 1; stroke-opacity: 1;">
        <g class="BoundaryPolygon">
            <polygon points="0,0 2.5,0 2.5,60 0,60"/>
        </g>
	    <g class="InnerPolygon" stroke-linejoin="round"> 
			<rect width="2.5" height="60"/>
	    </g> 
        <desc>Width:2.5 Height:180 Depth:60 Elevation:135</desc>
    </g><g class="FixedFurniture Shower" fill="#ffffff" stroke="#000000" transform="matrix(-1,0,0,-1,595.3871,1067.612)" style="fill-opacity: 1; stroke-opacity: 1;"> 
	    <g class="BoundaryPolygon" fill="none" stroke="none">
            <polygon points="0,0 32,0 32,19 0,19"/>
        </g>
        <g class="InnerPolygon"> 
			<rect x="3.7" y="0.5" width="11.2" height="6.1"/>
			<rect x="17.6" y="0.5" width="11.2" height="6.1"/>
			<rect x="28.7" y="0.5" width="3.4" height="6.1"/>
			<rect x="0.5" y="0.5" width="3.2" height="6.1"/>
			<path d="M14.9,8.5c0,1.5-0.4,3.3-1.6,5    c-0.4,0.6-1,1.1-1.1,1.7c-0.2,1.1,0.3,2.8,2.5,3.2c0.5,0.1,1.3,0.1,1.6,0.1h-0.1c0.3,0,1.1,0,1.6-0.1c2.2-0.4,2.7-2.1,2.5-3.2    c-0.1-0.6-0.7-1.1-1.1-1.7c-1.2-1.7-1.6-3.5-1.6-5"/>
			<path d="M12.2,15.3c0.1,0.2,1.6,1.9,4.2,1.9 c2.4-0.1,3.7-1.7,3.9-1.9"/>
			<path d="M14.9,0.5h2.7v8c-0.9,0-1.8,0-2.7,0l0,0 C14.9,5.9,14.9,3.2,14.9,0.5z"/>
		</g>
	    <g class="Indicator"> 
			<path d="M3.7,3.6C5,3.1,5.2,3,5.2,3 c0,1.1,0,0,0,1.1C5.2,4.1,5.1,4.1,3.7,3.6"/>
			<path d="M28.7,3.6 C27.4,3.1,27.2,3,27.2,3c0,1.1,0,0,0,1.1C27.2,4.1,27.3,4.1,28.7,3.6"/>	
		</g>
        <desc>Width:32 Height:97 Depth:19 Elevation:135</desc>
	</g><g class="FixedFurniture Closet" fill="#ffffff" stroke="#000000" transform="matrix(0,1,-1,0,621.4702,273.8704)" style="fill-opacity: 1; stroke-opacity: 1;">
        <g class="BoundaryPolygon">
            <polygon points="0.00,0.00 47.34,0.00 47.34,57.89 0.00,57.89 "/>
        </g>
        <g class="Direction" fill-opacity="0.9" style="display: none;">
            <polygon points="24.86,52.77 24.86,42.16 21.85,42.16 21.85,52.77 18.05,52.77 23.35,58.08 28.65,52.77 24.86,52.77 " fill="#444444"/>
        </g> 
        <g class="Name" fill-opacity="0.9" style="display: none;">
            <text transform="translate(3 12)" font-size="12" font-family="Verdana, Sans-Serif">CL</text>
        </g>
        <desc>Width:60 Height:200 Depth:60 Elevation:0</desc>
     </g><g class="FixedFurniture CoatCloset" fill="#ffffff" stroke="#000000" transform="matrix(0,1,-1,0,621.4703,197.5778)" style="fill-opacity: 1; stroke-opacity: 1;">
        <g class="BoundaryPolygon">
            <polygon points="0.00,0.00 76.29,0.00 76.29,57.59 0.00,57.59 "/>
        </g>
        <g class="Hanger" fill="#ffffff" stroke="#9a9a9a" stroke-dasharray="5,5">
            <line x1="0" y1="28.795219923613764" x2="76.29260248274244" y2="28.795219923613764"/>
        </g>
        <g class="Direction" fill-opacity="0.9" style="display: none;">
            <polygon points="39.11,52.33 39.11,41.71 36.10,41.71 36.10,52.33 32.29,52.33 37.60,57.63 42.90,52.33 39.11,52.33 " fill="#444444"/>
        </g> 
        <g class="Name" fill-opacity="0.9" style="display: none;">
            <text transform="translate(3 12)" font-size="12" font-family="Verdana, Sans-Serif">CWH</text>
        </g>
        <desc>Width:120 Height:200 Depth:60 Elevation:0</desc>
     </g><g class="FixedFurniture ElectricalAppliance Refrigerator" fill="#ffffff" stroke="#000000" transform="matrix(-0.9156,0,0,-0.9906,369.1029,872.333)" style="fill-opacity: 1; stroke-opacity: 1;">
        <g class="BoundaryPolygon">
            <polygon points="0,0 60,0 60,60 0,60"/>
        </g>
        <g class="electricitySign" fill="none">
            <path d="M0,0,30,37.1v-18L60,56.3"/>
        </g>
        <g class="Doors">
            <rect y="56" width="60" height="4"/>
        </g>
        <g class="Direction" fill-opacity="0.9" style="display: none;">
            <polygon points="32.009 55.197 32.009 44.581 29 44.581 29 55.197 25.197 55.197 30.5 60 35.803 55.197 32.009 55.197" fill="#444444"/>
        </g> 
        <g class="Name" fill-opacity="0.9" style="display: none;">
            <text transform="translate(3 12)" font-size="12" font-family="Verdana, Sans-Serif">REF</text>
        </g>
        <desc>Width:60 Height:170 Depth:60 Elevation:0</desc>
    </g><g class="FixedFurniture Housing" fill="#ffffff" stroke="#000000" transform="matrix(-0.5871,0,0,-1,314.167,873.2111)" style="fill-opacity: 1; stroke-opacity: 1;">
        <g class="BoundaryPolygon">
            <polygon points="0,0 10,0 10,60 0,60"/>
        </g> 
        <g class="Name" fill-opacity="0.9" style="display: none;">
            <text transform="translate(3 12)" font-size="12" font-family="Verdana, Sans-Serif">EMPTY</text>
        </g>
        <desc>Width:60 Height:200 Depth:60 Elevation:0</desc>
     </g><g class="FixedFurniture BaseCabinet" fill="#ffffff" stroke="#000000" transform="matrix(-1,0,0,-1,621.5171,872.8159)" style="fill-opacity: 1; stroke-opacity: 1;">
        <g class="BoundaryPolygon">
            <polygon points="0.00,0.00 252.08,0.00 252.08,59.44 0.00,59.44 "/>
        </g>
        <g class="Direction" fill-opacity="0.9" style="display: none;">
            <polygon points="134.48,54.68 134.48,44.06 131.47,44.06 131.47,54.68 127.67,54.68 132.97,59.48 138.28,54.68 134.48,54.68 " fill="#444444"/>
        </g> 
        <g class="Name" fill-opacity="0.9" style="display: none;">
            <text transform="translate(3 12)" font-size="12" font-family="Verdana, Sans-Serif">CB</text>
        </g>
        <desc>Width:60 Height:90 Depth:60 Elevation:0</desc>
    </g><g class="FixedFurniture ElectricalAppliance IntegratedStove" fill="#ffffff" stroke="#000000" transform="matrix(-1,0,0,-1,464.1448,872.894)" style="fill-opacity: 1; stroke-opacity: 1;">
        <g class="BoundaryPolygon" fill="none" stroke="none">
            <polygon points="0.00,0.00 47.44,0.00 47.44,60.00 0.00,60.00 "/>
        </g>
        <g class="InnerPolygon">
            <polygon points="2.00,2.00 45.86,2.00 45.86,58.00 2.00,58.00 "/>
        </g>
        <g class="OuterCircle">
            <circle cx="12.651328004055918" cy="16" r="8"/>
            <circle cx="34.79115201115377" cy="16" r="8"/>
            <circle cx="12.651328004055918" cy="44" r="8"/>
            <circle cx="34.79115201115377" cy="44" r="8"/>
        </g>
        <g class="Direction" fill-opacity="0.9" style="display: none;">
            <polygon points="25.31,55.20 25.31,44.58 22.30,44.58 22.30,55.20 18.50,55.20 23.80,60.00 29.10,55.20 25.31,55.20 " fill="#444444"/>
        </g> 
        <g class="Name" fill-opacity="0.9" style="display: none;">
            <text transform="translate(3 12)" font-size="12" font-family="Verdana, Sans-Serif">INT_STOVE</text>
        </g>
        <desc>Width:60 Height:90 Depth:30 Elevation:0</desc>
    </g><g class="FixedFurniture ElectricalAppliance SpaceForAppliance2" fill="#ffffff" stroke="#000000" stroke-dasharray="4,4" transform="matrix(-1,0,0,-1,524.1449,872.894)" style="fill-opacity: 1; stroke-opacity: 1;">
	    <g class="BoundaryPolygon"> 
		    <polygon points="0,0 60,0 60,60 0,60"/>
		</g>	
	    <g class="electricitySign" fill="none">
            <path d="M0,0,30.1,39.8V19.4L59.9,60"/>
		</g>
        <g class="Direction" fill-opacity="0.9" style="display: none;">
            <polygon points="32.009 55.197 32.009 44.581 29 44.581 29 55.197 25.197 55.197 30.5 60 35.803 55.197 32.009 55.197" fill="#444444"/>
        </g> 
        <g class="Name" fill-opacity="0.9" stroke-dasharray="none" style="display: none;">
            <text transform="translate(3 12)" font-size="12" font-family="Verdana, Sans-Serif">SFA</text>
        </g>
        <desc>Width:60 Height:90 Depth:60 Elevation:0</desc>
	</g><g class="FixedFurniture Sink" fill="#ffffff" stroke="#000000" transform="matrix(-1,0,0,-1,575.7049,872.8939)" style="fill-opacity: 1; stroke-opacity: 1;">
        <g class="BoundaryPolygon" fill="none" stroke="none">
            <polygon points="0.00,0.00 51.56,0.00 51.56,60.00 0.00,60.00 "/>
        </g>
        <g class="InnerPolygon">
            <polygon points="4.30,9.70 47.27,9.70 47.27,54.70 4.30,54.70 "/>
        </g>
        <g class="OuterDrain" stroke-width="0.8">
            <circle cx="25.78145813010952" cy="32.2" r="3.5"/>
        </g>
        <g class="InnerDrain" stroke-width="0.8">
            <circle cx="25.78145813010952" cy="32.2" r="2"/>
        </g>
        <g class="Faucet">
            <polygon points="23.20,5.00 29.20,5.00 29.20,19.00 23.20,19.00 "/>
        </g>
        <g class="Direction" fill-opacity="0.9" style="display: none;">
            <polygon points="27.51,55.20 27.51,44.58 24.50,44.58 24.50,55.20 20.70,55.20 26.00,60.00 31.30,55.20 27.51,55.20 " fill="#444444"/>
        </g> 
        <g class="Name" fill-opacity="0.9" style="display: none;">
            <text transform="translate(3 12)" font-size="12" font-family="Verdana, Sans-Serif">SINK</text>
        </g>
        <desc>Width:60 Height:90 Depth:60 Elevation:0</desc>
    </g><g class="FixedFurniture WallCabinet" fill="#ffffff" stroke="#000000" transform="matrix(-1,0,0,-1,622.0828,872.3322)" style="fill-opacity: 0.7; stroke-opacity: 1;">	
        <g class="BoundaryPolygon">
            <polygon points="0.00,0.00 252.65,0.00 252.65,30.00 0.00,30.00 "/>
        </g>
        <g class="Direction" fill-opacity="0.9" style="display: none;">
            <polygon points="134.78,25.20 134.78,14.58 131.77,14.58 131.77,25.20 127.97,25.20 133.27,30.00 138.58,25.20 134.78,25.20 " fill="#444444"/>
        </g> 
        <g class="Name" fill-opacity="0.9" style="display: none;">
            <text transform="translate(3 12)" font-size="12" font-family="Verdana, Sans-Serif">UC</text>
        </g>
        <desc>Width:60 Height:60 Depth:30 Elevation:140</desc>
    </g><g id="Wall" fill="#000000" stroke="#000000" style="fill-opacity: 1; stroke-opacity: 1; stroke-width: 0.2;" class="Wall External"><polygon points="661.52,1094.61 351.94,1094.61 351.94,1067.61 621.52,1067.61 "/></g><g id="Wall" fill="#000000" stroke="#000000" style="fill-opacity: 1; stroke-opacity: 1; stroke-width: 0.2;" class="Wall"><polygon points="351.94,1094.61 141.83,1094.61 165.83,1067.61 351.94,1067.61 "/><g id="Door" fill="#ffffff" stroke="#000000" style="fill-opacity: 1; stroke-width: 1; stroke-opacity: 1;" class="Door Swing Beside"><polygon points="286.77,1094.61 205.14,1094.61 205.14,1067.61 286.77,1067.61 "/><g id="Threshold" class="Threshold"><polygon points="286.77,1094.61 205.14,1094.61 205.14,1067.61 286.77,1067.61 "/></g><g id="Panel" fill="none" style="" class="Panel Right Negative"><g id="PanelArea" fill="none" stroke="none" style="" class="PanelArea"><polygon points="286.77,1094.61 205.14,1094.61 205.14,1067.61 286.77,1067.61 "/></g><path d="M205.14,1094.61 q0.00,81.63 81.63,81.63 l0.00,-81.63Z"/></g></g></g><g fill="#0000ff" stroke="#0000ff" style="display: none;" class="SelectionControls"><g style="display: none;" class="rotateControl"><circle cx="236.609527521674" cy="803.2302264698347" r="5" style="stroke : none; fill-opacity: 0.5; cursor:crosshair"/></g><g style="display: none;" class="ResizeNControl"><circle cx="0" cy="0" r="5" style="stroke : none; fill-opacity: 0.5"/></g><g style="display: none;" class="ResizeNEControl"><circle cx="0" cy="0" r="5" style="stroke : none; fill-opacity: 0.5"/></g><g style="display: none;" class="ResizeEControl"><circle cx="0" cy="0" r="5" style="stroke : none; fill-opacity: 0.5"/></g><g style="display: none;" class="ResizeSEControl"><circle cx="0" cy="0" r="5" style="stroke : none; fill-opacity: 0.5"/></g><g style="display: none;" class="ResizeSControl"><circle cx="0" cy="0" r="5" style="stroke : none; fill-opacity: 0.5"/></g><g style="display: none;" class="ResizeSWControl"><circle cx="0" cy="0" r="5" style="stroke : none; fill-opacity: 0.5"/></g><g style="display: none;" class="ResizeWControl"><circle cx="0" cy="0" r="5" style="stroke : none; fill-opacity: 0.5"/></g><g style="display: none;" class="ResizeNWControl"><circle cx="0" cy="0" r="5" style="stroke : none; fill-opacity: 0.5"/></g><g style="display: none;" class="removeControl"><polygon style="stroke : none; fill-opacity: 0.1" points="137.16,833.23 336.05,833.23 336.05,873.87 137.16,873.87 "/></g><g style="display: none;" class="copyPasteControl"><polygon style="stroke : none; fill-opacity: 0.1"/></g><g style="display: none;" class="translateControl"><polygon style="stroke : none; fill-opacity: 0.1; cursor:move" points="137.16,833.23 336.05,833.23 336.05,873.87 137.16,873.87 "/></g></g><g fill="#0000ff" stroke="#0000ff" style="display: none;" class="SelectionControls"><polygon fill="none" stroke="#0000ff" style="" points="92.21,700.81 298.71,700.81 298.71,1067.61 92.21,1067.61 "/><g style="display: none;" class="rotateControl"><circle cx="195.46366298309977" cy="670.8113264698347" r="5" style="stroke : none; fill-opacity: 0.5; cursor:crosshair"/></g><g style="display: none;" class="ResizeNControl"><circle cx="0" cy="0" r="5" style="stroke : none; fill-opacity: 0.5"/></g><g style="display: none;" class="ResizeNEControl"><circle cx="0" cy="0" r="5" style="stroke : none; fill-opacity: 0.5"/></g><g style="display: none;" class="ResizeEControl"><circle cx="0" cy="0" r="5" style="stroke : none; fill-opacity: 0.5"/></g><g style="display: none;" class="ResizeSEControl"><circle cx="0" cy="0" r="5" style="stroke : none; fill-opacity: 0.5"/></g><g style="display: none;" class="ResizeSControl"><circle cx="0" cy="0" r="5" style="stroke : none; fill-opacity: 0.5"/></g><g style="display: none;" class="ResizeSWControl"><circle cx="0" cy="0" r="5" style="stroke : none; fill-opacity: 0.5"/></g><g style="display: none;" class="ResizeWControl"><circle cx="0" cy="0" r="5" style="stroke : none; fill-opacity: 0.5"/></g><g style="display: none;" class="ResizeNWControl"><circle cx="0" cy="0" r="5" style="stroke : none; fill-opacity: 0.5"/></g><g style="display: none;" class="removeControl"><polygon style="stroke : none; fill-opacity: 0.1"/></g><g style="display: none;" class="copyPasteControl"><polygon style="stroke : none; fill-opacity: 0.1"/></g><g style="display: none;" class="translateControl"><polygon style="stroke : none; fill-opacity: 0.1; cursor:move"/></g></g><g id="Column" fill="#000000" stroke="none" style="fill-opacity: 1;" class="Column Rectangle"><polygon points="621.02,550.87 605.08,550.87 605.08,582.65 621.02,582.65 "/></g><g id="Column" fill="#000000" stroke="none" style="fill-opacity: 1;" class="Column Rectangle"><polygon points="175.89,108.89 175.89,124.57 183.64,124.57 183.64,108.89 "/></g><g id="Column" fill="#000000" stroke="none" style="fill-opacity: 1;" class="Column Rectangle"><polygon points="175.53,545.52 175.53,587.78 188.23,587.78 188.23,545.52 "/></g><g id="Wall" fill="#000000" stroke="#000000" style="fill-opacity: 1; stroke-opacity: 1; stroke-width: 0.2;" class="Wall"><polygon points="563.34,321.21 621.52,321.21 621.52,340.58 563.34,340.58 "/></g></g></g></g></svg>
