<?xml version="1.0"?>
<svg xmlns="http://www.w3.org/2000/svg" xmlns:xlink="http://www.w3.org/1999/xlink" height="889.410041809082" version="1.1" width="830.7000122070312" id="temp" viewBox="0 0 830.7000122070312 889.410041809082"><desc>Powered by CubiCasa</desc><defs/><g id="Model" class="Model v1-1"><g class="Floor"><g id="Floor-1" class="Floorplan Floor-1"><g id="9aa1a1d4-1b00-45d1-82b0-0901fe629828" fill="#ffffff" stroke="#000000" style="fill-opacity: 1; stroke-opacity: 1; stroke-width: 0.2;" class="Space Outdoor Balcony"><polygon points="812.70,276.91 507.58,276.91 507.58,79.68 812.70,79.68 812.70,276.91 812.70,276.91 "/><g transform="matrix(1,0,0,1,507.5848,79.6761)" class="Dimension"><g transform="matrix(1,0,0,1,0,0)" style="display: none;" class="Visual"><g id="mark1" fill="#000000" stroke="none" transform="matrix(1,0,0,1,152.5593,0)" style="fill-opacity: 1; pointer-events: visible;" class="DimensionMark"><polygon points="-5,5,0,0,5,5"/></g><g id="mark2" fill="#000000" stroke="none" transform="matrix(1,0,0,1,305.1186,98.6162)" style="fill-opacity: 1; pointer-events: visible;" class="DimensionMark"><polygon points="-5,-5,0,0,-5,5"/></g><g id="mark3" fill="#000000" stroke="none" transform="matrix(1,0,0,1,152.5593,197.2324)" style="fill-opacity: 1; pointer-events: visible;" class="DimensionMark"><polygon points="-5,-5,0,0,5,-5"/></g><g id="mark4" fill="#000000" stroke="none" transform="matrix(1,0,0,1,0,98.6162)" style="fill-opacity: 1; pointer-events: visible;" class="DimensionMark"><polygon points="5,5,0,0,5,-5"/></g></g><g transform="matrix(1,0,0,1,98.6162,98.6162)" class="SpaceDimensionsLabel"><g id="NameLabel" style="display: block;" class="TextLabel NameLabel"><text x="0" y="0em" fill="#000000" stroke="none" style="font-family: Verdana; font-size: 33px; fill-opacity: 1; cursor: default;">PARVEKE</text></g><g id="DimensionMeasureLabel" transform="matrix(1,0,0,1,-21.9453,40.1093)" style="display: none;" class="TextLabel DimensionMeasureLabel"><text x="0" y="0em" fill="#000000" stroke="none" style="font-family: Verdana; font-size: 33px; fill-opacity: 1; cursor: default;">10'0" x 6'6"</text><text x="0" y="0"/></g></g></g></g><g id="a79e5a4e-f828-4b26-b069-f20c5d7ea48b" fill="#ffffff" stroke="#ffffff" style="fill-opacity: 1; stroke-opacity: 1; stroke-width: 0.2;" class="Space Kitchen"><polygon points="467.58,304.91 480.58,304.91 480.58,413.28 212.57,413.28 212.57,351.33 150.48,351.33 150.48,186.62 467.58,186.62 "/><g transform="matrix(1,0,0,1,150.4843,186.6184)" class="Dimension"><g transform="matrix(1,0,0,1,0,0)" style="display: none;" class="Visual"><g id="mark1" fill="#000000" stroke="none" transform="matrix(1,0,0,1,165.0502,0)" style="fill-opacity: 1; pointer-events: visible;" class="DimensionMark"><polygon points="-5,5,0,0,5,5"/></g><g id="mark2" fill="#000000" stroke="none" transform="matrix(1,0,0,1,330.1004,118.2901)" style="fill-opacity: 1; pointer-events: visible;" class="DimensionMark"><polygon points="-5,-5,0,0,-5,5"/></g><g id="mark3" fill="#000000" stroke="none" transform="matrix(1,0,0,1,165.0502,226.6631)" style="fill-opacity: 1; pointer-events: visible;" class="DimensionMark"><polygon points="-5,-5,0,0,5,-5"/></g><g id="mark4" fill="#000000" stroke="none" transform="matrix(1,0,0,1,0,118.2901)" style="fill-opacity: 1; pointer-events: visible;" class="DimensionMark"><polygon points="5,5,0,0,5,-5"/></g></g><g transform="matrix(1,0,0,1,173.9816,113.7742)" class="SpaceDimensionsLabel"><g id="NameLabel" style="display: block;" class="TextLabel NameLabel"><text x="0" y="0em" fill="#000000" stroke="none" style="font-family: Verdana; font-size: 33px; fill-opacity: 1; cursor: default;">K</text></g><g id="DimensionMeasureLabel" transform="matrix(1,0,0,1,-8.8281,39.8437)" style="display: none;" class="TextLabel DimensionMeasureLabel"><text x="0" y="0em" fill="#000000" stroke="none" style="font-family: Verdana; font-size: 33px; fill-opacity: 1; cursor: default;">10'10" x 7'5"</text><text x="0" y="0"/></g></g></g></g><g id="dab07a4d-6219-471e-b2cd-5ff3a2265200" fill="#ffffff" stroke="#ffffff" style="fill-opacity: 1; stroke-opacity: 1; stroke-width: 0.2;" class="Space Undefined"><polygon points="302.03,640.75 480.58,640.75 480.58,728.58 467.58,728.58 467.58,785.45 151.48,785.45 151.48,584.84 302.03,584.84 "/><g transform="matrix(1,0,0,1,151.4843,584.8407)" class="Dimension"><g transform="matrix(1,0,0,1,0,0)" style="display: none;" class="Visual"><g id="mark1" fill="#000000" stroke="none" transform="matrix(1,0,0,1,150.5421,0)" style="fill-opacity: 1; pointer-events: visible;" class="DimensionMark"><polygon points="-5,5,0,0,5,5"/></g><g id="mark2" fill="#000000" stroke="none" transform="matrix(1,0,0,1,329.1004,100.3022)" style="fill-opacity: 1; pointer-events: visible;" class="DimensionMark"><polygon points="-5,-5,0,0,-5,5"/></g><g id="mark3" fill="#000000" stroke="none" transform="matrix(1,0,0,1,150.5421,200.6044)" style="fill-opacity: 1; pointer-events: visible;" class="DimensionMark"><polygon points="-5,-5,0,0,5,-5"/></g><g id="mark4" fill="#000000" stroke="none" transform="matrix(1,0,0,1,0,100.3022)" style="fill-opacity: 1; pointer-events: visible;" class="DimensionMark"><polygon points="5,5,0,0,5,-5"/></g></g><g transform="matrix(1,0,0,1,86.1972,114.4072)" class="SpaceDimensionsLabel"><g id="NameLabel" style="display: block;" class="TextLabel NameLabel"><text x="0" y="0em" fill="#000000" stroke="none" style="font-family: Verdana; font-size: 33px; fill-opacity: 1; cursor: default;">UNDEFINED</text></g><g id="DimensionMeasureLabel" transform="matrix(1,0,0,1,-8.8281,39.8437)" style="display: none;" class="TextLabel DimensionMeasureLabel"><text x="0" y="0em" fill="#000000" stroke="none" style="font-family: Verdana; font-size: 33px; fill-opacity: 1; cursor: default;">10'10" x 6'7"</text><text x="0" y="0"/></g></g></g></g><g id="58ff8dc8-6a6c-4f1a-9799-dc22a40b4d69" fill="#ffffff" stroke="#ffffff" style="fill-opacity: 1; stroke-opacity: 1; stroke-width: 0.2;" class="Space Room"><polygon points="811.70,785.45 480.58,785.45 480.58,304.91 811.70,304.91 "/><g transform="matrix(1,0,0,1,480.5848,304.9085)" class="Dimension"><g transform="matrix(1,0,0,1,0,0)" style="display: none;" class="Visual"><g id="mark1" fill="#000000" stroke="none" transform="matrix(1,0,0,1,165.5593,0)" style="fill-opacity: 1; pointer-events: visible;" class="DimensionMark"><polygon points="-5,5,0,0,5,5"/></g><g id="mark2" fill="#000000" stroke="none" transform="matrix(1,0,0,1,331.1186,240.2683)" style="fill-opacity: 1; pointer-events: visible;" class="DimensionMark"><polygon points="-5,-5,0,0,-5,5"/></g><g id="mark3" fill="#000000" stroke="none" transform="matrix(1,0,0,1,165.5593,480.5366)" style="fill-opacity: 1; pointer-events: visible;" class="DimensionMark"><polygon points="-5,-5,0,0,5,-5"/></g><g id="mark4" fill="#000000" stroke="none" transform="matrix(1,0,0,1,0,240.2683)" style="fill-opacity: 1; pointer-events: visible;" class="DimensionMark"><polygon points="5,5,0,0,5,-5"/></g></g><g transform="matrix(1,0,0,1,165.5593,240.2683)" class="SpaceDimensionsLabel"><g id="NameLabel" style="display: block;" class="TextLabel NameLabel"><text x="0" y="0em" fill="#000000" stroke="none" style="font-family: Verdana; font-size: 33px; fill-opacity: 1; cursor: default;">AH</text></g><g id="DimensionMeasureLabel" transform="matrix(1,0,0,1,-19.3203,39.8437)" style="display: none;" class="TextLabel DimensionMeasureLabel"><text x="0" y="0em" fill="#000000" stroke="none" style="font-family: Verdana; font-size: 33px; fill-opacity: 1; cursor: default;">10'10" x 15'9"</text><text x="0" y="0"/></g></g></g></g><g id="81f9ea18-a8af-47cc-9312-36040db322c3" fill="#ffffff" stroke="#ffffff" style="fill-opacity: 1; stroke-opacity: 1; stroke-width: 0.2;" class="Space Undefined"><polygon points="467.58,629.75 313.03,629.75 313.03,421.28 467.58,421.28 "/><g transform="matrix(1,0,0,1,313.0265,421.2815)" class="Dimension"><g transform="matrix(1,0,0,1,0,0)" style="display: none;" class="Visual"><g id="mark1" fill="#000000" stroke="none" transform="matrix(1,0,0,1,77.2791,0)" style="fill-opacity: 1; pointer-events: visible;" class="DimensionMark"><polygon points="-5,5,0,0,5,5"/></g><g id="mark2" fill="#000000" stroke="none" transform="matrix(1,0,0,1,154.5583,104.235)" style="fill-opacity: 1; pointer-events: visible;" class="DimensionMark"><polygon points="-5,-5,0,0,-5,5"/></g><g id="mark3" fill="#000000" stroke="none" transform="matrix(1,0,0,1,77.2791,208.47)" style="fill-opacity: 1; pointer-events: visible;" class="DimensionMark"><polygon points="-5,-5,0,0,5,-5"/></g><g id="mark4" fill="#000000" stroke="none" transform="matrix(1,0,0,1,0,104.235)" style="fill-opacity: 1; pointer-events: visible;" class="DimensionMark"><polygon points="5,5,0,0,5,-5"/></g></g><g transform="matrix(1,0,0,1,-26.7167,156.7803)" class="SpaceDimensionsLabel"><g id="NameLabel" style="display: block;" class="TextLabel NameLabel"><text x="0" y="0em" fill="#000000" stroke="none" style="font-family: Verdana; font-size: 33px; fill-opacity: 1; cursor: default;">UNDEFINED</text></g><g id="DimensionMeasureLabel" transform="matrix(1,0,0,1,1.6562,39.9688)" style="display: none;" class="TextLabel DimensionMeasureLabel"><text x="0" y="0em" fill="#000000" stroke="none" style="font-family: Verdana; font-size: 33px; fill-opacity: 1; cursor: default;">5'1" x 6'10"</text><text x="0" y="0"/></g></g></g></g><g id="7aa56fac-0664-401d-aefc-f6f81ada96d3" fill="#ffffff" stroke="#ffffff" style="fill-opacity: 1; stroke-opacity: 1; stroke-width: 0.2;" class="Space Undefined"><polygon points="299.03,505.08 303.76,505.08 303.76,566.84 165.19,566.84 165.19,431.28 299.03,431.28 "/><g transform="matrix(1,0,0,1,165.1936,431.2815)" class="Dimension"><g transform="matrix(1,0,0,1,0,0)" style="display: none;" class="Visual"><g id="mark1" fill="#000000" stroke="none" transform="matrix(1,0,0,1,69.2818,0)" style="fill-opacity: 1; pointer-events: visible;" class="DimensionMark"><polygon points="-5,5,0,0,5,5"/></g><g id="mark2" fill="#000000" stroke="none" transform="matrix(1,0,0,1,133.8329,67.7796)" style="fill-opacity: 1; pointer-events: visible;" class="DimensionMark"><polygon points="-5,-5,0,0,-5,5"/></g><g id="mark3" fill="#000000" stroke="none" transform="matrix(1,0,0,1,69.2818,135.5592)" style="fill-opacity: 1; pointer-events: visible;" class="DimensionMark"><polygon points="-5,-5,0,0,5,-5"/></g><g id="mark4" fill="#000000" stroke="none" transform="matrix(1,0,0,1,0,67.7796)" style="fill-opacity: 1; pointer-events: visible;" class="DimensionMark"><polygon points="5,5,0,0,5,-5"/></g></g><g transform="matrix(1,0,0,1,-64.6427,84.1644)" class="SpaceDimensionsLabel"><g id="NameLabel" style="display: block;" class="TextLabel NameLabel"><text x="0" y="0em" fill="#000000" stroke="none" style="font-family: Verdana; font-size: 33px; fill-opacity: 1; cursor: default;">UNDEFINED</text></g><g id="DimensionMeasureLabel" transform="matrix(1,0,0,1,12.1484,40.125)" style="display: none;" class="TextLabel DimensionMeasureLabel"><text x="0" y="0em" fill="#000000" stroke="none" style="font-family: Verdana; font-size: 33px; fill-opacity: 1; cursor: default;">4'5" x 4'5"</text><text x="0" y="0"/></g></g></g></g><g id="Wall" fill="#000000" stroke="#000000" style="fill-opacity: 1; stroke-opacity: 1; stroke-width: 0.2;" class="Wall External"><polygon points="132.48,159.62 507.58,159.62 467.58,186.62 150.48,186.62 "/><g id="Window" fill="#f0f0ff" stroke="#000000" style="fill-opacity: 1; stroke-width: 1; stroke-opacity: 1;" class="Window Regular"><polygon points="229.73,159.62 375.00,159.62 375.00,186.62 229.73,186.62 "/><g id="Glass" class="Glass"><polygon points="229.73,159.62 375.00,159.62 375.00,186.62 229.73,186.62 "/></g><g id="Panel" class="Panel"><line x1="237.23266748688064" x2="367.5034697476971" y1="173.1183873159042" y2="173.11838731590416"/><line x1="237.23266748688064" x2="237.23266748688064" y1="159.6183873159042" y2="186.6183873159042"/><line x1="367.5034697476971" x2="367.5034697476971" y1="159.61838731590416" y2="186.61838731590416"/></g></g><g id="Window" fill="#f0f0ff" stroke="#000000" style="fill-opacity: 1; stroke-width: 1; stroke-opacity: 1;" class="Window Regular"><polygon points="375.00,159.62 405.79,159.62 405.79,186.62 375.00,186.62 "/><g id="Glass" class="Glass"><polygon points="375.00,159.62 405.79,159.62 405.79,186.62 375.00,186.62 "/></g><g id="Panel" class="Panel"><line x1="382.5034697476971" x2="398.29456370515277" y1="173.11838731590416" y2="173.11838731590416"/><line x1="382.5034697476971" x2="382.5034697476971" y1="159.61838731590416" y2="186.61838731590416"/><line x1="398.29456370515277" x2="398.29456370515277" y1="159.61838731590416" y2="186.61838731590416"/></g></g></g><g id="Wall" fill="#000000" stroke="#000000" style="fill-opacity: 1; stroke-opacity: 1; stroke-width: 0.2;" class="Wall External"><polygon points="507.58,159.62 507.58,276.91 467.58,304.91 467.58,186.62 "/></g><g id="Wall" fill="#000000" stroke="#000000" style="fill-opacity: 1; stroke-opacity: 1; stroke-width: 0.2;" class="Wall External"><polygon points="467.58,304.91 811.70,304.91 830.70,276.91 507.58,276.91 "/><g id="Door" fill="#ffffff" stroke="#000000" style="fill-opacity: 1; stroke-width: 1; stroke-opacity: 1;" class="Door Swing Beside"><polygon points="540.62,304.91 614.45,304.91 614.45,276.91 540.62,276.91 "/><g id="Threshold" class="Threshold"><polygon points="540.62,304.91 614.45,304.91 614.45,276.91 540.62,276.91 "/></g><g id="Panel" fill="none" style="" class="Panel Left Positive"><g id="PanelArea" fill="none" stroke="none" style="" class="PanelArea"><polygon points="540.62,304.91 614.45,304.91 614.45,276.91 540.62,276.91 "/></g><path d="M614.45,276.91 q0.00,-73.82 -73.82,-73.82 l0.00,73.82Z"/></g></g><g id="Window" fill="#f0f0ff" stroke="#000000" style="fill-opacity: 1; stroke-width: 1; stroke-opacity: 1;" class="Window Regular"><polygon points="622.44,304.91 765.07,304.91 765.07,276.91 622.44,276.91 "/><g id="Glass" class="Glass"><polygon points="622.44,304.91 765.07,304.91 765.07,276.91 622.44,276.91 "/></g><g id="Panel" class="Panel"><line x1="629.9416777842547" x2="757.5703563189429" y1="290.9084696371502" y2="290.9084696371501"/><line x1="629.9416777842547" x2="629.9416777842547" y1="304.9084696371502" y2="276.9084696371502"/><line x1="757.5703563189429" x2="757.5703563189429" y1="304.9084696371501" y2="276.9084696371501"/></g></g></g><g id="Wall" fill="#000000" stroke="#000000" style="fill-opacity: 1; stroke-opacity: 1; stroke-width: 0.2;" class="Wall External"><polygon points="830.70,276.91 830.70,804.45 811.70,785.45 811.70,304.91 "/></g><g id="Wall" fill="#000000" stroke="#000000" style="fill-opacity: 1; stroke-opacity: 1; stroke-width: 0.2;" class="Wall External"><polygon points="811.70,785.45 151.48,785.45 132.48,804.45 830.70,804.45 "/><g id="Door" fill="#ffffff" stroke="#000000" style="fill-opacity: 1; stroke-width: 1; stroke-opacity: 1;" class="Door Swing Opposite"><polygon points="301.95,785.45 216.99,785.45 216.99,804.45 301.95,804.45 "/><g id="Threshold" class="Threshold"><polygon points="301.95,785.45 216.99,785.45 216.99,804.45 301.95,804.45 "/></g><g id="Panel" fill="none" style="" class="Panel Left Negative"><g id="PanelArea" fill="none" stroke="none" style="" class="PanelArea"><polygon points="301.95,785.45 216.99,785.45 216.99,804.45 301.95,804.45 "/></g><path d="M301.95,785.45 q0.00,-84.96 -84.96,-84.96 l0.00,84.96Z"/></g><g id="Panel" fill="none" style="" class="Panel Left Positive"><g id="PanelArea" fill="none" stroke="none" style="" class="PanelArea"><polygon points="301.95,785.45 216.99,785.45 216.99,804.45 301.95,804.45 "/></g><path d="M216.99,804.45 q0.00,84.96 84.96,84.96 l0.00,-84.96Z"/></g></g></g><g id="Wall" fill="#000000" stroke="#000000" style="fill-opacity: 1; stroke-opacity: 1; stroke-width: 0.2;" class="Wall External"><polygon points="132.48,804.45 132.48,566.84 151.48,566.84 151.48,785.45 "/></g><g id="Wall" fill="#000000" stroke="#000000" style="fill-opacity: 1; stroke-opacity: 1; stroke-width: 0.2;" class="Wall External"><polygon points="132.48,566.84 132.48,413.28 165.19,413.28 165.19,566.84 "/></g><g id="Wall" fill="#000000" stroke="#000000" style="fill-opacity: 1; stroke-opacity: 1; stroke-width: 0.2;" class="Wall External"><polygon points="132.48,413.28 132.48,159.62 150.48,186.62 150.48,413.28 "/></g><g id="Wall" fill="#000000" stroke="#000000" style="fill-opacity: 1; stroke-opacity: 1; stroke-width: 0.2;" class="Wall"><polygon points="132.48,566.84 303.76,566.84 313.03,584.84 132.48,584.84 "/></g><g id="Wall" fill="#000000" stroke="#000000" style="fill-opacity: 1; stroke-opacity: 1; stroke-width: 0.2;" class="Wall"><polygon points="313.03,584.84 313.03,505.08 303.76,505.08 303.76,566.84 "/><g id="Door" fill="#ffffff" stroke="#000000" style="fill-opacity: 1; stroke-width: 1; stroke-opacity: 1;" class="Door Swing Beside"><polygon points="313.03,566.55 313.03,509.02 303.76,509.02 303.76,566.55 "/><g id="Threshold" class="Threshold"><polygon points="313.03,566.55 313.03,509.02 303.76,509.02 303.76,566.55 "/></g><g id="Panel" fill="none" style="" class="Panel Left Negative"><g id="PanelArea" fill="none" stroke="none" style="" class="PanelArea"><polygon points="313.03,566.55 313.03,509.02 303.76,509.02 303.76,566.55 "/></g><path d="M313.03,566.55 q57.53,0.00 57.53,-57.53 l-57.53,0.00Z"/></g></g></g><g id="Wall" fill="#000000" stroke="#000000" style="fill-opacity: 1; stroke-opacity: 1; stroke-width: 0.2;" class="Wall"><polygon points="313.03,505.08 313.03,421.28 299.03,413.28 299.03,505.08 "/></g><g id="Wall" fill="#000000" stroke="#000000" style="fill-opacity: 1; stroke-opacity: 1; stroke-width: 0.2;" class="Wall"><polygon points="313.03,584.84 313.03,629.75 302.03,640.75 302.03,584.84 "/></g><g id="Wall" fill="#000000" stroke="#000000" style="fill-opacity: 1; stroke-opacity: 1; stroke-width: 0.2;" class="Wall"><polygon points="302.03,640.75 480.58,640.75 467.58,629.75 313.03,629.75 "/><g id="Door" fill="#ffffff" stroke="#000000" style="fill-opacity: 1; stroke-width: 1; stroke-opacity: 1;" class="Door Swing Beside"><polygon points="318.79,640.75 382.51,640.75 382.51,629.75 318.79,629.75 "/><g id="Threshold" class="Threshold"><polygon points="318.79,640.75 382.51,640.75 382.51,629.75 318.79,629.75 "/></g><g id="Panel" fill="none" style="" class="Panel Right Negative"><g id="PanelArea" fill="none" stroke="none" style="" class="PanelArea"><polygon points="318.79,640.75 382.51,640.75 382.51,629.75 318.79,629.75 "/></g><path d="M382.51,640.75 q0.00,63.72 -63.72,63.72 l0.00,-63.72Z"/></g></g></g><g id="Wall" fill="#000000" stroke="#000000" style="fill-opacity: 1; stroke-opacity: 1; stroke-width: 0.2;" class="Wall"><polygon points="467.58,629.75 467.58,421.28 480.58,413.28 480.58,640.75 "/></g><g id="Wall" fill="#000000" stroke="#000000" style="fill-opacity: 1; stroke-opacity: 1; stroke-width: 0.2;" class="Wall"><polygon points="480.58,413.28 299.03,413.28 313.03,421.28 467.58,421.28 "/></g><g id="Wall" fill="#000000" stroke="#000000" style="fill-opacity: 1; stroke-opacity: 1; stroke-width: 0.2;" class="Wall"><polygon points="480.58,728.58 480.58,804.45 467.58,804.45 467.58,728.58 "/></g><g class="FixedFurniture BaseCabinet" fill="#ffffff" stroke="#000000" transform="matrix(0,-1,1,0,150.4843,351.2084)" style="fill-opacity: 1; stroke-opacity: 1; stroke-width: 1;">
        <g class="BoundaryPolygon">
            <polygon points="0.00,0.00 164.59,0.00 164.59,61.66 0.00,61.66 "/>
        </g>
        <g class="Direction" fill-opacity="0.9" style="display: none;">
            <polygon points="87.81,56.72 87.81,46.10 84.80,46.10 84.80,56.72 81.00,56.72 86.30,61.52 91.60,56.72 87.81,56.72 " fill="#444444"/>
        </g> 
        <g class="Name" fill-opacity="0.9" style="display: none;">
            <text transform="translate(3 12)" font-size="12" font-family="Verdana, Sans-Serif">CB</text>
        </g>
        <desc>Width:60 Height:90 Depth:60 Elevation:0</desc>
    </g><g id="Wall" fill="#000000" stroke="#000000" style="fill-opacity: 1; stroke-opacity: 1; stroke-width: 0.2;" class="Wall"><polygon points="299.03,413.28 212.57,413.28 212.57,431.28 299.03,431.28 "/></g><g id="Wall" fill="#000000" stroke="#000000" style="fill-opacity: 1; stroke-opacity: 1; stroke-width: 0.2;" class="Wall"><polygon points="212.57,351.33 132.48,351.33 132.48,431.28 212.57,431.28 "/></g><g class="FixedFurniture BaseCabinet" fill="#ffffff" stroke="#000000" transform="matrix(-1,0,0,-1,329.289,413.0627)" style="fill-opacity: 1; stroke-opacity: 1; stroke-width: 1;">
        <g class="BoundaryPolygon">
            <polygon points="0.00,0.00 116.72,0.00 116.72,60.00 0.00,60.00 "/>
        </g>
        <g class="Direction" fill-opacity="0.9" style="display: none;">
            <polygon points="62.27,55.20 62.27,44.58 59.26,44.58 59.26,55.20 55.45,55.20 60.76,60.00 66.06,55.20 62.27,55.20 " fill="#444444"/>
        </g> 
        <g class="Name" fill-opacity="0.9" style="display: none;">
            <text transform="translate(3 12)" font-size="12" font-family="Verdana, Sans-Serif">CB</text>
        </g>
        <desc>Width:60 Height:90 Depth:60 Elevation:0</desc>
    </g><g class="FixedFurniture ElectricalAppliance Refrigerator" fill="#ffffff" stroke="#000000" transform="matrix(-0.9971,0,0,-1,389.115,413.1721)" style="fill-opacity: 1; stroke-opacity: 1; stroke-width: 1;">
        <g class="BoundaryPolygon">
            <polygon points="0,0 60,0 60,60 0,60"/>
        </g>
        <g class="electricitySign" fill="none" style="display: block;">
            <path d="M0,0,30,37.1v-18L60,56.3"/>
        </g>
        <g class="Doors">
            <rect y="56" width="60" height="4"/>
        </g>
        <g class="Direction" fill-opacity="0.9" style="display: none;">
            <polygon points="32.009 55.197 32.009 44.581 29 44.581 29 55.197 25.197 55.197 30.5 60 35.803 55.197 32.009 55.197" fill="#444444"/>
        </g> 
        <g class="Name" fill-opacity="0.9" style="display: none;">
            <text transform="translate(3 12)" font-size="12" font-family="Verdana, Sans-Serif">REF</text>
        </g>
        <desc>Width:60 Height:170 Depth:60 Elevation:0</desc>
    </g><g class="FixedFurniture DoubleSink" fill="#ffffff" stroke="#000000" transform="matrix(-1,0,0,-1,309.4579,409.8514)" style="fill-opacity: 1; stroke-opacity: 1; stroke-width: 1;">
        <g class="BoundaryPolygon" fill="none" stroke="none">
            <polygon points="0.00,0.00 75.22,0.00 75.22,53.86 0.00,53.86 "/>
        </g>
        <g class="InnerPolygonLeft">
            <polygon points="5.37,9.90 36.00,9.90 36.00,49.28 5.37,49.28 "/>
        </g>
        <g class="InnerPolygonRight">
            <polygon points="39.22,10.00 69.85,10.00 69.85,49.37 39.22,49.37 "/>
        </g>
        <g class="OuterDrain" stroke-width="0.8">
            <circle cx="21.16859889418432" cy="29.17353302090098" r="3.5"/>
            <circle cx="53.942317994317406" cy="29.17353302090098" r="3.5"/>
        </g>
        <g class="InnerDrain" stroke-width="0.8">
            <circle cx="21.16859889418432" cy="29.17353302090098" r="2"/>
            <circle cx="53.942317994317406" cy="29.17353302090098" r="2"/>
        </g>
        <g class="Faucet">
            <polygon points="34.39,4.40 40.39,4.40 40.39,18.40 34.39,18.40 "/>
        </g>
        <g class="Direction" fill-opacity="0.9" style="display: none;">
            <polygon points="39.23,49.10 39.23,38.48 36.22,38.48 36.22,49.10 32.42,49.10 37.72,54.40 43.02,49.10 39.23,49.10 " fill="#444444"/>
        </g> 
        <g class="Name" fill-opacity="0.9" style="display: none;">
            <text transform="translate(3 12)" font-size="12" font-family="Verdana, Sans-Serif">DSINK</text>
        </g>
        <desc>Width:70 Height:90 Depth:60 Elevation:0</desc>
    </g><g class="FixedFurniture WallCabinet" fill="#ffffff" stroke="#000000" transform="matrix(-1,0,0,-1,328.7889,412.9533)" style="fill-opacity: 0.7; stroke-opacity: 1; stroke-width: 1.5;">	
        <g class="BoundaryPolygon">
            <polygon points="0.00,0.00 116.22,0.00 116.22,30.00 0.00,30.00 "/>
        </g>
        <g class="Direction" fill-opacity="0.9" style="display: none;">
            <polygon points="62.00,25.20 62.00,14.58 58.99,14.58 58.99,25.20 55.19,25.20 60.49,30.00 65.79,25.20 62.00,25.20 " fill="#444444"/>
        </g> 
        <g class="Name" fill-opacity="0.9" style="display: none;">
            <text transform="translate(3 12)" font-size="12" font-family="Verdana, Sans-Serif">UC</text>
        </g>
        <desc>Width:60 Height:60 Depth:30 Elevation:140</desc>
    </g><g class="FixedFurniture ElectricalAppliance IntegratedStove" fill="#ffffff" stroke="#000000" transform="matrix(0,-1,1,0,149.1749,352.1364)" style="fill-opacity: 1; stroke-opacity: 1; stroke-width: 1;">
        <g class="BoundaryPolygon" fill="none" stroke="none">
            <polygon points="0.00,0.00 59.52,0.00 59.52,64.82 0.00,64.82 "/>
        </g>
        <g class="InnerPolygon">
            <polygon points="2.00,2.00 57.54,2.00 57.54,62.66 2.00,62.66 "/>
        </g>
        <g class="OuterCircle">
            <circle cx="15.873078628283563" cy="17.285057994037388" r="8"/>
            <circle cx="43.65096622777979" cy="17.285057994037388" r="8"/>
            <circle cx="15.873078628283563" cy="47.53390948360282" r="8"/>
            <circle cx="43.65096622777979" cy="47.53390948360282" r="8"/>
        </g>
        <g class="Direction" fill-opacity="0.9" style="display: none;">
            <polygon points="31.76,59.63 31.76,49.01 28.75,49.01 28.75,59.63 24.94,59.63 30.25,64.43 35.55,59.63 31.76,59.63 " fill="#444444"/>
        </g> 
        <g class="Name" fill-opacity="0.9" style="display: none;">
            <text transform="translate(3 12)" font-size="12" font-family="Verdana, Sans-Serif">INT_STOVE</text>
        </g>
        <desc>Width:60 Height:90 Depth:30 Elevation:0</desc>
    </g><g class="FixedFurniture WallCabinet" fill="#ffffff" stroke="#000000" transform="matrix(0,-1,1,0,150.7031,293.8694)" style="fill-opacity: 0.7; stroke-opacity: 1; stroke-width: 1.5;">	
        <g class="BoundaryPolygon">
            <polygon points="0.00,0.00 81.06,0.00 81.06,30.00 0.00,30.00 "/>
        </g>
        <g class="Direction" fill-opacity="0.9" style="display: none;">
            <polygon points="43.24,25.20 43.24,14.58 40.23,14.58 40.23,25.20 36.43,25.20 41.73,30.00 47.04,25.20 43.24,25.20 " fill="#444444"/>
        </g> 
        <g class="Name" fill-opacity="0.9" style="display: none;">
            <text transform="translate(3 12)" font-size="12" font-family="Verdana, Sans-Serif">UC</text>
        </g>
        <desc>Width:60 Height:60 Depth:30 Elevation:140</desc>
    </g><g class="FixedFurniture ShowerScreen" fill="#ffffff" stroke="#000000" transform="matrix(1,0,0,1.9804,467.5848,236.1751)" style="fill-opacity: 1; stroke-opacity: 1; stroke-width: 1;">
        <g class="BoundaryPolygon">
            <polygon points="0,0 2.5,0 2.5,60 0,60"/>
        </g>
	    <g class="InnerPolygon" stroke-linejoin="round"> 
			<rect width="2.5" height="60"/>
	    </g> 
        <desc>Width:2.5 Height:180 Depth:60 Elevation:135</desc>
    </g><g class="FixedFurniture SaunaBenchHigh" fill="#ffffff" stroke="#000000" transform="matrix(0,-1,1,0,165.303,566.5637)" style="fill-opacity: 1; stroke-opacity: 1; stroke-width: 1;">
        <g class="BoundaryPolygon">
            <polygon points="0.00,0.00 135.28,0.00 135.28,48.34 0.00,48.34 "/> 
        </g>
        <g class="Bench" stroke="#9a9a9a" stroke-width="0.5">
            <line x1="0" y1="3.2223371693706038" x2="135.28221025087686" y2="3.2223371693706038"/>
            <line x1="0" y1="6.4446743387412075" x2="135.28221025087686" y2="6.4446743387412075"/>
            <line x1="0" y1="9.667011508111813" x2="135.28221025087686" y2="9.667011508111813"/>
            <line x1="0" y1="12.889348677482415" x2="135.28221025087686" y2="12.889348677482415"/>
            <line x1="0" y1="16.11168584685302" x2="135.28221025087686" y2="16.11168584685302"/>
            <line x1="0" y1="19.334023016223625" x2="135.28221025087686" y2="19.334023016223625"/>
            <line x1="0" y1="22.55636018559423" x2="135.28221025087686" y2="22.55636018559423"/>
            <line x1="0" y1="25.77869735496483" x2="135.28221025087686" y2="25.77869735496483"/>
            <line x1="0" y1="29.001034524335434" x2="135.28221025087686" y2="29.001034524335434"/>
            <line x1="0" y1="32.22337169370604" x2="135.28221025087686" y2="32.22337169370604"/>
            <line x1="0" y1="35.44570886307663" x2="135.28221025087686" y2="35.44570886307663"/>
            <line x1="0" y1="38.66804603244725" x2="135.28221025087686" y2="38.66804603244725"/>
            <line x1="0" y1="41.89038320181784" x2="135.28221025087686" y2="41.89038320181784"/>
            <line x1="0" y1="45.11272037118846" x2="135.28221025087686" y2="45.11272037118846"/>
        </g>
         <g class="Direction" fill-opacity="0.9" style="display: none;">
            <polygon points="69.77,44.03 69.77,33.41 66.76,33.41 66.76,44.03 62.96,44.03 68.26,49.33 73.56,44.03 69.77,44.03 " fill="#444444"/>
        </g> 
        <g class="Name" fill-opacity="0.9" style="display: none;">
            <text transform="translate(3 12)" font-size="12" font-family="Verdana, Sans-Serif">SB_HIGH</text>
        </g>
        <desc>Width:185 Height:5 Depth:60 Elevation:105</desc>
    </g><g class="FixedFurniture SaunaBenchMid" fill="#ffffff" stroke="#000000" transform="matrix(0,-1,1,0,213.638,566.8407)" style="fill-opacity: 1; stroke-opacity: 1; stroke-width: 1;">
        <g class="BoundaryPolygon">
            <polygon points="0.00,0.00 135.55,0.00 135.55,32.82 0.00,32.82 "/>
        </g>
        <g class="Bench" stroke="#9a9a9a" stroke-width="0.5">
            <line x1="0" y1="3.2822178665412225" x2="135.55141762404497" y2="3.2822178665412225"/>
            <line x1="0" y1="6.564435733082445" x2="135.55141762404497" y2="6.564435733082445"/>
            <line x1="0" y1="9.846653599623666" x2="135.55141762404497" y2="9.846653599623666"/>
            <line x1="0" y1="13.12887146616489" x2="135.55141762404497" y2="13.12887146616489"/>
            <line x1="0" y1="16.41108933270611" x2="135.55141762404497" y2="16.41108933270611"/>
            <line x1="0" y1="19.693307199247332" x2="135.55141762404497" y2="19.693307199247332"/>
            <line x1="0" y1="22.97552506578855" x2="135.55141762404497" y2="22.97552506578855"/>
            <line x1="0" y1="26.25774293232978" x2="135.55141762404497" y2="26.25774293232978"/>
            <line x1="0" y1="29.539960798871007" x2="135.55141762404497" y2="29.539960798871007"/>
        </g>
        <g class="Direction" fill-opacity="0.9" style="display: none;">
            <polygon points="68.88,28.44 68.88,17.82 65.87,17.82 65.87,28.44 62.07,28.44 67.37,33.74 72.68,28.44 68.88,28.44 " fill="#444444"/>
        </g> 
        <g class="Name" fill-opacity="0.9" style="display: none;">
            <text transform="translate(3 12)" font-size="12" font-family="Verdana, Sans-Serif">SB_MID</text>
        </g>
        <desc>Width:185 Height:5 Depth:40 Elevation:60</desc>
    </g><g class="FixedFurniture SaunaBenchLow" fill="#ffffff" stroke="#000000" transform="matrix(0,-1,1,0,246.5539,566.8407)" style="fill-opacity: 1; stroke-opacity: 1; stroke-width: 1;">
        <g class="BoundaryPolygon">
            <polygon points="0.00,0.00 58.30,0.00 58.30,27.61 0.00,27.61 "/>
        </g>
        <g class="Bench" stroke="#9a9a9a" stroke-width="0.5">
            <line x1="0" y1="2.7614456337092967" x2="58.30479482010185" y2="2.7614456337092967"/>
            <line x1="0" y1="5.5228912674185935" x2="58.30479482010185" y2="5.5228912674185935"/>
            <line x1="0" y1="8.28433690112789" x2="58.30479482010185" y2="8.28433690112789"/>
            <line x1="0" y1="11.045782534837187" x2="58.30479482010185" y2="11.045782534837187"/>
            <line x1="0" y1="13.80722816854648" x2="58.30479482010185" y2="13.80722816854648"/>
            <line x1="0" y1="16.56867380225578" x2="58.30479482010185" y2="16.56867380225578"/>
            <line x1="0" y1="19.33011943596507" x2="58.30479482010185" y2="19.33011943596507"/>
            <line x1="0" y1="22.091565069674374" x2="58.30479482010185" y2="22.091565069674374"/>
            <line x1="0" y1="24.853010703383664" x2="58.30479482010185" y2="24.853010703383664"/>
        </g>
        <g class="Direction" fill-opacity="0.9" style="display: none;">
            <polygon points="30.15,23.93 30.15,13.31 27.14,13.31 27.14,23.93 23.34,23.93 28.64,29.23 33.95,23.93 30.15,23.93 " fill="#444444"/>
        </g> 
        <g class="Name" fill-opacity="0.9" style="display: none;">
            <text transform="translate(3 12)" font-size="12" font-family="Verdana, Sans-Serif">SB_LOW</text>
        </g>
        <desc>Width:91 Height:5 Depth:40 Elevation:30</desc>
    </g><g class="FixedFurniture ElectricalAppliance SaunaStove" fill="#ffffff" stroke="#000000" transform="matrix(0,0.7721,-0.8474,0,292.8448,440.2607)" style="fill-opacity: 1; stroke-opacity: 1; stroke-width: 1;"> 
	   <g class="BoundaryPolygon"> 
		    <polygon points="0,0 60,0 60,35 0,35"/>
		</g>
	    <g class="electricitySign" fill="none">
		    <polyline points="0 35 39.7 17.5 21.4 17.5 60 0"/>
		</g>
        <g class="Direction" fill-opacity="0.9" style="display: none;">
            <polygon points="31.509 29.697 31.509 19.081 28.5 19.081 28.5 29.697 24.697 29.697 30 35 35.303 29.697 31.509 29.697" fill="#444444"/>
        </g> 
        <g class="Name" fill-opacity="0.9" style="display: none;">
            <text transform="translate(3 12)" font-size="12" font-family="Verdana, Sans-Serif">SS</text>
        </g>
        <desc>Width:60 Height:60 Depth:35 Elevation:20</desc>
	</g><g class="FixedFurniture CoatCloset" fill="#ffffff" stroke="#000000" transform="matrix(0,-1,1,0,151.6406,640.1004)" style="fill-opacity: 1; stroke-opacity: 1; stroke-width: 1;">
        <g class="BoundaryPolygon">
            <polygon points="0.00,0.00 55.26,0.00 55.26,56.36 0.00,56.36 "/>
        </g>
        <g class="Hanger" fill="#ffffff" stroke="#9a9a9a" stroke-dasharray="5,5">
            <line x1="0" y1="28.178581235181245" x2="55.25515423826457" y2="28.178581235181245"/>
        </g>
        <g class="Direction" fill-opacity="0.9" style="display: none;">
            <polygon points="28.32,51.21 28.32,40.59 25.31,40.59 25.31,51.21 21.51,51.21 26.81,56.51 32.12,51.21 28.32,51.21 " fill="#444444"/>
        </g> 
        <g class="Name" fill-opacity="0.9" style="display: none;">
            <text transform="translate(3 12)" font-size="12" font-family="Verdana, Sans-Serif">CWH</text>
        </g>
        <desc>Width:120 Height:200 Depth:60 Elevation:0</desc>
     </g><g class="FixedFurniture Closet" fill="#ffffff" stroke="#000000" transform="matrix(1,0,0,1,255.7765,584.8407)" style="fill-opacity: 1; stroke-opacity: 1; stroke-width: 1;">
        <g class="BoundaryPolygon">
            <polygon points="0.00,0.00 46.25,0.00 46.25,55.31 0.00,55.31 "/>
        </g>
        <g class="Direction" fill-opacity="0.9" style="display: none;">
            <polygon points="24.29,50.42 24.29,39.81 21.28,39.81 21.28,50.42 17.48,50.42 22.78,55.73 28.08,50.42 24.29,50.42 " fill="#444444"/>
        </g> 
        <g class="Name" fill-opacity="0.9" style="display: none;">
            <text transform="translate(3 12)" font-size="12" font-family="Verdana, Sans-Serif">CL</text>
        </g>
        <desc>Width:60 Height:200 Depth:60 Elevation:0</desc>
     </g><g class="FixedFurniture Closet" fill="#ffffff" stroke="#000000" transform="matrix(1,0,0,1,207.9821,584.8407)" style="fill-opacity: 1; stroke-opacity: 1; stroke-width: 1;">
        <g class="BoundaryPolygon">
            <polygon points="0.00,0.00 46.95,0.00 46.95,55.31 0.00,55.31 "/>
        </g>
        <g class="Direction" fill-opacity="0.9" style="display: none;">
            <polygon points="24.66,50.42 24.66,39.81 21.65,39.81 21.65,50.42 17.85,50.42 23.15,55.73 28.45,50.42 24.66,50.42 " fill="#444444"/>
        </g> 
        <g class="Name" fill-opacity="0.9" style="display: none;">
            <text transform="translate(3 12)" font-size="12" font-family="Verdana, Sans-Serif">CL</text>
        </g>
        <desc>Width:60 Height:200 Depth:60 Elevation:0</desc>
     </g><g class="FixedFurniture CoatCloset" fill="#ffffff" stroke="#000000" transform="matrix(0,-1,1,0,151.5937,738.0507)" style="fill-opacity: 1; stroke-opacity: 1; stroke-width: 1;">
        <g class="BoundaryPolygon">
            <polygon points="0.00,0.00 97.95,0.00 97.95,56.36 0.00,56.36 "/>
        </g>
        <g class="Hanger" fill="#ffffff" stroke="#9a9a9a" stroke-dasharray="5,5">
            <line x1="0" y1="28.178581235181245" x2="97.94169045962805" y2="28.178581235181245"/>
        </g>
        <g class="Direction" fill-opacity="0.9" style="display: none;">
            <polygon points="50.20,51.21 50.20,40.59 47.19,40.59 47.19,51.21 43.39,51.21 48.69,56.51 54.00,51.21 50.20,51.21 " fill="#444444"/>
        </g> 
        <g class="Name" fill-opacity="0.9" style="display: none;">
            <text transform="translate(3 12)" font-size="12" font-family="Verdana, Sans-Serif">CWH</text>
        </g>
        <desc>Width:120 Height:200 Depth:60 Elevation:0</desc>
     </g><g class="FixedFurniture CoatCloset" fill="#ffffff" stroke="#000000" transform="matrix(0,-1,1,0,151.5937,785.4451)" style="fill-opacity: 1; stroke-opacity: 1; stroke-width: 1;">
        <g class="BoundaryPolygon">
            <polygon points="0.00,0.00 46.50,0.00 46.50,56.36 0.00,56.36 "/>
        </g>
        <g class="Hanger" fill="#ffffff" stroke="#9a9a9a" stroke-dasharray="5,5">
            <line x1="0" y1="28.178581235181245" x2="46.491517778446344" y2="28.178581235181245"/>
        </g>
        <g class="Direction" fill-opacity="0.9" style="display: none;">
            <polygon points="23.83,51.21 23.83,40.59 20.82,40.59 20.82,51.21 17.02,51.21 22.32,56.51 27.63,51.21 23.83,51.21 " fill="#444444"/>
        </g> 
        <g class="Name" fill-opacity="0.9" style="display: none;">
            <text transform="translate(3 12)" font-size="12" font-family="Verdana, Sans-Serif">CWH</text>
        </g>
        <desc>Width:120 Height:200 Depth:60 Elevation:0</desc>
     </g><g class="FixedFurniture ElectricalAppliance SpaceForAppliance" fill="#ffffff" stroke="#000000" transform="matrix(0,1,-1,0,463.1098,566.4865)" style="fill-opacity: 1; stroke-opacity: 1; stroke-width: 1;">
	    <g class="BoundaryPolygon"> 
		    <polygon points="0,0 60,0 60,60 0,60"/>
		</g>	
	    <g class="electricitySign" fill="none" stroke-dasharray="4,4" style="display: block;">
            <path d="M0,0,30.1,39.8V19.4L59.9,60"/>
		</g>
        <g class="Direction" fill-opacity="0.9" style="display: none;">
            <polygon points="32.009 55.197 32.009 44.581 29 44.581 29 55.197 25.197 55.197 30.5 60 35.803 55.197 32.009 55.197" fill="#444444"/>
        </g> 
        <g class="Name" fill-opacity="0.9" style="display: none;">
            <text transform="translate(3 12)" font-size="12" font-family="Verdana, Sans-Serif">SFA</text>
        </g>
        <desc>Width:60 Height:90 Depth:60 Elevation:0</desc>
	</g><g id="FixedFurnitureSet" transform="matrix(0,1,-1,0,467.5691,511.8965)" class="FixedFurnitureSet" fill="#ffffff" stroke="#fc0fc0" style="fill-opacity: 0.4; stroke-opacity: 0.9; stroke-width: 1.5;"><g class="FixedFurniture BaseCabinet" fill="#ffffff" stroke="#000000" transform="matrix(1,0,0,1,0,0)" style="fill-opacity: 1; stroke-opacity: 1; stroke-width: 1;">
        <g class="BoundaryPolygon">
            <polygon points="0.00,0.00 51.88,0.00 51.88,44.67 0.00,44.67 "/>
        </g>
        <g class="Direction" fill-opacity="0.9" style="display: none;">
            <polygon points="27.68,41.09 27.68,30.47 24.67,30.47 24.67,41.09 20.87,41.09 26.17,45.89 31.47,41.09 27.68,41.09 " fill="#444444"/>
        </g> 
        <g class="Name" fill-opacity="0.9" style="display: none;">
            <text transform="translate(3 12)" font-size="12" font-family="Verdana, Sans-Serif">CB</text>
        </g>
        <desc>Width:60 Height:5 Depth:60 Elevation:105</desc>
    </g><g class="FixedFurniture Sink" fill="#ffffff" stroke="#000000" transform="matrix(1,0,0,1,0,0)" style="fill-opacity: 1; stroke-opacity: 1; stroke-width: 1;">
        <g class="BoundaryPolygon" fill="none" stroke="none">
        <polygon points="0.00,0.00 51.88,0.00 51.88,44.67 0.00,44.67 "/>
        </g>
        <g class="InnerPolygon">
            <polygon points="4.32,9.70 47.56,9.70 47.56,40.72 4.32,40.72 "/>
        </g>
        <g class="OuterDrain" stroke-width="0.8">
            <circle cx="25.940048698023034" cy="23.97079777922775" r="3.5"/>
        </g>
        <g class="InnerDrain" stroke-width="0.8">
            <circle cx="25.940048698023034" cy="23.97079777922775" r="2"/>
        </g>
        <g class="Faucet">
            <polygon points="23.35,3.72 29.35,3.72 29.35,17.72 23.35,17.72 "/>
        </g>
        <g class="Direction" fill-opacity="0.9" style="display: none;">
            <polygon points="27.68,41.09 27.68,30.47 24.67,30.47 24.67,41.09 20.87,41.09 26.17,45.89 31.47,41.09 27.68,41.09 " fill="#444444"/>
        </g> 
        <g class="Name" fill-opacity="0.9" style="display: none;">
            <text transform="translate(3 12)" font-size="12" font-family="Verdana, Sans-Serif">SINK</text>
        </g>
        <desc>Width:60 Height:90 Depth:60 Elevation:0</desc>
    </g></g><g transform="matrix(1,0,0,1,467.5691,511.8965)" class="FixedFurniture Misc" fill="none" stroke="#000000" style="fill-opacity: 1; stroke-opacity: 1; stroke-width: 1.8; stroke-dasharray: 5, 5;"><desc>Width:120 Height:200 Depth:60 Elevation:0</desc><g class="BoundaryPolygon"><path d="M0.00,0.00 L-71.69,0.00 L-78.94,-2.64 L-84.42,-9.17 L-87.44,-17.49 L-87.44,-90.78 "/></g></g><g class="FixedFurniture Toilet" fill="#ffffff" stroke="#000000" transform="matrix(0.9513,0,0,0.9226,329.0977,427.2391)" style="fill-opacity: 1; stroke-opacity: 1; stroke-width: 1;">
	   <g class="BoundaryPolygon" fill="none" stroke="none"> 
            <polygon points="0,0 41,0 41,71 0,71"/>
		</g>
        <g class="InnerPolygon">
            <rect x="0.502" y="0.5" width="39.989" height="17.98"/>
            <path d="M40.491,44.237S41.619,70.5,20.907,70.5C-.523,70.5.6,44.237.6,44.237L.5,18.48H40.491Z"/>
            <rect x="17.318" y="7.975" width="6.357" height="3.03"/>
        </g>
        <desc>Width:41 Height:85 Depth:71 Elevation:0</desc>
    </g><g class="FixedFurniture Shower" fill="#ffffff" stroke="#000000" transform="matrix(1,0,0,1,409.2567,421.2815)" style="fill-opacity: 1; stroke-opacity: 1; stroke-width: 1;"> 
	    <g class="BoundaryPolygon" fill="none" stroke="none">
            <polygon points="0,0 32,0 32,19 0,19"/>
        </g>
        <g class="InnerPolygon"> 
			<rect x="3.7" y="0.5" width="11.2" height="6.1"/>
			<rect x="17.6" y="0.5" width="11.2" height="6.1"/>
			<rect x="28.7" y="0.5" width="3.4" height="6.1"/>
			<rect x="0.5" y="0.5" width="3.2" height="6.1"/>
			<path d="M14.9,8.5c0,1.5-0.4,3.3-1.6,5    c-0.4,0.6-1,1.1-1.1,1.7c-0.2,1.1,0.3,2.8,2.5,3.2c0.5,0.1,1.3,0.1,1.6,0.1h-0.1c0.3,0,1.1,0,1.6-0.1c2.2-0.4,2.7-2.1,2.5-3.2    c-0.1-0.6-0.7-1.1-1.1-1.7c-1.2-1.7-1.6-3.5-1.6-5"/>
			<path d="M12.2,15.3c0.1,0.2,1.6,1.9,4.2,1.9 c2.4-0.1,3.7-1.7,3.9-1.9"/>
			<path d="M14.9,0.5h2.7v8c-0.9,0-1.8,0-2.7,0l0,0 C14.9,5.9,14.9,3.2,14.9,0.5z"/>
		</g>
	    <g class="Indicator"> 
			<path d="M3.7,3.6C5,3.1,5.2,3,5.2,3 c0,1.1,0,0,0,1.1C5.2,4.1,5.1,4.1,3.7,3.6"/>
			<path d="M28.7,3.6 C27.4,3.1,27.2,3,27.2,3c0,1.1,0,0,0,1.1C27.2,4.1,27.3,4.1,28.7,3.6"/>	
		</g>
        <desc>Width:32 Height:97 Depth:19 Elevation:135</desc>
	</g><g class="FixedFurniture CoatRack" fill="#ffffff" stroke="#000000" transform="matrix(-1,0,0,-1,457.958,785.367)" style="fill-opacity: 1; stroke-opacity: 1; stroke-width: 1;">
	   <g class="BoundaryPolygon"> 
		    <polygon points="0.00,0.00 76.20,0.00 76.20,30.00 0.00,30.00 "/>
		</g>	
	    <g class="Bar" stroke-width="0.65"> 
		    <line x1="0" y1="4.2" x2="76.19602618076668" y2="4.2"/>
            <line x1="0" y1="7.9" x2="76.19602618076668" y2="7.9"/>
            <line x1="0" y1="11.5" x2="76.19602618076668" y2="11.5"/>
            <line x1="0" y1="15" x2="76.19602618076668" y2="15"/>
            <line x1="0" y1="18.6" x2="76.19602618076668" y2="18.6"/>
            <line x1="0" y1="22.2" x2="76.19602618076668" y2="22.2"/>
            <line x1="0" y1="25.9" x2="76.19602618076668" y2="25.9"/>
		</g>
        <g class="Direction" fill-opacity="0.9" style="display: none;">
            <polygon points="39.38,24.70 39.38,14.08 36.37,14.08 36.37,24.70 32.56,24.70 37.87,30.00 43.17,24.70 39.38,24.70 " fill="#444444"/>
        </g> 
        <g class="Name" fill-opacity="0.9" style="display: none;">
            <text transform="translate(3 12)" font-size="12" font-family="Verdana, Sans-Serif">COATRACK</text>
        </g>
        <desc>Width:90 Height:30 Depth:30 Elevation:160</desc>
	</g><g id="Wall" fill="#000000" stroke="#000000" style="fill-opacity: 1; stroke-opacity: 1; stroke-width: 0.2;" class="Wall"><polygon points="830.70,276.91 830.70,79.68 812.70,79.68 812.70,276.91 "/></g><g id="Railing" fill="#ffffff" stroke="#000000" style="fill-opacity: 1; stroke-opacity: 1; stroke-width: 0.2;" class="Railing"><polygon points="830.70,79.68 507.58,79.68 499.63,69.68 830.70,69.68 " style="stroke-dasharray: 323.119, 12.7771, 341.072;"/></g><g id="Railing" fill="#ffffff" stroke="#000000" style="fill-opacity: 1; stroke-opacity: 1; stroke-width: 0.2;" class="Railing"><polygon points="507.58,79.68 507.58,159.62 499.63,159.62 499.63,69.68 " style="stroke-dasharray: 177.838, 12.7771;"/></g><g fill="#0000ff" stroke="#0000ff" style="display: none;" class="SelectionControls"><g style="display: none;" class="rotateControl"><circle cx="385.7863444152867" cy="515.2336699415549" r="5" style="stroke : none; fill-opacity: 0.5; cursor:crosshair"/></g><g style="display: none;" class="ResizeNControl"><circle cx="0" cy="0" r="5" style="stroke : none; fill-opacity: 0.5"/></g><g style="display: none;" class="ResizeNEControl"><circle cx="0" cy="0" r="5" style="stroke : none; fill-opacity: 0.5"/></g><g style="display: none;" class="ResizeEControl"><circle cx="0" cy="0" r="5" style="stroke : none; fill-opacity: 0.5"/></g><g style="display: none;" class="ResizeSEControl"><circle cx="0" cy="0" r="5" style="stroke : none; fill-opacity: 0.5"/></g><g style="display: none;" class="ResizeSControl"><circle cx="0" cy="0" r="5" style="stroke : none; fill-opacity: 0.5"/></g><g style="display: none;" class="ResizeSWControl"><circle cx="0" cy="0" r="5" style="stroke : none; fill-opacity: 0.5"/></g><g style="display: none;" class="ResizeWControl"><circle cx="0" cy="0" r="5" style="stroke : none; fill-opacity: 0.5"/></g><g style="display: none;" class="ResizeNWControl"><circle cx="0" cy="0" r="5" style="stroke : none; fill-opacity: 0.5"/></g><g style="display: none;" class="removeControl"><polygon style="stroke : none; fill-opacity: 0.1" points="286.31,545.23 485.26,545.23 485.26,585.36 286.31,585.36 "/></g><g style="display: none;" class="copyPasteControl"><polygon style="stroke : none; fill-opacity: 0.1"/></g><g style="display: none;" class="translateControl"><polygon style="stroke : none; fill-opacity: 0.1; cursor:move" points="286.31,545.23 485.26,545.23 485.26,585.36 286.31,585.36 "/></g></g><g fill="#0000ff" stroke="#0000ff" style="display: none;" class="SelectionControls"><polygon fill="none" stroke="#0000ff" style="" points="313.03,421.28 467.58,421.28 467.58,629.75 313.03,629.75 "/><g style="display: none;" class="rotateControl"><circle cx="390.3056338317906" cy="391.2814949415549" r="5" style="stroke : none; fill-opacity: 0.5; cursor:crosshair"/></g><g style="display: none;" class="ResizeNControl"><circle cx="0" cy="0" r="5" style="stroke : none; fill-opacity: 0.5"/></g><g style="display: none;" class="ResizeNEControl"><circle cx="0" cy="0" r="5" style="stroke : none; fill-opacity: 0.5"/></g><g style="display: none;" class="ResizeEControl"><circle cx="0" cy="0" r="5" style="stroke : none; fill-opacity: 0.5"/></g><g style="display: none;" class="ResizeSEControl"><circle cx="0" cy="0" r="5" style="stroke : none; fill-opacity: 0.5"/></g><g style="display: none;" class="ResizeSControl"><circle cx="0" cy="0" r="5" style="stroke : none; fill-opacity: 0.5"/></g><g style="display: none;" class="ResizeSWControl"><circle cx="0" cy="0" r="5" style="stroke : none; fill-opacity: 0.5"/></g><g style="display: none;" class="ResizeWControl"><circle cx="0" cy="0" r="5" style="stroke : none; fill-opacity: 0.5"/></g><g style="display: none;" class="ResizeNWControl"><circle cx="0" cy="0" r="5" style="stroke : none; fill-opacity: 0.5"/></g><g style="display: none;" class="removeControl"><polygon style="stroke : none; fill-opacity: 0.1"/></g><g style="display: none;" class="copyPasteControl"><polygon style="stroke : none; fill-opacity: 0.1"/></g><g style="display: none;" class="translateControl"><polygon style="stroke : none; fill-opacity: 0.1; cursor:move"/></g></g></g></g></g></svg>
