<?xml version="1.0"?>
<svg xmlns="http://www.w3.org/2000/svg" xmlns:xlink="http://www.w3.org/1999/xlink" height="811.409969329834" version="1.1" width="869.0400199890137" id="temp" viewBox="0 0 869.0400199890137 811.409969329834"><defs/><g id="Model" class="Model v1-1"><g class="Floor"><g id="Floor-1" class="Floorplan Floor-1"><g id="828068d7-4878-4a59-9088-c3225784f28f" fill="#ffffff" stroke="#000000" style="fill-opacity: 1; stroke-opacity: 1; stroke-width: 0.2;" class="Space Outdoor"><polygon points="239.66,309.23 56.27,309.23 56.27,710.55 239.66,710.55 239.66,309.23 "/><g transform="matrix(1,0,0,1,56.2701,309.2296)" class="Dimension"><g transform="matrix(1,0,0,1,0,0)" style="display: none;" class="Visual"><g id="mark1" fill="#000000" stroke="none" transform="matrix(1,0,0,1,91.6951,0)" style="fill-opacity: 1; pointer-events: visible;" class="DimensionMark"><polygon points="-5,5,0,0,5,5"/></g><g id="mark2" fill="#000000" stroke="none" transform="matrix(1,0,0,1,183.391,200.6594)" style="fill-opacity: 1; pointer-events: visible;" class="DimensionMark"><polygon points="-5,-5,0,0,-5,5"/></g><g id="mark3" fill="#000000" stroke="none" transform="matrix(1,0,0,1,91.6951,401.3191)" style="fill-opacity: 1; pointer-events: visible;" class="DimensionMark"><polygon points="-5,-5,0,0,5,-5"/></g><g id="mark4" fill="#000000" stroke="none" transform="matrix(1,0,0,1,0,200.6594)" style="fill-opacity: 1; pointer-events: visible;" class="DimensionMark"><polygon points="5,5,0,0,5,-5"/></g></g><g transform="matrix(1,0,0,1,91.6955,200.6592)" class="SpaceDimensionsLabel"><g id="NameLabel" style="display: block;" class="TextLabel NameLabel"><text x="0" y="0em" fill="#000000" stroke="none" style="font-family: Verdana; font-size: 33px; fill-opacity: 1; cursor: default;">ULKOTILA</text></g><g id="DimensionMeasureLabel" transform="matrix(1,0,0,1,-56.7265,79.5625)" style="display: none;" class="TextLabel DimensionMeasureLabel"><text x="42.1796875" y="-1.2em" fill="#000000" stroke="none" style="font-family: Verdana; font-size: 33px; fill-opacity: 1; cursor: default;">6'0" x 13'2"</text><text x="0" y="0em" fill="#000000" stroke="none" style="font-family: Verdana; font-size: 33px; fill-opacity: 1; cursor: default;">1.83 m x 4.01 m</text></g></g></g></g><g id="de8bd909-0adc-489f-a070-147e74cbeb5c" fill="#ffffff" stroke="#ffffff" style="fill-opacity: 1; stroke-opacity: 1; stroke-width: 0.2;" class="Space Kitchen Open"><polygon points="690.53,449.43 660.40,449.43 660.40,494.55 267.66,494.55 267.66,80.13 690.53,80.13 "/><g transform="matrix(1,0,0,1,267.6622,80.1291)" class="Dimension"><g transform="matrix(1,0,0,1,0,0)" style="display: none;" class="Visual"><g id="mark1" fill="#000000" stroke="none" transform="matrix(1,0,0,1,211.433,0)" style="fill-opacity: 1; pointer-events: visible;" class="DimensionMark"><polygon points="-5,5,0,0,5,5"/></g><g id="mark2" fill="#000000" stroke="none" transform="matrix(1,0,0,1,422.8659,207.209)" style="fill-opacity: 1; pointer-events: visible;" class="DimensionMark"><polygon points="-5,-5,0,0,-5,5"/></g><g id="mark3" fill="#000000" stroke="none" transform="matrix(1,0,0,1,211.433,414.4179)" style="fill-opacity: 1; pointer-events: visible;" class="DimensionMark"><polygon points="-5,-5,0,0,5,-5"/></g><g id="mark4" fill="#000000" stroke="none" transform="matrix(1,0,0,1,0,207.209)" style="fill-opacity: 1; pointer-events: visible;" class="DimensionMark"><polygon points="5,5,0,0,5,-5"/></g></g><g transform="matrix(1,0,0,1,176.852,203.9564)" class="SpaceDimensionsLabel" style="display: block;"><g id="NameLabel" style="display: block;" class="TextLabel NameLabel"><text x="0" y="0em" fill="#000000" stroke="none" style="font-family: Verdana; font-size: 33px; fill-opacity: 1; cursor: default;">TUPAK</text></g><g id="DimensionMeasureLabel" transform="matrix(1,0,0,1,-85.3046,79.6875)" style="display: none;" class="TextLabel DimensionMeasureLabel"><text x="21.203125" y="-1.2em" fill="#000000" stroke="none" style="font-family: Verdana; font-size: 33px; fill-opacity: 1; cursor: default;">13'10" x 13'7"</text><text x="0" y="0em" fill="#000000" stroke="none" style="font-family: Verdana; font-size: 33px; fill-opacity: 1; cursor: default;">4.23 m x 4.14 m</text></g></g></g></g><g id="acec2efa-a795-4983-80c8-330c37d7d25b" fill="#ffffff" stroke="#ffffff" style="fill-opacity: 1; stroke-opacity: 1; stroke-width: 0.2;" class="Space Entry Lobby"><polygon points="850.04,710.55 699.53,710.55 699.53,449.43 690.53,449.43 690.53,321.38 850.04,321.38 "/><g transform="matrix(1,0,0,1,699.5281,321.3761)" class="Dimension"><g transform="matrix(1,0,0,1,0,0)" style="display: none;" class="Visual"><g id="mark1" fill="#000000" stroke="none" transform="matrix(1,0,0,1,70.7568,0)" style="fill-opacity: 1; pointer-events: visible;" class="DimensionMark"><polygon points="-5,5,0,0,5,5"/></g><g id="mark2" fill="#000000" stroke="none" transform="matrix(1,0,0,1,150.5137,194.5863)" style="fill-opacity: 1; pointer-events: visible;" class="DimensionMark"><polygon points="-5,-5,0,0,-5,5"/></g><g id="mark3" fill="#000000" stroke="none" transform="matrix(1,0,0,1,70.7568,389.1727)" style="fill-opacity: 1; pointer-events: visible;" class="DimensionMark"><polygon points="-5,-5,0,0,5,-5"/></g><g id="mark4" fill="#000000" stroke="none" transform="matrix(1,0,0,1,0,194.5863)" style="fill-opacity: 1; pointer-events: visible;" class="DimensionMark"><polygon points="5,5,0,0,5,-5"/></g></g><g transform="matrix(1,0,0,1,52.1024,227.5052)" class="SpaceDimensionsLabel" style="display: block;"><g id="NameLabel" style="display: block;" class="TextLabel NameLabel"><text x="0" y="0em" fill="#000000" stroke="none" style="font-family: Verdana; font-size: 33px; fill-opacity: 1; cursor: default;">ET</text></g><g id="DimensionMeasureLabel" transform="matrix(1,0,0,1,-119.2344,79.7188)" style="display: none;" class="TextLabel DimensionMeasureLabel"><text x="31.6875" y="-1.2em" fill="#000000" stroke="none" style="font-family: Verdana; font-size: 33px; fill-opacity: 1; cursor: default;">4'11" x 12'9"</text><text x="0" y="0em" fill="#000000" stroke="none" style="font-family: Verdana; font-size: 33px; fill-opacity: 1; cursor: default;">1.51 m x 3.89 m</text></g></g></g></g><g id="0c68a680-05d4-42d3-b58c-15596b728b53" fill="#ffffff" stroke="#ffffff" style="fill-opacity: 1; stroke-opacity: 1; stroke-width: 0.2;" class="Space Room"><polygon points="690.53,710.55 267.66,710.55 267.66,503.55 690.53,503.55 "/><g transform="matrix(1,0,0,1,267.6622,503.547)" class="Dimension"><g transform="matrix(1,0,0,1,0,0)" style="display: none;" class="Visual"><g id="mark1" fill="#000000" stroke="none" transform="matrix(1,0,0,1,211.433,0)" style="fill-opacity: 1; pointer-events: visible;" class="DimensionMark"><polygon points="-5,5,0,0,5,5"/></g><g id="mark2" fill="#000000" stroke="none" transform="matrix(1,0,0,1,422.866,103.5009)" style="fill-opacity: 1; pointer-events: visible;" class="DimensionMark"><polygon points="-5,-5,0,0,-5,5"/></g><g id="mark3" fill="#000000" stroke="none" transform="matrix(1,0,0,1,211.433,207.0018)" style="fill-opacity: 1; pointer-events: visible;" class="DimensionMark"><polygon points="-5,-5,0,0,5,-5"/></g><g id="mark4" fill="#000000" stroke="none" transform="matrix(1,0,0,1,0,103.5009)" style="fill-opacity: 1; pointer-events: visible;" class="DimensionMark"><polygon points="5,5,0,0,5,-5"/></g></g><g transform="matrix(1,0,0,1,189.0473,114.0206)" class="SpaceDimensionsLabel" style="display: block;"><g id="NameLabel" style="display: block;" class="TextLabel NameLabel"><text x="0" y="0em" fill="#000000" stroke="none" style="font-family: Verdana; font-size: 33px; fill-opacity: 1; cursor: default;">AH</text></g><g id="DimensionMeasureLabel" transform="matrix(1,0,0,1,-116.3281,79.8906)" style="display: none;" class="TextLabel DimensionMeasureLabel"><text x="31.6953125" y="-1.2em" fill="#000000" stroke="none" style="font-family: Verdana; font-size: 33px; fill-opacity: 1; cursor: default;">13'10" x 6'9"</text><text x="0" y="0em" fill="#000000" stroke="none" style="font-family: Verdana; font-size: 33px; fill-opacity: 1; cursor: default;">4.23 m x 2.07 m</text></g></g></g></g><g id="fcf4c4f4-7cdc-4758-984e-df580efe834e" fill="#ffffff" stroke="#ffffff" style="fill-opacity: 1; stroke-opacity: 1; stroke-width: 0.2;" class="Space Bath"><polygon points="850.04,180.46 823.45,180.46 823.45,235.79 850.04,235.79 850.04,312.38 699.53,312.38 699.53,80.13 850.04,80.13 "/><g transform="matrix(1,0,0,1,699.5281,80.1291)" class="Dimension"><g transform="matrix(1,0,0,1,0,0)" style="display: none;" class="Visual"><g id="mark1" fill="#000000" stroke="none" transform="matrix(1,0,0,1,75.2568,0)" style="fill-opacity: 1; pointer-events: visible;" class="DimensionMark"><polygon points="-5,5,0,0,5,5"/></g><g id="mark2" fill="#000000" stroke="none" transform="matrix(1,0,0,1,150.5137,100.3354)" style="fill-opacity: 1; pointer-events: visible;" class="DimensionMark"><polygon points="-5,-5,0,0,-5,5"/></g><g id="mark3" fill="#000000" stroke="none" transform="matrix(1,0,0,1,75.2568,232.247)" style="fill-opacity: 1; pointer-events: visible;" class="DimensionMark"><polygon points="-5,-5,0,0,5,-5"/></g><g id="mark4" fill="#000000" stroke="none" transform="matrix(1,0,0,1,0,100.3354)" style="fill-opacity: 1; pointer-events: visible;" class="DimensionMark"><polygon points="5,5,0,0,5,-5"/></g></g><g transform="matrix(1,0,0,1,11.4044,133.597)" class="SpaceDimensionsLabel" style="display: block;"><g id="NameLabel" style="display: block;" class="TextLabel NameLabel"><text x="0" y="0em" fill="#000000" stroke="none" style="font-family: Verdana; font-size: 33px; fill-opacity: 1; cursor: default;">KH</text></g><g id="DimensionMeasureLabel" transform="matrix(1,0,0,1,-116.1484,79.6875)" style="display: none;" class="TextLabel DimensionMeasureLabel"><text x="42.171875" y="-1.2em" fill="#000000" stroke="none" style="font-family: Verdana; font-size: 33px; fill-opacity: 1; cursor: default;">4'11" x 7'7"</text><text x="0" y="0em" fill="#000000" stroke="none" style="font-family: Verdana; font-size: 33px; fill-opacity: 1; cursor: default;">1.51 m x 2.32 m</text></g></g></g></g><g id="Wall" fill="#000000" stroke="#000000" style="fill-opacity: 1; stroke-opacity: 1; stroke-width: 0.2;" class="Wall External"><polygon points="267.66,80.13 850.04,80.13 869.04,61.13 239.66,61.13 "/></g><g id="Wall" fill="#000000" stroke="#000000" style="fill-opacity: 1; stroke-opacity: 1; stroke-width: 0.2;" class="Wall External"><polygon points="850.04,80.13 850.04,710.55 869.04,729.55 869.04,61.13 "/></g><g id="Wall" fill="#000000" stroke="#000000" style="fill-opacity: 1; stroke-opacity: 1; stroke-width: 0.2;" class="Wall External"><polygon points="850.04,710.55 267.66,710.55 239.66,729.55 869.04,729.55 "/><g id="Door" fill="#ffffff" stroke="#000000" style="fill-opacity: 1; stroke-width: 1; stroke-opacity: 1;" class="Door Swing Opposite"><polygon points="845.93,710.55 764.07,710.55 764.07,729.55 845.93,729.55 "/><g id="Threshold" class="Threshold"><polygon points="845.93,710.55 764.07,710.55 764.07,729.55 845.93,729.55 "/></g><g id="Panel" fill="none" style="" class="Panel Right Negative"><g id="PanelArea" fill="none" stroke="none" style="" class="PanelArea"><polygon points="845.93,710.55 764.07,710.55 764.07,729.55 845.93,729.55 "/></g><path d="M764.07,710.55 q0.00,-81.86 81.86,-81.86 l0.00,81.86Z"/></g><g id="Panel" fill="none" style="" class="Panel Right Positive"><g id="PanelArea" fill="none" stroke="none" style="" class="PanelArea"><polygon points="845.93,710.55 764.07,710.55 764.07,729.55 845.93,729.55 "/></g><path d="M845.93,729.55 q0.00,81.86 -81.86,81.86 l0.00,-81.86Z"/></g></g></g><g id="Wall" fill="#000000" stroke="#000000" style="fill-opacity: 1; stroke-opacity: 1; stroke-width: 0.2;" class="Wall External"><polygon points="267.66,710.55 267.66,80.13 239.66,61.13 239.66,729.55 "/><g id="Door" fill="#ffffff" stroke="#000000" style="fill-opacity: 1; stroke-width: 1; stroke-opacity: 1;" class="Door Swing Opposite"><polygon points="267.66,423.58 267.66,337.37 239.66,337.37 239.66,423.58 "/><g id="Threshold" class="Threshold"><polygon points="267.66,423.58 267.66,337.37 239.66,337.37 239.66,423.58 "/></g><g id="Panel" fill="none" style="" class="Panel Right Negative"><g id="PanelArea" fill="none" stroke="none" style="" class="PanelArea"><polygon points="267.66,423.58 267.66,337.37 239.66,337.37 239.66,423.58 "/></g><path d="M267.66,337.37 q86.21,0.00 86.21,86.21 l-86.21,0.00Z"/></g><g id="Panel" fill="none" style="" class="Panel Right Positive"><g id="PanelArea" fill="none" stroke="none" style="" class="PanelArea"><polygon points="267.66,423.58 267.66,337.37 239.66,337.37 239.66,423.58 "/></g><path d="M239.66,423.58 q-86.21,0.00 -86.21,-86.21 l86.21,0.00Z"/></g></g><g id="Window" fill="#f0f0ff" stroke="#000000" style="fill-opacity: 1; stroke-width: 1; stroke-opacity: 1;" class="Window Regular"><polygon points="267.66,665.73 267.66,521.57 239.66,521.57 239.66,665.73 "/><g id="Glass" class="Glass"><polygon points="267.66,665.73 267.66,521.57 239.66,521.57 239.66,665.73 "/></g><g id="Panel" class="Panel"><line x1="253.66216550401953" x2="253.66216550401947" y1="658.2262453290928" y2="529.0702159964301"/><line x1="267.6621655040195" x2="239.66216550401953" y1="658.2262453290928" y2="658.2262453290928"/><line x1="267.66216550401947" x2="239.66216550401947" y1="529.0702159964301" y2="529.0702159964301"/></g></g><g id="Window" fill="#f0f0ff" stroke="#000000" style="fill-opacity: 1; stroke-width: 1; stroke-opacity: 1;" class="Window Regular"><polygon points="267.66,276.80 267.66,126.58 239.66,126.58 239.66,276.80 "/><g id="Glass" class="Glass"><polygon points="267.66,276.80 267.66,126.58 239.66,126.58 239.66,276.80 "/></g><g id="Panel" class="Panel"><line x1="253.66216550401947" x2="253.6621655040194" y1="269.29898843040957" y2="134.08173775910814"/><line x1="267.66216550401947" x2="239.66216550401947" y1="269.29898843040957" y2="269.29898843040957"/><line x1="267.6621655040194" x2="239.6621655040194" y1="134.08173775910814" y2="134.08173775910814"/></g></g></g><g id="Wall" fill="#000000" stroke="#000000" style="fill-opacity: 1; stroke-opacity: 1; stroke-width: 0.2;" class="Wall"><polygon points="239.66,710.55 56.27,710.55 56.27,720.55 239.66,720.55 "/></g><g id="Railing" fill="#ffffff" stroke="#000000" style="fill-opacity: 1; stroke-opacity: 1; stroke-width: 0.2;" class="Railing"><polygon points="56.27,710.55 56.27,309.23 66.27,319.23 66.27,710.55 " style="stroke-dasharray: 401.319, 14.1421, 401.319;"/></g><g id="Railing" fill="#ffffff" stroke="#000000" style="fill-opacity: 1; stroke-opacity: 1; stroke-width: 0.2;" class="Railing"><polygon points="56.27,309.23 239.66,309.23 239.66,319.23 66.27,319.23 " style="stroke-dasharray: 366.78, 14.1421;"/></g><g id="Wall" fill="#000000" stroke="#000000" style="fill-opacity: 1; stroke-opacity: 1; stroke-width: 0.2;" class="Wall"><polygon points="267.66,503.55 690.53,503.55 699.53,494.55 267.66,494.55 "/></g><g id="Wall" fill="#000000" stroke="#000000" style="fill-opacity: 1; stroke-opacity: 1; stroke-width: 0.2;" class="Wall"><polygon points="699.53,503.55 699.53,449.43 660.40,449.43 660.40,503.55 "/></g><g id="Wall" fill="#000000" stroke="#000000" style="fill-opacity: 1; stroke-opacity: 1; stroke-width: 0.2;" class="Wall"><polygon points="699.53,494.55 699.53,710.55 690.53,710.55 690.53,503.55 "/><g id="Door" fill="#ffffff" stroke="#000000" style="fill-opacity: 1; stroke-width: 1; stroke-opacity: 1;" class="Door Swing Beside"><polygon points="699.53,509.73 699.53,587.27 690.53,587.27 690.53,509.73 "/><g id="Threshold" class="Threshold"><polygon points="699.53,509.73 699.53,587.27 690.53,587.27 690.53,509.73 "/></g><g id="Panel" fill="none" style="" class="Panel Left Positive"><g id="PanelArea" fill="none" stroke="none" style="" class="PanelArea"><polygon points="699.53,509.73 699.53,587.27 690.53,587.27 690.53,509.73 "/></g><path d="M690.53,587.27 q-77.55,0.00 -77.55,-77.55 l77.55,0.00Z"/></g></g></g><g id="Wall" fill="#000000" stroke="#000000" style="fill-opacity: 1; stroke-opacity: 1; stroke-width: 0.2;" class="Wall"><polygon points="699.53,312.38 699.53,80.13 690.53,80.13 690.53,321.38 "/></g><g id="Wall" fill="#000000" stroke="#000000" style="fill-opacity: 1; stroke-opacity: 1; stroke-width: 0.2;" class="Wall"><polygon points="690.53,321.38 850.04,321.38 850.04,312.38 699.53,312.38 "/><g id="Door" fill="#ffffff" stroke="#000000" style="fill-opacity: 1; stroke-width: 1; stroke-opacity: 1;" class="Door Swing Beside"><polygon points="700.62,321.38 770.75,321.38 770.75,312.38 700.62,312.38 "/><g id="Threshold" class="Threshold"><polygon points="700.62,321.38 770.75,321.38 770.75,312.38 700.62,312.38 "/></g><g id="Panel" fill="none" style="" class="Panel Left Negative"><g id="PanelArea" fill="none" stroke="none" style="" class="PanelArea"><polygon points="700.62,321.38 770.75,321.38 770.75,312.38 700.62,312.38 "/></g><path d="M700.62,321.38 q0.00,70.13 70.13,70.13 l0.00,-70.13Z"/></g></g></g><g id="Column" fill="#000000" stroke="none" style="fill-opacity: 1;" class="Column Rectangle"><polygon points="239.66,309.23 239.66,330.71 220.84,330.71 220.84,309.23 "/></g><g id="Column" fill="#000000" stroke="none" style="fill-opacity: 1;" transform="matrix(1,0,0,1,0,0)" class="Column Rectangle"><polygon points="75.09,309.23 75.09,330.71 56.27,330.71 56.27,309.23 "/></g><g class="FixedFurniture Closet" transform="matrix(0,1,-1,0,690.5282,656.2188)" style="fill-opacity: 1; stroke-opacity: 1;" fill="#ffffff" stroke="#000000">
        <g class="BoundaryPolygon" fill="rgb(255, 255, 255)" stroke="rgb(0, 0, 0)">
            <polygon points="0.00,0.00 54.33,0.00 54.33,60.00 0.00,60.00 "/>
        </g>
        <g class="Direction" fill-opacity="0.9" style="display: none;">
            <polygon points="28.53,54.70 28.53,44.08 25.52,44.08 25.52,54.70 21.72,54.70 27.02,60.00 32.32,54.70 28.53,54.70 " fill="#444444"/>
        </g> 
        <g class="Name" fill-opacity="0.9" style="display: none;">
            <text transform="translate(3 12)" font-size="12" font-family="Verdana, Sans-Serif">CL</text>
        </g>
        <desc>Width:60 Height:200 Depth:60 Elevation:0</desc>
     </g><g class="FixedFurniture CoatCloset" transform="matrix(0,1,-1,0,690.5281,592.2479)" style="fill-opacity: 1; stroke-opacity: 1;" fill="#ffffff" stroke="#000000">
        <g class="BoundaryPolygon" fill="rgb(255, 255, 255)" stroke="rgb(0, 0, 0)">
                <polygon points="0.00,0.00 63.97,0.00 63.97,60.00 0.00,60.00 "/>
            </g>
        <g class="Hanger" fill="rgb(255, 255, 255)" stroke="rgb(154, 154, 154)" stroke-dasharray="5,5">
            <line x1="0" y1="30" x2="63.97088151639661" y2="30"/>
            </g>
        <g class="Direction" fill-opacity="0.9" style="display: none;">
            <polygon points="33.59,54.70 33.59,44.08 30.59,44.08 30.59,54.70 26.78,54.70 32.09,60.00 37.39,54.70 33.59,54.70 " fill="#444444"/>
        </g> 
        <g class="Name" fill-opacity="0.9" style="display: none;">
            <text transform="translate(3 12)" font-size="12" font-family="Verdana, Sans-Serif">CWH</text>
        </g>
        <desc>Width:60 Height:200 Depth:60 Elevation:0</desc>
     </g><g class="FixedFurniture CoatCloset" transform="matrix(0,1,-1,0,849.6043,321.3761)" style="fill-opacity: 1; stroke-opacity: 1;" fill="#ffffff" stroke="#000000">
        <g class="BoundaryPolygon" fill="rgb(255, 255, 255)" stroke="rgb(0, 0, 0)">
                <polygon points="0.00,0.00 101.32,0.00 101.32,57.68 0.00,57.68 "/>
            </g>
        <g class="Hanger" fill="rgb(255, 255, 255)" stroke="rgb(154, 154, 154)" stroke-dasharray="5,5">
            <line x1="0" y1="28.841229638706128" x2="101.32448434381377" y2="28.841229638706128"/>
            </g>
        <g class="Direction" fill-opacity="0.9" style="display: none;">
            <polygon points="51.94,52.41 51.94,41.79 48.93,41.79 48.93,52.41 45.12,52.41 50.43,57.71 55.73,52.41 51.94,52.41 " fill="#444444"/>
        </g> 
        <g class="Name" fill-opacity="0.9" style="display: none;">
            <text transform="translate(3 12)" font-size="12" font-family="Verdana, Sans-Serif">CWH</text>
        </g>
        <desc>Width:120 Height:200 Depth:60 Elevation:0</desc>
     </g><g class="FixedFurniture CoatCloset" transform="matrix(0,1,-1,0,849.6044,422.7006)" style="fill-opacity: 1; stroke-opacity: 1;" fill="#ffffff" stroke="#000000">
        <g class="BoundaryPolygon" fill="rgb(255, 255, 255)" stroke="rgb(0, 0, 0)">
                <polygon points="0.00,0.00 81.09,0.00 81.09,36.07 0.00,36.07 "/>
            </g>
        <g class="Hanger" fill="rgb(255, 255, 255)" stroke="rgb(154, 154, 154)" stroke-dasharray="5,5">
            <line x1="0" y1="18.034304981602947" x2="81.09267600280903" y2="18.034304981602947"/>
            </g>
        <g class="Direction" fill-opacity="0.9" style="display: none;">
            <polygon points="41.57,32.77 41.57,22.15 38.56,22.15 38.56,32.77 34.75,32.77 40.06,38.07 45.36,32.77 41.57,32.77 " fill="#444444"/>
        </g> 
        <g class="Name" fill-opacity="0.9" style="display: none;">
            <text transform="translate(3 12)" font-size="12" font-family="Verdana, Sans-Serif">CWH</text>
        </g>
        <desc>Width:120 Height:200 Depth:60 Elevation:0</desc>
     </g><g id="Wall" fill="#000000" stroke="#000000" style="fill-opacity: 1; stroke-opacity: 1; stroke-width: 0.2;" class="Wall"><polygon points="823.45,180.46 823.45,235.79 850.50,235.79 850.50,180.46 "/></g><g class="FixedFurniture Toilet" transform="matrix(0,1,-1,0,850.5418,251.5875)" style="fill-opacity: 1; stroke-opacity: 1;" fill="#ffffff" stroke="#000000">
	   <g class="BoundaryPolygon" fill="rgb(255, 255, 255)" stroke="rgb(0, 0, 0)"> 
		<rect x="0.502" y="0.5" width="39.989" height="17.98"/>
          <path d="M40.491,44.237S41.619,70.5,20.907,70.5C-.523,70.5.6,44.237.6,44.237L.5,18.48H40.491Z"/>
          <rect x="17.318" y="7.975" width="6.357" height="3.03"/>
		</g>
        <desc>Width:40 Height:85 Depth:70 Elevation:0</desc>
    </g><g id="FixedFurnitureSet" transform="matrix(0,1,-1,0,823.3763,180.4644)" class="FixedFurnitureSet" style="fill-opacity: 1; stroke-opacity: 1;" fill="#ffffff" stroke="#000000"><g class="FixedFurniture BaseCabinet" transform="matrix(1,0,0,1,0,0)">
            <g class="BoundaryPolygon" fill="rgb(255, 255, 255)" stroke="rgb(0, 0, 0)">
            <polygon points="0.00,0.00 55.26,0.00 55.26,47.93 0.00,47.93 "/>
            </g>
            <g class="Direction" fill-opacity="0.9" style="display: none;">
                <polygon points="29.48,44.09 29.48,33.48 26.47,33.48 26.47,44.09 22.67,44.09 27.97,48.89 33.27,44.09 29.48,44.09 " fill="#444444"/>
            </g> 
            <g class="Name" fill-opacity="0.9" style="display: none;">
                <text transform="translate(3 12)" font-size="12" font-family="Verdana, Sans-Serif">CB</text>
            </g>
            <desc>Width:185 Height:5 Depth:60 Elevation:105</desc>
        </g><g class="FixedFurniture Sink" transform="matrix(1,0,0,1,0,0)">
            <g class="InnerPolygon" fill="rgb(255, 255, 255)" stroke="rgb(0, 0, 0)">
                <polygon points="5.00,9.70 50.65,9.70 50.65,43.69 5.00,43.69 "/>
            </g>
            <g class="OuterDrain" fill="rgb(255, 255, 255)" stroke="rgb(0, 0, 0)" stroke-width="0.8">
                <circle cx="27.629824632330603" cy="25.721265870420073" r="3.5"/>
            </g>
            <g class="InnerDrain" fill="rgb(255, 255, 255)" stroke="rgb(0, 0, 0)" stroke-width="0.8">
                <circle cx="27.629824632330603" cy="25.721265870420073" r="2"/>
            </g>
            <g class="Faucet" fill="rgb(255, 255, 255)" stroke="rgb(0, 0, 0)">
                <polygon points="24.87,3.99 30.87,3.99 30.87,17.99 24.87,17.99 "/>
            </g>
           <g class="Direction" fill-opacity="0.9" style="display: none;">
                <polygon points="29.48,44.09 29.48,33.48 26.47,33.48 26.47,44.09 22.67,44.09 27.97,48.89 33.27,44.09 29.48,44.09 " fill="#444444"/>
            </g> 
            <g class="Name" fill-opacity="0.9" style="display: none;">
                <text transform="translate(3 12)" font-size="12" font-family="Verdana, Sans-Serif">SINK</text>
            </g>
            <desc>Width:60 Height:90 Depth:60 Elevation:0</desc>
        </g></g><g class="FixedFurniture Shower" transform="matrix(0,1,-1,0,850.5418,112.9412)" style="fill-opacity: 1; stroke-opacity: 1;" fill="#ffffff" stroke="#000000"> 
	   <g class="BoundaryPolygon" fill="rgb(255, 255, 255)" stroke="rgb(0, 0, 0)" stroke-linejoin="round"> 
			<rect x="3.7" y="0.5" width="11.2" height="6.1"/>
			<rect x="17.6" y="0.5" width="11.2" height="6.1"/>
			<rect x="28.7" y="0.5" width="3.4" height="6.1"/>
			<rect x="0.5" y="0.5" width="3.2" height="6.1"/>
			<path d="M14.9,8.5c0,1.5-0.4,3.3-1.6,5    c-0.4,0.6-1,1.1-1.1,1.7c-0.2,1.1,0.3,2.8,2.5,3.2c0.5,0.1,1.3,0.1,1.6,0.1h-0.1c0.3,0,1.1,0,1.6-0.1c2.2-0.4,2.7-2.1,2.5-3.2    c-0.1-0.6-0.7-1.1-1.1-1.7c-1.2-1.7-1.6-3.5-1.6-5"/>
			<path d="M12.2,15.3c0.1,0.2,1.6,1.9,4.2,1.9 c2.4-0.1,3.7-1.7,3.9-1.9"/>
			<path d="M14.9,0.5h2.7v8c-0.9,0-1.8,0-2.7,0l0,0 C14.9,5.9,14.9,3.2,14.9,0.5z"/>
		</g>
	   <g class="Indicator" fill="rgb(255, 255, 255)" stroke="rgb(0, 0, 0)" stroke-width="0.5" stroke-linejoin="round"> 
			<path d="M3.7,3.6C5,3.1,5.2,3,5.2,3 c0,1.1,0,0,0,1.1C5.2,4.1,5.1,4.1,3.7,3.6"/>
			<path d="M28.7,3.6 C27.4,3.1,27.2,3,27.2,3c0,1.1,0,0,0,1.1C27.2,4.1,27.3,4.1,28.7,3.6"/>	
		</g>
        <desc>Width:35 Height:97 Depth:20 Elevation:135</desc>
	</g><g transform="matrix(1,0,0,1,761.6798,80.1291)" class="FixedFurniture Misc" style="fill-opacity: 1; stroke-opacity: 1; stroke-width: 1.8; stroke-dasharray: 5, 5;" fill="none" stroke="#000000"><desc>Width:120 Height:200 Depth:60 Elevation:0</desc><g class="BoundaryPolygon"><path d="M0.00,0.00 L0.00,100.34 L88.86,100.34 " fill="none" stroke="#000000" style=""/></g></g><g class="FixedFurniture Closet" transform="matrix(-1,0,0,-1,367.2445,494.5469)" style="fill-opacity: 1; stroke-opacity: 1;" fill="#ffffff" stroke="#000000">
        <g class="BoundaryPolygon" fill="rgb(255, 255, 255)" stroke="rgb(0, 0, 0)">
            <polygon points="0,0 60,0 60,60 0,60"/>
        </g>
        <g class="Direction" fill-opacity="0.9" style="display: none;">
            <polygon points="31.509 54.697 31.509 44.081 28.5 44.081 28.5 54.697 24.697 54.697 30 60 35.303 54.697 31.509 54.697" fill="#444444"/>
        </g> 
        <g class="Name" fill-opacity="0.9" style="display: none;">
            <text transform="translate(3 12)" font-size="12" font-family="Verdana, Sans-Serif">CL</text>
        </g>
        <desc>Width:60 Height:200 Depth:60 Elevation:0</desc>
     </g><g class="FixedFurniture ElectricalAppliance Refrigerator" transform="matrix(-1.0799,0,0,-1,432.0385,494.547)" style="fill-opacity: 1; stroke-opacity: 1;" fill="#ffffff" stroke="#000000">
            <g class="BoundaryPolygon" fill="rgb(255, 255, 255)" stroke="rgb(0, 0, 0)">
                <polygon points="0,0 60,0 60,60 0,60"/>
            </g>
            <g class="electricitySign" fill="none" stroke="rgb(0, 0, 0)">
                    <path d="M0,0,30,37.1v-18L60,56.3"/>
            </g>
            <g class="Doors" fill="rgb(255, 255, 255)" stroke="rgb(0, 0, 0)">
                <rect y="56" width="60" height="4"/>
            </g>
             <g class="Direction" fill-opacity="0.9" style="display: none;">
                <polygon points="32.009 55.197 32.009 44.581 29 44.581 29 55.197 25.197 55.197 30.5 60 35.803 55.197 32.009 55.197" fill="#444444"/>
             </g> 
             <g class="Name" fill-opacity="0.9" style="display: none;">
                <text transform="translate(3 12)" font-size="12" font-family="Verdana, Sans-Serif">REF</text>
             </g>
            <desc>Width:60 Height:170 Depth:60 Elevation:0</desc>
        </g><g class="FixedFurniture BaseCabinet" transform="matrix(-1,0,0,-1,660.2085,494.547)" style="fill-opacity: 1; stroke-opacity: 1;" fill="#ffffff" stroke="#000000">
            <g class="BoundaryPolygon" fill="rgb(255, 255, 255)" stroke="rgb(0, 0, 0)">
                <polygon points="0.00,0.00 228.17,0.00 228.17,60.00 0.00,60.00 "/>
            </g>
            <g class="Direction" fill-opacity="0.9" style="display: none;">
                <polygon points="121.72,55.20 121.72,44.58 118.71,44.58 118.71,55.20 114.91,55.20 120.21,60.00 125.52,55.20 121.72,55.20 " fill="#444444"/>
            </g> 
            <g class="Name" fill-opacity="0.9" style="display: none;">
                <text transform="translate(3 12)" font-size="12" font-family="Verdana, Sans-Serif">CB</text>
            </g>
            <desc>Width:60 Height:90 Depth:60 Elevation:0</desc>
        </g><g class="FixedFurniture DoubleSink" transform="matrix(-1,0,0,-1,640.6368,494.5782)" style="fill-opacity: 1; stroke-opacity: 1;" fill="#ffffff" stroke="#000000">
            <g class="InnerPolygonLeft" fill="rgb(255, 255, 255)" stroke="rgb(0, 0, 0)">
                <polygon points="5.00,9.90 37.81,9.90 37.81,49.05 5.00,49.05 "/>
            </g>
            <g class="InnerPolygonRight" fill="rgb(255, 255, 255)" stroke="rgb(0, 0, 0)">
                <polygon points="41.20,10.00 73.37,10.00 73.37,49.14 41.20,49.14 "/>
            </g>
            <g class="OuterDrain" fill="rgb(255, 255, 255)" stroke="rgb(0, 0, 0)" stroke-width="0.8">
                <circle cx="22.236602708698225" cy="29.036327321981737" r="3.5"/>
                <circle cx="56.66383025262188" cy="29.036327321981737" r="3.5"/>
            </g>
            <g class="InnerDrain" fill="rgb(255, 255, 255)" stroke="rgb(0, 0, 0)" stroke-width="0.8">
                <circle cx="22.236602708698225" cy="29.036327321981737" r="2"/>
                <circle cx="56.66383025262188" cy="29.036327321981737" r="2"/>
            </g>
            <g class="Faucet" fill="rgb(255, 255, 255)" stroke="rgb(0, 0, 0)">
                <polygon points="36.12,4.38 42.12,4.38 42.12,18.38 36.12,18.38 "/>
            </g>
            <g class="Direction" fill-opacity="0.9" style="display: none;">
                <polygon points="41.21,48.87 41.21,38.25 38.20,38.25 38.20,48.87 34.40,48.87 39.70,54.17 45.00,48.87 41.21,48.87 " fill="#444444"/>
            </g> 
            <g class="Name" fill-opacity="0.9" style="display: none;">
                <text transform="translate(3 12)" font-size="12" font-family="Verdana, Sans-Serif">DSINK</text>
            </g>
         <desc>Width:70 Height:90 Depth:60 Elevation:0</desc>
        </g><g class="FixedFurniture ElectricalAppliance IntegratedStove" transform="matrix(-1,0,0,-1,543.2716,494.547)" style="fill-opacity: 1; stroke-opacity: 1;" fill="#ffffff" stroke="#000000">
            <g class="BoundaryPolygon" fill="rgb(255, 255, 255)" stroke="rgb(0, 0, 0)">
                <polygon points="2.00,2.00 53.10,2.00 53.10,58.00 2.00,58.00 "/>
            </g>
            <g class="OuterCircle" fill="rgb(255, 255, 255)" stroke="rgb(0, 0, 0)" stroke-width="0.8">
                <circle cx="14.64737731601199" cy="16" r="8"/>
                <circle cx="40.28028761903297" cy="16" r="8"/>
                <circle cx="14.64737731601199" cy="43.9" r="8"/>
                <circle cx="40.28028761903297" cy="44" r="8"/>
            </g>
             <g class="Direction" fill-opacity="0.9" style="display: none;">
                <polygon points="29.30,55.20 29.30,44.58 26.29,44.58 26.29,55.20 22.49,55.20 27.79,60.00 33.10,55.20 29.30,55.20 " fill="#444444"/>
            </g> 
            <g class="Name" fill-opacity="0.9" style="display: none;">
                <text transform="translate(3 12)" font-size="12" font-family="Verdana, Sans-Serif">INT_STOVE</text>
            </g>
            <desc>Width:60 Height:90 Depth:30 Elevation:0</desc>
        </g><g class="FixedFurniture WallCabinet" transform="matrix(-1,0,0,-1,490.0416,494.547)" style="fill-opacity: 0.7; stroke-opacity: 1;" fill="#ffffff" stroke="#000000">	
        <g class="BoundaryPolygon" fill="rgb(255, 255, 255)" stroke="rgb(0, 0, 0)">
                <polygon points="0.00,0.00 58.00,0.00 58.00,30.00 0.00,30.00 "/>
        </g>
        <g class="Direction" fill-opacity="0.9" style="display: none;">
                <polygon points="30.94,25.20 30.94,14.58 27.93,14.58 27.93,25.20 24.13,25.20 29.43,30.00 34.74,25.20 30.94,25.20 " fill="#444444"/>
        </g> 
        <g class="Name" fill-opacity="0.9" style="display: none;">
                <text transform="translate(3 12)" font-size="12" font-family="Verdana, Sans-Serif">UC</text>
        </g>
        <desc>Width:60 Height:60 Depth:50 Elevation:140</desc>
        </g><g class="FixedFurniture WallCabinet" transform="matrix(-1,0,0,-1,660.5607,494.547)" style="fill-opacity: 0.7; stroke-opacity: 1;" fill="#ffffff" stroke="#000000">	
        <g class="BoundaryPolygon" fill="rgb(255, 255, 255)" stroke="rgb(0, 0, 0)">
                <polygon points="0.00,0.00 119.12,0.00 119.12,30.00 0.00,30.00 "/>
        </g>
        <g class="Direction" fill-opacity="0.9" style="display: none;">
                <polygon points="63.54,25.20 63.54,14.58 60.53,14.58 60.53,25.20 56.73,25.20 62.03,30.00 67.34,25.20 63.54,25.20 " fill="#444444"/>
        </g> 
        <g class="Name" fill-opacity="0.9" style="display: none;">
                <text transform="translate(3 12)" font-size="12" font-family="Verdana, Sans-Serif">UC</text>
        </g>
        <desc>Width:60 Height:60 Depth:50 Elevation:140</desc>
        </g><g fill="#0000ff" stroke="#0000ff" style="display: none;" class="SelectionControls"><g style="display: none;" class="rotateControl"><circle cx="734.7528548323158" cy="150.1479560899395" r="5" style="stroke : none; fill-opacity: 0.5; cursor:crosshair"/></g><g style="display: none;" class="ResizeNControl"><circle cx="0" cy="0" r="5" style="stroke : none; fill-opacity: 0.5"/></g><g style="display: none;" class="ResizeNEControl"><circle cx="0" cy="0" r="5" style="stroke : none; fill-opacity: 0.5"/></g><g style="display: none;" class="ResizeEControl"><circle cx="0" cy="0" r="5" style="stroke : none; fill-opacity: 0.5"/></g><g style="display: none;" class="ResizeSEControl"><circle cx="0" cy="0" r="5" style="stroke : none; fill-opacity: 0.5"/></g><g style="display: none;" class="ResizeSControl"><circle cx="0" cy="0" r="5" style="stroke : none; fill-opacity: 0.5"/></g><g style="display: none;" class="ResizeSWControl"><circle cx="0" cy="0" r="5" style="stroke : none; fill-opacity: 0.5"/></g><g style="display: none;" class="ResizeWControl"><circle cx="0" cy="0" r="5" style="stroke : none; fill-opacity: 0.5"/></g><g style="display: none;" class="ResizeNWControl"><circle cx="0" cy="0" r="5" style="stroke : none; fill-opacity: 0.5"/></g><g style="display: none;" class="removeControl"><polygon style="stroke : none; fill-opacity: 0.1" points="710.93,180.15 758.57,180.15 758.57,220.24 710.93,220.24 "/></g><g style="display: none;" class="copyPasteControl"><polygon style="stroke : none; fill-opacity: 0.1"/></g><g style="display: none;" class="translateControl"><polygon style="stroke : none; fill-opacity: 0.1; cursor:move" points="710.93,180.15 758.57,180.15 758.57,220.24 710.93,220.24 "/></g></g><g fill="#0000ff" stroke="#0000ff" style="display: none;" class="SelectionControls"><polygon fill="none" stroke="#0000ff" style="" points="699.53,80.13 850.04,80.13 850.04,312.38 699.53,312.38 "/><g style="display: none;" class="rotateControl"><circle cx="774.7849935286049" cy="50.12908108993949" r="5" style="stroke : none; fill-opacity: 0.5; cursor:crosshair"/></g><g style="display: none;" class="ResizeNControl"><circle cx="0" cy="0" r="5" style="stroke : none; fill-opacity: 0.5"/></g><g style="display: none;" class="ResizeNEControl"><circle cx="0" cy="0" r="5" style="stroke : none; fill-opacity: 0.5"/></g><g style="display: none;" class="ResizeEControl"><circle cx="0" cy="0" r="5" style="stroke : none; fill-opacity: 0.5"/></g><g style="display: none;" class="ResizeSEControl"><circle cx="0" cy="0" r="5" style="stroke : none; fill-opacity: 0.5"/></g><g style="display: none;" class="ResizeSControl"><circle cx="0" cy="0" r="5" style="stroke : none; fill-opacity: 0.5"/></g><g style="display: none;" class="ResizeSWControl"><circle cx="0" cy="0" r="5" style="stroke : none; fill-opacity: 0.5"/></g><g style="display: none;" class="ResizeWControl"><circle cx="0" cy="0" r="5" style="stroke : none; fill-opacity: 0.5"/></g><g style="display: none;" class="ResizeNWControl"><circle cx="0" cy="0" r="5" style="stroke : none; fill-opacity: 0.5"/></g><g style="display: none;" class="removeControl"><polygon style="stroke : none; fill-opacity: 0.1"/></g><g style="display: none;" class="copyPasteControl"><polygon style="stroke : none; fill-opacity: 0.1"/></g><g style="display: none;" class="translateControl"><polygon style="stroke : none; fill-opacity: 0.1; cursor:move"/></g></g></g></g></g></svg>
