<?xml version="1.0"?>
<svg xmlns="http://www.w3.org/2000/svg" xmlns:xlink="http://www.w3.org/1999/xlink" height="630.8100204467773" version="1.1" width="865.9229583740234" id="temp" viewBox="0 0 865.9229583740234 630.8100204467773"><defs/><g id="Model" class="Model v1-1"><g class="Floor"><g id="Floor-1" class="Floorplan Floor-1"><g id="97c09e21-a3a7-40ad-ba30-d4cb39b4383c" fill="#ffffff" stroke="#000000" style="fill-opacity: 1; stroke-opacity: 1; stroke-width: 0.2;" class="Space Outdoor Porch"><polygon points="49.20,464.59 437.47,464.59 437.47,625.34 49.20,624.93 49.20,464.59 49.20,464.59 "/><g transform="matrix(1,0,0,1,49.1967,464.5882)" class="Dimension"><g transform="matrix(1,0,0,1,0,0)" style="display: none;" class="Visual"><g id="mark1" fill="#000000" stroke="none" transform="matrix(1,0,0,1,194.1372,0)" style="fill-opacity: 1; pointer-events: visible;" class="DimensionMark"><polygon points="-5,5,0,0,5,5"/></g><g id="mark2" fill="#000000" stroke="none" transform="matrix(1,0,0,1,388.274,80.3773)" style="fill-opacity: 1; pointer-events: visible;" class="DimensionMark"><polygon points="-5,-5,0,0,-5,5"/></g><g id="mark3" fill="#000000" stroke="none" transform="matrix(1,0,0,1,194.1372,160.5498)" style="fill-opacity: 1; pointer-events: visible;" class="DimensionMark"><polygon points="-5,-5,0,0,5,-5"/></g><g id="mark4" fill="#000000" stroke="none" transform="matrix(1,0,0,1,0,80.3773)" style="fill-opacity: 1; pointer-events: visible;" class="DimensionMark"><polygon points="5,5,0,0,5,-5"/></g></g><g transform="matrix(1,0,0,1,129.1258,92.7363)" class="SpaceDimensionsLabel"><g id="NameLabel" style="display: block;" class="TextLabel NameLabel"><text x="0" y="0em" fill="#000000" stroke="none" style="font-family: Verdana; font-size: 33px; fill-opacity: 1; cursor: default;">KUISTI</text></g><g id="DimensionMeasureLabel" transform="matrix(1,0,0,1,-81.1485,79.5937)" style="display: none;" class="TextLabel DimensionMeasureLabel"><text x="42.171875" y="-1.2em" fill="#000000" stroke="none" style="font-family: Verdana; font-size: 33px; fill-opacity: 1; cursor: default;">12'9" x 5'3"</text><text x="0" y="0em" fill="#000000" stroke="none" style="font-family: Verdana; font-size: 33px; fill-opacity: 1; cursor: default;">3.88 m x 1.61 m</text></g></g></g></g><g id="e33300de-6f5e-43de-b98d-cc7565fc692a" fill="#ffffff" stroke="#ffffff" style="fill-opacity: 1; stroke-opacity: 1; stroke-width: 0.2;" class="Space Room"><polygon points="552.40,422.20 552.50,422.20 553.50,448.61 449.41,448.61 449.41,448.59 61.94,448.59 62.03,64.04 552.40,64.04 "/><g transform="matrix(1,0,0,1,61.9829,64.0441)" class="Dimension"><g transform="matrix(1,0,0,1,0,0)" style="display: none;" class="Visual"><g id="mark1" fill="#000000" stroke="none" transform="matrix(1,0,0,1,245.7352,0)" style="fill-opacity: 1; pointer-events: visible;" class="DimensionMark"><polygon points="-5,5,0,0,5,5"/></g><g id="mark2" fill="#000000" stroke="none" transform="matrix(1,0,0,1,490.4212,192.2825)" style="fill-opacity: 1; pointer-events: visible;" class="DimensionMark"><polygon points="-5,-5,0,0,-5,5"/></g><g id="mark3" fill="#000000" stroke="none" transform="matrix(1,0,0,1,245.7352,384.5441)" style="fill-opacity: 1; pointer-events: visible;" class="DimensionMark"><polygon points="-5,-5,0,0,5,-5"/></g><g id="mark4" fill="#000000" stroke="none" transform="matrix(1,0,0,1,0,192.2825)" style="fill-opacity: 1; pointer-events: visible;" class="DimensionMark"><polygon points="5,5,0,0,5,-5"/></g></g><g transform="matrix(1,0,0,1,212.3017,200.0975)" class="SpaceDimensionsLabel" style="display: block;"><g id="NameLabel" style="display: block;" class="TextLabel NameLabel"><text x="0" y="0em" fill="#000000" stroke="none" style="font-family: Verdana; font-size: 33px; fill-opacity: 1; cursor: default;">TUPA</text></g><g id="DimensionMeasureLabel" transform="matrix(1,0,0,1,-96.8125,79.4688)" style="display: none;" class="TextLabel DimensionMeasureLabel"><text x="31.6875" y="-1.2em" fill="#000000" stroke="none" style="font-family: Verdana; font-size: 33px; fill-opacity: 1; cursor: default;">16'1" x 12'7"</text><text x="0" y="0em" fill="#000000" stroke="none" style="font-family: Verdana; font-size: 33px; fill-opacity: 1; cursor: default;">4.90 m x 3.85 m</text></g></g></g></g><g id="bf24814b-79dd-4b93-a3e7-bccdba3fd8dd" fill="#ffffff" stroke="#ffffff" style="fill-opacity: 1; stroke-opacity: 1; stroke-width: 0.2;" class="Space Kitchen"><polygon points="820.18,408.40 816.49,408.40 816.49,409.22 792.43,409.22 792.43,392.38 747.66,392.38 747.66,409.22 571.94,409.22 571.91,408.85 568.40,409.00 568.40,64.04 820.18,64.04 "/><g transform="matrix(1,0,0,1,568.4041,64.0441)" class="Dimension"><g transform="matrix(1,0,0,1,0,0)" style="display: none;" class="Visual"><g id="mark1" fill="#000000" stroke="none" transform="matrix(1,0,0,1,125.8878,0)" style="fill-opacity: 1; pointer-events: visible;" class="DimensionMark"><polygon points="-5,5,0,0,5,5"/></g><g id="mark2" fill="#000000" stroke="none" transform="matrix(1,0,0,1,251.7757,172.5873)" style="fill-opacity: 1; pointer-events: visible;" class="DimensionMark"><polygon points="-5,-5,0,0,-5,5"/></g><g id="mark3" fill="#000000" stroke="none" transform="matrix(1,0,0,1,125.8878,345.1745)" style="fill-opacity: 1; pointer-events: visible;" class="DimensionMark"><polygon points="-5,-5,0,0,5,-5"/></g><g id="mark4" fill="#000000" stroke="none" transform="matrix(1,0,0,1,0,172.5873)" style="fill-opacity: 1; pointer-events: visible;" class="DimensionMark"><polygon points="5,5,0,0,5,-5"/></g></g><g transform="matrix(1,0,0,1,119.3015,181.8717)" class="SpaceDimensionsLabel" style="display: block;"><g id="NameLabel" style="display: block;" class="TextLabel NameLabel"><text x="0" y="0em" fill="#000000" stroke="none" style="font-family: Verdana; font-size: 33px; fill-opacity: 1; cursor: default;">K</text></g><g id="DimensionMeasureLabel" transform="matrix(1,0,0,1,-128.4687,79.1093)" style="display: none;" class="TextLabel DimensionMeasureLabel"><text x="42.1796875" y="-1.2em" fill="#000000" stroke="none" style="font-family: Verdana; font-size: 33px; fill-opacity: 1; cursor: default;">8'3" x 11'4"</text><text x="0" y="0em" fill="#000000" stroke="none" style="font-family: Verdana; font-size: 33px; fill-opacity: 1; cursor: default;">2.52 m x 3.45 m</text></g></g></g></g><g id="974dc43c-a75b-434f-91f8-dd6fabc93eb1" fill="#ffffff" stroke="#ffffff" style="fill-opacity: 1; stroke-opacity: 1; stroke-width: 0.2;" class="Space Undefined"><polygon points="747.66,437.53 792.43,437.53 792.43,422.20 816.49,422.20 816.49,611.68 572.14,611.68 572.14,463.11 572.94,463.11 571.94,422.20 747.66,422.20 "/><g transform="matrix(1,0,0,1,572.1369,422.2021)" class="Dimension"><g transform="matrix(1,0,0,1,0,0)" style="display: none;" class="Visual"><g id="mark1" fill="#000000" stroke="none" transform="matrix(1,0,0,1,122.0757,0)" style="fill-opacity: 1; pointer-events: visible;" class="DimensionMark"><polygon points="-5,5,0,0,5,5"/></g><g id="mark2" fill="#000000" stroke="none" transform="matrix(1,0,0,1,244.3518,94.7365)" style="fill-opacity: 1; pointer-events: visible;" class="DimensionMark"><polygon points="-5,-5,0,0,-5,5"/></g><g id="mark3" fill="#000000" stroke="none" transform="matrix(1,0,0,1,122.0757,189.4731)" style="fill-opacity: 1; pointer-events: visible;" class="DimensionMark"><polygon points="-5,-5,0,0,5,-5"/></g><g id="mark4" fill="#000000" stroke="none" transform="matrix(1,0,0,1,0,94.7365)" style="fill-opacity: 1; pointer-events: visible;" class="DimensionMark"><polygon points="5,5,0,0,5,-5"/></g></g><g transform="matrix(1,0,0,1,94.5361,94.7366)" class="SpaceDimensionsLabel"><g id="NameLabel" style="display: block;" class="TextLabel NameLabel"><text x="0" y="0em" fill="#000000" stroke="none" style="font-family: Verdana; font-size: 33px; fill-opacity: 1; cursor: default;">UNDEFINED</text></g><g id="DimensionMeasureLabel" transform="matrix(1,0,0,1,-40.5235,79.1094)" style="display: none;" class="TextLabel DimensionMeasureLabel"><text x="52.671875" y="-1.2em" fill="#000000" stroke="none" style="font-family: Verdana; font-size: 33px; fill-opacity: 1; cursor: default;">8'0" x 6'3"</text><text x="0" y="0em" fill="#000000" stroke="none" style="font-family: Verdana; font-size: 33px; fill-opacity: 1; cursor: default;">2.44 m x 1.89 m</text></g></g></g></g><g id="b43c06d2-2127-41e1-9388-67d67e6dd158" fill="#ffffff" stroke="#ffffff" style="fill-opacity: 1; stroke-opacity: 1; stroke-width: 0.2;" class="Space DressingRoom"><polygon points="552.54,611.68 552.36,611.65 449.41,611.65 449.41,464.25 552.54,464.25 "/><g transform="matrix(1,0,0,1,449.4145,464.249)" class="Dimension"><g transform="matrix(1,0,0,1,0,0)" style="display: none;" class="Visual"><g id="mark1" fill="#000000" stroke="none" transform="matrix(1,0,0,1,51.5631,0)" style="fill-opacity: 1; pointer-events: visible;" class="DimensionMark"><polygon points="-5,5,0,0,5,5"/></g><g id="mark2" fill="#000000" stroke="none" transform="matrix(1,0,0,1,103.1263,73.7131)" style="fill-opacity: 1; pointer-events: visible;" class="DimensionMark"><polygon points="-5,-5,0,0,-5,5"/></g><g id="mark3" fill="#000000" stroke="none" transform="matrix(1,0,0,1,51.5631,147.4043)" style="fill-opacity: 1; pointer-events: visible;" class="DimensionMark"><polygon points="-5,-5,0,0,5,-5"/></g><g id="mark4" fill="#000000" stroke="none" transform="matrix(1,0,0,1,0,73.7131)" style="fill-opacity: 1; pointer-events: visible;" class="DimensionMark"><polygon points="5,5,0,0,5,-5"/></g></g><g transform="matrix(1,0,0,1,15.2777,101.8606)" class="SpaceDimensionsLabel" style="display: block;"><g id="NameLabel" style="display: block;" class="TextLabel NameLabel"><text x="0" y="0em" fill="#000000" stroke="none" style="font-family: Verdana; font-size: 33px; fill-opacity: 1; cursor: default;">PKH</text></g><g id="DimensionMeasureLabel" transform="matrix(1,0,0,1,-106.2032,79.5)" style="display: none;" class="TextLabel DimensionMeasureLabel"><text x="42.171875" y="-1.2em" fill="#000000" stroke="none" style="font-family: Verdana; font-size: 33px; fill-opacity: 1; cursor: default;">3'5" x 4'10"</text><text x="0" y="0em" fill="#000000" stroke="none" style="font-family: Verdana; font-size: 33px; fill-opacity: 1; cursor: default;">1.03 m x 1.47 m</text></g></g></g></g><g id="Wall" fill="#000000" stroke="#000000" style="fill-opacity: 1; stroke-opacity: 1; stroke-width: 0.2;" class="Wall External"><polygon points="62.03,64.04 820.18,64.04 835.18,49.04 43.69,49.04 "/><g id="Window" fill="#f0f0ff" stroke="#000000" style="fill-opacity: 1; stroke-width: 1; stroke-opacity: 1;" class="Window Regular"><polygon points="661.14,64.04 725.14,64.04 725.14,49.04 661.14,49.04 "/><g id="Glass" class="Glass"><polygon points="661.14,64.04 725.14,64.04 725.14,49.04 661.14,49.04 "/></g><g id="Panel" class="Panel"><line x1="668.6373389402992" x2="717.642841765551" y1="56.544141694664376" y2="56.54414169466436"/><line x1="668.6373389402992" x2="668.6373389402992" y1="64.04414169466438" y2="49.044141694664376"/><line x1="717.642841765551" x2="717.642841765551" y1="64.04414169466436" y2="49.04414169466436"/></g></g></g><g id="Wall" fill="#000000" stroke="#000000" style="fill-opacity: 1; stroke-opacity: 1; stroke-width: 0.2;" class="Wall External"><polygon points="820.18,64.04 820.18,408.40 835.18,408.40 835.18,49.04 "/></g><g id="Wall" fill="#000000" stroke="#000000" style="fill-opacity: 1; stroke-opacity: 1; stroke-width: 0.2;" class="Wall External"><polygon points="816.49,408.40 816.49,611.68 835.18,630.81 835.18,408.40 "/></g><g id="Wall" fill="#000000" stroke="#000000" style="fill-opacity: 1; stroke-opacity: 1; stroke-width: 0.2;" class="Wall External"><polygon points="816.49,611.68 552.36,611.68 552.36,630.81 835.18,630.81 "/></g><g id="Wall" fill="#000000" stroke="#000000" style="fill-opacity: 1; stroke-opacity: 1; stroke-width: 0.2;" class="Wall External"><polygon points="552.36,611.65 449.41,611.65 436.41,630.77 552.36,630.77 "/></g><g id="Wall" fill="#000000" stroke="#000000" style="fill-opacity: 1; stroke-opacity: 1; stroke-width: 0.2;" class="Wall External"><polygon points="449.41,611.65 449.41,448.59 436.41,464.59 436.41,630.77 "/><g id="Door" fill="#ffffff" stroke="#000000" style="fill-opacity: 1; stroke-width: 1; stroke-opacity: 1;" class="Door Swing Beside"><polygon points="449.41,533.20 449.41,467.13 436.41,467.13 436.41,533.20 "/><g id="Threshold" class="Threshold"><polygon points="449.41,533.20 449.41,467.13 436.41,467.13 436.41,533.20 "/></g><g id="Panel" fill="none" style="" class="Panel Left Positive"><g id="PanelArea" fill="none" stroke="none" style="" class="PanelArea"><polygon points="449.41,533.20 449.41,467.13 436.41,467.13 436.41,533.20 "/></g><path d="M436.41,467.13 q-66.07,0.00 -66.07,66.07 l66.07,0.00Z"/></g></g></g><g id="Wall" fill="#000000" stroke="#000000" style="fill-opacity: 1; stroke-opacity: 1; stroke-width: 0.2;" class="Wall External"><polygon points="449.41,448.59 61.94,448.59 43.58,464.59 436.41,464.59 "/><g id="Window" fill="#f0f0ff" stroke="#000000" style="fill-opacity: 1; stroke-width: 1; stroke-opacity: 1;" class="Window Regular"><polygon points="196.34,448.59 141.09,448.59 141.09,464.59 196.34,464.59 "/><g id="Glass" class="Glass"><polygon points="196.34,448.59 141.09,448.59 141.09,464.59 196.34,464.59 "/></g><g id="Panel" class="Panel"><line x1="188.8360636446718" x2="148.59080256100214" y1="456.5882311464556" y2="456.5882311464556"/><line x1="188.8360636446718" x2="188.8360636446718" y1="448.5882311464556" y2="464.5882311464556"/><line x1="148.59080256100214" x2="148.59080256100214" y1="448.5882311464556" y2="464.5882311464556"/></g></g><g id="Window" fill="#f0f0ff" stroke="#000000" style="fill-opacity: 1; stroke-width: 1; stroke-opacity: 1;" class="Window Regular"><polygon points="258.26,448.59 195.73,448.59 195.73,464.59 258.26,464.59 "/><g id="Glass" class="Glass"><polygon points="258.26,448.59 195.73,448.59 195.73,464.59 258.26,464.59 "/></g><g id="Panel" class="Panel"><line x1="250.75932332087297" x2="203.2289728635326" y1="456.5882311464556" y2="456.5882311464556"/><line x1="250.75932332087297" x2="250.75932332087297" y1="448.5882311464556" y2="464.5882311464556"/><line x1="203.2289728635326" x2="203.2289728635326" y1="448.5882311464556" y2="464.5882311464556"/></g></g><g id="Door" fill="#ffffff" stroke="#000000" style="fill-opacity: 1; stroke-width: 1; stroke-opacity: 1;" class="Door Swing Beside"><polygon points="415.44,448.59 325.28,448.59 325.28,464.59 415.44,464.59 "/><g id="Threshold" class="Threshold"><polygon points="415.44,448.59 325.28,448.59 325.28,464.59 415.44,464.59 "/></g><g id="Panel" fill="none" style="" class="Panel Right Positive"><g id="PanelArea" fill="none" stroke="none" style="" class="PanelArea"><polygon points="415.44,448.59 325.28,448.59 325.28,464.59 415.44,464.59 "/></g><path d="M415.44,464.59 q0.00,90.16 -90.16,90.16 l0.00,-90.16Z"/></g></g></g><g id="Wall" fill="#000000" stroke="#000000" style="fill-opacity: 1; stroke-opacity: 1; stroke-width: 0.2;" class="Wall External"><polygon points="61.94,448.59 62.03,64.04 43.69,49.04 43.58,464.59 "/><g id="Window" fill="#f0f0ff" stroke="#000000" style="fill-opacity: 1; stroke-width: 1; stroke-opacity: 1;" class="Window Regular"><polygon points="61.98,256.88 62.00,197.20 43.65,197.19 43.63,256.88 "/><g id="Glass" class="Glass"><polygon points="61.98,256.88 62.00,197.20 43.65,197.19 43.63,256.88 "/></g><g id="Panel" class="Panel"><line x1="52.81058714634808" x2="52.82156941752178" y1="249.38253990753546" y2="204.69357183774773"/><line x1="61.9845946819723" x2="43.63657961072386" y1="249.38479441111562" y2="249.38028540395536"/><line x1="61.995576953146" x2="43.64756188189756" y1="204.69582634132786" y2="204.6913173341676"/></g></g><g id="Window" fill="#f0f0ff" stroke="#000000" style="fill-opacity: 1; stroke-width: 1; stroke-opacity: 1;" class="Window Regular"><polygon points="61.97,314.96 61.98,256.89 43.63,256.88 43.62,314.96 "/><g id="Glass" class="Glass"><polygon points="61.97,314.96 61.98,256.89 43.63,256.88 43.62,314.96 "/></g><g id="Panel" class="Panel"><line x1="52.79631492987352" x2="52.80690042367038" y1="307.45892649718706" y2="264.38452168522883"/><line x1="61.97032246549774" x2="43.622307394249304" y1="307.4611810007672" y2="307.45667199360696"/><line x1="61.9809079592946" x2="43.63289288804616" y1="264.38677618880905" y2="264.3822671816488"/></g></g></g><g id="Wall" fill="#000000" stroke="#000000" style="fill-opacity: 1; stroke-opacity: 1; stroke-width: 0.2;" class="Wall"><polygon points="552.40,49.04 552.40,422.20 568.40,409.22 568.40,49.04 "/><g id="Window" fill="#f0f0ff" stroke="#000000" style="fill-opacity: 1; stroke-width: 1; stroke-opacity: 1;" class="Window Regular"><polygon points="552.40,120.26 552.40,180.14 568.40,180.14 568.40,120.26 "/><g id="Glass" class="Glass"><polygon points="552.40,120.26 552.40,180.14 568.40,180.14 568.40,120.26 "/></g><g id="Panel" class="Panel"><line x1="560.4041213498087" x2="560.4041213498087" y1="127.7626233853008" y2="172.63873893150412"/><line x1="552.4041213498087" x2="568.4041213498087" y1="127.7626233853008" y2="127.7626233853008"/><line x1="552.4041213498087" x2="568.4041213498087" y1="172.63873893150412" y2="172.63873893150412"/></g></g><g id="Window" fill="#f0f0ff" stroke="#000000" style="fill-opacity: 1; stroke-width: 1; stroke-opacity: 1;" class="Window Regular"><polygon points="552.40,180.14 552.40,240.01 568.40,240.01 568.40,180.14 "/><g id="Glass" class="Glass"><polygon points="552.40,180.14 552.40,240.01 568.40,240.01 568.40,180.14 "/></g><g id="Panel" class="Panel"><line x1="560.4041213498087" x2="560.4041213498087" y1="187.63873893150412" y2="232.51485447770744"/><line x1="552.4041213498087" x2="568.4041213498087" y1="187.63873893150412" y2="187.63873893150412"/><line x1="552.4041213498087" x2="568.4041213498087" y1="232.51485447770744" y2="232.51485447770744"/></g></g><g id="Door" fill="#ffffff" stroke="#000000" style="fill-opacity: 1; stroke-width: 1; stroke-opacity: 1;" class="Door Swing Beside"><polygon points="552.40,308.15 552.40,384.54 568.40,384.54 568.40,308.15 "/><g id="Threshold" class="Threshold"><polygon points="552.40,308.15 552.40,384.54 568.40,384.54 568.40,308.15 "/></g><g id="Panel" fill="none" style="" class="Panel Left Negative"><g id="PanelArea" fill="none" stroke="none" style="" class="PanelArea"><polygon points="552.40,308.15 552.40,384.54 568.40,384.54 568.40,308.15 "/></g><path d="M552.40,308.15 q-76.39,0.00 -76.39,76.39 l76.39,0.00Z"/></g></g></g><g id="Wall" fill="#000000" stroke="#000000" style="fill-opacity: 1; stroke-opacity: 1; stroke-width: 0.2;" class="Wall"><polygon points="552.40,422.20 835.18,422.20 835.18,409.22 568.40,409.22 "/></g><g id="Wall" fill="#000000" stroke="#000000" style="fill-opacity: 1; stroke-opacity: 1; stroke-width: 0.2;" class="Wall"><polygon points="436.41,464.25 552.54,464.25 572.14,448.61 436.41,448.61 "/></g><g id="Wall" fill="#000000" stroke="#000000" style="fill-opacity: 1; stroke-opacity: 1; stroke-width: 0.2;" class="Wall"><polygon points="552.54,464.25 552.54,630.77 572.14,630.77 572.14,448.61 "/><g id="Door" fill="#ffffff" stroke="#000000" style="fill-opacity: 1; stroke-width: 1; stroke-opacity: 1;" class="Door Swing Beside"><polygon points="552.54,467.46 552.54,531.66 572.14,531.66 572.14,467.46 "/><g id="Threshold" class="Threshold"><polygon points="552.54,467.46 552.54,531.66 572.14,531.66 572.14,467.46 "/></g><g id="Panel" fill="none" style="" class="Panel Left Negative"><g id="PanelArea" fill="none" stroke="none" style="" class="PanelArea"><polygon points="552.54,467.46 552.54,531.66 572.14,531.66 572.14,467.46 "/></g><path d="M552.54,467.46 q-64.19,0.00 -64.19,64.19 l64.19,0.00Z"/></g></g></g><g id="Wall" fill="#000000" stroke="#000000" style="fill-opacity: 1; stroke-opacity: 1; stroke-width: 0.2;" class="Wall"><polygon points="552.47,409.22 553.50,463.48 572.94,463.11 571.91,408.85 "/></g><g id="Wall" fill="#000000" stroke="#000000" style="fill-opacity: 1; stroke-opacity: 1; stroke-width: 0.2;" class="Wall"><polygon points="747.66,392.38 747.66,437.53 792.43,437.53 792.43,392.38 "/></g><g id="Railing" fill="#ffffff" stroke="#000000" style="fill-opacity: 1; stroke-opacity: 1; stroke-width: 0.2;" class="Railing"><polygon points="43.94,464.59 43.94,629.83 49.20,624.93 49.20,464.59 " style="stroke-dasharray: 165.237, 7.18423, 165.606;"/></g><g id="Railing" fill="#ffffff" stroke="#000000" style="fill-opacity: 1; stroke-opacity: 1; stroke-width: 0.2;" class="Railing"><polygon points="43.94,629.83 303.21,629.83 303.21,624.93 49.20,624.93 " style="stroke-dasharray: 518.184, 7.18423;"/></g><g class="FixedFurniture ElectricalAppliance SaunaStove" transform="matrix(0.8774,0,0,1.2427,740.2275,443.1149)" style="fill-opacity: 1; stroke-opacity: 1;" fill="#ffffff" stroke="#000000"> 
	   <g class="BoundaryPolygon" fill="rgb(255, 255, 255)" stroke="rgb(0, 0, 0)"> 
		<polygon points="0,0 60,0 60,35 0,35"/>
		</g>
	   <g class="electricitySign" fill="none" stroke="rgb(0, 0, 0)">
		<polyline points="0 35 39.7 17.5 21.4 17.5 60 0"/>
		</g>
        <g class="Direction" fill-opacity="0.9" style="display: none;">
            <polygon points="31.509 29.697 31.509 19.081 28.5 19.081 28.5 29.697 24.697 29.697 30 35 35.303 29.697 31.509 29.697" fill="#444444"/>
        </g> 
        <g class="Name" fill-opacity="0.9" style="display: none;">
            <text transform="translate(3 12)" font-size="12" font-family="Verdana, Sans-Serif">SS</text>
        </g>
        <desc>Width:60 Height:60 Depth:35 Elevation:20</desc>
	</g><g class="FixedFurniture SaunaBench" transform="matrix(-1,0,0,-1,815.9088,612.2272)" style="fill-opacity: 1; stroke-opacity: 1;" fill="#ffffff" stroke="#000000">
            <g class="BoundaryPolygon" fill="rgb(255, 255, 255)" stroke="rgb(0, 0, 0)">
                <polygon points="0.00,0.00 244.44,0.00 244.44,51.51 0.00,51.51 "/> 
            </g>
            <g class="Bench" fill="rgb(255, 255, 255)" stroke="rgb(154, 154, 154)" stroke-width="0.5">
                <line x1="0" y1="3.4339515112513723" x2="244.43508915478373" y2="3.4339515112513723"/>
                <line x1="0" y1="6.867903022502745" x2="244.43508915478373" y2="6.867903022502745"/>
                <line x1="0" y1="10.301854533754113" x2="244.43508915478373" y2="10.301854533754113"/>
                <line x1="0" y1="13.73580604500549" x2="244.43508915478373" y2="13.73580604500549"/>
                <line x1="0" y1="17.169757556256855" x2="244.43508915478373" y2="17.169757556256855"/>
                <line x1="0" y1="20.603709067508227" x2="244.43508915478373" y2="20.603709067508227"/>
                <line x1="0" y1="24.037660578759603" x2="244.43508915478373" y2="24.037660578759603"/>
                <line x1="0" y1="27.47161209001098" x2="244.43508915478373" y2="27.47161209001098"/>
                <line x1="0" y1="30.905563601262333" x2="244.43508915478373" y2="30.905563601262333"/>
                <line x1="0" y1="34.33951511251371" x2="244.43508915478373" y2="34.33951511251371"/>
                <line x1="0" y1="37.77346662376508" x2="244.43508915478373" y2="37.77346662376508"/>
                <line x1="0" y1="41.207418135016454" x2="244.43508915478373" y2="41.207418135016454"/>
                <line x1="0" y1="44.64136964626783" x2="244.43508915478373" y2="44.64136964626783"/>
                <line x1="0" y1="48.075321157519205" x2="244.43508915478373" y2="48.075321157519205"/>
            </g>
        <g class="Direction" fill-opacity="0.9" style="display: none;">
            <polygon points="126.06,46.92 126.06,36.31 123.05,36.31 123.05,46.92 119.25,46.92 124.55,52.23 129.86,46.92 126.06,46.92 " fill="#444444"/>
        </g> 
        <g class="Name" fill-opacity="0.9" style="display: none;">
            <text transform="translate(3 12)" font-size="12" font-family="Verdana, Sans-Serif">SB_HIGH</text>
        </g>
            <desc>Width:185 Height:5 Depth:60 Elevation:105</desc>
        </g><g class="FixedFurniture SaunaBench" transform="matrix(-1,0,0,-1,816.5769,560.4679)" style="fill-opacity: 1; stroke-opacity: 1;" fill="#ffffff" stroke="#000000">
            <g class="BoundaryPolygon" fill="rgb(255, 255, 255)" stroke="rgb(0, 0, 0)">
                <polygon points="0.00,0.00 244.44,0.00 244.44,43.53 0.00,43.53 "/>
            </g>
            <g class="Bench" fill="rgb(255, 255, 255)" stroke="rgb(154, 154, 154)" stroke-width="0.5">
                <line x1="0" y1="4.352867842006679" x2="244.43509131860563" y2="4.352867842006679"/>
                <line x1="0" y1="8.705735684013359" x2="244.43509131860563" y2="8.705735684013359"/>
                <line x1="0" y1="13.058603526020029" x2="244.43509131860563" y2="13.058603526020029"/>
                <line x1="0" y1="17.411471368026717" x2="244.43509131860563" y2="17.411471368026717"/>
                <line x1="0" y1="21.764339210033384" x2="244.43509131860563" y2="21.764339210033384"/>
                <line x1="0" y1="26.117207052040058" x2="244.43509131860563" y2="26.117207052040058"/>
                <line x1="0" y1="30.470074894046736" x2="244.43509131860563" y2="30.470074894046736"/>
                <line x1="0" y1="34.822942736053434" x2="244.43509131860563" y2="34.822942736053434"/>
                <line x1="0" y1="39.175810578060094" x2="244.43509131860563" y2="39.175810578060094"/>
            </g>
        <g class="Direction" fill-opacity="0.9" style="display: none;">
            <polygon points="124.21,37.71 124.21,27.10 121.20,27.10 121.20,37.71 117.40,37.71 122.70,43.02 128.01,37.71 124.21,37.71 " fill="#444444"/>
        </g> 
        <g class="Name" fill-opacity="0.9" style="display: none;">
            <text transform="translate(3 12)" font-size="12" font-family="Verdana, Sans-Serif">SB_MID</text>
        </g>
            <desc>Width:185 Height:5 Depth:40 Elevation:60</desc>
        </g><g class="FixedFurniture SaunaBench" transform="matrix(-1,0,0,-1,698.0861,516.6893)" style="fill-opacity: 1; stroke-opacity: 1;" fill="#ffffff" stroke="#000000">
            <g class="BoundaryPolygon" fill="rgb(255, 255, 255)" stroke="rgb(0, 0, 0)">
                <polygon points="0.00,0.00 84.00,0.00 84.00,29.56 0.00,29.56 "/>
            </g>
            <g class="Bench" fill="rgb(255, 255, 255)" stroke="rgb(154, 154, 154)" stroke-width="0.5">
                <line x1="0" y1="2.9564466341542848" x2="83.999496170785" y2="2.9564466341542848"/>
                <line x1="0" y1="5.9128932683085695" x2="83.999496170785" y2="5.9128932683085695"/>
                <line x1="0" y1="8.869339902462846" x2="83.999496170785" y2="8.869339902462846"/>
                <line x1="0" y1="11.825786536617139" x2="83.999496170785" y2="11.825786536617139"/>
                <line x1="0" y1="14.782233170771429" x2="83.999496170785" y2="14.782233170771429"/>
                <line x1="0" y1="17.73867980492569" x2="83.999496170785" y2="17.73867980492569"/>
                <line x1="0" y1="20.695126439079992" x2="83.999496170785" y2="20.695126439079992"/>
                <line x1="0" y1="23.651573073234278" x2="83.999496170785" y2="23.651573073234278"/>
                <line x1="0" y1="26.608019707388554" x2="83.999496170785" y2="26.608019707388554"/>
            </g>
        <g class="Direction" fill-opacity="0.9" style="display: none;">
            <polygon points="43.44,25.61 43.44,15.00 40.43,15.00 40.43,25.61 36.63,25.61 41.93,30.92 47.23,25.61 43.44,25.61 " fill="#444444"/>
        </g> 
        <g class="Name" fill-opacity="0.9" style="display: none;">
            <text transform="translate(3 12)" font-size="12" font-family="Verdana, Sans-Serif">SB_LOW</text>
        </g>
            <desc>Width:91 Height:5 Depth:40 Elevation:30</desc>
        </g><g id="Column" fill="#000000" stroke="none" style="fill-opacity: 1;" class="Column Rectangle"><polygon points="49.42,616.74 59.67,616.74 59.67,624.80 49.42,624.80 "/></g><g id="Column" fill="#000000" stroke="none" style="fill-opacity: 1;" transform="matrix(1,0,0,1,0,0)" class="Column Rectangle"><polygon points="292.64,616.87 302.89,616.87 302.89,624.93 292.64,624.93 "/></g><g fill="#0000ff" stroke="#0000ff" style="display: none;" class="SelectionControls"><g style="display: none;" class="rotateControl"><circle cx="498.4656624994401" cy="502.76589955325915" r="5" style="stroke : none; fill-opacity: 0.5; cursor:crosshair"/></g><g style="display: none;" class="ResizeNControl"><circle cx="0" cy="0" r="5" style="stroke : none; fill-opacity: 0.5"/></g><g style="display: none;" class="ResizeNEControl"><circle cx="0" cy="0" r="5" style="stroke : none; fill-opacity: 0.5"/></g><g style="display: none;" class="ResizeEControl"><circle cx="0" cy="0" r="5" style="stroke : none; fill-opacity: 0.5"/></g><g style="display: none;" class="ResizeSEControl"><circle cx="0" cy="0" r="5" style="stroke : none; fill-opacity: 0.5"/></g><g style="display: none;" class="ResizeSControl"><circle cx="0" cy="0" r="5" style="stroke : none; fill-opacity: 0.5"/></g><g style="display: none;" class="ResizeSWControl"><circle cx="0" cy="0" r="5" style="stroke : none; fill-opacity: 0.5"/></g><g style="display: none;" class="ResizeWControl"><circle cx="0" cy="0" r="5" style="stroke : none; fill-opacity: 0.5"/></g><g style="display: none;" class="ResizeNWControl"><circle cx="0" cy="0" r="5" style="stroke : none; fill-opacity: 0.5"/></g><g style="display: none;" class="removeControl"><polygon style="stroke : none; fill-opacity: 0.1" points="464.69,532.77 532.24,532.77 532.24,572.77 464.69,572.77 "/></g><g style="display: none;" class="copyPasteControl"><polygon style="stroke : none; fill-opacity: 0.1"/></g><g style="display: none;" class="translateControl"><polygon style="stroke : none; fill-opacity: 0.1; cursor:move" points="464.69,532.77 532.24,532.77 532.24,572.77 464.69,572.77 "/></g></g><g fill="#0000ff" stroke="#0000ff" style="display: none;" class="SelectionControls"><polygon fill="none" stroke="#0000ff" style="" points="449.41,464.25 552.54,464.25 552.54,611.68 449.41,611.68 "/><g style="display: none;" class="rotateControl"><circle cx="500.9776734979753" cy="434.2490495532591" r="5" style="stroke : none; fill-opacity: 0.5; cursor:crosshair"/></g><g style="display: none;" class="ResizeNControl"><circle cx="0" cy="0" r="5" style="stroke : none; fill-opacity: 0.5"/></g><g style="display: none;" class="ResizeNEControl"><circle cx="0" cy="0" r="5" style="stroke : none; fill-opacity: 0.5"/></g><g style="display: none;" class="ResizeEControl"><circle cx="0" cy="0" r="5" style="stroke : none; fill-opacity: 0.5"/></g><g style="display: none;" class="ResizeSEControl"><circle cx="0" cy="0" r="5" style="stroke : none; fill-opacity: 0.5"/></g><g style="display: none;" class="ResizeSControl"><circle cx="0" cy="0" r="5" style="stroke : none; fill-opacity: 0.5"/></g><g style="display: none;" class="ResizeSWControl"><circle cx="0" cy="0" r="5" style="stroke : none; fill-opacity: 0.5"/></g><g style="display: none;" class="ResizeWControl"><circle cx="0" cy="0" r="5" style="stroke : none; fill-opacity: 0.5"/></g><g style="display: none;" class="ResizeNWControl"><circle cx="0" cy="0" r="5" style="stroke : none; fill-opacity: 0.5"/></g><g style="display: none;" class="removeControl"><polygon style="stroke : none; fill-opacity: 0.1"/></g><g style="display: none;" class="copyPasteControl"><polygon style="stroke : none; fill-opacity: 0.1"/></g><g style="display: none;" class="translateControl"><polygon style="stroke : none; fill-opacity: 0.1; cursor:move"/></g></g><g class="FixedFurniture ElectricalAppliance Stove" transform="matrix(-1,0,0,-1,809.424,392.051)" style="fill-opacity: 1; stroke-opacity: 1;" fill="#ffffff" stroke="#000000">
            <g class="BoundaryPolygon" fill="rgb(255, 255, 255)" stroke="rgb(0, 0, 0)">
                <polygon points="0.00,0.00 80.19,0.00 80.19,62.23 0.00,62.23 "/>
            </g>
            <g class="InnerPolygon" fill="rgb(255, 255, 255)" stroke="rgb(0, 0, 0)">
                <polygon points="2.00,2.00 77.52,2.00 77.52,60.16 2.00,60.16 2.00,2.00 "/>
            </g>
            <g class="OuterCircle" fill="rgb(255, 255, 255)" stroke="rgb(0, 0, 0)" stroke-width="0.8">
                <circle cx="21.385150682778573" cy="16.59509564654724" r="8"/>
                <circle cx="58.80916437764109" cy="16.59509564654724" r="8"/>
                <circle cx="21.385150682778573" cy="45.532793680213985" r="8"/>
                <circle cx="58.80916437764109" cy="45.636513028004906" r="8"/>
            </g>
            <g class="InnerCircle" fill="rgb(255, 255, 255)" stroke="rgb(0, 0, 0)" stroke-width="0.8">
                <circle cx="21.385150682778573" cy="16.59509564654724" r="6"/>
                <circle cx="58.80916437764109" cy="16.59509564654724" r="6"/>
                <circle cx="21.385150682778573" cy="45.532793680213985" r="6"/>
                <circle cx="58.80916437764109" cy="45.74023237579583" r="6"/>
            </g>
             <g class="Direction" fill-opacity="0.9" style="display: none;">
                <polygon points="42.78,57.25 42.78,46.63 39.77,46.63 39.77,57.25 35.97,57.25 41.27,62.05 46.58,57.25 42.78,57.25 " fill="#444444"/>
            </g> 
            <g class="Name" fill-opacity="0.9" style="display: none;">
                <text transform="translate(3 12)" font-size="12" font-family="Verdana, Sans-Serif">STOVE</text>
            </g>
            <desc>Width:60 Height:90 Depth:30 Elevation:0</desc>
        </g></g></g></g></svg>
