<?xml version="1.0"?>
<svg xmlns="http://www.w3.org/2000/svg" xmlns:xlink="http://www.w3.org/1999/xlink" height="798.2500152587891" version="1.1" width="808.2199783325195" id="temp" viewBox="0 0 808.2199783325195 798.2500152587891"><desc>Powered by CubiCasa</desc><defs/><g id="Model" class="Model v1-1"><g class="Floor"><g id="Floor-1" transform="matrix(1,0,0,1,0,0)" class="Floorplan Floor-1"><g id="839fd436-06a7-4650-84a9-794dc44e1cf8" class="Space Outdoor Porch" fill="#ffffff" stroke="#000000" style="stroke-width: 0.2; fill-opacity: 1; stroke-opacity: 1;"><polygon points="776.35,771.06 383.25,768.87 336.00,769.00 337.00,541.16 776.35,541.16 "/><g transform="matrix(1,0,0,1,336.4955,541.1637)" class="Dimension"><g transform="matrix(1,0,0,1,0,0)" style="display: none;" class="Visual"><g id="mark1" fill="#000000" stroke="none" transform="matrix(1,0,0,1,219.685,0)" style="fill-opacity: 1; pointer-events: visible;" class="DimensionMark"><polygon points="-5,5,0,0,5,5"/></g><g id="mark2" fill="#000000" stroke="none" transform="matrix(1,0,0,1,439.8518,114.9509)" style="fill-opacity: 1; pointer-events: visible;" class="DimensionMark"><polygon points="-5,-5,0,0,-5,5"/></g><g id="mark3" fill="#000000" stroke="none" transform="matrix(1,0,0,1,219.685,228.6713)" style="fill-opacity: 1; pointer-events: visible;" class="DimensionMark"><polygon points="-5,-5,0,0,5,-5"/></g><g id="mark4" fill="#000000" stroke="none" transform="matrix(1,0,0,1,0,114.9509)" style="fill-opacity: 1; pointer-events: visible;" class="DimensionMark"><polygon points="5,5,0,0,5,-5"/></g></g><g transform="matrix(1,0,0,1,160.8339,128.3753)" class="SpaceDimensionsLabel"><g id="NameLabel" class="TextLabel NameLabel" style="display: none;"><text x="0" y="0em" fill="#000000" stroke="none" style="font-family: Verdana; font-size: 33px; fill-opacity: 1; cursor: default;">KUISTI</text></g><g id="DimensionMeasureLabel" transform="matrix(1,0,0,1,-81.1641,79.5938)" style="display: none;" class="TextLabel DimensionMeasureLabel"><text x="42.1875" y="-1.2em" fill="#000000" stroke="none" style="font-family: Verdana; font-size: 33px; fill-opacity: 1; cursor: default;">14'5" x 7'6"</text><text x="0" y="0em" fill="#000000" stroke="none" style="font-family: Verdana; font-size: 33px; fill-opacity: 1; cursor: default;">4.40 m x 2.29 m</text></g></g></g></g><g id="2126ed97-241a-4152-8ed6-77a114a2cbe0" class="Space Room" fill="#ffffff" stroke="#ffffff" style="fill-opacity: 1; stroke-opacity: 1; stroke-width: 0.2;"><polygon points="776.35,541.16 337.00,541.16 338.10,249.17 503.73,249.17 503.73,85.79 776.35,85.79 "/><g transform="matrix(1,0,0,1,337.8584,85.7898)" class="Dimension"><g transform="matrix(1,0,0,1,0,0)" style="display: none;" class="Visual"><g id="mark1" fill="#000000" stroke="none" transform="matrix(1,0,0,1,218.8153,0)" style="fill-opacity: 1; pointer-events: visible;" class="DimensionMark"><polygon points="-5,5,0,0,5,5"/></g><g id="mark2" fill="#000000" stroke="none" transform="matrix(1,0,0,1,438.489,227.6902)" style="fill-opacity: 1; pointer-events: visible;" class="DimensionMark"><polygon points="-5,-5,0,0,-5,5"/></g><g id="mark3" fill="#000000" stroke="none" transform="matrix(1,0,0,1,218.8153,455.3739)" style="fill-opacity: 1; pointer-events: visible;" class="DimensionMark"><polygon points="-5,-5,0,0,5,-5"/></g><g id="mark4" fill="#000000" stroke="none" transform="matrix(1,0,0,1,0,227.6902)" style="fill-opacity: 1; pointer-events: visible;" class="DimensionMark"><polygon points="5,5,0,0,5,-5"/></g></g><g transform="matrix(1,0,0,1,216.608,264.8788)" class="SpaceDimensionsLabel"><g id="NameLabel" class="TextLabel NameLabel" style="display: none;"><text x="0" y="0em" fill="#000000" stroke="none" style="font-family: Verdana; font-size: 33px; fill-opacity: 1; cursor: default;">TUPA</text></g><g id="DimensionMeasureLabel" transform="matrix(1,0,0,1,-96.9375,79.5938)" style="display: none;" class="TextLabel DimensionMeasureLabel"><text x="21.2109375" y="-1.2em" fill="#000000" stroke="none" style="font-family: Verdana; font-size: 33px; fill-opacity: 1; cursor: default;">14'5" x 14'11"</text><text x="0" y="0em" fill="#000000" stroke="none" style="font-family: Verdana; font-size: 33px; fill-opacity: 1; cursor: default;">4.38 m x 4.55 m</text></g></g></g></g><g id="1e70c662-e1e6-4c98-ad8b-6175f7861f57" class="Space Kitchen" fill="#ffffff" stroke="#ffffff" style="fill-opacity: 1; stroke-opacity: 1; stroke-width: 0.2;"><polygon points="503.73,249.17 338.10,249.17 338.00,337.00 106.00,337.00 105.68,85.79 503.73,85.79 "/><g transform="matrix(1,0,0,1,105.8387,85.7898)" class="Dimension"><g transform="matrix(1,0,0,1,0,0)" style="display: none;" class="Visual"><g id="mark1" fill="#000000" stroke="none" transform="matrix(1,0,0,1,198.8627,0)" style="fill-opacity: 1; pointer-events: visible;" class="DimensionMark"><polygon points="-5,5,0,0,5,5"/></g><g id="mark2" fill="#000000" stroke="none" transform="matrix(1,0,0,1,397.8866,125.6049)" style="fill-opacity: 1; pointer-events: visible;" class="DimensionMark"><polygon points="-5,-5,0,0,-5,5"/></g><g id="mark3" fill="#000000" stroke="none" transform="matrix(1,0,0,1,198.8627,251.2102)" style="fill-opacity: 1; pointer-events: visible;" class="DimensionMark"><polygon points="-5,-5,0,0,5,-5"/></g><g id="mark4" fill="#000000" stroke="none" transform="matrix(1,0,0,1,0,125.6049)" style="fill-opacity: 1; pointer-events: visible;" class="DimensionMark"><polygon points="5,5,0,0,5,-5"/></g></g><g transform="matrix(1,0,0,1,123.1732,120.3345)" class="SpaceDimensionsLabel"><g id="NameLabel" class="TextLabel NameLabel" style="display: none;"><text x="0" y="0em" fill="#000000" stroke="none" style="font-family: Verdana; font-size: 33px; fill-opacity: 1; cursor: default;">KEITTI&#xD6;</text></g><g id="DimensionMeasureLabel" transform="matrix(1,0,0,1,-70.9375,79.5938)" style="display: none;" class="TextLabel DimensionMeasureLabel"><text x="42.1875" y="-1.2em" fill="#000000" stroke="none" style="font-family: Verdana; font-size: 33px; fill-opacity: 1; cursor: default;">13'1" x 8'3"</text><text x="0" y="0em" fill="#000000" stroke="none" style="font-family: Verdana; font-size: 33px; fill-opacity: 1; cursor: default;">3.98 m x 2.51 m</text></g></g></g></g><g id="3e4158af-9269-4084-ad8c-f651b9a3bf18" class="Space Bedroom" fill="#ffffff" stroke="#ffffff" style="fill-opacity: 1; stroke-opacity: 1; stroke-width: 0.2;"><polygon points="336.00,769.00 105.68,769.13 105.68,559.16 337.00,559.16 "/><g transform="matrix(1,0,0,1,105.6774,559.1637)" class="Dimension"><g transform="matrix(1,0,0,1,0,0)" style="display: none;" class="Visual"><g id="mark1" fill="#000000" stroke="none" transform="matrix(1,0,0,1,115.6613,0)" style="fill-opacity: 1; pointer-events: visible;" class="DimensionMark"><polygon points="-5,5,0,0,5,5"/></g><g id="mark2" fill="#000000" stroke="none" transform="matrix(1,0,0,1,230.8223,104.9813)" style="fill-opacity: 1; pointer-events: visible;" class="DimensionMark"><polygon points="-5,-5,0,0,-5,5"/></g><g id="mark3" fill="#000000" stroke="none" transform="matrix(1,0,0,1,115.6613,209.9016)" style="fill-opacity: 1; pointer-events: visible;" class="DimensionMark"><polygon points="-5,-5,0,0,5,-5"/></g><g id="mark4" fill="#000000" stroke="none" transform="matrix(1,0,0,1,0,104.9813)" style="fill-opacity: 1; pointer-events: visible;" class="DimensionMark"><polygon points="5,5,0,0,5,-5"/></g></g><g transform="matrix(1,0,0,1,94.9837,108.9837)" class="SpaceDimensionsLabel"><g id="NameLabel" class="TextLabel NameLabel" style="display: none;"><text x="0" y="0em" fill="#000000" stroke="none" style="font-family: Verdana; font-size: 33px; fill-opacity: 1; cursor: default;">MH</text></g><g id="DimensionMeasureLabel" transform="matrix(1,0,0,1,-113.7031,79.5938)" style="display: none;" class="TextLabel DimensionMeasureLabel"><text x="42.1875" y="-1.2em" fill="#000000" stroke="none" style="font-family: Verdana; font-size: 33px; fill-opacity: 1; cursor: default;">7'7" x 6'11"</text><text x="0" y="0em" fill="#000000" stroke="none" style="font-family: Verdana; font-size: 33px; fill-opacity: 1; cursor: default;">2.31 m x 2.10 m</text></g></g></g></g><g id="82f190e6-8b71-4876-a5dc-1c881f67bb5b" class="Space Undefined" fill="#ffffff" stroke="#ffffff" style="fill-opacity: 1; stroke-opacity: 1; stroke-width: 0.2;"><polygon points="337.00,559.16 105.68,559.16 106.00,337.00 338.00,337.00 "/><g transform="matrix(1,0,0,1,105.8387,337)" class="Dimension"><g transform="matrix(1,0,0,1,0,0)" style="display: none;" class="Visual"><g id="mark1" fill="#000000" stroke="none" transform="matrix(1,0,0,1,116,0)" style="fill-opacity: 1; pointer-events: visible;" class="DimensionMark"><polygon points="-5,5,0,0,5,5"/></g><g id="mark2" fill="#000000" stroke="none" transform="matrix(1,0,0,1,231.6613,111.0798)" style="fill-opacity: 1; pointer-events: visible;" class="DimensionMark"><polygon points="-5,-5,0,0,-5,5"/></g><g id="mark3" fill="#000000" stroke="none" transform="matrix(1,0,0,1,116,222.1637)" style="fill-opacity: 1; pointer-events: visible;" class="DimensionMark"><polygon points="-5,-5,0,0,5,-5"/></g><g id="mark4" fill="#000000" stroke="none" transform="matrix(1,0,0,1,0,111.0798)" style="fill-opacity: 1; pointer-events: visible;" class="DimensionMark"><polygon points="5,5,0,0,5,-5"/></g></g><g transform="matrix(1,0,0,1,7.1302,126.9705)" class="SpaceDimensionsLabel"><g id="NameLabel" class="TextLabel NameLabel" style="display: none;"><text x="0" y="0em" fill="#000000" stroke="none" style="font-family: Verdana; font-size: 33px; fill-opacity: 1; cursor: default;">UNDEFINED</text></g><g id="DimensionMeasureLabel" transform="matrix(1,0,0,1,-40.5313,79.5938)" style="display: none;" class="TextLabel DimensionMeasureLabel"><text x="52.6796875" y="-1.2em" fill="#000000" stroke="none" style="font-family: Verdana; font-size: 33px; fill-opacity: 1; cursor: default;">7'7" x 7'3"</text><text x="0" y="0em" fill="#000000" stroke="none" style="font-family: Verdana; font-size: 33px; fill-opacity: 1; cursor: default;">2.32 m x 2.22 m</text></g></g></g></g><g id="Wall" class="Wall External" fill="#000000" stroke="#000000" style="fill-opacity: 1; stroke-opacity: 1; stroke-width: 0.2;"><polygon points="776.35,85.79 776.35,559.16 754.35,559.16 754.35,107.79 "/><g id="Window" fill="#f0f0ff" stroke="#000000" style="fill-opacity: 1; stroke-width: 1; stroke-opacity: 1;" class="Window Regular"><polygon points="776.35,321.29 776.35,496.80 754.35,496.80 754.35,321.29 "/><g id="Glass" class="Glass"><polygon points="776.35,321.29 776.35,496.80 754.35,496.80 754.35,321.29 "/></g><g id="Panel" class="Panel"><line x1="765.3499755859375" x2="765.3499755859375" y1="328.7900085449219" y2="489.29998779296875"/><line x1="776.3499755859375" x2="754.3499755859375" y1="328.7900085449219" y2="328.7900085449219"/><line x1="776.3499755859375" x2="754.3499755859375" y1="489.29998779296875" y2="489.29998779296875"/></g></g></g><g id="Wall" class="Wall External" fill="#000000" stroke="#000000" style="fill-opacity: 1; stroke-opacity: 1; stroke-width: 0.2;"><polygon points="127.68,746.31 127.68,107.79 105.68,85.79 105.68,769.13 "/><g id="Window" fill="#f0f0ff" stroke="#000000" style="fill-opacity: 1; stroke-width: 1; stroke-opacity: 1;" class="Window Regular"><polygon points="127.68,480.21 127.68,394.49 105.68,394.49 105.68,480.21 "/><g id="Glass" class="Glass"><polygon points="127.68,480.21 127.68,394.49 105.68,394.49 105.68,480.21 "/></g><g id="Panel" class="Panel"><line x1="116.68000030517578" x2="116.68000030517578" y1="472.7099914550781" y2="401.989990234375"/><line x1="127.68000030517578" x2="105.68000030517578" y1="472.7099914550781" y2="472.7099914550781"/><line x1="127.68000030517578" x2="105.68000030517578" y1="401.989990234375" y2="401.989990234375"/></g></g><g id="Window" fill="#f0f0ff" stroke="#000000" style="fill-opacity: 1; stroke-width: 1; stroke-opacity: 1;" class="Window Regular"><polygon points="127.68,252.12 127.68,168.26 105.68,168.26 105.68,252.12 "/><g id="Glass" class="Glass"><polygon points="127.68,252.12 127.68,168.26 105.68,168.26 105.68,252.12 "/></g><g id="Panel" class="Panel"><line x1="116.68000030517578" x2="116.68000030517578" y1="244.6199951171875" y2="175.75999450683594"/><line x1="127.68000030517578" x2="105.68000030517578" y1="244.6199951171875" y2="244.6199951171875"/><line x1="127.68000030517578" x2="105.68000030517578" y1="175.75999450683594" y2="175.75999450683594"/></g></g><g id="Window" fill="#f0f0ff" stroke="#000000" style="fill-opacity: 1; stroke-width: 1; stroke-opacity: 1;" class="Window Regular"><polygon points="127.68,716.86 127.68,585.78 105.68,585.78 105.68,716.86 "/><g id="Glass" class="Glass"><polygon points="127.68,716.86 127.68,585.78 105.68,585.78 105.68,716.86 "/></g><g id="Panel" class="Panel"><line x1="116.68000030517578" x2="116.68000030517578" y1="709.3599853515625" y2="593.280029296875"/><line x1="127.68000030517578" x2="105.68000030517578" y1="709.3599853515625" y2="709.3599853515625"/><line x1="127.68000030517578" x2="105.68000030517578" y1="593.280029296875" y2="593.280029296875"/></g></g></g><g id="Wall" class="Wall External" fill="#000000" stroke="#000000" style="fill-opacity: 1; stroke-opacity: 1; stroke-width: 0.2;"><polygon points="105.68,85.79 776.35,85.79 776.35,107.79 127.68,107.79 "/><g id="Window" fill="#f0f0ff" stroke="#000000" style="fill-opacity: 1; stroke-width: 1; stroke-opacity: 1;" class="Window Regular"><polygon points="377.79,85.79 454.74,85.79 454.74,107.79 377.79,107.79 "/><g id="Glass" class="Glass"><polygon points="377.79,85.79 454.74,85.79 454.74,107.79 377.79,107.79 "/></g><g id="Panel" class="Panel"><line x1="385.2900085449219" x2="447.239990234375" y1="96.79000091552734" y2="96.79000091552734"/><line x1="385.2900085449219" x2="385.2900085449219" y1="85.79000091552734" y2="107.79000091552734"/><line x1="447.239990234375" x2="447.239990234375" y1="85.79000091552734" y2="107.79000091552734"/></g></g></g><g id="Wall" class="Wall" fill="#000000" stroke="#000000" style="fill-opacity: 1; stroke-opacity: 1; stroke-width: 0.2;"><polygon points="105.68,337.34 338.10,337.34 338.10,314.66 105.68,314.66 "/></g><g id="Wall" class="Wall" fill="#000000" stroke="#000000" style="fill-opacity: 1; stroke-opacity: 1; stroke-width: 0.2;"><polygon points="338.10,366.13 338.10,249.17 384.18,268.09 384.18,366.13 "/></g><g id="Wall" class="Wall" fill="#000000" stroke="#000000" style="fill-opacity: 1; stroke-opacity: 1; stroke-width: 0.2;"><polygon points="338.10,249.17 442.94,249.17 442.94,268.09 384.18,268.09 "/></g><g id="Wall" class="Wall" fill="#000000" stroke="#000000" style="fill-opacity: 1; stroke-opacity: 1; stroke-width: 0.2;"><polygon points="105.68,559.16 235.64,559.16 235.64,541.16 105.68,541.16 "/></g><g id="Wall" class="Wall External" fill="#000000" stroke="#000000" style="fill-opacity: 1; stroke-opacity: 1; stroke-width: 0.2;"><polygon points="319.11,559.16 754.35,559.16 776.35,541.16 319.11,541.16 "/><g id="Door" fill="#ffffff" stroke="#000000" style="fill-opacity: 1; stroke-width: 1; stroke-opacity: 1;" class="Door Swing Beside"><polygon points="421.02,559.16 505.55,559.16 505.55,541.16 421.02,541.16 "/><g id="Threshold" class="Threshold"><polygon points="421.02,559.16 505.55,559.16 505.55,541.16 421.02,541.16 "/></g><g id="Panel" fill="none" style="" class="Panel Right Negative"><g id="PanelArea" fill="none" stroke="none" style="" class="PanelArea"><polygon points="421.02,559.16 505.55,559.16 505.55,541.16 421.02,541.16 "/></g><path d="M505.55,559.16 q0.00,84.53 -84.53,84.53 l0.00,-84.53Z"/></g></g><g id="Window" fill="#f0f0ff" stroke="#000000" style="fill-opacity: 1; stroke-width: 1; stroke-opacity: 1;" class="Window Regular"><polygon points="512.34,559.16 676.12,559.16 676.12,541.16 512.34,541.16 "/><g id="Glass" class="Glass"><polygon points="512.34,559.16 676.12,559.16 676.12,541.16 512.34,541.16 "/></g><g id="Panel" class="Panel"><line x1="519.8400268554688" x2="668.6199951171875" y1="550.1599731445312" y2="550.1599731445312"/><line x1="519.8400268554688" x2="519.8400268554688" y1="559.1599731445312" y2="541.1599731445312"/><line x1="668.6199951171875" x2="668.6199951171875" y1="559.1599731445312" y2="541.1599731445312"/></g></g></g><g id="Wall" class="Wall External" fill="#000000" stroke="#000000" style="fill-opacity: 1; stroke-opacity: 1; stroke-width: 0.2;"><polygon points="776.35,559.16 808.22,559.16 808.22,541.16 776.35,541.16 "/></g><g id="Wall" class="Wall External" fill="#000000" stroke="#000000" style="fill-opacity: 1; stroke-opacity: 1; stroke-width: 0.2;"><polygon points="336.69,559.16 336.69,768.87 354.69,746.87 354.69,559.16 "/></g><g id="Wall" class="Wall External" fill="#000000" stroke="#000000" style="fill-opacity: 1; stroke-opacity: 1; stroke-width: 0.2;"><polygon points="354.69,768.87 354.69,796.36 336.69,796.36 336.69,768.87 "/></g><g id="Wall" class="Wall External" fill="#000000" stroke="#000000" style="fill-opacity: 1; stroke-opacity: 1; stroke-width: 0.2;"><polygon points="105.68,541.16 74.79,541.16 74.79,559.16 105.68,559.16 "/></g><g id="Wall" class="Wall External" fill="#000000" stroke="#000000" style="fill-opacity: 1; stroke-opacity: 1; stroke-width: 0.2;"><polygon points="105.68,314.66 74.15,314.66 74.15,337.40 105.68,337.40 "/></g><g id="Wall" class="Wall External" fill="#000000" stroke="#000000" style="fill-opacity: 1; stroke-opacity: 1; stroke-width: 0.2;"><polygon points="127.68,746.31 336.69,746.31 318.69,769.13 105.68,769.13 "/><g id="Window" fill="#f0f0ff" stroke="#000000" style="fill-opacity: 1; stroke-width: 1; stroke-opacity: 1;" class="Window Regular"><polygon points="156.26,746.31 295.59,746.31 295.59,769.13 156.26,769.13 "/><g id="Glass" class="Glass"><polygon points="156.26,746.31 295.59,746.31 295.59,769.13 156.26,769.13 "/></g><g id="Panel" class="Panel"><line x1="163.75999450683594" x2="288.0899963378906" y1="757.7200012207031" y2="757.7200012207031"/><line x1="163.75999450683594" x2="163.75999450683594" y1="746.3099975585938" y2="769.1300048828125"/><line x1="288.0899963378906" x2="288.0899963378906" y1="746.3099975585938" y2="769.1300048828125"/></g></g></g><g id="Wall" class="Wall" fill="#000000" stroke="#000000" style="fill-opacity: 1; stroke-opacity: 1; stroke-width: 0.2;"><polygon points="805.99,750.44 723.40,750.44 723.40,770.15 805.99,770.15 "/></g><g id="Wall" class="Wall" fill="#000000" stroke="#000000" style="fill-opacity: 1; stroke-opacity: 1; stroke-width: 0.2;"><polygon points="573.96,770.15 491.51,770.15 491.51,750.15 573.96,750.15 "/></g><g id="Wall" class="Wall" fill="#000000" stroke="#000000" style="fill-opacity: 1; stroke-opacity: 1; stroke-width: 0.2;"><polygon points="544.79,797.42 544.79,719.93 524.79,719.93 524.79,797.42 "/></g><g id="Wall" class="Wall" fill="#000000" stroke="#000000" style="fill-opacity: 1; stroke-opacity: 1; stroke-width: 0.2;"><polygon points="776.35,718.20 776.35,798.25 754.35,798.25 754.35,718.20 "/></g><g id="Wall" class="Wall External" fill="#000000" stroke="#000000" style="fill-opacity: 1; stroke-opacity: 1; stroke-width: 0.2;"><polygon points="776.35,541.16 776.35,590.24 754.35,590.24 754.35,559.16 "/></g><g id="Wall" class="Wall External" fill="#000000" stroke="#000000" style="fill-opacity: 1; stroke-opacity: 1; stroke-width: 0.2;"><polygon points="776.35,107.79 776.35,59.78 754.35,59.78 754.35,85.79 "/></g><g id="Wall" class="Wall External" fill="#000000" stroke="#000000" style="fill-opacity: 1; stroke-opacity: 1; stroke-width: 0.2;"><polygon points="776.35,85.79 806.75,85.79 806.75,107.79 776.35,107.79 "/></g><g id="Wall" class="Wall External" fill="#000000" stroke="#000000" style="fill-opacity: 1; stroke-opacity: 1; stroke-width: 0.2;"><polygon points="105.68,85.79 105.68,56.67 127.68,56.67 127.68,85.79 "/></g><g id="Wall" class="Wall External" fill="#000000" stroke="#000000" style="fill-opacity: 1; stroke-opacity: 1; stroke-width: 0.2;"><polygon points="127.68,85.79 73.58,85.79 73.58,107.79 127.68,107.79 "/></g><g id="Wall" class="Wall External" fill="#000000" stroke="#000000" style="fill-opacity: 1; stroke-opacity: 1; stroke-width: 0.2;"><polygon points="127.68,769.13 72.68,769.13 72.68,747.13 105.68,747.13 "/></g><g id="Wall" class="Wall External" fill="#000000" stroke="#000000" style="fill-opacity: 1; stroke-opacity: 1; stroke-width: 0.2;"><polygon points="105.68,746.31 105.68,796.21 127.68,796.21 127.68,746.31 "/></g><g id="Wall" class="Wall External" fill="#000000" stroke="#000000" style="fill-opacity: 1; stroke-opacity: 1; stroke-width: 0.2;"><polygon points="336.69,768.87 336.69,746.31 318.69,769.13 318.69,768.87 "/></g><g id="Wall" class="Wall External" fill="#000000" stroke="#000000" style="fill-opacity: 1; stroke-opacity: 1; stroke-width: 0.2;"><polygon points="336.69,768.87 383.25,768.87 383.25,746.87 354.69,746.87 "/></g><g id="Wall" class="Wall" fill="#000000" stroke="#000000" style="fill-opacity: 1; stroke-opacity: 1; stroke-width: 0.2;"><polygon points="479.60,85.79 479.60,188.51 503.73,188.51 503.73,85.79 "/></g><g id="Wall" class="Wall External" fill="#000000" stroke="#000000" style="fill-opacity: 1; stroke-opacity: 1; stroke-width: 0.2;"><polygon points="503.73,85.79 503.73,58.72 479.73,58.72 479.73,85.79 "/></g><g id="Railing" class="Railing" fill="#ffffff" stroke="#000000" style="fill-opacity: 1; stroke-opacity: 1; stroke-width: 0.2;"><polygon points="723.40,770.15 573.96,770.15 573.96,750.40 723.40,750.40 "/></g><g id="Railing" class="Railing" fill="#ffffff" stroke="#000000" style="fill-opacity: 1; stroke-opacity: 1; stroke-width: 0.2;"><polygon points="776.35,590.24 776.35,718.20 754.35,718.20 754.35,590.24 "/></g><g class="FixedFurniture Fireplace" transform="matrix(0,-1.3362,0.7393,0,383.5837,368.9695)" style="fill-opacity: 1; stroke-opacity: 1;" fill="#ffffff" stroke="#000000">     
	   <g class="BoundaryPolygon" fill="rgb(255, 255, 255)" stroke="none"> 
		<polygon points="0,0 75,0 75,60 0,60"/> 
		</g>
		
	   <g class="Lines" fill="none" stroke="rgb(76, 76, 76)"> 
		    <line x1="0.629" y1="9.556" x2="51.294" y2="60.205"/>
            <line x1="0.598" y1="25.167" x2="35.942" y2="60.5"/>
            <line x1="0.5" y1="40.841" x2="20.479" y2="60.5"/>
            <line x1="40.648" y1="0.5" x2="75.432" y2="35.274"/>
            <line x1="8.329" y1="0.5" x2="68.348" y2="60.5"/>
            <line x1="24.88" y1="0.5" x2="75.5" y2="51.104"/>
            <line x1="56.774" y1="0.5" x2="75.5" y2="19.22"/>
		</g>
		
	   <g class="OverlayPolygon" fill="none" stroke="rgb(0, 0, 0)"> 
		<polygon points="0.5 60.5 75.5 60.5 75.5 0.5 0.5 0.5 0.5 60.5"/>  
		</g>
		
	   <g class="FireBox" fill="rgb(255, 255, 255)" stroke="rgb(0, 0, 0)">	
		<rect x="22.053" y="19.92" width="32.571" height="40.58"/>
	   </g>
        <g class="Direction" fill-opacity="0.9" style="display: none;">
            <polygon points="39.409 54.797 39.409 44.181 36.4 44.181 36.4 54.797 32.597 54.797 37.9 60.1 43.203 54.797 39.409 54.797" fill="#444444"/>
        </g> 
        <g class="Name" fill-opacity="0.9" style="display: none;">
            <text transform="translate(3 12)" font-size="12" font-family="Verdana, Sans-Serif">FP</text>
        </g>
    <desc>Width:75 Height:120 Depth:60 Elevation:0</desc>
    </g><g id="Wall" fill="#000000" stroke="#000000" style="fill-opacity: 1; stroke-opacity: 1; stroke-width: 0.2;" class="Wall"><polygon points="338.10,366.13 338.00,421.48 356.02,421.51 356.12,366.16 "/></g></g></g></g></svg>
