<?xml version="1.0"?>
<svg xmlns="http://www.w3.org/2000/svg" xmlns:xlink="http://www.w3.org/1999/xlink" height="1089.9599609375" version="1.1" width="765.074821472168" id="temp" viewBox="0 0 765.074821472168 1089.9599609375"><defs/><g id="Model" class="Model v1-1"><g class="Floor"><g id="Floor-1" class="Floorplan Floor-1"><g id="5ea2ca98-8c3d-4f3e-b0b0-f49b63d1642a" class="Space LivingRoom" fill="#ffffff" stroke="#ffffff" style="fill-opacity: 1; stroke-opacity: 1; stroke-width: 0.2;"><polygon points="421.35,573.20 421.35,654.74 750.22,654.74 750.07,184.57 421.04,184.57 421.35,573.20 421.35,573.20 "/><g transform="matrix(1,0,0,1,421.2291,184.5676)" class="Dimension"><g class="Visual" style="display: none;" transform="matrix(1,0,0,1,0,0)"><g id="mark1" fill="#000000" stroke="none" transform="matrix(1,0,0,1,164.3989,0)" style="fill-opacity: 1; pointer-events: visible;" class="DimensionMark"><polygon points="-5,5,0,0,5,5"/></g><g id="mark2" fill="#000000" stroke="none" transform="matrix(1,0,0,1,328.9163,235.0845)" style="fill-opacity: 1; pointer-events: visible;" class="DimensionMark"><polygon points="-5,-5,0,0,-5,5"/></g><g id="mark3" fill="#000000" stroke="none" transform="matrix(1,0,0,1,164.3989,470.1692)" style="fill-opacity: 1; pointer-events: visible;" class="DimensionMark"><polygon points="-5,-5,0,0,5,-5"/></g><g id="mark4" fill="#000000" stroke="none" transform="matrix(1,0,0,1,0,235.0845)" style="fill-opacity: 1; pointer-events: visible;" class="DimensionMark"><polygon points="5,5,0,0,5,-5"/></g></g><g transform="matrix(1,0,0,1,149.0692,252.7435)" class="SpaceDimensionsLabel"><g id="NameLabel" class="TextLabel NameLabel" style="display: block;"><text x="0" y="0em" fill="#000000" stroke="none" style="font-family: Verdana; font-size: 33px; fill-opacity: 1; cursor: default;">OH</text></g><g id="DimensionMeasureLabel" class="TextLabel DimensionMeasureLabel" style="display: none;" transform="matrix(1,0,0,1,-82.9141,39.8594)"><text x="0" y="0em" fill="#000000" stroke="none" style="font-family: Verdana; font-size: 33px; fill-opacity: 1; cursor: default;">10'9" x 15'5"</text><text x="0" y="0"/></g></g></g></g><g id="28e2932f-ee40-4934-b8b7-0b6d38172872" class="Space Bedroom" fill="#ffffff" stroke="#ffffff" style="fill-opacity: 1; stroke-opacity: 1; stroke-width: 0.2;"><polygon points="405.96,291.62 420.96,291.62 420.96,355.01 405.96,355.01 405.96,414.10 150.70,414.10 150.70,184.57 405.96,184.57 "/><g transform="matrix(1,0,0,1,150.7046,184.5676)" class="Dimension"><g class="Visual" style="display: none;" transform="matrix(1,0,0,1,0,0)"><g id="mark1" fill="#000000" stroke="none" transform="matrix(1,0,0,1,135.1291,0)" style="fill-opacity: 1; pointer-events: visible;" class="DimensionMark"><polygon points="-5,5,0,0,5,5"/></g><g id="mark2" fill="#000000" stroke="none" transform="matrix(1,0,0,1,270.2581,114.767)" style="fill-opacity: 1; pointer-events: visible;" class="DimensionMark"><polygon points="-5,-5,0,0,-5,5"/></g><g id="mark3" fill="#000000" stroke="none" transform="matrix(1,0,0,1,135.1291,229.5339)" style="fill-opacity: 1; pointer-events: visible;" class="DimensionMark"><polygon points="-5,-5,0,0,5,-5"/></g><g id="mark4" fill="#000000" stroke="none" transform="matrix(1,0,0,1,0,114.767)" style="fill-opacity: 1; pointer-events: visible;" class="DimensionMark"><polygon points="5,5,0,0,5,-5"/></g></g><g transform="matrix(1,0,0,1,96.068,136.3161)" class="SpaceDimensionsLabel"><g id="NameLabel" class="TextLabel NameLabel" style="display: block;"><text x="0" y="0em" fill="#000000" stroke="none" style="font-family: Verdana; font-size: 33px; fill-opacity: 1; cursor: default;">MH</text></g><g id="DimensionMeasureLabel" class="TextLabel DimensionMeasureLabel" style="display: none;" transform="matrix(1,0,0,1,-113.6953,79.9375)"><text x="42.1796875" y="-1.2em" fill="#000000" stroke="none" style="font-family: Verdana; font-size: 33px; fill-opacity: 1; cursor: default;">8'10" x 7'6"</text><text x="0" y="0em" fill="#000000" stroke="none" style="font-family: Verdana; font-size: 33px; fill-opacity: 1; cursor: default;">2.70 m x 2.30 m</text></g></g></g></g><g id="940b859f-842f-4e73-aa8a-6929b06203b8" class="Space Kitchen" fill="#ffffff" stroke="#ffffff" style="fill-opacity: 1; stroke-opacity: 1; stroke-width: 0.2;"><polygon points="405.96,491.06 420.96,491.06 420.96,572.14 405.96,572.14 405.96,594.28 349.17,594.28 349.17,654.43 153.61,654.43 150.70,654.40 150.70,428.33 405.96,428.33 "/><g transform="matrix(1,0,0,1,150.7046,428.3264)" class="Dimension"><g class="Visual" style="display: none;" transform="matrix(1,0,0,1,0,0)"><g id="mark1" fill="#0000ff" stroke="none" transform="matrix(2,0,0,2,135.1291,0)" style="fill-opacity: 1; pointer-events: visible;" class="DimensionMark"><polygon points="-5,5,0,0,5,5"/></g><g id="mark2" fill="#0000ff" stroke="none" transform="matrix(2,0,0,2,270.2581,113.0494)" style="fill-opacity: 1; pointer-events: visible;" class="DimensionMark"><polygon points="-5,-5,0,0,-5,5"/></g><g id="mark3" fill="#0000ff" stroke="none" transform="matrix(2,0,0,2,135.1291,226.0988)" style="fill-opacity: 1; pointer-events: visible;" class="DimensionMark"><polygon points="-5,-5,0,0,5,-5"/></g><g id="mark4" fill="#0000ff" stroke="none" transform="matrix(2,0,0,2,0,113.0494)" style="fill-opacity: 1; pointer-events: visible;" class="DimensionMark"><polygon points="5,5,0,0,5,-5"/></g></g><g transform="matrix(1,0,0,1,117.2867,117.7789)" class="SpaceDimensionsLabel"><g id="NameLabel" class="TextLabel NameLabel" style="display: block;"><text x="0" y="0em" fill="#000000" stroke="none" style="font-family: Verdana; font-size: 33px; fill-opacity: 1; cursor: default;">K</text></g><g id="DimensionMeasureLabel" class="TextLabel DimensionMeasureLabel" style="display: none;" transform="matrix(1,0,0,1,-128.3203,79.9375)"><text x="42.1796875" y="-1.2em" fill="#000000" stroke="none" style="font-family: Verdana; font-size: 33px; fill-opacity: 1; cursor: default;">8'10" x 7'5"</text><text x="0" y="0em" fill="#000000" stroke="none" style="font-family: Verdana; font-size: 33px; fill-opacity: 1; cursor: default;">2.70 m x 2.26 m</text></g></g></g></g><g id="07b3a333-c080-472a-9e1e-b9948f840b2e" fill="#ffffff" stroke="#ffffff" style="fill-opacity: 1; stroke-opacity: 1; stroke-width: 0.2;" class="Space Undefined"><polygon points="288.60,758.11 303.60,758.11 303.60,669.76 392.96,669.76 378.96,669.81 379.00,670.00 379.80,877.89 153.61,877.89 153.61,669.76 288.60,669.76 "/><g transform="matrix(1,0,0,1,153.6113,669.7631)" class="Dimension"><g class="Visual" style="display: none;" transform="matrix(1,0,0,1,0,0)"><g id="mark1" fill="#000000" stroke="none" transform="matrix(1,0,0,1,119.6766,0)" style="fill-opacity: 1; pointer-events: visible;" class="DimensionMark"><polygon points="-5,5,0,0,5,5"/></g><g id="mark2" fill="#000000" stroke="none" transform="matrix(1,0,0,1,225.79,104.116)" style="fill-opacity: 1; pointer-events: visible;" class="DimensionMark"><polygon points="-5,-5,0,0,-5,5"/></g><g id="mark3" fill="#000000" stroke="none" transform="matrix(1,0,0,1,119.6766,208.1272)" style="fill-opacity: 1; pointer-events: visible;" class="DimensionMark"><polygon points="-5,-5,0,0,5,-5"/></g><g id="mark4" fill="#000000" stroke="none" transform="matrix(1,0,0,1,0,104.116)" style="fill-opacity: 1; pointer-events: visible;" class="DimensionMark"><polygon points="5,5,0,0,5,-5"/></g></g><g transform="matrix(1,0,0,1,-40.8787,92.3728)" class="SpaceDimensionsLabel"><g id="NameLabel" class="TextLabel NameLabel" style="display: block;"><text x="0" y="0em" fill="#000000" stroke="none" style="font-family: Verdana; font-size: 33px; fill-opacity: 1; cursor: default;">UNDEFINED</text></g><g id="DimensionMeasureLabel" class="TextLabel DimensionMeasureLabel" style="display: none;" transform="matrix(1,0,0,1,-40.5156,79.6562)"><text x="42.1796875" y="-1.2em" fill="#000000" stroke="none" style="font-family: Verdana; font-size: 33px; fill-opacity: 1; cursor: default;">7'5" x 6'10"</text><text x="0" y="0em" fill="#000000" stroke="none" style="font-family: Verdana; font-size: 33px; fill-opacity: 1; cursor: default;">2.26 m x 2.08 m</text></g></g></g></g><g id="146e3210-23a1-4b69-8243-23fb042abfa5" fill="#ffffff" stroke="#ffffff" style="fill-opacity: 1; stroke-opacity: 1; stroke-width: 0.2;" class="Space DressingRoom"><polygon points="593.86,881.21 394.80,881.21 393.80,669.76 593.86,669.76 "/><g transform="matrix(1,0,0,1,394.303,669.7631)" class="Dimension"><g class="Visual" style="display: none;" transform="matrix(1,0,0,1,0,0)"><g id="mark1" fill="#000000" stroke="none" transform="matrix(1,0,0,1,99.5292,0)" style="fill-opacity: 1; pointer-events: visible;" class="DimensionMark"><polygon points="-5,5,0,0,5,5"/></g><g id="mark2" fill="#000000" stroke="none" transform="matrix(1,0,0,1,199.5585,105.7222)" style="fill-opacity: 1; pointer-events: visible;" class="DimensionMark"><polygon points="-5,-5,0,0,-5,5"/></g><g id="mark3" fill="#000000" stroke="none" transform="matrix(1,0,0,1,99.5292,211.4491)" style="fill-opacity: 1; pointer-events: visible;" class="DimensionMark"><polygon points="-5,-5,0,0,5,-5"/></g><g id="mark4" fill="#000000" stroke="none" transform="matrix(1,0,0,1,0,105.7222)" style="fill-opacity: 1; pointer-events: visible;" class="DimensionMark"><polygon points="5,5,0,0,5,-5"/></g></g><g transform="matrix(1,0,0,1,61.1577,141.33)" class="SpaceDimensionsLabel"><g id="NameLabel" class="TextLabel NameLabel" style="display: block;"><text x="0" y="0em" fill="#000000" stroke="none" style="font-family: Verdana; font-size: 33px; fill-opacity: 1; cursor: default;">PKH</text></g><g id="DimensionMeasureLabel" class="TextLabel DimensionMeasureLabel" style="display: none;" transform="matrix(1,0,0,1,-106.2032,79.4531)"><text x="42.171875" y="-1.2em" fill="#000000" stroke="none" style="font-family: Verdana; font-size: 33px; fill-opacity: 1; cursor: default;">6'7" x 6'11"</text><text x="0" y="0em" fill="#000000" stroke="none" style="font-family: Verdana; font-size: 33px; fill-opacity: 1; cursor: default;">2.00 m x 2.11 m</text></g></g></g></g><g id="3967a01e-5b71-454e-93b7-ab1941b98aa1" fill="#ffffff" stroke="#ffffff" style="fill-opacity: 1; stroke-opacity: 1; stroke-width: 0.2;" class="Space Entry Lobby"><polygon points="750.07,881.21 608.86,881.21 608.86,669.76 750.07,669.76 "/><g transform="matrix(1,0,0,1,608.8615,669.7631)" class="Dimension"><g class="Visual" style="display: none;" transform="matrix(1,0,0,1,0,0)"><g id="mark1" fill="#000000" stroke="none" transform="matrix(1,0,0,1,70.6067,0)" style="fill-opacity: 1; pointer-events: visible;" class="DimensionMark"><polygon points="-5,5,0,0,5,5"/></g><g id="mark2" fill="#000000" stroke="none" transform="matrix(1,0,0,1,141.2133,105.7246)" style="fill-opacity: 1; pointer-events: visible;" class="DimensionMark"><polygon points="-5,-5,0,0,-5,5"/></g><g id="mark3" fill="#000000" stroke="none" transform="matrix(1,0,0,1,70.6067,211.4491)" style="fill-opacity: 1; pointer-events: visible;" class="DimensionMark"><polygon points="-5,-5,0,0,5,-5"/></g><g id="mark4" fill="#000000" stroke="none" transform="matrix(1,0,0,1,0,105.7246)" style="fill-opacity: 1; pointer-events: visible;" class="DimensionMark"><polygon points="5,5,0,0,5,-5"/></g></g><g transform="matrix(1,0,0,1,50.6258,133.346)" class="SpaceDimensionsLabel"><g id="NameLabel" class="TextLabel NameLabel" style="display: block;"><text x="0" y="0em" fill="#000000" stroke="none" style="font-family: Verdana; font-size: 33px; fill-opacity: 1; cursor: default;">ET</text></g><g id="DimensionMeasureLabel" class="TextLabel DimensionMeasureLabel" style="display: none;" transform="matrix(1,0,0,1,-119.2032,79.6563)"><text x="42.1796875" y="-1.2em" fill="#000000" stroke="none" style="font-family: Verdana; font-size: 33px; fill-opacity: 1; cursor: default;">4'8" x 6'11"</text><text x="0" y="0em" fill="#000000" stroke="none" style="font-family: Verdana; font-size: 33px; fill-opacity: 1; cursor: default;">1.41 m x 2.11 m</text></g></g></g></g><g id="09c42431-901b-4dd7-94d4-674efd9138ca" class="Space Outdoor Veranda" fill="#ffffff" stroke="#000000" style="fill-opacity: 1; stroke-opacity: 1; stroke-width: 0.2;"><polygon points="765.07,896.21 764.13,1089.96 598.02,1089.95 135.70,1089.95 135.70,896.21 765.07,896.21 765.07,896.21 "/><g transform="matrix(1,0,0,1,135.7046,896.2122)" class="Dimension"><g class="Visual" style="display: none;" transform="matrix(1,0,0,1,0,0)"><g id="mark1" fill="#000000" stroke="none" transform="matrix(1,0,0,1,314.6851,0)" style="fill-opacity: 1; pointer-events: visible;" class="DimensionMark"><polygon points="-5,5,0,0,5,5"/></g><g id="mark2" fill="#000000" stroke="none" transform="matrix(1,0,0,1,628.8963,96.8694)" style="fill-opacity: 1; pointer-events: visible;" class="DimensionMark"><polygon points="-5,-5,0,0,-5,5"/></g><g id="mark3" fill="#000000" stroke="none" transform="matrix(1,0,0,1,314.6851,193.7413)" style="fill-opacity: 1; pointer-events: visible;" class="DimensionMark"><polygon points="-5,-5,0,0,5,-5"/></g><g id="mark4" fill="#000000" stroke="none" transform="matrix(1,0,0,1,0,96.8694)" style="fill-opacity: 1; pointer-events: visible;" class="DimensionMark"><polygon points="5,5,0,0,5,-5"/></g></g><g transform="matrix(1,0,0,1,274.5766,125.793)" class="SpaceDimensionsLabel"><g id="NameLabel" class="TextLabel NameLabel" style="display: block;"><text x="0" y="0em" fill="#000000" stroke="none" style="font-family: Verdana; font-size: 33px; fill-opacity: 1; cursor: default;">VILPOLA</text></g><g id="DimensionMeasureLabel" class="TextLabel DimensionMeasureLabel" style="display: none;" transform="matrix(1,0,0,1,-69.1953,79.4062)"><text x="42.1796875" y="-1.2em" fill="#000000" stroke="none" style="font-family: Verdana; font-size: 33px; fill-opacity: 1; cursor: default;">20'8" x 6'4"</text><text x="0" y="0em" fill="#000000" stroke="none" style="font-family: Verdana; font-size: 33px; fill-opacity: 1; cursor: default;">6.29 m x 1.94 m</text></g></g></g></g><g id="Wall" fill="#000000" stroke="#000000" style="fill-opacity: 1; stroke-opacity: 1; stroke-width: 0.2;" class="Wall External"><polygon points="765.07,169.57 765.07,896.21 750.07,881.21 750.07,184.57 "/><g id="Window" fill="#f0f0ff" stroke="#000000" style="fill-opacity: 1; stroke-width: 1; stroke-opacity: 1;" class="Window Regular"><polygon points="765.07,190.72 765.07,414.21 750.07,414.21 750.07,190.72 "/><g id="Glass" class="Glass"><polygon points="765.07,190.72 765.07,414.21 750.07,414.21 750.07,190.72 "/></g><g id="Panel" class="Panel"><line x1="757.5748042353786" x2="757.5748042353786" y1="198.22423951684556" y2="406.7103950144957"/><line x1="765.0748042353786" x2="750.0748042353786" y1="198.22423951684556" y2="198.22423951684556"/><line x1="765.0748042353786" x2="750.0748042353786" y1="406.7103950144957" y2="406.7103950144957"/></g></g><g id="Window" fill="#f0f0ff" stroke="#000000" style="fill-opacity: 1; stroke-width: 1; stroke-opacity: 1;" class="Window Regular"><polygon points="765.07,429.15 765.07,650.34 750.07,650.34 750.07,429.15 "/><g id="Glass" class="Glass"><polygon points="765.07,429.15 765.07,650.34 750.07,650.34 750.07,429.15 "/></g><g id="Panel" class="Panel"><line x1="757.5748042353786" x2="757.5748042353786" y1="436.64777301690935" y2="642.8358703603421"/><line x1="765.0748042353786" x2="750.0748042353786" y1="436.64777301690935" y2="436.64777301690935"/><line x1="765.0748042353786" x2="750.0748042353786" y1="642.8358703603421" y2="642.8358703603421"/></g></g><g id="Window" fill="#f0f0ff" stroke="#000000" style="fill-opacity: 1; stroke-width: 1; stroke-opacity: 1;" class="Window Regular"><polygon points="765.07,675.04 765.07,873.25 750.07,873.25 750.07,675.04 "/><g id="Glass" class="Glass"><polygon points="765.07,675.04 765.07,873.25 750.07,873.25 750.07,675.04 "/></g><g id="Panel" class="Panel"><line x1="757.5748042353786" x2="757.5748042353786" y1="682.53999551818" y2="865.7475113194379"/><line x1="765.0748042353786" x2="750.0748042353786" y1="682.53999551818" y2="682.53999551818"/><line x1="765.0748042353786" x2="750.0748042353786" y1="865.7475113194379" y2="865.7475113194379"/></g></g></g><g id="Wall" fill="#000000" stroke="#000000" style="fill-opacity: 1; stroke-opacity: 1; stroke-width: 0.2;" class="Wall External"><polygon points="135.70,896.21 135.70,654.40 153.61,654.40 153.61,877.89 "/></g><g id="Wall" fill="#000000" stroke="#000000" style="fill-opacity: 1; stroke-opacity: 1; stroke-width: 0.2;" class="Wall External"><polygon points="135.70,654.40 135.70,169.57 150.70,184.57 150.70,654.40 "/><g id="Window" fill="#f0f0ff" stroke="#000000" style="fill-opacity: 1; stroke-width: 1; stroke-opacity: 1;" class="Window Regular"><polygon points="135.70,624.80 135.70,487.93 150.70,487.93 150.70,624.80 "/><g id="Glass" class="Glass"><polygon points="135.70,624.80 135.70,487.93 150.70,487.93 150.70,624.80 "/></g><g id="Panel" class="Panel"><line x1="143.20462286152838" x2="143.20462286152835" y1="617.3029327781051" y2="495.43185728211216"/><line x1="135.70462286152838" x2="150.70462286152838" y1="617.3029327781051" y2="617.3029327781051"/><line x1="135.70462286152835" x2="150.70462286152835" y1="495.43185728211216" y2="495.43185728211216"/></g></g><g id="Window" fill="#f0f0ff" stroke="#000000" style="fill-opacity: 1; stroke-width: 1; stroke-opacity: 1;" class="Window Regular"><polygon points="135.70,406.17 135.70,264.26 150.70,264.26 150.70,406.17 "/><g id="Glass" class="Glass"><polygon points="135.70,406.17 135.70,264.26 150.70,264.26 150.70,406.17 "/></g><g id="Panel" class="Panel"><line x1="143.20462286152832" x2="143.20462286152832" y1="398.6671827083384" y2="271.76209168540885"/><line x1="135.70462286152832" x2="150.70462286152832" y1="398.6671827083384" y2="398.6671827083384"/><line x1="135.70462286152832" x2="150.70462286152832" y1="271.76209168540885" y2="271.76209168540885"/></g></g></g><g id="Wall" fill="#000000" stroke="#000000" style="fill-opacity: 1; stroke-opacity: 1; stroke-width: 0.2;" class="Wall External"><polygon points="135.70,169.57 765.07,169.57 750.07,184.57 150.70,184.57 "/></g><g id="Wall" fill="#000000" stroke="#000000" style="fill-opacity: 1; stroke-opacity: 1; stroke-width: 0.2;" class="Wall External"><polygon points="393.80,896.21 765.07,896.21 750.07,881.21 393.80,881.21 "/><g id="Window" fill="#f0f0ff" stroke="#000000" style="fill-opacity: 1; stroke-width: 1; stroke-opacity: 1;" class="Window Regular"><polygon points="401.07,896.21 490.45,896.21 490.45,881.21 401.07,881.21 "/><g id="Glass" class="Glass"><polygon points="401.07,896.21 490.45,896.21 490.45,881.21 401.07,881.21 "/></g><g id="Panel" class="Panel"><line x1="408.5747055838623" x2="482.95352360412323" y1="888.7122458340324" y2="888.7122458340324"/><line x1="408.5747055838623" x2="408.5747055838623" y1="896.2122458340324" y2="881.2122458340324"/><line x1="482.95352360412323" x2="482.95352360412323" y1="896.2122458340324" y2="881.2122458340324"/></g></g><g id="Door" fill="#ffffff" stroke="#000000" style="fill-opacity: 1; stroke-width: 1; stroke-opacity: 1;" class="Door Swing Beside"><polygon points="504.08,896.21 585.96,896.21 585.96,881.21 504.08,881.21 "/><g id="Threshold" class="Threshold"><polygon points="504.08,896.21 585.96,896.21 585.96,881.21 504.08,881.21 "/></g><g id="Panel" fill="none" style="" class="Panel Right Negative"><g id="PanelArea" fill="none" stroke="none" style="" class="PanelArea"><polygon points="504.08,896.21 585.96,896.21 585.96,881.21 504.08,881.21 "/></g><path d="M585.96,896.21 q0.00,81.88 -81.88,81.88 l0.00,-81.88Z"/></g></g><g id="Door" fill="#ffffff" stroke="#000000" style="fill-opacity: 1; stroke-width: 1; stroke-opacity: 1;" class="Door Swing Beside"><polygon points="633.80,896.21 712.26,896.21 712.26,881.21 633.80,881.21 "/><g id="Threshold" class="Threshold"><polygon points="633.80,896.21 712.26,896.21 712.26,881.21 633.80,881.21 "/></g><g id="Panel" fill="none" style="" class="Panel Left Negative"><g id="PanelArea" fill="none" stroke="none" style="" class="PanelArea"><polygon points="633.80,896.21 712.26,896.21 712.26,881.21 633.80,881.21 "/></g><path d="M633.80,896.21 q0.00,78.47 78.47,78.47 l0.00,-78.47Z"/></g></g></g><g id="Wall" fill="#000000" stroke="#000000" style="fill-opacity: 1; stroke-opacity: 1; stroke-width: 0.2;" class="Wall External"><polygon points="393.80,896.21 135.70,896.21 153.61,877.89 393.80,877.89 "/><g id="Window" fill="#f0f0ff" stroke="#000000" style="fill-opacity: 1; stroke-width: 1; stroke-opacity: 1;" class="Window Regular"><polygon points="378.01,896.21 287.78,896.21 287.78,877.89 378.01,877.89 "/><g id="Glass" class="Glass"><polygon points="378.01,896.21 287.78,896.21 287.78,877.89 378.01,877.89 "/></g><g id="Panel" class="Panel"><line x1="370.50758494050734" x2="295.275640021763" y1="887.051259059934" y2="887.051259059934"/><line x1="370.50758494050734" x2="370.50758494050734" y1="896.2122458340324" y2="877.8902722858354"/><line x1="295.275640021763" x2="295.275640021763" y1="896.2122458340324" y2="877.8902722858354"/></g></g></g><g id="Wall" fill="#000000" stroke="#000000" style="fill-opacity: 1; stroke-opacity: 1; stroke-width: 0.2;" class="Wall"><polygon points="421.35,572.14 421.35,594.28 405.96,594.28 405.96,572.14 "/></g><g id="Wall" fill="#000000" stroke="#000000" style="fill-opacity: 1; stroke-opacity: 1; stroke-width: 0.2;" class="Wall"><polygon points="421.31,594.28 421.31,669.76 349.17,654.43 349.17,594.28 "/></g><g id="Wall" fill="#000000" stroke="#000000" style="fill-opacity: 1; stroke-opacity: 1; stroke-width: 0.2;" class="Wall"><polygon points="349.17,654.43 135.70,654.43 135.70,669.76 421.31,669.76 "/></g><g id="Wall" fill="#000000" stroke="#000000" style="fill-opacity: 1; stroke-opacity: 1; stroke-width: 0.2;" class="Wall"><polygon points="349.17,669.76 480.53,669.76 480.53,654.74 349.17,654.74 "/></g><g id="Wall" fill="#000000" stroke="#000000" style="fill-opacity: 1; stroke-opacity: 1; stroke-width: 0.2;" class="Wall"><polygon points="480.53,669.76 765.07,669.76 765.07,654.76 480.53,654.76 "/><g id="Door" fill="#ffffff" stroke="#000000" style="fill-opacity: 1; stroke-width: 1; stroke-opacity: 1;" class="Door Swing Beside"><polygon points="633.15,669.76 708.28,669.76 708.28,654.76 633.15,654.76 "/><g id="Threshold" class="Threshold"><polygon points="633.15,669.76 708.28,669.76 708.28,654.76 633.15,654.76 "/></g><g id="Panel" fill="none" style="" class="Panel Left Negative"><g id="PanelArea" fill="none" stroke="none" style="" class="PanelArea"><polygon points="633.15,669.76 708.28,669.76 708.28,654.76 633.15,654.76 "/></g><path d="M633.15,669.76 q0.00,75.13 75.13,75.13 l0.00,-75.13Z"/></g></g></g><g id="Wall" fill="#000000" stroke="#000000" style="fill-opacity: 1; stroke-opacity: 1; stroke-width: 0.2;" class="Wall"><polygon points="393.96,669.76 394.80,896.21 379.80,896.26 378.96,669.81 "/><g id="Door" fill="#ffffff" stroke="#000000" style="fill-opacity: 1; stroke-width: 1; stroke-opacity: 1;" class="Door Swing Beside"><polygon points="394.33,768.85 394.57,834.23 379.57,834.29 379.33,768.90 "/><g id="Threshold" class="Threshold"><polygon points="394.33,768.85 394.57,834.23 379.57,834.29 379.33,768.90 "/></g><g id="Panel" fill="none" style="" class="Panel Right Positive"><g id="PanelArea" fill="none" stroke="none" style="" class="PanelArea"><polygon points="394.33,768.85 394.57,834.23 379.57,834.29 379.33,768.90 "/></g><path d="M379.33,768.90 q-65.39,0.24 -65.14,65.63 l65.39,-0.24Z"/></g></g></g><g id="Wall" fill="#000000" stroke="#000000" style="fill-opacity: 1; stroke-opacity: 1; stroke-width: 0.2;" class="Wall"><polygon points="608.86,669.76 608.86,896.21 593.86,896.21 593.86,669.76 "/></g><g id="Wall" fill="#000000" stroke="#000000" style="fill-opacity: 1; stroke-opacity: 1; stroke-width: 0.2;" class="Wall"><polygon points="405.96,491.06 405.96,355.01 420.96,355.01 420.96,491.06 "/></g><g id="Wall" fill="#000000" stroke="#000000" style="fill-opacity: 1; stroke-opacity: 1; stroke-width: 0.2;" class="Wall"><polygon points="405.96,291.62 405.96,169.57 420.96,169.57 420.96,291.62 "/></g><g id="Wall" fill="#000000" stroke="#000000" style="fill-opacity: 1; stroke-opacity: 1; stroke-width: 0.2;" class="Wall"><polygon points="405.96,414.10 135.70,414.10 135.70,428.33 405.96,428.33 "/></g><g class="FixedFurniture SaunaBench" transform="matrix(0,-1,1,0,153.7364,877.8902)" style="fill-opacity: 1; stroke-opacity: 1;" fill="#ffffff" stroke="#000000">
            <g class="BoundaryPolygon" fill="rgb(255, 255, 255)" stroke="rgb(0, 0, 0)">
                <polygon points="0.00,0.00 208.19,0.00 208.19,86.44 0.00,86.44 "/> 
            </g>
            <g class="Bench" fill="rgb(255, 255, 255)" stroke="rgb(154, 154, 154)" stroke-width="0.5">
                <line x1="0" y1="5.762876756415068" x2="208.1878438675565" y2="5.762876756415068"/>
                <line x1="0" y1="11.525753512830136" x2="208.1878438675565" y2="11.525753512830136"/>
                <line x1="0" y1="17.2886302692452" x2="208.1878438675565" y2="17.2886302692452"/>
                <line x1="0" y1="23.05150702566027" x2="208.1878438675565" y2="23.05150702566027"/>
                <line x1="0" y1="28.814383782075346" x2="208.1878438675565" y2="28.814383782075346"/>
                <line x1="0" y1="34.5772605384904" x2="208.1878438675565" y2="34.5772605384904"/>
                <line x1="0" y1="40.340137294905475" x2="208.1878438675565" y2="40.340137294905475"/>
                <line x1="0" y1="46.10301405132054" x2="208.1878438675565" y2="46.10301405132054"/>
                <line x1="0" y1="51.86589080773562" x2="208.1878438675565" y2="51.86589080773562"/>
                <line x1="0" y1="57.62876756415069" x2="208.1878438675565" y2="57.62876756415069"/>
                <line x1="0" y1="63.391644320565746" x2="208.1878438675565" y2="63.391644320565746"/>
                <line x1="0" y1="69.1545210769808" x2="208.1878438675565" y2="69.1545210769808"/>
                <line x1="0" y1="74.91739783339591" x2="208.1878438675565" y2="74.91739783339591"/>
                <line x1="0" y1="80.68027458981095" x2="208.1878438675565" y2="80.68027458981095"/>
            </g>
        <g class="Direction" fill-opacity="0.9" style="display: none;">
            <polygon points="107.37,78.74 107.37,68.13 104.36,68.13 104.36,78.74 100.56,78.74 105.86,84.05 111.16,78.74 107.37,78.74 " fill="#444444"/>
        </g> 
        <g class="Name" fill-opacity="0.9" style="display: none;">
            <text transform="translate(3 12)" font-size="12" font-family="Verdana, Sans-Serif">SB_HIGH</text>
        </g>
            <desc>Width:185 Height:5 Depth:60 Elevation:105</desc>
        </g><g class="FixedFurniture SaunaBench" transform="matrix(0,-1,1,0,240.3045,877.8903)" style="fill-opacity: 1; stroke-opacity: 1;" fill="#ffffff" stroke="#000000">
            <g class="BoundaryPolygon" fill="rgb(255, 255, 255)" stroke="rgb(0, 0, 0)">
                <polygon points="0.00,0.00 208.33,0.00 208.33,40.93 0.00,40.93 "/>
            </g>
            <g class="Bench" fill="rgb(255, 255, 255)" stroke="rgb(154, 154, 154)" stroke-width="0.5">
                <line x1="0" y1="4.093038025627183" x2="208.33219236431694" y2="4.093038025627183"/>
                <line x1="0" y1="8.186076051254366" x2="208.33219236431694" y2="8.186076051254366"/>
                <line x1="0" y1="12.27911407688155" x2="208.33219236431694" y2="12.27911407688155"/>
                <line x1="0" y1="16.372152102508732" x2="208.33219236431694" y2="16.372152102508732"/>
                <line x1="0" y1="20.465190128135912" x2="208.33219236431694" y2="20.465190128135912"/>
                <line x1="0" y1="24.5582281537631" x2="208.33219236431694" y2="24.5582281537631"/>
                <line x1="0" y1="28.65126617939028" x2="208.33219236431694" y2="28.65126617939028"/>
                <line x1="0" y1="32.744304205017464" x2="208.33219236431694" y2="32.744304205017464"/>
                <line x1="0" y1="36.83734223064465" x2="208.33219236431694" y2="36.83734223064465"/>
            </g>
        <g class="Direction" fill-opacity="0.9" style="display: none;">
            <polygon points="105.87,35.46 105.87,24.85 102.86,24.85 102.86,35.46 99.05,35.46 104.36,40.77 109.66,35.46 105.87,35.46 " fill="#444444"/>
        </g> 
        <g class="Name" fill-opacity="0.9" style="display: none;">
            <text transform="translate(3 12)" font-size="12" font-family="Verdana, Sans-Serif">SB_MID</text>
        </g>
            <desc>Width:185 Height:5 Depth:40 Elevation:60</desc>
        </g><g class="FixedFurniture SaunaBench" transform="matrix(0,-1,1,0,281.2349,872.3601)" style="fill-opacity: 1; stroke-opacity: 1;" fill="#ffffff" stroke="#000000">
            <g class="BoundaryPolygon" fill="rgb(255, 255, 255)" stroke="rgb(0, 0, 0)">
                <polygon points="0.00,0.00 103.80,0.00 103.80,37.87 0.00,37.87 "/>
            </g>
            <g class="Bench" fill="rgb(255, 255, 255)" stroke="rgb(154, 154, 154)" stroke-width="0.5">
                <line x1="0" y1="3.7866283277154364" x2="103.80230033707386" y2="3.7866283277154364"/>
                <line x1="0" y1="7.573256655430873" x2="103.80230033707386" y2="7.573256655430873"/>
                <line x1="0" y1="11.359884983146308" x2="103.80230033707386" y2="11.359884983146308"/>
                <line x1="0" y1="15.146513310861746" x2="103.80230033707386" y2="15.146513310861746"/>
                <line x1="0" y1="18.933141638577183" x2="103.80230033707386" y2="18.933141638577183"/>
                <line x1="0" y1="22.719769966292617" x2="103.80230033707386" y2="22.719769966292617"/>
                <line x1="0" y1="26.50639829400805" x2="103.80230033707386" y2="26.50639829400805"/>
                <line x1="0" y1="30.29302662172349" x2="103.80230033707386" y2="30.29302662172349"/>
                <line x1="0" y1="34.079654949438925" x2="103.80230033707386" y2="34.079654949438925"/>
            </g>
        <g class="Direction" fill-opacity="0.9" style="display: none;">
            <polygon points="53.68,32.81 53.68,22.19 50.67,22.19 50.67,32.81 46.87,32.81 52.17,38.11 57.47,32.81 53.68,32.81 " fill="#444444"/>
        </g> 
        <g class="Name" fill-opacity="0.9" style="display: none;">
            <text transform="translate(3 12)" font-size="12" font-family="Verdana, Sans-Serif">SB_LOW</text>
        </g>
            <desc>Width:91 Height:5 Depth:40 Elevation:30</desc>
        </g><g class="FixedFurniture ElectricalAppliance SaunaStove Round" transform="matrix(0,1.3484,-1.2794,0,365.5561,679.3792)" style="fill-opacity: 1; stroke-opacity: 1;" fill="#ffffff" stroke="#000000"> 
	   <g class="BoundaryPolygon" fill="rgb(255, 255, 255)" stroke="rgb(0, 0, 0)"> 
           <circle cx="20.5" cy="20.5" r="20"/>
		</g>
	   <g class="electricitySign" fill="none" stroke="rgb(0, 0, 0)">
		<polyline points="2.5 30.5 30.5 20.5 10.5 20.5 38.5 10.5"/>
		</g>
        <g class="Name" fill-opacity="0.9" style="display: none;">
            <text transform="translate(10 12)" font-size="12" font-family="Verdana, Sans-Serif">SS</text>
        </g>
        <desc>Width:60 Height:60 Depth:35 Elevation:20</desc>
	</g><g id="Wall" fill="#000000" stroke="#000000" style="fill-opacity: 1; stroke-opacity: 1; stroke-width: 0.2;" class="Wall"><polygon points="303.60,669.76 303.60,758.11 288.60,758.11 288.60,669.76 "/></g><g class="FixedFurniture BaseCabinet" transform="matrix(1,0,0,1,394.0691,669.8724)" style="fill-opacity: 1; stroke-opacity: 1;" fill="#ffffff" stroke="#000000">
            <g class="BoundaryPolygon" fill="rgb(255, 255, 255)" stroke="rgb(0, 0, 0)">
                <polygon points="0.00,0.00 199.62,0.00 199.62,55.94 0.00,55.94 "/>
            </g>
            <g class="Direction" fill-opacity="0.9" style="display: none;">
                <polygon points="106.50,51.46 106.50,40.85 103.49,40.85 103.49,51.46 99.68,51.46 104.99,56.27 110.29,51.46 106.50,51.46 " fill="#444444"/>
            </g> 
            <g class="Name" fill-opacity="0.9" style="display: none;">
                <text transform="translate(3 12)" font-size="12" font-family="Verdana, Sans-Serif">CB</text>
            </g>
            <desc>Width:60 Height:90 Depth:60 Elevation:0</desc>
        </g><g class="FixedFurniture BaseCabinet" transform="matrix(-1,0,0,-1,349.1653,654.3002)" style="fill-opacity: 1; stroke-opacity: 1;" fill="#ffffff" stroke="#000000">
            <g class="BoundaryPolygon" fill="rgb(255, 255, 255)" stroke="rgb(0, 0, 0)">
                <polygon points="0.00,0.00 198.34,0.00 198.34,60.00 0.00,60.00 "/>
            </g>
            <g class="Direction" fill-opacity="0.9" style="display: none;">
                <polygon points="105.81,55.20 105.81,44.58 102.80,44.58 102.80,55.20 99.00,55.20 104.30,60.00 109.60,55.20 105.81,55.20 " fill="#444444"/>
            </g> 
            <g class="Name" fill-opacity="0.9" style="display: none;">
                <text transform="translate(3 12)" font-size="12" font-family="Verdana, Sans-Serif">CB</text>
            </g>
            <desc>Width:60 Height:90 Depth:60 Elevation:0</desc>
        </g><g class="FixedFurniture Sink" transform="matrix(-1,0,0,-1,251.6859,655.9742)" style="fill-opacity: 1; stroke-opacity: 1;" fill="#ffffff" stroke="#000000">
            <g class="InnerPolygon" fill="rgb(255, 255, 255)" stroke="rgb(0, 0, 0)">
                <polygon points="5.00,9.70 40.48,9.70 40.48,50.64 5.00,50.64 "/>
            </g>
            <g class="OuterDrain" fill="rgb(255, 255, 255)" stroke="rgb(0, 0, 0)" stroke-width="0.8">
                <circle cx="22.08207172002323" cy="29.811722706012137" r="3.5"/>
            </g>
            <g class="InnerDrain" fill="rgb(255, 255, 255)" stroke="rgb(0, 0, 0)" stroke-width="0.8">
                <circle cx="22.08207172002323" cy="29.811722706012137" r="2"/>
            </g>
            <g class="Faucet" fill="rgb(255, 255, 255)" stroke="rgb(0, 0, 0)">
                <polygon points="19.87,4.63 25.87,4.63 25.87,18.63 19.87,18.63 "/>
            </g>
           <g class="Direction" fill-opacity="0.9" style="display: none;">
                <polygon points="23.56,51.10 23.56,40.49 20.55,40.49 20.55,51.10 16.75,51.10 22.05,55.91 27.35,51.10 23.56,51.10 " fill="#444444"/>
            </g> 
            <g class="Name" fill-opacity="0.9" style="display: none;">
                <text transform="translate(3 12)" font-size="12" font-family="Verdana, Sans-Serif">SINK</text>
            </g>
            <desc>Width:60 Height:90 Depth:60 Elevation:0</desc>
        </g><g class="FixedFurniture ElectricalAppliance IntegratedStove" transform="matrix(-1,0,0,-1,351.1653,656.0802)" style="fill-opacity: 1; stroke-opacity: 1;" fill="#ffffff" stroke="#000000">
            <g class="BoundaryPolygon" fill="rgb(255, 255, 255)" stroke="rgb(0, 0, 0)">
                <polygon points="2.00,2.00 57.63,2.00 57.63,61.63 2.00,61.63 "/>
            </g>
            <g class="OuterCircle" fill="rgb(255, 255, 255)" stroke="rgb(0, 0, 0)" stroke-width="0.8">
                <circle cx="15.897112765980452" cy="17.00224496252757" r="8"/>
                <circle cx="43.71706010644624" cy="17.00224496252757" r="8"/>
                <circle cx="15.897112765980452" cy="46.64990961593501" r="8"/>
                <circle cx="43.71706010644624" cy="46.7561736469508" r="8"/>
            </g>
             <g class="Direction" fill-opacity="0.9" style="display: none;">
                <polygon points="31.80,58.65 31.80,48.04 28.79,48.04 28.79,58.65 24.99,58.65 30.29,63.46 35.60,58.65 31.80,58.65 " fill="#444444"/>
            </g> 
            <g class="Name" fill-opacity="0.9" style="display: none;">
                <text transform="translate(3 12)" font-size="12" font-family="Verdana, Sans-Serif">INT_STOVE</text>
            </g>
            <desc>Width:60 Height:90 Depth:30 Elevation:0</desc>
        </g><g class="FixedFurniture WallCabinet" transform="matrix(-1,0,0,-1,293.3498,654.2846)" style="fill-opacity: 0.7; stroke-opacity: 1;" fill="#ffffff" stroke="#000000">	
        <g class="BoundaryPolygon" fill="rgb(255, 255, 255)" stroke="rgb(0, 0, 0)">
                <polygon points="0.00,0.00 142.52,0.00 142.52,25.23 0.00,25.23 "/>
        </g>
        <g class="Direction" fill-opacity="0.9" style="display: none;">
                <polygon points="76.03,21.19 76.03,10.57 73.02,10.57 73.02,21.19 69.22,21.19 74.52,25.99 79.83,21.19 76.03,21.19 " fill="#444444"/>
        </g> 
        <g class="Name" fill-opacity="0.9" style="display: none;">
                <text transform="translate(3 12)" font-size="12" font-family="Verdana, Sans-Serif">UC</text>
        </g>
        <desc>Width:60 Height:60 Depth:50 Elevation:140</desc>
        </g><g class="FixedFurniture BaseCabinet" transform="matrix(1,0,0,1,250.5893,428.3889)" style="fill-opacity: 1; stroke-opacity: 1;" fill="#ffffff" stroke="#000000">
            <g class="BoundaryPolygon" fill="rgb(255, 255, 255)" stroke="rgb(0, 0, 0)">
                <polygon points="0.00,0.00 155.44,0.00 155.44,51.10 0.00,51.10 "/>
            </g>
            <g class="Direction" fill-opacity="0.9" style="display: none;">
                <polygon points="82.93,47.01 82.93,36.39 79.92,36.39 79.92,47.01 76.12,47.01 81.42,51.81 86.72,47.01 82.93,47.01 " fill="#444444"/>
            </g> 
            <g class="Name" fill-opacity="0.9" style="display: none;">
                <text transform="translate(3 12)" font-size="12" font-family="Verdana, Sans-Serif">CB</text>
            </g>
            <desc>Width:60 Height:90 Depth:60 Elevation:0</desc>
        </g><g class="FixedFurniture WallCabinet" transform="matrix(1,0,0,1,250.5894,428.4983)" style="fill-opacity: 0.7; stroke-opacity: 1;" fill="#ffffff" stroke="#000000">	
        <g class="BoundaryPolygon" fill="rgb(255, 255, 255)" stroke="rgb(0, 0, 0)">
                <polygon points="0.00,0.00 155.51,0.00 155.51,23.20 0.00,23.20 "/>
        </g>
        <g class="Direction" fill-opacity="0.9" style="display: none;">
                <polygon points="82.96,19.49 82.96,8.87 79.96,8.87 79.96,19.49 76.15,19.49 81.46,24.29 86.76,19.49 82.96,19.49 " fill="#444444"/>
        </g> 
        <g class="Name" fill-opacity="0.9" style="display: none;">
                <text transform="translate(3 12)" font-size="12" font-family="Verdana, Sans-Serif">UC</text>
        </g>
        <desc>Width:60 Height:60 Depth:50 Elevation:140</desc>
        </g><g id="Railing" fill="#ffffff" stroke="#000000" style="fill-opacity: 1; stroke-opacity: 1; stroke-width: 0.2;" class="Railing"><polygon points="135.70,896.21 135.70,1089.95 143.70,1082.95 143.70,896.21 " style="stroke-dasharray: 193.741, 10.6301, 194.741;"/></g><g id="Railing" fill="#ffffff" stroke="#000000" style="fill-opacity: 1; stroke-opacity: 1; stroke-width: 0.2;" class="Railing"><polygon points="135.70,1089.95 598.02,1089.95 598.02,1082.95 143.70,1082.95 " style="stroke-dasharray: 923.636, 10.6301;"/></g><g id="Railing" fill="#ffffff" stroke="#000000" style="fill-opacity: 1; stroke-opacity: 1; stroke-width: 0.2;" class="Railing"><polygon points="733.05,1089.95 764.07,1089.95 757.10,1082.95 733.05,1082.95 " style="stroke-dasharray: 31.0179, 9.87385, 31.0542;"/></g><g id="Railing" fill="#ffffff" stroke="#000000" style="fill-opacity: 1; stroke-opacity: 1; stroke-width: 0.2;" class="Railing"><polygon points="764.07,1089.95 765.07,896.21 758.07,896.18 757.10,1082.95 " style="stroke-dasharray: 387.524, 9.87385;"/></g><g id="Column" fill="#000000" stroke="none" style="fill-opacity: 1;" class="Column Rectangle"><polygon points="135.70,1089.95 164.34,1089.95 164.34,1063.95 135.70,1063.95 "/></g><g id="Column" fill="#000000" stroke="none" style="fill-opacity: 1;" transform="matrix(1,0,0,1,0,0)" class="Column Rectangle"><polygon points="735.49,1089.96 764.13,1089.96 764.13,1063.96 735.49,1063.96 "/></g><g class="FixedFurniture ElectricalAppliance Refrigerator" transform="matrix(0.8344,0,0,0.8547,200.5254,428.3661)" style="fill-opacity: 1; stroke-opacity: 1;" fill="#ffffff" stroke="#000000">
            <g class="BoundaryPolygon" fill="rgb(255, 255, 255)" stroke="rgb(0, 0, 0)">
                <polygon points="0,0 60,0 60,60 0,60"/>
            </g>
            <g class="electricitySign" fill="none" stroke="rgb(0, 0, 0)">
                    <path d="M0,0,30,37.1v-18L60,56.3"/>
            </g>
            <g class="Doors" fill="rgb(255, 255, 255)" stroke="rgb(0, 0, 0)">
                <rect y="56" width="60" height="4"/>
            </g>
             <g class="Direction" fill-opacity="0.9" style="display: none;">
                <polygon points="32.009 55.197 32.009 44.581 29 44.581 29 55.197 25.197 55.197 30.5 60 35.803 55.197 32.009 55.197" fill="#444444"/>
             </g> 
             <g class="Name" fill-opacity="0.9" style="display: none;">
                <text transform="translate(3 12)" font-size="12" font-family="Verdana, Sans-Serif">REF</text>
             </g>
            <desc>Width:60 Height:170 Depth:60 Elevation:0</desc>
        </g><g class="FixedFurniture ElectricalAppliance Refrigerator" transform="matrix(0.8323,0,0,0.8547,150.5874,428.3932)" style="fill-opacity: 1; stroke-opacity: 1;" fill="#ffffff" stroke="#000000">
            <g class="BoundaryPolygon" fill="rgb(255, 255, 255)" stroke="rgb(0, 0, 0)">
                <polygon points="0,0 60,0 60,60 0,60"/>
            </g>
            <g class="electricitySign" fill="none" stroke="rgb(0, 0, 0)">
                    <path d="M0,0,30,37.1v-18L60,56.3"/>
            </g>
            <g class="Doors" fill="rgb(255, 255, 255)" stroke="rgb(0, 0, 0)">
                <rect y="56" width="60" height="4"/>
            </g>
             <g class="Direction" fill-opacity="0.9" style="display: none;">
                <polygon points="32.009 55.197 32.009 44.581 29 44.581 29 55.197 25.197 55.197 30.5 60 35.803 55.197 32.009 55.197" fill="#444444"/>
             </g> 
             <g class="Name" fill-opacity="0.9" style="display: none;">
                <text transform="translate(3 12)" font-size="12" font-family="Verdana, Sans-Serif">REF</text>
             </g>
            <desc>Width:60 Height:170 Depth:60 Elevation:0</desc>
        </g><g class="FixedFurniture CoatCloset" transform="matrix(1,0,0,1,348.0128,184.5676)" style="fill-opacity: 1; stroke-opacity: 1;" fill="#ffffff" stroke="#000000">
        <g class="BoundaryPolygon" fill="rgb(255, 255, 255)" stroke="rgb(0, 0, 0)">
                <polygon points="0.00,0.00 57.95,0.00 57.95,67.51 0.00,67.51 "/>
            </g>
        <g class="Hanger" fill="rgb(255, 255, 255)" stroke="rgb(154, 154, 154)" stroke-dasharray="5,5">
            <line x1="0" y1="33.75309688544153" x2="57.94965758218635" y2="33.75309688544153"/>
            </g>
        <g class="Direction" fill-opacity="0.9" style="display: none;">
            <polygon points="30.43,61.54 30.43,50.92 27.42,50.92 27.42,61.54 23.62,61.54 28.92,66.84 34.23,61.54 30.43,61.54 " fill="#444444"/>
        </g> 
        <g class="Name" fill-opacity="0.9" style="display: none;">
            <text transform="translate(3 12)" font-size="12" font-family="Verdana, Sans-Serif">CWH</text>
        </g>
        <desc>Width:60 Height:200 Depth:60 Elevation:0</desc>
     </g><g class="FixedFurniture Fireplace" transform="matrix(0,-1.08,1,0,421.3527,654.7368)" style="fill-opacity: 1; stroke-opacity: 1;" fill="#ffffff" stroke="#000000">     
	   <g class="BoundaryPolygon" fill="rgb(255, 255, 255)" stroke="none"> 
		<polygon points="0,0 75,0 75,60 0,60"/> 
		</g>
		
	   <g class="Lines" fill="none" stroke="rgb(76, 76, 76)"> 
		    <line x1="0.629" y1="9.556" x2="51.294" y2="60.205"/>
            <line x1="0.598" y1="25.167" x2="35.942" y2="60.5"/>
            <line x1="0.5" y1="40.841" x2="20.479" y2="60.5"/>
            <line x1="40.648" y1="0.5" x2="75.432" y2="35.274"/>
            <line x1="8.329" y1="0.5" x2="68.348" y2="60.5"/>
            <line x1="24.88" y1="0.5" x2="75.5" y2="51.104"/>
            <line x1="56.774" y1="0.5" x2="75.5" y2="19.22"/>
		</g>
		
	   <g class="OverlayPolygon" fill="none" stroke="rgb(0, 0, 0)"> 
		<polygon points="0.5 60.5 75.5 60.5 75.5 0.5 0.5 0.5 0.5 60.5"/>  
		</g>
		
	   <g class="FireBox" fill="rgb(255, 255, 255)" stroke="rgb(0, 0, 0)">	
		<rect x="22.053" y="19.92" width="32.571" height="40.58"/>
	   </g>
        <g class="Direction" fill-opacity="0.9" style="display: none;">
            <polygon points="39.409 54.797 39.409 44.181 36.4 44.181 36.4 54.797 32.597 54.797 37.9 60.1 43.203 54.797 39.409 54.797" fill="#444444"/>
        </g> 
        <g class="Name" fill-opacity="0.9" style="display: none;">
            <text transform="translate(3 12)" font-size="12" font-family="Verdana, Sans-Serif">FP</text>
        </g>
    <desc>Width:75 Height:120 Depth:60 Elevation:0</desc>
    </g><g fill="#0000ff" stroke="#0000ff" style="display: block;" class="SelectionControls"><g class="rotateControl" style="display: block;"><circle cx="279.4366353615284" cy="483.02718008353304" r="5" style="stroke : none; fill-opacity: 0.5; cursor:crosshair"/></g><g class="ResizeNControl" style="display: none;"><circle cx="0" cy="0" r="5" style="stroke : none; fill-opacity: 0.5"/></g><g class="ResizeNEControl" style="display: none;"><circle cx="0" cy="0" r="5" style="stroke : none; fill-opacity: 0.5"/></g><g class="ResizeEControl" style="display: none;"><circle cx="0" cy="0" r="5" style="stroke : none; fill-opacity: 0.5"/></g><g class="ResizeSEControl" style="display: none;"><circle cx="0" cy="0" r="5" style="stroke : none; fill-opacity: 0.5"/></g><g class="ResizeSControl" style="display: none;"><circle cx="0" cy="0" r="5" style="stroke : none; fill-opacity: 0.5"/></g><g class="ResizeSWControl" style="display: none;"><circle cx="0" cy="0" r="5" style="stroke : none; fill-opacity: 0.5"/></g><g class="ResizeWControl" style="display: none;"><circle cx="0" cy="0" r="5" style="stroke : none; fill-opacity: 0.5"/></g><g class="ResizeNWControl" style="display: none;"><circle cx="0" cy="0" r="5" style="stroke : none; fill-opacity: 0.5"/></g><g class="removeControl" style="display: block;"><polygon style="stroke : none; fill-opacity: 0.1" points="267.99,513.03 290.88,513.03 290.88,552.89 267.99,552.89 "/></g><g class="copyPasteControl" style="display: none;"><polygon style="stroke : none; fill-opacity: 0.1"/></g><g class="translateControl" style="display: block;"><polygon style="stroke : none; fill-opacity: 0.1; cursor:move" points="267.99,513.03 290.88,513.03 290.88,552.89 267.99,552.89 "/></g></g><g fill="#0000ff" stroke="#0000ff" style="display: block;" class="SelectionControls"><polygon fill="none" stroke="#0000ff" style="" points="150.70,428.33 420.96,428.33 420.96,654.43 150.70,654.43 "/><g class="rotateControl" style="display: block;"><circle cx="285.83366644062994" cy="398.326405083533" r="5" style="stroke : none; fill-opacity: 0.5; cursor:crosshair"/></g><g class="ResizeNControl" style="display: none;"><circle cx="0" cy="0" r="5" style="stroke : none; fill-opacity: 0.5"/></g><g class="ResizeNEControl" style="display: none;"><circle cx="0" cy="0" r="5" style="stroke : none; fill-opacity: 0.5"/></g><g class="ResizeEControl" style="display: none;"><circle cx="0" cy="0" r="5" style="stroke : none; fill-opacity: 0.5"/></g><g class="ResizeSEControl" style="display: none;"><circle cx="0" cy="0" r="5" style="stroke : none; fill-opacity: 0.5"/></g><g class="ResizeSControl" style="display: none;"><circle cx="0" cy="0" r="5" style="stroke : none; fill-opacity: 0.5"/></g><g class="ResizeSWControl" style="display: none;"><circle cx="0" cy="0" r="5" style="stroke : none; fill-opacity: 0.5"/></g><g class="ResizeWControl" style="display: none;"><circle cx="0" cy="0" r="5" style="stroke : none; fill-opacity: 0.5"/></g><g class="ResizeNWControl" style="display: none;"><circle cx="0" cy="0" r="5" style="stroke : none; fill-opacity: 0.5"/></g><g class="removeControl" style="display: none;"><polygon style="stroke : none; fill-opacity: 0.1"/></g><g class="copyPasteControl" style="display: none;"><polygon style="stroke : none; fill-opacity: 0.1"/></g><g class="translateControl" style="display: none;"><polygon style="stroke : none; fill-opacity: 0.1; cursor:move"/></g></g></g></g></g></svg>
