<?xml version="1.0"?>
<svg xmlns="http://www.w3.org/2000/svg" xmlns:xlink="http://www.w3.org/1999/xlink" height="873.3699645996094" version="1.1" width="1428.0133819580078" id="temp" viewBox="0 0 1428.0133819580078 873.3699645996094"><desc>Powered by CubiCasa</desc><defs/><g id="Model" class="Model v1-1"><g class="Floor"><g id="Floor-1" class="Floorplan Floor-1"><g id="9743b9f1-baf1-4200-be9e-9ee9cd730934" fill="#ffffff" stroke="#ffffff" style="fill-opacity: 1; stroke-opacity: 1; stroke-width: 0.2;" class="Space UserDefined"><polygon points="341.29,506.13 154.42,506.27 154.42,197.41 445.79,197.46 445.79,459.00 341.76,459.00 341.29,506.13 341.29,506.13 "/><g transform="matrix(1,0,0,1,154.4218,197.4354)" class="Dimension"><g transform="matrix(1,0,0,1,0,0)" style="display: none;" class="Visual"><g id="mark1" fill="#000000" stroke="none" transform="matrix(1,0,0,1,145.6827,0)" style="fill-opacity: 1; pointer-events: visible;" class="DimensionMark"><polygon points="-5,5,0,0,5,5"/></g><g id="mark2" fill="#000000" stroke="none" transform="matrix(1,0,0,1,291.3655,154.4048)" style="fill-opacity: 1; pointer-events: visible;" class="DimensionMark"><polygon points="-5,-5,0,0,-5,5"/></g><g id="mark3" fill="#000000" stroke="none" transform="matrix(1,0,0,1,145.6827,308.7277)" style="fill-opacity: 1; pointer-events: visible;" class="DimensionMark"><polygon points="-5,-5,0,0,5,-5"/></g><g id="mark4" fill="#000000" stroke="none" transform="matrix(1,0,0,1,0,154.4048)" style="fill-opacity: 1; pointer-events: visible;" class="DimensionMark"><polygon points="5,5,0,0,5,-5"/></g></g><g transform="matrix(1,0,0,1,94.2672,161.7906)" class="SpaceDimensionsLabel"><g id="NameLabel" style="display: block;" class="TextLabel NameLabel"><text x="0" y="0em" fill="#000000" stroke="none" style="font-family: Verdana; font-size: 33px; fill-opacity: 1; cursor: default;">HALOT</text></g><g id="DimensionMeasureLabel" transform="matrix(1,0,0,1,-83.8359,79.5312)" style="display: none;" class="TextLabel DimensionMeasureLabel"><text x="42.171875" y="-1.2em" fill="#000000" stroke="none" style="font-family: Verdana; font-size: 33px; fill-opacity: 1; cursor: default;">9'7" x 10'2"</text><text x="0" y="0em" fill="#000000" stroke="none" style="font-family: Verdana; font-size: 33px; fill-opacity: 1; cursor: default;">2.91 m x 3.09 m</text></g></g></g></g><g id="0798290e-a88d-42bc-ba88-2fad0bc035dc" fill="#ffffff" stroke="#000000" style="fill-opacity: 1; stroke-opacity: 1; stroke-width: 0.2;" class="Space Outdoor"><polygon points="565.95,723.51 565.95,776.30 702.13,776.30 702.13,722.77 565.95,723.51 "/><g transform="matrix(1,0,0,1,565.9519,723.1401)" class="Dimension"><g transform="matrix(1,0,0,1,0,0)" style="display: none;" class="Visual"><g id="mark1" fill="#000000" stroke="none" transform="matrix(1,0,0,1,68.0885,0)" style="fill-opacity: 1; pointer-events: visible;" class="DimensionMark"><polygon points="-5,5,0,0,5,5"/></g><g id="mark2" fill="#000000" stroke="none" transform="matrix(1,0,0,1,136.1731,26.3954)" style="fill-opacity: 1; pointer-events: visible;" class="DimensionMark"><polygon points="-5,-5,0,0,-5,5"/></g><g id="mark3" fill="#000000" stroke="none" transform="matrix(1,0,0,1,68.0885,53.1571)" style="fill-opacity: 1; pointer-events: visible;" class="DimensionMark"><polygon points="-5,-5,0,0,5,-5"/></g><g id="mark4" fill="#000000" stroke="none" transform="matrix(1,0,0,1,0,26.3954)" style="fill-opacity: 1; pointer-events: visible;" class="DimensionMark"><polygon points="5,5,0,0,5,-5"/></g></g><g transform="matrix(1,0,0,1,68.2429,26.5781)" class="SpaceDimensionsLabel"><g id="NameLabel" style="display: block;" class="TextLabel NameLabel"><text x="0" y="0em" fill="#000000" stroke="none" style="font-family: Verdana; font-size: 33px; fill-opacity: 1; cursor: default;">ULKOTILA</text></g><g id="DimensionMeasureLabel" transform="matrix(1,0,0,1,-56.75,79.6406)" style="display: none;" class="TextLabel DimensionMeasureLabel"><text x="52.671875" y="-1.2em" fill="#000000" stroke="none" style="font-family: Verdana; font-size: 33px; fill-opacity: 1; cursor: default;">4'6" x 1'9"</text><text x="0" y="0em" fill="#000000" stroke="none" style="font-family: Verdana; font-size: 33px; fill-opacity: 1; cursor: default;">1.36 m x 0.53 m</text></g></g></g></g><g id="bb1f5703-d091-43cf-888b-f53ddcf5d6b9" fill="#ffffff" stroke="#000000" style="fill-opacity: 1; stroke-opacity: 1; stroke-width: 0.2;" class="Space Outdoor"><polygon points="445.79,509.27 445.79,459.46 341.59,459.46 341.59,506.94 445.79,509.27 "/><g transform="matrix(1,0,0,1,341.5949,459.4611)" class="Dimension"><g transform="matrix(1,0,0,1,0,0)" style="display: none;" class="Visual"><g id="mark1" fill="#000000" stroke="none" transform="matrix(1,0,0,1,52.1221,0)" style="fill-opacity: 1; pointer-events: visible;" class="DimensionMark"><polygon points="-5,5,0,0,5,5"/></g><g id="mark2" fill="#000000" stroke="none" transform="matrix(1,0,0,1,104.1924,24.9027)" style="fill-opacity: 1; pointer-events: visible;" class="DimensionMark"><polygon points="-5,-5,0,0,-5,5"/></g><g id="mark3" fill="#000000" stroke="none" transform="matrix(1,0,0,1,52.1221,48.6438)" style="fill-opacity: 1; pointer-events: visible;" class="DimensionMark"><polygon points="-5,-5,0,0,5,-5"/></g><g id="mark4" fill="#000000" stroke="none" transform="matrix(1,0,0,1,0,24.9027)" style="fill-opacity: 1; pointer-events: visible;" class="DimensionMark"><polygon points="5,5,0,0,5,-5"/></g></g><g transform="matrix(1,0,0,1,52.5111,24.3263)" class="SpaceDimensionsLabel"><g id="NameLabel" style="display: block;" class="TextLabel NameLabel"><text x="0" y="0em" fill="#000000" stroke="none" style="font-family: Verdana; font-size: 33px; fill-opacity: 1; cursor: default;">ULKOTILA</text></g><g id="DimensionMeasureLabel" transform="matrix(1,0,0,1,-56.75,79.9531)" style="display: none;" class="TextLabel DimensionMeasureLabel"><text x="52.671875" y="-1.2em" fill="#000000" stroke="none" style="font-family: Verdana; font-size: 33px; fill-opacity: 1; cursor: default;">3'5" x 1'7"</text><text x="0" y="0em" fill="#000000" stroke="none" style="font-family: Verdana; font-size: 33px; fill-opacity: 1; cursor: default;">1.04 m x 0.49 m</text></g></g></g></g><g id="70e2c0f7-6e35-4241-a5f8-e44ae813c28c" fill="#ffffff" stroke="#ffffff" style="fill-opacity: 1; stroke-opacity: 1; stroke-width: 0.2;" class="Space Undefined"><polygon points="713.92,374.20 713.48,374.20 713.48,198.46 699.48,198.46 699.48,509.27 459.79,509.27 459.79,198.46 713.92,198.46 "/><g transform="matrix(1,0,0,1,459.7873,198.457)" class="Dimension"><g transform="matrix(1,0,0,1,0,0)" style="display: none;" class="Visual"><g id="mark1" fill="#000000" stroke="none" transform="matrix(1,0,0,1,127.0682,0)" style="fill-opacity: 1; pointer-events: visible;" class="DimensionMark"><polygon points="-5,5,0,0,5,5"/></g><g id="mark2" fill="#000000" stroke="none" transform="matrix(1,0,0,1,254.1364,155.4048)" style="fill-opacity: 1; pointer-events: visible;" class="DimensionMark"><polygon points="-5,-5,0,0,-5,5"/></g><g id="mark3" fill="#000000" stroke="none" transform="matrix(1,0,0,1,127.0682,310.8096)" style="fill-opacity: 1; pointer-events: visible;" class="DimensionMark"><polygon points="-5,-5,0,0,5,-5"/></g><g id="mark4" fill="#000000" stroke="none" transform="matrix(1,0,0,1,0,155.4048)" style="fill-opacity: 1; pointer-events: visible;" class="DimensionMark"><polygon points="5,5,0,0,5,-5"/></g></g><g transform="matrix(1,0,0,1,119.986,155.3337)" class="SpaceDimensionsLabel"><g id="NameLabel" style="display: block;" class="TextLabel NameLabel"><text x="0" y="0em" fill="#000000" stroke="none" style="font-family: Verdana; font-size: 33px; fill-opacity: 1; cursor: default;">UNDEFINED</text></g><g id="DimensionMeasureLabel" transform="matrix(1,0,0,1,-40.5235,79.8594)" style="display: none;" class="TextLabel DimensionMeasureLabel"><text x="42.1796875" y="-1.2em" fill="#000000" stroke="none" style="font-family: Verdana; font-size: 33px; fill-opacity: 1; cursor: default;">8'4" x 10'2"</text><text x="0" y="0em" fill="#000000" stroke="none" style="font-family: Verdana; font-size: 33px; fill-opacity: 1; cursor: default;">2.54 m x 3.11 m</text></g></g></g></g><g id="f49de8a1-a158-436c-8e5a-711ffe51ed10" fill="#ffffff" stroke="#ffffff" style="fill-opacity: 1; stroke-opacity: 1; stroke-width: 0.2;" class="Space Kitchen Kitchenette"><polygon points="839.12,374.20 713.92,374.20 713.92,198.46 839.12,198.46 "/><g transform="matrix(1,0,0,1,713.9237,198.457)" class="Dimension"><g transform="matrix(1,0,0,1,0,0)" style="display: none;" class="Visual"><g id="mark1" fill="#000000" stroke="none" transform="matrix(1,0,0,1,62.5988,0)" style="fill-opacity: 1; pointer-events: visible;" class="DimensionMark"><polygon points="-5,5,0,0,5,5"/></g><g id="mark2" fill="#000000" stroke="none" transform="matrix(1,0,0,1,125.1976,87.873)" style="fill-opacity: 1; pointer-events: visible;" class="DimensionMark"><polygon points="-5,-5,0,0,-5,5"/></g><g id="mark3" fill="#000000" stroke="none" transform="matrix(1,0,0,1,62.5988,175.746)" style="fill-opacity: 1; pointer-events: visible;" class="DimensionMark"><polygon points="-5,-5,0,0,5,-5"/></g><g id="mark4" fill="#000000" stroke="none" transform="matrix(1,0,0,1,0,87.873)" style="fill-opacity: 1; pointer-events: visible;" class="DimensionMark"><polygon points="5,5,0,0,5,-5"/></g></g><g transform="matrix(1,0,0,1,72.0763,95.7703)" class="SpaceDimensionsLabel" style="display: block;"><g id="NameLabel" style="display: block;" class="TextLabel NameLabel"><text x="0" y="0em" fill="#000000" stroke="none" style="font-family: Verdana; font-size: 33px; fill-opacity: 1; cursor: default;">KK</text></g><g id="DimensionMeasureLabel" transform="matrix(1,0,0,1,-117.1406,79.8125)" style="display: none;" class="TextLabel DimensionMeasureLabel"><text x="52.671875" y="-1.2em" fill="#000000" stroke="none" style="font-family: Verdana; font-size: 33px; fill-opacity: 1; cursor: default;">4'1" x 5'9"</text><text x="0" y="0em" fill="#000000" stroke="none" style="font-family: Verdana; font-size: 33px; fill-opacity: 1; cursor: default;">1.25 m x 1.76 m</text></g></g></g></g><g id="e414ef4b-e446-45e7-9aec-9b1defdfa438" fill="#ffffff" stroke="#ffffff" style="fill-opacity: 1; stroke-opacity: 1; stroke-width: 0.2;" class="Space LivingRoom"><polygon points="1179.75,706.51 714.48,706.51 714.48,523.27 749.60,523.27 749.60,392.20 851.12,392.20 851.12,198.46 1179.75,198.46 "/><g transform="matrix(1,0,0,1,749.5975,198.457)" class="Dimension"><g transform="matrix(1,0,0,1,0,0)" style="display: none;" class="Visual"><g id="mark1" fill="#000000" stroke="none" transform="matrix(1,0,0,1,197.5152,0)" style="fill-opacity: 1; pointer-events: visible;" class="DimensionMark"><polygon points="-5,5,0,0,5,5"/></g><g id="mark2" fill="#000000" stroke="none" transform="matrix(1,0,0,1,430.1507,254.0247)" style="fill-opacity: 1; pointer-events: visible;" class="DimensionMark"><polygon points="-5,-5,0,0,-5,5"/></g><g id="mark3" fill="#000000" stroke="none" transform="matrix(1,0,0,1,197.5152,508.0494)" style="fill-opacity: 1; pointer-events: visible;" class="DimensionMark"><polygon points="-5,-5,0,0,5,-5"/></g><g id="mark4" fill="#000000" stroke="none" transform="matrix(1,0,0,1,0,254.0247)" style="fill-opacity: 1; pointer-events: visible;" class="DimensionMark"><polygon points="5,5,0,0,5,-5"/></g></g><g transform="matrix(1,0,0,1,235.2703,262.554)" class="SpaceDimensionsLabel" style="display: block;"><g id="NameLabel" style="display: block;" class="TextLabel NameLabel"><text x="0" y="0em" fill="#000000" stroke="none" style="font-family: Verdana; font-size: 33px; fill-opacity: 1; cursor: default;">OH</text></g><g id="DimensionMeasureLabel" transform="matrix(1,0,0,1,-114.6171,79.8594)" style="display: none;" class="TextLabel DimensionMeasureLabel"><text x="31.6953125" y="-1.2em" fill="#000000" stroke="none" style="font-family: Verdana; font-size: 33px; fill-opacity: 1; cursor: default;">14'1" x 16'8"</text><text x="0" y="0em" fill="#000000" stroke="none" style="font-family: Verdana; font-size: 33px; fill-opacity: 1; cursor: default;">4.30 m x 5.08 m</text></g></g></g></g><g id="506f4db5-9a76-4cbe-93e3-60f985b603fb" fill="#ffffff" stroke="#ffffff" style="fill-opacity: 1; stroke-opacity: 1; stroke-width: 0.2;" class="Space DressingRoom"><polygon points="548.95,759.30 272.30,759.30 272.30,523.27 548.95,523.27 "/><g transform="matrix(1,0,0,1,272.3035,523.2666)" class="Dimension"><g transform="matrix(1,0,0,1,0,0)" style="display: none;" class="Visual"><g id="mark1" fill="#000000" stroke="none" transform="matrix(1,0,0,1,138.3242,0)" style="fill-opacity: 1; pointer-events: visible;" class="DimensionMark"><polygon points="-5,5,0,0,5,5"/></g><g id="mark2" fill="#000000" stroke="none" transform="matrix(1,0,0,1,276.6484,118.0153)" style="fill-opacity: 1; pointer-events: visible;" class="DimensionMark"><polygon points="-5,-5,0,0,-5,5"/></g><g id="mark3" fill="#000000" stroke="none" transform="matrix(1,0,0,1,138.3242,236.0306)" style="fill-opacity: 1; pointer-events: visible;" class="DimensionMark"><polygon points="-5,-5,0,0,5,-5"/></g><g id="mark4" fill="#000000" stroke="none" transform="matrix(1,0,0,1,0,118.0153)" style="fill-opacity: 1; pointer-events: visible;" class="DimensionMark"><polygon points="5,5,0,0,5,-5"/></g></g><g transform="matrix(1,0,0,1,51.7623,120.4691)" class="SpaceDimensionsLabel" style="display: block;"><g id="NameLabel" style="display: block;" class="TextLabel NameLabel"><text x="0" y="0em" fill="#000000" stroke="none" style="font-family: Verdana; font-size: 33px; fill-opacity: 1; cursor: default;">PUKUH</text></g><g id="DimensionMeasureLabel" transform="matrix(1,0,0,1,-82.0625,79.6719)" style="display: none;" class="TextLabel DimensionMeasureLabel"><text x="52.6640625" y="-1.2em" fill="#000000" stroke="none" style="font-family: Verdana; font-size: 33px; fill-opacity: 1; cursor: default;">9'1" x 7'9"</text><text x="0" y="0em" fill="#000000" stroke="none" style="font-family: Verdana; font-size: 33px; fill-opacity: 1; cursor: default;">2.77 m x 2.36 m</text></g></g></g></g><g id="56ac89a9-6a40-4bfc-bd9c-27e0bbd32e59" fill="#ffffff" stroke="#ffffff" style="fill-opacity: 1; stroke-opacity: 1; stroke-width: 0.2;" class="Space Undefined"><polygon points="1270.50,486.32 1270.50,706.51 1187.75,706.51 1187.75,486.32 "/><g transform="matrix(1,0,0,1,1187.7482,486.3248)" class="Dimension"><g transform="matrix(1,0,0,1,0,0)" style="display: none;" class="Visual"><g id="mark1" fill="#000000" stroke="none" transform="matrix(1,0,0,1,41.3747,0)" style="fill-opacity: 1; pointer-events: visible;" class="DimensionMark"><polygon points="-5,5,0,0,5,5"/></g><g id="mark2" fill="#000000" stroke="none" transform="matrix(1,0,0,1,82.7493,110.0908)" style="fill-opacity: 1; pointer-events: visible;" class="DimensionMark"><polygon points="-5,-5,0,0,-5,5"/></g><g id="mark3" fill="#000000" stroke="none" transform="matrix(1,0,0,1,41.3747,220.1816)" style="fill-opacity: 1; pointer-events: visible;" class="DimensionMark"><polygon points="-5,-5,0,0,5,-5"/></g><g id="mark4" fill="#000000" stroke="none" transform="matrix(1,0,0,1,0,110.0908)" style="fill-opacity: 1; pointer-events: visible;" class="DimensionMark"><polygon points="5,5,0,0,5,-5"/></g></g><g transform="matrix(1,0,0,1,41.3746,41.3746)" class="SpaceDimensionsLabel"><g id="NameLabel" style="display: block;" class="TextLabel NameLabel"><text x="0" y="0em" fill="#000000" stroke="none" style="font-family: Verdana; font-size: 33px; fill-opacity: 1; cursor: default;">UNDEFINED</text></g><g id="DimensionMeasureLabel" transform="matrix(1,0,0,1,-40.5156,79.6719)" style="display: none;" class="TextLabel DimensionMeasureLabel"><text x="52.6640625" y="-1.2em" fill="#000000" stroke="none" style="font-family: Verdana; font-size: 33px; fill-opacity: 1; cursor: default;">2'9" x 7'3"</text><text x="0" y="0em" fill="#000000" stroke="none" style="font-family: Verdana; font-size: 33px; fill-opacity: 1; cursor: default;">0.83 m x 2.20 m</text></g></g></g></g><g id="a34bbe28-d570-42ba-b207-9692c55a135b" fill="#ffffff" stroke="#ffffff" style="fill-opacity: 1; stroke-opacity: 1; stroke-width: 0.2;" class="Space Undefined"><polygon points="1270.50,417.77 1187.75,417.77 1187.75,198.46 1270.50,198.46 "/><g transform="matrix(1,0,0,1,1187.7482,198.457)" class="Dimension"><g transform="matrix(1,0,0,1,0,0)" style="display: none;" class="Visual"><g id="mark1" fill="#000000" stroke="none" transform="matrix(1,0,0,1,41.3747,0)" style="fill-opacity: 1; pointer-events: visible;" class="DimensionMark"><polygon points="-5,5,0,0,5,5"/></g><g id="mark2" fill="#000000" stroke="none" transform="matrix(1,0,0,1,82.7493,109.6577)" style="fill-opacity: 1; pointer-events: visible;" class="DimensionMark"><polygon points="-5,-5,0,0,-5,5"/></g><g id="mark3" fill="#000000" stroke="none" transform="matrix(1,0,0,1,41.3747,219.3154)" style="fill-opacity: 1; pointer-events: visible;" class="DimensionMark"><polygon points="-5,-5,0,0,5,-5"/></g><g id="mark4" fill="#000000" stroke="none" transform="matrix(1,0,0,1,0,109.6577)" style="fill-opacity: 1; pointer-events: visible;" class="DimensionMark"><polygon points="5,5,0,0,5,-5"/></g></g><g transform="matrix(1,0,0,1,41.3746,41.3747)" class="SpaceDimensionsLabel"><g id="NameLabel" style="display: block;" class="TextLabel NameLabel"><text x="0" y="0em" fill="#000000" stroke="none" style="font-family: Verdana; font-size: 33px; fill-opacity: 1; cursor: default;">UNDEFINED</text></g><g id="DimensionMeasureLabel" transform="matrix(1,0,0,1,-40.5156,79.6719)" style="display: none;" class="TextLabel DimensionMeasureLabel"><text x="52.6640625" y="-1.2em" fill="#000000" stroke="none" style="font-family: Verdana; font-size: 33px; fill-opacity: 1; cursor: default;">2'9" x 7'2"</text><text x="0" y="0em" fill="#000000" stroke="none" style="font-family: Verdana; font-size: 33px; fill-opacity: 1; cursor: default;">0.83 m x 2.19 m</text></g></g></g></g><g id="2ee5b99f-e4c1-4259-bc82-20bee8aa591a" fill="#ffffff" stroke="#ffffff" style="fill-opacity: 1; stroke-opacity: 1; stroke-width: 0.2;" class="Space Entry Lobby"><polygon points="699.48,706.51 563.95,706.51 563.95,523.27 699.48,523.27 "/><g transform="matrix(1,0,0,1,563.9519,523.2666)" class="Dimension"><g transform="matrix(1,0,0,1,0,0)" style="display: none;" class="Visual"><g id="mark1" fill="#000000" stroke="none" transform="matrix(1,0,0,1,67.7626,0)" style="fill-opacity: 1; pointer-events: visible;" class="DimensionMark"><polygon points="-5,5,0,0,5,5"/></g><g id="mark2" fill="#000000" stroke="none" transform="matrix(1,0,0,1,135.5252,91.6199)" style="fill-opacity: 1; pointer-events: visible;" class="DimensionMark"><polygon points="-5,-5,0,0,-5,5"/></g><g id="mark3" fill="#000000" stroke="none" transform="matrix(1,0,0,1,67.7626,183.2398)" style="fill-opacity: 1; pointer-events: visible;" class="DimensionMark"><polygon points="-5,-5,0,0,5,-5"/></g><g id="mark4" fill="#000000" stroke="none" transform="matrix(1,0,0,1,0,91.6199)" style="fill-opacity: 1; pointer-events: visible;" class="DimensionMark"><polygon points="5,5,0,0,5,-5"/></g></g><g transform="matrix(1,0,0,1,45.6782,117.7939)" class="SpaceDimensionsLabel" style="display: block;"><g id="NameLabel" style="display: block;" class="TextLabel NameLabel"><text x="0" y="0em" fill="#000000" stroke="none" style="font-family: Verdana; font-size: 33px; fill-opacity: 1; cursor: default;">ET</text></g><g id="DimensionMeasureLabel" transform="matrix(1,0,0,1,-119.2032,79.8906)" style="display: none;" class="TextLabel DimensionMeasureLabel"><text x="52.671875" y="-1.2em" fill="#000000" stroke="none" style="font-family: Verdana; font-size: 33px; fill-opacity: 1; cursor: default;">4'5" x 6'0"</text><text x="0" y="0em" fill="#000000" stroke="none" style="font-family: Verdana; font-size: 33px; fill-opacity: 1; cursor: default;">1.36 m x 1.83 m</text></g></g></g></g><g id="96d2f9f0-7121-42d0-b4c4-b8dc56a4a30f" fill="#ffffff" stroke="#ffffff" style="fill-opacity: 1; stroke-opacity: 1; stroke-width: 0.2;" class="Space Undefined"><polygon points="1270.50,478.32 1187.75,478.32 1187.75,425.77 1270.50,425.77 "/><g transform="matrix(1,0,0,1,1187.7482,425.7725)" class="Dimension"><g transform="matrix(1,0,0,1,0,0)" style="display: none;" class="Visual"><g id="mark1" fill="#000000" stroke="none" transform="matrix(1,0,0,1,41.3747,0)" style="fill-opacity: 1; pointer-events: visible;" class="DimensionMark"><polygon points="-5,5,0,0,5,5"/></g><g id="mark2" fill="#000000" stroke="none" transform="matrix(1,0,0,1,82.7493,26.2762)" style="fill-opacity: 1; pointer-events: visible;" class="DimensionMark"><polygon points="-5,-5,0,0,-5,5"/></g><g id="mark3" fill="#000000" stroke="none" transform="matrix(1,0,0,1,41.3747,52.5523)" style="fill-opacity: 1; pointer-events: visible;" class="DimensionMark"><polygon points="-5,-5,0,0,5,-5"/></g><g id="mark4" fill="#000000" stroke="none" transform="matrix(1,0,0,1,0,26.2762)" style="fill-opacity: 1; pointer-events: visible;" class="DimensionMark"><polygon points="5,5,0,0,5,-5"/></g></g><g transform="matrix(1,0,0,1,26.2761,26.2761)" class="SpaceDimensionsLabel"><g id="NameLabel" style="display: block;" class="TextLabel NameLabel"><text x="0" y="0em" fill="#000000" stroke="none" style="font-family: Verdana; font-size: 33px; fill-opacity: 1; cursor: default;">UNDEFINED</text></g><g id="DimensionMeasureLabel" transform="matrix(1,0,0,1,-40.5156,79.6719)" style="display: none;" class="TextLabel DimensionMeasureLabel"><text x="52.6640625" y="-1.2em" fill="#000000" stroke="none" style="font-family: Verdana; font-size: 33px; fill-opacity: 1; cursor: default;">2'9" x 1'9"</text><text x="0" y="0em" fill="#000000" stroke="none" style="font-family: Verdana; font-size: 33px; fill-opacity: 1; cursor: default;">0.83 m x 0.53 m</text></g></g></g></g><g id="Wall" fill="#000000" stroke="#000000" style="fill-opacity: 1; stroke-opacity: 1; stroke-width: 0.2;" class="Wall External"><polygon points="459.79,198.46 1270.50,198.46 1291.50,183.46 445.79,183.46 "/><g id="Window" fill="#f0f0ff" stroke="#000000" style="fill-opacity: 1; stroke-width: 1; stroke-opacity: 1;" class="Window Regular"><polygon points="479.94,198.46 597.06,198.46 597.06,183.46 479.94,183.46 "/><g id="Glass" class="Glass"><polygon points="479.94,198.46 597.06,198.46 597.06,183.46 479.94,183.46 "/></g><g id="Panel" class="Panel"><line x1="487.4434285873157" x2="589.5582788707576" y1="190.95700540485768" y2="190.95700540485765"/><line x1="487.4434285873157" x2="487.4434285873157" y1="198.45700540485768" y2="183.45700540485768"/><line x1="589.5582788707576" x2="589.5582788707576" y1="198.45700540485765" y2="183.45700540485765"/></g></g><g id="Window" fill="#f0f0ff" stroke="#000000" style="fill-opacity: 1; stroke-width: 1; stroke-opacity: 1;" class="Window Regular"><polygon points="770.97,198.46 836.82,198.46 836.82,183.46 770.97,183.46 "/><g id="Glass" class="Glass"><polygon points="770.97,198.46 836.82,198.46 836.82,183.46 770.97,183.46 "/></g><g id="Panel" class="Panel"><line x1="778.4713183474566" x2="829.3170067042416" y1="190.95700540485763" y2="190.95700540485763"/><line x1="778.4713183474566" x2="778.4713183474566" y1="198.45700540485763" y2="183.45700540485763"/><line x1="829.3170067042416" x2="829.3170067042416" y1="198.45700540485763" y2="183.45700540485763"/></g></g><g id="Window" fill="#f0f0ff" stroke="#000000" style="fill-opacity: 1; stroke-width: 1; stroke-opacity: 1;" class="Window Regular"><polygon points="894.62,198.46 1079.59,198.46 1079.59,183.46 894.62,183.46 "/><g id="Glass" class="Glass"><polygon points="894.62,198.46 1079.59,198.46 1079.59,183.46 894.62,183.46 "/></g><g id="Panel" class="Panel"><line x1="902.1205042609755" x2="1072.0915982708752" y1="190.95700540485763" y2="190.9570054048576"/><line x1="902.1205042609755" x2="902.1205042609755" y1="198.45700540485763" y2="183.45700540485763"/><line x1="1072.0915982708752" x2="1072.0915982708752" y1="198.4570054048576" y2="183.4570054048576"/></g></g></g><g id="Wall" fill="#000000" stroke="#000000" style="fill-opacity: 1; stroke-opacity: 1; stroke-width: 0.2;" class="Wall External"><polygon points="1270.50,198.46 1270.50,706.51 1291.50,723.51 1291.50,183.46 "/></g><g id="Wall" fill="#000000" stroke="#000000" style="fill-opacity: 1; stroke-opacity: 1; stroke-width: 0.2;" class="Wall External"><polygon points="1270.50,706.51 548.95,706.51 565.95,723.51 1291.50,723.51 "/><g id="Door" fill="#ffffff" stroke="#000000" style="fill-opacity: 1; stroke-width: 1; stroke-opacity: 1;" class="Door Swing Beside"><polygon points="677.80,706.51 579.46,706.51 579.46,723.51 677.80,723.51 "/><g id="Threshold" class="Threshold"><polygon points="677.80,706.51 579.46,706.51 579.46,723.51 677.80,723.51 "/></g><g id="Panel" fill="none" style="" class="Panel Right Positive"><g id="PanelArea" fill="none" stroke="none" style="" class="PanelArea"><polygon points="677.80,706.51 579.46,706.51 579.46,723.51 677.80,723.51 "/></g><path d="M677.80,723.51 q0.00,98.34 -98.34,98.34 l0.00,-98.34Z"/></g></g><g id="Window" fill="#f0f0ff" stroke="#000000" style="fill-opacity: 1; stroke-width: 1; stroke-opacity: 1;" class="Window Regular"><polygon points="1172.18,706.51 821.63,706.51 821.63,723.51 1172.18,723.51 "/><g id="Glass" class="Glass"><polygon points="1172.18,706.51 821.63,706.51 821.63,723.51 1172.18,723.51 "/></g><g id="Panel" class="Panel"><line x1="1164.6786754786474" x2="829.1301283995938" y1="715.0063627203529" y2="715.0063627203529"/><line x1="1164.6786754786474" x2="1164.6786754786474" y1="706.5063627203529" y2="723.5063627203529"/><line x1="829.1301283995938" x2="829.1301283995938" y1="706.5063627203529" y2="723.5063627203529"/></g></g></g><g id="Wall" fill="#000000" stroke="#000000" style="fill-opacity: 1; stroke-opacity: 1; stroke-width: 0.2;" class="Wall External"><polygon points="548.95,706.51 548.95,759.30 565.95,776.30 565.95,723.51 "/></g><g id="Wall" fill="#000000" stroke="#000000" style="fill-opacity: 1; stroke-opacity: 1; stroke-width: 0.2;" class="Wall External"><polygon points="548.95,759.30 272.30,759.30 255.30,776.30 565.95,776.30 "/><g id="Window" fill="#f0f0ff" stroke="#000000" style="fill-opacity: 1; stroke-width: 1; stroke-opacity: 1;" class="Window Regular"><polygon points="467.74,759.30 347.32,759.30 347.32,776.30 467.74,776.30 "/><g id="Glass" class="Glass"><polygon points="467.74,759.30 347.32,759.30 347.32,776.30 467.74,776.30 "/></g><g id="Panel" class="Panel"><line x1="460.236662644111" x2="354.81922280779486" y1="767.7972203605854" y2="767.7972203605854"/><line x1="460.236662644111" x2="460.236662644111" y1="759.2972203605854" y2="776.2972203605854"/><line x1="354.81922280779486" x2="354.81922280779486" y1="759.2972203605854" y2="776.2972203605854"/></g></g></g><g id="Wall" fill="#000000" stroke="#000000" style="fill-opacity: 1; stroke-opacity: 1; stroke-width: 0.2;" class="Wall External"><polygon points="272.30,759.30 272.30,523.27 255.30,506.27 255.30,776.30 "/></g><g id="Wall" fill="#000000" stroke="#000000" style="fill-opacity: 1; stroke-opacity: 1; stroke-width: 0.2;" class="Wall External"><polygon points="272.30,523.27 459.79,523.27 445.79,506.27 255.30,506.27 "/><g id="Door" fill="#ffffff" stroke="#000000" style="fill-opacity: 1; stroke-width: 1; stroke-opacity: 1;" class="Door Swing Beside"><polygon points="360.70,523.27 438.97,523.27 438.97,506.27 360.70,506.27 "/><g id="Threshold" class="Threshold"><polygon points="360.70,523.27 438.97,523.27 438.97,506.27 360.70,506.27 "/></g><g id="Panel" fill="none" style="" class="Panel Right Positive"><g id="PanelArea" fill="none" stroke="none" style="" class="PanelArea"><polygon points="360.70,523.27 438.97,523.27 438.97,506.27 360.70,506.27 "/></g><path d="M360.70,506.27 q0.00,-78.27 78.27,-78.27 l0.00,78.27Z"/></g></g></g><g id="Wall" fill="#000000" stroke="#000000" style="fill-opacity: 1; stroke-opacity: 1; stroke-width: 0.2;" class="Wall External"><polygon points="459.79,523.27 459.79,198.46 445.79,183.46 445.79,506.27 "/></g><g id="Wall" fill="#000000" stroke="#000000" style="fill-opacity: 1; stroke-opacity: 1; stroke-width: 0.2;" class="Wall"><polygon points="445.79,183.46 255.30,183.46 255.30,197.46 445.79,197.46 "/></g><g id="Wall" fill="#000000" stroke="#000000" style="fill-opacity: 1; stroke-opacity: 1; stroke-width: 0.2;" class="Wall"><polygon points="459.79,523.27 713.48,523.27 713.48,509.27 459.79,509.27 "/><g id="Door" fill="#ffffff" stroke="#000000" style="fill-opacity: 1; stroke-width: 1; stroke-opacity: 1;" class="Door Swing Beside"><polygon points="468.41,523.27 537.98,523.27 537.98,509.27 468.41,509.27 "/><g id="Threshold" class="Threshold"><polygon points="468.41,523.27 537.98,523.27 537.98,509.27 468.41,509.27 "/></g><g id="Panel" fill="none" style="" class="Panel Left Positive"><g id="PanelArea" fill="none" stroke="none" style="" class="PanelArea"><polygon points="468.41,523.27 537.98,523.27 537.98,509.27 468.41,509.27 "/></g><path d="M537.98,509.27 q0.00,-69.57 -69.57,-69.57 l0.00,69.57Z"/></g></g></g><g id="Wall" fill="#000000" stroke="#000000" style="fill-opacity: 1; stroke-opacity: 1; stroke-width: 0.2;" class="Wall"><polygon points="713.48,523.27 713.48,198.46 699.48,198.46 699.48,509.27 "/></g><g id="Wall" fill="#000000" stroke="#000000" style="fill-opacity: 1; stroke-opacity: 1; stroke-width: 0.2;" class="Wall"><polygon points="713.48,523.27 749.60,523.27 713.40,509.27 713.48,509.27 "/></g><g id="Wall" fill="#000000" stroke="#000000" style="fill-opacity: 1; stroke-opacity: 1; stroke-width: 0.2;" class="Wall"><polygon points="749.60,523.27 749.60,392.20 713.40,374.20 713.40,509.27 "/></g><g id="Wall" fill="#000000" stroke="#000000" style="fill-opacity: 1; stroke-opacity: 1; stroke-width: 0.2;" class="Wall"><polygon points="713.40,374.20 839.12,374.20 851.12,392.20 749.60,392.20 "/></g><g id="Wall" fill="#000000" stroke="#000000" style="fill-opacity: 1; stroke-opacity: 1; stroke-width: 0.2;" class="Wall"><polygon points="851.12,392.20 851.12,198.46 839.12,198.46 839.12,374.20 "/><g id="Door" fill="#ffffff" stroke="#000000" style="fill-opacity: 1; stroke-width: 1; stroke-opacity: 1;" class="Door Zfold Beside"><polygon points="851.12,358.04 851.12,224.80 839.12,224.80 839.12,358.04 "/><g id="Threshold" stroke="#ffffff" style="" class="Threshold"><polygon points="851.12,358.04 851.12,224.80 839.12,224.80 839.12,358.04 "/></g><g id="Panel" class="Panel Left Center"><g id="PanelArea" fill="none" stroke="none" style="" class="PanelArea"><polygon points="851.12,358.04 851.12,224.80 839.12,224.80 839.12,358.04 "/></g><path d="M839.12,224.80 L851.12,233.59 L839.12,242.38 L851.12,251.18 L839.12,259.97 L851.12,268.77 L839.12,277.56 L851.12,286.36 L839.12,295.15 L851.12,303.94 L839.12,312.74 "/></g></g></g><g id="Wall" fill="#000000" stroke="#000000" style="fill-opacity: 1; stroke-opacity: 1; stroke-width: 0.2;" class="Wall"><polygon points="699.48,523.27 699.48,706.51 714.48,706.51 714.48,523.27 "/><g id="Door" fill="#ffffff" stroke="#000000" style="fill-opacity: 1; stroke-width: 1; stroke-opacity: 1;" class="Door Swing Beside"><polygon points="699.48,574.84 699.48,659.14 714.48,659.14 714.48,574.84 "/><g id="Threshold" class="Threshold"><polygon points="699.48,574.84 699.48,659.14 714.48,659.14 714.48,574.84 "/></g><g id="Panel" fill="none" style="" class="Panel Right Positive"><g id="PanelArea" fill="none" stroke="none" style="" class="PanelArea"><polygon points="699.48,574.84 699.48,659.14 714.48,659.14 714.48,574.84 "/></g><path d="M714.48,574.84 q84.29,0.00 84.29,84.29 l-84.29,0.00Z"/></g></g></g><g id="Wall" fill="#000000" stroke="#000000" style="fill-opacity: 1; stroke-opacity: 1; stroke-width: 0.2;" class="Wall"><polygon points="548.95,706.51 548.95,523.27 563.95,523.27 563.95,706.51 "/><g id="Door" fill="#ffffff" stroke="#000000" style="fill-opacity: 1; stroke-width: 1; stroke-opacity: 1;" class="Door Swing Beside"><polygon points="548.95,661.14 548.95,572.17 563.95,572.17 563.95,661.14 "/><g id="Threshold" class="Threshold"><polygon points="548.95,661.14 548.95,572.17 563.95,572.17 563.95,661.14 "/></g><g id="Panel" fill="none" style="" class="Panel Right Negative"><g id="PanelArea" fill="none" stroke="none" style="" class="PanelArea"><polygon points="548.95,661.14 548.95,572.17 563.95,572.17 563.95,661.14 "/></g><path d="M548.95,572.17 q-88.98,0.00 -88.98,88.98 l88.98,0.00Z"/></g></g></g><g id="Wall" fill="#000000" stroke="#000000" style="fill-opacity: 1; stroke-opacity: 1; stroke-width: 0.2;" class="Wall"><polygon points="1187.75,706.51 1187.75,198.46 1179.75,198.46 1179.75,706.51 "/><g id="Door" fill="#ffffff" stroke="#000000" style="fill-opacity: 1; stroke-width: 1; stroke-opacity: 1;" class="Door Zfold Beside"><polygon points="1187.75,383.67 1187.75,241.42 1179.75,241.42 1179.75,383.67 "/><g id="Threshold" stroke="#ffffff" style="" class="Threshold"><polygon points="1187.75,383.67 1187.75,241.42 1179.75,241.42 1179.75,383.67 "/></g><g id="Panel" class="Panel Right Center"><g id="PanelArea" fill="none" stroke="none" style="" class="PanelArea"><polygon points="1187.75,383.67 1187.75,241.42 1179.75,241.42 1179.75,383.67 "/></g><path d="M1179.75,383.67 L1187.75,374.28 L1179.75,364.89 L1187.75,355.50 L1179.75,346.12 L1187.75,336.73 L1179.75,327.34 L1187.75,317.95 L1179.75,308.56 L1187.75,299.17 L1179.75,289.79 "/></g></g><g id="Door" fill="#ffffff" stroke="#000000" style="fill-opacity: 1; stroke-width: 1; stroke-opacity: 1;" class="Door Swing Beside"><polygon points="1187.75,476.66 1187.75,426.90 1179.75,426.90 1179.75,476.66 "/><g id="Threshold" class="Threshold"><polygon points="1187.75,476.66 1187.75,426.90 1179.75,426.90 1179.75,476.66 "/></g><g id="Panel" fill="none" style="" class="Panel Right Positive"><g id="PanelArea" fill="none" stroke="none" style="" class="PanelArea"><polygon points="1187.75,476.66 1187.75,426.90 1179.75,426.90 1179.75,476.66 "/></g><path d="M1179.75,476.66 q-49.76,0.00 -49.76,-49.76 l49.76,0.00Z"/></g></g><g id="Door" fill="#ffffff" stroke="#000000" style="fill-opacity: 1; stroke-width: 1; stroke-opacity: 1;" class="Door Zfold Beside"><polygon points="1187.75,665.65 1187.75,525.92 1179.75,525.92 1179.75,665.65 "/><g id="Threshold" stroke="#ffffff" style="" class="Threshold"><polygon points="1187.75,665.65 1187.75,525.92 1179.75,525.92 1179.75,665.65 "/></g><g id="Panel" class="Panel Left Center"><g id="PanelArea" fill="none" stroke="none" style="" class="PanelArea"><polygon points="1187.75,665.65 1187.75,525.92 1179.75,525.92 1179.75,665.65 "/></g><path d="M1179.75,525.92 L1187.75,535.14 L1179.75,544.36 L1187.75,553.58 L1179.75,562.81 L1187.75,572.03 L1179.75,581.25 L1187.75,590.47 L1179.75,599.70 L1187.75,608.92 L1179.75,618.14 "/></g></g></g><g id="Wall" fill="#000000" stroke="#000000" style="fill-opacity: 1; stroke-opacity: 1; stroke-width: 0.2;" class="Wall"><polygon points="1179.75,425.77 1270.50,425.77 1270.50,417.77 1179.75,417.77 "/></g><g id="Wall" fill="#000000" stroke="#000000" style="fill-opacity: 1; stroke-opacity: 1; stroke-width: 0.2;" class="Wall"><polygon points="1179.75,486.32 1270.50,486.32 1270.50,478.32 1179.75,478.32 "/></g><g id="Railing" fill="#ffffff" stroke="#000000" style="fill-opacity: 1; stroke-opacity: 1; stroke-width: 0.2;" class="Railing"><polygon points="563.95,868.37 159.42,868.37 154.42,873.37 563.95,873.37 " style="stroke-dasharray: 404.53, 7.07107, 414.53;"/></g><g id="Railing" fill="#ffffff" stroke="#000000" style="fill-opacity: 1; stroke-opacity: 1; stroke-width: 0.2;" class="Railing"><polygon points="159.42,868.37 159.42,506.27 154.42,506.27 154.42,873.37 " style="stroke-dasharray: 734.215, 7.07107;"/></g><g id="Column" fill="#000000" stroke="none" style="fill-opacity: 1;" class="Column Circle"><circle cx="165.32864469161723" cy="523.8002523138467" r="5.906823824539487"/></g><g id="Column" fill="#000000" stroke="none" style="fill-opacity: 1;" transform="matrix(1,0,0,1,0,0)" class="Column Circle"><circle cx="165.32864680210363" cy="862.4674748870718" r="5.906823824539487"/></g><g id="Column" fill="#000000" stroke="none" style="fill-opacity: 1;" transform="matrix(1,0,0,1,0,0)" class="Column Circle"><circle cx="557.0162239073868" cy="862.4674329131609" r="5.906823824539487"/></g><g class="FixedFurniture CoatCloset" fill="#ffffff" stroke="#000000" transform="matrix(1,0,0,1,563.9519,523.2666)" style="fill-opacity: 1; stroke-opacity: 1;">
        <g class="BoundaryPolygon">
            <polygon points="0.00,0.00 134.79,0.00 134.79,48.74 0.00,48.74 "/>
        </g>
        <g class="Hanger" fill="#ffffff" stroke="#9a9a9a" stroke-dasharray="5,5">
            <line x1="0" y1="24.369569375783414" x2="134.79456781896542" y2="24.369569375783414"/>
        </g>
        <g class="Direction" fill-opacity="0.9" style="display: none;">
            <polygon points="69.09,44.28 69.09,33.67 66.08,33.67 66.08,44.28 62.28,44.28 67.58,49.59 72.89,44.28 69.09,44.28 " fill="#444444"/>
        </g> 
        <g class="Name" fill-opacity="0.9" style="display: none;">
            <text transform="translate(3 12)" font-size="12" font-family="Verdana, Sans-Serif">CWH</text>
        </g>
        <desc>Width:120 Height:200 Depth:60 Elevation:0</desc>
     </g><g class="FixedFurniture FireplaceCorner" fill="#ffffff" stroke="#000000" transform="matrix(0,-1.7427,1.3422,0,749.7862,523.7768)" style="fill-opacity: 1; stroke-opacity: 1;"> 
	   <g class="BoundaryPolygon" fill="none" stroke="none"> 
		    <polygon points="0,0 75,0 75,75, 0,75"/> 
		</g>
	    <g class="OverlayPolygon">
		    <polygon points="33.933 75.5 75.5 75.5 75.5 0.5 0.5 0.5 0.5 41.735 33.933 75.5"/>  
		</g>
	    <g class="Lines" fill="none" stroke="#4c4c4c"> 
		  <line x1="41.978" y1="0.5" x2="75.5" y2="34.026"/>
            <line x1="9.726" y1="0.5" x2="75.5" y2="66.237"/>
            <line x1="0.5" y1="8.611" x2="67.386" y2="75.5"/>
            <line x1="26.284" y1="0.5" x2="75.183" y2="49.404"/>
            <line x1="0.5" y1="25.759" x2="50.143" y2="75.4"/>
            <line x1="59.944" y1="0.5" x2="75.5" y2="16.058"/>
		</g>
	    <g class="FireBox">	
		    <polygon points="0.739 41.989 34.215 8.38 67.304 41.602 33.829 75.21 0.739 41.989"/>
	    </g>
        <g class="Direction" fill-opacity="0.9" style="display: none;">
            <polygon points="35.459 70.197 35.459 59.581 32.45 59.581 32.45 70.197 28.647 70.197 33.95 75.5 39.253 70.197 35.459 70.197" fill="#444444"/>
        </g> 
        <g class="Name" fill-opacity="0.9" style="display: none;">
            <text transform="translate(3 12)" font-size="12" font-family="Verdana, Sans-Serif">FP</text>
        </g>
         <desc>Width:75 Height:120 Depth:75 Elevation:0</desc>
    </g><g class="FixedFurniture BaseCabinet" fill="#ffffff" stroke="#000000" transform="matrix(0,-1,1,0,713.5396,294.677)" style="fill-opacity: 1; stroke-opacity: 1;">
        <g class="BoundaryPolygon">
            <polygon points="0.00,0.00 96.22,0.00 96.22,60.00 0.00,60.00 "/>
        </g>
        <g class="Direction" fill-opacity="0.9" style="display: none;">
            <polygon points="51.33,55.20 51.33,44.58 48.32,44.58 48.32,55.20 44.52,55.20 49.82,60.00 55.13,55.20 51.33,55.20 " fill="#444444"/>
        </g> 
        <g class="Name" fill-opacity="0.9" style="display: none;">
            <text transform="translate(3 12)" font-size="12" font-family="Verdana, Sans-Serif">CB</text>
        </g>
        <desc>Width:60 Height:90 Depth:60 Elevation:0</desc>
    </g><g class="FixedFurniture WoodStove" fill="#ffffff" stroke="#000000" transform="matrix(0,-1,1,0,713.4771,374.203)" style="fill-opacity: 1; stroke-opacity: 1;">
	   <g class="BoundaryPolygon"> 
            <polygon points="0.00,0.00 76.33,0.00 76.33,60.65 0.00,60.65 "/>
        </g>	
	    <g class="OuterCircle">
		    <circle cx="21.144455985006037" cy="30.606508857260476" r="19.6"/>
		    <circle cx="57.17399831324737" cy="30.606508857260476" r="14.7"/>
		</g>
        <desc>Width:100 Height:90 Depth:65 Elevation:0</desc>
	</g><g fill="#0000ff" stroke="#0000ff" style="display: none;" class="SelectionControls"><g style="display: none;" class="rotateControl"><circle cx="304.78277025003354" cy="295.8353764461249" r="5" style="stroke : none; fill-opacity: 0.5; cursor:crosshair"/></g><g style="display: none;" class="ResizeNControl"><circle cx="0" cy="0" r="5" style="stroke : none; fill-opacity: 0.5"/></g><g style="display: none;" class="ResizeNEControl"><circle cx="0" cy="0" r="5" style="stroke : none; fill-opacity: 0.5"/></g><g style="display: none;" class="ResizeEControl"><circle cx="0" cy="0" r="5" style="stroke : none; fill-opacity: 0.5"/></g><g style="display: none;" class="ResizeSEControl"><circle cx="0" cy="0" r="5" style="stroke : none; fill-opacity: 0.5"/></g><g style="display: none;" class="ResizeSControl"><circle cx="0" cy="0" r="5" style="stroke : none; fill-opacity: 0.5"/></g><g style="display: none;" class="ResizeSWControl"><circle cx="0" cy="0" r="5" style="stroke : none; fill-opacity: 0.5"/></g><g style="display: none;" class="ResizeWControl"><circle cx="0" cy="0" r="5" style="stroke : none; fill-opacity: 0.5"/></g><g style="display: none;" class="ResizeNWControl"><circle cx="0" cy="0" r="5" style="stroke : none; fill-opacity: 0.5"/></g><g style="display: none;" class="removeControl"><polygon style="stroke : none; fill-opacity: 0.1" points="248.69,325.84 360.88,325.84 360.88,366.05 248.69,366.05 "/></g><g style="display: none;" class="copyPasteControl"><polygon style="stroke : none; fill-opacity: 0.1"/></g><g style="display: none;" class="translateControl"><polygon style="stroke : none; fill-opacity: 0.1; cursor:move" points="248.69,325.84 360.88,325.84 360.88,366.05 248.69,366.05 "/></g></g><g fill="#0000ff" stroke="#0000ff" style="display: none;" class="SelectionControls"><polygon fill="none" stroke="#0000ff" style="" points="154.42,197.44 445.79,197.44 445.79,506.29 154.42,506.29 "/><g style="display: none;" class="rotateControl"><circle cx="300.1045747666351" cy="167.4354014461249" r="5" style="stroke : none; fill-opacity: 0.5; cursor:crosshair"/></g><g style="display: none;" class="ResizeNControl"><circle cx="0" cy="0" r="5" style="stroke : none; fill-opacity: 0.5"/></g><g style="display: none;" class="ResizeNEControl"><circle cx="0" cy="0" r="5" style="stroke : none; fill-opacity: 0.5"/></g><g style="display: none;" class="ResizeEControl"><circle cx="0" cy="0" r="5" style="stroke : none; fill-opacity: 0.5"/></g><g style="display: none;" class="ResizeSEControl"><circle cx="0" cy="0" r="5" style="stroke : none; fill-opacity: 0.5"/></g><g style="display: none;" class="ResizeSControl"><circle cx="0" cy="0" r="5" style="stroke : none; fill-opacity: 0.5"/></g><g style="display: none;" class="ResizeSWControl"><circle cx="0" cy="0" r="5" style="stroke : none; fill-opacity: 0.5"/></g><g style="display: none;" class="ResizeWControl"><circle cx="0" cy="0" r="5" style="stroke : none; fill-opacity: 0.5"/></g><g style="display: none;" class="ResizeNWControl"><circle cx="0" cy="0" r="5" style="stroke : none; fill-opacity: 0.5"/></g><g style="display: none;" class="removeControl"><polygon style="stroke : none; fill-opacity: 0.1"/></g><g style="display: none;" class="copyPasteControl"><polygon style="stroke : none; fill-opacity: 0.1"/></g><g style="display: none;" class="translateControl"><polygon style="stroke : none; fill-opacity: 0.1; cursor:move"/></g></g><g class="FixedFurniture ElectricalAppliance SaunaStoveRound" fill="#ffffff" stroke="#000000" transform="matrix(-1.646,0,0,-1.5912,695.1165,503.2708)" style="fill-opacity: 1; stroke-opacity: 1;"> 
	   <g class="BoundaryPolygon" fill="none" stroke="none"> 
           <polygon points="0,0 40,0 40,40 0,40"/>
		</g>
        <g class="InnerCircle"> 
           <circle cx="20.5" cy="20.5" r="20"/>
		</g>
	    <g class="electricitySign" fill="none">
		    <polyline points="2.5 30.5 30.5 20.5 10.5 20.5 38.5 10.5"/>
		</g>
        <g class="Name" fill-opacity="0.9" style="display: none;">
            <text transform="translate(10 12)" font-size="12" font-family="Verdana, Sans-Serif">SS</text>
        </g>
        <desc>Width:60 Height:60 Depth:35 Elevation:20</desc>
	</g><g class="FixedFurniture SaunaBenchHigh" fill="#ffffff" stroke="#000000" transform="matrix(0,1,-1,0,699.4771,198.457)" style="fill-opacity: 1; stroke-opacity: 1;">
        <g class="BoundaryPolygon">
            <polygon points="0.00,0.00 193.74,0.00 193.74,88.71 0.00,88.71 "/> 
        </g>
        <g class="Bench" stroke="#9a9a9a" stroke-width="0.5">
            <line x1="0" y1="5.914145581030228" x2="193.73849069600757" y2="5.914145581030228"/>
            <line x1="0" y1="11.828291162060456" x2="193.73849069600757" y2="11.828291162060456"/>
            <line x1="0" y1="17.742436743090682" x2="193.73849069600757" y2="17.742436743090682"/>
            <line x1="0" y1="23.65658232412091" x2="193.73849069600757" y2="23.65658232412091"/>
            <line x1="0" y1="29.570727905151138" x2="193.73849069600757" y2="29.570727905151138"/>
            <line x1="0" y1="35.484873486181364" x2="193.73849069600757" y2="35.484873486181364"/>
            <line x1="0" y1="41.3990190672116" x2="193.73849069600757" y2="41.3990190672116"/>
            <line x1="0" y1="47.31316464824182" x2="193.73849069600757" y2="47.31316464824182"/>
            <line x1="0" y1="53.227310229272035" x2="193.73849069600757" y2="53.227310229272035"/>
            <line x1="0" y1="59.141455810302276" x2="193.73849069600757" y2="59.141455810302276"/>
            <line x1="0" y1="65.05560139133252" x2="193.73849069600757" y2="65.05560139133252"/>
            <line x1="0" y1="70.96974697236273" x2="193.73849069600757" y2="70.96974697236273"/>
            <line x1="0" y1="76.88389255339298" x2="193.73849069600757" y2="76.88389255339298"/>
            <line x1="0" y1="82.7980381344232" x2="193.73849069600757" y2="82.7980381344232"/>
        </g>
         <g class="Direction" fill-opacity="0.9" style="display: none;">
            <polygon points="99.92,80.81 99.92,70.19 96.91,70.19 96.91,80.81 93.10,80.81 98.41,86.11 103.71,80.81 99.92,80.81 " fill="#444444"/>
        </g> 
        <g class="Name" fill-opacity="0.9" style="display: none;">
            <text transform="translate(3 12)" font-size="12" font-family="Verdana, Sans-Serif">SB_HIGH</text>
        </g>
        <desc>Width:185 Height:5 Depth:60 Elevation:105</desc>
    </g><g class="FixedFurniture SaunaBenchMid" fill="#ffffff" stroke="#000000" transform="matrix(1,0,0,1,459.4705,198.457)" style="fill-opacity: 1; stroke-opacity: 1;">
        <g class="BoundaryPolygon">
            <polygon points="0.00,0.00 151.29,0.00 151.29,51.24 0.00,51.24 "/>
        </g>
        <g class="Bench" stroke="#9a9a9a" stroke-width="0.5">
            <line x1="0" y1="5.123520232343825" x2="151.29439302968518" y2="5.123520232343825"/>
            <line x1="0" y1="10.24704046468765" x2="151.29439302968518" y2="10.24704046468765"/>
            <line x1="0" y1="15.370560697031486" x2="151.29439302968518" y2="15.370560697031486"/>
            <line x1="0" y1="20.4940809293753" x2="151.29439302968518" y2="20.4940809293753"/>
            <line x1="0" y1="25.617601161719136" x2="151.29439302968518" y2="25.617601161719136"/>
            <line x1="0" y1="30.741121394062972" x2="151.29439302968518" y2="30.741121394062972"/>
            <line x1="0" y1="35.864641626406794" x2="151.29439302968518" y2="35.864641626406794"/>
            <line x1="0" y1="40.9881618587506" x2="151.29439302968518" y2="40.9881618587506"/>
            <line x1="0" y1="46.11168209109444" x2="151.29439302968518" y2="46.11168209109444"/>
        </g>
        <g class="Direction" fill-opacity="0.9" style="display: none;">
            <polygon points="76.88,44.39 76.88,33.77 73.87,33.77 73.87,44.39 70.07,44.39 75.37,49.69 80.68,44.39 76.88,44.39 " fill="#444444"/>
        </g> 
        <g class="Name" fill-opacity="0.9" style="display: none;">
            <text transform="translate(3 12)" font-size="12" font-family="Verdana, Sans-Serif">SB_MID</text>
        </g>
        <desc>Width:185 Height:5 Depth:40 Elevation:60</desc>
    </g><g class="FixedFurniture SaunaBenchMid" fill="#ffffff" stroke="#000000" transform="matrix(0,1,-1,0,610.765,249.6922)" style="fill-opacity: 1; stroke-opacity: 1;">
        <g class="BoundaryPolygon">
            <polygon points="0.00,0.00 143.18,0.00 143.18,35.01 0.00,35.01 "/>
        </g>
        <g class="Bench" stroke="#9a9a9a" stroke-width="0.5">
            <line x1="0" y1="3.500809678677054" x2="143.1800799609859" y2="3.500809678677054"/>
            <line x1="0" y1="7.001619357354108" x2="143.1800799609859" y2="7.001619357354108"/>
            <line x1="0" y1="10.502429036031169" x2="143.1800799609859" y2="10.502429036031169"/>
            <line x1="0" y1="14.003238714708216" x2="143.1800799609859" y2="14.003238714708216"/>
            <line x1="0" y1="17.504048393385272" x2="143.1800799609859" y2="17.504048393385272"/>
            <line x1="0" y1="21.004858072062337" x2="143.1800799609859" y2="21.004858072062337"/>
            <line x1="0" y1="24.505667750739388" x2="143.1800799609859" y2="24.505667750739388"/>
            <line x1="0" y1="28.00647742941643" x2="143.1800799609859" y2="28.00647742941643"/>
            <line x1="0" y1="31.507287108093465" x2="143.1800799609859" y2="31.507287108093465"/>
        </g>
        <g class="Direction" fill-opacity="0.9" style="display: none;">
            <polygon points="72.76,30.33 72.76,19.71 69.75,19.71 69.75,30.33 65.95,30.33 71.25,35.63 76.56,30.33 72.76,30.33 " fill="#444444"/>
        </g> 
        <g class="Name" fill-opacity="0.9" style="display: none;">
            <text transform="translate(3 12)" font-size="12" font-family="Verdana, Sans-Serif">SB_MID</text>
        </g>
        <desc>Width:185 Height:5 Depth:40 Elevation:60</desc>
    </g></g></g></g></svg>
