<?xml version="1.0"?>
<svg xmlns="http://www.w3.org/2000/svg" xmlns:xlink="http://www.w3.org/1999/xlink" height="1412.8799514770508" version="1.1" width="892.0299987792969" id="temp" viewBox="0 0 892.0299987792969 1412.8799514770508"><defs/><g id="Model" class="Model v1-1"><g class="Floor"><g id="Floor-1" class="Floorplan Floor-1"><g id="3de428d3-953d-4c98-a5f5-a1b96ed87c2f" fill="#ffffff" stroke="#ffffff" style="fill-opacity: 1; stroke-opacity: 1; stroke-width: 0.2;" class="Space Hall"><polygon points="852.27,96.06 875.03,96.06 875.03,1288.27 852.03,1288.27 852.03,1310.86 111.44,1310.86 111.44,1287.86 84.66,1287.86 84.66,96.29 108.08,96.29 108.08,72.00 468.08,71.72 468.08,95.47 493.18,95.47 493.18,71.72 852.27,71.72 "/><g transform="matrix(1,0,0,1,84.6603,71.7172)" class="Dimension"><g transform="matrix(1,0,0,1,0,0)" style="display: none;" class="Visual"><g id="mark1" fill="#000000" stroke="none" transform="matrix(1,0,0,1,383.4156,0)" style="fill-opacity: 1; pointer-events: visible;" class="DimensionMark"><polygon points="-5,5,0,0,5,5"/></g><g id="mark2" fill="#000000" stroke="none" transform="matrix(1,0,0,1,790.3732,619.5708)" style="fill-opacity: 1; pointer-events: visible;" class="DimensionMark"><polygon points="-5,-5,0,0,-5,5"/></g><g id="mark3" fill="#000000" stroke="none" transform="matrix(1,0,0,1,383.4156,1239.1416)" style="fill-opacity: 1; pointer-events: visible;" class="DimensionMark"><polygon points="-5,-5,0,0,5,-5"/></g><g id="mark4" fill="#000000" stroke="none" transform="matrix(1,0,0,1,0,619.5708)" style="fill-opacity: 1; pointer-events: visible;" class="DimensionMark"><polygon points="5,5,0,0,5,-5"/></g></g><g transform="matrix(1,0,0,1,354.3506,636.8083)" class="SpaceDimensionsLabel"><g id="NameLabel" style="display: block;" class="TextLabel NameLabel"><text x="0" y="0em" fill="#000000" stroke="none" style="font-family: Verdana; font-size: 33px; fill-opacity: 1; cursor: default;">HALLI</text></g><g id="DimensionMeasureLabel" transform="matrix(1,0,0,1,-101.1719,80.4844)" style="display: none;" class="TextLabel DimensionMeasureLabel"><text x="31.6796875" y="-1.2em" fill="#000000" stroke="none" style="font-family: Verdana; font-size: 33px; fill-opacity: 1; cursor: default;">25'11" x 40'8"</text><text x="0" y="0em" fill="#000000" stroke="none" style="font-family: Verdana; font-size: 33px; fill-opacity: 1; cursor: default;">7.90 m x 12.39 m</text></g></g></g></g><g id="Wall" fill="#000000" stroke="#000000" style="fill-opacity: 1; stroke-opacity: 1; stroke-width: 0.2;" class="Wall External"><polygon points="84.66,96.29 84.66,929.29 67.66,929.29 67.66,60.27 "/></g><g id="Wall" fill="#000000" stroke="#000000" style="fill-opacity: 1; stroke-opacity: 1; stroke-width: 0.2;" class="Wall External"><polygon points="84.66,929.29 84.66,1287.86 72.66,1323.86 72.66,929.29 "/><g id="Window" fill="#f0f0ff" stroke="#000000" style="fill-opacity: 1; stroke-width: 1; stroke-opacity: 1;" class="Window Regular"><polygon points="84.66,1161.86 84.66,1268.43 72.66,1268.43 72.66,1161.86 "/><g id="Glass" class="Glass"><polygon points="84.66,1161.86 84.66,1268.43 72.66,1268.43 72.66,1161.86 "/></g><g id="Panel" class="Panel"><line x1="78.66028213122316" x2="78.66028213122316" y1="1169.3641884007657" y2="1260.9307158770066"/><line x1="84.66028213122316" x2="72.66028213122316" y1="1169.3641884007657" y2="1169.3641884007657"/><line x1="84.66028213122316" x2="72.66028213122316" y1="1260.9307158770066" y2="1260.9307158770066"/></g></g></g><g id="Wall" fill="#000000" stroke="#000000" style="fill-opacity: 1; stroke-opacity: 1; stroke-width: 0.2;" class="Wall External"><polygon points="72.66,1323.86 111.44,1323.86 111.44,1287.86 84.66,1287.86 "/></g><g id="Wall" fill="#000000" stroke="#000000" style="fill-opacity: 1; stroke-opacity: 1; stroke-width: 0.2;" class="Wall External"><polygon points="111.44,1323.86 892.03,1323.86 852.03,1310.86 111.44,1310.86 "/><g id="Door" fill="#ffffff" stroke="#000000" style="fill-opacity: 1; stroke-width: 1; stroke-opacity: 1;" class="Door RollUp Beside"><polygon points="364.99,1323.86 820.03,1323.86 820.03,1310.86 364.99,1310.86 "/><g id="Threshold" class="Threshold"><polygon points="364.99,1323.86 820.03,1323.86 820.03,1310.86 364.99,1310.86 "/></g><g id="Panel" class="Panel Center Negative"><g id="PanelArea" fill="none" stroke="none" style="" class="PanelArea"><polygon points="364.99,1323.86 820.03,1323.86 820.03,1310.86 364.99,1310.86 "/></g><line x1="364.9949213978657" x2="364.9949213978657" y1="1310.8588306304234" y2="1323.8588306304237"/><line x1="820.0303416464099" x2="820.0303416464099" y1="1310.8588306304232" y2="1323.8588306304234"/><line x1="364.9949213978657" x2="820.0303416464099" y1="1317.3588306304237" y2="1317.3588306304234"/><line x1="364.9949213978657" x2="820.0303416464099" y1="1319.5254972970904" y2="1319.5254972970902"/><line x1="364.9949213978657" x2="820.0303416464099" y1="1321.692163963757" y2="1321.6921639637567"/></g></g><g id="Door" fill="#ffffff" stroke="#000000" style="fill-opacity: 1; stroke-width: 1; stroke-opacity: 1;" class="Door Swing Beside"><polygon points="203.61,1323.86 292.62,1323.86 292.62,1310.86 203.61,1310.86 "/><g id="Threshold" class="Threshold"><polygon points="203.61,1323.86 292.62,1323.86 292.62,1310.86 203.61,1310.86 "/></g><g id="Panel" fill="none" style="" class="Panel Right Negative"><g id="PanelArea" fill="none" stroke="none" style="" class="PanelArea"><polygon points="203.61,1323.86 292.62,1323.86 292.62,1310.86 203.61,1310.86 "/></g><path d="M292.62,1323.86 q0.00,89.02 -89.02,89.02 l0.00,-89.02Z"/></g></g></g><g id="Wall" fill="#000000" stroke="#000000" style="fill-opacity: 1; stroke-opacity: 1; stroke-width: 0.2;" class="Wall External"><polygon points="892.03,1323.86 892.03,1288.27 852.03,1288.27 852.03,1310.86 "/></g><g id="Wall" fill="#000000" stroke="#000000" style="fill-opacity: 1; stroke-opacity: 1; stroke-width: 0.2;" class="Wall External"><polygon points="892.03,1288.27 892.03,59.72 875.03,96.06 875.03,1288.27 "/></g><g id="Wall" fill="#000000" stroke="#000000" style="fill-opacity: 1; stroke-opacity: 1; stroke-width: 0.2;" class="Wall External"><polygon points="875.03,96.06 852.27,96.06 852.27,59.72 892.03,59.72 "/></g><g id="Wall" fill="#000000" stroke="#000000" style="fill-opacity: 1; stroke-opacity: 1; stroke-width: 0.2;" class="Wall External"><polygon points="852.27,71.72 493.18,71.72 493.18,59.72 852.27,59.72 "/><g id="Window" fill="#f0f0ff" stroke="#000000" style="fill-opacity: 1; stroke-width: 1; stroke-opacity: 1;" class="Window Regular"><polygon points="696.67,71.72 562.85,71.72 562.85,59.72 696.67,59.72 "/><g id="Glass" class="Glass"><polygon points="696.67,71.72 562.85,71.72 562.85,59.72 696.67,59.72 "/></g><g id="Panel" class="Panel"><line x1="689.1704981061198" x2="570.3528771460691" y1="65.71723025431629" y2="65.71723025431629"/><line x1="689.1704981061198" x2="689.1704981061198" y1="71.71723025431629" y2="59.71723025431629"/><line x1="570.3528771460691" x2="570.3528771460691" y1="71.71723025431629" y2="59.71723025431629"/></g></g></g><g id="Wall" fill="#000000" stroke="#000000" style="fill-opacity: 1; stroke-opacity: 1; stroke-width: 0.2;" class="Wall External"><polygon points="493.18,95.47 468.08,95.47 468.08,59.72 493.18,59.72 "/></g><g id="Wall" fill="#000000" stroke="#000000" style="fill-opacity: 1; stroke-opacity: 1; stroke-width: 0.2;" class="Wall External"><polygon points="468.08,71.72 108.08,72.27 108.07,60.27 468.07,59.72 "/><g id="Window" fill="#f0f0ff" stroke="#000000" style="fill-opacity: 1; stroke-width: 1; stroke-opacity: 1;" class="Window Regular"><polygon points="402.28,71.82 265.12,72.03 265.10,60.03 402.26,59.82 "/><g id="Glass" class="Glass"><polygon points="402.28,71.82 265.12,72.03 265.10,60.03 402.26,59.82 "/></g><g id="Panel" class="Panel"><line x1="394.7720158610917" x2="272.61147566663465" y1="65.8303427099141" y2="66.01885610136748"/><line x1="394.7812748165627" x2="394.7627569056207" y1="71.83033556588849" y2="59.83034985393974"/><line x1="272.62073462210566" x2="272.60221671116363" y1="72.01884895734187" y2="60.018863245393106"/></g></g></g><g id="Wall" fill="#000000" stroke="#000000" style="fill-opacity: 1; stroke-opacity: 1; stroke-width: 0.2;" class="Wall External"><polygon points="108.08,96.29 84.66,96.29 67.66,60.27 108.08,60.27 "/></g><g fill="#0000ff" stroke="#0000ff" style="display: none;" class="SelectionControls"><g style="display: none;" class="rotateControl"><circle cx="488.2452571312232" cy="644.8536552543163" r="5" style="stroke : none; fill-opacity: 0.5; cursor:crosshair"/></g><g style="display: none;" class="ResizeNControl"><circle cx="0" cy="0" r="5" style="stroke : none; fill-opacity: 0.5"/></g><g style="display: none;" class="ResizeNEControl"><circle cx="0" cy="0" r="5" style="stroke : none; fill-opacity: 0.5"/></g><g style="display: none;" class="ResizeEControl"><circle cx="0" cy="0" r="5" style="stroke : none; fill-opacity: 0.5"/></g><g style="display: none;" class="ResizeSEControl"><circle cx="0" cy="0" r="5" style="stroke : none; fill-opacity: 0.5"/></g><g style="display: none;" class="ResizeSControl"><circle cx="0" cy="0" r="5" style="stroke : none; fill-opacity: 0.5"/></g><g style="display: none;" class="ResizeSWControl"><circle cx="0" cy="0" r="5" style="stroke : none; fill-opacity: 0.5"/></g><g style="display: none;" class="ResizeWControl"><circle cx="0" cy="0" r="5" style="stroke : none; fill-opacity: 0.5"/></g><g style="display: none;" class="ResizeNWControl"><circle cx="0" cy="0" r="5" style="stroke : none; fill-opacity: 0.5"/></g><g style="display: none;" class="removeControl"><polygon style="stroke : none; fill-opacity: 0.1" points="439.01,674.85 537.48,674.85 537.48,715.74 439.01,715.74 "/></g><g style="display: none;" class="copyPasteControl"><polygon style="stroke : none; fill-opacity: 0.1"/></g><g style="display: none;" class="translateControl"><polygon style="stroke : none; fill-opacity: 0.1; cursor:move" points="439.01,674.85 537.48,674.85 537.48,715.74 439.01,715.74 "/></g></g><g fill="#0000ff" stroke="#0000ff" style="display: none;" class="SelectionControls"><polygon fill="none" stroke="#0000ff" style="" points="84.66,71.72 875.03,71.72 875.03,1310.86 84.66,1310.86 "/><g style="display: none;" class="rotateControl"><circle cx="479.8468971214576" cy="41.71723025431632" r="5" style="stroke : none; fill-opacity: 0.5; cursor:crosshair"/></g><g style="display: none;" class="ResizeNControl"><circle cx="0" cy="0" r="5" style="stroke : none; fill-opacity: 0.5"/></g><g style="display: none;" class="ResizeNEControl"><circle cx="0" cy="0" r="5" style="stroke : none; fill-opacity: 0.5"/></g><g style="display: none;" class="ResizeEControl"><circle cx="0" cy="0" r="5" style="stroke : none; fill-opacity: 0.5"/></g><g style="display: none;" class="ResizeSEControl"><circle cx="0" cy="0" r="5" style="stroke : none; fill-opacity: 0.5"/></g><g style="display: none;" class="ResizeSControl"><circle cx="0" cy="0" r="5" style="stroke : none; fill-opacity: 0.5"/></g><g style="display: none;" class="ResizeSWControl"><circle cx="0" cy="0" r="5" style="stroke : none; fill-opacity: 0.5"/></g><g style="display: none;" class="ResizeWControl"><circle cx="0" cy="0" r="5" style="stroke : none; fill-opacity: 0.5"/></g><g style="display: none;" class="ResizeNWControl"><circle cx="0" cy="0" r="5" style="stroke : none; fill-opacity: 0.5"/></g><g style="display: none;" class="removeControl"><polygon style="stroke : none; fill-opacity: 0.1"/></g><g style="display: none;" class="copyPasteControl"><polygon style="stroke : none; fill-opacity: 0.1"/></g><g style="display: none;" class="translateControl"><polygon style="stroke : none; fill-opacity: 0.1; cursor:move"/></g></g></g></g></g></svg>
