<?xml version="1.0"?>
<svg xmlns="http://www.w3.org/2000/svg" xmlns:xlink="http://www.w3.org/1999/xlink" height="1345.7900161743164" version="1.1" width="643.5199966430664" id="temp" viewBox="0 0 643.5199966430664 1345.7900161743164"><defs/><g id="Model" class="Model v1-1"><g class="Floor"><g id="Floor-1" class="Floorplan Floor-1"><g id="a73589c9-8565-4df2-840c-06d1944c766a" fill="#ffffff" stroke="#ffffff" style="fill-opacity: 1; stroke-opacity: 1; stroke-width: 0.2;" class="Space Room"><polygon points="625.09,878.88 472.23,878.88 472.23,1006.77 327.81,1006.77 327.81,379.17 625.09,379.17 "/><g transform="matrix(1,0,0,1,327.8096,379.1663)" class="Dimension"><g transform="matrix(1,0,0,1,0,0)" style="display: none;" class="Visual"><g id="mark1" fill="#000000" stroke="none" transform="matrix(1,0,0,1,144.4204,0)" style="fill-opacity: 1; pointer-events: visible;" class="DimensionMark"><polygon points="-5,5,0,0,5,5"/></g><g id="mark2" fill="#000000" stroke="none" transform="matrix(1,0,0,1,297.278,313.7997)" style="fill-opacity: 1; pointer-events: visible;" class="DimensionMark"><polygon points="-5,-5,0,0,-5,5"/></g><g id="mark3" fill="#000000" stroke="none" transform="matrix(1,0,0,1,144.4204,627.5994)" style="fill-opacity: 1; pointer-events: visible;" class="DimensionMark"><polygon points="-5,-5,0,0,5,-5"/></g><g id="mark4" fill="#000000" stroke="none" transform="matrix(1,0,0,1,0,313.7997)" style="fill-opacity: 1; pointer-events: visible;" class="DimensionMark"><polygon points="5,5,0,0,5,-5"/></g></g><g transform="matrix(1,0,0,1,146.2522,239.3347)" class="SpaceDimensionsLabel"><g id="NameLabel" style="display: block;" class="TextLabel NameLabel"><text x="0" y="0em" fill="#000000" stroke="none" style="font-family: Verdana; font-size: 33px; fill-opacity: 1; cursor: default;">H</text></g><g id="DimensionMeasureLabel" transform="matrix(1,0,0,1,-127.6016,79.3594)" style="display: none;" class="TextLabel DimensionMeasureLabel"><text x="42.1796875" y="-1.2em" fill="#000000" stroke="none" style="font-family: Verdana; font-size: 33px; fill-opacity: 1; cursor: default;">9'9" x 20'7"</text><text x="0" y="0em" fill="#000000" stroke="none" style="font-family: Verdana; font-size: 33px; fill-opacity: 1; cursor: default;">2.97 m x 6.28 m</text></g></g></g></g><g id="f3a444ce-fac7-4fa3-99a4-7dfda3fc3d7d" fill="#ffffff" stroke="#ffffff" style="fill-opacity: 1; stroke-opacity: 1; stroke-width: 0.2;" class="Space Kitchen"><polygon points="625.09,1224.48 472.23,1224.48 472.00,1007.00 472.23,1006.77 472.23,878.88 625.09,878.88 "/><g transform="matrix(1,0,0,1,472.0473,878.8821)" class="Dimension"><g transform="matrix(1,0,0,1,0,0)" style="display: none;" class="Visual"><g id="mark1" fill="#000000" stroke="none" transform="matrix(1,0,0,1,76.4965,0)" style="fill-opacity: 1; pointer-events: visible;" class="DimensionMark"><polygon points="-5,5,0,0,5,5"/></g><g id="mark2" fill="#000000" stroke="none" transform="matrix(1,0,0,1,153.0403,172.7999)" style="fill-opacity: 1; pointer-events: visible;" class="DimensionMark"><polygon points="-5,-5,0,0,-5,5"/></g><g id="mark3" fill="#000000" stroke="none" transform="matrix(1,0,0,1,76.4965,345.6)" style="fill-opacity: 1; pointer-events: visible;" class="DimensionMark"><polygon points="-5,-5,0,0,5,-5"/></g><g id="mark4" fill="#000000" stroke="none" transform="matrix(1,0,0,1,0,172.7999)" style="fill-opacity: 1; pointer-events: visible;" class="DimensionMark"><polygon points="5,5,0,0,5,-5"/></g></g><g transform="matrix(1,0,0,1,36.0009,165.6529)" class="SpaceDimensionsLabel"><g id="NameLabel" style="display: block;" class="TextLabel NameLabel"><text x="0" y="0em" fill="#000000" stroke="none" style="font-family: Verdana; font-size: 33px; fill-opacity: 1; cursor: default;">K</text></g><g id="DimensionMeasureLabel" transform="matrix(1,0,0,1,-128.0703,79.3594)" style="display: none;" class="TextLabel DimensionMeasureLabel"><text x="42.1796875" y="-1.2em" fill="#000000" stroke="none" style="font-family: Verdana; font-size: 33px; fill-opacity: 1; cursor: default;">5'0" x 11'4"</text><text x="0" y="0em" fill="#000000" stroke="none" style="font-family: Verdana; font-size: 33px; fill-opacity: 1; cursor: default;">1.53 m x 3.46 m</text></g></g></g></g><g id="54c54abe-efe2-4476-bf9e-939470e6f830" fill="#ffffff" stroke="#ffffff" style="fill-opacity: 1; stroke-opacity: 1; stroke-width: 0.2;" class="Space Undefined"><polygon points="317.81,419.01 327.81,419.01 327.81,737.03 317.81,737.03 317.81,740.94 269.53,740.94 269.53,801.24 112.00,801.24 112.00,379.17 317.81,379.17 "/><g transform="matrix(1,0,0,1,112.002,379.1663)" class="Dimension"><g transform="matrix(1,0,0,1,0,0)" style="display: none;" class="Visual"><g id="mark1" fill="#000000" stroke="none" transform="matrix(1,0,0,1,107.9038,0)" style="fill-opacity: 1; pointer-events: visible;" class="DimensionMark"><polygon points="-5,5,0,0,5,5"/></g><g id="mark2" fill="#000000" stroke="none" transform="matrix(1,0,0,1,215.8076,211.0355)" style="fill-opacity: 1; pointer-events: visible;" class="DimensionMark"><polygon points="-5,-5,0,0,-5,5"/></g><g id="mark3" fill="#000000" stroke="none" transform="matrix(1,0,0,1,107.9038,422.0709)" style="fill-opacity: 1; pointer-events: visible;" class="DimensionMark"><polygon points="-5,-5,0,0,5,-5"/></g><g id="mark4" fill="#000000" stroke="none" transform="matrix(1,0,0,1,0,211.0355)" style="fill-opacity: 1; pointer-events: visible;" class="DimensionMark"><polygon points="5,5,0,0,5,-5"/></g></g><g transform="matrix(1,0,0,1,107.9038,107.9038)" class="SpaceDimensionsLabel"><g id="NameLabel" style="display: block;" class="TextLabel NameLabel"><text x="0" y="0em" fill="#000000" stroke="none" style="font-family: Verdana; font-size: 33px; fill-opacity: 1; cursor: default;">UNDEFINED</text></g><g id="DimensionMeasureLabel" transform="matrix(1,0,0,1,-40.5156,80)" style="display: none;" class="TextLabel DimensionMeasureLabel"><text x="31.6875" y="-1.2em" fill="#000000" stroke="none" style="font-family: Verdana; font-size: 33px; fill-opacity: 1; cursor: default;">7'1" x 13'10"</text><text x="0" y="0em" fill="#000000" stroke="none" style="font-family: Verdana; font-size: 33px; fill-opacity: 1; cursor: default;">2.16 m x 4.22 m</text></g></g></g></g><g id="512be1f3-22c9-48f6-9a84-40f549724d9a" fill="#ffffff" stroke="#ffffff" style="fill-opacity: 1; stroke-opacity: 1; stroke-width: 0.2;" class="Space Entry Lobby"><polygon points="472.01,1134.58 462.23,1134.58 462.23,1224.48 281.86,1224.48 281.86,1006.77 472.23,1006.77 "/><g transform="matrix(1,0,0,1,281.8561,1006.7657)" class="Dimension"><g transform="matrix(1,0,0,1,0,0)" style="display: none;" class="Visual"><g id="mark1" fill="#000000" stroke="none" transform="matrix(1,0,0,1,95.187,0)" style="fill-opacity: 1; pointer-events: visible;" class="DimensionMark"><polygon points="-5,5,0,0,5,5"/></g><g id="mark2" fill="#000000" stroke="none" transform="matrix(1,0,0,1,190.1905,108.8579)" style="fill-opacity: 1; pointer-events: visible;" class="DimensionMark"><polygon points="-5,-5,0,0,-5,5"/></g><g id="mark3" fill="#000000" stroke="none" transform="matrix(1,0,0,1,95.187,217.7164)" style="fill-opacity: 1; pointer-events: visible;" class="DimensionMark"><polygon points="-5,-5,0,0,5,-5"/></g><g id="mark4" fill="#000000" stroke="none" transform="matrix(1,0,0,1,0,108.8579)" style="fill-opacity: 1; pointer-events: visible;" class="DimensionMark"><polygon points="5,5,0,0,5,-5"/></g></g><g transform="matrix(1,0,0,1,93.6996,93.6997)" class="SpaceDimensionsLabel"><g id="NameLabel" style="display: block;" class="TextLabel NameLabel"><text x="0" y="0em" fill="#000000" stroke="none" style="font-family: Verdana; font-size: 33px; fill-opacity: 1; cursor: default;">ET</text></g><g id="DimensionMeasureLabel" transform="matrix(1,0,0,1,-40.5156,79.7656)" style="display: none;" class="TextLabel DimensionMeasureLabel"><text x="52.671875" y="-1.2em" fill="#000000" stroke="none" style="font-family: Verdana; font-size: 33px; fill-opacity: 1; cursor: default;">6'3" x 7'2"</text><text x="0" y="0em" fill="#000000" stroke="none" style="font-family: Verdana; font-size: 33px; fill-opacity: 1; cursor: default;">1.90 m x 2.18 m</text></g></g></g></g><g id="ec4f9a94-76f4-40eb-800e-82bd7e956816" fill="#ffffff" stroke="#000000" style="fill-opacity: 1; stroke-opacity: 1; stroke-width: 0.2;" class="Space Outdoor"><polygon points="483.16,1252.48 483.16,1345.79 267.97,1345.79 267.97,1252.48 483.16,1252.48 483.16,1252.48 "/><g transform="matrix(1,0,0,1,267.9719,1252.482)" class="Dimension"><g transform="matrix(1,0,0,1,0,0)" style="display: none;" class="Visual"><g id="mark1" fill="#000000" stroke="none" transform="matrix(1,0,0,1,107.5954,0)" style="fill-opacity: 1; pointer-events: visible;" class="DimensionMark"><polygon points="-5,5,0,0,5,5"/></g><g id="mark2" fill="#000000" stroke="none" transform="matrix(1,0,0,1,215.1908,46.6553)" style="fill-opacity: 1; pointer-events: visible;" class="DimensionMark"><polygon points="-5,-5,0,0,-5,5"/></g><g id="mark3" fill="#000000" stroke="none" transform="matrix(1,0,0,1,107.5954,93.3106)" style="fill-opacity: 1; pointer-events: visible;" class="DimensionMark"><polygon points="-5,-5,0,0,5,-5"/></g><g id="mark4" fill="#000000" stroke="none" transform="matrix(1,0,0,1,0,46.6553)" style="fill-opacity: 1; pointer-events: visible;" class="DimensionMark"><polygon points="5,5,0,0,5,-5"/></g></g><g transform="matrix(1,0,0,1,139.9659,46.6553)" class="SpaceDimensionsLabel"><g id="NameLabel" style="display: block;" class="TextLabel NameLabel"><text x="0" y="0em" fill="#000000" stroke="none" style="font-family: Verdana; font-size: 33px; fill-opacity: 1; cursor: default;">ULKOTILA</text></g><g id="DimensionMeasureLabel" transform="matrix(1,0,0,1,-56.75,79.6875)" style="display: none;" class="TextLabel DimensionMeasureLabel"><text x="52.671875" y="-1.2em" fill="#000000" stroke="none" style="font-family: Verdana; font-size: 33px; fill-opacity: 1; cursor: default;">7'1" x 3'1"</text><text x="0" y="0em" fill="#000000" stroke="none" style="font-family: Verdana; font-size: 33px; fill-opacity: 1; cursor: default;">2.15 m x 0.93 m</text></g></g></g></g><g id="c74ed1a4-accc-4cb4-bb1e-bbf0c58e5074" fill="#ffffff" stroke="#000000" style="fill-opacity: 1; stroke-opacity: 1; stroke-width: 0.2;" class="Space Outdoor Balcony"><polygon points="105.56,350.17 105.56,115.15 613.52,115.15 613.52,350.17 105.56,350.17 105.56,350.17 "/><g transform="matrix(1,0,0,1,105.5591,115.1499)" class="Dimension"><g transform="matrix(1,0,0,1,0,0)" style="display: none;" class="Visual"><g id="mark1" fill="#000000" stroke="none" transform="matrix(1,0,0,1,253.9827,0)" style="fill-opacity: 1; pointer-events: visible;" class="DimensionMark"><polygon points="-5,5,0,0,5,5"/></g><g id="mark2" fill="#000000" stroke="none" transform="matrix(1,0,0,1,507.9655,117.5082)" style="fill-opacity: 1; pointer-events: visible;" class="DimensionMark"><polygon points="-5,-5,0,0,-5,5"/></g><g id="mark3" fill="#000000" stroke="none" transform="matrix(1,0,0,1,253.9827,235.0164)" style="fill-opacity: 1; pointer-events: visible;" class="DimensionMark"><polygon points="-5,-5,0,0,5,-5"/></g><g id="mark4" fill="#000000" stroke="none" transform="matrix(1,0,0,1,0,117.5082)" style="fill-opacity: 1; pointer-events: visible;" class="DimensionMark"><polygon points="5,5,0,0,5,-5"/></g></g><g transform="matrix(1,0,0,1,177.6075,115.1215)" class="SpaceDimensionsLabel"><g id="NameLabel" style="display: block;" class="TextLabel NameLabel"><text x="0" y="0em" fill="#000000" stroke="none" style="font-family: Verdana; font-size: 33px; fill-opacity: 1; cursor: default;">PARVEKE</text></g><g id="DimensionMeasureLabel" transform="matrix(1,0,0,1,-63.7265,79.3593)" style="display: none;" class="TextLabel DimensionMeasureLabel"><text x="42.1796875" y="-1.2em" fill="#000000" stroke="none" style="font-family: Verdana; font-size: 33px; fill-opacity: 1; cursor: default;">16'8" x 7'9"</text><text x="0" y="0em" fill="#000000" stroke="none" style="font-family: Verdana; font-size: 33px; fill-opacity: 1; cursor: default;">5.08 m x 2.35 m</text></g></g></g></g><g id="01865bd1-6612-4fdb-9af7-f88956c8bc17" fill="#ffffff" stroke="#ffffff" style="fill-opacity: 1; stroke-opacity: 1; stroke-width: 0.2;" class="Space Bath Shower"><polygon points="317.81,811.24 317.81,997.77 272.86,997.77 272.86,1066.00 120.97,1066.00 120.97,976.85 112.00,976.85 112.00,811.24 "/><g transform="matrix(1,0,0,1,112.002,811.2372)" class="Dimension"><g transform="matrix(1,0,0,1,0,0)" style="display: none;" class="Visual"><g id="mark1" fill="#000000" stroke="none" transform="matrix(1,0,0,1,102.9038,0)" style="fill-opacity: 1; pointer-events: visible;" class="DimensionMark"><polygon points="-5,5,0,0,5,5"/></g><g id="mark2" fill="#000000" stroke="none" transform="matrix(1,0,0,1,205.8076,127.3835)" style="fill-opacity: 1; pointer-events: visible;" class="DimensionMark"><polygon points="-5,-5,0,0,-5,5"/></g><g id="mark3" fill="#000000" stroke="none" transform="matrix(1,0,0,1,102.9038,254.767)" style="fill-opacity: 1; pointer-events: visible;" class="DimensionMark"><polygon points="-5,-5,0,0,5,-5"/></g><g id="mark4" fill="#000000" stroke="none" transform="matrix(1,0,0,1,0,127.3835)" style="fill-opacity: 1; pointer-events: visible;" class="DimensionMark"><polygon points="5,5,0,0,5,-5"/></g></g><g transform="matrix(1,0,0,1,85.7948,135.9161)" class="SpaceDimensionsLabel"><g id="NameLabel" style="display: block;" class="TextLabel NameLabel"><text x="0" y="0em" fill="#000000" stroke="none" style="font-family: Verdana; font-size: 33px; fill-opacity: 1; cursor: default;">PESU</text></g><g id="DimensionMeasureLabel" transform="matrix(1,0,0,1,-96.2656,79.3594)" style="display: none;" class="TextLabel DimensionMeasureLabel"><text x="52.671875" y="-1.2em" fill="#000000" stroke="none" style="font-family: Verdana; font-size: 33px; fill-opacity: 1; cursor: default;">6'9" x 8'4"</text><text x="0" y="0em" fill="#000000" stroke="none" style="font-family: Verdana; font-size: 33px; fill-opacity: 1; cursor: default;">2.06 m x 2.55 m</text></g></g></g></g><g id="e11c5620-7a65-46be-b917-bbf8780210df" fill="#ffffff" stroke="#ffffff" style="fill-opacity: 1; stroke-opacity: 1; stroke-width: 0.2;" class="Space Undefined"><polygon points="267.86,1218.35 116.75,1218.35 116.75,1080.00 185.45,1080.00 185.45,1076.40 267.86,1076.40 "/><g transform="matrix(1,0,0,1,116.7519,1076.3995)" class="Dimension"><g transform="matrix(1,0,0,1,0,0)" style="display: none;" class="Visual"><g id="mark1" fill="#000000" stroke="none" transform="matrix(1,0,0,1,75.5521,0)" style="fill-opacity: 1; pointer-events: visible;" class="DimensionMark"><polygon points="-5,5,0,0,5,5"/></g><g id="mark2" fill="#000000" stroke="none" transform="matrix(1,0,0,1,151.1043,70.9741)" style="fill-opacity: 1; pointer-events: visible;" class="DimensionMark"><polygon points="-5,-5,0,0,-5,5"/></g><g id="mark3" fill="#000000" stroke="none" transform="matrix(1,0,0,1,75.5521,141.9482)" style="fill-opacity: 1; pointer-events: visible;" class="DimensionMark"><polygon points="-5,-5,0,0,5,-5"/></g><g id="mark4" fill="#000000" stroke="none" transform="matrix(1,0,0,1,0,70.9741)" style="fill-opacity: 1; pointer-events: visible;" class="DimensionMark"><polygon points="5,5,0,0,5,-5"/></g></g><g transform="matrix(1,0,0,1,-43.155,103.1106)" class="SpaceDimensionsLabel"><g id="NameLabel" style="display: block;" class="TextLabel NameLabel"><text x="0" y="0em" fill="#000000" stroke="none" style="font-family: Verdana; font-size: 33px; fill-opacity: 1; cursor: default;">UNDEFINED</text></g><g id="DimensionMeasureLabel" transform="matrix(1,0,0,1,-40.5078,79.3594)" style="display: none;" class="TextLabel DimensionMeasureLabel"><text x="42.1796875" y="-1.2em" fill="#000000" stroke="none" style="font-family: Verdana; font-size: 33px; fill-opacity: 1; cursor: default;">4'11" x 4'8"</text><text x="0" y="0em" fill="#000000" stroke="none" style="font-family: Verdana; font-size: 33px; fill-opacity: 1; cursor: default;">1.51 m x 1.42 m</text></g></g></g></g><g id="Wall" fill="#000000" stroke="#000000" style="fill-opacity: 1; stroke-opacity: 1; stroke-width: 0.2;" class="Wall External"><polygon points="112.00,379.17 625.09,379.17 643.52,350.17 92.00,350.17 "/><g id="Window" fill="#f0f0ff" stroke="#000000" style="fill-opacity: 1; stroke-width: 1; stroke-opacity: 1;" class="Window Regular"><polygon points="150.01,379.17 298.08,379.17 298.08,350.17 150.01,350.17 "/><g id="Glass" class="Glass"><polygon points="150.01,379.17 298.08,379.17 298.08,350.17 150.01,350.17 "/></g><g id="Panel" class="Panel"><line x1="157.5104054388821" x2="290.5830177324309" y1="364.66625133576156" y2="364.66625133576156"/><line x1="157.5104054388821" x2="157.5104054388821" y1="379.16625133576156" y2="350.16625133576156"/><line x1="290.5830177324309" x2="290.5830177324309" y1="379.16625133576156" y2="350.16625133576156"/></g></g><g id="Door" fill="#ffffff" stroke="#000000" style="fill-opacity: 1; stroke-width: 1; stroke-opacity: 1;" class="Door Swing Beside"><polygon points="332.75,379.17 419.72,379.17 419.72,350.17 332.75,350.17 "/><g id="Threshold" class="Threshold"><polygon points="332.75,379.17 419.72,379.17 419.72,350.17 332.75,350.17 "/></g><g id="Panel" fill="none" style="" class="Panel Left Positive"><g id="PanelArea" fill="none" stroke="none" style="" class="PanelArea"><polygon points="332.75,379.17 419.72,379.17 419.72,350.17 332.75,350.17 "/></g><path d="M419.72,350.17 q0.00,-86.97 -86.97,-86.97 l0.00,86.97Z"/></g></g><g id="Window" fill="#f0f0ff" stroke="#000000" style="fill-opacity: 1; stroke-width: 1; stroke-opacity: 1;" class="Window Regular"><polygon points="446.02,379.17 603.78,379.17 603.78,350.17 446.02,350.17 "/><g id="Glass" class="Glass"><polygon points="446.02,379.17 603.78,379.17 603.78,350.17 446.02,350.17 "/></g><g id="Panel" class="Panel"><line x1="453.51737045179027" x2="596.2843580158315" y1="364.66625133576156" y2="364.66625133576156"/><line x1="453.51737045179027" x2="453.51737045179027" y1="379.16625133576156" y2="350.16625133576156"/><line x1="596.2843580158315" x2="596.2843580158315" y1="379.16625133576156" y2="350.16625133576156"/></g></g></g><g id="Wall" fill="#000000" stroke="#000000" style="fill-opacity: 1; stroke-opacity: 1; stroke-width: 0.2;" class="Wall External"><polygon points="643.52,350.17 643.52,1252.48 625.09,1224.48 625.09,379.17 "/></g><g id="Wall" fill="#000000" stroke="#000000" style="fill-opacity: 1; stroke-opacity: 1; stroke-width: 0.2;" class="Wall External"><polygon points="643.52,1252.48 281.86,1252.48 281.86,1224.48 625.09,1224.48 "/><g id="Door" fill="#ffffff" stroke="#000000" style="fill-opacity: 1; stroke-width: 1; stroke-opacity: 1;" class="Door Swing Beside"><polygon points="445.20,1252.48 355.40,1252.48 355.40,1224.48 445.20,1224.48 "/><g id="Threshold" class="Threshold"><polygon points="445.20,1252.48 355.40,1252.48 355.40,1224.48 445.20,1224.48 "/></g><g id="Panel" fill="none" style="" class="Panel Right Negative"><g id="PanelArea" fill="none" stroke="none" style="" class="PanelArea"><polygon points="445.20,1252.48 355.40,1252.48 355.40,1224.48 445.20,1224.48 "/></g><path d="M355.40,1252.48 q0.00,89.80 89.80,89.80 l0.00,-89.80Z"/></g></g></g><g id="Wall" fill="#000000" stroke="#000000" style="fill-opacity: 1; stroke-opacity: 1; stroke-width: 0.2;" class="Wall External"><polygon points="281.86,1252.48 92.00,1252.48 116.75,1218.35 281.86,1218.35 "/><g id="Window" fill="#f0f0ff" stroke="#000000" style="fill-opacity: 1; stroke-width: 1; stroke-opacity: 1;" class="Window Regular"><polygon points="255.98,1252.48 185.75,1252.48 185.75,1218.35 255.98,1218.35 "/><g id="Glass" class="Glass"><polygon points="255.98,1252.48 185.75,1252.48 185.75,1218.35 255.98,1218.35 "/></g><g id="Panel" class="Panel"><line x1="248.48347983701683" x2="193.2506546648146" y1="1235.4148902555062" y2="1235.4148902555062"/><line x1="248.48347983701683" x2="248.48347983701683" y1="1252.4820424064446" y2="1218.3477381045677"/><line x1="193.25065466481462" x2="193.25065466481462" y1="1252.4820424064446" y2="1218.3477381045677"/></g></g></g><g id="Wall" fill="#000000" stroke="#000000" style="fill-opacity: 1; stroke-opacity: 1; stroke-width: 0.2;" class="Wall External"><polygon points="92.00,976.85 92.00,350.17 112.00,379.17 112.00,976.85 "/></g><g id="Wall" fill="#000000" stroke="#000000" style="fill-opacity: 1; stroke-opacity: 1; stroke-width: 0.2;" class="Wall External"><polygon points="92.00,1252.48 92.00,1066.00 116.75,1066.00 116.75,1218.35 "/></g><g id="Wall" fill="#000000" stroke="#000000" style="fill-opacity: 1; stroke-opacity: 1; stroke-width: 0.2;" class="Wall External"><polygon points="92.00,1066.00 92.00,976.85 120.97,976.85 120.97,1066.00 "/></g><g id="Wall" fill="#000000" stroke="#000000" style="fill-opacity: 1; stroke-opacity: 1; stroke-width: 0.2;" class="Wall"><polygon points="92.00,1066.00 185.45,1066.00 185.45,1080.00 92.00,1080.00 "/></g><g id="Wall" fill="#000000" stroke="#000000" style="fill-opacity: 1; stroke-opacity: 1; stroke-width: 0.2;" class="Wall"><polygon points="185.45,1066.00 272.86,1066.00 281.86,1076.40 185.45,1076.40 "/><g id="Door" fill="#ffffff" stroke="#000000" style="fill-opacity: 1; stroke-width: 1; stroke-opacity: 1;" class="Door Swing Beside"><polygon points="189.44,1066.00 267.41,1066.00 267.41,1076.40 189.44,1076.40 "/><g id="Threshold" class="Threshold"><polygon points="189.44,1066.00 267.41,1066.00 267.41,1076.40 189.44,1076.40 "/></g><g id="Panel" fill="none" style="" class="Panel Left Negative"><g id="PanelArea" fill="none" stroke="none" style="" class="PanelArea"><polygon points="189.44,1066.00 267.41,1066.00 267.41,1076.40 189.44,1076.40 "/></g><path d="M189.44,1066.00 q0.00,-77.97 77.97,-77.97 l0.00,77.97Z"/></g></g></g><g id="Wall" fill="#000000" stroke="#000000" style="fill-opacity: 1; stroke-opacity: 1; stroke-width: 0.2;" class="Wall"><polygon points="281.86,1066.00 281.86,1252.48 267.86,1252.48 267.86,1076.40 "/></g><g id="Wall" fill="#000000" stroke="#000000" style="fill-opacity: 1; stroke-opacity: 1; stroke-width: 0.2;" class="Wall"><polygon points="281.86,1076.40 281.86,1006.77 272.86,997.77 272.86,1066.00 "/></g><g id="Wall" fill="#000000" stroke="#000000" style="fill-opacity: 1; stroke-opacity: 1; stroke-width: 0.2;" class="Wall"><polygon points="272.86,997.77 317.81,997.77 327.81,1006.77 281.86,1006.77 "/></g><g id="Wall" fill="#000000" stroke="#000000" style="fill-opacity: 1; stroke-opacity: 1; stroke-width: 0.2;" class="Wall"><polygon points="327.81,1006.77 327.81,737.03 317.81,737.03 317.81,997.77 "/><g id="Door" fill="#ffffff" stroke="#000000" style="fill-opacity: 1; stroke-width: 1; stroke-opacity: 1;" class="Door Swing Beside"><polygon points="327.81,977.45 327.81,898.35 317.81,898.35 317.81,977.45 "/><g id="Threshold" class="Threshold"><polygon points="327.81,977.45 327.81,898.35 317.81,898.35 317.81,977.45 "/></g><g id="Panel" fill="none" style="" class="Panel Left Negative"><g id="PanelArea" fill="none" stroke="none" style="" class="PanelArea"><polygon points="327.81,977.45 327.81,898.35 317.81,898.35 317.81,977.45 "/></g><path d="M327.81,977.45 q79.10,0.00 79.10,-79.10 l-79.10,0.00Z"/></g></g></g><g id="Wall" fill="#000000" stroke="#000000" style="fill-opacity: 1; stroke-opacity: 1; stroke-width: 0.2;" class="Wall"><polygon points="327.81,658.24 327.81,490.70 317.81,490.70 317.81,658.24 "/></g><g id="Wall" fill="#000000" stroke="#000000" style="fill-opacity: 1; stroke-opacity: 1; stroke-width: 0.2;" class="Wall"><polygon points="327.81,419.01 327.81,350.17 317.81,350.17 317.81,419.01 "/></g><g id="Wall" fill="#000000" stroke="#000000" style="fill-opacity: 1; stroke-opacity: 1; stroke-width: 0.2;" class="Wall"><polygon points="472.23,1252.48 472.23,1134.58 462.23,1134.58 462.23,1252.48 "/></g><g class="FixedFurniture CoatCloset" fill="#ffffff" stroke="#000000" transform="matrix(-1,0,0,-1,203.3155,801.2372)" style="fill-opacity: 1; stroke-opacity: 1;">
        <g class="BoundaryPolygon">
            <polygon points="0.00,0.00 91.31,0.00 91.31,60.00 0.00,60.00 "/>
        </g>
        <g class="Hanger" fill="#ffffff" stroke="#9a9a9a" stroke-dasharray="5,5">
            <line x1="0" y1="30" x2="91.31357815642534" y2="30"/>
        </g>
        <g class="Direction" fill-opacity="0.9" style="display: none;">
            <polygon points="46.81,54.52 46.81,43.90 43.80,43.90 43.80,54.52 39.99,54.52 45.30,59.82 50.60,54.52 46.81,54.52 " fill="#444444"/>
        </g> 
        <g class="Name" fill-opacity="0.9" style="display: none;">
            <text transform="translate(3 12)" font-size="12" font-family="Verdana, Sans-Serif">CWH</text>
        </g>
        <desc>Width:120 Height:200 Depth:60 Elevation:0</desc>
     </g><g class="FixedFurniture Closet" fill="#ffffff" stroke="#000000" transform="matrix(-1,0,0,-1,258.8955,801.2372)" style="fill-opacity: 1; stroke-opacity: 1;">
        <g class="BoundaryPolygon">
            <polygon points="0.00,0.00 55.58,0.00 55.58,60.00 0.00,60.00 "/>
        </g>
        <g class="Direction" fill-opacity="0.9" style="display: none;">
            <polygon points="29.19,54.70 29.19,44.08 26.18,44.08 26.18,54.70 22.38,54.70 27.68,60.00 32.98,54.70 29.19,54.70 " fill="#444444"/>
        </g> 
        <g class="Name" fill-opacity="0.9" style="display: none;">
            <text transform="translate(3 12)" font-size="12" font-family="Verdana, Sans-Serif">CL</text>
        </g>
        <desc>Width:60 Height:200 Depth:60 Elevation:0</desc>
     </g><g class="FixedFurniture Housing" fill="#ffffff" stroke="#000000" transform="matrix(-1,0,0,-1,269.5275,801.2372)" style="fill-opacity: 1; stroke-opacity: 1;">
        <g class="BoundaryPolygon">
            <polygon points="0,0 10,0 10,60 0,60"/>
        </g> 
        <g class="Name" fill-opacity="0.9" style="display: none;">
            <text transform="translate(3 12)" font-size="12" font-family="Verdana, Sans-Serif">EMPTY</text>
        </g>
        <desc>Width:60 Height:200 Depth:60 Elevation:0</desc>
     </g><g id="Wall" fill="#000000" stroke="#000000" style="fill-opacity: 1; stroke-opacity: 1; stroke-width: 0.2;" class="Wall"><polygon points="92.00,801.24 269.53,801.24 269.53,811.24 92.00,811.24 "/></g><g id="Wall" fill="#000000" stroke="#000000" style="fill-opacity: 1; stroke-opacity: 1; stroke-width: 0.2;" class="Wall"><polygon points="269.53,740.94 327.81,740.94 327.81,811.24 269.53,811.24 "/></g><g id="Wall" fill="#000000" stroke="#000000" style="fill-opacity: 1; stroke-opacity: 1; stroke-width: 0.2;" class="Wall"><polygon points="643.52,350.17 643.52,253.65 613.52,253.65 613.52,350.17 "/></g><g id="Wall" fill="#000000" stroke="#000000" style="fill-opacity: 1; stroke-opacity: 1; stroke-width: 0.2;" class="Wall"><polygon points="613.52,253.65 613.52,115.15 622.52,115.15 622.52,253.65 "/></g><g id="Wall" fill="#000000" stroke="#000000" style="fill-opacity: 1; stroke-opacity: 1; stroke-width: 0.2;" class="Wall"><polygon points="105.56,115.15 105.56,350.17 95.77,350.17 95.77,115.15 "/></g><g id="Railing" fill="#ffffff" stroke="#000000" style="fill-opacity: 1; stroke-opacity: 1; stroke-width: 0.2;" class="Railing"><polygon points="105.56,115.15 613.52,115.15 613.52,128.15 105.56,128.15 " style="stroke-dasharray: 0;"/></g><g class="FixedFurniture SaunaBenchHigh" fill="#ffffff" stroke="#000000" transform="matrix(-1,0,0,-1,267.9719,1218.3477)" style="fill-opacity: 1; stroke-opacity: 1;">
        <g class="BoundaryPolygon">
            <polygon points="0.00,0.00 151.22,0.00 151.22,51.31 0.00,51.31 "/> 
        </g>
        <g class="Bench" stroke="#9a9a9a" stroke-width="0.5">
            <line x1="0" y1="3.4209070236989843" x2="151.21957638244075" y2="3.4209070236989843"/>
            <line x1="0" y1="6.8418140473979685" x2="151.21957638244075" y2="6.8418140473979685"/>
            <line x1="0" y1="10.262721071096953" x2="151.21957638244075" y2="10.262721071096953"/>
            <line x1="0" y1="13.683628094795937" x2="151.21957638244075" y2="13.683628094795937"/>
            <line x1="0" y1="17.104535118494926" x2="151.21957638244075" y2="17.104535118494926"/>
            <line x1="0" y1="20.525442142193906" x2="151.21957638244075" y2="20.525442142193906"/>
            <line x1="0" y1="23.946349165892894" x2="151.21957638244075" y2="23.946349165892894"/>
            <line x1="0" y1="27.367256189591874" x2="151.21957638244075" y2="27.367256189591874"/>
            <line x1="0" y1="30.788163213290854" x2="151.21957638244075" y2="30.788163213290854"/>
            <line x1="0" y1="34.20907023698985" x2="151.21957638244075" y2="34.20907023698985"/>
            <line x1="0" y1="37.62997726068883" x2="151.21957638244075" y2="37.62997726068883"/>
            <line x1="0" y1="41.05088428438781" x2="151.21957638244075" y2="41.05088428438781"/>
            <line x1="0" y1="44.47179130808679" x2="151.21957638244075" y2="44.47179130808679"/>
            <line x1="0" y1="47.89269833178579" x2="151.21957638244075" y2="47.89269833178579"/>
        </g>
         <g class="Direction" fill-opacity="0.9" style="display: none;">
            <polygon points="77.99,46.74 77.99,36.13 74.98,36.13 74.98,46.74 71.18,46.74 76.48,52.05 81.78,46.74 77.99,46.74 " fill="#444444"/>
        </g> 
        <g class="Name" fill-opacity="0.9" style="display: none;">
            <text transform="translate(3 12)" font-size="12" font-family="Verdana, Sans-Serif">SB_HIGH</text>
        </g>
        <desc>Width:185 Height:5 Depth:60 Elevation:105</desc>
    </g><g class="FixedFurniture SaunaBenchMid" fill="#ffffff" stroke="#000000" transform="matrix(-1,0,0,-1,267.9719,1167.0341)" style="fill-opacity: 1; stroke-opacity: 1;">
        <g class="BoundaryPolygon">
            <polygon points="0.00,0.00 151.22,0.00 151.22,30.67 0.00,30.67 "/>
        </g>
        <g class="Bench" stroke="#9a9a9a" stroke-width="0.5">
            <line x1="0" y1="3.067016871515031" x2="151.21957638244075" y2="3.067016871515031"/>
            <line x1="0" y1="6.134033743030062" x2="151.21957638244075" y2="6.134033743030062"/>
            <line x1="0" y1="9.201050614545089" x2="151.21957638244075" y2="9.201050614545089"/>
            <line x1="0" y1="12.268067486060124" x2="151.21957638244075" y2="12.268067486060124"/>
            <line x1="0" y1="15.335084357575155" x2="151.21957638244075" y2="15.335084357575155"/>
            <line x1="0" y1="18.402101229090178" x2="151.21957638244075" y2="18.402101229090178"/>
            <line x1="0" y1="21.469118100605225" x2="151.21957638244075" y2="21.469118100605225"/>
            <line x1="0" y1="24.536134972120248" x2="151.21957638244075" y2="24.536134972120248"/>
            <line x1="0" y1="27.60315184363529" x2="151.21957638244075" y2="27.60315184363529"/>
        </g>
        <g class="Direction" fill-opacity="0.9" style="display: none;">
            <polygon points="76.84,26.57 76.84,15.96 73.83,15.96 73.83,26.57 70.03,26.57 75.33,31.88 80.64,26.57 76.84,26.57 " fill="#444444"/>
        </g> 
        <g class="Name" fill-opacity="0.9" style="display: none;">
            <text transform="translate(3 12)" font-size="12" font-family="Verdana, Sans-Serif">SB_MID</text>
        </g>
        <desc>Width:185 Height:5 Depth:40 Elevation:60</desc>
    </g><g class="FixedFurniture ElectricalAppliance SaunaStove" fill="#ffffff" stroke="#000000" transform="matrix(0.9194,0,0,0.906,123.7835,1085.3412)" style="fill-opacity: 1; stroke-opacity: 1;"> 
	   <g class="BoundaryPolygon"> 
		    <polygon points="0,0 60,0 60,35 0,35"/>
		</g>
	    <g class="electricitySign" fill="none">
		    <polyline points="0 35 39.7 17.5 21.4 17.5 60 0"/>
		</g>
        <g class="Direction" fill-opacity="0.9" style="display: none;">
            <polygon points="31.509 29.697 31.509 19.081 28.5 19.081 28.5 29.697 24.697 29.697 30 35 35.303 29.697 31.509 29.697" fill="#444444"/>
        </g> 
        <g class="Name" fill-opacity="0.9" style="display: none;">
            <text transform="translate(3 12)" font-size="12" font-family="Verdana, Sans-Serif">SS</text>
        </g>
        <desc>Width:60 Height:60 Depth:35 Elevation:20</desc>
	</g><g class="FixedFurniture CoatCloset" fill="#ffffff" stroke="#000000" transform="matrix(0,-1,1,0,281.903,1224.482)" style="fill-opacity: 1; stroke-opacity: 1;">
        <g class="BoundaryPolygon">
            <polygon points="0.00,0.00 94.17,0.00 94.17,60.00 0.00,60.00 "/>
        </g>
        <g class="Hanger" fill="#ffffff" stroke="#9a9a9a" stroke-dasharray="5,5">
            <line x1="0" y1="30" x2="94.17380254477777" y2="30"/>
        </g>
        <g class="Direction" fill-opacity="0.9" style="display: none;">
            <polygon points="48.27,54.52 48.27,43.90 45.26,43.90 45.26,54.52 41.46,54.52 46.76,59.82 52.07,54.52 48.27,54.52 " fill="#444444"/>
        </g> 
        <g class="Name" fill-opacity="0.9" style="display: none;">
            <text transform="translate(3 12)" font-size="12" font-family="Verdana, Sans-Serif">CWH</text>
        </g>
        <desc>Width:120 Height:200 Depth:60 Elevation:0</desc>
     </g><g class="FixedFurniture Closet" fill="#ffffff" stroke="#000000" transform="matrix(0,-1,1,0,281.9187,1130.3082)" style="fill-opacity: 1; stroke-opacity: 1;">
        <g class="BoundaryPolygon">
            <polygon points="0.00,0.00 74.23,0.00 74.23,60.00 0.00,60.00 "/>
        </g>
        <g class="Direction" fill-opacity="0.9" style="display: none;">
            <polygon points="38.98,54.70 38.98,44.08 35.97,44.08 35.97,54.70 32.17,54.70 37.47,60.00 42.78,54.70 38.98,54.70 " fill="#444444"/>
        </g> 
        <g class="Name" fill-opacity="0.9" style="display: none;">
            <text transform="translate(3 12)" font-size="12" font-family="Verdana, Sans-Serif">CL</text>
        </g>
        <desc>Width:60 Height:200 Depth:60 Elevation:0</desc>
     </g><g class="FixedFurniture Closet" fill="#ffffff" stroke="#000000" transform="matrix(0,-1,1,0,281.9186,1056.1957)" style="fill-opacity: 1; stroke-opacity: 1;">
        <g class="BoundaryPolygon">
            <polygon points="0.00,0.00 49.43,0.00 49.43,60.00 0.00,60.00 "/>
        </g>
        <g class="Direction" fill-opacity="0.9" style="display: none;">
            <polygon points="25.96,54.70 25.96,44.08 22.95,44.08 22.95,54.70 19.15,54.70 24.45,60.00 29.76,54.70 25.96,54.70 " fill="#444444"/>
        </g> 
        <g class="Name" fill-opacity="0.9" style="display: none;">
            <text transform="translate(3 12)" font-size="12" font-family="Verdana, Sans-Serif">CL</text>
        </g>
        <desc>Width:60 Height:200 Depth:60 Elevation:0</desc>
     </g><g class="FixedFurniture ElectricalAppliance Refrigerator" fill="#ffffff" stroke="#000000" transform="matrix(-1.0542,0,0,-1,535.4821,1224.4821)" style="fill-opacity: 1; stroke-opacity: 1;">
        <g class="BoundaryPolygon">
            <polygon points="0,0 60,0 60,60 0,60"/>
        </g>
        <g class="electricitySign" fill="none">
            <path d="M0,0,30,37.1v-18L60,56.3"/>
        </g>
        <g class="Doors">
            <rect y="56" width="60" height="4"/>
        </g>
        <g class="Direction" fill-opacity="0.9" style="display: none;">
            <polygon points="32.009 55.197 32.009 44.581 29 44.581 29 55.197 25.197 55.197 30.5 60 35.803 55.197 32.009 55.197" fill="#444444"/>
        </g> 
        <g class="Name" fill-opacity="0.9" style="display: none;">
            <text transform="translate(3 12)" font-size="12" font-family="Verdana, Sans-Serif">REF</text>
        </g>
        <desc>Width:60 Height:170 Depth:60 Elevation:0</desc>
    </g><g transform="matrix(1,0,0,1,565.0876,878.882)" class="FixedFurniture Closet" fill="#ffffff" stroke="#000000" style="fill-opacity: 1; stroke-opacity: 1;"><desc>Width:120 Height:200 Depth:60 Elevation:0</desc><g class="BoundaryPolygon"><polygon points="0.00,0.00 60.00,0.00 60.00,345.60 -29.61,345.60 -29.61,285.60 0.00,285.60 0.00,0.00 "/></g></g><g class="FixedFurniture ElectricalAppliance Dishwasher" fill="#ffffff" stroke="#000000" transform="matrix(0,1.1523,-1,0,625.0876,878.8821)" style="fill-opacity: 1; stroke-opacity: 1;"> 
        <g class="BoundaryPolygon"> 
		    <polygon points="0,0 60,0 60,60 0,60"/>
		</g>
	    <g class="electricitySign" fill="none">
            <path d="M0,0,30,38.9v-20L60,60"/>
	    </g>
	    <g class="Handle"> 
		    <path d="M10,59.6H49.8"/>
		</g>
        <g class="Direction" fill-opacity="0.9" style="display: none;">
            <polygon points="32.009 55.197 32.009 44.581 29 44.581 29 55.197 25.197 55.197 30.5 60 35.803 55.197 32.009 55.197" fill="#444444"/>
        </g> 
        <g class="Name" fill-opacity="0.9" style="display: none;">
            <text transform="translate(3 12)" font-size="12" font-family="Verdana, Sans-Serif">DW</text>
        </g>
        <desc>Width:60 Height:90 Depth:60 Elevation:0</desc>
	</g><g class="FixedFurniture DoubleSinkRight" fill="#ffffff" stroke="#000000" transform="matrix(0,1,-1,0,623.5642,981.9196)" style="fill-opacity: 1; stroke-opacity: 1;">
        <g class="BoundaryPolygon" fill="none" stroke="none">
            <polygon points="0.00,0.00 47.49,0.00 47.49,56.34 0.00,56.34 0.00,0.00 "/>
        </g>
        <g class="InnerPolygonLeft">
            <polygon points="3.39,9.90 16.96,9.90 16.96,51.55 3.39,51.55 "/>
        </g>
        <g class="InnerPolygonRight">
            <polygon points="19.00,10.00 44.10,10.00 44.10,51.65 19.00,51.65 "/>
        </g>
        <g class="OuterDrain" stroke-width="0.8">
            <circle cx="10.177429453778107" cy="30.519624475910057" r="3.5"/>
            <circle cx="31.21078365825287" cy="30.519624475910057" r="3.5"/>
        </g>
        <g class="InnerDrain" stroke-width="0.8">
            <circle cx="10.177429453778107" cy="30.519624475910057" r="2"/>
            <circle cx="31.21078365825287" cy="30.519624475910057" r="2"/>
        </g>
        <g class="Faucet">
            <polygon points="21.71,4.60 27.71,4.60 27.71,18.60 21.71,18.60 "/>
        </g>
        <g class="Direction" fill-opacity="0.9" style="display: none;">
            <polygon points="24.77,51.36 24.77,40.75 21.76,40.75 21.76,51.36 17.96,51.36 23.26,56.67 28.57,51.36 24.77,51.36 " fill="#444444"/>
        </g> 
        <g class="Name" fill-opacity="0.9" style="display: none;">
            <text transform="translate(3 12)" font-size="12" font-family="Verdana, Sans-Serif">DSINK</text>
        </g>
        <desc>Width:70 Height:90 Depth:60 Elevation:0</desc>
    </g><g class="FixedFurniture ElectricalAppliance IntegratedStove" fill="#ffffff" stroke="#000000" transform="matrix(0,1,-1,0,627.1173,1070.6521)" style="fill-opacity: 1; stroke-opacity: 1;">
        <g class="BoundaryPolygon" fill="none" stroke="none">
            <polygon points="0.00,0.00 62.89,0.00 62.89,64.06 0.00,64.06 "/>
        </g>
        <g class="InnerPolygon">
            <polygon points="2.00,2.00 60.80,2.00 60.80,61.92 2.00,61.92 "/>
        </g>
        <g class="OuterCircle">
            <circle cx="16.771058320852717" cy="17.08163103377724" r="8"/>
            <circle cx="46.12041038234497" cy="17.08163103377724" r="8"/>
            <circle cx="16.771058320852717" cy="46.974485342887405" r="8"/>
            <circle cx="46.12041038234497" cy="46.974485342887405" r="8"/>
        </g>
        <g class="Direction" fill-opacity="0.9" style="display: none;">
            <polygon points="33.55,58.93 33.55,48.31 30.54,48.31 30.54,58.93 26.74,58.93 32.04,63.73 37.35,58.93 33.55,58.93 " fill="#444444"/>
        </g> 
        <g class="Name" fill-opacity="0.9" style="display: none;">
            <text transform="translate(3 12)" font-size="12" font-family="Verdana, Sans-Serif">INT_STOVE</text>
        </g>
        <desc>Width:60 Height:90 Depth:30 Elevation:0</desc>
    </g><g class="FixedFurniture WallCabinet" fill="#ffffff" stroke="#000000" transform="matrix(0,1,-1,0,624.9626,878.8821)" style="fill-opacity: 0.7; stroke-opacity: 1;">	
        <g class="BoundaryPolygon">
            <polygon points="0.00,0.00 345.58,0.00 345.58,30.00 0.00,30.00 "/>
        </g>
        <g class="Direction" fill-opacity="0.9" style="display: none;">
            <polygon points="184.36,25.20 184.36,14.58 181.35,14.58 181.35,25.20 177.55,25.20 182.85,30.00 188.15,25.20 184.36,25.20 " fill="#444444"/>
        </g> 
        <g class="Name" fill-opacity="0.9" style="display: none;">
            <text transform="translate(3 12)" font-size="12" font-family="Verdana, Sans-Serif">UC</text>
        </g>
        <desc>Width:60 Height:60 Depth:30 Elevation:140</desc>
    </g><g class="FixedFurniture Shower" fill="#ffffff" stroke="#000000" transform="matrix(0,-1,1,0,120.9739,1036.1805)" style="fill-opacity: 1; stroke-opacity: 1;"> 
	    <g class="BoundaryPolygon" fill="none" stroke="none">
            <polygon points="0,0 32,0 32,19 0,19"/>
        </g>
        <g class="InnerPolygon"> 
			<rect x="3.7" y="0.5" width="11.2" height="6.1"/>
			<rect x="17.6" y="0.5" width="11.2" height="6.1"/>
			<rect x="28.7" y="0.5" width="3.4" height="6.1"/>
			<rect x="0.5" y="0.5" width="3.2" height="6.1"/>
			<path d="M14.9,8.5c0,1.5-0.4,3.3-1.6,5    c-0.4,0.6-1,1.1-1.1,1.7c-0.2,1.1,0.3,2.8,2.5,3.2c0.5,0.1,1.3,0.1,1.6,0.1h-0.1c0.3,0,1.1,0,1.6-0.1c2.2-0.4,2.7-2.1,2.5-3.2    c-0.1-0.6-0.7-1.1-1.1-1.7c-1.2-1.7-1.6-3.5-1.6-5"/>
			<path d="M12.2,15.3c0.1,0.2,1.6,1.9,4.2,1.9 c2.4-0.1,3.7-1.7,3.9-1.9"/>
			<path d="M14.9,0.5h2.7v8c-0.9,0-1.8,0-2.7,0l0,0 C14.9,5.9,14.9,3.2,14.9,0.5z"/>
		</g>
	    <g class="Indicator"> 
			<path d="M3.7,3.6C5,3.1,5.2,3,5.2,3 c0,1.1,0,0,0,1.1C5.2,4.1,5.1,4.1,3.7,3.6"/>
			<path d="M28.7,3.6 C27.4,3.1,27.2,3,27.2,3c0,1.1,0,0,0,1.1C27.2,4.1,27.3,4.1,28.7,3.6"/>	
		</g>
        <desc>Width:32 Height:97 Depth:19 Elevation:135</desc>
	</g><g class="FixedFurniture ShowerScreen" fill="#ffffff" stroke="#000000" transform="matrix(0,-1,1.1578,0,120.9739,979.3531)" style="fill-opacity: 1; stroke-opacity: 1;">
        <g class="BoundaryPolygon">
            <polygon points="0,0 2.5,0 2.5,60 0,60"/>
        </g>
	    <g class="InnerPolygon" stroke-linejoin="round"> 
			<rect width="2.5" height="60"/>
	    </g> 
        <desc>Width:2.5 Height:180 Depth:60 Elevation:135</desc>
    </g><g class="FixedFurniture Toilet" fill="#ffffff" stroke="#000000" transform="matrix(0,-1,1,0,112.0019,951.0165)" style="fill-opacity: 1; stroke-opacity: 1;">
	   <g class="BoundaryPolygon" fill="none" stroke="none"> 
            <polygon points="0,0 41,0 41,71 0,71"/>
		</g>
        <g class="InnerPolygon">
            <rect x="0.502" y="0.5" width="39.989" height="17.98"/>
            <path d="M40.491,44.237S41.619,70.5,20.907,70.5C-.523,70.5.6,44.237.6,44.237L.5,18.48H40.491Z"/>
            <rect x="17.318" y="7.975" width="6.357" height="3.03"/>
        </g>
        <desc>Width:41 Height:85 Depth:71 Elevation:0</desc>
    </g><g id="FixedFurnitureSet" transform="matrix(1,0,0,1,184.3782,811.2372)" class="FixedFurnitureSet" fill="#ffffff" stroke="#000000" style="fill-opacity: 0.4; stroke-opacity: 0.4;"><g class="FixedFurniture BaseCabinet" fill="#ffffff" stroke="#000000" transform="matrix(1,0,0,1,0,0)" style="fill-opacity: 1; stroke-opacity: 1;">
        <g class="BoundaryPolygon">
            <polygon points="0.00,0.00 60.56,0.00 60.56,43.68 0.00,43.68 "/>
        </g>
        <g class="Direction" fill-opacity="0.9" style="display: none;">
            <polygon points="32.31,40.19 32.31,29.57 29.30,29.57 29.30,40.19 25.50,40.19 30.80,44.99 36.10,40.19 32.31,40.19 " fill="#444444"/>
        </g> 
        <g class="Name" fill-opacity="0.9" style="display: none;">
            <text transform="translate(3 12)" font-size="12" font-family="Verdana, Sans-Serif">CB</text>
        </g>
        <desc>Width:60 Height:5 Depth:60 Elevation:105</desc>
    </g><g class="FixedFurniture Sink" fill="#ffffff" stroke="#000000" transform="matrix(1,0,0,1,0,0)" style="fill-opacity: 1; stroke-opacity: 1;">
        <g class="BoundaryPolygon" fill="none" stroke="none">
        <polygon points="0.00,0.00 60.56,0.00 60.56,43.68 0.00,43.68 "/>
        </g>
        <g class="InnerPolygon">
            <polygon points="5.05,9.70 55.52,9.70 55.52,39.82 5.05,39.82 "/>
        </g>
        <g class="OuterDrain" stroke-width="0.8">
            <circle cx="30.281324538398678" cy="23.443304868110708" r="3.5"/>
        </g>
        <g class="InnerDrain" stroke-width="0.8">
            <circle cx="30.281324538398678" cy="23.443304868110708" r="2"/>
        </g>
        <g class="Faucet">
            <polygon points="27.25,3.64 33.25,3.64 33.25,17.64 27.25,17.64 "/>
        </g>
        <g class="Direction" fill-opacity="0.9" style="display: none;">
            <polygon points="32.31,40.19 32.31,29.57 29.30,29.57 29.30,40.19 25.50,40.19 30.80,44.99 36.10,40.19 32.31,40.19 " fill="#444444"/>
        </g> 
        <g class="Name" fill-opacity="0.9" style="display: none;">
            <text transform="translate(3 12)" font-size="12" font-family="Verdana, Sans-Serif">SINK</text>
        </g>
        <desc>Width:60 Height:90 Depth:60 Elevation:0</desc>
    </g></g><g class="FixedFurniture ElectricalAppliance WashingMachine" fill="#ffffff" stroke="#000000" transform="matrix(0.9859,0,0,1,258.6556,811.3153)" style="fill-opacity: 1; stroke-opacity: 1;">
	   <g class="BoundaryPolygon">
		    <polygon points="0,0 60,0 60,60 0,60"/>
		</g>	
	    <g class="electricitySign" fill="none">
            <path d="M0,0,30,41V20.8L60,60"/>
		</g>
	    <g class="Handle">
		    <path d="M2.7,59.4H57.3"/>
		</g>
        <g class="Direction" fill-opacity="0.9" style="display: none;">
            <polygon points="32.009 55.197 32.009 44.581 29 44.581 29 55.197 25.197 55.197 30.5 60 35.803 55.197 32.009 55.197" fill="#444444"/>
        </g> 
        <g class="Name" fill-opacity="0.9" style="display: none;">
            <text transform="translate(3 12)" font-size="12" font-family="Verdana, Sans-Serif">WM</text>
        </g>
        <desc>Width:60 Height:90 Depth:60 Elevation:0</desc>
    </g><g id="Railing" fill="#ffffff" stroke="#000000" style="fill-opacity: 1; stroke-opacity: 1; stroke-width: 0.2;" class="Railing"><polygon points="483.16,1252.48 483.16,1345.79 477.16,1345.79 477.16,1252.48 " style="stroke-dasharray: 0;"/></g><g fill="#0000ff" stroke="#0000ff" style="display: none;" class="SelectionControls"><g style="display: none;" class="rotateControl"><circle cx="241.5311573874102" cy="883.747011412053" r="5" style="stroke : none; fill-opacity: 0.5; cursor:crosshair"/></g><g style="display: none;" class="ResizeNControl"><circle cx="0" cy="0" r="5" style="stroke : none; fill-opacity: 0.5"/></g><g style="display: none;" class="ResizeNEControl"><circle cx="0" cy="0" r="5" style="stroke : none; fill-opacity: 0.5"/></g><g style="display: none;" class="ResizeEControl"><circle cx="0" cy="0" r="5" style="stroke : none; fill-opacity: 0.5"/></g><g style="display: none;" class="ResizeSEControl"><circle cx="0" cy="0" r="5" style="stroke : none; fill-opacity: 0.5"/></g><g style="display: none;" class="ResizeSControl"><circle cx="0" cy="0" r="5" style="stroke : none; fill-opacity: 0.5"/></g><g style="display: none;" class="ResizeSWControl"><circle cx="0" cy="0" r="5" style="stroke : none; fill-opacity: 0.5"/></g><g style="display: none;" class="ResizeWControl"><circle cx="0" cy="0" r="5" style="stroke : none; fill-opacity: 0.5"/></g><g style="display: none;" class="ResizeNWControl"><circle cx="0" cy="0" r="5" style="stroke : none; fill-opacity: 0.5"/></g><g style="display: none;" class="removeControl"><polygon style="stroke : none; fill-opacity: 0.1" points="197.80,913.75 285.27,913.75 285.27,953.51 197.80,953.51 "/></g><g style="display: none;" class="copyPasteControl"><polygon style="stroke : none; fill-opacity: 0.1"/></g><g style="display: none;" class="translateControl"><polygon style="stroke : none; fill-opacity: 0.1; cursor:move" points="197.80,913.75 285.27,913.75 285.27,953.51 197.80,953.51 "/></g></g><g fill="#0000ff" stroke="#0000ff" style="display: none;" class="SelectionControls"><polygon fill="none" stroke="#0000ff" style="" points="112.00,811.24 317.81,811.24 317.81,1066.00 112.00,1066.00 "/><g style="display: none;" class="rotateControl"><circle cx="214.90578335176565" cy="781.237161412053" r="5" style="stroke : none; fill-opacity: 0.5; cursor:crosshair"/></g><g style="display: none;" class="ResizeNControl"><circle cx="0" cy="0" r="5" style="stroke : none; fill-opacity: 0.5"/></g><g style="display: none;" class="ResizeNEControl"><circle cx="0" cy="0" r="5" style="stroke : none; fill-opacity: 0.5"/></g><g style="display: none;" class="ResizeEControl"><circle cx="0" cy="0" r="5" style="stroke : none; fill-opacity: 0.5"/></g><g style="display: none;" class="ResizeSEControl"><circle cx="0" cy="0" r="5" style="stroke : none; fill-opacity: 0.5"/></g><g style="display: none;" class="ResizeSControl"><circle cx="0" cy="0" r="5" style="stroke : none; fill-opacity: 0.5"/></g><g style="display: none;" class="ResizeSWControl"><circle cx="0" cy="0" r="5" style="stroke : none; fill-opacity: 0.5"/></g><g style="display: none;" class="ResizeWControl"><circle cx="0" cy="0" r="5" style="stroke : none; fill-opacity: 0.5"/></g><g style="display: none;" class="ResizeNWControl"><circle cx="0" cy="0" r="5" style="stroke : none; fill-opacity: 0.5"/></g><g style="display: none;" class="removeControl"><polygon style="stroke : none; fill-opacity: 0.1"/></g><g style="display: none;" class="copyPasteControl"><polygon style="stroke : none; fill-opacity: 0.1"/></g><g style="display: none;" class="translateControl"><polygon style="stroke : none; fill-opacity: 0.1; cursor:move"/></g></g></g></g></g></svg>
