<?xml version="1.0"?>
<svg xmlns="http://www.w3.org/2000/svg" xmlns:xlink="http://www.w3.org/1999/xlink" height="919.1700134277344" version="1.1" width="1201.349983215332" id="temp" viewBox="0 0 1201.349983215332 919.1700134277344"><defs/><g id="Model" class="Model v1-1"><g class="Floor"><g id="Floor-1" transform="matrix(1,0,0,1,0,0)" class="Floorplan Floor-1"><g id="41c64287-71ef-4122-85f5-0feb376f38fd" class="Space Bath" fill="#ffffff" stroke="#ffffff" style="fill-opacity: 1; stroke-opacity: 1; stroke-width: 0.2;"><polygon points="790.27,682.21 599.40,682.21 599.40,523.59 790.27,523.59 "/><g transform="matrix(1,0,0,1,599.4041,523.5899)" class="Dimension"><g transform="matrix(1,0,0,1,0,0)" style="display: none;" class="Visual"><g id="mark1" fill="#000000" stroke="none" transform="matrix(1,0,0,1,95.4305,0)" style="fill-opacity: 1; pointer-events: visible;" class="DimensionMark"><polygon points="-5,5,0,0,5,5"/></g><g id="mark2" fill="#000000" stroke="none" transform="matrix(1,0,0,1,190.8611,79.3098)" style="fill-opacity: 1; pointer-events: visible;" class="DimensionMark"><polygon points="-5,-5,0,0,-5,5"/></g><g id="mark3" fill="#000000" stroke="none" transform="matrix(1,0,0,1,95.4305,158.6197)" style="fill-opacity: 1; pointer-events: visible;" class="DimensionMark"><polygon points="-5,-5,0,0,5,-5"/></g><g id="mark4" fill="#000000" stroke="none" transform="matrix(1,0,0,1,0,79.3098)" style="fill-opacity: 1; pointer-events: visible;" class="DimensionMark"><polygon points="5,5,0,0,5,-5"/></g></g><g transform="matrix(1,0,0,1,101.6195,127.5867)" class="SpaceDimensionsLabel"><g id="NameLabel" style="display: none;" class="TextLabel NameLabel"><text x="0" y="0em" fill="#000000" stroke="none" style="font-family: Verdana; font-size: 33px; fill-opacity: 1; cursor: default;">KH</text></g><g id="DimensionMeasureLabel" transform="matrix(1,0,0,1,-116.1797,79.5938)" style="display: none;" class="TextLabel DimensionMeasureLabel"><text x="52.6796875" y="-1.2em" fill="#000000" stroke="none" style="font-family: Verdana; font-size: 33px; fill-opacity: 1; cursor: default;">6'3" x 5'2"</text><text x="0" y="0em" fill="#000000" stroke="none" style="font-family: Verdana; font-size: 33px; fill-opacity: 1; cursor: default;">1.91 m x 1.59 m</text></g></g></g></g><g id="980a2f0e-f99e-4f05-90ed-6b15a60407bd" class="Space Closet WalkIn" fill="#ffffff" stroke="#ffffff" style="fill-opacity: 1; stroke-opacity: 1; stroke-width: 0.2;"><polygon points="1183.35,822.23 971.88,822.23 971.88,689.62 1183.35,689.62 "/><g transform="matrix(1,0,0,1,971.8836,689.6153)" class="Dimension"><g transform="matrix(1,0,0,1,0,0)" style="display: none;" class="Visual"><g id="mark1" fill="#000000" stroke="none" transform="matrix(1,0,0,1,105.731,0)" style="fill-opacity: 1; pointer-events: visible;" class="DimensionMark"><polygon points="-5,5,0,0,5,5"/></g><g id="mark2" fill="#000000" stroke="none" transform="matrix(1,0,0,1,211.4621,66.3072)" style="fill-opacity: 1; pointer-events: visible;" class="DimensionMark"><polygon points="-5,-5,0,0,-5,5"/></g><g id="mark3" fill="#000000" stroke="none" transform="matrix(1,0,0,1,105.731,132.6143)" style="fill-opacity: 1; pointer-events: visible;" class="DimensionMark"><polygon points="-5,-5,0,0,5,-5"/></g><g id="mark4" fill="#000000" stroke="none" transform="matrix(1,0,0,1,0,66.3072)" style="fill-opacity: 1; pointer-events: visible;" class="DimensionMark"><polygon points="5,5,0,0,5,-5"/></g></g><g transform="matrix(1,0,0,1,93.0444,70.1962)" class="SpaceDimensionsLabel"><g id="NameLabel" style="display: none;" class="TextLabel NameLabel"><text x="0" y="0em" fill="#000000" stroke="none" style="font-family: Verdana; font-size: 33px; fill-opacity: 1; cursor: default;">VH</text></g><g id="DimensionMeasureLabel" transform="matrix(1,0,0,1,-116.3359,79.5938)" style="display: none;" class="TextLabel DimensionMeasureLabel"><text x="42.1875" y="-1.2em" fill="#000000" stroke="none" style="font-family: Verdana; font-size: 33px; fill-opacity: 1; cursor: default;">6'11" x 4'4"</text><text x="0" y="0em" fill="#000000" stroke="none" style="font-family: Verdana; font-size: 33px; fill-opacity: 1; cursor: default;">2.11 m x 1.33 m</text></g></g></g></g><g id="307a1150-9ee0-4533-94d4-226a8cb9d42e" class="Space Kitchen" fill="#ffffff" stroke="#ffffff" style="fill-opacity: 1; stroke-opacity: 1; stroke-width: 0.2;"><polygon points="820.27,513.59 599.40,513.59 599.40,315.56 820.27,315.56 "/><g transform="matrix(1,0,0,1,599.4041,315.5591)" class="Dimension"><g transform="matrix(1,0,0,1,0,0)" style="display: none;" class="Visual"><g id="mark1" fill="#000000" stroke="none" transform="matrix(1,0,0,1,110.4305,0)" style="fill-opacity: 1; pointer-events: visible;" class="DimensionMark"><polygon points="-5,5,0,0,5,5"/></g><g id="mark2" fill="#000000" stroke="none" transform="matrix(1,0,0,1,220.8611,99.0154)" style="fill-opacity: 1; pointer-events: visible;" class="DimensionMark"><polygon points="-5,-5,0,0,-5,5"/></g><g id="mark3" fill="#000000" stroke="none" transform="matrix(1,0,0,1,110.4305,198.0308)" style="fill-opacity: 1; pointer-events: visible;" class="DimensionMark"><polygon points="-5,-5,0,0,5,-5"/></g><g id="mark4" fill="#000000" stroke="none" transform="matrix(1,0,0,1,0,99.0154)" style="fill-opacity: 1; pointer-events: visible;" class="DimensionMark"><polygon points="5,5,0,0,5,-5"/></g></g><g transform="matrix(1,0,0,1,47.6119,103.7657)" class="SpaceDimensionsLabel"><g id="NameLabel" style="display: none;" class="TextLabel NameLabel"><text x="0" y="0em" fill="#000000" stroke="none" style="font-family: Verdana; font-size: 33px; fill-opacity: 1; cursor: default;">KEITTI&#xD6;</text></g><g id="DimensionMeasureLabel" transform="matrix(1,0,0,1,-71.5,79.5938)" style="display: none;" class="TextLabel DimensionMeasureLabel"><text x="52.6796875" y="-1.2em" fill="#000000" stroke="none" style="font-family: Verdana; font-size: 33px; fill-opacity: 1; cursor: default;">7'3" x 6'6"</text><text x="0" y="0em" fill="#000000" stroke="none" style="font-family: Verdana; font-size: 33px; fill-opacity: 1; cursor: default;">2.21 m x 1.98 m</text></g></g></g></g><g id="a15f36c6-7935-476b-8a67-a9286914371c" class="Space Bedroom" fill="#ffffff" stroke="#ffffff" style="fill-opacity: 1; stroke-opacity: 1; stroke-width: 0.2;"><polygon points="85.68,315.56 580.40,315.56 580.40,682.21 467.37,682.21 467.37,678.21 109.70,678.21 109.70,527.34 85.68,527.22 85.68,315.56 85.68,315.56 "/><g transform="matrix(1,0,0,1,85.6796,315.5591)" class="Dimension"><g transform="matrix(1,0,0,1,0,0)" style="display: none;" class="Visual"><g id="mark1" fill="#000000" stroke="none" transform="matrix(1,0,0,1,247.3623,0)" style="fill-opacity: 1; pointer-events: visible;" class="DimensionMark"><polygon points="-5,5,0,0,5,5"/></g><g id="mark2" fill="#000000" stroke="none" transform="matrix(1,0,0,1,494.7245,183.3252)" style="fill-opacity: 1; pointer-events: visible;" class="DimensionMark"><polygon points="-5,-5,0,0,-5,5"/></g><g id="mark3" fill="#000000" stroke="none" transform="matrix(1,0,0,1,247.3623,362.6504)" style="fill-opacity: 1; pointer-events: visible;" class="DimensionMark"><polygon points="-5,-5,0,0,5,-5"/></g><g id="mark4" fill="#000000" stroke="none" transform="matrix(1,0,0,1,0,183.3252)" style="fill-opacity: 1; pointer-events: visible;" class="DimensionMark"><polygon points="5,5,0,0,5,-5"/></g></g><g transform="matrix(1,0,0,1,245.8473,192.0852)" class="SpaceDimensionsLabel"><g id="NameLabel" style="display: none;" class="TextLabel NameLabel"><text x="0" y="0em" fill="#000000" stroke="none" style="font-family: Verdana; font-size: 33px; fill-opacity: 1; cursor: default;">MH</text></g><g id="DimensionMeasureLabel" transform="matrix(1,0,0,1,-113.7031,79.5938)" style="display: none;" class="TextLabel DimensionMeasureLabel"><text x="21.2109375" y="-1.2em" fill="#000000" stroke="none" style="font-family: Verdana; font-size: 33px; fill-opacity: 1; cursor: default;">16'3" x 11'11"</text><text x="0" y="0em" fill="#000000" stroke="none" style="font-family: Verdana; font-size: 33px; fill-opacity: 1; cursor: default;">4.95 m x 3.63 m</text></g></g></g></g><g id="f6d19258-f9b6-4008-801c-97affc70ec3e" class="Space LivingRoom" fill="#ffffff" stroke="#ffffff" style="fill-opacity: 1; stroke-opacity: 1; stroke-width: 0.2;"><polygon points="1183.35,313.56 1183.35,677.62 959.88,677.62 959.88,693.21 839.27,693.21 839.27,313.56 "/><g transform="matrix(1,0,0,1,839.2652,313.5591)" class="Dimension"><g transform="matrix(1,0,0,1,0,0)" style="display: none;" class="Visual"><g id="mark1" fill="#000000" stroke="none" transform="matrix(1,0,0,1,172.0402,0)" style="fill-opacity: 1; pointer-events: visible;" class="DimensionMark"><polygon points="-5,5,0,0,5,5"/></g><g id="mark2" fill="#000000" stroke="none" transform="matrix(1,0,0,1,344.0805,189.8252)" style="fill-opacity: 1; pointer-events: visible;" class="DimensionMark"><polygon points="-5,-5,0,0,-5,5"/></g><g id="mark3" fill="#000000" stroke="none" transform="matrix(1,0,0,1,172.0402,364.0562)" style="fill-opacity: 1; pointer-events: visible;" class="DimensionMark"><polygon points="-5,-5,0,0,5,-5"/></g><g id="mark4" fill="#000000" stroke="none" transform="matrix(1,0,0,1,0,189.8252)" style="fill-opacity: 1; pointer-events: visible;" class="DimensionMark"><polygon points="5,5,0,0,5,-5"/></g></g><g transform="matrix(1,0,0,1,183.0289,197.6516)" class="SpaceDimensionsLabel"><g id="NameLabel" style="display: none;" class="TextLabel NameLabel"><text x="0" y="0em" fill="#000000" stroke="none" style="font-family: Verdana; font-size: 33px; fill-opacity: 1; cursor: default;">OH</text></g><g id="DimensionMeasureLabel" transform="matrix(1,0,0,1,-114.625,79.5938)" style="display: none;" class="TextLabel DimensionMeasureLabel"><text x="21.2109375" y="-1.2em" fill="#000000" stroke="none" style="font-family: Verdana; font-size: 33px; fill-opacity: 1; cursor: default;">11'3" x 11'11"</text><text x="0" y="0em" fill="#000000" stroke="none" style="font-family: Verdana; font-size: 33px; fill-opacity: 1; cursor: default;">3.44 m x 3.64 m</text></g></g></g></g><g id="e2979228-e789-4dff-9feb-93a661dbc1c8" class="Space Entry Lobby" fill="#ffffff" stroke="#ffffff" style="fill-opacity: 1; stroke-opacity: 1; stroke-width: 0.2;"><polygon points="959.88,822.23 467.37,822.23 467.37,693.21 959.88,693.21 "/><g transform="matrix(1,0,0,1,467.3735,693.2096)" class="Dimension"><g transform="matrix(1,0,0,1,0,0)" style="display: none;" class="Visual"><g id="mark1" fill="#000000" stroke="none" transform="matrix(1,0,0,1,246.255,0)" style="fill-opacity: 1; pointer-events: visible;" class="DimensionMark"><polygon points="-5,5,0,0,5,5"/></g><g id="mark2" fill="#000000" stroke="none" transform="matrix(1,0,0,1,492.51,64.51)" style="fill-opacity: 1; pointer-events: visible;" class="DimensionMark"><polygon points="-5,-5,0,0,-5,5"/></g><g id="mark3" fill="#000000" stroke="none" transform="matrix(1,0,0,1,246.255,129.0201)" style="fill-opacity: 1; pointer-events: visible;" class="DimensionMark"><polygon points="-5,-5,0,0,5,-5"/></g><g id="mark4" fill="#000000" stroke="none" transform="matrix(1,0,0,1,0,64.51)" style="fill-opacity: 1; pointer-events: visible;" class="DimensionMark"><polygon points="5,5,0,0,5,-5"/></g></g><g transform="matrix(1,0,0,1,318.7561,88.8166)" class="SpaceDimensionsLabel"><g id="NameLabel" style="display: none;" class="TextLabel NameLabel"><text x="0" y="0em" fill="#000000" stroke="none" style="font-family: Verdana; font-size: 33px; fill-opacity: 1; cursor: default;">ET</text></g><g id="DimensionMeasureLabel" transform="matrix(1,0,0,1,-119.1797,79.5938)" style="display: none;" class="TextLabel DimensionMeasureLabel"><text x="42.1875" y="-1.2em" fill="#000000" stroke="none" style="font-family: Verdana; font-size: 33px; fill-opacity: 1; cursor: default;">16'2" x 4'3"</text><text x="0" y="0em" fill="#000000" stroke="none" style="font-family: Verdana; font-size: 33px; fill-opacity: 1; cursor: default;">4.93 m x 1.29 m</text></g></g></g></g><g id="02472806-a284-4c62-8acf-03a2bbf346be" class="Space Outdoor Balcony" fill="#ffffff" stroke="#000000" style="stroke-width: 0.2; fill-opacity: 1; stroke-opacity: 1;"><polygon points="839.27,149.35 1183.35,149.35 1183.35,290.56 839.27,290.56 839.27,149.35 839.27,149.35 "/><g transform="matrix(1,0,0,1,839.2652,149.353)" class="Dimension"><g transform="matrix(1,0,0,1,0,0)" style="display: none;" class="Visual"><g id="mark1" fill="#000000" stroke="none" transform="matrix(1,0,0,1,172.0402,0)" style="fill-opacity: 1; pointer-events: visible;" class="DimensionMark"><polygon points="-5,5,0,0,5,5"/></g><g id="mark2" fill="#000000" stroke="none" transform="matrix(1,0,0,1,344.0805,70.603)" style="fill-opacity: 1; pointer-events: visible;" class="DimensionMark"><polygon points="-5,-5,0,0,-5,5"/></g><g id="mark3" fill="#000000" stroke="none" transform="matrix(1,0,0,1,172.0402,141.2061)" style="fill-opacity: 1; pointer-events: visible;" class="DimensionMark"><polygon points="-5,-5,0,0,5,-5"/></g><g id="mark4" fill="#000000" stroke="none" transform="matrix(1,0,0,1,0,70.603)" style="fill-opacity: 1; pointer-events: visible;" class="DimensionMark"><polygon points="5,5,0,0,5,-5"/></g></g><g transform="matrix(1,0,0,1,133.6041,79.6616)" class="SpaceDimensionsLabel"><g id="NameLabel" style="display: none;" class="TextLabel NameLabel"><text x="0" y="0em" fill="#000000" stroke="none" style="font-family: Verdana; font-size: 33px; fill-opacity: 1; cursor: default;">PARVEKE</text></g><g id="DimensionMeasureLabel" transform="matrix(1,0,0,1,-64.1328,79.5938)" style="display: none;" class="TextLabel DimensionMeasureLabel"><text x="42.1875" y="-1.2em" fill="#000000" stroke="none" style="font-family: Verdana; font-size: 33px; fill-opacity: 1; cursor: default;">11'3" x 4'8"</text><text x="0" y="0em" fill="#000000" stroke="none" style="font-family: Verdana; font-size: 33px; fill-opacity: 1; cursor: default;">3.44 m x 1.41 m</text></g></g></g></g><g id="Wall" class="Wall External" fill="#000000" stroke="#000000" style="fill-opacity: 1; stroke-opacity: 1; stroke-width: 0.2;"><polygon points="66.62,140.66 66.62,527.48 85.62,527.48 85.62,140.66 "/></g><g id="Wall" class="Wall External" fill="#000000" stroke="#000000" style="fill-opacity: 1; stroke-opacity: 1; stroke-width: 0.2;"><polygon points="66.62,527.48 66.62,697.21 109.62,678.21 109.62,527.48 "/></g><g id="Wall" class="Wall External" fill="#000000" stroke="#000000" style="fill-opacity: 1; stroke-opacity: 1; stroke-width: 0.2;"><polygon points="109.62,678.21 307.38,678.21 307.38,697.21 66.62,697.21 "/></g><g id="Wall" class="Wall External" fill="#000000" stroke="#000000" style="fill-opacity: 1; stroke-opacity: 1; stroke-width: 0.2;"><polygon points="307.38,678.21 467.37,678.21 449.37,726.21 307.38,726.21 "/></g><g id="Wall" class="Wall External" fill="#000000" stroke="#000000" style="fill-opacity: 1; stroke-opacity: 1; stroke-width: 0.2;"><polygon points="467.37,678.21 467.37,822.23 449.37,840.23 449.37,726.21 "/></g><g id="Wall" class="Wall External" fill="#000000" stroke="#000000" style="fill-opacity: 1; stroke-opacity: 1; stroke-width: 0.2;"><polygon points="467.37,822.23 1183.35,822.23 1201.35,840.23 449.37,840.23 "/><g id="Door" fill="#ffffff" stroke="#000000" style="fill-opacity: 1; stroke-width: 1; stroke-opacity: 1;" class="Door Swing Opposite"><polygon points="612.18,822.23 691.12,822.23 691.12,840.23 612.18,840.23 "/><g id="Threshold" class="Threshold"><polygon points="612.18,822.23 691.12,822.23 691.12,840.23 612.18,840.23 "/></g><g id="Panel" fill="none" style="" class="Panel Right Negative"><g id="PanelArea" fill="none" stroke="none" style="" class="PanelArea"><polygon points="612.18,822.23 691.12,822.23 691.12,840.23 612.18,840.23 "/></g><path d="M691.12,822.23 q0.00,-78.94 -78.94,-78.94 l0.00,78.94Z"/></g><g id="Panel" fill="none" style="" class="Panel Right Positive"><g id="PanelArea" fill="none" stroke="none" style="" class="PanelArea"><polygon points="612.18,822.23 691.12,822.23 691.12,840.23 612.18,840.23 "/></g><path d="M612.18,840.23 q0.00,78.94 78.94,78.94 l0.00,-78.94Z"/></g></g></g><g id="Wall" class="Wall External" fill="#000000" stroke="#000000" style="fill-opacity: 1; stroke-opacity: 1; stroke-width: 0.2;"><polygon points="839.27,290.56 85.62,290.56 85.62,315.56 821.27,315.56 "/><g id="Window" fill="#f0f0ff" stroke="#000000" style="fill-opacity: 1; stroke-width: 1; stroke-opacity: 1;" class="Window Regular"><polygon points="259.63,290.56 129.84,290.56 129.84,315.56 259.63,315.56 "/><g id="Glass" class="Glass"><polygon points="259.63,290.56 129.84,290.56 129.84,315.56 259.63,315.56 "/></g><g id="Panel" class="Panel"><line x1="252.1300048828125" x2="137.33999633789062" y1="303.05999755859375" y2="303.05999755859375"/><line x1="252.1300048828125" x2="252.1300048828125" y1="290.55999755859375" y2="315.55999755859375"/><line x1="137.33999633789062" x2="137.33999633789062" y1="290.55999755859375" y2="315.55999755859375"/></g></g><g id="Window" fill="#f0f0ff" stroke="#000000" style="fill-opacity: 1; stroke-width: 1; stroke-opacity: 1;" class="Window Regular"><polygon points="516.53,290.56 384.97,290.56 384.97,315.56 516.53,315.56 "/><g id="Glass" class="Glass"><polygon points="516.53,290.56 384.97,290.56 384.97,315.56 516.53,315.56 "/></g><g id="Panel" class="Panel"><line x1="509.030029296875" x2="392.4700012207031" y1="303.05999755859375" y2="303.05999755859375"/><line x1="509.030029296875" x2="509.030029296875" y1="290.55999755859375" y2="315.55999755859375"/><line x1="392.4700012207031" x2="392.4700012207031" y1="290.55999755859375" y2="315.55999755859375"/></g></g><g id="Window" fill="#f0f0ff" stroke="#000000" style="fill-opacity: 1; stroke-width: 1; stroke-opacity: 1;" class="Window Regular"><polygon points="773.43,290.56 643.20,290.56 643.20,315.56 773.43,315.56 "/><g id="Glass" class="Glass"><polygon points="773.43,290.56 643.20,290.56 643.20,315.56 773.43,315.56 "/></g><g id="Panel" class="Panel"><line x1="765.9299926757812" x2="650.7000122070312" y1="303.05999755859375" y2="303.05999755859375"/><line x1="765.9299926757812" x2="765.9299926757812" y1="290.55999755859375" y2="315.55999755859375"/><line x1="650.7000122070312" x2="650.7000122070312" y1="290.55999755859375" y2="315.55999755859375"/></g></g></g><g id="Wall" class="Wall External" fill="#000000" stroke="#000000" style="fill-opacity: 1; stroke-opacity: 1; stroke-width: 0.2;"><polygon points="1201.35,290.56 820.27,290.56 839.27,313.56 1183.35,313.56 "/><g id="Door" fill="#ffffff" stroke="#000000" style="fill-opacity: 1; stroke-width: 1; stroke-opacity: 1;" class="Door Swing Opposite"><polygon points="922.32,290.56 844.74,290.56 844.74,313.56 922.32,313.56 "/><g id="Threshold" class="Threshold"><polygon points="922.32,290.56 844.74,290.56 844.74,313.56 922.32,313.56 "/></g><g id="Panel" fill="none" style="" class="Panel Left Negative"><g id="PanelArea" fill="none" stroke="none" style="" class="PanelArea"><polygon points="922.32,290.56 844.74,290.56 844.74,313.56 922.32,313.56 "/></g><path d="M922.32,290.56 q0.00,-77.58 -77.58,-77.58 l0.00,77.58Z"/></g><g id="Panel" fill="none" style="" class="Panel Right Positive"><g id="PanelArea" fill="none" stroke="none" style="" class="PanelArea"><polygon points="922.32,290.56 844.74,290.56 844.74,313.56 922.32,313.56 "/></g><path d="M922.32,313.56 q0.00,77.58 -77.58,77.58 l0.00,-77.58Z"/></g></g><g id="Window" fill="#f0f0ff" stroke="#000000" style="fill-opacity: 1; stroke-width: 1; stroke-opacity: 1;" class="Window Regular"><polygon points="1176.56,290.56 928.10,290.56 928.10,313.56 1176.56,313.56 "/><g id="Glass" class="Glass"><polygon points="1176.56,290.56 928.10,290.56 928.10,313.56 1176.56,313.56 "/></g><g id="Panel" class="Panel"><line x1="1169.06005859375" x2="935.5999755859375" y1="302.05999755859375" y2="302.05999755859375"/><line x1="1169.06005859375" x2="1169.06005859375" y1="290.55999755859375" y2="313.55999755859375"/><line x1="935.5999755859375" x2="935.5999755859375" y1="290.55999755859375" y2="313.55999755859375"/></g></g></g><g id="Wall" class="Wall" fill="#000000" stroke="#000000" style="fill-opacity: 1; stroke-opacity: 1; stroke-width: 0.2;"><polygon points="839.27,313.56 839.27,523.59 820.27,513.59 820.27,290.56 "/><g id="Door" fill="#ffffff" stroke="#000000" style="fill-opacity: 1; stroke-width: 1; stroke-opacity: 1;" class="Door Swing Beside"><polygon points="839.27,361.69 839.27,433.27 820.27,433.27 820.27,361.69 "/><g id="Threshold" class="Threshold"><polygon points="839.27,361.69 839.27,433.27 820.27,433.27 820.27,361.69 "/></g><g id="Panel" fill="none" style="" class="Panel Right Negative"><g id="PanelArea" fill="none" stroke="none" style="" class="PanelArea"><polygon points="839.27,361.69 839.27,433.27 820.27,433.27 820.27,361.69 "/></g><path d="M839.27,433.27 q71.58,0.00 71.58,-71.58 l-71.58,0.00Z"/></g></g></g><g id="Wall" class="Wall" fill="#000000" stroke="#000000" style="fill-opacity: 1; stroke-opacity: 1; stroke-width: 0.2;"><polygon points="449.37,682.21 790.27,682.21 839.27,693.21 449.37,693.21 "/><g id="Door" fill="#ffffff" stroke="#000000" style="fill-opacity: 1; stroke-width: 1; stroke-opacity: 1;" class="Door Swing Beside"><polygon points="504.11,682.21 575.43,682.21 575.43,693.21 504.11,693.21 "/><g id="Threshold" class="Threshold"><polygon points="504.11,682.21 575.43,682.21 575.43,693.21 504.11,693.21 "/></g><g id="Panel" fill="none" style="" class="Panel Left Negative"><g id="PanelArea" fill="none" stroke="none" style="" class="PanelArea"><polygon points="504.11,682.21 575.43,682.21 575.43,693.21 504.11,693.21 "/></g><path d="M504.11,682.21 q0.00,-71.32 71.32,-71.32 l0.00,71.32Z"/></g></g><g id="Door" fill="#ffffff" stroke="#000000" style="fill-opacity: 1; stroke-width: 1; stroke-opacity: 1;" class="Door Swing Beside"><polygon points="681.01,682.21 741.29,682.21 741.29,693.21 681.01,693.21 "/><g id="Threshold" class="Threshold"><polygon points="681.01,682.21 741.29,682.21 741.29,693.21 681.01,693.21 "/></g><g id="Panel" fill="none" style="" class="Panel Right Positive"><g id="PanelArea" fill="none" stroke="none" style="" class="PanelArea"><polygon points="681.01,682.21 741.29,682.21 741.29,693.21 681.01,693.21 "/></g><path d="M681.01,693.21 q0.00,60.28 60.28,60.28 l0.00,-60.28Z"/></g></g></g><g id="Wall" class="Wall" fill="#000000" stroke="#000000" style="fill-opacity: 1; stroke-opacity: 1; stroke-width: 0.2;"><polygon points="790.27,682.21 790.27,513.59 839.27,513.59 839.27,693.21 "/></g><g id="Wall" class="Wall" fill="#000000" stroke="#000000" style="fill-opacity: 1; stroke-opacity: 1; stroke-width: 0.2;"><polygon points="1201.35,677.62 959.88,677.62 971.88,689.62 1201.35,689.62 "/></g><g id="Wall" class="Wall" fill="#000000" stroke="#000000" style="fill-opacity: 1; stroke-opacity: 1; stroke-width: 0.2;"><polygon points="959.88,677.62 959.88,840.23 971.88,840.23 971.88,689.62 "/><g id="Door" fill="#ffffff" stroke="#000000" style="fill-opacity: 1; stroke-width: 1; stroke-opacity: 1;" class="Door Swing Beside"><polygon points="959.88,716.50 959.88,775.43 971.88,775.43 971.88,716.50 "/><g id="Threshold" class="Threshold"><polygon points="959.88,716.50 959.88,775.43 971.88,775.43 971.88,716.50 "/></g><g id="Panel" fill="none" style="" class="Panel Left Negative"><g id="PanelArea" fill="none" stroke="none" style="" class="PanelArea"><polygon points="959.88,716.50 959.88,775.43 971.88,775.43 971.88,716.50 "/></g><path d="M959.88,716.50 q-58.93,0.00 -58.93,58.93 l58.93,0.00Z"/></g></g></g><g id="Wall" class="Wall" fill="#000000" stroke="#000000" style="fill-opacity: 1; stroke-opacity: 1; stroke-width: 0.2;"><polygon points="599.40,290.56 599.40,693.21 580.40,693.21 580.40,290.56 "/><g id="Door" fill="#ffffff" stroke="#000000" style="fill-opacity: 1; stroke-width: 1; stroke-opacity: 1;" class="Door Swing Beside"><polygon points="599.40,361.50 599.40,433.46 580.40,433.46 580.40,361.50 "/><g id="Threshold" class="Threshold"><polygon points="599.40,361.50 599.40,433.46 580.40,433.46 580.40,361.50 "/></g><g id="Panel" fill="none" style="" class="Panel Left Positive"><g id="PanelArea" fill="none" stroke="none" style="" class="PanelArea"><polygon points="599.40,361.50 599.40,433.46 580.40,433.46 580.40,361.50 "/></g><path d="M580.40,433.46 q-71.96,0.00 -71.96,-71.96 l71.96,0.00Z"/></g></g></g><g id="Wall" class="Wall" fill="#000000" stroke="#000000" style="fill-opacity: 1; stroke-opacity: 1; stroke-width: 0.2;"><polygon points="580.40,513.59 820.27,513.59 839.27,523.59 580.40,523.59 "/></g><g id="Railing" class="Railing" fill="#ffffff" stroke="#000000" style="fill-opacity: 1; stroke-opacity: 1; stroke-width: 0.2;"><polygon points="839.27,141.35 1183.35,141.35 1183.35,149.35 839.27,149.35 "/></g><g id="FixedFurnitureSet" transform="matrix(0,-1,1,0,85.6796,527.2198)" class="FixedFurnitureSet" fill="#ffffff" stroke="#000000" style="fill-opacity: 1; stroke-opacity: 1;"><g class="FixedFurniture Closet" transform="matrix(1,0,0,1,0,0)">
        <g class="BoundaryPolygon" fill="rgb(255, 255, 255)" stroke="rgb(0, 0, 0)">
            <polygon points="0.00,0.00 60.12,0.00 60.12,57.18 0.00,57.18 "/>
        </g>
        <g class="Direction" fill-opacity="0.9" style="display: none;">
            <polygon points="31.57,52.13 31.57,41.51 28.56,41.51 28.56,52.13 24.76,52.13 30.06,57.43 35.37,52.13 31.57,52.13 " fill="#444444"/>
        </g> 
        <g class="Name" fill-opacity="0.9" style="display: none;">
            <text transform="translate(3 12)" font-size="12" font-family="Verdana, Sans-Serif">CL</text>
        </g>
        <desc>Width:60 Height:200 Depth:60 Elevation:0</desc>
     </g><g class="FixedFurniture Closet" transform="matrix(1,0,0,1,60.1207,0)">
        <g class="BoundaryPolygon" fill="rgb(255, 255, 255)" stroke="rgb(0, 0, 0)">
            <polygon points="0.00,0.00 60.12,0.00 60.12,57.18 0.00,57.18 "/>
        </g>
        <g class="Direction" fill-opacity="0.9" style="display: none;">
            <polygon points="31.57,52.13 31.57,41.51 28.56,41.51 28.56,52.13 24.76,52.13 30.06,57.43 35.37,52.13 31.57,52.13 " fill="#444444"/>
        </g> 
        <g class="Name" fill-opacity="0.9" style="display: none;">
            <text transform="translate(3 12)" font-size="12" font-family="Verdana, Sans-Serif">CL</text>
        </g>
        <desc>Width:60 Height:200 Depth:60 Elevation:0</desc>
     </g></g><g id="FixedFurnitureSet" transform="matrix(0,-1,1,0,109.6952,646.9388)" class="FixedFurnitureSet" fill="#ffffff" stroke="#000000" style="fill-opacity: 1; stroke-opacity: 1;"><g class="FixedFurniture Closet" transform="matrix(1,0,0,1,0,0)">
        <g class="BoundaryPolygon" fill="rgb(255, 255, 255)" stroke="rgb(0, 0, 0)">
            <polygon points="0.00,0.00 59.80,0.00 59.80,33.15 0.00,33.15 "/>
        </g>
        <g class="Direction" fill-opacity="0.9" style="display: none;">
            <polygon points="31.40,30.22 31.40,19.60 28.39,19.60 28.39,30.22 24.59,30.22 29.89,35.52 35.20,30.22 31.40,30.22 " fill="#444444"/>
        </g> 
        <g class="Name" fill-opacity="0.9" style="display: none;">
            <text transform="translate(3 12)" font-size="12" font-family="Verdana, Sans-Serif">CL</text>
        </g>
        <desc>Width:60 Height:200 Depth:60 Elevation:0</desc>
     </g><g class="FixedFurniture Closet" transform="matrix(1,0,0,1,59.7988,0)">
        <g class="BoundaryPolygon" fill="rgb(255, 255, 255)" stroke="rgb(0, 0, 0)">
            <polygon points="0.00,0.00 59.80,0.00 59.80,33.15 0.00,33.15 "/>
        </g>
        <g class="Direction" fill-opacity="0.9" style="display: none;">
            <polygon points="31.40,30.22 31.40,19.60 28.39,19.60 28.39,30.22 24.59,30.22 29.89,35.52 35.20,30.22 31.40,30.22 " fill="#444444"/>
        </g> 
        <g class="Name" fill-opacity="0.9" style="display: none;">
            <text transform="translate(3 12)" font-size="12" font-family="Verdana, Sans-Serif">CL</text>
        </g>
        <desc>Width:60 Height:200 Depth:60 Elevation:0</desc>
     </g></g><g class="FixedFurniture BaseCabinet" transform="matrix(-1,0,0,-1,820.4367,513.5899)" style="fill-opacity: 1; stroke-opacity: 1;" fill="#ffffff" stroke="#000000">
            <g class="BoundaryPolygon" fill="rgb(255, 255, 255)" stroke="rgb(0, 0, 0)">
                <polygon points="0.00,0.00 163.72,0.00 163.72,60.00 0.00,60.00 "/>
            </g>
            <g class="Direction" fill-opacity="0.9" style="display: none;">
                <polygon points="87.34,55.20 87.34,44.58 84.33,44.58 84.33,55.20 80.53,55.20 85.83,60.00 91.14,55.20 87.34,55.20 " fill="#444444"/>
            </g> 
            <g class="Name" fill-opacity="0.9" style="display: none;">
                <text transform="translate(3 12)" font-size="12" font-family="Verdana, Sans-Serif">CB</text>
            </g>
            <desc>Width:60 Height:90 Depth:60 Elevation:0</desc>
        </g><g class="FixedFurniture ElectricalAppliance Refrigerator" transform="matrix(-0.9476,0,0,-1,656.5426,513.5898)" style="fill-opacity: 1; stroke-opacity: 1;" fill="#ffffff" stroke="#000000">
            <g class="BoundaryPolygon" fill="rgb(255, 255, 255)" stroke="rgb(0, 0, 0)">
                <polygon points="0,0 60,0 60,60 0,60"/>
            </g>
            <g class="electricitySign" fill="none" stroke="rgb(0, 0, 0)">
                    <path d="M0,0,30,37.1v-18L60,56.3"/>
            </g>
            <g class="Doors" fill="rgb(255, 255, 255)" stroke="rgb(0, 0, 0)">
                <rect y="56" width="60" height="4"/>
            </g>
             <g class="Direction" fill-opacity="0.9" style="display: none;">
                <polygon points="32.009 55.197 32.009 44.581 29 44.581 29 55.197 25.197 55.197 30.5 60 35.803 55.197 32.009 55.197" fill="#444444"/>
             </g> 
             <g class="Name" fill-opacity="0.9" style="display: none;">
                <text transform="translate(3 12)" font-size="12" font-family="Verdana, Sans-Serif">REF</text>
             </g>
            <desc>Width:60 Height:170 Depth:60 Elevation:0</desc>
        </g><g class="FixedFurniture SideSink" transform="matrix(-1,0,0,-1,706.8266,516.5596)" style="fill-opacity: 1; stroke-opacity: 1;" fill="#ffffff" stroke="#000000">
            <g class="InnerPolygonTop" fill="rgb(255, 255, 255)" stroke="rgb(0, 0, 0)">
                <polygon points="5.10,10.00 40.37,10.00 40.37,29.79 5.10,29.79 "/>
            </g>
            
            <g class="InnerPolygonBottom" fill="rgb(255, 255, 255)" stroke="rgb(0, 0, 0)">
            <polygon points="5.00,32.37 40.29,32.37 40.29,56.89 5.00,56.89 "/>
            </g>
            
            <g class="OuterDrain" fill="rgb(255, 255, 255)" stroke="rgb(0, 0, 0)" stroke-width="0.8">
                <circle cx="22.160021565897416" cy="20.068413162775403" r="3.5"/>
            <circle cx="22.160021565897416" cy="45.039381517611595" r="3.5"/>
            </g>
            <g class="InnerDrain" fill="rgb(255, 255, 255)" stroke="rgb(0, 0, 0)" stroke-width="0.8">
                <circle cx="22.160021565897416" cy="20.068413162775403" r="2"/>
            <circle cx="22.160021565897416" cy="45.039381517611595" r="2"/>
            </g>
            <g class="Faucet" fill="rgb(255, 255, 255)" stroke="rgb(0, 0, 0)">
                <polygon points="44.40,27.93 44.40,33.93 30.40,33.93 30.40,27.93 44.40,27.93 "/>
            </g>
            <g class="Direction" fill-opacity="0.9" style="display: none;">
                <polygon points="23.38,56.57 23.38,45.96 20.37,45.96 20.37,56.57 16.56,56.57 21.87,61.88 27.17,56.57 23.38,56.57 " fill="#444444"/>
            </g> 
            <g class="Name" fill-opacity="0.9" style="display: none;">
                <text transform="translate(3 12)" font-size="12" font-family="Verdana, Sans-Serif">S_SINK</text>
            </g>
         <desc>Width:70 Height:90 Depth:60 Elevation:0</desc>
        </g><g class="FixedFurniture ElectricalAppliance IntegratedStove" transform="matrix(-1,0,0,-1,822.2651,513.6211)" style="fill-opacity: 1; stroke-opacity: 1;" fill="#ffffff" stroke="#000000">
            <g class="BoundaryPolygon" fill="rgb(255, 255, 255)" stroke="rgb(0, 0, 0)">
                <polygon points="2.00,2.00 51.21,2.00 51.21,58.00 2.00,58.00 "/>
            </g>
            <g class="OuterCircle" fill="rgb(255, 255, 255)" stroke="rgb(0, 0, 0)" stroke-width="0.8">
                <circle cx="14.127687661093045" cy="16" r="8"/>
                <circle cx="38.85114106800591" cy="16" r="8"/>
                <circle cx="14.127687661093045" cy="43.9" r="8"/>
                <circle cx="38.85114106800591" cy="44" r="8"/>
            </g>
             <g class="Direction" fill-opacity="0.9" style="display: none;">
                <polygon points="28.26,55.20 28.26,44.58 25.25,44.58 25.25,55.20 21.45,55.20 26.75,60.00 32.06,55.20 28.26,55.20 " fill="#444444"/>
            </g> 
            <g class="Name" fill-opacity="0.9" style="display: none;">
                <text transform="translate(3 12)" font-size="12" font-family="Verdana, Sans-Serif">INT_STOVE</text>
            </g>
            <desc>Width:60 Height:90 Depth:30 Elevation:0</desc>
        </g><g class="FixedFurniture WallCabinet" transform="matrix(-1,0,0,-1,770.3941,513.5899)" style="fill-opacity: 0.7; stroke-opacity: 1;" fill="#ffffff" stroke="#000000">	
        <g class="BoundaryPolygon" fill="rgb(255, 255, 255)" stroke="rgb(0, 0, 0)">
                <polygon points="0.00,0.00 113.68,0.00 113.68,30.00 0.00,30.00 "/>
        </g>
        <g class="Direction" fill-opacity="0.9" style="display: none;">
                <polygon points="60.65,25.20 60.65,14.58 57.64,14.58 57.64,25.20 53.84,25.20 59.14,30.00 64.44,25.20 60.65,25.20 " fill="#444444"/>
        </g> 
        <g class="Name" fill-opacity="0.9" style="display: none;">
                <text transform="translate(3 12)" font-size="12" font-family="Verdana, Sans-Serif">UC</text>
        </g>
        <desc>Width:60 Height:60 Depth:50 Elevation:140</desc>
        </g><g class="FixedFurniture BaseCabinet" transform="matrix(1,0,0,1,599.4041,315.6841)" style="fill-opacity: 1; stroke-opacity: 1;" fill="#ffffff" stroke="#000000">
            <g class="BoundaryPolygon" fill="rgb(255, 255, 255)" stroke="rgb(0, 0, 0)">
                <polygon points="0.00,0.00 220.66,0.00 220.66,41.31 0.00,41.31 "/>
            </g>
            <g class="Direction" fill-opacity="0.9" style="display: none;">
                <polygon points="117.72,38.01 117.72,27.39 114.71,27.39 114.71,38.01 110.91,38.01 116.21,42.81 121.51,38.01 117.72,38.01 " fill="#444444"/>
            </g> 
            <g class="Name" fill-opacity="0.9" style="display: none;">
                <text transform="translate(3 12)" font-size="12" font-family="Verdana, Sans-Serif">CB</text>
            </g>
            <desc>Width:60 Height:90 Depth:60 Elevation:0</desc>
        </g><g class="FixedFurniture Toilet" transform="matrix(0.9365,0,0,1,732.7704,523.0899)" style="fill-opacity: 1; stroke-opacity: 1;" fill="#ffffff" stroke="#000000">
	   <g class="BoundaryPolygon" fill="rgb(255, 255, 255)" stroke="rgb(0, 0, 0)"> 
		<rect x="0.502" y="0.5" width="39.989" height="17.98"/>
          <path d="M40.491,44.237S41.619,70.5,20.907,70.5C-.523,70.5.6,44.237.6,44.237L.5,18.48H40.491Z"/>
          <rect x="17.318" y="7.975" width="6.357" height="3.03"/>
		</g>
        <desc>Width:40 Height:85 Depth:70 Elevation:0</desc>
    </g><g class="FixedFurniture Shower" transform="matrix(1,0,0,1,620.9394,523.0898)" style="fill-opacity: 1; stroke-opacity: 1;" fill="#ffffff" stroke="#000000"> 
	   <g class="BoundaryPolygon" fill="rgb(255, 255, 255)" stroke="rgb(0, 0, 0)" stroke-linejoin="round"> 
			<rect x="3.7" y="0.5" width="11.2" height="6.1"/>
			<rect x="17.6" y="0.5" width="11.2" height="6.1"/>
			<rect x="28.7" y="0.5" width="3.4" height="6.1"/>
			<rect x="0.5" y="0.5" width="3.2" height="6.1"/>
			<path d="M14.9,8.5c0,1.5-0.4,3.3-1.6,5    c-0.4,0.6-1,1.1-1.1,1.7c-0.2,1.1,0.3,2.8,2.5,3.2c0.5,0.1,1.3,0.1,1.6,0.1h-0.1c0.3,0,1.1,0,1.6-0.1c2.2-0.4,2.7-2.1,2.5-3.2    c-0.1-0.6-0.7-1.1-1.1-1.7c-1.2-1.7-1.6-3.5-1.6-5"/>
			<path d="M12.2,15.3c0.1,0.2,1.6,1.9,4.2,1.9 c2.4-0.1,3.7-1.7,3.9-1.9"/>
			<path d="M14.9,0.5h2.7v8c-0.9,0-1.8,0-2.7,0l0,0 C14.9,5.9,14.9,3.2,14.9,0.5z"/>
		</g>
	   <g class="Indicator" fill="rgb(255, 255, 255)" stroke="rgb(0, 0, 0)" stroke-width="0.5" stroke-linejoin="round"> 
			<path d="M3.7,3.6C5,3.1,5.2,3,5.2,3 c0,1.1,0,0,0,1.1C5.2,4.1,5.1,4.1,3.7,3.6"/>
			<path d="M28.7,3.6 C27.4,3.1,27.2,3,27.2,3c0,1.1,0,0,0,1.1C27.2,4.1,27.3,4.1,28.7,3.6"/>	
		</g>
        <desc>Width:35 Height:97 Depth:20 Elevation:135</desc>
	</g><g class="FixedFurniture ElectricalAppliance WashingMachine" transform="matrix(0,-1.0324,1.0072,0,599.4828,682.2095)" style="fill-opacity: 1; stroke-opacity: 1;" fill="#ffffff" stroke="#000000">
	   <g class="BoundaryPolygon" fill="rgb(255, 255, 255)" stroke="rgb(0, 0, 0)"> 
		<polygon points="0,0 60,0 60,60 0,60"/>
		</g>	
	   <g class="electricitySign" fill="none" stroke="rgb(0, 0, 0)">
        <path d="M0,0,30,41V20.8L60,60"/>
		</g>
	   <g class="Handle" fill="rgb(255, 255, 255)" stroke="rgb(0, 0, 0)"> 
		<path d="M2.7,59.4H57.3"/>
		</g>
         <g class="Direction" fill-opacity="0.9" style="display: none;">
                <polygon points="32.009 55.197 32.009 44.581 29 44.581 29 55.197 25.197 55.197 30.5 60 35.803 55.197 32.009 55.197" fill="#444444"/>
        </g> 
        <g class="Name" fill-opacity="0.9" style="display: none;">
                <text transform="translate(3 12)" font-size="12" font-family="Verdana, Sans-Serif">WM</text>
        </g>
        <desc>Width:60 Height:90 Depth:60 Elevation:0</desc>
    </g><g class="FixedFurniture Closet" transform="matrix(0,-1,1,0,85.6639,406.9791)" style="fill-opacity: 1; stroke-opacity: 1;" fill="#ffffff" stroke="#000000">
        <g class="BoundaryPolygon" fill="rgb(255, 255, 255)" stroke="rgb(0, 0, 0)">
            <polygon points="0.00,0.00 91.42,0.00 91.42,44.81 0.00,44.81 "/>
        </g>
        <g class="Direction" fill-opacity="0.9" style="display: none;">
            <polygon points="48.01,40.85 48.01,30.23 45.00,30.23 45.00,40.85 41.20,40.85 46.50,46.15 51.80,40.85 48.01,40.85 " fill="#444444"/>
        </g> 
        <g class="Name" fill-opacity="0.9" style="display: none;">
            <text transform="translate(3 12)" font-size="12" font-family="Verdana, Sans-Serif">CL</text>
        </g>
        <desc>Width:60 Height:200 Depth:60 Elevation:0</desc>
     </g><g class="FixedFurniture Closet" transform="matrix(0,-1,1,0,109.6951,678.2095)" style="fill-opacity: 1; stroke-opacity: 1;" fill="#ffffff" stroke="#000000">
        <g class="BoundaryPolygon" fill="rgb(255, 255, 255)" stroke="rgb(0, 0, 0)">
            <polygon points="0.00,0.00 31.27,0.00 31.27,33.19 0.00,33.19 "/>
        </g>
        <g class="Direction" fill-opacity="0.9" style="display: none;">
            <polygon points="16.42,30.25 16.42,19.64 13.41,19.64 13.41,30.25 9.61,30.25 14.91,35.56 20.22,30.25 16.42,30.25 " fill="#444444"/>
        </g> 
        <g class="Name" fill-opacity="0.9" style="display: none;">
            <text transform="translate(3 12)" font-size="12" font-family="Verdana, Sans-Serif">CL</text>
        </g>
        <desc>Width:60 Height:200 Depth:60 Elevation:0</desc>
     </g><g class="FixedFurniture Closet" transform="matrix(0,-1,1,0,467.3736,822.3695)" style="fill-opacity: 1; stroke-opacity: 1;" fill="#ffffff" stroke="#000000">
        <g class="BoundaryPolygon" fill="rgb(255, 255, 255)" stroke="rgb(0, 0, 0)">
            <polygon points="0.00,0.00 129.16,0.00 129.16,33.42 0.00,33.42 "/>
        </g>
        <g class="Direction" fill-opacity="0.9" style="display: none;">
            <polygon points="67.83,30.47 67.83,19.85 64.82,19.85 64.82,30.47 61.02,30.47 66.32,35.77 71.62,30.47 67.83,30.47 " fill="#444444"/>
        </g> 
        <g class="Name" fill-opacity="0.9" style="display: none;">
            <text transform="translate(3 12)" font-size="12" font-family="Verdana, Sans-Serif">CL</text>
        </g>
        <desc>Width:60 Height:200 Depth:60 Elevation:0</desc>
     </g><g class="FixedFurniture Closet" transform="matrix(1,0,0,1,971.8835,689.6153)" style="fill-opacity: 1; stroke-opacity: 1;" fill="#ffffff" stroke="#000000">
        <g class="BoundaryPolygon" fill="rgb(255, 255, 255)" stroke="rgb(0, 0, 0)">
            <polygon points="0.00,0.00 211.14,0.00 211.14,22.51 0.00,22.51 "/>
        </g>
        <g class="Direction" fill-opacity="0.9" style="display: none;">
            <polygon points="110.88,20.52 110.88,9.91 107.87,9.91 107.87,20.52 104.07,20.52 109.37,25.83 114.67,20.52 110.88,20.52 " fill="#444444"/>
        </g> 
        <g class="Name" fill-opacity="0.9" style="display: none;">
            <text transform="translate(3 12)" font-size="12" font-family="Verdana, Sans-Serif">CL</text>
        </g>
        <desc>Width:60 Height:200 Depth:60 Elevation:0</desc>
     </g><g class="FixedFurniture CoatCloset" transform="matrix(-1,0,0,-1,1183.0476,822.2296)" style="fill-opacity: 1; stroke-opacity: 1;" fill="#ffffff" stroke="#000000">
        <g class="BoundaryPolygon" fill="rgb(255, 255, 255)" stroke="rgb(0, 0, 0)">
                <polygon points="0.00,0.00 211.16,0.00 211.16,40.21 0.00,40.21 "/>
            </g>
        <g class="Hanger" fill="rgb(255, 255, 255)" stroke="rgb(154, 154, 154)" stroke-dasharray="5,5">
            <line x1="0" y1="20.103903739426457" x2="211.16403827922304" y2="20.103903739426457"/>
            </g>
        <g class="Direction" fill-opacity="0.9" style="display: none;">
            <polygon points="108.24,36.53 108.24,25.92 105.23,25.92 105.23,36.53 101.43,36.53 106.73,41.84 112.03,36.53 108.24,36.53 " fill="#444444"/>
        </g> 
        <g class="Name" fill-opacity="0.9" style="display: none;">
            <text transform="translate(3 12)" font-size="12" font-family="Verdana, Sans-Serif">CWH</text>
        </g>
        <desc>Width:120 Height:200 Depth:60 Elevation:0</desc>
     </g><g class="FixedFurniture BaseCabinet" transform="matrix(1,0,0,1,676.3838,523.6057)" style="fill-opacity: 1; stroke-opacity: 1;" fill="#ffffff" stroke="#000000">
            <g class="BoundaryPolygon" fill="rgb(255, 255, 255)" stroke="rgb(0, 0, 0)">
                <polygon points="0.00,0.00 47.70,0.00 47.70,32.34 0.00,32.34 "/>
            </g>
            <g class="Direction" fill-opacity="0.9" style="display: none;">
                <polygon points="25.45,29.75 25.45,19.13 22.44,19.13 22.44,29.75 18.64,29.75 23.94,34.55 29.24,29.75 25.45,29.75 " fill="#444444"/>
            </g> 
            <g class="Name" fill-opacity="0.9" style="display: none;">
                <text transform="translate(3 12)" font-size="12" font-family="Verdana, Sans-Serif">CB</text>
            </g>
            <desc>Width:60 Height:90 Depth:60 Elevation:0</desc>
        </g><g class="FixedFurniture RoundSink" transform="matrix(0.9332,0,0,0.5789,679.3335,523.6423)" style="fill-opacity: 1; stroke-opacity: 1;" fill="#ffffff" stroke="#000000">
            <g class="InnerPolygon" fill="rgb(255, 255, 255)" stroke="rgb(0, 0, 0)">
                <circle cx="23.5" cy="27.8" r="23"/>
            </g>
            <g class="OuterDrain" fill="rgb(255, 255, 255)" stroke="rgb(0, 0, 0)" stroke-width="0.8">
                <circle cx="23.5" cy="27.7" r="3.5"/>
            </g>
            <g class="InnerDrain" fill="rgb(255, 255, 255)" stroke="rgb(0, 0, 0)" stroke-width="0.8">
                <circle cx="23.5" cy="27.7" r="2"/>
            </g>
            <g class="Faucet" fill="rgb(255, 255, 255)" stroke="rgb(0, 0, 0)">
                <polygon points="20.5 0.5 26.5 0.5 26.5 14.5 20.5 14.5 20.5 0.5"/>
            </g>
            <g class="Name" fill-opacity="0.9" style="display: none;">
                <text transform="translate(6.5 24.5)" font-size="12" font-family="Verdana, Sans-Serif">SINK</text>
            </g>
            <desc>Width:46 Height:90 Depth:50 Elevation:60</desc>
        </g><g id="Wall" fill="#000000" stroke="#000000" style="fill-opacity: 1; stroke-opacity: 1; stroke-width: 0.2;" class="Wall External"><polygon points="1183.35,822.23 1183.35,313.56 1201.35,290.56 1201.35,840.23 "/></g><g id="Wall" fill="#000000" stroke="#000000" style="fill-opacity: 1; stroke-opacity: 1; stroke-width: 0.2;" class="Wall "><polygon points="1183.35,290.56 1183.35,141.35 1201.35,141.35 1201.35,290.56 "/></g><g id="Wall" fill="#000000" stroke="#000000" style="fill-opacity: 1; stroke-opacity: 1; stroke-width: 0.2;" class="Wall"><polygon points="839.27,141.35 839.27,315.56 821.27,290.56 821.27,141.35 "/></g><g id="Wall" fill="#000000" stroke="#000000" style="fill-opacity: 1; stroke-opacity: 1; stroke-width: 0.2;" class="Wall"><polygon points="839.27,290.56 839.27,315.56 821.27,315.56 821.27,315.56 "/></g></g></g></g></svg>
