<?xml version="1.0"?>
<svg xmlns="http://www.w3.org/2000/svg" xmlns:xlink="http://www.w3.org/1999/xlink" height="1026.3199503421783" version="1.1" width="984.1336669921875" id="temp" viewBox="0 0 984.1336669921875 1026.3199503421783"><defs/><g id="Model" class="Model v1-1"><g class="Floor"><g id="Floor-1" class="Floorplan Floor-1"><g id="96b9b792-6cb7-4424-a901-c25452330405" fill="#ffffff" stroke="#000000" style="fill-opacity: 1; stroke-opacity: 1; stroke-width: 0.2;" class="Space Outdoor"><polygon points="184.66,927.43 184.66,1026.32 443.46,1026.32 443.46,926.67 184.66,927.43 184.66,927.43 "/><g transform="matrix(1,0,0,1,184.6619,927.0518)" class="Dimension"><g transform="matrix(1,0,0,1,0,0)" style="display: none;" class="Visual"><g id="mark1" fill="#000000" stroke="none" transform="matrix(1,0,0,1,129.3985,0)" style="fill-opacity: 1; pointer-events: visible;" class="DimensionMark"><polygon points="-5,5,0,0,5,5"/></g><g id="mark2" fill="#000000" stroke="none" transform="matrix(1,0,0,1,258.7948,49.4458)" style="fill-opacity: 1; pointer-events: visible;" class="DimensionMark"><polygon points="-5,-5,0,0,-5,5"/></g><g id="mark3" fill="#000000" stroke="none" transform="matrix(1,0,0,1,129.3985,99.2723)" style="fill-opacity: 1; pointer-events: visible;" class="DimensionMark"><polygon points="-5,-5,0,0,5,-5"/></g><g id="mark4" fill="#000000" stroke="none" transform="matrix(1,0,0,1,0,49.4458)" style="fill-opacity: 1; pointer-events: visible;" class="DimensionMark"><polygon points="5,5,0,0,5,-5"/></g></g><g transform="matrix(1,0,0,1,129.5628,49.6359)" class="SpaceDimensionsLabel"><g id="NameLabel" style="display: block;" class="TextLabel NameLabel"><text x="0" y="0em" fill="#000000" stroke="none" style="font-family: Verdana; font-size: 33px; fill-opacity: 1; cursor: default;">ULKOTILA</text></g><g id="DimensionMeasureLabel" transform="matrix(1,0,0,1,-4.0781,40.0782)" style="display: none;" class="TextLabel DimensionMeasureLabel"><text x="0" y="0em" fill="#000000" stroke="none" style="font-family: Verdana; font-size: 33px; fill-opacity: 1; cursor: default;">8'6" x 3'3"</text><text x="0" y="0"/></g></g></g></g><g id="aa4c744c-2a53-44d4-9ca3-f5ce276d3777" fill="#ffffff" stroke="#000000" style="fill-opacity: 1; stroke-opacity: 1; stroke-width: 0.2;" class="Space Outdoor"><polygon points="770.60,301.49 864.88,301.49 864.88,160.38 770.23,160.38 770.60,301.49 770.60,301.49 "/><g transform="matrix(1,0,0,1,770.4143,160.3802)" class="Dimension"><g transform="matrix(1,0,0,1,0,0)" style="display: none;" class="Visual"><g id="mark1" fill="#000000" stroke="none" transform="matrix(1,0,0,1,47.1419,0)" style="fill-opacity: 1; pointer-events: visible;" class="DimensionMark"><polygon points="-5,5,0,0,5,5"/></g><g id="mark2" fill="#000000" stroke="none" transform="matrix(1,0,0,1,94.4701,70.5537)" style="fill-opacity: 1; pointer-events: visible;" class="DimensionMark"><polygon points="-5,-5,0,0,-5,5"/></g><g id="mark3" fill="#000000" stroke="none" transform="matrix(1,0,0,1,47.1419,141.1083)" style="fill-opacity: 1; pointer-events: visible;" class="DimensionMark"><polygon points="-5,-5,0,0,5,-5"/></g><g id="mark4" fill="#000000" stroke="none" transform="matrix(1,0,0,1,0,70.5537)" style="fill-opacity: 1; pointer-events: visible;" class="DimensionMark"><polygon points="5,5,0,0,5,-5"/></g></g><g transform="matrix(1,0,0,1,47.235,70.5077)" class="SpaceDimensionsLabel"><g id="NameLabel" style="display: block;" class="TextLabel NameLabel"><text x="0" y="0em" fill="#000000" stroke="none" style="font-family: Verdana; font-size: 33px; fill-opacity: 1; cursor: default;">ULKOTILA</text></g><g id="DimensionMeasureLabel" transform="matrix(1,0,0,1,-4.0781,40.2343)" style="display: none;" class="TextLabel DimensionMeasureLabel"><text x="0" y="0em" fill="#000000" stroke="none" style="font-family: Verdana; font-size: 33px; fill-opacity: 1; cursor: default;">3'1" x 4'8"</text><text x="0" y="0"/></g></g></g></g><g id="208af78f-c2e2-487d-af9f-61c486892342" fill="#ffffff" stroke="#000000" style="fill-opacity: 1; stroke-opacity: 1; stroke-width: 0.2;" class="Space Outdoor"><polygon points="770.60,629.26 770.60,773.99 518.00,773.99 517.85,629.26 770.60,629.26 770.60,629.26 "/><g transform="matrix(1,0,0,1,517.9285,629.2569)" class="Dimension"><g transform="matrix(1,0,0,1,0,0)" style="display: none;" class="Visual"><g id="mark1" fill="#000000" stroke="none" transform="matrix(1,0,0,1,126.2992,0)" style="fill-opacity: 1; pointer-events: visible;" class="DimensionMark"><polygon points="-5,5,0,0,5,5"/></g><g id="mark2" fill="#000000" stroke="none" transform="matrix(1,0,0,1,252.6721,72.3666)" style="fill-opacity: 1; pointer-events: visible;" class="DimensionMark"><polygon points="-5,-5,0,0,-5,5"/></g><g id="mark3" fill="#000000" stroke="none" transform="matrix(1,0,0,1,126.2992,144.7334)" style="fill-opacity: 1; pointer-events: visible;" class="DimensionMark"><polygon points="-5,-5,0,0,5,-5"/></g><g id="mark4" fill="#000000" stroke="none" transform="matrix(1,0,0,1,0,72.3666)" style="fill-opacity: 1; pointer-events: visible;" class="DimensionMark"><polygon points="5,5,0,0,5,-5"/></g></g><g transform="matrix(1,0,0,1,126.3361,72.3597)" class="SpaceDimensionsLabel"><g id="NameLabel" style="display: block;" class="TextLabel NameLabel"><text x="0" y="0em" fill="#000000" stroke="none" style="font-family: Verdana; font-size: 33px; fill-opacity: 1; cursor: default;">ULKOTILA</text></g><g id="DimensionMeasureLabel" transform="matrix(1,0,0,1,-4.0781,39.9375)" style="display: none;" class="TextLabel DimensionMeasureLabel"><text x="0" y="0em" fill="#000000" stroke="none" style="font-family: Verdana; font-size: 33px; fill-opacity: 1; cursor: default;">8'3" x 4'9"</text><text x="0" y="0"/></g></g></g></g><g id="64bd549c-a297-4a73-a145-abaece6f6ee0" fill="#ffffff" stroke="#ffffff" style="fill-opacity: 1; stroke-opacity: 1; stroke-width: 0.2;" class="Space Garage"><polygon points="494.85,903.38 132.65,903.38 132.65,312.49 494.85,312.49 "/><g transform="matrix(1,0,0,1,132.6455,312.4885)" class="Dimension"><g transform="matrix(1,0,0,1,0,0)" style="display: none;" class="Visual"><g id="mark1" fill="#000000" stroke="none" transform="matrix(1,0,0,1,181.1047,0)" style="fill-opacity: 1; pointer-events: visible;" class="DimensionMark"><polygon points="-5,5,0,0,5,5"/></g><g id="mark2" fill="#000000" stroke="none" transform="matrix(1,0,0,1,362.2094,295.4461)" style="fill-opacity: 1; pointer-events: visible;" class="DimensionMark"><polygon points="-5,-5,0,0,-5,5"/></g><g id="mark3" fill="#000000" stroke="none" transform="matrix(1,0,0,1,181.1047,590.8921)" style="fill-opacity: 1; pointer-events: visible;" class="DimensionMark"><polygon points="-5,-5,0,0,5,-5"/></g><g id="mark4" fill="#000000" stroke="none" transform="matrix(1,0,0,1,0,295.4461)" style="fill-opacity: 1; pointer-events: visible;" class="DimensionMark"><polygon points="5,5,0,0,5,-5"/></g></g><g transform="matrix(1,0,0,1,88.6716,295.7273)" class="SpaceDimensionsLabel" style="display: block;"><g id="NameLabel" style="display: block;" class="TextLabel NameLabel"><text x="0" y="0em" fill="#000000" stroke="none" style="font-family: Verdana; font-size: 33px; fill-opacity: 1; cursor: default;">AUTOTALLI</text></g><g id="DimensionMeasureLabel" transform="matrix(1,0,0,1,-25.5312,40.2188)" style="display: none;" class="TextLabel DimensionMeasureLabel"><text x="0" y="0em" fill="#000000" stroke="none" style="font-family: Verdana; font-size: 33px; fill-opacity: 1; cursor: default;">11'11" x 19'5"</text><text x="0" y="0"/></g></g></g></g><g id="ab7c83f8-92fe-4483-bf15-d04f853afc36" fill="#ffffff" stroke="#ffffff" style="fill-opacity: 1; stroke-opacity: 1; stroke-width: 0.2;" class="Space UserDefined"><polygon points="747.11,301.49 132.65,301.49 132.65,27.78 747.11,27.78 "/><g transform="matrix(1,0,0,1,132.6455,27.778)" class="Dimension"><g transform="matrix(1,0,0,1,0,0)" style="display: none;" class="Visual"><g id="mark1" fill="#000000" stroke="none" transform="matrix(1,0,0,1,307.2336,0)" style="fill-opacity: 1; pointer-events: visible;" class="DimensionMark"><polygon points="-5,5,0,0,5,5"/></g><g id="mark2" fill="#000000" stroke="none" transform="matrix(1,0,0,1,614.4672,136.8553)" style="fill-opacity: 1; pointer-events: visible;" class="DimensionMark"><polygon points="-5,-5,0,0,-5,5"/></g><g id="mark3" fill="#000000" stroke="none" transform="matrix(1,0,0,1,307.2336,273.7105)" style="fill-opacity: 1; pointer-events: visible;" class="DimensionMark"><polygon points="-5,-5,0,0,5,-5"/></g><g id="mark4" fill="#000000" stroke="none" transform="matrix(1,0,0,1,0,136.8553)" style="fill-opacity: 1; pointer-events: visible;" class="DimensionMark"><polygon points="5,5,0,0,5,-5"/></g></g><g transform="matrix(1,0,0,1,224.2526,142.4335)" class="SpaceDimensionsLabel"><g id="NameLabel" style="display: block;" class="TextLabel NameLabel"><text x="0" y="0em" fill="#000000" stroke="none" style="font-family: Verdana; font-size: 33px; fill-opacity: 1; cursor: default;">ASK/VAR</text></g><g id="DimensionMeasureLabel" transform="matrix(1,0,0,1,-22.0234,39.9688)" style="display: none;" class="TextLabel DimensionMeasureLabel"><text x="0" y="0em" fill="#000000" stroke="none" style="font-family: Verdana; font-size: 33px; fill-opacity: 1; cursor: default;">20'2" x 9'0"</text><text x="0" y="0"/></g></g></g></g><g id="307a9ff2-a6cb-4af3-80d4-facd873c8098" fill="#ffffff" stroke="#ffffff" style="fill-opacity: 1; stroke-opacity: 1; stroke-width: 0.2;" class="Space TechnicalRoom"><polygon points="747.11,607.26 505.85,607.26 505.85,312.49 747.11,312.49 "/><g transform="matrix(1,0,0,1,505.8549,312.4885)" class="Dimension"><g transform="matrix(1,0,0,1,0,0)" style="display: none;" class="Visual"><g id="mark1" fill="#000000" stroke="none" transform="matrix(1,0,0,1,120.6289,0)" style="fill-opacity: 1; pointer-events: visible;" class="DimensionMark"><polygon points="-5,5,0,0,5,5"/></g><g id="mark2" fill="#000000" stroke="none" transform="matrix(1,0,0,1,241.2578,147.3842)" style="fill-opacity: 1; pointer-events: visible;" class="DimensionMark"><polygon points="-5,-5,0,0,-5,5"/></g><g id="mark3" fill="#000000" stroke="none" transform="matrix(1,0,0,1,120.6289,294.7684)" style="fill-opacity: 1; pointer-events: visible;" class="DimensionMark"><polygon points="-5,-5,0,0,5,-5"/></g><g id="mark4" fill="#000000" stroke="none" transform="matrix(1,0,0,1,0,147.3842)" style="fill-opacity: 1; pointer-events: visible;" class="DimensionMark"><polygon points="5,5,0,0,5,-5"/></g></g><g transform="matrix(1,0,0,1,69.6803,157.6927)" class="SpaceDimensionsLabel" style="display: block;"><g id="NameLabel" style="display: block;" class="TextLabel NameLabel"><text x="0" y="0em" fill="#000000" stroke="none" style="font-family: Verdana; font-size: 33px; fill-opacity: 1; cursor: default;">TEKN</text></g><g id="DimensionMeasureLabel" transform="matrix(1,0,0,1,-54.2422,39.3281)" style="display: none;" class="TextLabel DimensionMeasureLabel"><text x="0" y="0em" fill="#000000" stroke="none" style="font-family: Verdana; font-size: 33px; fill-opacity: 1; cursor: default;">7'11" x 9'8"</text><text x="0" y="0"/></g></g></g></g><g id="Wall" fill="#000000" stroke="#000000" style="fill-opacity: 1; stroke-opacity: 1; stroke-width: 0.2;" class="Wall External"><polygon points="494.85,607.26 494.85,903.38 517.85,926.38 517.85,629.26 "/></g><g id="Wall" fill="#000000" stroke="#000000" style="fill-opacity: 1; stroke-opacity: 1; stroke-width: 0.2;" class="Wall External"><polygon points="494.85,903.38 132.65,903.38 107.65,926.38 517.85,926.38 "/><g id="Door" fill="#ffffff" stroke="#000000" style="fill-opacity: 1; stroke-width: 1; stroke-opacity: 1;" class="Door RollUp Beside"><polygon points="443.61,903.38 184.77,903.38 184.77,926.38 443.61,926.38 "/><g id="Threshold" class="Threshold"><polygon points="443.61,903.38 184.77,903.38 184.77,926.38 443.61,926.38 "/></g><g id="Panel" class="Panel Center Negative"><g id="PanelArea" fill="none" stroke="none" style="" class="PanelArea"><polygon points="443.61,903.38 184.77,903.38 184.77,926.38 443.61,926.38 "/></g><line x1="443.6069991996405" x2="443.6069991996405" y1="926.3806368072696" y2="903.3806368072696"/><line x1="184.77081845243129" x2="184.77081845243129" y1="926.3806368072696" y2="903.3806368072696"/><line x1="443.6069991996405" x2="184.77081845243129" y1="914.8806368072696" y2="914.8806368072696"/><line x1="443.60699919964054" x2="184.77081845243134" y1="911.0473034739364" y2="911.0473034739364"/><line x1="443.6069991996405" x2="184.77081845243129" y1="907.2139701406029" y2="907.2139701406029"/></g></g></g><g id="Wall" fill="#000000" stroke="#000000" style="fill-opacity: 1; stroke-opacity: 1; stroke-width: 0.2;" class="Wall External"><polygon points="132.65,903.38 132.65,27.78 107.65,2.78 107.65,926.38 "/><g id="Window" fill="#f0f0ff" stroke="#000000" style="fill-opacity: 1; stroke-width: 1; stroke-opacity: 1;" class="Window Regular"><polygon points="132.65,705.11 132.65,574.57 107.65,574.57 107.65,705.11 "/><g id="Glass" class="Glass"><polygon points="132.65,705.11 132.65,574.57 107.65,574.57 107.65,705.11 "/></g><g id="Panel" class="Panel"><line x1="120.14550413058359" x2="120.14550413058356" y1="697.6114243754372" y2="582.0714416832217"/><line x1="132.6455041305836" x2="107.6455041305836" y1="697.6114243754372" y2="697.6114243754372"/><line x1="132.64550413058356" x2="107.64550413058357" y1="582.0714416832217" y2="582.0714416832217"/></g></g><g id="Window" fill="#f0f0ff" stroke="#000000" style="fill-opacity: 1; stroke-width: 1; stroke-opacity: 1;" class="Window Regular"><polygon points="132.65,542.50 132.65,411.58 107.65,411.58 107.65,542.50 "/><g id="Glass" class="Glass"><polygon points="132.65,542.50 132.65,411.58 107.65,411.58 107.65,542.50 "/></g><g id="Panel" class="Panel"><line x1="120.14550413058356" x2="120.14550413058356" y1="534.9991141775056" y2="419.08401710433446"/><line x1="132.64550413058356" x2="107.64550413058356" y1="534.9991141775056" y2="534.9991141775056"/><line x1="132.64550413058356" x2="107.64550413058356" y1="419.08401710433446" y2="419.08401710433446"/></g></g></g><g id="Wall" fill="#000000" stroke="#000000" style="fill-opacity: 1; stroke-opacity: 1; stroke-width: 0.2;" class="Wall External"><polygon points="132.65,27.78 747.11,27.78 770.60,2.78 107.65,2.78 "/><g id="Window" fill="#f0f0ff" stroke="#000000" style="fill-opacity: 1; stroke-width: 1; stroke-opacity: 1;" class="Window Regular"><polygon points="322.15,27.78 451.80,27.78 451.80,2.78 322.15,2.78 "/><g id="Glass" class="Glass"><polygon points="322.15,27.78 451.80,27.78 451.80,2.78 322.15,2.78 "/></g><g id="Panel" class="Panel"><line x1="329.64801278603267" x2="444.3019609068907" y1="15.277958204737919" y2="15.277958204737898"/><line x1="329.64801278603267" x2="329.64801278603267" y1="27.77795820473792" y2="2.7779582047379194"/><line x1="444.3019609068907" x2="444.3019609068907" y1="27.777958204737896" y2="2.7779582047378972"/></g></g><g id="Window" fill="#f0f0ff" stroke="#000000" style="fill-opacity: 1; stroke-width: 1; stroke-opacity: 1;" class="Window Regular"><polygon points="550.46,27.78 615.97,27.78 615.97,2.78 550.46,2.78 "/><g id="Glass" class="Glass"><polygon points="550.46,27.78 615.97,27.78 615.97,2.78 550.46,2.78 "/></g><g id="Panel" class="Panel"><line x1="557.9550120407602" x2="608.4691978403457" y1="15.277958204737876" y2="15.277958204737867"/><line x1="557.9550120407602" x2="557.9550120407602" y1="27.777958204737878" y2="2.777958204737877"/><line x1="608.4691978403457" x2="608.4691978403457" y1="27.777958204737867" y2="2.777958204737869"/></g></g></g><g id="Wall" fill="#000000" stroke="#000000" style="fill-opacity: 1; stroke-opacity: 1; stroke-width: 0.2;" class="Wall External"><polygon points="747.11,27.78 747.11,607.26 770.60,629.26 770.60,2.78 "/><g id="Door" fill="#ffffff" stroke="#000000" style="fill-opacity: 1; stroke-width: 1; stroke-opacity: 1;" class="Door Swing Beside"><polygon points="747.11,185.10 747.11,273.92 770.60,273.92 770.60,185.10 "/><g id="Threshold" class="Threshold"><polygon points="747.11,185.10 747.11,273.92 770.60,273.92 770.60,185.10 "/></g><g id="Panel" fill="none" style="" class="Panel Left Positive"><g id="PanelArea" fill="none" stroke="none" style="" class="PanelArea"><polygon points="747.11,185.10 747.11,273.92 770.60,273.92 770.60,185.10 "/></g><path d="M770.60,273.92 q88.82,0.00 88.82,-88.82 l-88.82,0.00Z"/></g></g><g id="Window" fill="#f0f0ff" stroke="#000000" style="fill-opacity: 1; stroke-width: 1; stroke-opacity: 1;" class="Window Regular"><polygon points="747.11,350.15 747.11,484.07 770.60,484.07 770.60,350.15 "/><g id="Glass" class="Glass"><polygon points="747.11,350.15 747.11,484.07 770.60,484.07 770.60,350.15 "/></g><g id="Panel" class="Panel"><line x1="758.8566556428752" x2="758.8566556428752" y1="357.6494670284597" y2="476.571640012545"/><line x1="747.1127235875177" x2="770.6005876982329" y1="357.6494670284597" y2="357.6494670284597"/><line x1="747.1127235875177" x2="770.6005876982329" y1="476.571640012545" y2="476.571640012545"/></g></g></g><g id="Wall" fill="#000000" stroke="#000000" style="fill-opacity: 1; stroke-opacity: 1; stroke-width: 0.2;" class="Wall External"><polygon points="747.11,607.26 494.85,607.26 517.85,629.26 770.60,629.26 "/><g id="Door" fill="#ffffff" stroke="#000000" style="fill-opacity: 1; stroke-width: 1; stroke-opacity: 1;" class="Door Swing Beside"><polygon points="638.08,607.26 548.90,607.26 548.90,629.26 638.08,629.26 "/><g id="Threshold" class="Threshold"><polygon points="638.08,607.26 548.90,607.26 548.90,629.26 638.08,629.26 "/></g><g id="Panel" fill="none" style="" class="Panel Right Positive"><g id="PanelArea" fill="none" stroke="none" style="" class="PanelArea"><polygon points="638.08,607.26 548.90,607.26 548.90,629.26 638.08,629.26 "/></g><path d="M638.08,629.26 q0.00,89.17 -89.17,89.17 l0.00,-89.17Z"/></g></g></g><g id="Wall" fill="#000000" stroke="#000000" style="fill-opacity: 1; stroke-opacity: 1; stroke-width: 0.2;" class="Wall"><polygon points="494.85,607.26 494.85,312.49 505.85,301.49 505.85,607.26 "/></g><g id="Wall" fill="#000000" stroke="#000000" style="fill-opacity: 1; stroke-opacity: 1; stroke-width: 0.2;" class="Wall"><polygon points="494.85,312.49 770.60,312.49 770.60,301.49 494.85,301.49 "/></g><g id="Wall" fill="#000000" stroke="#000000" style="fill-opacity: 1; stroke-opacity: 1; stroke-width: 0.2;" class="Wall"><polygon points="505.85,301.49 107.65,301.49 107.65,312.49 494.85,312.49 "/></g><g id="Railing" fill="#ffffff" stroke="#000000" style="fill-opacity: 1; stroke-opacity: 1; stroke-width: 0.2;" class="Railing"><polygon points="752.59,629.26 752.59,752.14 763.59,752.14 763.59,629.26 " style="stroke-dasharray: 0;"/></g><g fill="#0000ff" stroke="#0000ff" style="display: none;" class="SelectionControls"><g style="display: none;" class="rotateControl"><circle cx="313.76241663058363" cy="545.4501739472362" r="5" style="stroke : none; fill-opacity: 0.5; cursor:crosshair"/></g><g style="display: none;" class="ResizeNControl"><circle cx="0" cy="0" r="5" style="stroke : none; fill-opacity: 0.5"/></g><g style="display: none;" class="ResizeNEControl"><circle cx="0" cy="0" r="5" style="stroke : none; fill-opacity: 0.5"/></g><g style="display: none;" class="ResizeEControl"><circle cx="0" cy="0" r="5" style="stroke : none; fill-opacity: 0.5"/></g><g style="display: none;" class="ResizeSEControl"><circle cx="0" cy="0" r="5" style="stroke : none; fill-opacity: 0.5"/></g><g style="display: none;" class="ResizeSControl"><circle cx="0" cy="0" r="5" style="stroke : none; fill-opacity: 0.5"/></g><g style="display: none;" class="ResizeSWControl"><circle cx="0" cy="0" r="5" style="stroke : none; fill-opacity: 0.5"/></g><g style="display: none;" class="ResizeWControl"><circle cx="0" cy="0" r="5" style="stroke : none; fill-opacity: 0.5"/></g><g style="display: none;" class="ResizeNWControl"><circle cx="0" cy="0" r="5" style="stroke : none; fill-opacity: 0.5"/></g><g style="display: none;" class="removeControl"><polygon style="stroke : none; fill-opacity: 0.1" points="219.69,575.45 407.83,575.45 407.83,614.78 219.69,614.78 "/></g><g style="display: none;" class="copyPasteControl"><polygon style="stroke : none; fill-opacity: 0.1"/></g><g style="display: none;" class="translateControl"><polygon style="stroke : none; fill-opacity: 0.1; cursor:move" points="219.69,575.45 407.83,575.45 407.83,614.78 219.69,614.78 "/></g></g><g fill="#0000ff" stroke="#0000ff" style="display: none;" class="SelectionControls"><polygon fill="none" stroke="#0000ff" style="" points="132.65,312.49 494.85,312.49 494.85,903.38 132.65,903.38 "/><g style="display: none;" class="rotateControl"><circle cx="313.7502099411305" cy="282.4884989472361" r="5" style="stroke : none; fill-opacity: 0.5; cursor:crosshair"/></g><g style="display: none;" class="ResizeNControl"><circle cx="0" cy="0" r="5" style="stroke : none; fill-opacity: 0.5"/></g><g style="display: none;" class="ResizeNEControl"><circle cx="0" cy="0" r="5" style="stroke : none; fill-opacity: 0.5"/></g><g style="display: none;" class="ResizeEControl"><circle cx="0" cy="0" r="5" style="stroke : none; fill-opacity: 0.5"/></g><g style="display: none;" class="ResizeSEControl"><circle cx="0" cy="0" r="5" style="stroke : none; fill-opacity: 0.5"/></g><g style="display: none;" class="ResizeSControl"><circle cx="0" cy="0" r="5" style="stroke : none; fill-opacity: 0.5"/></g><g style="display: none;" class="ResizeSWControl"><circle cx="0" cy="0" r="5" style="stroke : none; fill-opacity: 0.5"/></g><g style="display: none;" class="ResizeWControl"><circle cx="0" cy="0" r="5" style="stroke : none; fill-opacity: 0.5"/></g><g style="display: none;" class="ResizeNWControl"><circle cx="0" cy="0" r="5" style="stroke : none; fill-opacity: 0.5"/></g><g style="display: none;" class="removeControl"><polygon style="stroke : none; fill-opacity: 0.1"/></g><g style="display: none;" class="copyPasteControl"><polygon style="stroke : none; fill-opacity: 0.1"/></g><g style="display: none;" class="translateControl"><polygon style="stroke : none; fill-opacity: 0.1; cursor:move"/></g></g><g id="Column" fill="#000000" stroke="none" style="fill-opacity: 1;" class="Column Rectangle"><polygon points="770.73,752.12 747.37,752.12 747.37,774.09 770.73,774.09 "/></g></g></g></g></svg>
