<?xml version="1.0"?>
<svg xmlns="http://www.w3.org/2000/svg" xmlns:xlink="http://www.w3.org/1999/xlink" height="814.1399250030518" version="1.1" width="832.8199787139893" id="temp" viewBox="0 0 832.8199787139893 814.1399250030518"><defs/><g id="Model" class="Model v1-1"><g class="Floor"><g id="Floor-1" transform="matrix(1,0,0,1,0,0)" class="Floorplan Floor-1"><g id="9cef687b-85ec-4364-87e4-d97bc3d6d1da" class="Space Room" fill="#ffffff" stroke="#ffffff" style="fill-opacity: 1; stroke-opacity: 1; stroke-width: 0.2;"><polygon points="798.50,503.08 306.76,503.08 306.76,65.48 797.30,65.48 "/><g transform="matrix(1,0,0,1,306.7571,65.4798)" class="Dimension"><g transform="matrix(1,0,0,1,0,0)" style="display: none;" class="Visual"><g id="mark1" fill="#000000" stroke="none" transform="matrix(1,0,0,1,245.8699,0)" style="fill-opacity: 1; pointer-events: visible;" class="DimensionMark"><polygon points="-5,5,0,0,5,5"/></g><g id="mark2" fill="#000000" stroke="none" transform="matrix(1,0,0,1,491.1394,218.8013)" style="fill-opacity: 1; pointer-events: visible;" class="DimensionMark"><polygon points="-5,-5,0,0,-5,5"/></g><g id="mark3" fill="#000000" stroke="none" transform="matrix(1,0,0,1,245.8699,437.5993)" style="fill-opacity: 1; pointer-events: visible;" class="DimensionMark"><polygon points="-5,-5,0,0,5,-5"/></g><g id="mark4" fill="#000000" stroke="none" transform="matrix(1,0,0,1,0,218.8013)" style="fill-opacity: 1; pointer-events: visible;" class="DimensionMark"><polygon points="5,5,0,0,5,-5"/></g></g><g transform="matrix(1,0,0,1,218.7996,218.7997)" class="SpaceDimensionsLabel"><g id="NameLabel" style="display: block;" class="TextLabel NameLabel"><text x="0" y="0em" fill="#000000" stroke="none" style="font-family: Verdana; font-size: 33px; fill-opacity: 1; cursor: default;">TUPA</text></g><g id="DimensionMeasureLabel" transform="matrix(1,0,0,1,-96.8203,79.5938)" style="display: none;" class="TextLabel DimensionMeasureLabel"><text x="31.6953125" y="-1.2em" fill="#000000" stroke="none" style="font-family: Verdana; font-size: 33px; fill-opacity: 1; cursor: default;">16'1" x 14'4"</text><text x="0" y="0em" fill="#000000" stroke="none" style="font-family: Verdana; font-size: 33px; fill-opacity: 1; cursor: default;">4.91 m x 4.38 m</text></g></g></g></g><g id="abf50a2b-2a41-4382-8b20-fe5cb54ac26d" class="Space Outdoor Veranda Glazed" fill="#ffffff" stroke="#000000" style="stroke-width: 0.2; fill-opacity: 1; stroke-opacity: 1;"><polygon points="798.50,718.54 306.76,718.54 306.76,517.08 798.50,517.08 "/><g transform="matrix(1,0,0,1,306.7571,517.079)" class="Dimension"><g transform="matrix(1,0,0,1,0,0)" style="display: none;" class="Visual"><g id="mark1" fill="#000000" stroke="none" transform="matrix(1,0,0,1,245.8699,0)" style="fill-opacity: 1; pointer-events: visible;" class="DimensionMark"><polygon points="-5,5,0,0,5,5"/></g><g id="mark2" fill="#000000" stroke="none" transform="matrix(1,0,0,1,491.7398,100.7328)" style="fill-opacity: 1; pointer-events: visible;" class="DimensionMark"><polygon points="-5,-5,0,0,-5,5"/></g><g id="mark3" fill="#000000" stroke="none" transform="matrix(1,0,0,1,245.8699,201.4656)" style="fill-opacity: 1; pointer-events: visible;" class="DimensionMark"><polygon points="-5,-5,0,0,5,-5"/></g><g id="mark4" fill="#000000" stroke="none" transform="matrix(1,0,0,1,0,100.7328)" style="fill-opacity: 1; pointer-events: visible;" class="DimensionMark"><polygon points="5,5,0,0,5,-5"/></g></g><g transform="matrix(1,0,0,1,184.1666,122.586)" class="SpaceDimensionsLabel"><g id="NameLabel" style="display: block;" class="TextLabel NameLabel"><text x="0" y="0em" fill="#000000" stroke="none" style="font-family: Verdana; font-size: 33px; fill-opacity: 1; cursor: default;">LASIKUISTI</text></g><g id="DimensionMeasureLabel" transform="matrix(1,0,0,1,-42.4766,79.5938)" style="display: none;" class="TextLabel DimensionMeasureLabel"><text x="42.1875" y="-1.2em" fill="#000000" stroke="none" style="font-family: Verdana; font-size: 33px; fill-opacity: 1; cursor: default;">16'2" x 6'7"</text><text x="0" y="0em" fill="#000000" stroke="none" style="font-family: Verdana; font-size: 33px; fill-opacity: 1; cursor: default;">4.92 m x 2.01 m</text></g></g></g></g><g id="aa0dc561-8cf2-4ad8-9f81-6b3452d5a2ea" class="Space UserDefined" fill="#ffffff" stroke="#ffffff" style="fill-opacity: 1; stroke-opacity: 1; stroke-width: 0.2;"><polygon points="293.76,288.09 66.37,288.09 66.37,65.48 293.76,65.48 "/><g transform="matrix(1,0,0,1,66.3652,65.4798)" class="Dimension"><g transform="matrix(1,0,0,1,0,0)" style="display: none;" class="Visual"><g id="mark1" fill="#000000" stroke="none" transform="matrix(1,0,0,1,113.6959,0)" style="fill-opacity: 1; pointer-events: visible;" class="DimensionMark"><polygon points="-5,5,0,0,5,5"/></g><g id="mark2" fill="#000000" stroke="none" transform="matrix(1,0,0,1,227.3919,111.3062)" style="fill-opacity: 1; pointer-events: visible;" class="DimensionMark"><polygon points="-5,-5,0,0,-5,5"/></g><g id="mark3" fill="#000000" stroke="none" transform="matrix(1,0,0,1,113.6959,222.6125)" style="fill-opacity: 1; pointer-events: visible;" class="DimensionMark"><polygon points="-5,-5,0,0,5,-5"/></g><g id="mark4" fill="#000000" stroke="none" transform="matrix(1,0,0,1,0,111.3062)" style="fill-opacity: 1; pointer-events: visible;" class="DimensionMark"><polygon points="5,5,0,0,5,-5"/></g></g><g transform="matrix(1,0,0,1,43.3538,127.9313)" class="SpaceDimensionsLabel"><g id="NameLabel" style="display: block;" class="TextLabel NameLabel"><text x="0" y="0em" fill="#000000" stroke="none" style="font-family: Verdana; font-size: 33px; fill-opacity: 1; cursor: default;">M-SOPPI</text></g><g id="DimensionMeasureLabel" transform="matrix(1,0,0,1,-67.5,79.5938)" style="display: none;" class="TextLabel DimensionMeasureLabel"><text x="52.6796875" y="-1.2em" fill="#000000" stroke="none" style="font-family: Verdana; font-size: 33px; fill-opacity: 1; cursor: default;">7'6" x 7'4"</text><text x="0" y="0em" fill="#000000" stroke="none" style="font-family: Verdana; font-size: 33px; fill-opacity: 1; cursor: default;">2.27 m x 2.23 m</text></g></g></g></g><g id="780ef89e-914e-4752-93f8-bf20e7d68f37" class="Space Sauna" fill="#ffffff" stroke="#ffffff" style="fill-opacity: 1; stroke-opacity: 1; stroke-width: 0.2;"><polygon points="260.76,566.46 293.76,566.46 293.76,718.54 66.37,718.54 66.37,516.01 260.76,516.01 "/><g transform="matrix(1,0,0,1,66.3652,516.0091)" class="Dimension"><g transform="matrix(1,0,0,1,0,0)" style="display: none;" class="Visual"><g id="mark1" fill="#000000" stroke="none" transform="matrix(1,0,0,1,113.6959,0)" style="fill-opacity: 1; pointer-events: visible;" class="DimensionMark"><polygon points="-5,5,0,0,5,5"/></g><g id="mark2" fill="#000000" stroke="none" transform="matrix(1,0,0,1,227.3919,101.2678)" style="fill-opacity: 1; pointer-events: visible;" class="DimensionMark"><polygon points="-5,-5,0,0,-5,5"/></g><g id="mark3" fill="#000000" stroke="none" transform="matrix(1,0,0,1,113.6959,202.5355)" style="fill-opacity: 1; pointer-events: visible;" class="DimensionMark"><polygon points="-5,-5,0,0,5,-5"/></g><g id="mark4" fill="#000000" stroke="none" transform="matrix(1,0,0,1,0,101.2678)" style="fill-opacity: 1; pointer-events: visible;" class="DimensionMark"><polygon points="5,5,0,0,5,-5"/></g></g><g transform="matrix(1,0,0,1,99.2753,121.5609)" class="SpaceDimensionsLabel" style="display: block;"><g id="NameLabel" style="display: block;" class="TextLabel NameLabel"><text x="0" y="0em" fill="#000000" stroke="none" style="font-family: Verdana; font-size: 33px; fill-opacity: 1; cursor: default;">SAUNA</text></g><g id="DimensionMeasureLabel" transform="matrix(1,0,0,1,-81.3359,80.1094)" style="display: none;" class="TextLabel DimensionMeasureLabel"><text x="52.65625" y="-1.2em" fill="#000000" stroke="none" style="font-family: Verdana; font-size: 33px; fill-opacity: 1; cursor: default;">7'6" x 6'8"</text><text x="0" y="0em" fill="#000000" stroke="none" style="font-family: Verdana; font-size: 33px; fill-opacity: 1; cursor: default;">2.27 m x 2.03 m</text></g></g></g></g><g id="4b43c326-0542-4c1f-b71f-ea9620e9ab10" class="Space Kitchen" fill="#ffffff" stroke="#ffffff" style="fill-opacity: 1; stroke-opacity: 1; stroke-width: 0.2;"><polygon points="293.76,448.79 260.76,448.79 260.76,501.01 66.37,501.01 66.37,301.09 293.76,301.09 "/><g transform="matrix(1,0,0,1,66.3652,301.0923)" class="Dimension"><g transform="matrix(1,0,0,1,0,0)" style="display: none;" class="Visual"><g id="mark1" fill="#000000" stroke="none" transform="matrix(1,0,0,1,113.6959,0)" style="fill-opacity: 1; pointer-events: visible;" class="DimensionMark"><polygon points="-5,5,0,0,5,5"/></g><g id="mark2" fill="#000000" stroke="none" transform="matrix(1,0,0,1,227.3919,99.9584)" style="fill-opacity: 1; pointer-events: visible;" class="DimensionMark"><polygon points="-5,-5,0,0,-5,5"/></g><g id="mark3" fill="#000000" stroke="none" transform="matrix(1,0,0,1,113.6959,199.9168)" style="fill-opacity: 1; pointer-events: visible;" class="DimensionMark"><polygon points="-5,-5,0,0,5,-5"/></g><g id="mark4" fill="#000000" stroke="none" transform="matrix(1,0,0,1,0,99.9584)" style="fill-opacity: 1; pointer-events: visible;" class="DimensionMark"><polygon points="5,5,0,0,5,-5"/></g></g><g transform="matrix(1,0,0,1,44.8878,89.7602)" class="SpaceDimensionsLabel"><g id="NameLabel" style="display: block;" class="TextLabel NameLabel"><text x="0" y="0em" fill="#000000" stroke="none" style="font-family: Verdana; font-size: 33px; fill-opacity: 1; cursor: default;">KEITTI&#xD6;</text></g><g id="DimensionMeasureLabel" transform="matrix(1,0,0,1,-70.9375,79.5938)" style="display: none;" class="TextLabel DimensionMeasureLabel"><text x="52.6796875" y="-1.2em" fill="#000000" stroke="none" style="font-family: Verdana; font-size: 33px; fill-opacity: 1; cursor: default;">7'6" x 6'7"</text><text x="0" y="0em" fill="#000000" stroke="none" style="font-family: Verdana; font-size: 33px; fill-opacity: 1; cursor: default;">2.27 m x 2.00 m</text></g></g></g></g><g id="Wall" class="Wall External" fill="#000000" stroke="#000000" style="fill-opacity: 1; stroke-opacity: 1; stroke-width: 0.2;"><polygon points="812.52,733.54 52.37,733.54 66.37,718.54 798.50,718.54 "/><g id="Door" fill="#ffffff" stroke="#000000" style="fill-opacity: 1; stroke-width: 1; stroke-opacity: 1;" class="Door Swing Beside"><polygon points="442.86,733.54 362.26,733.54 362.26,718.54 442.86,718.54 "/><g id="Threshold" class="Threshold"><polygon points="442.86,733.54 362.26,733.54 362.26,718.54 442.86,718.54 "/></g><g id="Panel" fill="none" style="" class="Panel Left Negative"><g id="PanelArea" fill="none" stroke="none" style="" class="PanelArea"><polygon points="442.86,733.54 362.26,733.54 362.26,718.54 442.86,718.54 "/></g><path d="M442.86,733.54 q0.00,80.60 -80.60,80.60 l0.00,-80.60Z"/></g></g><g id="Window" fill="#f0f0ff" stroke="#000000" style="fill-opacity: 1; stroke-width: 1; stroke-opacity: 1;" class="Window Regular"><polygon points="752.02,733.54 572.45,733.54 572.45,718.54 752.02,718.54 "/><g id="Glass" class="Glass"><polygon points="752.02,733.54 572.45,733.54 572.45,718.54 752.02,718.54 "/></g><g id="Panel" class="Panel"><line x1="744.52001953125" x2="579.9500122070312" y1="726.0399780273438" y2="726.0399780273438"/><line x1="744.52001953125" x2="744.52001953125" y1="733.5399780273438" y2="718.5399780273438"/><line x1="579.9500122070312" x2="579.9500122070312" y1="733.5399780273438" y2="718.5399780273438"/></g></g><g id="Window" fill="#f0f0ff" stroke="#000000" style="fill-opacity: 1; stroke-width: 1; stroke-opacity: 1;" class="Window Regular"><polygon points="261.30,733.54 230.90,733.54 230.90,718.54 261.30,718.54 "/><g id="Glass" class="Glass"><polygon points="261.30,733.54 230.90,733.54 230.90,718.54 261.30,718.54 "/></g><g id="Panel" class="Panel"><line x1="253.79998779296875" x2="238.39999389648438" y1="726.0399780273438" y2="726.0399780273438"/><line x1="253.79998779296875" x2="253.79998779296875" y1="733.5399780273438" y2="718.5399780273438"/><line x1="238.39999389648438" x2="238.39999389648438" y1="733.5399780273438" y2="718.5399780273438"/></g></g><g id="Window" fill="#f0f0ff" stroke="#000000" style="fill-opacity: 1; stroke-width: 1; stroke-opacity: 1;" class="Window Regular"><polygon points="230.65,733.54 131.92,733.54 131.92,718.54 230.65,718.54 "/><g id="Glass" class="Glass"><polygon points="230.65,733.54 131.92,733.54 131.92,718.54 230.65,718.54 "/></g><g id="Panel" class="Panel"><line x1="223.14999389648438" x2="139.4199981689453" y1="726.0399780273438" y2="726.0399780273438"/><line x1="223.14999389648438" x2="223.14999389648438" y1="733.5399780273438" y2="718.5399780273438"/><line x1="139.4199981689453" x2="139.4199981689453" y1="733.5399780273438" y2="718.5399780273438"/></g></g></g><g id="Wall" class="Wall External" fill="#000000" stroke="#000000" style="fill-opacity: 1; stroke-opacity: 1; stroke-width: 0.2;"><polygon points="52.37,733.54 52.37,50.48 66.37,50.48 66.37,718.54 "/><g id="Window" fill="#f0f0ff" stroke="#000000" style="fill-opacity: 1; stroke-width: 1; stroke-opacity: 1;" class="Window Regular"><polygon points="52.37,438.94 52.37,387.28 66.37,387.28 66.37,438.94 "/><g id="Glass" class="Glass"><polygon points="52.37,438.94 52.37,387.28 66.37,387.28 66.37,438.94 "/></g><g id="Panel" class="Panel"><line x1="59.3700008392334" x2="59.3700008392334" y1="431.44000244140625" y2="394.7799987792969"/><line x1="52.369998931884766" x2="66.37000274658203" y1="431.44000244140625" y2="431.44000244140625"/><line x1="52.369998931884766" x2="66.37000274658203" y1="394.7799987792969" y2="394.7799987792969"/></g></g><g id="Window" fill="#f0f0ff" stroke="#000000" style="fill-opacity: 1; stroke-width: 1; stroke-opacity: 1;" class="Window Regular"><polygon points="52.37,387.26 52.37,354.98 66.37,354.98 66.37,387.26 "/><g id="Glass" class="Glass"><polygon points="52.37,387.26 52.37,354.98 66.37,354.98 66.37,387.26 "/></g><g id="Panel" class="Panel"><line x1="59.3700008392334" x2="59.3700008392334" y1="379.760009765625" y2="362.4800109863281"/><line x1="52.369998931884766" x2="66.37000274658203" y1="379.760009765625" y2="379.760009765625"/><line x1="52.369998931884766" x2="66.37000274658203" y1="362.4800109863281" y2="362.4800109863281"/></g></g><g id="Window" fill="#f0f0ff" stroke="#000000" style="fill-opacity: 1; stroke-width: 1; stroke-opacity: 1;" class="Window Regular"><polygon points="52.37,239.38 52.37,143.54 66.37,143.54 66.37,239.38 "/><g id="Glass" class="Glass"><polygon points="52.37,239.38 52.37,143.54 66.37,143.54 66.37,239.38 "/></g><g id="Panel" class="Panel"><line x1="59.3700008392334" x2="59.3700008392334" y1="231.8800048828125" y2="151.0399932861328"/><line x1="52.369998931884766" x2="66.37000274658203" y1="231.8800048828125" y2="231.8800048828125"/><line x1="52.369998931884766" x2="66.37000274658203" y1="151.0399932861328" y2="151.0399932861328"/></g></g><g id="Window" fill="#f0f0ff" stroke="#000000" style="fill-opacity: 1; stroke-width: 1; stroke-opacity: 1;" class="Window Regular"><polygon points="52.37,143.77 52.37,113.09 66.37,113.09 66.37,143.77 "/><g id="Glass" class="Glass"><polygon points="52.37,143.77 52.37,113.09 66.37,113.09 66.37,143.77 "/></g><g id="Panel" class="Panel"><line x1="59.3700008392334" x2="59.3700008392334" y1="136.27000427246094" y2="120.58999633789062"/><line x1="52.369998931884766" x2="66.37000274658203" y1="136.27000427246094" y2="136.27000427246094"/><line x1="52.369998931884766" x2="66.37000274658203" y1="120.58999633789062" y2="120.58999633789062"/></g></g></g><g id="Wall" class="Wall External" fill="#000000" stroke="#000000" style="fill-opacity: 1; stroke-opacity: 1; stroke-width: 0.2;"><polygon points="52.37,50.48 811.27,50.48 797.30,65.48 52.37,65.48 "/><g id="Window" fill="#f0f0ff" stroke="#000000" style="fill-opacity: 1; stroke-width: 1; stroke-opacity: 1;" class="Window Regular"><polygon points="347.98,50.48 444.31,50.48 444.31,65.48 347.98,65.48 "/><g id="Glass" class="Glass"><polygon points="347.98,50.48 444.31,50.48 444.31,65.48 347.98,65.48 "/></g><g id="Panel" class="Panel"><line x1="355.4800109863281" x2="436.80999755859375" y1="57.98000144958496" y2="57.98000144958496"/><line x1="355.4800109863281" x2="355.4800109863281" y1="50.47999954223633" y2="65.4800033569336"/><line x1="436.80999755859375" x2="436.80999755859375" y1="50.47999954223633" y2="65.4800033569336"/></g></g><g id="Window" fill="#f0f0ff" stroke="#000000" style="fill-opacity: 1; stroke-width: 1; stroke-opacity: 1;" class="Window Regular"><polygon points="444.08,50.48 474.85,50.48 474.85,65.48 444.08,65.48 "/><g id="Glass" class="Glass"><polygon points="444.08,50.48 474.85,50.48 474.85,65.48 444.08,65.48 "/></g><g id="Panel" class="Panel"><line x1="451.5799865722656" x2="467.3500061035156" y1="57.98000144958496" y2="57.98000144958496"/><line x1="451.5799865722656" x2="451.5799865722656" y1="50.47999954223633" y2="65.4800033569336"/><line x1="467.3500061035156" x2="467.3500061035156" y1="50.47999954223633" y2="65.4800033569336"/></g></g></g><g id="Wall" class="Wall External" fill="#000000" stroke="#000000" style="fill-opacity: 1; stroke-opacity: 1; stroke-width: 0.2;"><polygon points="811.27,50.48 812.52,733.54 798.50,718.54 797.30,65.48 "/><g id="Window" fill="#f0f0ff" stroke="#000000" style="fill-opacity: 1; stroke-width: 1; stroke-opacity: 1;" class="Window Regular"><polygon points="811.63,246.68 811.96,427.31 797.96,427.33 797.63,246.71 "/><g id="Glass" class="Glass"><polygon points="811.63,246.68 811.96,427.31 797.96,427.33 797.63,246.71 "/></g><g id="Panel" class="Panel"><line x1="804.6437076120152" x2="804.9463192434536" y1="254.19498717716127" y2="419.8250170952997"/><line x1="811.6437076120152" x2="797.6437076120152" y1="254.1799801581183" y2="254.20999419620424"/><line x1="811.9463192434536" x2="797.9463192434536" y1="419.81001007625673" y2="419.8299990899286"/></g></g><g id="Window" fill="#f0f0ff" stroke="#000000" style="fill-opacity: 1; stroke-width: 1; stroke-opacity: 1;" class="Window Regular"><polygon points="812.26,589.86 812.44,685.54 798.44,685.56 798.26,589.88 "/><g id="Glass" class="Glass"><polygon points="812.26,589.86 812.44,685.54 798.44,685.56 798.26,589.88 "/></g><g id="Panel" class="Panel"><line x1="805.2741186993943" x2="805.4258935076369" y1="597.3699818463749" y2="678.0500010637812"/><line x1="812.2741186993943" x2="798.2741186993943" y1="597.3599720807499" y2="597.3799916119999"/><line x1="812.4258935076369" x2="798.4258935076369" y1="678.0399912981563" y2="678.0600108294063"/></g></g><g id="Window" fill="#f0f0ff" stroke="#000000" style="fill-opacity: 1; stroke-width: 1; stroke-opacity: 1;" class="Window Regular"><polygon points="812.20,556.65 812.26,589.10 798.26,589.12 798.20,556.68 "/><g id="Glass" class="Glass"><polygon points="812.20,556.65 812.26,589.10 798.26,589.12 798.20,556.68 "/></g><g id="Panel" class="Panel"><line x1="805.2138791283691" x2="805.2461428442871" y1="564.1649957254771" y2="581.6149725362417"/><line x1="812.2138791283691" x2="798.2138791283691" y1="564.1500115946177" y2="564.1799798563364"/><line x1="812.2461428442872" x2="798.2461428442872" y1="581.5999884053823" y2="581.6200079366323"/></g></g></g><g id="Wall" class="Wall" fill="#000000" stroke="#000000" style="fill-opacity: 1; stroke-opacity: 1; stroke-width: 0.2;"><polygon points="812.13,517.08 281.40,517.08 281.40,503.08 812.13,503.08 "/><g id="Door" fill="#ffffff" stroke="#000000" style="fill-opacity: 1; stroke-width: 1; stroke-opacity: 1;" class="Door Swing Beside"><polygon points="508.13,517.08 432.05,517.08 432.05,503.08 508.13,503.08 "/><g id="Threshold" class="Threshold"><polygon points="508.13,517.08 432.05,517.08 432.05,503.08 508.13,503.08 "/></g><g id="Panel" fill="none" style="" class="Panel Left Negative"><g id="PanelArea" fill="none" stroke="none" style="" class="PanelArea"><polygon points="508.13,517.08 432.05,517.08 432.05,503.08 508.13,503.08 "/></g><path d="M508.13,517.08 q0.00,76.08 -76.08,76.08 l0.00,-76.08Z"/></g></g><g id="Window" fill="#f0f0ff" stroke="#000000" style="fill-opacity: 1; stroke-width: 1; stroke-opacity: 1;" class="Window Regular"><polygon points="712.59,517.08 574.69,517.08 574.69,503.08 712.59,503.08 "/><g id="Glass" class="Glass"><polygon points="712.59,517.08 574.69,517.08 574.69,503.08 712.59,503.08 "/></g><g id="Panel" class="Panel"><line x1="705.0900268554688" x2="582.1900024414062" y1="510.0800018310547" y2="510.0800018310547"/><line x1="705.0900268554688" x2="705.0900268554688" y1="517.0800170898438" y2="503.0799865722656"/><line x1="582.1900024414062" x2="582.1900024414062" y1="517.0800170898438" y2="503.0799865722656"/></g></g></g><g id="Wall" class="Wall" fill="#000000" stroke="#000000" style="fill-opacity: 1; stroke-opacity: 1; stroke-width: 0.2;"><polygon points="306.76,733.54 306.76,448.79 293.76,448.79 293.76,733.54 "/><g id="Door" fill="#ffffff" stroke="#000000" style="fill-opacity: 1; stroke-width: 1; stroke-opacity: 1;" class="Door Swing Beside"><polygon points="306.76,685.16 306.76,625.62 293.76,625.62 293.76,685.16 "/><g id="Threshold" class="Threshold"><polygon points="306.76,685.16 306.76,625.62 293.76,625.62 293.76,685.16 "/></g><g id="Panel" fill="none" style="" class="Panel Left Negative"><g id="PanelArea" fill="none" stroke="none" style="" class="PanelArea"><polygon points="306.76,685.16 306.76,625.62 293.76,625.62 293.76,685.16 "/></g><path d="M306.76,685.16 q59.54,0.00 59.54,-59.54 l-59.54,0.00Z"/></g></g></g><g id="Wall" class="Wall" fill="#000000" stroke="#000000" style="fill-opacity: 1; stroke-opacity: 1; stroke-width: 0.2;"><polygon points="306.76,448.79 306.76,50.48 293.76,50.48 293.76,448.79 "/><g id="Door" fill="#ffffff" stroke="#000000" style="fill-opacity: 1; stroke-width: 1; stroke-opacity: 1;" class="Door Swing Beside"><polygon points="306.76,215.99 306.76,149.23 293.76,149.23 293.76,215.99 "/><g id="Threshold" class="Threshold"><polygon points="306.76,215.99 306.76,149.23 293.76,149.23 293.76,215.99 "/></g><g id="Panel" fill="none" style="" class="Panel Left Negative"><g id="PanelArea" fill="none" stroke="none" style="" class="PanelArea"><polygon points="306.76,215.99 306.76,149.23 293.76,149.23 293.76,215.99 "/></g><path d="M306.76,215.99 q66.76,0.00 66.76,-66.76 l-66.76,0.00Z"/></g></g><g id="Door" fill="#ffffff" stroke="#000000" style="fill-opacity: 1; stroke-width: 1; stroke-opacity: 1;" class="Door None Beside"><polygon points="306.76,390.62 306.76,312.88 293.76,312.88 293.76,390.62 "/><g id="Threshold" stroke="#ffffff" style="" class="Threshold"><polygon points="306.76,390.62 306.76,312.88 293.76,312.88 293.76,390.62 "/></g></g></g><g id="Wall" class="Wall" fill="#000000" stroke="#000000" style="fill-opacity: 1; stroke-opacity: 1; stroke-width: 0.2;"><polygon points="52.37,301.09 306.76,301.09 306.76,288.09 52.37,288.09 "/></g><g id="Wall" class="Wall" fill="#000000" stroke="#000000" style="fill-opacity: 1; stroke-opacity: 1; stroke-width: 0.2;"><polygon points="52.37,516.01 270.40,516.01 270.40,501.01 52.37,501.01 "/></g><g id="Wall" class="Wall" fill="#000000" stroke="#000000" style="fill-opacity: 1; stroke-opacity: 1; stroke-width: 0.2;"><polygon points="306.76,566.46 306.76,448.79 260.76,448.79 260.76,566.46 "/></g><g id="Wall" class="Wall External" fill="#000000" stroke="#000000" style="fill-opacity: 1; stroke-opacity: 1; stroke-width: 0.2;"><polygon points="52.37,50.48 52.37,31.33 66.31,31.33 66.31,50.48 "/></g><g id="Wall" class="Wall External" fill="#000000" stroke="#000000" style="fill-opacity: 1; stroke-opacity: 1; stroke-width: 0.2;"><polygon points="66.37,50.48 32.69,50.48 32.69,64.48 52.37,64.48 "/></g><g id="Wall" class="Wall" fill="#000000" stroke="#000000" style="fill-opacity: 1; stroke-opacity: 1; stroke-width: 0.2;"><polygon points="293.76,50.48 293.76,31.15 306.76,31.15 306.76,50.48 "/></g><g id="Wall" class="Wall" fill="#000000" stroke="#000000" style="fill-opacity: 1; stroke-opacity: 1; stroke-width: 0.2;"><polygon points="517.31,30.78 517.31,86.18 531.41,86.18 531.41,30.78 "/></g><g id="Wall" class="Wall" fill="#000000" stroke="#000000" style="fill-opacity: 1; stroke-opacity: 1; stroke-width: 0.2;"><polygon points="811.27,50.48 811.27,32.38 798.27,32.38 798.27,50.48 "/></g><g id="Wall" class="Wall" fill="#000000" stroke="#000000" style="fill-opacity: 1; stroke-opacity: 1; stroke-width: 0.2;"><polygon points="811.27,50.48 830.27,50.48 830.27,66.43 811.27,66.43 "/></g><g id="Wall" class="Wall" fill="#000000" stroke="#000000" style="fill-opacity: 1; stroke-opacity: 1; stroke-width: 0.2;"><polygon points="812.12,517.08 831.39,517.08 831.39,503.08 812.12,503.08 "/></g><g id="Wall" class="Wall" fill="#000000" stroke="#000000" style="fill-opacity: 1; stroke-opacity: 1; stroke-width: 0.2;"><polygon points="812.52,733.54 832.82,733.54 832.82,719.54 812.52,719.54 "/></g><g id="Wall" class="Wall" fill="#000000" stroke="#000000" style="fill-opacity: 1; stroke-opacity: 1; stroke-width: 0.2;"><polygon points="812.52,733.54 812.52,753.34 798.52,753.34 798.52,733.54 "/></g><g id="Wall" class="Wall" fill="#000000" stroke="#000000" style="fill-opacity: 1; stroke-opacity: 1; stroke-width: 0.2;"><polygon points="516.85,698.98 516.85,752.85 530.85,752.85 530.85,698.98 "/></g><g id="Wall" class="Wall" fill="#000000" stroke="#000000" style="fill-opacity: 1; stroke-opacity: 1; stroke-width: 0.2;"><polygon points="293.76,733.54 293.76,751.78 306.76,751.78 306.76,733.54 "/></g><g id="Wall" class="Wall" fill="#000000" stroke="#000000" style="fill-opacity: 1; stroke-opacity: 1; stroke-width: 0.2;"><polygon points="52.37,733.54 52.37,751.79 65.37,751.79 65.37,733.54 "/></g><g id="Wall" class="Wall" fill="#000000" stroke="#000000" style="fill-opacity: 1; stroke-opacity: 1; stroke-width: 0.2;"><polygon points="52.37,733.54 32.00,733.54 32.00,719.17 52.37,719.17 "/></g><g id="Wall" class="Wall" fill="#000000" stroke="#000000" style="fill-opacity: 1; stroke-opacity: 1; stroke-width: 0.2;"><polygon points="52.37,516.01 32.15,516.01 32.15,501.01 52.37,501.01 "/></g><g id="Wall" class="Wall" fill="#000000" stroke="#000000" style="fill-opacity: 1; stroke-opacity: 1; stroke-width: 0.2;"><polygon points="52.37,301.09 31.78,301.09 31.78,287.09 52.37,287.09 "/></g><g id="Wall" class="Wall" fill="#000000" stroke="#000000" style="fill-opacity: 1; stroke-opacity: 1; stroke-width: 0.2;"><polygon points="306.76,301.09 326.50,301.09 326.50,288.09 306.76,288.09 "/></g><g transform="matrix(1,0,0,1,180.7751,501.6419)" class="FixedFurniture BaseCabinet" style="fill-opacity: 1; stroke-opacity: 1;" fill="#ffffff" stroke="#000000"><desc>Width:60 Height:90 Depth:60 Elevation:0</desc><g class="BoundaryPolygon"><polygon points="0.00,0.00 0.00,-60.79 -114.46,-60.79 -114.46,-0.23 0.00,0.00 " fill="#ffffff" stroke="#000000" style=""/></g></g><g class="FixedFurniture Sink" transform="matrix(-1,0,0,-1,174.4859,490.1346)" style="fill-opacity: 1; stroke-opacity: 1;" fill="#ffffff" stroke="#000000">
            <g class="InnerPolygon" fill="rgb(255, 255, 255)" stroke="rgb(0, 0, 0)">
                <polygon points="5.00,9.70 37.24,9.70 37.24,39.59 5.00,39.59 "/>
            </g>
            <g class="OuterDrain" fill="rgb(255, 255, 255)" stroke="rgb(0, 0, 0)" stroke-width="0.8">
                <circle cx="20.314987682304167" cy="23.307252746824954" r="3.5"/>
            </g>
            <g class="InnerDrain" fill="rgb(255, 255, 255)" stroke="rgb(0, 0, 0)" stroke-width="0.8">
                <circle cx="20.314987682304167" cy="23.307252746824954" r="2"/>
            </g>
            <g class="Faucet" fill="rgb(255, 255, 255)" stroke="rgb(0, 0, 0)">
                <polygon points="18.28,3.62 24.28,3.62 24.28,17.62 18.28,17.62 "/>
            </g>
           <g class="Direction" fill-opacity="0.9" style="display: none;">
                <polygon points="21.68,39.95 21.68,29.34 18.67,29.34 18.67,39.95 14.86,39.95 20.17,44.76 25.47,39.95 21.68,39.95 " fill="#444444"/>
            </g> 
            <g class="Name" fill-opacity="0.9" style="display: none;">
                <text transform="translate(3 12)" font-size="12" font-family="Verdana, Sans-Serif">SINK</text>
            </g>
            <desc>Width:60 Height:90 Depth:60 Elevation:0</desc>
        </g><g transform="matrix(1,0,0,1,180.7751,501.6419)" style="stroke-opacity: 1; fill-opacity: 0.7;" class="FixedFurniture WallCabinet" fill="#ffffff" stroke="#000000"><desc>Width:60 Height:60 Depth:50 Elevation:140</desc><g class="BoundaryPolygon"><polygon points="0.00,0.00 0.00,-27.92 -114.86,-27.92 -114.86,-0.49 0.00,0.00 " fill="#ffffff" stroke="#000000" style=""/></g></g><g class="FixedFurniture SaunaBench" transform="matrix(0,-1,1,0,66.4433,717.5126)" style="fill-opacity: 1; stroke-opacity: 1;" fill="#ffffff" stroke="#000000">
            <g class="BoundaryPolygon" fill="rgb(255, 255, 255)" stroke="rgb(0, 0, 0)">
                <polygon points="0.00,0.00 201.50,0.00 201.50,60.00 0.00,60.00 "/> 
            </g>
            <g class="Bench" fill="rgb(255, 255, 255)" stroke="rgb(154, 154, 154)" stroke-width="0.5">
                <line x1="0" y1="4" x2="201.50343796259804" y2="4"/>
                <line x1="0" y1="8" x2="201.50343796259804" y2="8"/>
                <line x1="0" y1="12" x2="201.50343796259804" y2="12"/>
                <line x1="0" y1="16" x2="201.50343796259804" y2="16"/>
                <line x1="0" y1="20" x2="201.50343796259804" y2="20"/>
                <line x1="0" y1="24" x2="201.50343796259804" y2="24"/>
                <line x1="0" y1="28" x2="201.50343796259804" y2="28"/>
                <line x1="0" y1="32" x2="201.50343796259804" y2="32"/>
                <line x1="0" y1="36" x2="201.50343796259804" y2="36"/>
                <line x1="0" y1="40" x2="201.50343796259804" y2="40"/>
                <line x1="0" y1="44" x2="201.50343796259804" y2="44"/>
                <line x1="0" y1="48" x2="201.50343796259804" y2="48"/>
                <line x1="0" y1="52" x2="201.50343796259804" y2="52"/>
                <line x1="0" y1="56" x2="201.50343796259804" y2="56"/>
            </g>
        <g class="Direction" fill-opacity="0.9" style="display: none;">
            <polygon points="103.92,54.66 103.92,44.04 100.91,44.04 100.91,54.66 97.11,54.66 102.41,59.96 107.71,54.66 103.92,54.66 " fill="#444444"/>
        </g> 
        <g class="Name" fill-opacity="0.9" style="display: none;">
            <text transform="translate(3 12)" font-size="12" font-family="Verdana, Sans-Serif">SB_HIGH</text>
        </g>
            <desc>Width:185 Height:5 Depth:60 Elevation:105</desc>
        </g><g class="FixedFurniture SaunaBench" transform="matrix(0,-1,1,0,126.6777,718.5091)" style="fill-opacity: 1; stroke-opacity: 1;" fill="#ffffff" stroke="#000000">
            <g class="BoundaryPolygon" fill="rgb(255, 255, 255)" stroke="rgb(0, 0, 0)">
                <polygon points="0.00,0.00 202.50,0.00 202.50,30.43 0.00,30.43 "/>
            </g>
            <g class="Bench" fill="rgb(255, 255, 255)" stroke="rgb(154, 154, 154)" stroke-width="0.5">
                <line x1="0" y1="3.043364633888719" x2="202.49528457199247" y2="3.043364633888719"/>
                <line x1="0" y1="6.086729267777438" x2="202.49528457199247" y2="6.086729267777438"/>
                <line x1="0" y1="9.130093901666156" x2="202.49528457199247" y2="9.130093901666156"/>
                <line x1="0" y1="12.173458535554875" x2="202.49528457199247" y2="12.173458535554875"/>
                <line x1="0" y1="15.216823169443593" x2="202.49528457199247" y2="15.216823169443593"/>
                <line x1="0" y1="18.26018780333231" x2="202.49528457199247" y2="18.26018780333231"/>
                <line x1="0" y1="21.303552437221036" x2="202.49528457199247" y2="21.303552437221036"/>
                <line x1="0" y1="24.34691707110975" x2="202.49528457199247" y2="24.34691707110975"/>
                <line x1="0" y1="27.39028170499847" x2="202.49528457199247" y2="27.39028170499847"/>
            </g>
        <g class="Direction" fill-opacity="0.9" style="display: none;">
            <polygon points="102.90,26.37 102.90,15.75 99.89,15.75 99.89,26.37 96.09,26.37 101.39,31.67 106.69,26.37 102.90,26.37 " fill="#444444"/>
        </g> 
        <g class="Name" fill-opacity="0.9" style="display: none;">
            <text transform="translate(3 12)" font-size="12" font-family="Verdana, Sans-Serif">SB_MID</text>
        </g>
            <desc>Width:185 Height:5 Depth:40 Elevation:60</desc>
        </g><g class="FixedFurniture ElectricalAppliance Heater" transform="matrix(-0.8216,0,0,-0.6183,367.3939,496.1646)" style="fill-opacity: 1; stroke-opacity: 1;" fill="#ffffff" stroke="#000000">    
	   <g class="BoundaryPolygon" fill="rgb(255, 255, 255)" stroke="rgb(0, 0, 0)"> 
		<polygon points="0 0 60 0 60 60 0 60"/>
		</g>
		
	   <g class="heaterSign" fill="none" stroke="rgb(0, 0, 0)"> 
		<path d="M0,0,60,60"/>
            <path d="M16.5,24.2,36,43.5"/>
            <path d="M24.1,16.6,43.6,36"/>
		</g>
        <g class="Direction" fill-opacity="0.9" style="display: none;">
                <polygon points="31.509 54.697 31.509 44.081 28.5 44.081 28.5 54.697 24.697 54.697 30 60 35.303 54.697 31.509 54.697" fill="#444444"/>
        </g> 
        <g class="Name" fill-opacity="0.9" style="display: none;">
                <text transform="translate(3 12)" font-size="12" font-family="Verdana, Sans-Serif">H</text>
        </g>
        <desc>Width:60 Height:90 Depth:60 Elevation:0</desc>
	</g><g class="FixedFurniture ElectricalAppliance SaunaStove" transform="matrix(1,0,0,1.0895,194.9376,521.8033)" style="fill-opacity: 1; stroke-opacity: 1;" fill="#ffffff" stroke="#000000"> 
	   <g class="BoundaryPolygon" fill="rgb(255, 255, 255)" stroke="rgb(0, 0, 0)"> 
		<polygon points="0,0 60,0 60,35 0,35"/>
		</g>
	   <g class="electricitySign" fill="none" stroke="rgb(0, 0, 0)">
		<polyline points="0 35 39.7 17.5 21.4 17.5 60 0"/>
		</g>
        <g class="Direction" fill-opacity="0.9" style="display: none;">
            <polygon points="31.509 29.697 31.509 19.081 28.5 19.081 28.5 29.697 24.697 29.697 30 35 35.303 29.697 31.509 29.697" fill="#444444"/>
        </g> 
        <g class="Name" fill-opacity="0.9" style="display: none;">
            <text transform="translate(3 12)" font-size="12" font-family="Verdana, Sans-Serif">SS</text>
        </g>
        <desc>Width:60 Height:60 Depth:35 Elevation:20</desc>
	</g><g class="FixedFurniture ElectricalAppliance" transform="matrix(-0.5617,0,0,-0.8325,254.6307,497.6011)" fill="#ffffff" stroke="#000000" style="fill-opacity: 1; stroke-opacity: 1;">
	   <g class="BoundaryPolygon" fill="rgb(255, 255, 255)" stroke="rgb(0, 0, 0)"> 
		<polygon points="0,0 60,0 60,60 0,60"/>
		</g>	
	   <g class="electricitySign" fill="none" stroke="rgb(0, 0, 0)">
        <path d="M0,0,30.1,39.8V19.4L59.9,60"/>
		</g>
        <g class="Direction" fill-opacity="0.9" style="display: none;">
                <polygon points="32.009 55.197 32.009 44.581 29 44.581 29 55.197 25.197 55.197 30.5 60 35.803 55.197 32.009 55.197" fill="#444444"/>
        </g> 
        <g class="Name" fill-opacity="0.9" style="display: none;">
                <text transform="translate(3 12)" font-size="12" font-family="Verdana, Sans-Serif">LEB</text>
        </g>
    <desc>Width:60 Height:90 Depth:60 Elevation:0</desc>
	</g><g fill="#0000ff" stroke="#0000ff" style="display: none;" class="SelectionControls"><g style="display: none;" class="rotateControl"><circle cx="224.26550000000003" cy="574.4293749999999" r="5" style="stroke : none; fill-opacity: 0.5; cursor:crosshair"/></g><g style="display: none;" class="ResizeNControl"><circle cx="0" cy="0" r="5" style="stroke : none; fill-opacity: 0.5"/></g><g style="display: none;" class="ResizeNEControl"><circle cx="0" cy="0" r="5" style="stroke : none; fill-opacity: 0.5"/></g><g style="display: none;" class="ResizeEControl"><circle cx="0" cy="0" r="5" style="stroke : none; fill-opacity: 0.5"/></g><g style="display: none;" class="ResizeSEControl"><circle cx="0" cy="0" r="5" style="stroke : none; fill-opacity: 0.5"/></g><g style="display: none;" class="ResizeSControl"><circle cx="0" cy="0" r="5" style="stroke : none; fill-opacity: 0.5"/></g><g style="display: none;" class="ResizeSWControl"><circle cx="0" cy="0" r="5" style="stroke : none; fill-opacity: 0.5"/></g><g style="display: none;" class="ResizeWControl"><circle cx="0" cy="0" r="5" style="stroke : none; fill-opacity: 0.5"/></g><g style="display: none;" class="ResizeNWControl"><circle cx="0" cy="0" r="5" style="stroke : none; fill-opacity: 0.5"/></g><g style="display: none;" class="removeControl"><polygon style="stroke : none; fill-opacity: 0.1" points="165.64,604.43 282.89,604.43 282.89,644.94 165.64,644.94 "/></g><g style="display: none;" class="copyPasteControl"><polygon style="stroke : none; fill-opacity: 0.1"/></g><g style="display: none;" class="translateControl"><polygon style="stroke : none; fill-opacity: 0.1; cursor:move" points="165.64,604.43 282.89,604.43 282.89,644.94 165.64,644.94 "/></g></g><g fill="#0000ff" stroke="#0000ff" style="display: none;" class="SelectionControls"><polygon fill="none" stroke="#0000ff" style="" points="66.37,516.01 293.76,516.01 293.76,718.54 66.37,718.54 "/><g style="display: none;" class="rotateControl"><circle cx="180.06115336914064" cy="486.0091" r="5" style="stroke : none; fill-opacity: 0.5; cursor:crosshair"/></g><g style="display: none;" class="ResizeNControl"><circle cx="0" cy="0" r="5" style="stroke : none; fill-opacity: 0.5"/></g><g style="display: none;" class="ResizeNEControl"><circle cx="0" cy="0" r="5" style="stroke : none; fill-opacity: 0.5"/></g><g style="display: none;" class="ResizeEControl"><circle cx="0" cy="0" r="5" style="stroke : none; fill-opacity: 0.5"/></g><g style="display: none;" class="ResizeSEControl"><circle cx="0" cy="0" r="5" style="stroke : none; fill-opacity: 0.5"/></g><g style="display: none;" class="ResizeSControl"><circle cx="0" cy="0" r="5" style="stroke : none; fill-opacity: 0.5"/></g><g style="display: none;" class="ResizeSWControl"><circle cx="0" cy="0" r="5" style="stroke : none; fill-opacity: 0.5"/></g><g style="display: none;" class="ResizeWControl"><circle cx="0" cy="0" r="5" style="stroke : none; fill-opacity: 0.5"/></g><g style="display: none;" class="ResizeNWControl"><circle cx="0" cy="0" r="5" style="stroke : none; fill-opacity: 0.5"/></g><g style="display: none;" class="removeControl"><polygon style="stroke : none; fill-opacity: 0.1"/></g><g style="display: none;" class="copyPasteControl"><polygon style="stroke : none; fill-opacity: 0.1"/></g><g style="display: none;" class="translateControl"><polygon style="stroke : none; fill-opacity: 0.1; cursor:move"/></g></g></g></g></g></svg>
