<?xml version="1.0"?>
<svg xmlns="http://www.w3.org/2000/svg" xmlns:xlink="http://www.w3.org/1999/xlink" height="1340.5499725341797" version="1.1" width="502.0499725341797" id="temp" viewBox="0 0 502.0499725341797 1340.5499725341797"><defs/><g id="Model" class="Model v1-1"><g class="Floor"><g id="Floor-1" transform="matrix(1,0,0,1,0,0)" class="Floorplan Floor-1"><g id="1f42151a-c26e-451c-a373-2ade20624cb6" class="Space Bath Shower" fill="#ffffff" stroke="#ffffff" style="fill-opacity: 1; stroke-opacity: 1; stroke-width: 0.2;"><polygon points="313.03,1198.65 162.26,1198.65 162.26,894.57 313.03,894.57 "/><g transform="matrix(1,0,0,1,162.2584,894.5682)" class="Dimension"><g transform="matrix(1,0,0,1,0,0)" style="display: none;" class="Visual"><g id="mark1" fill="#000000" stroke="none" transform="matrix(1,0,0,1,75.3837,0)" style="fill-opacity: 1; pointer-events: visible;" class="DimensionMark"><polygon points="-5,5,0,0,5,5"/></g><g id="mark2" fill="#000000" stroke="none" transform="matrix(1,0,0,1,150.7675,152.0391)" style="fill-opacity: 1; pointer-events: visible;" class="DimensionMark"><polygon points="-5,-5,0,0,-5,5"/></g><g id="mark3" fill="#000000" stroke="none" transform="matrix(1,0,0,1,75.3837,304.0781)" style="fill-opacity: 1; pointer-events: visible;" class="DimensionMark"><polygon points="-5,-5,0,0,5,-5"/></g><g id="mark4" fill="#000000" stroke="none" transform="matrix(1,0,0,1,0,152.0391)" style="fill-opacity: 1; pointer-events: visible;" class="DimensionMark"><polygon points="5,5,0,0,5,-5"/></g></g><g transform="matrix(1,0,0,1,54.1433,185.6931)" class="SpaceDimensionsLabel"><g id="NameLabel" style="display: none;" class="TextLabel NameLabel"><text x="0" y="0em" fill="#000000" stroke="none" style="font-family: Verdana; font-size: 33px; fill-opacity: 1; cursor: default;">PH</text></g><g id="DimensionMeasureLabel" transform="matrix(1,0,0,1,-117.6641,79.5938)" style="display: none;" class="TextLabel DimensionMeasureLabel"><text x="31.6953125" y="-1.2em" fill="#000000" stroke="none" style="font-family: Verdana; font-size: 33px; fill-opacity: 1; cursor: default;">4'11" x 10'0"</text><text x="0" y="0em" fill="#000000" stroke="none" style="font-family: Verdana; font-size: 33px; fill-opacity: 1; cursor: default;">1.51 m x 3.04 m</text></g></g></g></g><g id="54754b76-5f6d-4ced-9c88-03b47dfd868f" class="Space Entry Lobby" fill="#ffffff" stroke="#ffffff" style="fill-opacity: 1; stroke-opacity: 1; stroke-width: 0.2;"><polygon points="482.05,1231.72 324.03,1231.72 324.03,1043.61 482.05,1043.61 "/><g transform="matrix(1,0,0,1,324.0259,1043.6145)" class="Dimension"><g transform="matrix(1,0,0,1,0,0)" style="display: none;" class="Visual"><g id="mark1" fill="#000000" stroke="none" transform="matrix(1,0,0,1,79.0144,0)" style="fill-opacity: 1; pointer-events: visible;" class="DimensionMark"><polygon points="-5,5,0,0,5,5"/></g><g id="mark2" fill="#000000" stroke="none" transform="matrix(1,0,0,1,158.0288,94.0511)" style="fill-opacity: 1; pointer-events: visible;" class="DimensionMark"><polygon points="-5,-5,0,0,-5,5"/></g><g id="mark3" fill="#000000" stroke="none" transform="matrix(1,0,0,1,79.0144,188.1021)" style="fill-opacity: 1; pointer-events: visible;" class="DimensionMark"><polygon points="-5,-5,0,0,5,-5"/></g><g id="mark4" fill="#000000" stroke="none" transform="matrix(1,0,0,1,0,94.0511)" style="fill-opacity: 1; pointer-events: visible;" class="DimensionMark"><polygon points="5,5,0,0,5,-5"/></g></g><g transform="matrix(1,0,0,1,32.4877,160.8068)" class="SpaceDimensionsLabel"><g id="NameLabel" style="display: none;" class="TextLabel NameLabel"><text x="0" y="0em" fill="#000000" stroke="none" style="font-family: Verdana; font-size: 33px; fill-opacity: 1; cursor: default;">ET</text></g><g id="DimensionMeasureLabel" transform="matrix(1,0,0,1,-119.0781,79.5938)" style="display: none;" class="TextLabel DimensionMeasureLabel"><text x="52.6796875" y="-1.2em" fill="#000000" stroke="none" style="font-family: Verdana; font-size: 33px; fill-opacity: 1; cursor: default;">5'2" x 6'2"</text><text x="0" y="0em" fill="#000000" stroke="none" style="font-family: Verdana; font-size: 33px; fill-opacity: 1; cursor: default;">1.58 m x 1.88 m</text></g></g></g></g><g id="8a081a6f-a205-434f-83e8-a7bf606fa88a" class="Space Kitchen" fill="#ffffff" stroke="#ffffff" style="fill-opacity: 1; stroke-opacity: 1; stroke-width: 0.2;"><polygon points="481.90,833.81 324.13,833.81 324.13,1043.61 481.90,1043.61 481.90,833.81 481.90,833.81 "/><g transform="matrix(1,0,0,1,324.1284,833.8106)" class="Dimension"><g transform="matrix(1,0,0,1,0,0)" style="display: none;" class="Visual"><g id="mark1" fill="#000000" stroke="none" transform="matrix(1,0,0,1,78.885,0)" style="fill-opacity: 1; pointer-events: visible;" class="DimensionMark"><polygon points="-5,5,0,0,5,5"/></g><g id="mark2" fill="#000000" stroke="none" transform="matrix(1,0,0,1,157.77,104.902)" style="fill-opacity: 1; pointer-events: visible;" class="DimensionMark"><polygon points="-5,-5,0,0,-5,5"/></g><g id="mark3" fill="#000000" stroke="none" transform="matrix(1,0,0,1,78.885,209.804)" style="fill-opacity: 1; pointer-events: visible;" class="DimensionMark"><polygon points="-5,-5,0,0,5,-5"/></g><g id="mark4" fill="#000000" stroke="none" transform="matrix(1,0,0,1,0,104.902)" style="fill-opacity: 1; pointer-events: visible;" class="DimensionMark"><polygon points="5,5,0,0,5,-5"/></g></g><g transform="matrix(1,0,0,1,38.427,116.0279)" class="SpaceDimensionsLabel"><g id="NameLabel" style="display: none;" class="TextLabel NameLabel"><text x="0" y="0em" fill="#000000" stroke="none" style="font-family: Verdana; font-size: 33px; fill-opacity: 1; cursor: default;">K</text></g><g id="DimensionMeasureLabel" transform="matrix(1,0,0,1,-128.5078,79.5938)" style="display: none;" class="TextLabel DimensionMeasureLabel"><text x="42.1875" y="-1.2em" fill="#000000" stroke="none" style="font-family: Verdana; font-size: 33px; fill-opacity: 1; cursor: default;">5'2" x 6'11"</text><text x="0" y="0em" fill="#000000" stroke="none" style="font-family: Verdana; font-size: 33px; fill-opacity: 1; cursor: default;">1.58 m x 2.10 m</text></g></g></g></g><g id="0c3da835-28a0-402c-a4ff-cd3f2304b5f4" class="Space LivingRoom" fill="#ffffff" stroke="#ffffff" style="fill-opacity: 1; stroke-opacity: 1; stroke-width: 0.2;"><polygon points="481.90,833.81 324.13,833.81 324.13,883.47 162.26,883.47 162.26,336.18 482.22,336.18 481.90,833.81 481.90,833.81 "/><g transform="matrix(1,0,0,1,162.2607,336.1777)" class="Dimension"><g transform="matrix(1,0,0,1,0,0)" style="display: none;" class="Visual"><g id="mark1" fill="#000000" stroke="none" transform="matrix(1,0,0,1,159.9789,0)" style="fill-opacity: 1; pointer-events: visible;" class="DimensionMark"><polygon points="-5,5,0,0,5,5"/></g><g id="mark2" fill="#000000" stroke="none" transform="matrix(1,0,0,1,319.7828,273.6483)" style="fill-opacity: 1; pointer-events: visible;" class="DimensionMark"><polygon points="-5,-5,0,0,-5,5"/></g><g id="mark3" fill="#000000" stroke="none" transform="matrix(1,0,0,1,159.9789,547.2968)" style="fill-opacity: 1; pointer-events: visible;" class="DimensionMark"><polygon points="-5,-5,0,0,5,-5"/></g><g id="mark4" fill="#000000" stroke="none" transform="matrix(1,0,0,1,0,273.6483)" style="fill-opacity: 1; pointer-events: visible;" class="DimensionMark"><polygon points="5,5,0,0,5,-5"/></g></g><g transform="matrix(1,0,0,1,140.7613,260.1148)" class="SpaceDimensionsLabel"><g id="NameLabel" style="display: none;" class="TextLabel NameLabel"><text x="0" y="0em" fill="#000000" stroke="none" style="font-family: Verdana; font-size: 33px; fill-opacity: 1; cursor: default;">OH</text></g><g id="DimensionMeasureLabel" transform="matrix(1,0,0,1,-114.625,79.5938)" style="display: none;" class="TextLabel DimensionMeasureLabel"><text x="21.2109375" y="-1.2em" fill="#000000" stroke="none" style="font-family: Verdana; font-size: 33px; fill-opacity: 1; cursor: default;">10'6" x 17'11"</text><text x="0" y="0em" fill="#000000" stroke="none" style="font-family: Verdana; font-size: 33px; fill-opacity: 1; cursor: default;">3.20 m x 5.47 m</text></g></g></g></g><g id="f5724b6f-8b3f-40da-980b-ca867910822f" class="Space Outdoor" fill="#ffffff" stroke="#000000" style="stroke-width: 0.2; fill-opacity: 1; stroke-opacity: 1;"><polygon points="162.26,121.17 477.01,121.16 482.22,121.16 482.22,311.18 162.26,311.18 162.26,121.17 162.26,121.17 "/><g transform="matrix(1,0,0,1,162.2607,121.1642)" class="Dimension"><g transform="matrix(1,0,0,1,0,0)" style="display: none;" class="Visual"><g id="mark1" fill="#000000" stroke="none" transform="matrix(1,0,0,1,159.9789,0)" style="fill-opacity: 1; pointer-events: visible;" class="DimensionMark"><polygon points="-5,5,0,0,5,5"/></g><g id="mark2" fill="#000000" stroke="none" transform="matrix(1,0,0,1,319.9587,95.0056)" style="fill-opacity: 1; pointer-events: visible;" class="DimensionMark"><polygon points="-5,-5,0,0,-5,5"/></g><g id="mark3" fill="#000000" stroke="none" transform="matrix(1,0,0,1,159.9789,190.0135)" style="fill-opacity: 1; pointer-events: visible;" class="DimensionMark"><polygon points="-5,-5,0,0,5,-5"/></g><g id="mark4" fill="#000000" stroke="none" transform="matrix(1,0,0,1,0,95.0056)" style="fill-opacity: 1; pointer-events: visible;" class="DimensionMark"><polygon points="5,5,0,0,5,-5"/></g></g><g transform="matrix(1,0,0,1,133.6822,84.8924)" class="SpaceDimensionsLabel"><g id="NameLabel" style="display: none;" class="TextLabel NameLabel"><text x="0" y="0em" fill="#000000" stroke="none" style="font-family: Verdana; font-size: 33px; fill-opacity: 1; cursor: default;">ULKOTILA</text></g><g id="DimensionMeasureLabel" transform="matrix(1,0,0,1,-56.5313,79.5938)" style="display: none;" class="TextLabel DimensionMeasureLabel"><text x="42.1875" y="-1.2em" fill="#000000" stroke="none" style="font-family: Verdana; font-size: 33px; fill-opacity: 1; cursor: default;">10'6" x 6'3"</text><text x="0" y="0em" fill="#000000" stroke="none" style="font-family: Verdana; font-size: 33px; fill-opacity: 1; cursor: default;">3.20 m x 1.90 m</text></g></g></g></g><g id="Wall" class="Wall External" fill="#000000" stroke="#000000" style="fill-opacity: 1; stroke-opacity: 1; stroke-width: 0.2;"><polygon points="162.26,336.18 482.05,336.18 502.05,311.18 139.26,311.18 "/><g id="Door" fill="#ffffff" stroke="#000000" style="fill-opacity: 1; stroke-width: 1; stroke-opacity: 1;" class="Door Swing Beside"><polygon points="357.48,336.18 447.97,336.18 447.97,311.18 357.48,311.18 "/><g id="Threshold" class="Threshold"><polygon points="357.48,336.18 447.97,336.18 447.97,311.18 357.48,311.18 "/></g><g id="Panel" fill="none" style="" class="Panel Right Positive"><g id="PanelArea" fill="none" stroke="none" style="" class="PanelArea"><polygon points="357.48,336.18 447.97,336.18 447.97,311.18 357.48,311.18 "/></g><path d="M357.48,311.18 q0.00,-90.49 90.49,-90.49 l0.00,90.49Z"/></g></g><g id="Window" fill="#f0f0ff" stroke="#000000" style="fill-opacity: 1; stroke-width: 1; stroke-opacity: 1;" class="Window Regular"><polygon points="191.03,336.18 345.02,336.18 345.02,311.18 191.03,311.18 "/><g id="Glass" class="Glass"><polygon points="191.03,336.18 345.02,336.18 345.02,311.18 191.03,311.18 "/></g><g id="Panel" class="Panel"><line x1="198.52999877929688" x2="337.5199890136719" y1="323.67999267578125" y2="323.67999267578125"/><line x1="198.52999877929688" x2="198.52999877929688" y1="336.17999267578125" y2="311.17999267578125"/><line x1="337.5199890136719" x2="337.5199890136719" y1="336.17999267578125" y2="311.17999267578125"/></g></g></g><g id="Wall" class="Wall External" fill="#000000" stroke="#000000" style="fill-opacity: 1; stroke-opacity: 1; stroke-width: 0.2;"><polygon points="482.05,336.18 482.05,1231.72 502.05,1251.72 502.05,311.18 "/></g><g id="Wall" class="Wall External" fill="#000000" stroke="#000000" style="fill-opacity: 1; stroke-opacity: 1; stroke-width: 0.2;"><polygon points="482.05,1231.72 324.03,1231.72 324.03,1251.72 502.05,1251.72 "/><g id="Door" fill="#ffffff" stroke="#000000" style="fill-opacity: 1; stroke-width: 1; stroke-opacity: 1;" class="Door Swing Beside"><polygon points="418.15,1231.72 329.32,1231.72 329.32,1251.72 418.15,1251.72 "/><g id="Threshold" class="Threshold"><polygon points="418.15,1231.72 329.32,1231.72 329.32,1251.72 418.15,1251.72 "/></g><g id="Panel" fill="none" style="" class="Panel Right Positive"><g id="PanelArea" fill="none" stroke="none" style="" class="PanelArea"><polygon points="418.15,1231.72 329.32,1231.72 329.32,1251.72 418.15,1251.72 "/></g><path d="M418.15,1251.72 q0.00,88.83 -88.83,88.83 l0.00,-88.83Z"/></g></g></g><g id="Wall" class="Wall External" fill="#000000" stroke="#000000" style="fill-opacity: 1; stroke-opacity: 1; stroke-width: 0.2;"><polygon points="324.03,1198.65 139.26,1198.65 139.26,1251.72 324.03,1251.72 "/></g><g id="Wall" class="Wall External" fill="#000000" stroke="#000000" style="fill-opacity: 1; stroke-opacity: 1; stroke-width: 0.2;"><polygon points="162.26,1198.65 162.26,336.18 139.26,311.18 139.26,1251.72 "/></g><g id="Wall" class="Wall External" fill="#000000" stroke="#000000" style="fill-opacity: 1; stroke-opacity: 1; stroke-width: 0.2;"><polygon points="139.26,1251.72 293.90,1251.72 293.90,1268.06 139.26,1268.06 "/></g><g id="Wall" class="Wall" fill="#000000" stroke="#000000" style="fill-opacity: 1; stroke-opacity: 1; stroke-width: 0.2;"><polygon points="324.03,1251.72 324.03,883.57 313.03,894.57 313.03,1251.72 "/><g id="Door" fill="#ffffff" stroke="#000000" style="fill-opacity: 1; stroke-width: 1; stroke-opacity: 1;" class="Door Swing Beside"><polygon points="324.03,1163.21 324.03,1083.97 313.03,1083.97 313.03,1163.21 "/><g id="Threshold" class="Threshold"><polygon points="324.03,1163.21 324.03,1083.97 313.03,1083.97 313.03,1163.21 "/></g><g id="Panel" fill="none" style="" class="Panel Right Negative"><g id="PanelArea" fill="none" stroke="none" style="" class="PanelArea"><polygon points="324.03,1163.21 324.03,1083.97 313.03,1083.97 313.03,1163.21 "/></g><path d="M324.03,1083.97 q79.24,0.00 79.24,79.24 l-79.24,0.00Z"/></g></g></g><g id="Wall" class="Wall" fill="#000000" stroke="#000000" style="fill-opacity: 1; stroke-opacity: 1; stroke-width: 0.2;"><polygon points="324.03,883.57 139.26,883.57 139.26,894.57 313.03,894.57 "/></g><g id="Wall" class="Wall" fill="#000000" stroke="#000000" style="fill-opacity: 1; stroke-opacity: 1; stroke-width: 0.2;"><polygon points="139.26,311.18 139.26,91.33 162.26,91.33 162.26,311.18 "/></g><g id="Wall" class="Wall" fill="#000000" stroke="#000000" style="fill-opacity: 1; stroke-opacity: 1; stroke-width: 0.2;"><polygon points="502.05,311.18 502.05,121.13 482.22,121.13 482.22,311.18 "/></g><g id="Railing" class="Railing" fill="#ffffff" stroke="#000000" style="fill-opacity: 1; stroke-opacity: 1; stroke-width: 0.2;"><polygon points="162.26,130.00 482.22,130.00 482.22,121.16 162.26,121.16 "/></g><g id="FixedFurnitureSet" transform="matrix(-1,0,0,-1,305.2395,1198.6463)" class="FixedFurnitureSet"><g class="FixedFurniture BaseCabinet" fill="#ffffff" stroke="#000000" transform="matrix(1,0,0,1,0,0)" style="fill-opacity: 1; stroke-opacity: 1;">
        <g class="BoundaryPolygon">
            <polygon points="0.00,0.00 49.82,0.00 49.82,38.44 0.00,38.44 "/>
        </g>
        <g class="Direction" fill-opacity="0.9" style="display: none;">
            <polygon points="26.58,35.36 26.58,24.74 23.57,24.74 23.57,35.36 19.76,35.36 25.07,40.16 30.37,35.36 26.58,35.36 " fill="#444444"/>
        </g> 
        <g class="Name" fill-opacity="0.9" style="display: none;">
            <text transform="translate(3 12)" font-size="12" font-family="Verdana, Sans-Serif">CB</text>
        </g>
        <desc>Width:60 Height:5 Depth:60 Elevation:105</desc>
    </g><g class="FixedFurniture Sink" fill="#ffffff" stroke="#000000" transform="matrix(1,0,0,1,0,0)" style="fill-opacity: 1; stroke-opacity: 1;">
        <g class="BoundaryPolygon" fill="none" stroke="none">
        <polygon points="0.00,0.00 49.82,0.00 49.82,38.44 0.00,38.44 "/>
        </g>
        <g class="InnerPolygon">
            <polygon points="4.15,9.70 45.67,9.70 45.67,35.04 4.15,35.04 "/>
        </g>
        <g class="OuterDrain" stroke-width="0.8">
            <circle cx="24.908917799224103" cy="20.62826963306" r="3.5"/>
        </g>
        <g class="InnerDrain" stroke-width="0.8">
            <circle cx="24.908917799224103" cy="20.62826963306" r="2"/>
        </g>
        <g class="Faucet">
            <polygon points="22.42,3.20 28.42,3.20 28.42,17.20 22.42,17.20 "/>
        </g>
        <g class="Direction" fill-opacity="0.9" style="display: none;">
            <polygon points="26.58,35.36 26.58,24.74 23.57,24.74 23.57,35.36 19.76,35.36 25.07,40.16 30.37,35.36 26.58,35.36 " fill="#444444"/>
        </g> 
        <g class="Name" fill-opacity="0.9" style="display: none;">
            <text transform="translate(3 12)" font-size="12" font-family="Verdana, Sans-Serif">SINK</text>
        </g>
        <desc>Width:60 Height:90 Depth:60 Elevation:0</desc>
    </g></g><g class="FixedFurniture Closet" fill="#ffffff" stroke="#000000" transform="matrix(-1,0,0,-1,214.3584,883.4432)" style="fill-opacity: 1; stroke-opacity: 1;">
        <g class="BoundaryPolygon">
            <polygon points="0.00,0.00 52.10,0.00 52.10,48.43 0.00,48.43 "/>
        </g>
        <g class="Direction" fill-opacity="0.9" style="display: none;">
            <polygon points="27.36,44.15 27.36,33.54 24.35,33.54 24.35,44.15 20.55,44.15 25.85,49.46 31.15,44.15 27.36,44.15 " fill="#444444"/>
        </g> 
        <g class="Name" fill-opacity="0.9" style="display: none;">
            <text transform="translate(3 12)" font-size="12" font-family="Verdana, Sans-Serif">CL</text>
        </g>
        <desc>Width:60 Height:200 Depth:60 Elevation:0</desc>
     </g><g class="FixedFurniture CoatCloset" fill="#ffffff" stroke="#000000" transform="matrix(-1,0,0,-1,324.1284,883.4745)" style="fill-opacity: 1; stroke-opacity: 1;">
        <g class="BoundaryPolygon">
            <polygon points="0.00,0.00 109.77,0.00 109.77,48.46 0.00,48.46 "/>
        </g>
        <g class="Hanger" fill="#ffffff" stroke="#9a9a9a" stroke-dasharray="5,5">
            <line x1="0" y1="24.228102668963018" x2="109.76727089767508" y2="24.228102668963018"/>
        </g>
        <g class="Direction" fill-opacity="0.9" style="display: none;">
            <polygon points="56.26,44.03 56.26,33.41 53.25,33.41 53.25,44.03 49.45,44.03 54.75,49.33 60.06,44.03 56.26,44.03 " fill="#444444"/>
        </g> 
        <g class="Name" fill-opacity="0.9" style="display: none;">
            <text transform="translate(3 12)" font-size="12" font-family="Verdana, Sans-Serif">CWH</text>
        </g>
        <desc>Width:120 Height:200 Depth:60 Elevation:0</desc>
     </g><g class="FixedFurniture SaunaBenchHigh" fill="#ffffff" stroke="#000000" transform="matrix(1,0,0,1,162.2583,894.787)" style="fill-opacity: 1; stroke-opacity: 1;">
        <g class="BoundaryPolygon">
            <polygon points="0.00,0.00 150.35,0.00 150.35,39.01 0.00,39.01 "/> 
        </g>
        <g class="Bench" stroke="#9a9a9a" stroke-width="0.5">
            <line x1="0" y1="2.6008494304685708" x2="150.3466934168747" y2="2.6008494304685708"/>
            <line x1="0" y1="5.2016988609371415" x2="150.3466934168747" y2="5.2016988609371415"/>
            <line x1="0" y1="7.8025482914057065" x2="150.3466934168747" y2="7.8025482914057065"/>
            <line x1="0" y1="10.403397721874283" x2="150.3466934168747" y2="10.403397721874283"/>
            <line x1="0" y1="13.004247152342856" x2="150.3466934168747" y2="13.004247152342856"/>
            <line x1="0" y1="15.605096582811413" x2="150.3466934168747" y2="15.605096582811413"/>
            <line x1="0" y1="18.205946013279988" x2="150.3466934168747" y2="18.205946013279988"/>
            <line x1="0" y1="20.806795443748566" x2="150.3466934168747" y2="20.806795443748566"/>
            <line x1="0" y1="23.407644874217137" x2="150.3466934168747" y2="23.407644874217137"/>
            <line x1="0" y1="26.008494304685712" x2="150.3466934168747" y2="26.008494304685712"/>
            <line x1="0" y1="28.60934373515427" x2="150.3466934168747" y2="28.60934373515427"/>
            <line x1="0" y1="31.210193165622826" x2="150.3466934168747" y2="31.210193165622826"/>
            <line x1="0" y1="33.8110425960914" x2="150.3466934168747" y2="33.8110425960914"/>
            <line x1="0" y1="36.411892026559975" x2="150.3466934168747" y2="36.411892026559975"/>
        </g>
         <g class="Direction" fill-opacity="0.9" style="display: none;">
            <polygon points="77.54,35.54 77.54,24.92 74.53,24.92 74.53,35.54 70.73,35.54 76.03,40.84 81.33,35.54 77.54,35.54 " fill="#444444"/>
        </g> 
        <g class="Name" fill-opacity="0.9" style="display: none;">
            <text transform="translate(3 12)" font-size="12" font-family="Verdana, Sans-Serif">SB_HIGH</text>
        </g>
        <desc>Width:185 Height:5 Depth:60 Elevation:105</desc>
    </g><g class="FixedFurniture SaunaBenchMid" fill="#ffffff" stroke="#000000" transform="matrix(1,0,0,1,162.2584,934.0185)" style="fill-opacity: 1; stroke-opacity: 1;">
        <g class="BoundaryPolygon">
            <polygon points="0.00,0.00 150.01,0.00 150.01,25.47 0.00,25.47 "/>
        </g>
        <g class="Bench" stroke="#9a9a9a" stroke-width="0.5">
            <line x1="0" y1="2.547071016092139" x2="150.00695511704032" y2="2.547071016092139"/>
            <line x1="0" y1="5.094142032184278" x2="150.00695511704032" y2="5.094142032184278"/>
            <line x1="0" y1="7.641213048276417" x2="150.00695511704032" y2="7.641213048276417"/>
            <line x1="0" y1="10.188284064368556" x2="150.00695511704032" y2="10.188284064368556"/>
            <line x1="0" y1="12.735355080460693" x2="150.00695511704032" y2="12.735355080460693"/>
            <line x1="0" y1="15.282426096552834" x2="150.00695511704032" y2="15.282426096552834"/>
            <line x1="0" y1="17.829497112644972" x2="150.00695511704032" y2="17.829497112644972"/>
            <line x1="0" y1="20.376568128737112" x2="150.00695511704032" y2="20.376568128737112"/>
            <line x1="0" y1="22.923639144829227" x2="150.00695511704032" y2="22.923639144829227"/>
        </g>
        <g class="Direction" fill-opacity="0.9" style="display: none;">
            <polygon points="76.23,22.07 76.23,11.45 73.22,11.45 73.22,22.07 69.42,22.07 74.72,27.37 80.02,22.07 76.23,22.07 " fill="#444444"/>
        </g> 
        <g class="Name" fill-opacity="0.9" style="display: none;">
            <text transform="translate(3 12)" font-size="12" font-family="Verdana, Sans-Serif">SB_MID</text>
        </g>
        <desc>Width:185 Height:5 Depth:40 Elevation:60</desc>
    </g><g class="FixedFurniture SaunaBenchLow" fill="#ffffff" stroke="#000000" transform="matrix(1,0,0,1,222.0258,959.7079)" style="fill-opacity: 1; stroke-opacity: 1;">
        <g class="BoundaryPolygon">
            <polygon points="0.00,0.00 58.39,0.00 58.39,27.84 0.00,27.84 "/>
        </g>
        <g class="Bench" stroke="#9a9a9a" stroke-width="0.5">
            <line x1="0" y1="2.7835943390538853" x2="58.38512321588225" y2="2.7835943390538853"/>
            <line x1="0" y1="5.567188678107771" x2="58.38512321588225" y2="5.567188678107771"/>
            <line x1="0" y1="8.35078301716165" x2="58.38512321588225" y2="8.35078301716165"/>
            <line x1="0" y1="11.134377356215541" x2="58.38512321588225" y2="11.134377356215541"/>
            <line x1="0" y1="13.91797169526942" x2="58.38512321588225" y2="13.91797169526942"/>
            <line x1="0" y1="16.7015660343233" x2="58.38512321588225" y2="16.7015660343233"/>
            <line x1="0" y1="19.48516037337719" x2="58.38512321588225" y2="19.48516037337719"/>
            <line x1="0" y1="22.268754712431083" x2="58.38512321588225" y2="22.268754712431083"/>
            <line x1="0" y1="25.052349051484953" x2="58.38512321588225" y2="25.052349051484953"/>
        </g>
        <g class="Direction" fill-opacity="0.9" style="display: none;">
            <polygon points="30.19,24.12 30.19,13.50 27.18,13.50 27.18,24.12 23.38,24.12 28.68,29.42 33.99,24.12 30.19,24.12 " fill="#444444"/>
        </g> 
        <g class="Name" fill-opacity="0.9" style="display: none;">
            <text transform="translate(3 12)" font-size="12" font-family="Verdana, Sans-Serif">SB_LOW</text>
        </g>
        <desc>Width:91 Height:5 Depth:40 Elevation:30</desc>
    </g><g class="FixedFurniture ShowerScreen" fill="#ffffff" stroke="#000000" transform="matrix(0,1,-1.3465,0,243.05,997.1101)" style="fill-opacity: 1; stroke-opacity: 1;">
        <g class="BoundaryPolygon">
            <polygon points="0,0 2.5,0 2.5,60 0,60"/>
        </g>
	    <g class="InnerPolygon" stroke-linejoin="round"> 
			<rect width="2.5" height="60"/>
	    </g> 
        <desc>Width:2.5 Height:180 Depth:60 Elevation:135</desc>
    </g><g class="FixedFurniture ElectricalAppliance SaunaStoveRound" fill="#ffffff" stroke="#000000" transform="matrix(-1,0,0,-0.6284,207.9055,990.1439)" style="fill-opacity: 1; stroke-opacity: 1;"> 
	   <g class="BoundaryPolygon" fill="none" stroke="none"> 
           <polygon points="0,0 40,0 40,40 0,40"/>
		</g>
        <g class="InnerCircle"> 
           <circle cx="20.5" cy="20.5" r="20"/>
		</g>
	    <g class="electricitySign" fill="none">
		    <polyline points="2.5 30.5 30.5 20.5 10.5 20.5 38.5 10.5"/>
		</g>
        <g class="Name" fill-opacity="0.9" style="display: none;">
            <text transform="translate(10 12)" font-size="12" font-family="Verdana, Sans-Serif">SS</text>
        </g>
        <desc>Width:60 Height:60 Depth:35 Elevation:20</desc>
	</g><g class="FixedFurniture ShowerScreen" fill="#ffffff" stroke="#000000" transform="matrix(0,1,-1.3077,0,313.03,993.7533)" style="fill-opacity: 1; stroke-opacity: 1;">
        <g class="BoundaryPolygon">
            <polygon points="0,0 2.5,0 2.5,60 0,60"/>
        </g>
	    <g class="InnerPolygon" stroke-linejoin="round"> 
			<rect width="2.5" height="60"/>
	    </g> 
        <desc>Width:2.5 Height:180 Depth:60 Elevation:135</desc>
    </g><g class="FixedFurniture Toilet" fill="#ffffff" stroke="#000000" transform="matrix(0,-1,1,0,162.2584,1144.7631)" style="fill-opacity: 1; stroke-opacity: 1;">
	   <g class="BoundaryPolygon" fill="none" stroke="none"> 
            <polygon points="0,0 41,0 41,71 0,71"/>
		</g>
        <g class="InnerPolygon">
            <rect x="0.502" y="0.5" width="39.989" height="17.98"/>
            <path d="M40.491,44.237S41.619,70.5,20.907,70.5C-.523,70.5.6,44.237.6,44.237L.5,18.48H40.491Z"/>
            <rect x="17.318" y="7.975" width="6.357" height="3.03"/>
        </g>
        <desc>Width:41 Height:85 Depth:71 Elevation:0</desc>
    </g><g class="FixedFurniture Closet" fill="#ffffff" stroke="#000000" transform="matrix(0,-1,1,0,162.2584,1198.6463)" style="fill-opacity: 1; stroke-opacity: 1;">
        <g class="BoundaryPolygon">
            <polygon points="0.00,0.00 31.85,0.00 31.85,43.23 0.00,43.23 "/>
        </g>
        <g class="Direction" fill-opacity="0.9" style="display: none;">
            <polygon points="16.73,39.41 16.73,28.79 13.72,28.79 13.72,39.41 9.91,39.41 15.22,44.71 20.52,39.41 16.73,39.41 " fill="#444444"/>
        </g> 
        <g class="Name" fill-opacity="0.9" style="display: none;">
            <text transform="translate(3 12)" font-size="12" font-family="Verdana, Sans-Serif">CL</text>
        </g>
        <desc>Width:60 Height:200 Depth:60 Elevation:0</desc>
     </g><g class="FixedFurniture Closet" fill="#ffffff" stroke="#000000" transform="matrix(0,1,-1,0,482.0547,1181.6966)" style="fill-opacity: 1; stroke-opacity: 1;">
        <g class="BoundaryPolygon">
            <polygon points="0.00,0.00 50.02,0.00 50.02,58.84 0.00,58.84 "/>
        </g>
        <g class="Direction" fill-opacity="0.9" style="display: none;">
            <polygon points="26.27,53.64 26.27,43.02 23.26,43.02 23.26,53.64 19.46,53.64 24.76,58.94 30.06,53.64 26.27,53.64 " fill="#444444"/>
        </g> 
        <g class="Name" fill-opacity="0.9" style="display: none;">
            <text transform="translate(3 12)" font-size="12" font-family="Verdana, Sans-Serif">CL</text>
        </g>
        <desc>Width:60 Height:200 Depth:60 Elevation:0</desc>
     </g><g class="FixedFurniture CoatCloset" fill="#ffffff" stroke="#000000" transform="matrix(0,1,-1,0,482.0547,1043.6145)" style="fill-opacity: 1; stroke-opacity: 1;">
        <g class="BoundaryPolygon">
            <polygon points="0.00,0.00 138.08,0.00 138.08,58.84 0.00,58.84 "/>
        </g>
        <g class="Hanger" fill="#ffffff" stroke="#9a9a9a" stroke-dasharray="5,5">
            <line x1="0" y1="29.419264682673656" x2="138.08208069420678" y2="29.419264682673656"/>
        </g>
        <g class="Direction" fill-opacity="0.9" style="display: none;">
            <polygon points="70.78,53.46 70.78,42.84 67.77,42.84 67.77,53.46 63.97,53.46 69.27,58.76 74.57,53.46 70.78,53.46 " fill="#444444"/>
        </g> 
        <g class="Name" fill-opacity="0.9" style="display: none;">
            <text transform="translate(3 12)" font-size="12" font-family="Verdana, Sans-Serif">CWH</text>
        </g>
        <desc>Width:120 Height:200 Depth:60 Elevation:0</desc>
     </g><g class="FixedFurniture ElectricalAppliance Refrigerator" fill="#ffffff" stroke="#000000" transform="matrix(0,0.8324,-0.9769,0,481.841,993.6705)" style="fill-opacity: 1; stroke-opacity: 1;">
        <g class="BoundaryPolygon">
            <polygon points="0,0 60,0 60,60 0,60"/>
        </g>
        <g class="electricitySign" fill="none">
            <path d="M0,0,30,37.1v-18L60,56.3"/>
        </g>
        <g class="Doors">
            <rect y="56" width="60" height="4"/>
        </g>
        <g class="Direction" fill-opacity="0.9" style="display: none;">
            <polygon points="32.009 55.197 32.009 44.581 29 44.581 29 55.197 25.197 55.197 30.5 60 35.803 55.197 32.009 55.197" fill="#444444"/>
        </g> 
        <g class="Name" fill-opacity="0.9" style="display: none;">
            <text transform="translate(3 12)" font-size="12" font-family="Verdana, Sans-Serif">REF</text>
        </g>
        <desc>Width:60 Height:170 Depth:60 Elevation:0</desc>
    </g><g class="FixedFurniture BaseCabinet" fill="#ffffff" stroke="#000000" transform="matrix(0,1,-1,0,481.9296,833.8106)" style="fill-opacity: 1; stroke-opacity: 1;">
        <g class="BoundaryPolygon">
            <polygon points="0.00,0.00 159.86,0.00 159.86,58.96 0.00,58.96 "/>
        </g>
        <g class="Direction" fill-opacity="0.9" style="display: none;">
            <polygon points="85.29,54.24 85.29,43.63 82.28,43.63 82.28,54.24 78.47,54.24 83.78,59.05 89.08,54.24 85.29,54.24 " fill="#444444"/>
        </g> 
        <g class="Name" fill-opacity="0.9" style="display: none;">
            <text transform="translate(3 12)" font-size="12" font-family="Verdana, Sans-Serif">CB</text>
        </g>
        <desc>Width:60 Height:90 Depth:60 Elevation:0</desc>
    </g><g class="FixedFurniture ElectricalAppliance IntegratedStove" fill="#ffffff" stroke="#000000" transform="matrix(0,1,-1,0,482.9677,862.3059)" style="fill-opacity: 1; stroke-opacity: 1;">
        <g class="BoundaryPolygon" fill="none" stroke="none">
            <polygon points="0.00,0.00 53.43,0.00 53.43,60.00 0.00,60.00 "/>
        </g>
        <g class="InnerPolygon">
            <polygon points="2.00,2.00 51.65,2.00 51.65,58.00 2.00,58.00 "/>
        </g>
        <g class="OuterCircle">
            <circle cx="14.248611759188913" cy="16" r="8"/>
            <circle cx="39.18368233776949" cy="16" r="8"/>
            <circle cx="14.248611759188913" cy="44" r="8"/>
            <circle cx="39.18368233776949" cy="44" r="8"/>
        </g>
        <g class="Direction" fill-opacity="0.9" style="display: none;">
            <polygon points="28.51,55.20 28.51,44.58 25.50,44.58 25.50,55.20 21.69,55.20 27.00,60.00 32.30,55.20 28.51,55.20 " fill="#444444"/>
        </g> 
        <g class="Name" fill-opacity="0.9" style="display: none;">
            <text transform="translate(3 12)" font-size="12" font-family="Verdana, Sans-Serif">INT_STOVE</text>
        </g>
        <desc>Width:60 Height:90 Depth:30 Elevation:0</desc>
    </g><g class="FixedFurniture Sink" fill="#ffffff" stroke="#000000" transform="matrix(0,1,-1,0,481.9297,915.7382)" style="fill-opacity: 1; stroke-opacity: 1;">
        <g class="BoundaryPolygon" fill="none" stroke="none">
            <polygon points="0.00,0.00 35.73,0.00 35.73,51.35 0.00,51.35 "/>
        </g>
        <g class="InnerPolygon">
            <polygon points="2.98,9.70 32.75,9.70 32.75,46.81 2.98,46.81 "/>
        </g>
        <g class="OuterDrain" stroke-width="0.8">
            <circle cx="17.8636498878409" cy="27.557404530899646" r="3.5"/>
        </g>
        <g class="InnerDrain" stroke-width="0.8">
            <circle cx="17.8636498878409" cy="27.557404530899646" r="2"/>
        </g>
        <g class="Faucet">
            <polygon points="16.08,4.28 22.08,4.28 22.08,18.28 16.08,18.28 "/>
        </g>
        <g class="Direction" fill-opacity="0.9" style="display: none;">
            <polygon points="19.06,47.24 19.06,36.62 16.05,36.62 16.05,47.24 12.25,47.24 17.55,52.04 22.85,47.24 19.06,47.24 " fill="#444444"/>
        </g> 
        <g class="Name" fill-opacity="0.9" style="display: none;">
            <text transform="translate(3 12)" font-size="12" font-family="Verdana, Sans-Serif">SINK</text>
        </g>
        <desc>Width:60 Height:90 Depth:60 Elevation:0</desc>
    </g><g class="FixedFurniture ElectricalAppliance Dishwasher" fill="#ffffff" stroke="#000000" transform="matrix(0,0.6244,-0.948,0,481.8407,951.4655)" style="fill-opacity: 1; stroke-opacity: 1;"> 
        <g class="BoundaryPolygon"> 
		    <polygon points="0,0 60,0 60,60 0,60"/>
		</g>
	    <g class="electricitySign" fill="none">
            <path d="M0,0,30,38.9v-20L60,60"/>
	    </g>
	    <g class="Handle"> 
		    <path d="M10,59.6H49.8"/>
		</g>
        <g class="Direction" fill-opacity="0.9" style="display: none;">
            <polygon points="32.009 55.197 32.009 44.581 29 44.581 29 55.197 25.197 55.197 30.5 60 35.803 55.197 32.009 55.197" fill="#444444"/>
        </g> 
        <g class="Name" fill-opacity="0.9" style="display: none;">
            <text transform="translate(3 12)" font-size="12" font-family="Verdana, Sans-Serif">DW</text>
        </g>
        <desc>Width:60 Height:90 Depth:60 Elevation:0</desc>
	</g><g class="FixedFurniture WallCabinet" fill="#ffffff" stroke="#000000" transform="matrix(0,1,-1,0,481.8984,833.8106)" style="fill-opacity: 0.7; stroke-opacity: 1;">	
        <g class="BoundaryPolygon">
            <polygon points="0.00,0.00 159.81,0.00 159.81,30.00 0.00,30.00 "/>
        </g>
        <g class="Direction" fill-opacity="0.9" style="display: none;">
            <polygon points="85.26,25.20 85.26,14.58 82.25,14.58 82.25,25.20 78.44,25.20 83.75,30.00 89.05,25.20 85.26,25.20 " fill="#444444"/>
        </g> 
        <g class="Name" fill-opacity="0.9" style="display: none;">
            <text transform="translate(3 12)" font-size="12" font-family="Verdana, Sans-Serif">UC</text>
        </g>
        <desc>Width:60 Height:60 Depth:30 Elevation:140</desc>
    </g><g transform="matrix(1,0,0,1,206.6884,171.5797)" class="FixedFurniture Misc" fill="none" stroke="#000000" style="fill-opacity: 1; stroke-opacity: 1; stroke-width: 1.8; stroke-dasharray: 5, 5;"><desc>Width:120 Height:200 Depth:60 Elevation:0</desc><g class="BoundaryPolygon"><path d="M0.00,0.00 L71.56,0.00 L71.56,69.18 L0.38,69.18 L0.00,0.00 "/></g></g><g class="FixedFurniture Shower" fill="#ffffff" stroke="#000000" transform="matrix(0,-1,1,0,162.26,1067.5921)" style="fill-opacity: 1; stroke-opacity: 1;"> 
	    <g class="BoundaryPolygon" fill="none" stroke="none">
            <polygon points="0,0 32,0 32,19 0,19"/>
        </g>
        <g class="InnerPolygon"> 
			<rect x="3.7" y="0.5" width="11.2" height="6.1"/>
			<rect x="17.6" y="0.5" width="11.2" height="6.1"/>
			<rect x="28.7" y="0.5" width="3.4" height="6.1"/>
			<rect x="0.5" y="0.5" width="3.2" height="6.1"/>
			<path d="M14.9,8.5c0,1.5-0.4,3.3-1.6,5    c-0.4,0.6-1,1.1-1.1,1.7c-0.2,1.1,0.3,2.8,2.5,3.2c0.5,0.1,1.3,0.1,1.6,0.1h-0.1c0.3,0,1.1,0,1.6-0.1c2.2-0.4,2.7-2.1,2.5-3.2    c-0.1-0.6-0.7-1.1-1.1-1.7c-1.2-1.7-1.6-3.5-1.6-5"/>
			<path d="M12.2,15.3c0.1,0.2,1.6,1.9,4.2,1.9 c2.4-0.1,3.7-1.7,3.9-1.9"/>
			<path d="M14.9,0.5h2.7v8c-0.9,0-1.8,0-2.7,0l0,0 C14.9,5.9,14.9,3.2,14.9,0.5z"/>
		</g>
	    <g class="Indicator"> 
			<path d="M3.7,3.6C5,3.1,5.2,3,5.2,3 c0,1.1,0,0,0,1.1C5.2,4.1,5.1,4.1,3.7,3.6"/>
			<path d="M28.7,3.6 C27.4,3.1,27.2,3,27.2,3c0,1.1,0,0,0,1.1C27.2,4.1,27.3,4.1,28.7,3.6"/>	
		</g>
        <desc>Width:32 Height:97 Depth:19 Elevation:135</desc>
	</g></g></g></g></svg>
