<?xml version="1.0"?>
<svg xmlns="http://www.w3.org/2000/svg" xmlns:xlink="http://www.w3.org/1999/xlink" height="769.2479705810547" version="1.1" width="732.0611572265625" id="temp" viewBox="0 0 732.0611572265625 769.2479705810547"><defs/><g id="Model" class="Model v1-1"><g class="Floor"><g id="Floor-1" class="Floorplan Floor-1"><g id="27ecb76d-c1d3-4e66-8785-3ea227495ba4" class="Space Entry Lobby" fill="#ffffff" stroke="#ffffff" style="fill-opacity: 1; stroke-opacity: 1; stroke-width: 0.2;"><polygon points="437.92,604.03 428.25,604.20 318.85,604.20 318.85,579.58 182.38,579.58 182.38,542.34 66.25,542.34 66.25,445.44 438.07,445.44 "/><g transform="matrix(1,0,0,1,66.2546,445.4389)" class="Dimension"><g style="display: none;" class="Visual" transform="matrix(1,0,0,1,0,0)"><g id="mark1" fill="#000000" stroke="none" transform="matrix(1,0,0,1,185.9081,0)" style="fill-opacity: 1; pointer-events: visible;" class="DimensionMark"><polygon points="-5,5,0,0,5,5"/></g><g id="mark2" fill="#000000" stroke="none" transform="matrix(1,0,0,1,371.7404,79.3788)" style="fill-opacity: 1; pointer-events: visible;" class="DimensionMark"><polygon points="-5,-5,0,0,-5,5"/></g><g id="mark3" fill="#000000" stroke="none" transform="matrix(1,0,0,1,185.9081,134.1427)" style="fill-opacity: 1; pointer-events: visible;" class="DimensionMark"><polygon points="-5,-5,0,0,5,-5"/></g><g id="mark4" fill="#000000" stroke="none" transform="matrix(1,0,0,1,0,79.3788)" style="fill-opacity: 1; pointer-events: visible;" class="DimensionMark"><polygon points="5,5,0,0,5,-5"/></g></g><g transform="matrix(1,0,0,1,172.6002,82.4109)" class="SpaceDimensionsLabel" style="display: block;"><g id="NameLabel" style="display: block;" class="TextLabel NameLabel"><text x="0" y="0em" fill="#000000" stroke="none" style="font-family: Verdana; font-size: 33px; fill-opacity: 1; cursor: default;">ET</text></g><g id="DimensionMeasureLabel" style="display: none;" class="TextLabel DimensionMeasureLabel" transform="matrix(1,0,0,1,-119.336,79.4687)"><text x="42.1875" y="-1.2em" fill="#000000" stroke="none" style="font-family: Verdana; font-size: 33px; fill-opacity: 1; cursor: default;">12'2" x 4'5"</text><text x="0" y="0em" fill="#000000" stroke="none" style="font-family: Verdana; font-size: 33px; fill-opacity: 1; cursor: default;">3.72 m x 1.34 m</text></g></g></g></g><g id="e97f4f70-28d8-4df2-a895-cd2b358957fc" class="Space Undefined" fill="#ffffff" stroke="#ffffff" style="fill-opacity: 1; stroke-opacity: 1; stroke-width: 0.2;"><polygon points="448.07,604.00 448.00,604.00 448.07,445.45 "/><g transform="matrix(1,0,0,1,448.0354,445.4484)" class="Dimension"><g style="display: none;" class="Visual" transform="matrix(1,0,0,1,0,0)"><g id="mark1" fill="#000000" stroke="none" transform="matrix(1,0,0,1,0.0354,0)" style="fill-opacity: 1; pointer-events: visible;" class="DimensionMark"><polygon points="-5,5,0,0,5,5"/></g><g id="mark2" fill="#000000" stroke="none" transform="matrix(1,0,0,1,0.0354,79.2758)" style="fill-opacity: 1; pointer-events: visible;" class="DimensionMark"><polygon points="-5,-5,0,0,-5,5"/></g><g id="mark3" fill="#000000" stroke="none" transform="matrix(1,0,0,1,0.0354,158.5516)" style="fill-opacity: 1; pointer-events: visible;" class="DimensionMark"><polygon points="-5,-5,0,0,5,-5"/></g><g id="mark4" fill="#000000" stroke="none" transform="matrix(1,0,0,1,0,79.2758)" style="fill-opacity: 1; pointer-events: visible;" class="DimensionMark"><polygon points="5,5,0,0,5,-5"/></g></g><g transform="matrix(1,0,0,1,0,158.5086)" class="SpaceDimensionsLabel"><g id="NameLabel" style="display: block;" class="TextLabel NameLabel"><text x="0" y="0em" fill="#000000" stroke="none" style="font-family: Verdana; font-size: 33px; fill-opacity: 1; cursor: default;">UNDEFINED</text></g><g id="DimensionMeasureLabel" style="display: none;" class="TextLabel DimensionMeasureLabel" transform="matrix(1,0,0,1,-40.5235,79.7031)"><text x="52.671875" y="-1.2em" fill="#000000" stroke="none" style="font-family: Verdana; font-size: 33px; fill-opacity: 1; cursor: default;">0'0" x 5'2"</text><text x="0" y="0em" fill="#000000" stroke="none" style="font-family: Verdana; font-size: 33px; fill-opacity: 1; cursor: default;">0.00 m x 1.59 m</text></g></g></g></g><g id="75112245-c0e2-437f-8fdb-3b009cc9eb66" class="Space Bath" fill="#ffffff" stroke="#ffffff" style="fill-opacity: 1; stroke-opacity: 1; stroke-width: 0.2;"><polygon points="577.85,601.58 448.07,604.00 448.07,445.44 577.85,445.44 "/><g transform="matrix(1,0,0,1,448.0708,445.4389)" class="Dimension"><g style="display: none;" class="Visual" transform="matrix(1,0,0,1,0,0)"><g id="mark1" fill="#000000" stroke="none" transform="matrix(1,0,0,1,64.8646,0)" style="fill-opacity: 1; pointer-events: visible;" class="DimensionMark"><polygon points="-5,5,0,0,5,5"/></g><g id="mark2" fill="#000000" stroke="none" transform="matrix(1,0,0,1,129.7742,79.2806)" style="fill-opacity: 1; pointer-events: visible;" class="DimensionMark"><polygon points="-5,-5,0,0,-5,5"/></g><g id="mark3" fill="#000000" stroke="none" transform="matrix(1,0,0,1,64.8646,157.3524)" style="fill-opacity: 1; pointer-events: visible;" class="DimensionMark"><polygon points="-5,-5,0,0,5,-5"/></g><g id="mark4" fill="#000000" stroke="none" transform="matrix(1,0,0,1,0,79.2806)" style="fill-opacity: 1; pointer-events: visible;" class="DimensionMark"><polygon points="5,5,0,0,5,-5"/></g></g><g transform="matrix(1,0,0,1,31.1822,93.9592)" class="SpaceDimensionsLabel" style="display: block;"><g id="NameLabel" style="display: block;" class="TextLabel NameLabel"><text x="0" y="0em" fill="#000000" stroke="none" style="font-family: Verdana; font-size: 33px; fill-opacity: 1; cursor: default;">KPH</text></g><g id="DimensionMeasureLabel" style="display: none;" class="TextLabel DimensionMeasureLabel" transform="matrix(1,0,0,1,-106.2188,80.0781)"><text x="52.671875" y="-1.2em" fill="#000000" stroke="none" style="font-family: Verdana; font-size: 33px; fill-opacity: 1; cursor: default;">4'3" x 5'2"</text><text x="0" y="0em" fill="#000000" stroke="none" style="font-family: Verdana; font-size: 33px; fill-opacity: 1; cursor: default;">1.30 m x 1.57 m</text></g></g></g></g><g id="f66aacfb-ffed-4949-ab70-872816868584" fill="#ffffff" stroke="#ffffff" style="fill-opacity: 1; stroke-opacity: 1; stroke-width: 0.2;" class="Space Room"><polygon points="53.25,542.34 -229.70,542.34 -229.70,79.03 53.25,79.03 "/><g transform="matrix(1,0,0,1,-229.6977,79.0278)" class="Dimension"><g style="display: none;" class="Visual" transform="matrix(1,0,0,1,0,0)"><g id="mark1" fill="#000000" stroke="none" transform="matrix(1,0,0,1,141.4762,0)" style="fill-opacity: 1; pointer-events: visible;" class="DimensionMark"><polygon points="-5,5,0,0,5,5"/></g><g id="mark2" fill="#000000" stroke="none" transform="matrix(1,0,0,1,282.9523,231.6568)" style="fill-opacity: 1; pointer-events: visible;" class="DimensionMark"><polygon points="-5,-5,0,0,-5,5"/></g><g id="mark3" fill="#000000" stroke="none" transform="matrix(1,0,0,1,141.4762,463.3136)" style="fill-opacity: 1; pointer-events: visible;" class="DimensionMark"><polygon points="-5,-5,0,0,5,-5"/></g><g id="mark4" fill="#000000" stroke="none" transform="matrix(1,0,0,1,0,231.6568)" style="fill-opacity: 1; pointer-events: visible;" class="DimensionMark"><polygon points="5,5,0,0,5,-5"/></g></g><g transform="matrix(1,0,0,1,129.1064,248.5052)" class="SpaceDimensionsLabel" style="display: block;"><g id="NameLabel" style="display: block;" class="TextLabel NameLabel"><text x="0" y="0em" fill="#000000" stroke="none" style="font-family: Verdana; font-size: 33px; fill-opacity: 1; cursor: default;">H</text></g><g id="DimensionMeasureLabel" style="display: none;" class="TextLabel DimensionMeasureLabel" transform="matrix(1,0,0,1,-127.5703,80.0156)"><text x="42.171875" y="-1.2em" fill="#000000" stroke="none" style="font-family: Verdana; font-size: 33px; fill-opacity: 1; cursor: default;">9'3" x 15'2"</text><text x="0" y="0em" fill="#000000" stroke="none" style="font-family: Verdana; font-size: 33px; fill-opacity: 1; cursor: default;">2.83 m x 4.63 m</text></g></g></g></g><g id="13b67a7a-84b3-486c-8268-a250f1a27418" fill="#ffffff" stroke="#ffffff" style="fill-opacity: 1; stroke-opacity: 1; stroke-width: 0.2;" class="Space Room"><polygon points="338.13,435.44 127.56,435.44 127.56,356.56 66.25,356.56 66.25,79.03 197.38,79.03 197.38,63.34 338.13,63.34 "/><g transform="matrix(1,0,0,1,66.2546,63.3404)" class="Dimension"><g style="display: none;" class="Visual" transform="matrix(1,0,0,1,0,0)"><g id="mark1" fill="#000000" stroke="none" transform="matrix(1,0,0,1,135.9355,0)" style="fill-opacity: 1; pointer-events: visible;" class="DimensionMark"><polygon points="-5,5,0,0,5,5"/></g><g id="mark2" fill="#000000" stroke="none" transform="matrix(1,0,0,1,271.871,186.0492)" style="fill-opacity: 1; pointer-events: visible;" class="DimensionMark"><polygon points="-5,-5,0,0,-5,5"/></g><g id="mark3" fill="#000000" stroke="none" transform="matrix(1,0,0,1,135.9355,372.0984)" style="fill-opacity: 1; pointer-events: visible;" class="DimensionMark"><polygon points="-5,-5,0,0,5,-5"/></g><g id="mark4" fill="#000000" stroke="none" transform="matrix(1,0,0,1,0,186.0492)" style="fill-opacity: 1; pointer-events: visible;" class="DimensionMark"><polygon points="5,5,0,0,5,-5"/></g></g><g transform="matrix(1,0,0,1,126.111,203.9007)" class="SpaceDimensionsLabel" style="display: block;"><g id="NameLabel" style="display: block;" class="TextLabel NameLabel"><text x="0" y="0em" fill="#000000" stroke="none" style="font-family: Verdana; font-size: 33px; fill-opacity: 1; cursor: default;">H</text></g><g id="DimensionMeasureLabel" style="display: none;" class="TextLabel DimensionMeasureLabel" transform="matrix(1,0,0,1,-127.5703,80.0156)"><text x="31.6875" y="-1.2em" fill="#000000" stroke="none" style="font-family: Verdana; font-size: 33px; fill-opacity: 1; cursor: default;">8'11" x 12'2"</text><text x="0" y="0em" fill="#000000" stroke="none" style="font-family: Verdana; font-size: 33px; fill-opacity: 1; cursor: default;">2.72 m x 3.72 m</text></g></g></g></g><g id="0c036147-86d0-4a8a-bd48-bfeb44516bdc" fill="#ffffff" stroke="#ffffff" style="fill-opacity: 1; stroke-opacity: 1; stroke-width: 0.2;" class="Space Kitchen"><polygon points="565.94,79.03 577.85,79.03 577.85,435.44 349.13,435.44 349.13,79.03 427.30,79.03 427.30,63.59 565.94,63.59 "/><g transform="matrix(1,0,0,1,349.1256,63.5935)" class="Dimension"><g style="display: none;" class="Visual" transform="matrix(1,0,0,1,0,0)"><g id="mark1" fill="#000000" stroke="none" transform="matrix(1,0,0,1,114.3597,0)" style="fill-opacity: 1; pointer-events: visible;" class="DimensionMark"><polygon points="-5,5,0,0,5,5"/></g><g id="mark2" fill="#000000" stroke="none" transform="matrix(1,0,0,1,228.7194,185.9227)" style="fill-opacity: 1; pointer-events: visible;" class="DimensionMark"><polygon points="-5,-5,0,0,-5,5"/></g><g id="mark3" fill="#000000" stroke="none" transform="matrix(1,0,0,1,114.3597,371.8453)" style="fill-opacity: 1; pointer-events: visible;" class="DimensionMark"><polygon points="-5,-5,0,0,5,-5"/></g><g id="mark4" fill="#000000" stroke="none" transform="matrix(1,0,0,1,0,185.9227)" style="fill-opacity: 1; pointer-events: visible;" class="DimensionMark"><polygon points="5,5,0,0,5,-5"/></g></g><g transform="matrix(1,0,0,1,16.8305,203.3095)" class="SpaceDimensionsLabel" style="display: block;"><g id="NameLabel" style="display: block;" class="TextLabel NameLabel"><text x="0" y="0em" fill="#000000" stroke="none" style="font-family: Verdana; font-size: 33px; fill-opacity: 1; cursor: default;">KEITTI&#xD6;</text></g><g id="DimensionMeasureLabel" style="display: none;" class="TextLabel DimensionMeasureLabel" transform="matrix(1,0,0,1,-70.9297,79.7031)"><text x="42.1796875" y="-1.2em" fill="#000000" stroke="none" style="font-family: Verdana; font-size: 33px; fill-opacity: 1; cursor: default;">7'6" x 12'2"</text><text x="0" y="0em" fill="#000000" stroke="none" style="font-family: Verdana; font-size: 33px; fill-opacity: 1; cursor: default;">2.29 m x 3.72 m</text></g></g></g></g><g id="9971747d-fdc4-4cea-a1d4-8b17692519ac" fill="#ffffff" stroke="#ffffff" style="fill-opacity: 1; stroke-opacity: 1; stroke-width: 0.2;" class="Space Undefined"><polygon points="176.38,579.58 82.64,579.58 82.64,550.34 176.38,550.34 "/><g transform="matrix(1,0,0,1,82.6368,550.3414)" class="Dimension"><g style="display: none;" class="Visual" transform="matrix(1,0,0,1,0,0)"><g id="mark1" fill="#000000" stroke="none" transform="matrix(1,0,0,1,46.8692,0)" style="fill-opacity: 1; pointer-events: visible;" class="DimensionMark"><polygon points="-5,5,0,0,5,5"/></g><g id="mark2" fill="#000000" stroke="none" transform="matrix(1,0,0,1,93.7384,14.6201)" style="fill-opacity: 1; pointer-events: visible;" class="DimensionMark"><polygon points="-5,-5,0,0,-5,5"/></g><g id="mark3" fill="#000000" stroke="none" transform="matrix(1,0,0,1,46.8692,29.2402)" style="fill-opacity: 1; pointer-events: visible;" class="DimensionMark"><polygon points="-5,-5,0,0,5,-5"/></g><g id="mark4" fill="#000000" stroke="none" transform="matrix(1,0,0,1,0,14.6201)" style="fill-opacity: 1; pointer-events: visible;" class="DimensionMark"><polygon points="5,5,0,0,5,-5"/></g></g><g transform="matrix(1,0,0,1,14.6201,14.6201)" class="SpaceDimensionsLabel"><g id="NameLabel" style="display: block;" class="TextLabel NameLabel"><text x="0" y="0em" fill="#000000" stroke="none" style="font-family: Verdana; font-size: 33px; fill-opacity: 1; cursor: default;">UNDEFINED</text></g><g id="DimensionMeasureLabel" style="display: none;" class="TextLabel DimensionMeasureLabel" transform="matrix(1,0,0,1,-40.5156,80.0156)"><text x="52.6640625" y="-1.2em" fill="#000000" stroke="none" style="font-family: Verdana; font-size: 33px; fill-opacity: 1; cursor: default;">3'1" x 1'0"</text><text x="0" y="0em" fill="#000000" stroke="none" style="font-family: Verdana; font-size: 33px; fill-opacity: 1; cursor: default;">0.94 m x 0.29 m</text></g></g></g></g><g id="ebb42ac4-4fa3-436d-8ece-16f7c68869a0" fill="#ffffff" stroke="#ffffff" style="fill-opacity: 1; stroke-opacity: 1; stroke-width: 0.2;" class="Space Undefined"><polygon points="119.56,435.44 66.25,435.44 66.25,364.56 119.56,364.56 "/><g transform="matrix(1,0,0,1,66.2546,364.5587)" class="Dimension"><g style="display: none;" class="Visual" transform="matrix(1,0,0,1,0,0)"><g id="mark1" fill="#000000" stroke="none" transform="matrix(1,0,0,1,26.6551,0)" style="fill-opacity: 1; pointer-events: visible;" class="DimensionMark"><polygon points="-5,5,0,0,5,5"/></g><g id="mark2" fill="#000000" stroke="none" transform="matrix(1,0,0,1,53.3101,35.4401)" style="fill-opacity: 1; pointer-events: visible;" class="DimensionMark"><polygon points="-5,-5,0,0,-5,5"/></g><g id="mark3" fill="#000000" stroke="none" transform="matrix(1,0,0,1,26.6551,70.8801)" style="fill-opacity: 1; pointer-events: visible;" class="DimensionMark"><polygon points="-5,-5,0,0,5,-5"/></g><g id="mark4" fill="#000000" stroke="none" transform="matrix(1,0,0,1,0,35.4401)" style="fill-opacity: 1; pointer-events: visible;" class="DimensionMark"><polygon points="5,5,0,0,5,-5"/></g></g><g transform="matrix(1,0,0,1,26.655,26.655)" class="SpaceDimensionsLabel"><g id="NameLabel" style="display: block;" class="TextLabel NameLabel"><text x="0" y="0em" fill="#000000" stroke="none" style="font-family: Verdana; font-size: 33px; fill-opacity: 1; cursor: default;">UNDEFINED</text></g><g id="DimensionMeasureLabel" style="display: none;" class="TextLabel DimensionMeasureLabel" transform="matrix(1,0,0,1,-40.5156,80.0156)"><text x="52.6640625" y="-1.2em" fill="#000000" stroke="none" style="font-family: Verdana; font-size: 33px; fill-opacity: 1; cursor: default;">1'9" x 2'4"</text><text x="0" y="0em" fill="#000000" stroke="none" style="font-family: Verdana; font-size: 33px; fill-opacity: 1; cursor: default;">0.53 m x 0.71 m</text></g></g></g></g><g id="Wall" fill="#000000" stroke="#000000" style="fill-opacity: 1; stroke-opacity: 1; stroke-width: 0.2;" class="Wall External"><polygon points="428.25,604.20 318.85,604.20 289.85,622.20 428.25,622.20 "/><g id="Door" fill="#ffffff" stroke="#000000" style="fill-opacity: 1; stroke-width: 1; stroke-opacity: 1;" class="Door Swing Beside"><polygon points="423.31,604.20 334.69,604.20 334.69,622.20 423.31,622.20 "/><g id="Threshold" class="Threshold"><polygon points="423.31,604.20 334.69,604.20 334.69,622.20 423.31,622.20 "/></g><g id="Panel" fill="none" style="" class="Panel Right Negative"><g id="PanelArea" fill="none" stroke="none" style="" class="PanelArea"><polygon points="423.31,604.20 334.69,604.20 334.69,622.20 423.31,622.20 "/></g><path d="M334.69,604.20 q0.00,-88.62 88.62,-88.62 l0.00,88.62Z"/></g></g></g><g id="Wall" fill="#000000" stroke="#000000" style="fill-opacity: 1; stroke-opacity: 1; stroke-width: 0.2;" class="Wall External"><polygon points="318.85,604.20 318.85,579.58 289.85,601.58 289.85,622.20 "/></g><g id="Wall" fill="#000000" stroke="#000000" style="fill-opacity: 1; stroke-opacity: 1; stroke-width: 0.2;" class="Wall External"><polygon points="318.85,579.58 82.64,579.58 69.64,601.58 289.85,601.58 "/></g><g id="Wall" fill="#000000" stroke="#000000" style="fill-opacity: 1; stroke-opacity: 1; stroke-width: 0.2;" class="Wall External"><polygon points="82.64,579.58 82.64,542.34 69.64,551.34 69.64,601.58 "/></g><g id="Wall" fill="#000000" stroke="#000000" style="fill-opacity: 1; stroke-opacity: 1; stroke-width: 0.2;" class="Wall External"><polygon points="69.64,551.34 53.25,551.34 53.25,542.34 82.64,542.34 "/></g><g id="Wall" fill="#000000" stroke="#000000" style="fill-opacity: 1; stroke-opacity: 1; stroke-width: 0.2;" class="Wall External"><polygon points="53.25,551.34 53.25,79.03 66.25,19.03 66.25,551.34 "/><g id="Door" fill="#ffffff" stroke="#000000" style="fill-opacity: 1; stroke-width: 1; stroke-opacity: 1;" class="Door None Beside"><polygon points="53.25,530.06 53.25,452.51 66.25,452.51 66.25,530.06 "/><g id="Threshold" stroke="#ffffff" style="" class="Threshold"><polygon points="53.25,530.06 53.25,452.51 66.25,452.51 66.25,530.06 "/></g></g></g><g id="Wall" fill="#000000" stroke="#000000" style="fill-opacity: 1; stroke-opacity: 1; stroke-width: 0.2;" class="Wall External"><polygon points="66.25,79.03 197.38,79.03 197.38,19.03 53.25,19.03 "/></g><g id="Wall" fill="#000000" stroke="#000000" style="fill-opacity: 1; stroke-opacity: 1; stroke-width: 0.2;" class="Wall External"><polygon points="197.38,63.34 338.13,63.34 338.13,19.03 197.38,19.03 "/><g id="Window" fill="#f0f0ff" stroke="#000000" style="fill-opacity: 1; stroke-width: 1; stroke-opacity: 1;" class="Window Regular"><polygon points="200.19,63.34 336.80,63.34 336.80,19.03 200.19,19.03 "/><g id="Glass" class="Glass"><polygon points="200.19,63.34 336.80,63.34 336.80,19.03 200.19,19.03 "/></g><g id="Panel" class="Panel"><line x1="207.69079045880943" x2="329.3028180121813" y1="41.18413702456837" y2="41.184137024568344"/><line x1="207.69079045880943" x2="207.69079045880943" y1="63.34042550571776" y2="19.027848543418976"/><line x1="329.3028180121813" x2="329.3028180121813" y1="63.34042550571773" y2="19.027848543418948"/></g></g></g><g id="Wall" fill="#000000" stroke="#000000" style="fill-opacity: 1; stroke-opacity: 1; stroke-width: 0.2;" class="Wall External"><polygon points="338.13,79.03 427.30,79.03 427.30,19.03 338.13,19.03 "/></g><g id="Wall" fill="#000000" stroke="#000000" style="fill-opacity: 1; stroke-opacity: 1; stroke-width: 0.2;" class="Wall External"><polygon points="427.30,63.59 565.94,63.59 565.94,19.03 427.30,19.03 "/><g id="Window" fill="#f0f0ff" stroke="#000000" style="fill-opacity: 1; stroke-width: 1; stroke-opacity: 1;" class="Window Regular"><polygon points="430.43,63.59 564.85,63.59 564.85,19.03 430.43,19.03 "/><g id="Glass" class="Glass"><polygon points="430.43,63.59 564.85,63.59 564.85,19.03 430.43,19.03 "/></g><g id="Panel" class="Panel"><line x1="437.9275886700012" x2="557.3538237825192" y1="41.3106982887449" y2="41.310698288744874"/><line x1="437.9275886700012" x2="437.9275886700012" y1="63.593548034070935" y2="19.027848543418877"/><line x1="557.3538237825192" x2="557.3538237825192" y1="63.593548034070906" y2="19.02784854341885"/></g></g></g><g id="Wall" fill="#000000" stroke="#000000" style="fill-opacity: 1; stroke-opacity: 1; stroke-width: 0.2;" class="Wall External"><polygon points="565.94,79.03 577.85,79.03 603.85,19.03 565.94,19.03 "/></g><g id="Wall" fill="#000000" stroke="#000000" style="fill-opacity: 1; stroke-opacity: 1; stroke-width: 0.2;" class="Wall External"><polygon points="428.25,604.20 577.85,601.58 603.85,644.13 429.00,647.19 "/></g><g id="Wall" fill="#000000" stroke="#000000" style="fill-opacity: 1; stroke-opacity: 1; stroke-width: 0.2;" class="Wall External"><polygon points="577.85,601.58 577.85,79.03 603.85,19.03 603.85,644.13 "/></g><g id="Wall" fill="#000000" stroke="#000000" style="fill-opacity: 1; stroke-opacity: 1; stroke-width: 0.2;" class="Wall"><polygon points="66.25,435.44 577.85,435.44 577.85,445.44 66.25,445.44 "/><g id="Door" fill="#ffffff" stroke="#000000" style="fill-opacity: 1; stroke-width: 1; stroke-opacity: 1;" class="Door None Beside"><polygon points="254.44,435.44 322.94,435.44 322.94,445.44 254.44,445.44 "/><g id="Threshold" stroke="#ffffff" style="" class="Threshold"><polygon points="254.44,435.44 322.94,435.44 322.94,445.44 254.44,445.44 "/></g></g><g id="Door" fill="#ffffff" stroke="#000000" style="fill-opacity: 1; stroke-width: 1; stroke-opacity: 1;" class="Door None Beside"><polygon points="356.15,435.44 422.57,435.44 422.57,445.44 356.15,445.44 "/><g id="Threshold" stroke="#ffffff" style="" class="Threshold"><polygon points="356.15,435.44 422.57,435.44 422.57,445.44 356.15,445.44 "/></g></g></g><g id="Wall" fill="#000000" stroke="#000000" style="fill-opacity: 1; stroke-opacity: 1; stroke-width: 0.2;" class="Wall"><polygon points="438.07,445.44 437.92,604.03 447.92,604.04 448.07,445.45 "/><g id="Door" fill="#ffffff" stroke="#000000" style="fill-opacity: 1; stroke-width: 1; stroke-opacity: 1;" class="Door None Beside"><polygon points="438.02,498.57 437.96,557.66 447.96,557.67 448.02,498.58 "/><g id="Threshold" stroke="#ffffff" style="" class="Threshold"><polygon points="438.02,498.57 437.96,557.66 447.96,557.67 448.02,498.58 "/></g></g></g><g id="Wall" fill="#000000" stroke="#000000" style="fill-opacity: 1; stroke-opacity: 1; stroke-width: 0.2;" class="Wall"><polygon points="82.64,542.34 182.38,542.34 176.38,550.34 82.64,550.34 "/><g id="Door" fill="#ffffff" stroke="#000000" style="fill-opacity: 1; stroke-width: 1; stroke-opacity: 1;" class="Door None Beside"><polygon points="94.90,542.34 154.82,542.34 154.82,550.34 94.90,550.34 "/><g id="Threshold" stroke="#ffffff" style="" class="Threshold"><polygon points="94.90,542.34 154.82,542.34 154.82,550.34 94.90,550.34 "/></g></g></g><g id="Wall" fill="#000000" stroke="#000000" style="fill-opacity: 1; stroke-opacity: 1; stroke-width: 0.2;" class="Wall"><polygon points="182.38,542.34 182.38,579.58 176.38,579.58 176.38,550.34 "/></g><g id="Wall" fill="#000000" stroke="#000000" style="fill-opacity: 1; stroke-opacity: 1; stroke-width: 0.2;" class="Wall"><polygon points="66.25,356.56 127.56,356.56 119.56,364.56 66.25,364.56 "/></g><g id="Wall" fill="#000000" stroke="#000000" style="fill-opacity: 1; stroke-opacity: 1; stroke-width: 0.2;" class="Wall"><polygon points="127.56,356.56 127.56,445.44 119.56,445.44 119.56,364.56 "/><g id="Door" fill="#ffffff" stroke="#000000" style="fill-opacity: 1; stroke-width: 1; stroke-opacity: 1;" class="Door None Beside"><polygon points="127.56,378.21 127.56,423.88 119.56,423.88 119.56,378.21 "/><g id="Threshold" stroke="#ffffff" style="" class="Threshold"><polygon points="127.56,378.21 127.56,423.88 119.56,423.88 119.56,378.21 "/></g></g></g><g id="Wall" fill="#000000" stroke="#000000" style="fill-opacity: 1; stroke-opacity: 1; stroke-width: 0.2;" class="Wall"><polygon points="338.13,79.03 338.13,445.44 349.13,445.44 349.13,79.03 "/></g><g transform="matrix(1,0,0,1,577.8451,79.0236)" class="FixedFurniture BaseCabinet" fill="#ffffff" stroke="#000000" style="fill-opacity: 1; stroke-opacity: 1;"><desc>Width:60 Height:90 Depth:60 Elevation:0</desc><g class="BoundaryPolygon"><polygon points="0.00,0.00 -11.90,0.00 -11.90,-15.43 -150.54,-15.43 -150.54,0.00 -60.70,0.00 -60.70,356.41 0.00,356.41 0.00,0.00 "/></g></g><g class="FixedFurniture ElectricalAppliance IntegratedStove" fill="#ffffff" stroke="#000000" transform="matrix(0,1,-1,0,577.845,182.7613)" style="fill-opacity: 1; stroke-opacity: 1;">
        <g class="BoundaryPolygon" fill="none" stroke="none">
            <polygon points="0.00,0.00 54.00,0.00 54.00,59.23 0.00,59.23 "/>
        </g>
        <g class="InnerPolygon">
            <polygon points="2.00,2.00 52.20,2.00 52.20,57.26 2.00,57.26 "/>
        </g>
        <g class="OuterCircle">
            <circle cx="14.400562389141083" cy="15.795554342668993" r="8"/>
            <circle cx="39.60154657013799" cy="15.795554342668993" r="8"/>
            <circle cx="14.400562389141083" cy="43.43777444233973" r="8"/>
            <circle cx="39.60154657013799" cy="43.43777444233973" r="8"/>
        </g>
        <g class="Direction" fill-opacity="0.9" style="display: none;">
            <polygon points="28.81,54.49 28.81,43.88 25.80,43.88 25.80,54.49 22.00,54.49 27.30,59.29 32.60,54.49 28.81,54.49 " fill="#444444"/>
        </g> 
        <g class="Name" fill-opacity="0.9" style="display: none;">
            <text transform="translate(3 12)" font-size="12" font-family="Verdana, Sans-Serif">INT_STOVE</text>
        </g>
        <desc>Width:60 Height:90 Depth:30 Elevation:0</desc>
    </g><g class="FixedFurniture DoubleSink" fill="#ffffff" stroke="#000000" transform="matrix(0,1,-1,0,577.7513,302.2009)" style="fill-opacity: 1; stroke-opacity: 1;">
        <g class="BoundaryPolygon" fill="none" stroke="none">
            <polygon points="0.00,0.00 57.62,0.00 57.62,43.61 0.00,43.61 "/>
        </g>
        <g class="InnerPolygonLeft">
            <polygon points="4.12,9.90 27.57,9.90 27.57,39.90 4.12,39.90 "/>
        </g>
        <g class="InnerPolygonRight">
            <polygon points="30.04,10.00 53.50,10.00 53.50,39.98 30.04,39.98 "/>
        </g>
        <g class="OuterDrain" stroke-width="0.8">
            <circle cx="16.21471940421213" cy="23.621695880293828" r="3.5"/>
            <circle cx="41.31872660362682" cy="23.621695880293828" r="3.5"/>
        </g>
        <g class="InnerDrain" stroke-width="0.8">
            <circle cx="16.21471940421213" cy="23.621695880293828" r="2"/>
            <circle cx="41.31872660362682" cy="23.621695880293828" r="2"/>
        </g>
        <g class="Faucet">
            <polygon points="26.34,3.56 32.34,3.56 32.34,17.56 26.34,17.56 "/>
        </g>
        <g class="Direction" fill-opacity="0.9" style="display: none;">
            <polygon points="30.05,39.75 30.05,29.14 27.04,29.14 27.04,39.75 23.24,39.75 28.54,45.06 33.84,39.75 30.05,39.75 " fill="#444444"/>
        </g> 
        <g class="Name" fill-opacity="0.9" style="display: none;">
            <text transform="translate(3 12)" font-size="12" font-family="Verdana, Sans-Serif">DSINK</text>
        </g>
        <desc>Width:70 Height:90 Depth:60 Elevation:0</desc>
    </g><g class="FixedFurniture Closet" fill="#ffffff" stroke="#000000" transform="matrix(0,-1,1,0,66.2546,434.5188)" style="fill-opacity: 1; stroke-opacity: 1;">
        <g class="BoundaryPolygon">
            <polygon points="0.00,0.00 69.96,0.00 69.96,52.52 0.00,52.52 "/>
        </g>
        <g class="Direction" fill-opacity="0.9" style="display: none;">
            <polygon points="36.74,47.88 36.74,37.26 33.73,37.26 33.73,47.88 29.93,47.88 35.23,53.18 40.54,47.88 36.74,47.88 " fill="#444444"/>
        </g> 
        <g class="Name" fill-opacity="0.9" style="display: none;">
            <text transform="translate(3 12)" font-size="12" font-family="Verdana, Sans-Serif">CL</text>
        </g>
        <desc>Width:60 Height:200 Depth:60 Elevation:0</desc>
     </g><g class="FixedFurniture Closet" fill="#ffffff" stroke="#000000" transform="matrix(-1,0,0,-1,175.9368,579.5191)" style="fill-opacity: 1; stroke-opacity: 1;">
        <g class="BoundaryPolygon">
            <polygon points="0.00,0.00 93.30,0.00 93.30,28.49 0.00,28.49 "/>
        </g>
        <g class="Direction" fill-opacity="0.9" style="display: none;">
            <polygon points="47.82,25.89 47.82,15.27 44.81,15.27 44.81,25.89 41.01,25.89 46.31,31.19 51.62,25.89 47.82,25.89 " fill="#444444"/>
        </g> 
        <g class="Name" fill-opacity="0.9" style="display: none;">
            <text transform="translate(3 12)" font-size="12" font-family="Verdana, Sans-Serif">CL</text>
        </g>
        <desc>Width:120 Height:200 Depth:60 Elevation:0</desc>
     </g><g class="FixedFurniture Shower" fill="#ffffff" stroke="#000000" transform="matrix(1,0,0,1,527.515,445.4389)" style="fill-opacity: 1; stroke-opacity: 1;"> 
	    <g class="BoundaryPolygon" fill="none" stroke="none">
            <polygon points="0,0 32,0 32,19 0,19"/>
        </g>
        <g class="InnerPolygon"> 
			<rect x="3.7" y="0.5" width="11.2" height="6.1"/>
			<rect x="17.6" y="0.5" width="11.2" height="6.1"/>
			<rect x="28.7" y="0.5" width="3.4" height="6.1"/>
			<rect x="0.5" y="0.5" width="3.2" height="6.1"/>
			<path d="M14.9,8.5c0,1.5-0.4,3.3-1.6,5    c-0.4,0.6-1,1.1-1.1,1.7c-0.2,1.1,0.3,2.8,2.5,3.2c0.5,0.1,1.3,0.1,1.6,0.1h-0.1c0.3,0,1.1,0,1.6-0.1c2.2-0.4,2.7-2.1,2.5-3.2    c-0.1-0.6-0.7-1.1-1.1-1.7c-1.2-1.7-1.6-3.5-1.6-5"/>
			<path d="M12.2,15.3c0.1,0.2,1.6,1.9,4.2,1.9 c2.4-0.1,3.7-1.7,3.9-1.9"/>
			<path d="M14.9,0.5h2.7v8c-0.9,0-1.8,0-2.7,0l0,0 C14.9,5.9,14.9,3.2,14.9,0.5z"/>
		</g>
	    <g class="Indicator"> 
			<path d="M3.7,3.6C5,3.1,5.2,3,5.2,3 c0,1.1,0,0,0,1.1C5.2,4.1,5.1,4.1,3.7,3.6"/>
			<path d="M28.7,3.6 C27.4,3.1,27.2,3,27.2,3c0,1.1,0,0,0,1.1C27.2,4.1,27.3,4.1,28.7,3.6"/>	
		</g>
        <desc>Width:32 Height:97 Depth:19 Elevation:135</desc>
	</g><g class="FixedFurniture Toilet" fill="#ffffff" stroke="#000000" transform="matrix(1,0,0,0.9322,460.9426,445.4388)" style="fill-opacity: 1; stroke-opacity: 1;">
	   <g class="BoundaryPolygon" fill="none" stroke="none"> 
            <polygon points="0,0 41,0 41,71 0,71"/>
		</g>
        <g class="InnerPolygon">
            <rect x="0.502" y="0.5" width="39.989" height="17.98"/>
            <path d="M40.491,44.237S41.619,70.5,20.907,70.5C-.523,70.5.6,44.237.6,44.237L.5,18.48H40.491Z"/>
            <rect x="17.318" y="7.975" width="6.357" height="3.03"/>
        </g>
        <desc>Width:41 Height:85 Depth:71 Elevation:0</desc>
    </g><g id="FixedFurnitureSet" transform="matrix(-1,0,0,-1,514.1971,603.1364)" class="FixedFurnitureSet" fill="#ffffff" stroke="#000000" style="fill-opacity: 0.4; stroke-opacity: 0.4;"><g class="FixedFurniture BaseCabinet" fill="#ffffff" stroke="#000000" transform="matrix(1,0,0,1,0,0)" style="fill-opacity: 1; stroke-opacity: 1;">
        <g class="BoundaryPolygon">
            <polygon points="0.00,0.00 54.16,0.00 54.16,33.02 0.00,33.02 "/>
        </g>
        <g class="Direction" fill-opacity="0.9" style="display: none;">
            <polygon points="28.90,30.38 28.90,19.76 25.89,19.76 25.89,30.38 22.08,30.38 27.39,35.18 32.69,30.38 28.90,30.38 " fill="#444444"/>
        </g> 
        <g class="Name" fill-opacity="0.9" style="display: none;">
            <text transform="translate(3 12)" font-size="12" font-family="Verdana, Sans-Serif">CB</text>
        </g>
        <desc>Width:60 Height:5 Depth:60 Elevation:105</desc>
    </g><g class="FixedFurniture Sink" fill="#ffffff" stroke="#000000" transform="matrix(1,0,0,1,0,0)" style="fill-opacity: 1; stroke-opacity: 1;">
        <g class="BoundaryPolygon" fill="none" stroke="none">
        <polygon points="0.00,0.00 54.16,0.00 54.16,33.02 0.00,33.02 "/>
        </g>
        <g class="InnerPolygon">
            <polygon points="4.51,9.70 49.65,9.70 49.65,30.10 4.51,30.10 "/>
        </g>
        <g class="OuterDrain" stroke-width="0.8">
            <circle cx="27.081709802393334" cy="17.72037866061442" r="3.5"/>
        </g>
        <g class="InnerDrain" stroke-width="0.8">
            <circle cx="27.081709802393334" cy="17.72037866061442" r="2"/>
        </g>
        <g class="Faucet">
            <polygon points="24.37,2.75 30.37,2.75 30.37,16.75 24.37,16.75 "/>
        </g>
        <g class="Direction" fill-opacity="0.9" style="display: none;">
            <polygon points="28.90,30.38 28.90,19.76 25.89,19.76 25.89,30.38 22.08,30.38 27.39,35.18 32.69,30.38 28.90,30.38 " fill="#444444"/>
        </g> 
        <g class="Name" fill-opacity="0.9" style="display: none;">
            <text transform="translate(3 12)" font-size="12" font-family="Verdana, Sans-Serif">SINK</text>
        </g>
        <desc>Width:60 Height:90 Depth:60 Elevation:0</desc>
    </g></g><g class="FixedFurniture ElectricalAppliance WashingMachine" fill="#ffffff" stroke="#000000" transform="matrix(-1.0608,0,0,-1,577.845,602.1066)" style="fill-opacity: 1; stroke-opacity: 1;">
	   <g class="BoundaryPolygon">
		    <polygon points="0,0 60,0 60,60 0,60"/>
		</g>	
	    <g class="electricitySign" fill="none">
            <path d="M0,0,30,41V20.8L60,60"/>
		</g>
	    <g class="Handle">
		    <path d="M2.7,59.4H57.3"/>
		</g>
        <g class="Direction" fill-opacity="0.9" style="display: none;">
            <polygon points="32.009 55.197 32.009 44.581 29 44.581 29 55.197 25.197 55.197 30.5 60 35.803 55.197 32.009 55.197" fill="#444444"/>
        </g> 
        <g class="Name" fill-opacity="0.9" style="display: none;">
            <text transform="translate(3 12)" font-size="12" font-family="Verdana, Sans-Serif">WM</text>
        </g>
        <desc>Width:60 Height:90 Depth:60 Elevation:0</desc>
    </g><g id="Wall" fill="#000000" stroke="#000000" style="fill-opacity: 1; stroke-opacity: 1; stroke-width: 0.2;" class="Wall External"><polygon points="66.25,19.03 -243.81,19.03 -229.70,79.03 53.25,79.03 "/><g id="Window" fill="#f0f0ff" stroke="#000000" style="fill-opacity: 1; stroke-width: 1; stroke-opacity: 1;" class="Window Regular"><polygon points="-12.54,19.03 -140.37,19.03 -140.37,79.03 -12.54,79.03 "/><g id="Glass" class="Glass"><polygon points="-12.54,19.03 -140.37,19.03 -140.37,79.03 -12.54,79.03 "/></g><g id="Panel" class="Panel"><line x1="-20.0398412357564" x2="-132.86965393247556" y1="49.02784854341894" y2="49.02784854341895"/><line x1="-20.0398412357564" x2="-20.039841235756395" y1="19.027848543418948" y2="79.02784854341894"/><line x1="-132.86965393247556" x2="-132.86965393247556" y1="19.02784854341896" y2="79.02784854341895"/></g></g></g><g id="Wall" fill="#000000" stroke="#000000" style="fill-opacity: 1; stroke-opacity: 1; stroke-width: 0.2;" class="Wall External"><polygon points="-243.81,19.03 -243.81,551.34 -229.70,542.34 -229.70,79.03 "/></g><g id="Wall" fill="#000000" stroke="#000000" style="fill-opacity: 1; stroke-opacity: 1; stroke-width: 0.2;" class="Wall External"><polygon points="-243.81,551.34 53.25,551.34 53.25,542.34 -229.70,542.34 "/></g><g fill="#0000ff" stroke="#0000ff" style="display: none;" class="SelectionControls"><g style="display: none;" class="rotateControl"><circle cx="259.6204582884684" cy="464.271632278581" r="5" style="stroke : none; fill-opacity: 0.5; cursor:crosshair"/></g><g style="display: none;" class="ResizeNControl"><circle cx="0" cy="0" r="5" style="stroke : none; fill-opacity: 0.5"/></g><g style="display: none;" class="ResizeNEControl"><circle cx="0" cy="0" r="5" style="stroke : none; fill-opacity: 0.5"/></g><g style="display: none;" class="ResizeEControl"><circle cx="0" cy="0" r="5" style="stroke : none; fill-opacity: 0.5"/></g><g style="display: none;" class="ResizeSEControl"><circle cx="0" cy="0" r="5" style="stroke : none; fill-opacity: 0.5"/></g><g style="display: none;" class="ResizeSControl"><circle cx="0" cy="0" r="5" style="stroke : none; fill-opacity: 0.5"/></g><g style="display: none;" class="ResizeSWControl"><circle cx="0" cy="0" r="5" style="stroke : none; fill-opacity: 0.5"/></g><g style="display: none;" class="ResizeWControl"><circle cx="0" cy="0" r="5" style="stroke : none; fill-opacity: 0.5"/></g><g style="display: none;" class="ResizeNWControl"><circle cx="0" cy="0" r="5" style="stroke : none; fill-opacity: 0.5"/></g><g style="display: none;" class="removeControl"><polygon style="stroke : none; fill-opacity: 0.1" points="238.85,494.27 280.39,494.27 280.39,534.74 238.85,534.74 "/></g><g style="display: none;" class="copyPasteControl"><polygon style="stroke : none; fill-opacity: 0.1"/></g><g style="display: none;" class="translateControl"><polygon style="stroke : none; fill-opacity: 0.1; cursor:move" points="238.85,494.27 280.39,494.27 280.39,534.74 238.85,534.74 "/></g></g><g fill="#0000ff" stroke="#0000ff" style="display: none;" class="SelectionControls"><polygon fill="none" stroke="#0000ff" style="" points="66.25,445.44 438.07,445.44 438.07,604.20 66.25,604.20 "/><g style="display: none;" class="rotateControl"><circle cx="252.162729601945" cy="415.43885727858105" r="5" style="stroke : none; fill-opacity: 0.5; cursor:crosshair"/></g><g style="display: none;" class="ResizeNControl"><circle cx="0" cy="0" r="5" style="stroke : none; fill-opacity: 0.5"/></g><g style="display: none;" class="ResizeNEControl"><circle cx="0" cy="0" r="5" style="stroke : none; fill-opacity: 0.5"/></g><g style="display: none;" class="ResizeEControl"><circle cx="0" cy="0" r="5" style="stroke : none; fill-opacity: 0.5"/></g><g style="display: none;" class="ResizeSEControl"><circle cx="0" cy="0" r="5" style="stroke : none; fill-opacity: 0.5"/></g><g style="display: none;" class="ResizeSControl"><circle cx="0" cy="0" r="5" style="stroke : none; fill-opacity: 0.5"/></g><g style="display: none;" class="ResizeSWControl"><circle cx="0" cy="0" r="5" style="stroke : none; fill-opacity: 0.5"/></g><g style="display: none;" class="ResizeWControl"><circle cx="0" cy="0" r="5" style="stroke : none; fill-opacity: 0.5"/></g><g style="display: none;" class="ResizeNWControl"><circle cx="0" cy="0" r="5" style="stroke : none; fill-opacity: 0.5"/></g><g style="display: none;" class="removeControl"><polygon style="stroke : none; fill-opacity: 0.1"/></g><g style="display: none;" class="copyPasteControl"><polygon style="stroke : none; fill-opacity: 0.1"/></g><g style="display: none;" class="translateControl"><polygon style="stroke : none; fill-opacity: 0.1; cursor:move"/></g></g><g class="FixedFurniture BaseCabinet" fill="#ffffff" stroke="#000000" transform="matrix(1,0,0,1,197.3256,63.356)" style="fill-opacity: 1; stroke-opacity: 1;">
        <g class="BoundaryPolygon">
            <polygon points="0.00,0.00 140.80,0.00 140.80,14.91 0.00,14.91 "/>
        </g>
        <g class="Direction" fill-opacity="0.9" style="display: none;">
            <polygon points="75.12,13.72 75.12,3.10 72.11,3.10 72.11,13.72 68.30,13.72 73.61,18.52 78.91,13.72 75.12,13.72 " fill="#444444"/>
        </g> 
        <g class="Name" fill-opacity="0.9" style="display: none;">
            <text transform="translate(3 12)" font-size="12" font-family="Verdana, Sans-Serif">CB</text>
        </g>
        <desc>Width:60 Height:90 Depth:60 Elevation:0</desc>
    </g></g></g><g class="FloorsCompose" style="display: none;"><g transform="matrix(1,0,0,1,85.1195,17.3392)" class="ComposeElement"><use xlink:href="#Floor-1"/><g id="FloorNumberLabel" transform="matrix(1,0,0,1,0,747.19)" class="TextLabel"><text x="0" y="0em" fill="#000000" stroke="none" style="font-family: Verdana; font-size: 23px; fill-opacity: 1; cursor: default;">1. KERROS</text></g></g></g></g></svg>
