<?xml version="1.0"?>
<svg xmlns="http://www.w3.org/2000/svg" xmlns:xlink="http://www.w3.org/1999/xlink" height="1222.8799514770508" version="1.1" width="507.7900161743164" id="temp" viewBox="0 0 507.7900161743164 1222.8799514770508"><desc>Powered by CubiCasa</desc><defs/><g id="Model" class="Model v1-1"><g class="Floor"><g id="Floor-1" class="Floorplan Floor-1"><g id="5ac4283e-b2b1-4f20-acdd-226f714208e1" fill="#ffffff" stroke="#000000" style="fill-opacity: 1; stroke-opacity: 1; stroke-width: 0.2;" class="Space Outdoor"><polygon points="85.05,1119.02 85.05,1222.88 314.65,1222.88 314.65,1119.47 85.05,1119.02 "/><g transform="matrix(1,0,0,1,85.0518,1119.2451)" class="Dimension"><g transform="matrix(1,0,0,1,0,0)" style="display: none;" class="Visual"><g id="mark1" fill="#000000" stroke="none" transform="matrix(1,0,0,1,114.7986,0)" style="fill-opacity: 1; pointer-events: visible;" class="DimensionMark"><polygon points="-5,5,0,0,5,5"/></g><g id="mark2" fill="#000000" stroke="none" transform="matrix(1,0,0,1,229.598,51.7084)" style="fill-opacity: 1; pointer-events: visible;" class="DimensionMark"><polygon points="-5,-5,0,0,-5,5"/></g><g id="mark3" fill="#000000" stroke="none" transform="matrix(1,0,0,1,114.7986,103.6375)" style="fill-opacity: 1; pointer-events: visible;" class="DimensionMark"><polygon points="-5,-5,0,0,5,-5"/></g><g id="mark4" fill="#000000" stroke="none" transform="matrix(1,0,0,1,0,51.7084)" style="fill-opacity: 1; pointer-events: visible;" class="DimensionMark"><polygon points="5,5,0,0,5,-5"/></g></g><g transform="matrix(1,0,0,1,51.9291,51.7084)" class="SpaceDimensionsLabel"><g id="NameLabel" style="display: block;" class="TextLabel NameLabel"><text x="0" y="0em" fill="#000000" stroke="none" style="font-family: Verdana; font-size: 33px; fill-opacity: 1; cursor: default;">ULKOTILA</text></g><g id="DimensionMeasureLabel" transform="matrix(1,0,0,1,-4.6406,39.9062)" style="display: none;" class="TextLabel DimensionMeasureLabel"><text x="0" y="0em" fill="#000000" stroke="none" style="font-family: Verdana; font-size: 33px; fill-opacity: 1; cursor: default;">7'6" x 3'5"</text><text x="0" y="0"/></g></g></g></g><g id="3e7862f0-c60c-4643-9f82-21139beed20d" fill="#ffffff" stroke="#000000" style="fill-opacity: 1; stroke-opacity: 1; stroke-width: 0.2;" class="Space Outdoor"><polygon points="98.58,197.53 98.58,40.43 263.41,40.43 263.41,197.53 98.58,197.53 "/><g transform="matrix(1,0,0,1,98.5786,40.4268)" class="Dimension"><g transform="matrix(1,0,0,1,0,0)" style="display: none;" class="Visual"><g id="mark1" fill="#000000" stroke="none" transform="matrix(1,0,0,1,82.416,0)" style="fill-opacity: 1; pointer-events: visible;" class="DimensionMark"><polygon points="-5,5,0,0,5,5"/></g><g id="mark2" fill="#000000" stroke="none" transform="matrix(1,0,0,1,164.8319,78.5537)" style="fill-opacity: 1; pointer-events: visible;" class="DimensionMark"><polygon points="-5,-5,0,0,-5,5"/></g><g id="mark3" fill="#000000" stroke="none" transform="matrix(1,0,0,1,82.416,157.1074)" style="fill-opacity: 1; pointer-events: visible;" class="DimensionMark"><polygon points="-5,-5,0,0,5,-5"/></g><g id="mark4" fill="#000000" stroke="none" transform="matrix(1,0,0,1,0,78.5537)" style="fill-opacity: 1; pointer-events: visible;" class="DimensionMark"><polygon points="5,5,0,0,5,-5"/></g></g><g transform="matrix(1,0,0,1,82.4159,78.5537)" class="SpaceDimensionsLabel"><g id="NameLabel" style="display: block;" class="TextLabel NameLabel"><text x="0" y="0em" fill="#000000" stroke="none" style="font-family: Verdana; font-size: 33px; fill-opacity: 1; cursor: default;">ULKOTILA</text></g><g id="DimensionMeasureLabel" transform="matrix(1,0,0,1,-4.6406,40.2968)" style="display: none;" class="TextLabel DimensionMeasureLabel"><text x="0" y="0em" fill="#000000" stroke="none" style="font-family: Verdana; font-size: 33px; fill-opacity: 1; cursor: default;">5'5" x 5'2"</text><text x="0" y="0"/></g></g></g></g><g id="e686412c-4c4c-4bbe-b39c-565df46c97f5" fill="#ffffff" stroke="#ffffff" style="fill-opacity: 1; stroke-opacity: 1; stroke-width: 0.2;" class="Space Entry Lobby"><polygon points="241.79,613.76 241.79,971.13 44.46,971.13 44.00,613.00 "/><g transform="matrix(1,0,0,1,44.2276,613.3807)" class="Dimension"><g transform="matrix(1,0,0,1,0,0)" style="display: none;" class="Visual"><g id="mark1" fill="#000000" stroke="none" transform="matrix(1,0,0,1,98.6659,0)" style="fill-opacity: 1; pointer-events: visible;" class="DimensionMark"><polygon points="-5,5,0,0,5,5"/></g><g id="mark2" fill="#000000" stroke="none" transform="matrix(1,0,0,1,197.5622,178.6844)" style="fill-opacity: 1; pointer-events: visible;" class="DimensionMark"><polygon points="-5,-5,0,0,-5,5"/></g><g id="mark3" fill="#000000" stroke="none" transform="matrix(1,0,0,1,98.6659,357.75)" style="fill-opacity: 1; pointer-events: visible;" class="DimensionMark"><polygon points="-5,-5,0,0,5,-5"/></g><g id="mark4" fill="#000000" stroke="none" transform="matrix(1,0,0,1,0,178.6844)" style="fill-opacity: 1; pointer-events: visible;" class="DimensionMark"><polygon points="5,5,0,0,5,-5"/></g></g><g transform="matrix(1,0,0,1,110.9143,181.0188)" class="SpaceDimensionsLabel" style="display: block;"><g id="NameLabel" style="display: block;" class="TextLabel NameLabel"><text x="0" y="0em" fill="#000000" stroke="none" style="font-family: Verdana; font-size: 33px; fill-opacity: 1; cursor: default;">ET</text></g><g id="DimensionMeasureLabel" transform="matrix(1,0,0,1,-76.875,39.8125)" style="display: none;" class="TextLabel DimensionMeasureLabel"><text x="0" y="0em" fill="#000000" stroke="none" style="font-family: Verdana; font-size: 33px; fill-opacity: 1; cursor: default;">6'6" x 11'9"</text><text x="0" y="0"/></g></g></g></g><g id="e2bf5ab5-c44a-40b0-8043-1c31cb85d070" fill="#ffffff" stroke="#ffffff" style="fill-opacity: 1; stroke-opacity: 1; stroke-width: 0.2;" class="Space LivingRoom"><polygon points="485.79,613.76 242.02,613.76 44.00,613.00 44.46,235.53 485.79,235.53 "/><g transform="matrix(1,0,0,1,44.2271,235.5342)" class="Dimension"><g transform="matrix(1,0,0,1,0,0)" style="display: none;" class="Visual"><g id="mark1" fill="#000000" stroke="none" transform="matrix(1,0,0,1,220.6664,0)" style="fill-opacity: 1; pointer-events: visible;" class="DimensionMark"><polygon points="-5,5,0,0,5,5"/></g><g id="mark2" fill="#000000" stroke="none" transform="matrix(1,0,0,1,441.56,189.1139)" style="fill-opacity: 1; pointer-events: visible;" class="DimensionMark"><polygon points="-5,-5,0,0,-5,5"/></g><g id="mark3" fill="#000000" stroke="none" transform="matrix(1,0,0,1,220.6664,378.2272)" style="fill-opacity: 1; pointer-events: visible;" class="DimensionMark"><polygon points="-5,-5,0,0,5,-5"/></g><g id="mark4" fill="#000000" stroke="none" transform="matrix(1,0,0,1,0,189.1139)" style="fill-opacity: 1; pointer-events: visible;" class="DimensionMark"><polygon points="5,5,0,0,5,-5"/></g></g><g transform="matrix(1,0,0,1,204.257,191.2733)" class="SpaceDimensionsLabel" style="display: block;"><g id="NameLabel" style="display: block;" class="TextLabel NameLabel"><text x="0" y="0em" fill="#000000" stroke="none" style="font-family: Verdana; font-size: 33px; fill-opacity: 1; cursor: default;">OH</text></g><g id="DimensionMeasureLabel" transform="matrix(1,0,0,1,-82.9219,39.8125)" style="display: none;" class="TextLabel DimensionMeasureLabel"><text x="0" y="0em" fill="#000000" stroke="none" style="font-family: Verdana; font-size: 33px; fill-opacity: 1; cursor: default;">14'6" x 12'5"</text><text x="0" y="0"/></g></g></g></g><g id="62d75fca-a304-4e11-8e7a-f1dc606c8201" fill="#ffffff" stroke="#ffffff" style="fill-opacity: 1; stroke-opacity: 1; stroke-width: 0.2;" class="Space DraughtLobby"><polygon points="241.79,1080.02 44.46,1080.02 44.46,983.13 241.79,983.13 "/><g transform="matrix(1,0,0,1,44.4552,983.1307)" class="Dimension"><g transform="matrix(1,0,0,1,0,0)" style="display: none;" class="Visual"><g id="mark1" fill="#000000" stroke="none" transform="matrix(1,0,0,1,98.6673,0)" style="fill-opacity: 1; pointer-events: visible;" class="DimensionMark"><polygon points="-5,5,0,0,5,5"/></g><g id="mark2" fill="#000000" stroke="none" transform="matrix(1,0,0,1,197.3346,48.4469)" style="fill-opacity: 1; pointer-events: visible;" class="DimensionMark"><polygon points="-5,-5,0,0,-5,5"/></g><g id="mark3" fill="#000000" stroke="none" transform="matrix(1,0,0,1,98.6673,96.8937)" style="fill-opacity: 1; pointer-events: visible;" class="DimensionMark"><polygon points="-5,-5,0,0,5,-5"/></g><g id="mark4" fill="#000000" stroke="none" transform="matrix(1,0,0,1,0,48.4469)" style="fill-opacity: 1; pointer-events: visible;" class="DimensionMark"><polygon points="5,5,0,0,5,-5"/></g></g><g transform="matrix(1,0,0,1,101.9106,55.0126)" class="SpaceDimensionsLabel" style="display: block;"><g id="NameLabel" style="display: block;" class="TextLabel NameLabel"><text x="0" y="0em" fill="#000000" stroke="none" style="font-family: Verdana; font-size: 33px; fill-opacity: 1; cursor: default;">TK</text></g><g id="DimensionMeasureLabel" transform="matrix(1,0,0,1,-65.8984,40.3281)" style="display: none;" class="TextLabel DimensionMeasureLabel"><text x="0" y="0em" fill="#000000" stroke="none" style="font-family: Verdana; font-size: 33px; fill-opacity: 1; cursor: default;">6'6" x 3'2"</text><text x="0" y="0"/></g></g></g></g><g id="cb618875-1697-40db-a2e4-432031dae5d2" fill="#ffffff" stroke="#ffffff" style="fill-opacity: 1; stroke-opacity: 1; stroke-width: 0.2;" class="Space Bath"><polygon points="485.79,1080.02 251.79,1080.02 251.79,877.90 485.79,877.90 "/><g transform="matrix(1,0,0,1,251.7898,877.9037)" class="Dimension"><g transform="matrix(1,0,0,1,0,0)" style="display: none;" class="Visual"><g id="mark1" fill="#000000" stroke="none" transform="matrix(1,0,0,1,116.9987,0)" style="fill-opacity: 1; pointer-events: visible;" class="DimensionMark"><polygon points="-5,5,0,0,5,5"/></g><g id="mark2" fill="#000000" stroke="none" transform="matrix(1,0,0,1,233.9973,101.0604)" style="fill-opacity: 1; pointer-events: visible;" class="DimensionMark"><polygon points="-5,-5,0,0,-5,5"/></g><g id="mark3" fill="#000000" stroke="none" transform="matrix(1,0,0,1,116.9987,202.1207)" style="fill-opacity: 1; pointer-events: visible;" class="DimensionMark"><polygon points="-5,-5,0,0,5,-5"/></g><g id="mark4" fill="#000000" stroke="none" transform="matrix(1,0,0,1,0,101.0604)" style="fill-opacity: 1; pointer-events: visible;" class="DimensionMark"><polygon points="5,5,0,0,5,-5"/></g></g><g transform="matrix(1,0,0,1,82.2941,87.4599)" class="SpaceDimensionsLabel" style="display: block;"><g id="NameLabel" style="display: block;" class="TextLabel NameLabel"><text x="0" y="0em" fill="#000000" stroke="none" style="font-family: Verdana; font-size: 33px; fill-opacity: 1; cursor: default;">WC</text></g><g id="DimensionMeasureLabel" transform="matrix(1,0,0,1,-59.5,39.9375)" style="display: none;" class="TextLabel DimensionMeasureLabel"><text x="0" y="0em" fill="#000000" stroke="none" style="font-family: Verdana; font-size: 33px; fill-opacity: 1; cursor: default;">7'8" x 6'8"</text><text x="0" y="0"/></g></g></g></g><g id="96359405-63fb-4f8c-946e-1640c38bf952" fill="#ffffff" stroke="#ffffff" style="fill-opacity: 1; stroke-opacity: 1; stroke-width: 0.2;" class="Space Kitchen Kitchenette"><polygon points="485.79,866.90 251.79,866.90 251.79,624.76 485.79,624.76 "/><g transform="matrix(1,0,0,1,251.7898,624.7614)" class="Dimension"><g transform="matrix(1,0,0,1,0,0)" style="display: none;" class="Visual"><g id="mark1" fill="#000000" stroke="none" transform="matrix(1,0,0,1,116.9987,0)" style="fill-opacity: 1; pointer-events: visible;" class="DimensionMark"><polygon points="-5,5,0,0,5,5"/></g><g id="mark2" fill="#000000" stroke="none" transform="matrix(1,0,0,1,233.9973,121.0712)" style="fill-opacity: 1; pointer-events: visible;" class="DimensionMark"><polygon points="-5,-5,0,0,-5,5"/></g><g id="mark3" fill="#000000" stroke="none" transform="matrix(1,0,0,1,116.9987,242.1423)" style="fill-opacity: 1; pointer-events: visible;" class="DimensionMark"><polygon points="-5,-5,0,0,5,-5"/></g><g id="mark4" fill="#000000" stroke="none" transform="matrix(1,0,0,1,0,121.0712)" style="fill-opacity: 1; pointer-events: visible;" class="DimensionMark"><polygon points="5,5,0,0,5,-5"/></g></g><g transform="matrix(1,0,0,1,97.6303,129.5448)" class="SpaceDimensionsLabel" style="display: block;"><g id="NameLabel" style="display: block;" class="TextLabel NameLabel"><text x="0" y="0em" fill="#000000" stroke="none" style="font-family: Verdana; font-size: 33px; fill-opacity: 1; cursor: default;">KK</text></g><g id="DimensionMeasureLabel" transform="matrix(1,0,0,1,-74.7734,39.8125)" style="display: none;" class="TextLabel DimensionMeasureLabel"><text x="0" y="0em" fill="#000000" stroke="none" style="font-family: Verdana; font-size: 33px; fill-opacity: 1; cursor: default;">7'8" x 7'11"</text><text x="0" y="0"/></g></g></g></g><g id="Wall" fill="#000000" stroke="#000000" style="fill-opacity: 1; stroke-opacity: 1; stroke-width: 0.2;" class="Wall External"><polygon points="44.46,235.53 485.79,235.53 507.79,197.53 22.46,197.53 "/><g id="Window" fill="#f0f0ff" stroke="#000000" style="fill-opacity: 1; stroke-width: 1; stroke-opacity: 1;" class="Window Regular"><polygon points="205.87,235.53 425.90,235.53 425.90,197.53 205.87,197.53 "/><g id="Glass" class="Glass"><polygon points="205.87,235.53 425.90,235.53 425.90,197.53 205.87,197.53 "/></g><g id="Panel" class="Panel"><line x1="213.37459588986235" x2="418.4049406933293" y1="216.53418083233086" y2="216.5341808323308"/><line x1="213.37459588986235" x2="213.37459588986235" y1="235.53418083233086" y2="197.53418083233086"/><line x1="418.4049406933293" x2="418.4049406933293" y1="235.5341808323308" y2="197.5341808323308"/></g></g><g id="Door" fill="#ffffff" stroke="#000000" style="fill-opacity: 1; stroke-width: 1; stroke-opacity: 1;" class="Door Swing Opposite"><polygon points="114.41,235.53 198.71,235.53 198.71,197.53 114.41,197.53 "/><g id="Threshold" class="Threshold"><polygon points="114.41,235.53 198.71,235.53 198.71,197.53 114.41,197.53 "/></g><g id="Panel" fill="none" style="" class="Panel Right Negative"><g id="PanelArea" fill="none" stroke="none" style="" class="PanelArea"><polygon points="114.41,235.53 198.71,235.53 198.71,197.53 114.41,197.53 "/></g><path d="M198.71,235.53 q0.00,84.30 -84.30,84.30 l0.00,-84.30Z"/></g><g id="Panel" fill="none" style="" class="Panel Left Positive"><g id="PanelArea" fill="none" stroke="none" style="" class="PanelArea"><polygon points="114.41,235.53 198.71,235.53 198.71,197.53 114.41,197.53 "/></g><path d="M198.71,197.53 q0.00,-84.30 -84.30,-84.30 l0.00,84.30Z"/></g></g></g><g id="Wall" fill="#000000" stroke="#000000" style="fill-opacity: 1; stroke-opacity: 1; stroke-width: 0.2;" class="Wall External"><polygon points="485.79,235.53 485.79,1080.02 507.79,1119.02 507.79,197.53 "/></g><g id="Wall" fill="#000000" stroke="#000000" style="fill-opacity: 1; stroke-opacity: 1; stroke-width: 0.2;" class="Wall External"><polygon points="485.79,1080.02 44.46,1080.02 22.46,1119.02 507.79,1119.02 "/><g id="Door" fill="#ffffff" stroke="#000000" style="fill-opacity: 1; stroke-width: 1; stroke-opacity: 1;" class="Door Swing Beside"><polygon points="205.96,1080.02 112.35,1080.02 112.35,1119.02 205.96,1119.02 "/><g id="Threshold" class="Threshold"><polygon points="205.96,1080.02 112.35,1080.02 112.35,1119.02 205.96,1119.02 "/></g><g id="Panel" fill="none" style="" class="Panel Right Positive"><g id="PanelArea" fill="none" stroke="none" style="" class="PanelArea"><polygon points="205.96,1080.02 112.35,1080.02 112.35,1119.02 205.96,1119.02 "/></g><path d="M205.96,1119.02 q0.00,93.62 -93.62,93.62 l0.00,-93.62Z"/></g></g><g id="Window" fill="#f0f0ff" stroke="#000000" style="fill-opacity: 1; stroke-width: 1; stroke-opacity: 1;" class="Window Regular"><polygon points="446.88,1080.02 353.15,1080.02 353.15,1119.02 446.88,1119.02 "/><g id="Glass" class="Glass"><polygon points="446.88,1080.02 353.15,1080.02 353.15,1119.02 446.88,1119.02 "/></g><g id="Panel" class="Panel"><line x1="439.38052557332793" x2="360.6482087909938" y1="1099.5244369386444" y2="1099.5244369386444"/><line x1="439.38052557332793" x2="439.38052557332793" y1="1080.0244369386444" y2="1119.0244369386444"/><line x1="360.6482087909938" x2="360.6482087909938" y1="1080.0244369386444" y2="1119.0244369386444"/></g></g></g><g id="Wall" fill="#000000" stroke="#000000" style="fill-opacity: 1; stroke-opacity: 1; stroke-width: 0.2;" class="Wall External"><polygon points="44.46,1080.02 44.46,235.53 22.46,197.53 22.46,1119.02 "/></g><g id="Wall" fill="#000000" stroke="#000000" style="fill-opacity: 1; stroke-opacity: 1; stroke-width: 0.2;" class="Wall"><polygon points="241.79,613.76 241.79,1080.02 251.79,1080.02 251.79,624.76 "/><g id="Door" fill="#ffffff" stroke="#000000" style="fill-opacity: 1; stroke-width: 1; stroke-opacity: 1;" class="Door Swing Beside"><polygon points="241.79,880.77 241.79,963.94 251.79,963.94 251.79,880.77 "/><g id="Threshold" class="Threshold"><polygon points="241.79,880.77 241.79,963.94 251.79,963.94 251.79,880.77 "/></g><g id="Panel" fill="none" style="" class="Panel Left Negative"><g id="PanelArea" fill="none" stroke="none" style="" class="PanelArea"><polygon points="241.79,880.77 241.79,963.94 251.79,963.94 251.79,880.77 "/></g><path d="M241.79,880.77 q-83.16,0.00 -83.16,83.16 l83.16,0.00Z"/></g></g><g id="Door" fill="#ffffff" stroke="#000000" style="fill-opacity: 1; stroke-width: 1; stroke-opacity: 1;" class="Door None Beside"><polygon points="241.79,705.42 241.79,796.19 251.79,796.19 251.79,705.42 "/><g id="Threshold" stroke="#ffffff" style="" class="Threshold"><polygon points="241.79,705.42 241.79,796.19 251.79,796.19 251.79,705.42 "/></g></g></g><g id="Wall" fill="#000000" stroke="#000000" style="fill-opacity: 1; stroke-opacity: 1; stroke-width: 0.2;" class="Wall"><polygon points="44.46,983.13 241.79,983.13 241.79,971.13 44.46,971.13 "/><g id="Door" fill="#ffffff" stroke="#000000" style="fill-opacity: 1; stroke-width: 1; stroke-opacity: 1;" class="Door Swing Beside"><polygon points="109.97,983.13 205.49,983.13 205.49,971.13 109.97,971.13 "/><g id="Threshold" class="Threshold"><polygon points="109.97,983.13 205.49,983.13 205.49,971.13 109.97,971.13 "/></g><g id="Panel" fill="none" style="" class="Panel Left Positive"><g id="PanelArea" fill="none" stroke="none" style="" class="PanelArea"><polygon points="109.97,983.13 205.49,983.13 205.49,971.13 109.97,971.13 "/></g><path d="M205.49,971.13 q0.00,-95.52 -95.52,-95.52 l0.00,95.52Z"/></g></g></g><g id="Wall" fill="#000000" stroke="#000000" style="fill-opacity: 1; stroke-opacity: 1; stroke-width: 0.2;" class="Wall"><polygon points="241.79,877.90 485.79,877.90 485.79,866.90 241.79,866.90 "/></g><g id="Wall" fill="#000000" stroke="#000000" style="fill-opacity: 1; stroke-opacity: 1; stroke-width: 0.2;" class="Wall"><polygon points="241.79,613.76 485.79,613.76 485.79,624.76 251.79,624.76 "/><g id="Window" fill="#f0f0ff" stroke="#000000" style="fill-opacity: 1; stroke-width: 1; stroke-opacity: 1;" class="Window Regular"><polygon points="253.48,613.76 420.67,613.76 420.67,624.76 253.48,624.76 "/><g id="Glass" class="Glass"><polygon points="253.48,613.76 420.67,613.76 420.67,624.76 253.48,624.76 "/></g><g id="Panel" class="Panel"><line x1="260.98017175129195" x2="413.17066598170413" y1="619.2613576252841" y2="619.261357625284"/><line x1="260.98017175129195" x2="260.98017175129195" y1="613.7613576252841" y2="624.7613576252841"/><line x1="413.17066598170413" x2="413.17066598170413" y1="613.761357625284" y2="624.761357625284"/></g></g></g><g id="Wall" fill="#000000" stroke="#000000" style="fill-opacity: 1; stroke-opacity: 1; stroke-width: 0.2;" class="Wall"><polygon points="22.46,51.65 22.46,197.53 31.10,197.53 31.10,51.65 "/></g><g id="Wall" fill="#000000" stroke="#000000" style="fill-opacity: 1; stroke-opacity: 1; stroke-width: 0.2;" class="Wall"><polygon points="484.11,51.65 484.11,197.53 492.30,197.53 492.30,51.65 "/></g><g class="FixedFurniture Shower" fill="#ffffff" stroke="#000000" transform="matrix(-1,0,0,-1,318.5136,1080.0244)" style="fill-opacity: 1; stroke-opacity: 1; stroke-width: 1;"> 
	    <g class="BoundaryPolygon" fill="none" stroke="none">
            <polygon points="0,0 32,0 32,19 0,19"/>
        </g>
        <g class="InnerPolygon"> 
			<rect x="3.7" y="0.5" width="11.2" height="6.1"/>
			<rect x="17.6" y="0.5" width="11.2" height="6.1"/>
			<rect x="28.7" y="0.5" width="3.4" height="6.1"/>
			<rect x="0.5" y="0.5" width="3.2" height="6.1"/>
			<path d="M14.9,8.5c0,1.5-0.4,3.3-1.6,5    c-0.4,0.6-1,1.1-1.1,1.7c-0.2,1.1,0.3,2.8,2.5,3.2c0.5,0.1,1.3,0.1,1.6,0.1h-0.1c0.3,0,1.1,0,1.6-0.1c2.2-0.4,2.7-2.1,2.5-3.2    c-0.1-0.6-0.7-1.1-1.1-1.7c-1.2-1.7-1.6-3.5-1.6-5"/>
			<path d="M12.2,15.3c0.1,0.2,1.6,1.9,4.2,1.9 c2.4-0.1,3.7-1.7,3.9-1.9"/>
			<path d="M14.9,0.5h2.7v8c-0.9,0-1.8,0-2.7,0l0,0 C14.9,5.9,14.9,3.2,14.9,0.5z"/>
		</g>
	    <g class="Indicator"> 
			<path d="M3.7,3.6C5,3.1,5.2,3,5.2,3 c0,1.1,0,0,0,1.1C5.2,4.1,5.1,4.1,3.7,3.6"/>
			<path d="M28.7,3.6 C27.4,3.1,27.2,3,27.2,3c0,1.1,0,0,0,1.1C27.2,4.1,27.3,4.1,28.7,3.6"/>	
		</g>
        <desc>Width:32 Height:97 Depth:19 Elevation:135</desc>
	</g><g class="FixedFurniture ElectricalAppliance SpaceForAppliance2" fill="#ffffff" stroke="#000000" stroke-dasharray="4,4" transform="matrix(0,0.9364,-1.0461,0,482.6154,1020.6198)" style="fill-opacity: 1; stroke-opacity: 1; stroke-width: 1;">
	    <g class="BoundaryPolygon"> 
		    <polygon points="0,0 60,0 60,60 0,60"/>
		</g>	
	    <g class="electricitySign" fill="none">
            <path d="M0,0,30.1,39.8V19.4L59.9,60"/>
		</g>
        <g class="Direction" fill-opacity="0.9" style="display: none;">
            <polygon points="32.009 55.197 32.009 44.581 29 44.581 29 55.197 25.197 55.197 30.5 60 35.803 55.197 32.009 55.197" fill="#444444"/>
        </g> 
        <g class="Name" fill-opacity="0.9" stroke-dasharray="none" style="display: none;">
            <text transform="translate(3 12)" font-size="12" font-family="Verdana, Sans-Serif">SFA</text>
        </g>
        <desc>Width:60 Height:90 Depth:60 Elevation:0</desc>
	</g><g id="FixedFurnitureSet" transform="matrix(0,1,-1,0,485.6621,956.7283)" class="FixedFurnitureSet" fill="#ffffff" stroke="#fc0fc0" style="fill-opacity: 0.4; stroke-opacity: 0.9; stroke-width: 1.5;"><g class="FixedFurniture BaseCabinet" fill="#ffffff" stroke="#000000" transform="matrix(1,0,0,1,0,0)" style="fill-opacity: 1; stroke-opacity: 1; stroke-width: 1;">
        <g class="BoundaryPolygon">
            <polygon points="0.00,0.00 50.29,0.00 50.29,42.35 0.00,42.35 "/>
        </g>
        <g class="Direction" fill-opacity="0.9" style="display: none;">
            <polygon points="26.83,38.96 26.83,28.34 23.82,28.34 23.82,38.96 20.02,38.96 25.32,43.76 30.62,38.96 26.83,38.96 " fill="#444444"/>
        </g> 
        <g class="Name" fill-opacity="0.9" style="display: none;">
            <text transform="translate(3 12)" font-size="12" font-family="Verdana, Sans-Serif">CB</text>
        </g>
        <desc>Width:60 Height:5 Depth:60 Elevation:105</desc>
    </g><g class="FixedFurniture Sink" fill="#ffffff" stroke="#000000" transform="matrix(1,0,0,1,0,0)" style="fill-opacity: 1; stroke-opacity: 1; stroke-width: 1;">
        <g class="BoundaryPolygon" fill="none" stroke="none">
        <polygon points="0.00,0.00 50.29,0.00 50.29,42.35 0.00,42.35 "/>
        </g>
        <g class="InnerPolygon">
            <polygon points="4.19,9.70 46.10,9.70 46.10,38.61 4.19,38.61 "/>
        </g>
        <g class="OuterDrain" stroke-width="0.8">
            <circle cx="25.14497065341249" cy="22.72815064690702" r="3.5"/>
        </g>
        <g class="InnerDrain" stroke-width="0.8">
            <circle cx="25.14497065341249" cy="22.72815064690702" r="2"/>
        </g>
        <g class="Faucet">
            <polygon points="22.63,3.53 28.63,3.53 28.63,17.53 22.63,17.53 "/>
        </g>
        <g class="Direction" fill-opacity="0.9" style="display: none;">
            <polygon points="26.83,38.96 26.83,28.34 23.82,28.34 23.82,38.96 20.02,38.96 25.32,43.76 30.62,38.96 26.83,38.96 " fill="#444444"/>
        </g> 
        <g class="Name" fill-opacity="0.9" style="display: none;">
            <text transform="translate(3 12)" font-size="12" font-family="Verdana, Sans-Serif">SINK</text>
        </g>
        <desc>Width:60 Height:90 Depth:60 Elevation:0</desc>
    </g></g><g class="FixedFurniture Toilet" fill="#ffffff" stroke="#000000" transform="matrix(0,1,-0.9267,0,485.7872,892.8403)" style="fill-opacity: 1; stroke-opacity: 1; stroke-width: 1;">
	   <g class="BoundaryPolygon" fill="none" stroke="none"> 
            <polygon points="0,0 41,0 41,71 0,71"/>
		</g>
        <g class="InnerPolygon">
            <rect x="0.502" y="0.5" width="39.989" height="17.98"/>
            <path d="M40.491,44.237S41.619,70.5,20.907,70.5C-.523,70.5.6,44.237.6,44.237L.5,18.48H40.491Z"/>
            <rect x="17.318" y="7.975" width="6.357" height="3.03"/>
        </g>
        <desc>Width:41 Height:85 Depth:71 Elevation:0</desc>
    </g><g transform="matrix(1,0,0,1,351.4035,1079.7928)" class="FixedFurniture Misc" fill="none" stroke="#000000" style="fill-opacity: 1; stroke-opacity: 1; stroke-width: 1.8; stroke-dasharray: 5, 5;"><desc>Width:120 Height:200 Depth:60 Elevation:0</desc><g class="BoundaryPolygon"><path d="M0.00,0.00 L0.00,-72.51 L-1.18,-83.84 L-6.32,-90.70 L-99.96,-90.70 "/></g></g><g id="FixedFurnitureSet" transform="matrix(0,-1,1,0,44.4865,1080.0244)" class="FixedFurnitureSet" fill="#ffffff" stroke="#fc0fc0" style="fill-opacity: 0.4; stroke-opacity: 0.9; stroke-width: 1.5;"><g class="FixedFurniture Closet" fill="#ffffff" stroke="#000000" transform="matrix(1,0,0,1,0,0)" style="fill-opacity: 1; stroke-opacity: 1; stroke-width: 1;">
        <g class="BoundaryPolygon">
            <polygon points="0.00,0.00 48.76,0.00 48.76,60.00 0.00,60.00 "/>
        </g>
        <g class="Direction" fill-opacity="0.9" style="display: none;">
            <polygon points="25.61,54.70 25.61,44.08 22.60,44.08 22.60,54.70 18.80,54.70 24.10,60.00 29.40,54.70 25.61,54.70 " fill="#444444"/>
        </g> 
        <g class="Name" fill-opacity="0.9" style="display: none;">
            <text transform="translate(3 12)" font-size="12" font-family="Verdana, Sans-Serif">CL</text>
        </g>
        <desc>Width:60 Height:200 Depth:60 Elevation:0</desc>
    </g><g class="FixedFurniture Closet" fill="#ffffff" stroke="#000000" transform="matrix(1,0,0,1,48.7647,0)" style="fill-opacity: 1; stroke-opacity: 1; stroke-width: 1;">
        <g class="BoundaryPolygon">
            <polygon points="0.00,0.00 48.76,0.00 48.76,60.00 0.00,60.00 "/>
        </g>
        <g class="Direction" fill-opacity="0.9" style="display: none;">
            <polygon points="25.61,54.70 25.61,44.08 22.60,44.08 22.60,54.70 18.80,54.70 24.10,60.00 29.40,54.70 25.61,54.70 " fill="#444444"/>
        </g> 
        <g class="Name" fill-opacity="0.9" style="display: none;">
            <text transform="translate(3 12)" font-size="12" font-family="Verdana, Sans-Serif">CL</text>
        </g>
        <desc>Width:60 Height:200 Depth:60 Elevation:0</desc>
     </g></g><g id="FixedFurnitureSet" transform="matrix(0,-1,1,0,44.4865,971.1307)" class="FixedFurnitureSet" fill="#ffffff" stroke="#fc0fc0" style="fill-opacity: 0.4; stroke-opacity: 0.9; stroke-width: 1.5;"><g class="FixedFurniture Closet" fill="#ffffff" stroke="#000000" transform="matrix(1,0,0,1,0,0)" style="fill-opacity: 1; stroke-opacity: 1; stroke-width: 1;">
        <g class="BoundaryPolygon">
            <polygon points="0.00,0.00 54.78,0.00 54.78,60.00 0.00,60.00 "/>
        </g>
        <g class="Direction" fill-opacity="0.9" style="display: none;">
            <polygon points="28.77,54.70 28.77,44.08 25.76,44.08 25.76,54.70 21.96,54.70 27.26,60.00 32.56,54.70 28.77,54.70 " fill="#444444"/>
        </g> 
        <g class="Name" fill-opacity="0.9" style="display: none;">
            <text transform="translate(3 12)" font-size="12" font-family="Verdana, Sans-Serif">CL</text>
        </g>
        <desc>Width:60 Height:200 Depth:60 Elevation:0</desc>
    </g><g class="FixedFurniture Closet" fill="#ffffff" stroke="#000000" transform="matrix(1,0,0,1,54.7836,0)" style="fill-opacity: 1; stroke-opacity: 1; stroke-width: 1;">
        <g class="BoundaryPolygon">
            <polygon points="0.00,0.00 54.78,0.00 54.78,60.00 0.00,60.00 "/>
        </g>
        <g class="Direction" fill-opacity="0.9" style="display: none;">
            <polygon points="28.77,54.70 28.77,44.08 25.76,44.08 25.76,54.70 21.96,54.70 27.26,60.00 32.56,54.70 28.77,54.70 " fill="#444444"/>
        </g> 
        <g class="Name" fill-opacity="0.9" style="display: none;">
            <text transform="translate(3 12)" font-size="12" font-family="Verdana, Sans-Serif">CL</text>
        </g>
        <desc>Width:60 Height:200 Depth:60 Elevation:0</desc>
     </g></g><g class="FixedFurniture CoatCloset" fill="#ffffff" stroke="#000000" transform="matrix(0,-1,1,0,44.4864,861.5671)" style="fill-opacity: 1; stroke-opacity: 1; stroke-width: 1;">
        <g class="BoundaryPolygon">
            <polygon points="0.00,0.00 80.68,0.00 80.68,49.97 0.00,49.97 "/>
        </g>
        <g class="Hanger" fill="#ffffff" stroke="#9a9a9a" stroke-dasharray="5,5">
            <line x1="0" y1="24.986854091098486" x2="80.67646572841747" y2="24.986854091098486"/>
        </g>
        <g class="Direction" fill-opacity="0.9" style="display: none;">
            <polygon points="41.35,45.41 41.35,34.79 38.34,34.79 38.34,45.41 34.54,45.41 39.84,50.71 45.15,45.41 41.35,45.41 " fill="#444444"/>
        </g> 
        <g class="Name" fill-opacity="0.9" style="display: none;">
            <text transform="translate(3 12)" font-size="12" font-family="Verdana, Sans-Serif">CWH</text>
        </g>
        <desc>Width:120 Height:200 Depth:60 Elevation:0</desc>
     </g><g id="FixedFurnitureSet" transform="matrix(0,-1,1,0,44.4865,780.8906)" class="FixedFurnitureSet" fill="#ffffff" stroke="#fc0fc0" style="fill-opacity: 0.4; stroke-opacity: 0.9; stroke-width: 1.5;"><g class="FixedFurniture Closet" fill="#ffffff" stroke="#000000" transform="matrix(1,0,0,1,0,0)" style="fill-opacity: 1; stroke-opacity: 1; stroke-width: 1;">
        <g class="BoundaryPolygon">
            <polygon points="0.00,0.00 55.85,0.00 55.85,60.00 0.00,60.00 "/>
        </g>
        <g class="Direction" fill-opacity="0.9" style="display: none;">
            <polygon points="29.33,54.70 29.33,44.08 26.32,44.08 26.32,54.70 22.52,54.70 27.82,60.00 33.13,54.70 29.33,54.70 " fill="#444444"/>
        </g> 
        <g class="Name" fill-opacity="0.9" style="display: none;">
            <text transform="translate(3 12)" font-size="12" font-family="Verdana, Sans-Serif">CL</text>
        </g>
        <desc>Width:60 Height:200 Depth:60 Elevation:0</desc>
    </g><g class="FixedFurniture Closet" fill="#ffffff" stroke="#000000" transform="matrix(1,0,0,1,55.8536,0)" style="fill-opacity: 1; stroke-opacity: 1; stroke-width: 1;">
        <g class="BoundaryPolygon">
            <polygon points="0.00,0.00 55.85,0.00 55.85,60.00 0.00,60.00 "/>
        </g>
        <g class="Direction" fill-opacity="0.9" style="display: none;">
            <polygon points="29.33,54.70 29.33,44.08 26.32,44.08 26.32,54.70 22.52,54.70 27.82,60.00 33.13,54.70 29.33,54.70 " fill="#444444"/>
        </g> 
        <g class="Name" fill-opacity="0.9" style="display: none;">
            <text transform="translate(3 12)" font-size="12" font-family="Verdana, Sans-Serif">CL</text>
        </g>
        <desc>Width:60 Height:200 Depth:60 Elevation:0</desc>
    </g><g class="FixedFurniture Closet" fill="#ffffff" stroke="#000000" transform="matrix(1,0,0,1,111.7073,0)" style="fill-opacity: 1; stroke-opacity: 1; stroke-width: 1;">
        <g class="BoundaryPolygon">
            <polygon points="0.00,0.00 55.85,0.00 55.85,60.00 0.00,60.00 "/>
        </g>
        <g class="Direction" fill-opacity="0.9" style="display: none;">
            <polygon points="29.33,54.70 29.33,44.08 26.32,44.08 26.32,54.70 22.52,54.70 27.82,60.00 33.13,54.70 29.33,54.70 " fill="#444444"/>
        </g> 
        <g class="Name" fill-opacity="0.9" style="display: none;">
            <text transform="translate(3 12)" font-size="12" font-family="Verdana, Sans-Serif">CL</text>
        </g>
        <desc>Width:60 Height:200 Depth:60 Elevation:0</desc>
     </g></g><g class="FixedFurniture ElectricalAppliance Refrigerator" fill="#ffffff" stroke="#000000" transform="matrix(1.0581,0,0,1,422.3012,624.8551)" style="fill-opacity: 1; stroke-opacity: 1; stroke-width: 1;">
        <g class="BoundaryPolygon">
            <polygon points="0,0 60,0 60,60 0,60"/>
        </g>
        <g class="electricitySign" fill="none" style="display: block;">
            <path d="M0,0,30,37.1v-18L60,56.3"/>
        </g>
        <g class="Doors">
            <rect y="56" width="60" height="4"/>
        </g>
        <g class="Direction" fill-opacity="0.9" style="display: none;">
            <polygon points="32.009 55.197 32.009 44.581 29 44.581 29 55.197 25.197 55.197 30.5 60 35.803 55.197 32.009 55.197" fill="#444444"/>
        </g> 
        <g class="Name" fill-opacity="0.9" style="display: none;">
            <text transform="translate(3 12)" font-size="12" font-family="Verdana, Sans-Serif">REF</text>
        </g>
        <desc>Width:60 Height:170 Depth:60 Elevation:0</desc>
    </g><g class="FixedFurniture BaseCabinet" fill="#ffffff" stroke="#000000" transform="matrix(1,0,0,1,252.4212,624.7613)" style="fill-opacity: 1; stroke-opacity: 1; stroke-width: 1;">
        <g class="BoundaryPolygon">
            <polygon points="0.00,0.00 169.88,0.00 169.88,60.00 0.00,60.00 "/>
        </g>
        <g class="Direction" fill-opacity="0.9" style="display: none;">
            <polygon points="90.63,55.20 90.63,44.58 87.62,44.58 87.62,55.20 83.81,55.20 89.12,60.00 94.42,55.20 90.63,55.20 " fill="#444444"/>
        </g> 
        <g class="Name" fill-opacity="0.9" style="display: none;">
            <text transform="translate(3 12)" font-size="12" font-family="Verdana, Sans-Serif">CB</text>
        </g>
        <desc>Width:60 Height:90 Depth:60 Elevation:0</desc>
    </g><g class="FixedFurniture WallCabinet" fill="#ffffff" stroke="#000000" transform="matrix(1,0,0,1,252.4212,624.7614)" style="fill-opacity: 0.7; stroke-opacity: 1; stroke-width: 1.5;">	
        <g class="BoundaryPolygon">
            <polygon points="0.00,0.00 169.38,0.00 169.38,30.00 0.00,30.00 "/>
        </g>
        <g class="Direction" fill-opacity="0.9" style="display: none;">
            <polygon points="90.36,25.20 90.36,14.58 87.35,14.58 87.35,25.20 83.55,25.20 88.85,30.00 94.15,25.20 90.36,25.20 " fill="#444444"/>
        </g> 
        <g class="Name" fill-opacity="0.9" style="display: none;">
            <text transform="translate(3 12)" font-size="12" font-family="Verdana, Sans-Serif">UC</text>
        </g>
        <desc>Width:60 Height:60 Depth:30 Elevation:140</desc>
    </g><g class="FixedFurniture BaseCabinet" fill="#ffffff" stroke="#000000" transform="matrix(-1,0,0,-1,424.2005,866.9037)" style="fill-opacity: 1; stroke-opacity: 1; stroke-width: 1;">
        <g class="BoundaryPolygon">
            <polygon points="0.00,0.00 171.84,0.00 171.84,60.00 0.00,60.00 "/>
        </g>
        <g class="Direction" fill-opacity="0.9" style="display: none;">
            <polygon points="91.67,55.20 91.67,44.58 88.67,44.58 88.67,55.20 84.86,55.20 90.17,60.00 95.47,55.20 91.67,55.20 " fill="#444444"/>
        </g> 
        <g class="Name" fill-opacity="0.9" style="display: none;">
            <text transform="translate(3 12)" font-size="12" font-family="Verdana, Sans-Serif">CB</text>
        </g>
        <desc>Width:60 Height:90 Depth:60 Elevation:0</desc>
    </g><g class="FixedFurniture ElectricalAppliance" fill="#ffffff" stroke="#000000" transform="matrix(-1.0285,0,0,-1,485.7872,866.8099)" style="fill-opacity: 1; stroke-opacity: 1; stroke-width: 1;">
	    <g class="BoundaryPolygon"> 
		    <polygon points="0,0 60,0 60,60 0,60"/>
		</g>	
	    <g class="electricitySign" fill="none" style="display: block;">
            <path d="M0,0,30.1,39.8V19.4L59.9,60"/>
		</g>
        <g class="Direction" fill-opacity="0.9" style="display: none;">
            <polygon points="32.009 55.197 32.009 44.581 29 44.581 29 55.197 25.197 55.197 30.5 60 35.803 55.197 32.009 55.197" fill="#444444"/>
        </g> 
        <g class="Name" fill-opacity="0.9" style="display: none;">
            <text transform="translate(3 12)" font-size="12" font-family="Verdana, Sans-Serif">HEB</text>
        </g>
        <desc>Width:60 Height:200 Depth:60 Elevation:0</desc>
	</g><g class="FixedFurniture ElectricalAppliance IntegratedStove" fill="#ffffff" stroke="#000000" transform="matrix(-1,0,0,-1,423.6298,866.9037)" style="fill-opacity: 1; stroke-opacity: 1; stroke-width: 1;">
        <g class="BoundaryPolygon" fill="none" stroke="none">
            <polygon points="0.00,0.00 60.71,0.00 60.71,60.00 0.00,60.00 "/>
        </g>
        <g class="InnerPolygon">
            <polygon points="2.00,2.00 58.68,2.00 58.68,58.00 2.00,58.00 "/>
        </g>
        <g class="OuterCircle">
            <circle cx="16.18869067679442" cy="16" r="8"/>
            <circle cx="44.518899361184644" cy="16" r="8"/>
            <circle cx="16.18869067679442" cy="44" r="8"/>
            <circle cx="44.518899361184644" cy="44" r="8"/>
        </g>
        <g class="Direction" fill-opacity="0.9" style="display: none;">
            <polygon points="32.39,55.20 32.39,44.58 29.38,44.58 29.38,55.20 25.57,55.20 30.88,60.00 36.18,55.20 32.39,55.20 " fill="#444444"/>
        </g> 
        <g class="Name" fill-opacity="0.9" style="display: none;">
            <text transform="translate(3 12)" font-size="12" font-family="Verdana, Sans-Serif">INT_STOVE</text>
        </g>
        <desc>Width:60 Height:90 Depth:30 Elevation:0</desc>
    </g><g class="FixedFurniture DoubleSinkRight" fill="#ffffff" stroke="#000000" transform="matrix(-1,0,0,-1,324.3595,853.4988)" style="fill-opacity: 1; stroke-opacity: 1; stroke-width: 1;">
        <g class="BoundaryPolygon" fill="none" stroke="none">
            <polygon points="0.00,0.00 68.29,0.00 68.29,45.53 0.00,45.53 0.00,0.00 "/>
        </g>
        <g class="InnerPolygonLeft">
            <polygon points="4.88,9.90 24.39,9.90 24.39,41.66 4.88,41.66 "/>
        </g>
        <g class="InnerPolygonRight">
            <polygon points="27.32,10.00 63.41,10.00 63.41,41.74 27.32,41.74 "/>
        </g>
        <g class="OuterDrain" stroke-width="0.8">
            <circle cx="14.633205927495395" cy="24.662537275313007" r="3.5"/>
            <circle cx="44.87516484431919" cy="24.662537275313007" r="3.5"/>
        </g>
        <g class="InnerDrain" stroke-width="0.8">
            <circle cx="14.633205927495395" cy="24.662537275313007" r="2"/>
            <circle cx="44.87516484431919" cy="24.662537275313007" r="2"/>
        </g>
        <g class="Faucet">
            <polygon points="31.22,3.72 37.22,3.72 37.22,17.72 31.22,17.72 "/>
        </g>
        <g class="Direction" fill-opacity="0.9" style="display: none;">
            <polygon points="35.62,41.51 35.62,30.89 32.61,30.89 32.61,41.51 28.80,41.51 34.11,46.81 39.41,41.51 35.62,41.51 " fill="#444444"/>
        </g> 
        <g class="Name" fill-opacity="0.9" style="display: none;">
            <text transform="translate(3 12)" font-size="12" font-family="Verdana, Sans-Serif">DSINK</text>
        </g>
        <desc>Width:70 Height:90 Depth:60 Elevation:0</desc>
    </g><g class="FixedFurniture WallCabinet" fill="#ffffff" stroke="#000000" transform="matrix(-1,0,0,-1,424.4905,866.9037)" style="fill-opacity: 0.7; stroke-opacity: 1; stroke-width: 1.5;">	
        <g class="BoundaryPolygon">
            <polygon points="0.00,0.00 172.13,0.00 172.13,30.00 0.00,30.00 "/>
        </g>
        <g class="Direction" fill-opacity="0.9" style="display: none;">
            <polygon points="91.83,25.20 91.83,14.58 88.82,14.58 88.82,25.20 85.01,25.20 90.32,30.00 95.62,25.20 91.83,25.20 " fill="#444444"/>
        </g> 
        <g class="Name" fill-opacity="0.9" style="display: none;">
            <text transform="translate(3 12)" font-size="12" font-family="Verdana, Sans-Serif">UC</text>
        </g>
        <desc>Width:60 Height:60 Depth:30 Elevation:140</desc>
    </g><g fill="#0000ff" stroke="#0000ff" style="display: none;" class="SelectionControls"><g style="display: none;" class="rotateControl"><circle cx="176.07940513505395" cy="731.2275981720891" r="5" style="stroke : none; fill-opacity: 0.5; cursor:crosshair"/></g><g style="display: none;" class="ResizeNControl"><circle cx="0" cy="0" r="5" style="stroke : none; fill-opacity: 0.5"/></g><g style="display: none;" class="ResizeNEControl"><circle cx="0" cy="0" r="5" style="stroke : none; fill-opacity: 0.5"/></g><g style="display: none;" class="ResizeEControl"><circle cx="0" cy="0" r="5" style="stroke : none; fill-opacity: 0.5"/></g><g style="display: none;" class="ResizeSEControl"><circle cx="0" cy="0" r="5" style="stroke : none; fill-opacity: 0.5"/></g><g style="display: none;" class="ResizeSControl"><circle cx="0" cy="0" r="5" style="stroke : none; fill-opacity: 0.5"/></g><g style="display: none;" class="ResizeSWControl"><circle cx="0" cy="0" r="5" style="stroke : none; fill-opacity: 0.5"/></g><g style="display: none;" class="ResizeWControl"><circle cx="0" cy="0" r="5" style="stroke : none; fill-opacity: 0.5"/></g><g style="display: none;" class="ResizeNWControl"><circle cx="0" cy="0" r="5" style="stroke : none; fill-opacity: 0.5"/></g><g style="display: none;" class="removeControl"><polygon style="stroke : none; fill-opacity: 0.1" points="155.14,761.23 197.02,761.23 197.02,801.04 155.14,801.04 "/></g><g style="display: none;" class="copyPasteControl"><polygon style="stroke : none; fill-opacity: 0.1"/></g><g style="display: none;" class="translateControl"><polygon style="stroke : none; fill-opacity: 0.1; cursor:move" points="155.14,761.23 197.02,761.23 197.02,801.04 155.14,801.04 "/></g></g><g fill="#0000ff" stroke="#0000ff" style="display: none;" class="SelectionControls"><polygon fill="none" stroke="#0000ff" style="" points="44.23,613.38 242.02,613.38 242.02,971.51 44.23,971.51 "/><g style="display: none;" class="rotateControl"><circle cx="143.12250259599148" cy="583.380673172089" r="5" style="stroke : none; fill-opacity: 0.5; cursor:crosshair"/></g><g style="display: none;" class="ResizeNControl"><circle cx="0" cy="0" r="5" style="stroke : none; fill-opacity: 0.5"/></g><g style="display: none;" class="ResizeNEControl"><circle cx="0" cy="0" r="5" style="stroke : none; fill-opacity: 0.5"/></g><g style="display: none;" class="ResizeEControl"><circle cx="0" cy="0" r="5" style="stroke : none; fill-opacity: 0.5"/></g><g style="display: none;" class="ResizeSEControl"><circle cx="0" cy="0" r="5" style="stroke : none; fill-opacity: 0.5"/></g><g style="display: none;" class="ResizeSControl"><circle cx="0" cy="0" r="5" style="stroke : none; fill-opacity: 0.5"/></g><g style="display: none;" class="ResizeSWControl"><circle cx="0" cy="0" r="5" style="stroke : none; fill-opacity: 0.5"/></g><g style="display: none;" class="ResizeWControl"><circle cx="0" cy="0" r="5" style="stroke : none; fill-opacity: 0.5"/></g><g style="display: none;" class="ResizeNWControl"><circle cx="0" cy="0" r="5" style="stroke : none; fill-opacity: 0.5"/></g><g style="display: none;" class="removeControl"><polygon style="stroke : none; fill-opacity: 0.1"/></g><g style="display: none;" class="copyPasteControl"><polygon style="stroke : none; fill-opacity: 0.1"/></g><g style="display: none;" class="translateControl"><polygon style="stroke : none; fill-opacity: 0.1; cursor:move"/></g></g></g></g></g></svg>
