<?xml version="1.0"?>
<svg xmlns="http://www.w3.org/2000/svg" xmlns:xlink="http://www.w3.org/1999/xlink" height="1122.770034790039" version="1.1" width="921.2800445556641" id="temp" viewBox="0 0 921.2800445556641 1122.770034790039"><defs/><g id="Model" class="Model v1-1"><g class="Floor"><g id="Floor-1" transform="matrix(1,0,0,1,0,0)" class="Floorplan Floor-1"><g id="00a86616-7fc1-4b76-af5e-6a4b57b50f70" class="Space Kitchen" fill="#ffffff" stroke="#ffffff" style="fill-opacity: 1; stroke-opacity: 1; stroke-width: 0.2;"><polygon points="893.62,720.11 648.84,720.11 648.84,777.22 647.92,777.22 647.92,440.64 893.62,440.64 "/><g transform="matrix(1,0,0,1,647.9205,440.6389)" class="Dimension"><g transform="matrix(1,0,0,1,0,0)" style="display: none;" class="Visual"><g id="mark1" fill="#000000" stroke="none" transform="matrix(1,0,0,1,122.8476,0)" style="fill-opacity: 1; pointer-events: visible;" class="DimensionMark"><polygon points="-5,5,0,0,5,5"/></g><g id="mark2" fill="#000000" stroke="none" transform="matrix(1,0,0,1,245.6951,168.2906)" style="fill-opacity: 1; pointer-events: visible;" class="DimensionMark"><polygon points="-5,-5,0,0,-5,5"/></g><g id="mark3" fill="#000000" stroke="none" transform="matrix(1,0,0,1,122.8476,279.4666)" style="fill-opacity: 1; pointer-events: visible;" class="DimensionMark"><polygon points="-5,-5,0,0,5,-5"/></g><g id="mark4" fill="#000000" stroke="none" transform="matrix(1,0,0,1,0,168.2906)" style="fill-opacity: 1; pointer-events: visible;" class="DimensionMark"><polygon points="5,5,0,0,5,-5"/></g></g><g transform="matrix(1,0,0,1,75.4051,114.7613)" class="SpaceDimensionsLabel"><g id="NameLabel" style="display: block;" class="TextLabel NameLabel"><text x="0" y="0em" fill="#000000" stroke="none" style="font-family: Verdana; font-size: 33px; fill-opacity: 1; cursor: default;">K</text></g><g id="DimensionMeasureLabel" transform="matrix(1,0,0,1,-75.0938,40.0624)" style="display: none;" class="TextLabel DimensionMeasureLabel"><text x="0" y="0em" fill="#000000" stroke="none" style="font-family: Verdana; font-size: 33px; fill-opacity: 1; cursor: default;">8'1" x 9'2"</text><text x="0" y="0" fill="#000000" stroke="none" style="font-family: Verdana; font-size: 33px; fill-opacity: 1; cursor: default;"/></g></g></g></g><g id="133c1c27-3d2e-44e0-a956-60d71cd295d9" class="Space Room" fill="#ffffff" stroke="#ffffff" style="fill-opacity: 1; stroke-opacity: 1; stroke-width: 0.2;"><polygon points="647.92,777.22 446.90,777.22 446.90,776.47 142.57,776.47 142.62,440.64 647.92,440.64 "/><g transform="matrix(1,0,0,1,142.5985,440.6389)" class="Dimension"><g transform="matrix(1,0,0,1,0,0)" style="display: none;" class="Visual"><g id="mark1" fill="#000000" stroke="none" transform="matrix(1,0,0,1,252.6486,0)" style="fill-opacity: 1; pointer-events: visible;" class="DimensionMark"><polygon points="-5,5,0,0,5,5"/></g><g id="mark2" fill="#000000" stroke="none" transform="matrix(1,0,0,1,505.322,168.2906)" style="fill-opacity: 1; pointer-events: visible;" class="DimensionMark"><polygon points="-5,-5,0,0,-5,5"/></g><g id="mark3" fill="#000000" stroke="none" transform="matrix(1,0,0,1,252.6486,335.8329)" style="fill-opacity: 1; pointer-events: visible;" class="DimensionMark"><polygon points="-5,-5,0,0,5,-5"/></g><g id="mark4" fill="#000000" stroke="none" transform="matrix(1,0,0,1,0,168.2906)" style="fill-opacity: 1; pointer-events: visible;" class="DimensionMark"><polygon points="5,5,0,0,5,-5"/></g></g><g transform="matrix(1,0,0,1,222.3952,167.3798)" class="SpaceDimensionsLabel"><g id="NameLabel" style="display: block;" class="TextLabel NameLabel"><text x="0" y="0em" fill="#000000" stroke="none" style="font-family: Verdana; font-size: 33px; fill-opacity: 1; cursor: default;">AH</text></g><g id="DimensionMeasureLabel" transform="matrix(1,0,0,1,-85.461,40.0624)" style="display: none;" class="TextLabel DimensionMeasureLabel"><text x="0" y="0em" fill="#000000" stroke="none" style="font-family: Verdana; font-size: 33px; fill-opacity: 1; cursor: default;">16'7" x 11'0"</text><text x="0" y="0" fill="#000000" stroke="none" style="font-family: Verdana; font-size: 33px; fill-opacity: 1; cursor: default;"/></g></g></g></g><g id="1790b02d-4f87-48b2-96fa-8e5b66741d6a" class="Space Bath" fill="#ffffff" stroke="#ffffff" style="fill-opacity: 1; stroke-opacity: 1; stroke-width: 0.2;"><polygon points="893.62,901.86 838.91,901.86 838.91,906.44 663.84,906.44 663.84,730.53 893.62,730.53 "/><g transform="matrix(1,0,0,1,663.8367,730.5323)" class="Dimension"><g transform="matrix(1,0,0,1,0,0)" style="display: none;" class="Visual"><g id="mark1" fill="#000000" stroke="none" transform="matrix(1,0,0,1,114.8894,0)" style="fill-opacity: 1; pointer-events: visible;" class="DimensionMark"><polygon points="-5,5,0,0,5,5"/></g><g id="mark2" fill="#000000" stroke="none" transform="matrix(1,0,0,1,229.7789,87.9537)" style="fill-opacity: 1; pointer-events: visible;" class="DimensionMark"><polygon points="-5,-5,0,0,-5,5"/></g><g id="mark3" fill="#000000" stroke="none" transform="matrix(1,0,0,1,114.8894,175.9074)" style="fill-opacity: 1; pointer-events: visible;" class="DimensionMark"><polygon points="-5,-5,0,0,5,-5"/></g><g id="mark4" fill="#000000" stroke="none" transform="matrix(1,0,0,1,0,87.9537)" style="fill-opacity: 1; pointer-events: visible;" class="DimensionMark"><polygon points="5,5,0,0,5,-5"/></g></g><g transform="matrix(1,0,0,1,58.7422,118.0726)" class="SpaceDimensionsLabel"><g id="NameLabel" style="display: block;" class="TextLabel NameLabel"><text x="0" y="0em" fill="#000000" stroke="none" style="font-family: Verdana; font-size: 33px; fill-opacity: 1; cursor: default;">KH</text></g><g id="DimensionMeasureLabel" transform="matrix(1,0,0,1,-63.4687,40.0624)" style="display: none;" class="TextLabel DimensionMeasureLabel"><text x="0" y="0em" fill="#000000" stroke="none" style="font-family: Verdana; font-size: 33px; fill-opacity: 1; cursor: default;">7'6" x 5'9"</text><text x="0" y="0" fill="#000000" stroke="none" style="font-family: Verdana; font-size: 33px; fill-opacity: 1; cursor: default;"/></g></g></g></g><g id="5f968a8f-58ce-4f18-b976-b161a053dd84" class="Space Room" fill="#ffffff" stroke="#ffffff" style="fill-opacity: 1; stroke-opacity: 1; stroke-width: 0.2;"><polygon points="431.90,906.44 401.16,906.44 401.16,1097.62 142.57,1097.62 142.57,787.73 431.90,787.73 "/><g transform="matrix(1,0,0,1,142.5737,787.7274)" class="Dimension"><g transform="matrix(1,0,0,1,0,0)" style="display: none;" class="Visual"><g id="mark1" fill="#000000" stroke="none" transform="matrix(1,0,0,1,144.6619,0)" style="fill-opacity: 1; pointer-events: visible;" class="DimensionMark"><polygon points="-5,5,0,0,5,5"/></g><g id="mark2" fill="#000000" stroke="none" transform="matrix(1,0,0,1,258.5824,154.9472)" style="fill-opacity: 1; pointer-events: visible;" class="DimensionMark"><polygon points="-5,-5,0,0,-5,5"/></g><g id="mark3" fill="#000000" stroke="none" transform="matrix(1,0,0,1,144.6619,309.8943)" style="fill-opacity: 1; pointer-events: visible;" class="DimensionMark"><polygon points="-5,-5,0,0,5,-5"/></g><g id="mark4" fill="#000000" stroke="none" transform="matrix(1,0,0,1,0,154.9472)" style="fill-opacity: 1; pointer-events: visible;" class="DimensionMark"><polygon points="5,5,0,0,5,-5"/></g></g><g transform="matrix(1,0,0,1,98.2818,178.591)" class="SpaceDimensionsLabel"><g id="NameLabel" style="display: block;" class="TextLabel NameLabel"><text x="0" y="0em" fill="#000000" stroke="none" style="font-family: Verdana; font-size: 33px; fill-opacity: 1; cursor: default;">AH</text></g><g id="DimensionMeasureLabel" transform="matrix(1,0,0,1,-74.9766,40.0624)" style="display: none;" class="TextLabel DimensionMeasureLabel"><text x="0" y="0em" fill="#000000" stroke="none" style="font-family: Verdana; font-size: 33px; fill-opacity: 1; cursor: default;">8'6" x 10'2"</text><text x="0" y="0" fill="#000000" stroke="none" style="font-family: Verdana; font-size: 33px; fill-opacity: 1; cursor: default;"/></g></g></g></g><g id="c235c35e-1f28-44be-a5ad-22f4b6cd921a" class="Space Outdoor Balcony Glazed" fill="#ffffff" stroke="#000000" style="stroke-width: 0.2; fill-opacity: 1; stroke-opacity: 1;"><polygon points="484.82,400.62 485.00,179.24 897.02,179.24 897.02,400.61 484.82,400.62 484.82,400.62 "/><g transform="matrix(1,0,0,1,484.9066,179.2428)" class="Dimension"><g transform="matrix(1,0,0,1,0,0)" style="display: none;" class="Visual"><g id="mark1" fill="#000000" stroke="none" transform="matrix(1,0,0,1,206.0107,0)" style="fill-opacity: 1; pointer-events: visible;" class="DimensionMark"><polygon points="-5,5,0,0,5,5"/></g><g id="mark2" fill="#000000" stroke="none" transform="matrix(1,0,0,1,412.1114,110.6866)" style="fill-opacity: 1; pointer-events: visible;" class="DimensionMark"><polygon points="-5,-5,0,0,-5,5"/></g><g id="mark3" fill="#000000" stroke="none" transform="matrix(1,0,0,1,206.0107,221.3681)" style="fill-opacity: 1; pointer-events: visible;" class="DimensionMark"><polygon points="-5,-5,0,0,5,-5"/></g><g id="mark4" fill="#000000" stroke="none" transform="matrix(1,0,0,1,0,110.6866)" style="fill-opacity: 1; pointer-events: visible;" class="DimensionMark"><polygon points="5,5,0,0,5,-5"/></g></g><g transform="matrix(1,0,0,1,39.5774,90.0668)" class="SpaceDimensionsLabel"><g id="NameLabel" style="display: block;" class="TextLabel NameLabel"><text x="0" y="0em" fill="#000000" stroke="none" style="font-family: Verdana; font-size: 33px; fill-opacity: 1; cursor: default;">LASITETTU PARVEKE</text></g><g id="DimensionMeasureLabel" transform="matrix(1,0,0,1,75.9532,40.0624)" style="display: none;" class="TextLabel DimensionMeasureLabel"><text x="0" y="0em" fill="#000000" stroke="none" style="font-family: Verdana; font-size: 33px; fill-opacity: 1; cursor: default;">13'6" x 7'3"</text><text x="0" y="0" fill="#000000" stroke="none" style="font-family: Verdana; font-size: 33px; fill-opacity: 1; cursor: default;"/></g></g></g></g><g id="5434d7ba-21d9-4222-a193-ac30ac018d95" class="Space Entry Lobby" fill="#ffffff" stroke="#ffffff" style="fill-opacity: 1; stroke-opacity: 1; stroke-width: 0.2;"><polygon points="648.84,906.44 446.90,906.44 446.90,777.22 648.84,777.22 "/><g transform="matrix(1,0,0,1,446.8974,777.22)" class="Dimension"><g transform="matrix(1,0,0,1,0,0)" style="display: none;" class="Visual"><g id="mark1" fill="#000000" stroke="none" transform="matrix(1,0,0,1,100.9696,0)" style="fill-opacity: 1; pointer-events: visible;" class="DimensionMark"><polygon points="-5,5,0,0,5,5"/></g><g id="mark2" fill="#000000" stroke="none" transform="matrix(1,0,0,1,201.9393,64.6099)" style="fill-opacity: 1; pointer-events: visible;" class="DimensionMark"><polygon points="-5,-5,0,0,-5,5"/></g><g id="mark3" fill="#000000" stroke="none" transform="matrix(1,0,0,1,100.9696,129.2197)" style="fill-opacity: 1; pointer-events: visible;" class="DimensionMark"><polygon points="-5,-5,0,0,5,-5"/></g><g id="mark4" fill="#000000" stroke="none" transform="matrix(1,0,0,1,0,64.6099)" style="fill-opacity: 1; pointer-events: visible;" class="DimensionMark"><polygon points="5,5,0,0,5,-5"/></g></g><g transform="matrix(1,0,0,1,74.5126,69.1174)" class="SpaceDimensionsLabel"><g id="NameLabel" style="display: block;" class="TextLabel NameLabel"><text x="0" y="0em" fill="#000000" stroke="none" style="font-family: Verdana; font-size: 33px; fill-opacity: 1; cursor: default;">ET</text></g><g id="DimensionMeasureLabel" transform="matrix(1,0,0,1,-66.4063,40.0624)" style="display: none;" class="TextLabel DimensionMeasureLabel"><text x="0" y="0em" fill="#000000" stroke="none" style="font-family: Verdana; font-size: 33px; fill-opacity: 1; cursor: default;">6'8" x 4'3"</text><text x="0" y="0" fill="#000000" stroke="none" style="font-family: Verdana; font-size: 33px; fill-opacity: 1; cursor: default;"/></g></g></g></g><g id="Wall" class="Wall External" fill="#000000" stroke="#000000" style="fill-opacity: 1; stroke-opacity: 1; stroke-width: 0.2;"><polygon points="142.62,440.64 893.62,440.64 921.28,400.61 100.60,400.61 "/><g id="Door" fill="#ffffff" stroke="#000000" style="fill-opacity: 1; stroke-width: 1; stroke-opacity: 1;" class="Door Swing Beside"><polygon points="713.71,440.64 816.39,440.64 816.39,400.61 713.71,400.61 "/><g id="Threshold" class="Threshold"><polygon points="713.71,440.64 816.39,440.64 816.39,400.61 713.71,400.61 "/></g><g id="Panel" fill="none" style="" class="Panel Right Positive"><g id="PanelArea" fill="none" stroke="none" style="" class="PanelArea"><polygon points="713.71,440.64 816.39,440.64 816.39,400.61 713.71,400.61 "/></g><path d="M713.71,400.61 q0.00,-102.68 102.68,-102.68 l0.00,102.68Z"/></g></g><g id="Window" fill="#f0f0ff" stroke="#000000" style="fill-opacity: 1; stroke-width: 1; stroke-opacity: 1;" class="Window Regular"><polygon points="222.39,440.64 440.01,440.64 440.01,400.61 222.39,400.61 "/><g id="Glass" class="Glass"><polygon points="222.39,440.64 440.01,440.64 440.01,400.61 222.39,400.61 "/></g><g id="Panel" class="Panel"><line x1="229.88999938964844" x2="432.510009765625" y1="420.625" y2="420.625"/><line x1="229.88999938964844" x2="229.88999938964844" y1="440.6400146484375" y2="400.6099853515625"/><line x1="432.510009765625" x2="432.510009765625" y1="440.6400146484375" y2="400.6099853515625"/></g></g><g id="Window" fill="#f0f0ff" stroke="#000000" style="fill-opacity: 1; stroke-width: 1; stroke-opacity: 1;" class="Window Regular"><polygon points="551.76,440.64 692.92,440.64 692.92,400.61 551.76,400.61 "/><g id="Glass" class="Glass"><polygon points="551.76,440.64 692.92,440.64 692.92,400.61 551.76,400.61 "/></g><g id="Panel" class="Panel"><line x1="559.260009765625" x2="685.4199829101562" y1="420.625" y2="420.625"/><line x1="559.260009765625" x2="559.260009765625" y1="440.6400146484375" y2="400.6099853515625"/><line x1="685.4199829101562" x2="685.4199829101562" y1="440.6400146484375" y2="400.6099853515625"/></g></g></g><g id="Wall" class="Wall External" fill="#000000" stroke="#000000" style="fill-opacity: 1; stroke-opacity: 1; stroke-width: 0.2;"><polygon points="893.62,440.64 893.62,901.86 921.28,936.76 921.28,400.61 "/></g><g id="Wall" class="Wall External" fill="#000000" stroke="#000000" style="fill-opacity: 1; stroke-opacity: 1; stroke-width: 0.2;"><polygon points="401.16,906.44 401.16,1097.62 423.26,1122.77 423.26,936.76 "/></g><g id="Wall" class="Wall External" fill="#000000" stroke="#000000" style="fill-opacity: 1; stroke-opacity: 1; stroke-width: 0.2;"><polygon points="401.16,1097.62 142.57,1097.62 100.55,1122.77 423.26,1122.77 "/></g><g id="Wall" class="Wall External" fill="#000000" stroke="#000000" style="fill-opacity: 1; stroke-opacity: 1; stroke-width: 0.2;"><polygon points="142.57,1097.62 142.62,440.64 100.60,400.61 100.55,1122.77 "/><g id="Window" fill="#f0f0ff" stroke="#000000" style="fill-opacity: 1; stroke-width: 1; stroke-opacity: 1;" class="Window Regular"><polygon points="142.60,774.30 142.60,731.90 100.58,731.90 100.57,774.30 "/><g id="Glass" class="Glass"><polygon points="142.60,774.30 142.60,731.90 100.58,731.90 100.57,774.30 "/></g><g id="Panel" class="Panel"><line x1="121.58500289916992" x2="121.58500289916992" y1="766.7999877929688" y2="739.4000244140625"/><line x1="142.60000610351562" x2="100.56999969482422" y1="766.7999877929688" y2="766.7999877929688"/><line x1="142.60000610351562" x2="100.58000183105469" y1="739.4000244140625" y2="739.4000244140625"/></g></g><g id="Window" fill="#f0f0ff" stroke="#000000" style="fill-opacity: 1; stroke-width: 1; stroke-opacity: 1;" class="Window Regular"><polygon points="142.58,1078.53 142.59,896.08 100.56,896.07 100.55,1078.53 "/><g id="Glass" class="Glass"><polygon points="142.58,1078.53 142.59,896.08 100.56,896.07 100.55,1078.53 "/></g><g id="Panel" class="Panel"><line x1="121.56541328709626" x2="121.57458610255219" y1="1071.030029308128" y2="903.5800170785908"/><line x1="142.5804126767447" x2="100.55041389744783" y1="1071.030029308128" y2="1071.030029308128"/><line x1="142.58958549220063" x2="100.55958671290374" y1="903.5800170785908" y2="903.5700073129658"/></g></g></g><g id="Wall" class="Wall" fill="#000000" stroke="#000000" style="fill-opacity: 1; stroke-opacity: 1; stroke-width: 0.2;"><polygon points="100.57,787.73 431.90,787.73 446.90,776.47 100.57,776.47 "/><g id="Door" fill="#ffffff" stroke="#000000" style="fill-opacity: 1; stroke-width: 1; stroke-opacity: 1;" class="Door Slide Beside"><polygon points="282.81,787.73 366.59,787.73 366.59,776.47 282.81,776.47 "/><g id="Threshold" stroke="#ffffff" style="" class="Threshold"><polygon points="282.81,787.73 366.59,787.73 366.59,776.47 282.81,776.47 "/></g><g id="Panel" class="Panel Left Center"><g id="PanelArea" fill="none" stroke="none" style="" class="PanelArea"><polygon points="282.81,787.73 366.59,787.73 366.59,776.47 282.81,776.47 "/></g><path d="M282.81,780.10 L282.81,784.10 L324.70,784.10 L324.70,780.10  Z"/></g></g></g><g id="Wall" class="Wall" fill="#000000" stroke="#000000" style="fill-opacity: 1; stroke-opacity: 1; stroke-width: 0.2;"><polygon points="431.90,787.73 431.90,936.76 446.90,936.76 446.90,776.47 "/></g><g id="Wall" class="Wall" fill="#000000" stroke="#000000" style="fill-opacity: 1; stroke-opacity: 1; stroke-width: 0.2;"><polygon points="921.28,720.11 648.84,720.11 663.84,730.53 921.28,730.53 "/></g><g id="Wall" class="Wall" fill="#000000" stroke="#000000" style="fill-opacity: 1; stroke-opacity: 1; stroke-width: 0.2;"><polygon points="648.84,720.11 648.84,936.76 663.84,936.76 663.84,730.53 "/><g id="Door" fill="#ffffff" stroke="#000000" style="fill-opacity: 1; stroke-width: 1; stroke-opacity: 1;" class="Door Swing Beside"><polygon points="648.84,802.66 648.84,887.93 663.84,887.93 663.84,802.66 "/><g id="Threshold" class="Threshold"><polygon points="648.84,802.66 648.84,887.93 663.84,887.93 663.84,802.66 "/></g><g id="Panel" fill="none" style="" class="Panel Left Negative"><g id="PanelArea" fill="none" stroke="none" style="" class="PanelArea"><polygon points="648.84,802.66 648.84,887.93 663.84,887.93 663.84,802.66 "/></g><path d="M648.84,802.66 q-85.27,0.00 -85.27,85.27 l85.27,0.00Z"/></g></g></g><g id="Wall" class="Wall" fill="#000000" stroke="#000000" style="fill-opacity: 1; stroke-opacity: 1; stroke-width: 0.2;"><polygon points="921.28,400.61 921.28,162.30 897.02,177.30 897.02,400.61 "/></g><g id="Wall" class="Wall External" fill="#000000" stroke="#000000" style="fill-opacity: 1; stroke-opacity: 1; stroke-width: 0.2;"><polygon points="893.62,901.86 838.91,901.86 838.91,936.76 921.28,936.76 "/></g><g id="Wall" class="Wall External" fill="#000000" stroke="#000000" style="fill-opacity: 1; stroke-opacity: 1; stroke-width: 0.2;"><polygon points="838.91,906.44 401.16,906.44 423.26,936.76 838.91,936.76 "/><g id="Door" fill="#ffffff" stroke="#000000" style="fill-opacity: 1; stroke-width: 1; stroke-opacity: 1;" class="Door Swing Beside"><polygon points="610.91,906.44 511.33,906.44 511.33,936.76 610.91,936.76 "/><g id="Threshold" class="Threshold"><polygon points="610.91,906.44 511.33,906.44 511.33,936.76 610.91,936.76 "/></g><g id="Panel" fill="none" style="" class="Panel Right Positive"><g id="PanelArea" fill="none" stroke="none" style="" class="PanelArea"><polygon points="610.91,906.44 511.33,906.44 511.33,936.76 610.91,936.76 "/></g><path d="M610.91,936.76 q0.00,99.58 -99.58,99.58 l0.00,-99.58Z"/></g></g></g><g id="Wall" class="Wall" fill="#000000" stroke="#000000" style="fill-opacity: 1; stroke-opacity: 1; stroke-width: 0.2;"><polygon points="921.28,162.30 468.58,162.30 483.58,177.30 897.02,177.30 "/><g id="Window" fill="#f0f0ff" stroke="#000000" style="fill-opacity: 1; stroke-width: 1; stroke-opacity: 1;" class="Window Regular"><polygon points="892.04,162.30 490.57,162.30 490.57,177.30 892.04,177.30 "/><g id="Glass" class="Glass"><polygon points="892.04,162.30 490.57,162.30 490.57,177.30 892.04,177.30 "/></g><g id="Panel" class="Panel"><line x1="884.5399780273438" x2="498.07000732421875" y1="169.8000030517578" y2="169.8000030517578"/><line x1="884.5399780273438" x2="884.5399780273438" y1="162.3000030517578" y2="177.3000030517578"/><line x1="498.07000732421875" x2="498.07000732421875" y1="162.3000030517578" y2="177.3000030517578"/></g></g></g><g id="Wall" class="Wall" fill="#000000" stroke="#000000" style="fill-opacity: 1; stroke-opacity: 1; stroke-width: 0.2;"><polygon points="468.58,162.30 468.58,400.61 483.58,400.61 483.58,177.30 "/><g id="Window" fill="#f0f0ff" stroke="#000000" style="fill-opacity: 1; stroke-width: 1; stroke-opacity: 1;" class="Window Regular"><polygon points="468.58,182.29 468.58,396.04 483.58,396.04 483.58,182.29 "/><g id="Glass" class="Glass"><polygon points="468.58,182.29 468.58,396.04 483.58,396.04 483.58,182.29 "/></g><g id="Panel" class="Panel"><line x1="476.0799865722656" x2="476.0799865722656" y1="189.7899932861328" y2="388.5400085449219"/><line x1="468.5799865722656" x2="483.5799865722656" y1="189.7899932861328" y2="189.7899932861328"/><line x1="468.5799865722656" x2="483.5799865722656" y1="388.5400085449219" y2="388.5400085449219"/></g></g></g><g id="Column" class="Column Circle" fill="#000000" stroke="none" style="fill-opacity: 1;"><circle cx="522.3742121585664" cy="207.20852192972131" r="18.006288028706535"/></g><g class="FixedFurniture BaseCabinet" fill="#ffffff" stroke="#000000" transform="matrix(-1,0,0,-1,810.3279,906.4397)" style="fill-opacity: 1; stroke-opacity: 1; stroke-width: 1;">
        <g class="BoundaryPolygon">
            <polygon points="0.00,0.00 100.89,0.00 100.89,28.24 0.00,28.24 "/>
        </g>
        <g class="Direction" fill-opacity="0.9" style="display: none;">
            <polygon points="53.82,25.98 53.82,15.37 50.82,15.37 50.82,25.98 47.01,25.98 52.32,30.79 57.62,25.98 53.82,25.98 " fill="#444444"/>
        </g> 
        <g class="Name" fill-opacity="0.9" style="display: none;">
            <text transform="translate(3 12)" font-size="12" font-family="Verdana, Sans-Serif">CB</text>
        </g>
        <desc>Width:60 Height:90 Depth:60 Elevation:0</desc>
    </g><g class="FixedFurniture RoundSink" fill="#ffffff" stroke="#000000" transform="matrix(-1.3317,0,0,-0.8431,804.0518,906.4397)" style="fill-opacity: 1; stroke-opacity: 1; stroke-width: 1;">
        <g class="BoundaryPolygon" fill="none" stroke="none">
            <polygon points="0,0 46,0 46,50 0,50"/>
        </g>
        <g class="InnerPolygon">
            <circle cx="23" cy="27" r="23"/>
        </g>
        <g class="OuterDrain">
            <circle cx="23" cy="27" r="3.5"/>
        </g>
        <g class="InnerDrain">
            <circle cx="23" cy="27" r="2"/>
        </g>
        <g class="Faucet">
            <polygon points="20 0 26 0 26 14 20 14 20 0"/>
        </g>
        <g class="Name" fill-opacity="0.9" style="display: none;">
            <text transform="translate(6.5 24.5)" font-size="12" font-family="Verdana, Sans-Serif">SINK</text>
        </g>
        <desc>Width:46 Height:90 Depth:50 Elevation:60</desc>
    </g><g class="FixedFurniture Toilet" fill="#ffffff" stroke="#000000" transform="matrix(0,1,-1,0,893.6155,833.9718)" style="fill-opacity: 1; stroke-opacity: 1; stroke-width: 1;">
	   <g class="BoundaryPolygon" fill="none" stroke="none"> 
            <polygon points="0,0 41,0 41,71 0,71"/>
		</g>
        <g class="InnerPolygon">
            <rect x="0.502" y="0.5" width="39.989" height="17.98"/>
            <path d="M40.491,44.237S41.619,70.5,20.907,70.5C-.523,70.5.6,44.237.6,44.237L.5,18.48H40.491Z"/>
            <rect x="17.318" y="7.975" width="6.357" height="3.03"/>
        </g>
        <desc>Width:41 Height:85 Depth:71 Elevation:0</desc>
    </g><g class="FixedFurniture Shower" fill="#ffffff" stroke="#000000" transform="matrix(0,1,-1,0,893.6156,753.5784)" style="fill-opacity: 1; stroke-opacity: 1; stroke-width: 1;"> 
	    <g class="BoundaryPolygon" fill="none" stroke="none">
            <polygon points="0,0 32,0 32,19 0,19"/>
        </g>
        <g class="InnerPolygon"> 
			<rect x="3.7" y="0.5" width="11.2" height="6.1"/>
			<rect x="17.6" y="0.5" width="11.2" height="6.1"/>
			<rect x="28.7" y="0.5" width="3.4" height="6.1"/>
			<rect x="0.5" y="0.5" width="3.2" height="6.1"/>
			<path d="M14.9,8.5c0,1.5-0.4,3.3-1.6,5    c-0.4,0.6-1,1.1-1.1,1.7c-0.2,1.1,0.3,2.8,2.5,3.2c0.5,0.1,1.3,0.1,1.6,0.1h-0.1c0.3,0,1.1,0,1.6-0.1c2.2-0.4,2.7-2.1,2.5-3.2    c-0.1-0.6-0.7-1.1-1.1-1.7c-1.2-1.7-1.6-3.5-1.6-5"/>
			<path d="M12.2,15.3c0.1,0.2,1.6,1.9,4.2,1.9 c2.4-0.1,3.7-1.7,3.9-1.9"/>
			<path d="M14.9,0.5h2.7v8c-0.9,0-1.8,0-2.7,0l0,0 C14.9,5.9,14.9,3.2,14.9,0.5z"/>
		</g>
	    <g class="Indicator"> 
			<path d="M3.7,3.6C5,3.1,5.2,3,5.2,3 c0,1.1,0,0,0,1.1C5.2,4.1,5.1,4.1,3.7,3.6"/>
			<path d="M28.7,3.6 C27.4,3.1,27.2,3,27.2,3c0,1.1,0,0,0,1.1C27.2,4.1,27.3,4.1,28.7,3.6"/>	
		</g>
        <desc>Width:32 Height:97 Depth:19 Elevation:135</desc>
	</g><g transform="matrix(1,0,0,1,810.3267,730.594)" class="FixedFurniture Misc" fill="none" stroke="#000000" style="fill-opacity: 1; stroke-opacity: 1; stroke-width: 1.8; stroke-dasharray: 5, 5;"><desc>Width:120 Height:200 Depth:60 Elevation:0</desc><g class="BoundaryPolygon"><path d="M0.00,0.00 L0.00,86.41 L83.48,86.41 "/></g></g><g class="FixedFurniture ElectricalAppliance SpaceForAppliance2" fill="#ffffff" stroke="#000000" stroke-dasharray="4,4" transform="matrix(1.0546,0,0,1.0546,663.8367,730.9773)" style="fill-opacity: 1; stroke-opacity: 1; stroke-width: 1;">
	    <g class="BoundaryPolygon"> 
		    <polygon points="0,0 60,0 60,60 0,60"/>
		</g>	
	    <g class="electricitySign" fill="none">
            <path d="M0,0,30.1,39.8V19.4L59.9,60"/>
		</g>
        <g class="Direction" fill-opacity="0.9" style="display: none;">
            <polygon points="32.009 55.197 32.009 44.581 29 44.581 29 55.197 25.197 55.197 30.5 60 35.803 55.197 32.009 55.197" fill="#444444"/>
        </g> 
        <g class="Name" fill-opacity="0.9" stroke-dasharray="none" style="display: none;">
            <text transform="translate(3 12)" font-size="12" font-family="Verdana, Sans-Serif">SFA</text>
        </g>
        <desc>Width:60 Height:90 Depth:60 Elevation:0</desc>
	</g><g class="FixedFurniture Closet" fill="#ffffff" stroke="#000000" transform="matrix(0,1,-1,0,431.7255,852.7145)" style="fill-opacity: 1; stroke-opacity: 1; stroke-width: 1;">
        <g class="BoundaryPolygon">
            <polygon points="0.00,0.00 53.67,0.00 53.67,60.00 0.00,60.00 "/>
        </g>
        <g class="Direction" fill-opacity="0.9" style="display: none;">
            <polygon points="28.18,54.70 28.18,44.08 25.18,44.08 25.18,54.70 21.37,54.70 26.68,60.00 31.98,54.70 28.18,54.70 " fill="#444444"/>
        </g> 
        <g class="Name" fill-opacity="0.9" style="display: none;">
            <text transform="translate(3 12)" font-size="12" font-family="Verdana, Sans-Serif">CL</text>
        </g>
        <desc>Width:60 Height:200 Depth:60 Elevation:0</desc>
     </g><g class="FixedFurniture CoatCloset" fill="#ffffff" stroke="#000000" transform="matrix(0,1,-1,0,431.6631,787.9127)" style="fill-opacity: 1; stroke-opacity: 1; stroke-width: 1;">
        <g class="BoundaryPolygon">
            <polygon points="0.00,0.00 64.80,0.00 64.80,60.00 0.00,60.00 "/>
        </g>
        <g class="Hanger" fill="#ffffff" stroke="#9a9a9a" stroke-dasharray="5,5">
            <line x1="0" y1="30" x2="64.80181753353271" y2="30"/>
        </g>
        <g class="Direction" fill-opacity="0.9" style="display: none;">
            <polygon points="33.22,54.52 33.22,43.90 30.21,43.90 30.21,54.52 26.40,54.52 31.71,59.82 37.01,54.52 33.22,54.52 " fill="#444444"/>
        </g> 
        <g class="Name" fill-opacity="0.9" style="display: none;">
            <text transform="translate(3 12)" font-size="12" font-family="Verdana, Sans-Serif">CWH</text>
        </g>
        <desc>Width:120 Height:200 Depth:60 Elevation:0</desc>
     </g><g class="FixedFurniture Closet" fill="#ffffff" stroke="#000000" transform="matrix(0,-1,1,0,447.0693,823.31)" style="fill-opacity: 1; stroke-opacity: 1; stroke-width: 1;">
        <g class="BoundaryPolygon">
            <polygon points="0.00,0.00 46.09,0.00 46.09,60.00 0.00,60.00 "/>
        </g>
        <g class="Direction" fill-opacity="0.9" style="display: none;">
            <polygon points="24.20,54.70 24.20,44.08 21.20,44.08 21.20,54.70 17.39,54.70 22.70,60.00 28.00,54.70 24.20,54.70 " fill="#444444"/>
        </g> 
        <g class="Name" fill-opacity="0.9" style="display: none;">
            <text transform="translate(3 12)" font-size="12" font-family="Verdana, Sans-Serif">CL</text>
        </g>
        <desc>Width:60 Height:200 Depth:60 Elevation:0</desc>
     </g><g class="FixedFurniture CoatCloset" fill="#ffffff" stroke="#000000" transform="matrix(0,-1,1,0,446.9287,906.2558)" style="fill-opacity: 1; stroke-opacity: 1; stroke-width: 1;">
        <g class="BoundaryPolygon">
            <polygon points="0.00,0.00 82.94,0.00 82.94,60.00 0.00,60.00 "/>
        </g>
        <g class="Hanger" fill="#ffffff" stroke="#9a9a9a" stroke-dasharray="5,5">
            <line x1="0" y1="30" x2="82.94579775463363" y2="30"/>
        </g>
        <g class="Direction" fill-opacity="0.9" style="display: none;">
            <polygon points="42.52,54.52 42.52,43.90 39.51,43.90 39.51,54.52 35.70,54.52 41.01,59.82 46.31,54.52 42.52,54.52 " fill="#444444"/>
        </g> 
        <g class="Name" fill-opacity="0.9" style="display: none;">
            <text transform="translate(3 12)" font-size="12" font-family="Verdana, Sans-Serif">CWH</text>
        </g>
        <desc>Width:120 Height:200 Depth:60 Elevation:0</desc>
     </g><g class="FixedFurniture ElectricalAppliance Refrigerator" fill="#ffffff" stroke="#000000" transform="matrix(-1.095,0,0,-1.0945,715.45,720.0541)" style="fill-opacity: 1; stroke-opacity: 1; stroke-width: 1;">
        <g class="BoundaryPolygon">
            <polygon points="0,0 60,0 60,60 0,60"/>
        </g>
        <g class="electricitySign" fill="none" style="display: block;">
            <path d="M0,0,30,37.1v-18L60,56.3"/>
        </g>
        <g class="Doors">
            <rect y="56" width="60" height="4"/>
        </g>
        <g class="Direction" fill-opacity="0.9" style="display: none;">
            <polygon points="32.009 55.197 32.009 44.581 29 44.581 29 55.197 25.197 55.197 30.5 60 35.803 55.197 32.009 55.197" fill="#444444"/>
        </g> 
        <g class="Name" fill-opacity="0.9" style="display: none;">
            <text transform="translate(3 12)" font-size="12" font-family="Verdana, Sans-Serif">REF</text>
        </g>
        <desc>Width:60 Height:170 Depth:60 Elevation:0</desc>
    </g><g transform="matrix(1,0,0,1,715.4556,654.1255)" class="FixedFurniture BaseCabinet" fill="#ffffff" stroke="#000000" style="fill-opacity: 1; stroke-opacity: 1; stroke-width: 1;"><desc>Width:60 Height:90 Depth:60 Elevation:0</desc><g class="BoundaryPolygon"><polygon points="0.00,0.00 115.40,0.00 115.40,-213.68 178.16,-213.80 178.16,64.05 178.16,65.98 0.00,65.67 0.00,0.00 "/></g></g><g class="FixedFurniture ElectricalAppliance IntegratedStove" fill="#ffffff" stroke="#000000" transform="matrix(-1,0,0,-1,830.7694,720.0898)" style="fill-opacity: 1; stroke-opacity: 1; stroke-width: 1;">
        <g class="BoundaryPolygon" fill="none" stroke="none">
            <polygon points="0.00,0.00 60.00,0.00 60.00,65.24 0.00,65.24 "/>
        </g>
        <g class="InnerPolygon">
            <polygon points="2.00,2.00 58.00,2.00 58.00,63.07 2.00,63.07 "/>
        </g>
        <g class="OuterCircle">
            <circle cx="16" cy="17.39813977444671" r="8"/>
            <circle cx="44" cy="17.39813977444671" r="8"/>
            <circle cx="16" cy="47.844884379728455" r="8"/>
            <circle cx="44" cy="47.844884379728455" r="8"/>
        </g>
        <g class="Direction" fill-opacity="0.9" style="display: none;">
            <polygon points="32.01,60.02 32.01,49.40 29.00,49.40 29.00,60.02 25.20,60.02 30.50,64.82 35.80,60.02 32.01,60.02 " fill="#444444"/>
        </g> 
        <g class="Name" fill-opacity="0.9" style="display: none;">
            <text transform="translate(3 12)" font-size="12" font-family="Verdana, Sans-Serif">INT_STOVE</text>
        </g>
        <desc>Width:60 Height:90 Depth:30 Elevation:0</desc>
    </g><g class="FixedFurniture WallCabinet" fill="#ffffff" stroke="#000000" transform="matrix(-1,0,0,-1,771.85,720.1055)" style="fill-opacity: 0.7; stroke-opacity: 1; stroke-width: 1.5;">	
        <g class="BoundaryPolygon">
            <polygon points="0.00,0.00 56.40,0.00 56.40,32.25 0.00,32.25 "/>
        </g>
        <g class="Direction" fill-opacity="0.9" style="display: none;">
            <polygon points="30.09,27.09 30.09,16.47 27.08,16.47 27.08,27.09 23.27,27.09 28.58,31.89 33.88,27.09 30.09,27.09 " fill="#444444"/>
        </g> 
        <g class="Name" fill-opacity="0.9" style="display: none;">
            <text transform="translate(3 12)" font-size="12" font-family="Verdana, Sans-Serif">UC</text>
        </g>
        <desc>Width:60 Height:60 Depth:30 Elevation:140</desc>
    </g><g class="FixedFurniture DoubleSinkRight" fill="#ffffff" stroke="#000000" transform="matrix(0,1,-1,0,893.7592,537.2183)" style="fill-opacity: 1; stroke-opacity: 1; stroke-width: 1;">
        <g class="BoundaryPolygon" fill="none" stroke="none">
            <polygon points="0.00,0.00 61.86,0.00 61.86,60.00 0.00,60.00 0.00,0.00 "/>
        </g>
        <g class="InnerPolygonLeft">
            <polygon points="4.42,9.90 22.09,9.90 22.09,54.90 4.42,54.90 "/>
        </g>
        <g class="InnerPolygonRight">
            <polygon points="24.75,10.00 57.45,10.00 57.45,55.00 24.75,55.00 "/>
        </g>
        <g class="OuterDrain" stroke-width="0.8">
            <circle cx="13.256714478171654" cy="32.5" r="3.5"/>
            <circle cx="40.65392439972641" cy="32.5" r="3.5"/>
        </g>
        <g class="InnerDrain" stroke-width="0.8">
            <circle cx="13.256714478171654" cy="32.5" r="2"/>
            <circle cx="40.65392439972641" cy="32.5" r="2"/>
        </g>
        <g class="Faucet">
            <polygon points="28.28,4.90 34.28,4.90 34.28,18.90 28.28,18.90 "/>
        </g>
        <g class="Direction" fill-opacity="0.9" style="display: none;">
            <polygon points="32.27,54.70 32.27,44.08 29.26,44.08 29.26,54.70 25.45,54.70 30.76,60.00 36.06,54.70 32.27,54.70 " fill="#444444"/>
        </g> 
        <g class="Name" fill-opacity="0.9" style="display: none;">
            <text transform="translate(3 12)" font-size="12" font-family="Verdana, Sans-Serif">DSINK</text>
        </g>
        <desc>Width:70 Height:90 Depth:60 Elevation:0</desc>
    </g><g class="FixedFurniture ElectricalAppliance SpaceForAppliance" fill="#ffffff" stroke="#000000" transform="matrix(0,1,-1,0,892.6702,477.5719)" style="fill-opacity: 1; stroke-opacity: 1; stroke-width: 1;">
	    <g class="BoundaryPolygon"> 
		    <polygon points="0,0 60,0 60,60 0,60"/>
		</g>	
	    <g class="electricitySign" fill="none" stroke-dasharray="4,4" style="display: block;">
            <path d="M0,0,30.1,39.8V19.4L59.9,60"/>
		</g>
        <g class="Direction" fill-opacity="0.9" style="display: none;">
            <polygon points="32.009 55.197 32.009 44.581 29 44.581 29 55.197 25.197 55.197 30.5 60 35.803 55.197 32.009 55.197" fill="#444444"/>
        </g> 
        <g class="Name" fill-opacity="0.9" style="display: none;">
            <text transform="translate(3 12)" font-size="12" font-family="Verdana, Sans-Serif">SFA</text>
        </g>
        <desc>Width:60 Height:90 Depth:60 Elevation:0</desc>
	</g><g transform="matrix(1,0,0,1,892.2732,720.1025)" style="stroke-opacity: 1; fill-opacity: 0.7; stroke-width: 1.5;" class="FixedFurniture WallCabinet" fill="#ffffff" stroke="#000000"><desc>Width:60 Height:60 Depth:50 Elevation:140</desc><g class="BoundaryPolygon"><polygon points="0.00,0.00 -62.98,0.00 -62.98,-31.63 -28.38,-31.63 -28.38,-280.04 1.34,-279.78 1.34,0.00 "/></g></g></g></g></g></svg>
