<?xml version="1.0"?>
<svg xmlns="http://www.w3.org/2000/svg" xmlns:xlink="http://www.w3.org/1999/xlink" height="1498.7199401855469" version="1.1" width="1020.5400085449219" id="temp" viewBox="0 0 1020.5400085449219 1498.7199401855469"><desc>Powered by CubiCasa</desc><defs/><g id="Model" class="Model v1-1"><g class="Floor"><g id="Floor-1" class="Floorplan Floor-1"><g id="66f2383b-2752-4585-8dd7-12d46510bdbe" fill="#ffffff" stroke="#000000" style="fill-opacity: 1; stroke-opacity: 1; stroke-width: 0.2;" class="Space Outdoor"><polygon points="306.46,1338.54 306.46,1498.72 587.20,1498.72 587.20,1338.98 306.46,1338.54 306.46,1338.54 "/><g transform="matrix(1,0,0,1,306.4643,1338.7571)" class="Dimension"><g transform="matrix(1,0,0,1,0,0)" style="display: none;" class="Visual"><g id="mark1" fill="#000000" stroke="none" transform="matrix(1,0,0,1,140.366,0)" style="fill-opacity: 1; pointer-events: visible;" class="DimensionMark"><polygon points="-5,5,0,0,5,5"/></g><g id="mark2" fill="#000000" stroke="none" transform="matrix(1,0,0,1,280.7327,79.8696)" style="fill-opacity: 1; pointer-events: visible;" class="DimensionMark"><polygon points="-5,-5,0,0,-5,5"/></g><g id="mark3" fill="#000000" stroke="none" transform="matrix(1,0,0,1,140.366,159.9595)" style="fill-opacity: 1; pointer-events: visible;" class="DimensionMark"><polygon points="-5,-5,0,0,5,-5"/></g><g id="mark4" fill="#000000" stroke="none" transform="matrix(1,0,0,1,0,79.8696)" style="fill-opacity: 1; pointer-events: visible;" class="DimensionMark"><polygon points="5,5,0,0,5,-5"/></g></g><g transform="matrix(1,0,0,1,140.3019,79.9797)" class="SpaceDimensionsLabel"><g id="NameLabel" style="display: block;" class="TextLabel NameLabel"><text x="0" y="0em" fill="#000000" stroke="none" style="font-family: Verdana; font-size: 33px; fill-opacity: 1; cursor: default;">ULKOTILA</text></g><g id="DimensionMeasureLabel" transform="matrix(1,0,0,1,-4.0547,40.1093)" style="display: none;" class="TextLabel DimensionMeasureLabel"><text x="0" y="0em" fill="#000000" stroke="none" style="font-family: Verdana; font-size: 33px; fill-opacity: 1; cursor: default;">9'3" x 5'3"</text><text x="0" y="0"/></g></g></g></g><g id="4d260b6c-b74b-4c6c-aed8-f2966755d248" fill="#ffffff" stroke="#ffffff" style="fill-opacity: 1; stroke-opacity: 1; stroke-width: 0.2;" class="Space Undefined"><polygon points="573.86,693.67 723.78,693.67 723.78,873.05 573.86,873.05 573.86,1179.24 381.52,1179.24 381.52,1024.09 304.08,1024.09 304.08,1049.50 375.36,1049.50 375.36,1311.54 104.16,1311.54 104.16,1049.50 163.25,1049.50 163.25,1035.50 104.16,1035.50 104.16,190.99 573.86,190.99 "/><g transform="matrix(1,0,0,1,104.1637,190.9906)" class="Dimension"><g transform="matrix(1,0,0,1,0,0)" style="display: none;" class="Visual"><g id="mark1" fill="#000000" stroke="none" transform="matrix(1,0,0,1,271.1981,0)" style="fill-opacity: 1; pointer-events: visible;" class="DimensionMark"><polygon points="-5,5,0,0,5,5"/></g><g id="mark2" fill="#000000" stroke="none" transform="matrix(1,0,0,1,619.6149,560.2731)" style="fill-opacity: 1; pointer-events: visible;" class="DimensionMark"><polygon points="-5,-5,0,0,-5,5"/></g><g id="mark3" fill="#000000" stroke="none" transform="matrix(1,0,0,1,271.1981,1120.5463)" style="fill-opacity: 1; pointer-events: visible;" class="DimensionMark"><polygon points="-5,-5,0,0,5,-5"/></g><g id="mark4" fill="#000000" stroke="none" transform="matrix(1,0,0,1,0,560.2731)" style="fill-opacity: 1; pointer-events: visible;" class="DimensionMark"><polygon points="5,5,0,0,5,-5"/></g></g><g transform="matrix(1,0,0,1,242.6422,588.7552)" class="SpaceDimensionsLabel"><g id="NameLabel" style="display: block;" class="TextLabel NameLabel"><text x="0" y="0em" fill="#000000" stroke="none" style="font-family: Verdana; font-size: 33px; fill-opacity: 1; cursor: default;">UNDEFINED</text></g><g id="DimensionMeasureLabel" transform="matrix(1,0,0,1,-8.7422,41.3437)" style="display: none;" class="TextLabel DimensionMeasureLabel"><text x="0" y="0em" fill="#000000" stroke="none" style="font-family: Verdana; font-size: 33px; fill-opacity: 1; cursor: default;">20'4" x 36'9"</text><text x="0" y="0"/></g></g></g></g><g id="d04d61ae-e726-4b8b-82dd-a2358aa40af4" fill="#ffffff" stroke="#ffffff" style="fill-opacity: 1; stroke-opacity: 1; stroke-width: 0.2;" class="Space Undefined"><polygon points="993.54,679.67 594.86,679.67 594.86,190.99 993.54,190.99 "/><g transform="matrix(1,0,0,1,594.8618,190.9906)" class="Dimension"><g transform="matrix(1,0,0,1,0,0)" style="display: none;" class="Visual"><g id="mark1" fill="#000000" stroke="none" transform="matrix(1,0,0,1,199.3382,0)" style="fill-opacity: 1; pointer-events: visible;" class="DimensionMark"><polygon points="-5,5,0,0,5,5"/></g><g id="mark2" fill="#000000" stroke="none" transform="matrix(1,0,0,1,398.6764,244.3392)" style="fill-opacity: 1; pointer-events: visible;" class="DimensionMark"><polygon points="-5,-5,0,0,-5,5"/></g><g id="mark3" fill="#000000" stroke="none" transform="matrix(1,0,0,1,199.3382,488.6784)" style="fill-opacity: 1; pointer-events: visible;" class="DimensionMark"><polygon points="-5,-5,0,0,5,-5"/></g><g id="mark4" fill="#000000" stroke="none" transform="matrix(1,0,0,1,0,244.3392)" style="fill-opacity: 1; pointer-events: visible;" class="DimensionMark"><polygon points="5,5,0,0,5,-5"/></g></g><g transform="matrix(1,0,0,1,199.3382,244.3392)" class="SpaceDimensionsLabel"><g id="NameLabel" style="display: block;" class="TextLabel NameLabel"><text x="0" y="0em" fill="#000000" stroke="none" style="font-family: Verdana; font-size: 33px; fill-opacity: 1; cursor: default;">UNDEFINED</text></g><g id="DimensionMeasureLabel" transform="matrix(1,0,0,1,-8.7422,41.3437)" style="display: none;" class="TextLabel DimensionMeasureLabel"><text x="0" y="0em" fill="#000000" stroke="none" style="font-family: Verdana; font-size: 33px; fill-opacity: 1; cursor: default;">13'1" x 16'0"</text><text x="0" y="0"/></g></g></g></g><g id="3f35d167-1b2d-4267-9cde-ee66c802452b" fill="#ffffff" stroke="#ffffff" style="fill-opacity: 1; stroke-opacity: 1; stroke-width: 0.2;" class="Space Undefined"><polygon points="993.54,1311.54 594.86,1311.54 594.86,887.60 993.54,887.60 "/><g transform="matrix(1,0,0,1,594.8618,887.6006)" class="Dimension"><g transform="matrix(1,0,0,1,0,0)" style="display: none;" class="Visual"><g id="mark1" fill="#000000" stroke="none" transform="matrix(1,0,0,1,199.3382,0)" style="fill-opacity: 1; pointer-events: visible;" class="DimensionMark"><polygon points="-5,5,0,0,5,5"/></g><g id="mark2" fill="#000000" stroke="none" transform="matrix(1,0,0,1,398.6764,211.9681)" style="fill-opacity: 1; pointer-events: visible;" class="DimensionMark"><polygon points="-5,-5,0,0,-5,5"/></g><g id="mark3" fill="#000000" stroke="none" transform="matrix(1,0,0,1,199.3382,423.9362)" style="fill-opacity: 1; pointer-events: visible;" class="DimensionMark"><polygon points="-5,-5,0,0,5,-5"/></g><g id="mark4" fill="#000000" stroke="none" transform="matrix(1,0,0,1,0,211.9681)" style="fill-opacity: 1; pointer-events: visible;" class="DimensionMark"><polygon points="5,5,0,0,5,-5"/></g></g><g transform="matrix(1,0,0,1,199.3382,211.9681)" class="SpaceDimensionsLabel"><g id="NameLabel" style="display: block;" class="TextLabel NameLabel"><text x="0" y="0em" fill="#000000" stroke="none" style="font-family: Verdana; font-size: 33px; fill-opacity: 1; cursor: default;">UNDEFINED</text></g><g id="DimensionMeasureLabel" transform="matrix(1,0,0,1,-19.2344,41.3437)" style="display: none;" class="TextLabel DimensionMeasureLabel"><text x="0" y="0em" fill="#000000" stroke="none" style="font-family: Verdana; font-size: 33px; fill-opacity: 1; cursor: default;">13'1" x 13'11"</text><text x="0" y="0"/></g></g></g></g><g id="d29e8bde-4335-443e-a066-e4a6d0eb79c1" fill="#ffffff" stroke="#ffffff" style="fill-opacity: 1; stroke-opacity: 1; stroke-width: 0.2;" class="Space Undefined"><polygon points="993.54,873.05 739.99,873.05 739.99,749.35 993.54,749.35 "/><g transform="matrix(1,0,0,1,739.9863,749.3546)" class="Dimension"><g transform="matrix(1,0,0,1,0,0)" style="display: none;" class="Visual"><g id="mark1" fill="#000000" stroke="none" transform="matrix(1,0,0,1,126.776,0)" style="fill-opacity: 1; pointer-events: visible;" class="DimensionMark"><polygon points="-5,5,0,0,5,5"/></g><g id="mark2" fill="#000000" stroke="none" transform="matrix(1,0,0,1,253.552,61.8471)" style="fill-opacity: 1; pointer-events: visible;" class="DimensionMark"><polygon points="-5,-5,0,0,-5,5"/></g><g id="mark3" fill="#000000" stroke="none" transform="matrix(1,0,0,1,126.776,123.6942)" style="fill-opacity: 1; pointer-events: visible;" class="DimensionMark"><polygon points="-5,-5,0,0,5,-5"/></g><g id="mark4" fill="#000000" stroke="none" transform="matrix(1,0,0,1,0,61.8471)" style="fill-opacity: 1; pointer-events: visible;" class="DimensionMark"><polygon points="5,5,0,0,5,-5"/></g></g><g transform="matrix(1,0,0,1,61.8471,61.8471)" class="SpaceDimensionsLabel"><g id="NameLabel" style="display: block;" class="TextLabel NameLabel"><text x="0" y="0em" fill="#000000" stroke="none" style="font-family: Verdana; font-size: 33px; fill-opacity: 1; cursor: default;">UNDEFINED</text></g><g id="DimensionMeasureLabel" transform="matrix(1,0,0,1,12.2344,41.3437)" style="display: none;" class="TextLabel DimensionMeasureLabel"><text x="0" y="0em" fill="#000000" stroke="none" style="font-family: Verdana; font-size: 33px; fill-opacity: 1; cursor: default;">8'4" x 4'1"</text><text x="0" y="0"/></g></g></g></g><g id="d70e083e-bfcc-4128-8698-999d7047db8d" fill="#ffffff" stroke="#ffffff" style="fill-opacity: 1; stroke-opacity: 1; stroke-width: 0.2;" class="Space Undefined"><polygon points="993.54,739.00 739.99,739.00 739.99,693.67 993.54,693.67 "/><g transform="matrix(1,0,0,1,739.9863,693.669)" class="Dimension"><g transform="matrix(1,0,0,1,0,0)" style="display: none;" class="Visual"><g id="mark1" fill="#000000" stroke="none" transform="matrix(1,0,0,1,126.776,0)" style="fill-opacity: 1; pointer-events: visible;" class="DimensionMark"><polygon points="-5,5,0,0,5,5"/></g><g id="mark2" fill="#000000" stroke="none" transform="matrix(1,0,0,1,253.552,22.6673)" style="fill-opacity: 1; pointer-events: visible;" class="DimensionMark"><polygon points="-5,-5,0,0,-5,5"/></g><g id="mark3" fill="#000000" stroke="none" transform="matrix(1,0,0,1,126.776,45.3347)" style="fill-opacity: 1; pointer-events: visible;" class="DimensionMark"><polygon points="-5,-5,0,0,5,-5"/></g><g id="mark4" fill="#000000" stroke="none" transform="matrix(1,0,0,1,0,22.6673)" style="fill-opacity: 1; pointer-events: visible;" class="DimensionMark"><polygon points="5,5,0,0,5,-5"/></g></g><g transform="matrix(1,0,0,1,22.6673,22.6674)" class="SpaceDimensionsLabel"><g id="NameLabel" style="display: block;" class="TextLabel NameLabel"><text x="0" y="0em" fill="#000000" stroke="none" style="font-family: Verdana; font-size: 33px; fill-opacity: 1; cursor: default;">UNDEFINED</text></g><g id="DimensionMeasureLabel" transform="matrix(1,0,0,1,12.2344,41.3437)" style="display: none;" class="TextLabel DimensionMeasureLabel"><text x="0" y="0em" fill="#000000" stroke="none" style="font-family: Verdana; font-size: 33px; fill-opacity: 1; cursor: default;">8'4" x 1'6"</text><text x="0" y="0"/></g></g></g></g><g id="bb898c8c-389a-419f-9c54-a0939f0928b9" fill="#ffffff" stroke="#ffffff" style="fill-opacity: 1; stroke-opacity: 1; stroke-width: 0.2;" class="Space Undefined"><polygon points="573.86,1311.54 396.36,1311.54 396.36,1196.50 573.86,1196.50 "/><g transform="matrix(1,0,0,1,396.3618,1196.5032)" class="Dimension"><g transform="matrix(1,0,0,1,0,0)" style="display: none;" class="Visual"><g id="mark1" fill="#000000" stroke="none" transform="matrix(1,0,0,1,88.75,0)" style="fill-opacity: 1; pointer-events: visible;" class="DimensionMark"><polygon points="-5,5,0,0,5,5"/></g><g id="mark2" fill="#000000" stroke="none" transform="matrix(1,0,0,1,177.5001,57.5168)" style="fill-opacity: 1; pointer-events: visible;" class="DimensionMark"><polygon points="-5,-5,0,0,-5,5"/></g><g id="mark3" fill="#000000" stroke="none" transform="matrix(1,0,0,1,88.75,115.0336)" style="fill-opacity: 1; pointer-events: visible;" class="DimensionMark"><polygon points="-5,-5,0,0,5,-5"/></g><g id="mark4" fill="#000000" stroke="none" transform="matrix(1,0,0,1,0,57.5168)" style="fill-opacity: 1; pointer-events: visible;" class="DimensionMark"><polygon points="5,5,0,0,5,-5"/></g></g><g transform="matrix(1,0,0,1,57.5169,57.5168)" class="SpaceDimensionsLabel"><g id="NameLabel" style="display: block;" class="TextLabel NameLabel"><text x="0" y="0em" fill="#000000" stroke="none" style="font-family: Verdana; font-size: 33px; fill-opacity: 1; cursor: default;">UNDEFINED</text></g><g id="DimensionMeasureLabel" transform="matrix(1,0,0,1,1.75,41.3437)" style="display: none;" class="TextLabel DimensionMeasureLabel"><text x="0" y="0em" fill="#000000" stroke="none" style="font-family: Verdana; font-size: 33px; fill-opacity: 1; cursor: default;">5'10" x 3'9"</text><text x="0" y="0"/></g></g></g></g><g id="Wall" fill="#000000" stroke="#000000" style="fill-opacity: 1; stroke-opacity: 1; stroke-width: 0.2;" class="Wall External"><polygon points="104.16,190.99 993.54,190.99 1020.54,163.99 77.16,163.99 "/><g id="Door" fill="#ffffff" stroke="#000000" style="fill-opacity: 1; stroke-width: 1; stroke-opacity: 1;" class="Door Swing Beside"><polygon points="439.24,190.99 562.94,190.99 562.94,163.99 439.24,163.99 "/><g id="Threshold" class="Threshold"><polygon points="439.24,190.99 562.94,190.99 562.94,163.99 439.24,163.99 "/></g><g id="Panel" fill="none" style="" class="Panel Right Positive"><g id="PanelArea" fill="none" stroke="none" style="" class="PanelArea"><polygon points="439.24,190.99 562.94,190.99 562.94,163.99 439.24,163.99 "/></g><path d="M439.24,163.99 q0.00,-123.70 123.70,-123.70 l0.00,123.70Z"/></g></g><g id="Window" fill="#f0f0ff" stroke="#000000" style="fill-opacity: 1; stroke-width: 1; stroke-opacity: 1;" class="Window Regular"><polygon points="597.89,190.99 982.96,190.99 982.96,163.99 597.89,163.99 "/><g id="Glass" class="Glass"><polygon points="597.89,190.99 982.96,190.99 982.96,163.99 597.89,163.99 "/></g><g id="Panel" class="Panel"><line x1="605.3926004701481" x2="975.4575997651966" y1="177.49060750044995" y2="177.49060750044995"/><line x1="605.3926004701481" x2="605.3926004701481" y1="190.99060750044995" y2="163.99060750044995"/><line x1="975.4575997651987" x2="975.4575997651987" y1="190.99060750044995" y2="163.99060750044995"/></g></g><g id="Window" fill="#f0f0ff" stroke="#000000" style="fill-opacity: 1; stroke-width: 1; stroke-opacity: 1;" class="Window Regular"><polygon points="104.49,190.99 428.76,190.99 428.76,163.99 104.49,163.99 "/><g id="Glass" class="Glass"><polygon points="104.49,190.99 428.76,190.99 428.76,163.99 104.49,163.99 "/></g><g id="Panel" class="Panel"><line x1="111.98948906292867" x2="421.26093167697206" y1="177.4906075004501" y2="177.49060750045004"/><line x1="111.98948906292867" x2="111.98948906292867" y1="190.9906075004501" y2="163.9906075004501"/><line x1="421.26093167697206" x2="421.26093167697206" y1="190.99060750045004" y2="163.99060750045004"/></g></g></g><g id="Wall" fill="#000000" stroke="#000000" style="fill-opacity: 1; stroke-opacity: 1; stroke-width: 0.2;" class="Wall External"><polygon points="993.54,190.99 993.54,1311.54 1020.54,1338.54 1020.54,163.99 "/></g><g id="Wall" fill="#000000" stroke="#000000" style="fill-opacity: 1; stroke-opacity: 1; stroke-width: 0.2;" class="Wall External"><polygon points="993.54,1311.54 104.16,1311.54 77.16,1338.54 1020.54,1338.54 "/><g id="Window" fill="#f0f0ff" stroke="#000000" style="fill-opacity: 1; stroke-width: 1; stroke-opacity: 1;" class="Window Regular"><polygon points="991.11,1311.54 599.42,1311.54 599.42,1338.54 991.11,1338.54 "/><g id="Glass" class="Glass"><polygon points="991.11,1311.54 599.42,1311.54 599.42,1338.54 991.11,1338.54 "/></g><g id="Panel" class="Panel"><line x1="983.6140446042316" x2="606.9156930214881" y1="1325.0368676109495" y2="1325.0368676109495"/><line x1="983.6140446042316" x2="983.6140446042316" y1="1311.5368676109495" y2="1338.5368676109495"/><line x1="606.9156930214881" x2="606.9156930214881" y1="1311.5368676109495" y2="1338.5368676109495"/></g></g><g id="Door" fill="#ffffff" stroke="#000000" style="fill-opacity: 1; stroke-width: 1; stroke-opacity: 1;" class="Door Swing Beside"><polygon points="571.65,1311.54 457.16,1311.54 457.16,1338.54 571.65,1338.54 "/><g id="Threshold" class="Threshold"><polygon points="571.65,1311.54 457.16,1311.54 457.16,1338.54 571.65,1338.54 "/></g><g id="Panel" fill="none" style="" class="Panel Left Positive"><g id="PanelArea" fill="none" stroke="none" style="" class="PanelArea"><polygon points="571.65,1311.54 457.16,1311.54 457.16,1338.54 571.65,1338.54 "/></g><path d="M457.16,1338.54 q0.00,114.49 114.49,114.49 l0.00,-114.49Z"/></g></g><g id="Window" fill="#f0f0ff" stroke="#000000" style="fill-opacity: 1; stroke-width: 1; stroke-opacity: 1;" class="Window Regular"><polygon points="306.13,1311.54 107.84,1311.54 107.84,1338.54 306.13,1338.54 "/><g id="Glass" class="Glass"><polygon points="306.13,1311.54 107.84,1311.54 107.84,1338.54 306.13,1338.54 "/></g><g id="Panel" class="Panel"><line x1="298.62911633888666" x2="115.34400552523414" y1="1325.0368676109495" y2="1325.0368676109495"/><line x1="298.62911633888666" x2="298.62911633888666" y1="1311.5368676109495" y2="1338.5368676109495"/><line x1="115.34400552523414" x2="115.34400552523414" y1="1311.5368676109495" y2="1338.5368676109495"/></g></g></g><g id="Wall" fill="#000000" stroke="#000000" style="fill-opacity: 1; stroke-opacity: 1; stroke-width: 0.2;" class="Wall External"><polygon points="104.16,1311.54 104.16,190.99 77.16,163.99 77.16,1338.54 "/></g><g id="Wall" fill="#000000" stroke="#000000" style="fill-opacity: 1; stroke-opacity: 1; stroke-width: 0.2;" class="Wall"><polygon points="375.36,1338.54 375.36,1179.24 396.36,1196.50 396.36,1338.54 "/></g><g id="Wall" fill="#000000" stroke="#000000" style="fill-opacity: 1; stroke-opacity: 1; stroke-width: 0.2;" class="Wall"><polygon points="375.36,1179.24 594.86,1179.24 594.86,1196.50 396.36,1196.50 "/><g id="Door" fill="#ffffff" stroke="#000000" style="fill-opacity: 1; stroke-width: 1; stroke-opacity: 1;" class="Door Swing Beside"><polygon points="456.18,1179.24 568.24,1179.24 568.24,1196.50 456.18,1196.50 "/><g id="Threshold" class="Threshold"><polygon points="456.18,1179.24 568.24,1179.24 568.24,1196.50 456.18,1196.50 "/></g><g id="Panel" fill="none" style="" class="Panel Left Negative"><g id="PanelArea" fill="none" stroke="none" style="" class="PanelArea"><polygon points="456.18,1179.24 568.24,1179.24 568.24,1196.50 456.18,1196.50 "/></g><path d="M456.18,1179.24 q0.00,-112.05 112.05,-112.05 l0.00,112.05Z"/></g></g></g><g id="Wall" fill="#000000" stroke="#000000" style="fill-opacity: 1; stroke-opacity: 1; stroke-width: 0.2;" class="Wall"><polygon points="77.16,1035.50 163.25,1035.50 163.25,1049.50 77.16,1049.50 "/></g><g id="Wall" fill="#000000" stroke="#000000" style="fill-opacity: 1; stroke-opacity: 1; stroke-width: 0.2;" class="Wall"><polygon points="304.08,1024.09 381.52,1024.09 375.36,1049.50 304.08,1049.50 "/></g><g id="Wall" fill="#000000" stroke="#000000" style="fill-opacity: 1; stroke-opacity: 1; stroke-width: 0.2;" class="Wall"><polygon points="375.36,1049.50 375.36,1179.24 381.52,1179.24 381.52,1024.09 "/></g><g id="Wall" fill="#000000" stroke="#000000" style="fill-opacity: 1; stroke-opacity: 1; stroke-width: 0.2;" class="Wall"><polygon points="573.86,693.67 1020.54,693.67 1020.54,679.67 594.86,679.67 "/><g id="Door" fill="#ffffff" stroke="#000000" style="fill-opacity: 1; stroke-width: 1; stroke-opacity: 1;" class="Door Swing Beside"><polygon points="601.71,693.67 717.44,693.67 717.44,679.67 601.71,679.67 "/><g id="Threshold" class="Threshold"><polygon points="601.71,693.67 717.44,693.67 717.44,679.67 601.71,679.67 "/></g><g id="Panel" fill="none" style="" class="Panel Left Positive"><g id="PanelArea" fill="none" stroke="none" style="" class="PanelArea"><polygon points="601.71,693.67 717.44,693.67 717.44,679.67 601.71,679.67 "/></g><path d="M717.44,679.67 q0.00,-115.73 -115.73,-115.73 l0.00,115.73Z"/></g></g></g><g id="Wall" fill="#000000" stroke="#000000" style="fill-opacity: 1; stroke-opacity: 1; stroke-width: 0.2;" class="Wall"><polygon points="573.86,873.05 1020.54,873.05 1020.54,887.60 594.86,887.60 "/><g id="Door" fill="#ffffff" stroke="#000000" style="fill-opacity: 1; stroke-width: 1; stroke-opacity: 1;" class="Door Swing Beside"><polygon points="605.17,873.05 697.57,873.05 697.57,887.60 605.17,887.60 "/><g id="Threshold" class="Threshold"><polygon points="605.17,873.05 697.57,873.05 697.57,887.60 605.17,887.60 "/></g><g id="Panel" fill="none" style="" class="Panel Left Positive"><g id="PanelArea" fill="none" stroke="none" style="" class="PanelArea"><polygon points="605.17,873.05 697.57,873.05 697.57,887.60 605.17,887.60 "/></g><path d="M697.57,887.60 q0.00,92.41 -92.41,92.41 l0.00,-92.41Z"/></g></g></g><g id="Wall" fill="#000000" stroke="#000000" style="fill-opacity: 1; stroke-opacity: 1; stroke-width: 0.2;" class="Wall"><polygon points="723.78,679.67 723.78,887.60 739.99,887.60 739.99,679.67 "/><g id="Door" fill="#ffffff" stroke="#000000" style="fill-opacity: 1; stroke-width: 1; stroke-opacity: 1;" class="Door Swing Beside"><polygon points="723.78,749.00 723.78,821.98 739.99,821.98 739.99,749.00 "/><g id="Threshold" class="Threshold"><polygon points="723.78,749.00 723.78,821.98 739.99,821.98 739.99,749.00 "/></g><g id="Panel" fill="none" style="" class="Panel Left Negative"><g id="PanelArea" fill="none" stroke="none" style="" class="PanelArea"><polygon points="723.78,749.00 723.78,821.98 739.99,821.98 739.99,749.00 "/></g><path d="M723.78,749.00 q-72.98,0.00 -72.98,72.98 l72.98,0.00Z"/></g></g></g><g id="Wall" fill="#000000" stroke="#000000" style="fill-opacity: 1; stroke-opacity: 1; stroke-width: 0.2;" class="Wall"><polygon points="723.78,749.35 1020.54,749.35 1020.54,739.00 723.78,739.00 "/><g id="Door" fill="#ffffff" stroke="#000000" style="fill-opacity: 1; stroke-width: 1; stroke-opacity: 1;" class="Door Swing Beside"><polygon points="923.76,749.35 974.93,749.35 974.93,739.00 923.76,739.00 "/><g id="Threshold" class="Threshold"><polygon points="923.76,749.35 974.93,749.35 974.93,739.00 923.76,739.00 "/></g><g id="Panel" fill="none" style="" class="Panel Right Negative"><g id="PanelArea" fill="none" stroke="none" style="" class="PanelArea"><polygon points="923.76,749.35 974.93,749.35 974.93,739.00 923.76,739.00 "/></g><path d="M974.93,749.35 q0.00,51.17 -51.17,51.17 l0.00,-51.17Z"/></g></g></g><g id="Wall" fill="#000000" stroke="#000000" style="fill-opacity: 1; stroke-opacity: 1; stroke-width: 0.2;" class="Wall"><polygon points="594.86,163.99 594.86,679.67 573.86,693.67 573.86,163.99 "/><g id="Door" fill="#ffffff" stroke="#000000" style="fill-opacity: 1; stroke-width: 1; stroke-opacity: 1;" class="Door None Beside"><polygon points="594.86,200.59 594.86,312.49 573.86,312.49 573.86,200.59 "/><g id="Threshold" stroke="#ffffff" style="" class="Threshold"><polygon points="594.86,200.59 594.86,312.49 573.86,312.49 573.86,200.59 "/></g></g></g><g id="Wall" fill="#000000" stroke="#000000" style="fill-opacity: 1; stroke-opacity: 1; stroke-width: 0.2;" class="Wall"><polygon points="594.86,887.60 594.86,1338.54 573.86,1338.54 573.86,873.05 "/></g><g id="FixedFurnitureSet" transform="matrix(0,1,-1,0,375.143,1178.6342)" class="FixedFurnitureSet" fill="#ffffff" stroke="#fc0fc0" style="fill-opacity: 0.4; stroke-opacity: 0.9; stroke-width: 1.5;"><g class="FixedFurniture Closet" fill="#ffffff" stroke="#000000" transform="matrix(1,0,0,1,0,0)" style="fill-opacity: 1; stroke-opacity: 1; stroke-width: 1;">
        <g class="BoundaryPolygon">
            <polygon points="0.00,0.00 66.45,0.00 66.45,68.46 0.00,68.46 "/>
        </g>
        <g class="Direction" fill-opacity="0.9" style="display: none;">
            <polygon points="34.90,62.41 34.90,51.79 31.89,51.79 31.89,62.41 28.09,62.41 33.39,67.71 38.69,62.41 34.90,62.41 " fill="#444444"/>
        </g> 
        <g class="Name" fill-opacity="0.9" style="display: none;">
            <text transform="translate(3 12)" font-size="12" font-family="Verdana, Sans-Serif">CL</text>
        </g>
        <desc>Width:60 Height:200 Depth:60 Elevation:0</desc>
    </g><g class="FixedFurniture Closet" fill="#ffffff" stroke="#000000" transform="matrix(1,0,0,1,66.4527,0)" style="fill-opacity: 1; stroke-opacity: 1; stroke-width: 1;">
        <g class="BoundaryPolygon">
            <polygon points="0.00,0.00 66.45,0.00 66.45,68.46 0.00,68.46 "/>
        </g>
        <g class="Direction" fill-opacity="0.9" style="display: none;">
            <polygon points="34.90,62.41 34.90,51.79 31.89,51.79 31.89,62.41 28.09,62.41 33.39,67.71 38.69,62.41 34.90,62.41 " fill="#444444"/>
        </g> 
        <g class="Name" fill-opacity="0.9" style="display: none;">
            <text transform="translate(3 12)" font-size="12" font-family="Verdana, Sans-Serif">CL</text>
        </g>
        <desc>Width:60 Height:200 Depth:60 Elevation:0</desc>
     </g></g><g class="FixedFurniture BaseCabinet" fill="#ffffff" stroke="#000000" transform="matrix(0,1,-1,0,375.1431,1049.5013)" style="fill-opacity: 1; stroke-opacity: 1; stroke-width: 1;">
        <g class="BoundaryPolygon">
            <polygon points="0.00,0.00 128.26,0.00 128.26,68.46 0.00,68.46 "/>
        </g>
        <g class="Direction" fill-opacity="0.9" style="display: none;">
            <polygon points="68.43,62.98 68.43,52.36 65.42,52.36 65.42,62.98 61.61,62.98 66.92,67.78 72.22,62.98 68.43,62.98 " fill="#444444"/>
        </g> 
        <g class="Name" fill-opacity="0.9" style="display: none;">
            <text transform="translate(3 12)" font-size="12" font-family="Verdana, Sans-Serif">CB</text>
        </g>
        <desc>Width:60 Height:90 Depth:60 Elevation:0</desc>
    </g><g class="FixedFurniture WallCabinet" fill="#ffffff" stroke="#000000" transform="matrix(0,1,-1,0,374.9243,1049.5013)" style="fill-opacity: 0.7; stroke-opacity: 1; stroke-width: 1.5;">	
        <g class="BoundaryPolygon">
            <polygon points="0.00,0.00 128.26,0.00 128.26,32.36 0.00,32.36 "/>
        </g>
        <g class="Direction" fill-opacity="0.9" style="display: none;">
            <polygon points="68.43,27.18 68.43,16.56 65.42,16.56 65.42,27.18 61.61,27.18 66.92,31.98 72.22,27.18 68.43,27.18 " fill="#444444"/>
        </g> 
        <g class="Name" fill-opacity="0.9" style="display: none;">
            <text transform="translate(3 12)" font-size="12" font-family="Verdana, Sans-Serif">UC</text>
        </g>
        <desc>Width:60 Height:60 Depth:30 Elevation:140</desc>
    </g><g class="FixedFurniture BaseCabinet" fill="#ffffff" stroke="#000000" transform="matrix(0,-1,1,0,104.1793,1248.5713)" style="fill-opacity: 1; stroke-opacity: 1; stroke-width: 1;">
        <g class="BoundaryPolygon">
            <polygon points="0.00,0.00 199.07,0.00 199.07,60.00 0.00,60.00 "/>
        </g>
        <g class="Direction" fill-opacity="0.9" style="display: none;">
            <polygon points="106.20,55.20 106.20,44.58 103.19,44.58 103.19,55.20 99.39,55.20 104.69,60.00 109.99,55.20 106.20,55.20 " fill="#444444"/>
        </g> 
        <g class="Name" fill-opacity="0.9" style="display: none;">
            <text transform="translate(3 12)" font-size="12" font-family="Verdana, Sans-Serif">CB</text>
        </g>
        <desc>Width:60 Height:90 Depth:60 Elevation:0</desc>
    </g><g class="FixedFurniture ElectricalAppliance IntegratedStove" fill="#ffffff" stroke="#000000" transform="matrix(0,-1,1,0,104.1636,1249.5256)" style="fill-opacity: 1; stroke-opacity: 1; stroke-width: 1;">
        <g class="BoundaryPolygon" fill="none" stroke="none">
            <polygon points="0.00,0.00 72.42,0.00 72.42,60.00 0.00,60.00 "/>
        </g>
        <g class="InnerPolygon">
            <polygon points="2.00,2.00 70.01,2.00 70.01,58.00 2.00,58.00 "/>
        </g>
        <g class="OuterCircle">
            <circle cx="19.313099215289995" cy="16" r="8"/>
            <circle cx="53.11102284204747" cy="16" r="8"/>
            <circle cx="19.313099215289995" cy="44" r="8"/>
            <circle cx="53.11102284204747" cy="44" r="8"/>
        </g>
        <g class="Direction" fill-opacity="0.9" style="display: none;">
            <polygon points="38.64,55.20 38.64,44.58 35.63,44.58 35.63,55.20 31.83,55.20 37.13,60.00 42.43,55.20 38.64,55.20 " fill="#444444"/>
        </g> 
        <g class="Name" fill-opacity="0.9" style="display: none;">
            <text transform="translate(3 12)" font-size="12" font-family="Verdana, Sans-Serif">INT_STOVE</text>
        </g>
        <desc>Width:60 Height:90 Depth:30 Elevation:0</desc>
    </g><g class="FixedFurniture Closet" fill="#ffffff" stroke="#000000" transform="matrix(0,-1,1,0,104.2106,1311.5369)" style="fill-opacity: 1; stroke-opacity: 1; stroke-width: 1;">
        <g class="BoundaryPolygon">
            <polygon points="0.00,0.00 62.31,0.00 62.31,60.00 0.00,60.00 "/>
        </g>
        <g class="Direction" fill-opacity="0.9" style="display: none;">
            <polygon points="32.72,54.70 32.72,44.08 29.71,44.08 29.71,54.70 25.91,54.70 31.21,60.00 36.52,54.70 32.72,54.70 " fill="#444444"/>
        </g> 
        <g class="Name" fill-opacity="0.9" style="display: none;">
            <text transform="translate(3 12)" font-size="12" font-family="Verdana, Sans-Serif">CL</text>
        </g>
        <desc>Width:60 Height:200 Depth:60 Elevation:0</desc>
     </g><g class="FixedFurniture Sink" fill="#ffffff" stroke="#000000" transform="matrix(0,-1,1,0,99.224,1154.5882)" style="fill-opacity: 1; stroke-opacity: 1; stroke-width: 1;">
        <g class="BoundaryPolygon" fill="none" stroke="none">
            <polygon points="0.00,0.00 54.13,0.00 54.13,66.46 0.00,66.46 "/>
        </g>
        <g class="InnerPolygon">
            <polygon points="4.51,9.70 49.62,9.70 49.62,60.59 4.51,60.59 "/>
        </g>
        <g class="OuterDrain" stroke-width="0.8">
            <circle cx="27.062891792034073" cy="35.665940580152935" r="3.5"/>
        </g>
        <g class="InnerDrain" stroke-width="0.8">
            <circle cx="27.062891792034073" cy="35.665940580152935" r="2"/>
        </g>
        <g class="Faucet">
            <polygon points="24.36,5.54 30.36,5.54 30.36,19.54 24.36,19.54 "/>
        </g>
        <g class="Direction" fill-opacity="0.9" style="display: none;">
            <polygon points="28.88,61.14 28.88,50.52 25.87,50.52 25.87,61.14 22.06,61.14 27.37,65.94 32.67,61.14 28.88,61.14 " fill="#444444"/>
        </g> 
        <g class="Name" fill-opacity="0.9" style="display: none;">
            <text transform="translate(3 12)" font-size="12" font-family="Verdana, Sans-Serif">SINK</text>
        </g>
        <desc>Width:60 Height:90 Depth:60 Elevation:0</desc>
    </g><g class="FixedFurniture WallCabinet" fill="#ffffff" stroke="#000000" transform="matrix(0,-1,1,0,104.1792,1248.4813)" style="fill-opacity: 0.7; stroke-opacity: 1; stroke-width: 1.5;">	
        <g class="BoundaryPolygon">
            <polygon points="0.00,0.00 198.98,0.00 198.98,30.00 0.00,30.00 "/>
        </g>
        <g class="Direction" fill-opacity="0.9" style="display: none;">
            <polygon points="106.15,25.20 106.15,14.58 103.14,14.58 103.14,25.20 99.34,25.20 104.64,30.00 109.95,25.20 106.15,25.20 " fill="#444444"/>
        </g> 
        <g class="Name" fill-opacity="0.9" style="display: none;">
            <text transform="translate(3 12)" font-size="12" font-family="Verdana, Sans-Serif">UC</text>
        </g>
        <desc>Width:60 Height:60 Depth:30 Elevation:140</desc>
    </g><g class="FixedFurniture Toilet" fill="#ffffff" stroke="#000000" transform="matrix(-1.1496,0,0,-1,810.9341,873.0488)" style="fill-opacity: 1; stroke-opacity: 1; stroke-width: 1;">
	   <g class="BoundaryPolygon" fill="none" stroke="none"> 
            <polygon points="0,0 41,0 41,71 0,71"/>
		</g>
        <g class="InnerPolygon">
            <rect x="0.502" y="0.5" width="39.989" height="17.98"/>
            <path d="M40.491,44.237S41.619,70.5,20.907,70.5C-.523,70.5.6,44.237.6,44.237L.5,18.48H40.491Z"/>
            <rect x="17.318" y="7.975" width="6.357" height="3.03"/>
        </g>
        <desc>Width:41 Height:85 Depth:71 Elevation:0</desc>
    </g><g id="FixedFurnitureSet" transform="matrix(-1,0,0,-1,916.555,873.0487)" class="FixedFurnitureSet" fill="#ffffff" stroke="#fc0fc0" style="fill-opacity: 0.4; stroke-opacity: 0.9; stroke-width: 1.5;"><g class="FixedFurniture BaseCabinet" fill="#ffffff" stroke="#000000" transform="matrix(1,0,0,1,0,0)" style="fill-opacity: 1; stroke-opacity: 1; stroke-width: 1;">
        <g class="BoundaryPolygon">
            <polygon points="0.00,0.00 86.83,0.00 86.83,35.47 0.00,35.47 "/>
        </g>
        <g class="Direction" fill-opacity="0.9" style="display: none;">
            <polygon points="46.32,32.63 46.32,22.01 43.31,22.01 43.31,32.63 39.51,32.63 44.81,37.43 50.12,32.63 46.32,32.63 " fill="#444444"/>
        </g> 
        <g class="Name" fill-opacity="0.9" style="display: none;">
            <text transform="translate(3 12)" font-size="12" font-family="Verdana, Sans-Serif">CB</text>
        </g>
        <desc>Width:60 Height:5 Depth:60 Elevation:105</desc>
    </g><g class="FixedFurniture Sink" fill="#ffffff" stroke="#000000" transform="matrix(1,0,0,1,0,0)" style="fill-opacity: 1; stroke-opacity: 1; stroke-width: 1;">
        <g class="BoundaryPolygon" fill="none" stroke="none">
        <polygon points="0.00,0.00 86.83,0.00 86.83,35.47 0.00,35.47 "/>
        </g>
        <g class="InnerPolygon">
            <polygon points="7.24,9.70 79.59,9.70 79.59,32.34 7.24,32.34 "/>
        </g>
        <g class="OuterDrain" stroke-width="0.8">
            <circle cx="43.41474335331457" cy="19.03566518928061" r="3.5"/>
        </g>
        <g class="InnerDrain" stroke-width="0.8">
            <circle cx="43.41474335331457" cy="19.03566518928061" r="2"/>
        </g>
        <g class="Faucet">
            <polygon points="39.07,2.96 45.07,2.96 45.07,16.96 39.07,16.96 "/>
        </g>
        <g class="Direction" fill-opacity="0.9" style="display: none;">
            <polygon points="46.32,32.63 46.32,22.01 43.31,22.01 43.31,32.63 39.51,32.63 44.81,37.43 50.12,32.63 46.32,32.63 " fill="#444444"/>
        </g> 
        <g class="Name" fill-opacity="0.9" style="display: none;">
            <text transform="translate(3 12)" font-size="12" font-family="Verdana, Sans-Serif">SINK</text>
        </g>
        <desc>Width:60 Height:90 Depth:60 Elevation:0</desc>
    </g></g><g class="FixedFurniture Shower" fill="#ffffff" stroke="#000000" transform="matrix(-1,0,0,-1,977.3295,873.0487)" style="fill-opacity: 1; stroke-opacity: 1; stroke-width: 1;"> 
	    <g class="BoundaryPolygon" fill="none" stroke="none">
            <polygon points="0,0 32,0 32,19 0,19"/>
        </g>
        <g class="InnerPolygon"> 
			<rect x="3.7" y="0.5" width="11.2" height="6.1"/>
			<rect x="17.6" y="0.5" width="11.2" height="6.1"/>
			<rect x="28.7" y="0.5" width="3.4" height="6.1"/>
			<rect x="0.5" y="0.5" width="3.2" height="6.1"/>
			<path d="M14.9,8.5c0,1.5-0.4,3.3-1.6,5    c-0.4,0.6-1,1.1-1.1,1.7c-0.2,1.1,0.3,2.8,2.5,3.2c0.5,0.1,1.3,0.1,1.6,0.1h-0.1c0.3,0,1.1,0,1.6-0.1c2.2-0.4,2.7-2.1,2.5-3.2    c-0.1-0.6-0.7-1.1-1.1-1.7c-1.2-1.7-1.6-3.5-1.6-5"/>
			<path d="M12.2,15.3c0.1,0.2,1.6,1.9,4.2,1.9 c2.4-0.1,3.7-1.7,3.9-1.9"/>
			<path d="M14.9,0.5h2.7v8c-0.9,0-1.8,0-2.7,0l0,0 C14.9,5.9,14.9,3.2,14.9,0.5z"/>
		</g>
	    <g class="Indicator"> 
			<path d="M3.7,3.6C5,3.1,5.2,3,5.2,3 c0,1.1,0,0,0,1.1C5.2,4.1,5.1,4.1,3.7,3.6"/>
			<path d="M28.7,3.6 C27.4,3.1,27.2,3,27.2,3c0,1.1,0,0,0,1.1C27.2,4.1,27.3,4.1,28.7,3.6"/>	
		</g>
        <desc>Width:32 Height:97 Depth:19 Elevation:135</desc>
	</g><g class="FixedFurniture SaunaBenchMid" fill="#ffffff" stroke="#000000" transform="matrix(1,0,0,1,739.9862,693.794)" style="fill-opacity: 1; stroke-opacity: 1; stroke-width: 1;">
        <g class="BoundaryPolygon">
            <polygon points="0.00,0.00 253.31,0.00 253.31,29.98 0.00,29.98 "/>
        </g>
        <g class="Bench" stroke="#9a9a9a" stroke-width="0.5">
            <line x1="0" y1="2.9975674826065233" x2="253.30907877414998" y2="2.9975674826065233"/>
            <line x1="0" y1="5.995134965213047" x2="253.30907877414998" y2="5.995134965213047"/>
            <line x1="0" y1="8.992702447819566" x2="253.30907877414998" y2="8.992702447819566"/>
            <line x1="0" y1="11.990269930426093" x2="253.30907877414998" y2="11.990269930426093"/>
            <line x1="0" y1="14.987837413032613" x2="253.30907877414998" y2="14.987837413032613"/>
            <line x1="0" y1="17.98540489563913" x2="253.30907877414998" y2="17.98540489563913"/>
            <line x1="0" y1="20.98297237824566" x2="253.30907877414998" y2="20.98297237824566"/>
            <line x1="0" y1="23.980539860852186" x2="253.30907877414998" y2="23.980539860852186"/>
            <line x1="0" y1="26.978107343458703" x2="253.30907877414998" y2="26.978107343458703"/>
        </g>
        <g class="Direction" fill-opacity="0.9" style="display: none;">
            <polygon points="128.72,25.97 128.72,15.35 125.71,15.35 125.71,25.97 121.91,25.97 127.21,31.27 132.51,25.97 128.72,25.97 " fill="#444444"/>
        </g> 
        <g class="Name" fill-opacity="0.9" style="display: none;">
            <text transform="translate(3 12)" font-size="12" font-family="Verdana, Sans-Serif">SB_MID</text>
        </g>
        <desc>Width:185 Height:5 Depth:40 Elevation:60</desc>
    </g><g class="FixedFurniture ElectricalAppliance SaunaStove" fill="#ffffff" stroke="#000000" transform="matrix(-0.7258,0,0,-0.4206,796.583,739.0037)" style="fill-opacity: 1; stroke-opacity: 1; stroke-width: 1;"> 
	   <g class="BoundaryPolygon"> 
		    <polygon points="0,0 60,0 60,35 0,35"/>
		</g>
	    <g class="electricitySign" fill="none">
		    <polyline points="0 35 39.7 17.5 21.4 17.5 60 0"/>
		</g>
        <g class="Direction" fill-opacity="0.9" style="display: none;">
            <polygon points="31.509 29.697 31.509 19.081 28.5 19.081 28.5 29.697 24.697 29.697 30 35 35.303 29.697 31.509 29.697" fill="#444444"/>
        </g> 
        <g class="Name" fill-opacity="0.9" style="display: none;">
            <text transform="translate(3 12)" font-size="12" font-family="Verdana, Sans-Serif">SS</text>
        </g>
        <desc>Width:60 Height:60 Depth:35 Elevation:20</desc>
	</g></g></g></g></svg>
