<?xml version="1.0"?>
<svg xmlns="http://www.w3.org/2000/svg" xmlns:xlink="http://www.w3.org/1999/xlink" height="993.0400047302246" version="1.1" width="1481.310001373291" id="temp" viewBox="0 0 1481.310001373291 993.0400047302246"><desc>Powered by CubiCasa</desc><defs/><g id="Model" class="Model v1-1"><g class="Floor"><g id="Floor-1" class="Floorplan Floor-1"><g id="af3c9d7e-ff04-4998-a4e1-7157b853bb3b" fill="#ffffff" stroke="#ffffff" style="fill-opacity: 1; stroke-opacity: 1; stroke-width: 0.2;" class="Space Room"><polygon points="1185.15,391.46 1185.15,677.64 871.39,677.64 871.39,391.46 "/><g transform="matrix(1,0,0,1,871.3926,391.457)" class="Dimension"><g transform="matrix(1,0,0,1,0,0)" style="display: none;" class="Visual"><g id="mark1" fill="#000000" stroke="none" transform="matrix(1,0,0,1,156.8785,0)" style="fill-opacity: 1; pointer-events: visible;" class="DimensionMark"><polygon points="-5,5,0,0,5,5"/></g><g id="mark2" fill="#000000" stroke="none" transform="matrix(1,0,0,1,313.7569,143.0906)" style="fill-opacity: 1; pointer-events: visible;" class="DimensionMark"><polygon points="-5,-5,0,0,-5,5"/></g><g id="mark3" fill="#000000" stroke="none" transform="matrix(1,0,0,1,156.8785,286.1812)" style="fill-opacity: 1; pointer-events: visible;" class="DimensionMark"><polygon points="-5,-5,0,0,5,-5"/></g><g id="mark4" fill="#000000" stroke="none" transform="matrix(1,0,0,1,0,143.0906)" style="fill-opacity: 1; pointer-events: visible;" class="DimensionMark"><polygon points="5,5,0,0,5,-5"/></g></g><g transform="matrix(1,0,0,1,103.4298,159.7481)" class="SpaceDimensionsLabel"><g id="NameLabel" style="display: block;" class="TextLabel NameLabel"><text x="0" y="0em" fill="#000000" stroke="none" style="font-family: Verdana; font-size: 33px; fill-opacity: 1; cursor: default;">TUPA</text></g><g id="DimensionMeasureLabel" transform="matrix(1,0,0,1,-97.0938,80.0469)" style="display: none;" class="TextLabel DimensionMeasureLabel"><text x="42.1796875" y="-1.2em" fill="#000000" stroke="none" style="font-family: Verdana; font-size: 33px; fill-opacity: 1; cursor: default;">10'4" x 9'5"</text><text x="0" y="0em" fill="#000000" stroke="none" style="font-family: Verdana; font-size: 33px; fill-opacity: 1; cursor: default;">3.14 m x 2.86 m</text></g></g></g></g><g id="c36e8598-ac6f-433e-8ef2-403647191fc2" fill="#ffffff" stroke="#ffffff" style="fill-opacity: 1; stroke-opacity: 1; stroke-width: 0.2;" class="Space Sauna"><polygon points="1431.88,677.64 1202.15,677.64 1202.15,391.46 1431.88,391.46 "/><g transform="matrix(1,0,0,1,1202.15,391.457)" class="Dimension"><g transform="matrix(1,0,0,1,0,0)" style="display: none;" class="Visual"><g id="mark1" fill="#000000" stroke="none" transform="matrix(1,0,0,1,114.8647,0)" style="fill-opacity: 1; pointer-events: visible;" class="DimensionMark"><polygon points="-5,5,0,0,5,5"/></g><g id="mark2" fill="#000000" stroke="none" transform="matrix(1,0,0,1,229.7295,143.0906)" style="fill-opacity: 1; pointer-events: visible;" class="DimensionMark"><polygon points="-5,-5,0,0,-5,5"/></g><g id="mark3" fill="#000000" stroke="none" transform="matrix(1,0,0,1,114.8647,286.1812)" style="fill-opacity: 1; pointer-events: visible;" class="DimensionMark"><polygon points="-5,-5,0,0,5,-5"/></g><g id="mark4" fill="#000000" stroke="none" transform="matrix(1,0,0,1,0,143.0906)" style="fill-opacity: 1; pointer-events: visible;" class="DimensionMark"><polygon points="5,5,0,0,5,-5"/></g></g><g transform="matrix(1,0,0,1,65.6854,233.847)" class="SpaceDimensionsLabel"><g id="NameLabel" style="display: block;" class="TextLabel NameLabel"><text x="0" y="0em" fill="#000000" stroke="none" style="font-family: Verdana; font-size: 33px; fill-opacity: 1; cursor: default;">SAUNA</text></g><g id="DimensionMeasureLabel" transform="matrix(1,0,0,1,-81.6172,79.4062)" style="display: none;" class="TextLabel DimensionMeasureLabel"><text x="52.6484375" y="-1.2em" fill="#000000" stroke="none" style="font-family: Verdana; font-size: 33px; fill-opacity: 1; cursor: default;">7'6" x 9'5"</text><text x="0" y="0em" fill="#000000" stroke="none" style="font-family: Verdana; font-size: 33px; fill-opacity: 1; cursor: default;">2.30 m x 2.86 m</text></g></g></g></g><g id="4ec1c70a-03f2-403a-9c04-c0234f6ea151" fill="#ffffff" stroke="#000000" style="fill-opacity: 1; stroke-opacity: 1; stroke-width: 0.2;" class="Space Outdoor"><polygon points="871.39,694.64 871.39,832.47 1431.88,832.47 1431.88,694.64 871.39,694.64 871.39,694.64 "/><g transform="matrix(1,0,0,1,871.3926,694.6382)" class="Dimension"><g transform="matrix(1,0,0,1,0,0)" style="display: none;" class="Visual"><g id="mark1" fill="#000000" stroke="none" transform="matrix(1,0,0,1,280.2435,0)" style="fill-opacity: 1; pointer-events: visible;" class="DimensionMark"><polygon points="-5,5,0,0,5,5"/></g><g id="mark2" fill="#000000" stroke="none" transform="matrix(1,0,0,1,560.4869,68.9182)" style="fill-opacity: 1; pointer-events: visible;" class="DimensionMark"><polygon points="-5,-5,0,0,-5,5"/></g><g id="mark3" fill="#000000" stroke="none" transform="matrix(1,0,0,1,280.2435,137.8364)" style="fill-opacity: 1; pointer-events: visible;" class="DimensionMark"><polygon points="-5,-5,0,0,5,-5"/></g><g id="mark4" fill="#000000" stroke="none" transform="matrix(1,0,0,1,0,68.9182)" style="fill-opacity: 1; pointer-events: visible;" class="DimensionMark"><polygon points="5,5,0,0,5,-5"/></g></g><g transform="matrix(1,0,0,1,344.5909,68.9182)" class="SpaceDimensionsLabel"><g id="NameLabel" style="display: block;" class="TextLabel NameLabel"><text x="0" y="0em" fill="#000000" stroke="none" style="font-family: Verdana; font-size: 33px; fill-opacity: 1; cursor: default;">ULKOTILA</text></g><g id="DimensionMeasureLabel" transform="matrix(1,0,0,1,-57.289,79.0937)" style="display: none;" class="TextLabel DimensionMeasureLabel"><text x="42.171875" y="-1.2em" fill="#000000" stroke="none" style="font-family: Verdana; font-size: 33px; fill-opacity: 1; cursor: default;">18'5" x 4'6"</text><text x="0" y="0em" fill="#000000" stroke="none" style="font-family: Verdana; font-size: 33px; fill-opacity: 1; cursor: default;">5.60 m x 1.38 m</text></g></g></g></g><g id="3db50285-e457-4661-ba99-518f5aebbc8b" fill="#ffffff" stroke="#000000" style="fill-opacity: 1; stroke-opacity: 1; stroke-width: 0.2;" class="Space Outdoor"><polygon points="94.02,705.13 677.24,705.13 677.24,958.11 94.02,958.11 94.02,705.13 94.02,705.13 "/><g transform="matrix(1,0,0,1,94.0152,705.1341)" class="Dimension"><g transform="matrix(1,0,0,1,0,0)" style="display: none;" class="Visual"><g id="mark1" fill="#000000" stroke="none" transform="matrix(1,0,0,1,291.6134,0)" style="fill-opacity: 1; pointer-events: visible;" class="DimensionMark"><polygon points="-5,5,0,0,5,5"/></g><g id="mark2" fill="#000000" stroke="none" transform="matrix(1,0,0,1,583.2269,126.4872)" style="fill-opacity: 1; pointer-events: visible;" class="DimensionMark"><polygon points="-5,-5,0,0,-5,5"/></g><g id="mark3" fill="#000000" stroke="none" transform="matrix(1,0,0,1,291.6134,252.9744)" style="fill-opacity: 1; pointer-events: visible;" class="DimensionMark"><polygon points="-5,-5,0,0,5,-5"/></g><g id="mark4" fill="#000000" stroke="none" transform="matrix(1,0,0,1,0,126.4872)" style="fill-opacity: 1; pointer-events: visible;" class="DimensionMark"><polygon points="5,5,0,0,5,-5"/></g></g><g transform="matrix(1,0,0,1,156.5893,136.8348)" class="SpaceDimensionsLabel"><g id="NameLabel" style="display: block;" class="TextLabel NameLabel"><text x="0" y="0em" fill="#000000" stroke="none" style="font-family: Verdana; font-size: 33px; fill-opacity: 1; cursor: default;">ULKOTILA</text></g><g id="DimensionMeasureLabel" transform="matrix(1,0,0,1,-57.0859,80.0468)" style="display: none;" class="TextLabel DimensionMeasureLabel"><text x="42.1796875" y="-1.2em" fill="#000000" stroke="none" style="font-family: Verdana; font-size: 33px; fill-opacity: 1; cursor: default;">19'2" x 8'4"</text><text x="0" y="0em" fill="#000000" stroke="none" style="font-family: Verdana; font-size: 33px; fill-opacity: 1; cursor: default;">5.83 m x 2.53 m</text></g></g></g></g><g id="9ef93ee0-dec3-42cc-ba1e-4403ac28025c" fill="#ffffff" stroke="#ffffff" style="fill-opacity: 1; stroke-opacity: 1; stroke-width: 0.2;" class="Space Undefined"><polygon points="676.24,492.28 538.38,492.28 538.38,515.28 676.24,515.28 676.24,682.13 97.02,682.13 97.02,363.73 265.49,363.73 265.49,340.73 97.02,340.73 97.02,100.58 676.24,100.58 "/><g transform="matrix(1,0,0,1,97.0152,100.5768)" class="Dimension"><g transform="matrix(1,0,0,1,0,0)" style="display: none;" class="Visual"><g id="mark1" fill="#000000" stroke="none" transform="matrix(1,0,0,1,289.6134,0)" style="fill-opacity: 1; pointer-events: visible;" class="DimensionMark"><polygon points="-5,5,0,0,5,5"/></g><g id="mark2" fill="#000000" stroke="none" transform="matrix(1,0,0,1,579.2269,290.7787)" style="fill-opacity: 1; pointer-events: visible;" class="DimensionMark"><polygon points="-5,-5,0,0,-5,5"/></g><g id="mark3" fill="#000000" stroke="none" transform="matrix(1,0,0,1,289.6134,581.5573)" style="fill-opacity: 1; pointer-events: visible;" class="DimensionMark"><polygon points="-5,-5,0,0,5,-5"/></g><g id="mark4" fill="#000000" stroke="none" transform="matrix(1,0,0,1,0,290.7787)" style="fill-opacity: 1; pointer-events: visible;" class="DimensionMark"><polygon points="5,5,0,0,5,-5"/></g></g><g transform="matrix(1,0,0,1,367.6733,202.5031)" class="SpaceDimensionsLabel"><g id="NameLabel" style="display: block;" class="TextLabel NameLabel"><text x="0" y="0em" fill="#000000" stroke="none" style="font-family: Verdana; font-size: 33px; fill-opacity: 1; cursor: default;">UNDEFINED</text></g><g id="DimensionMeasureLabel" transform="matrix(1,0,0,1,-40.5235,80.5)" style="display: none;" class="TextLabel DimensionMeasureLabel"><text x="31.6953125" y="-1.2em" fill="#000000" stroke="none" style="font-family: Verdana; font-size: 33px; fill-opacity: 1; cursor: default;">19'0" x 19'1"</text><text x="0" y="0em" fill="#000000" stroke="none" style="font-family: Verdana; font-size: 33px; fill-opacity: 1; cursor: default;">5.79 m x 5.82 m</text></g></g></g></g><g id="Wall" fill="#000000" stroke="#000000" style="fill-opacity: 1; stroke-opacity: 1; stroke-width: 0.2;" class="Wall External"><polygon points="74.02,43.41 74.02,682.13 97.02,705.13 97.02,43.41 "/><g id="Window" fill="#f0f0ff" stroke="#000000" style="fill-opacity: 1; stroke-width: 1; stroke-opacity: 1;" class="Window Regular"><polygon points="74.02,446.77 74.02,599.76 97.02,599.76 97.02,446.77 "/><g id="Glass" class="Glass"><polygon points="74.02,446.77 74.02,599.76 97.02,599.76 97.02,446.77 "/></g><g id="Panel" class="Panel"><line x1="85.51515191179465" x2="85.51515191179465" y1="454.26900944026056" y2="592.2614786072008"/><line x1="74.01515191179465" x2="97.01515191179465" y1="454.26900944026056" y2="454.26900944026056"/><line x1="74.01515191179465" x2="97.01515191179465" y1="592.2614786072008" y2="592.2614786072008"/></g></g></g><g id="Wall" fill="#000000" stroke="#000000" style="fill-opacity: 1; stroke-opacity: 1; stroke-width: 0.2;" class="Wall External"><polygon points="74.02,705.13 736.45,705.13 736.45,682.13 97.02,682.13 "/><g id="Door" fill="#ffffff" stroke="#000000" style="fill-opacity: 1; stroke-width: 1; stroke-opacity: 1;" class="Door Swing Beside"><polygon points="337.10,705.13 439.36,705.13 439.36,682.13 337.10,682.13 "/><g id="Threshold" class="Threshold"><polygon points="337.10,705.13 439.36,705.13 439.36,682.13 337.10,682.13 "/></g><g id="Panel" fill="none" style="" class="Panel Right Negative"><g id="PanelArea" fill="none" stroke="none" style="" class="PanelArea"><polygon points="337.10,705.13 439.36,705.13 439.36,682.13 337.10,682.13 "/></g><path d="M439.36,705.13 q0.00,102.26 -102.26,102.26 l0.00,-102.26Z"/></g></g><g id="Window" fill="#f0f0ff" stroke="#000000" style="fill-opacity: 1; stroke-width: 1; stroke-opacity: 1;" class="Window Regular"><polygon points="190.45,705.13 334.73,705.13 334.73,682.13 190.45,682.13 "/><g id="Glass" class="Glass"><polygon points="190.45,705.13 334.73,705.13 334.73,682.13 190.45,682.13 "/></g><g id="Panel" class="Panel"><line x1="197.95373370770938" x2="327.2264248392281" y1="693.6341120816195" y2="693.6341120816195"/><line x1="197.95373370770938" x2="197.95373370770938" y1="705.1341120816195" y2="682.1341120816195"/><line x1="327.2264248392281" x2="327.2264248392281" y1="705.1341120816195" y2="682.1341120816195"/></g></g><g id="Window" fill="#f0f0ff" stroke="#000000" style="fill-opacity: 1; stroke-width: 1; stroke-opacity: 1;" class="Window Regular"><polygon points="447.29,705.13 585.22,705.13 585.22,682.13 447.29,682.13 "/><g id="Glass" class="Glass"><polygon points="447.29,705.13 585.22,705.13 585.22,682.13 447.29,682.13 "/></g><g id="Panel" class="Panel"><line x1="454.7908322055778" x2="577.7218665840627" y1="693.6341120816194" y2="693.6341120816194"/><line x1="454.7908322055778" x2="454.7908322055778" y1="705.1341120816194" y2="682.1341120816194"/><line x1="577.7218665840627" x2="577.7218665840627" y1="705.1341120816194" y2="682.1341120816194"/></g></g></g><g id="Wall" fill="#000000" stroke="#000000" style="fill-opacity: 1; stroke-opacity: 1; stroke-width: 0.2;" class="Wall External"><polygon points="699.24,705.13 699.24,40.66 676.24,40.66 676.24,705.13 "/><g id="Window" fill="#f0f0ff" stroke="#000000" style="fill-opacity: 1; stroke-width: 1; stroke-opacity: 1;" class="Window Regular"><polygon points="699.24,375.43 699.24,212.92 676.24,212.92 676.24,375.43 "/><g id="Glass" class="Glass"><polygon points="699.24,375.43 699.24,212.92 676.24,212.92 676.24,375.43 "/></g><g id="Panel" class="Panel"><line x1="687.7420132480247" x2="687.7420132480246" y1="367.9253649207553" y2="220.4204106242645"/><line x1="699.2420132480247" x2="676.2420132480247" y1="367.9253649207553" y2="367.9253649207553"/><line x1="699.2420132480246" x2="676.2420132480246" y1="220.4204106242645" y2="220.4204106242645"/></g></g></g><g id="Wall" fill="#000000" stroke="#000000" style="fill-opacity: 1; stroke-opacity: 1; stroke-width: 0.2;" class="Wall External"><polygon points="730.10,100.58 37.31,100.58 37.31,77.58 730.10,77.58 "/><g id="Window" fill="#f0f0ff" stroke="#000000" style="fill-opacity: 1; stroke-width: 1; stroke-opacity: 1;" class="Window Regular"><polygon points="474.24,100.58 299.05,100.58 299.05,77.58 474.24,77.58 "/><g id="Glass" class="Glass"><polygon points="474.24,100.58 299.05,100.58 299.05,77.58 474.24,77.58 "/></g><g id="Panel" class="Panel"><line x1="466.7428734059714" x2="306.55460560341305" y1="89.07676959267421" y2="89.07676959267422"/><line x1="466.7428734059714" x2="466.7428734059714" y1="100.57676959267421" y2="77.57676959267421"/><line x1="306.55460560341305" x2="306.55460560341305" y1="100.57676959267422" y2="77.57676959267422"/></g></g></g><g id="Wall" fill="#000000" stroke="#000000" style="fill-opacity: 1; stroke-opacity: 1; stroke-width: 0.2;" class="Wall External"><polygon points="41.35,363.73 74.02,363.73 74.02,340.73 41.35,340.73 "/></g><g id="Wall" fill="#000000" stroke="#000000" style="fill-opacity: 1; stroke-opacity: 1; stroke-width: 0.2;" class="Wall"><polygon points="97.02,363.73 265.49,363.73 265.49,340.73 97.02,340.73 "/></g><g id="Wall" fill="#000000" stroke="#000000" style="fill-opacity: 1; stroke-opacity: 1; stroke-width: 0.2;" class="Wall External"><polygon points="734.63,515.28 699.24,515.28 699.24,492.28 734.63,492.28 "/></g><g id="Wall" fill="#000000" stroke="#000000" style="fill-opacity: 1; stroke-opacity: 1; stroke-width: 0.2;" class="Wall"><polygon points="676.24,515.28 538.38,515.28 538.38,492.28 676.24,492.28 "/></g><g id="Wall" fill="#000000" stroke="#000000" style="fill-opacity: 1; stroke-opacity: 1; stroke-width: 0.2;" class="Wall External"><polygon points="97.02,705.13 42.21,705.13 42.21,682.13 74.02,682.13 "/></g><g id="Railing" fill="#ffffff" stroke="#000000" style="fill-opacity: 1; stroke-opacity: 1; stroke-width: 0.2;" class="Railing"><polygon points="74.02,705.13 74.02,991.35 94.02,991.35 94.02,705.13 " style="stroke-dasharray: 0;"/></g><g id="Railing" fill="#ffffff" stroke="#000000" style="fill-opacity: 1; stroke-opacity: 1; stroke-width: 0.2;" class="Railing"><polygon points="46.79,958.11 131.20,958.11 131.20,933.11 46.79,933.11 " style="stroke-dasharray: 0;"/></g><g id="Railing" fill="#ffffff" stroke="#000000" style="fill-opacity: 1; stroke-opacity: 1; stroke-width: 0.2;" class="Railing"><polygon points="340.88,958.11 447.37,958.11 447.37,933.11 340.88,933.11 " style="stroke-dasharray: 0;"/></g><g id="Railing" fill="#ffffff" stroke="#000000" style="fill-opacity: 1; stroke-opacity: 1; stroke-width: 0.2;" class="Railing"><polygon points="640.07,958.11 736.45,958.11 736.45,933.11 640.07,933.11 " style="stroke-dasharray: 0;"/></g><g id="Railing" fill="#ffffff" stroke="#000000" style="fill-opacity: 1; stroke-opacity: 1; stroke-width: 0.2;" class="Railing"><polygon points="699.24,705.13 699.24,993.04 677.24,993.04 677.24,705.13 " style="stroke-dasharray: 0;"/></g><g id="Railing" fill="#ffffff" stroke="#000000" style="fill-opacity: 1; stroke-opacity: 1; stroke-width: 0.2;" class="Railing"><polygon points="383.14,900.61 383.14,993.04 405.14,993.04 405.14,900.61 " style="stroke-dasharray: 0;"/></g><g id="Wall" fill="#000000" stroke="#000000" style="fill-opacity: 1; stroke-opacity: 1; stroke-width: 0.2;" class="Wall External"><polygon points="854.39,342.79 854.39,677.64 871.39,694.64 871.39,342.79 "/><g id="Window" fill="#f0f0ff" stroke="#000000" style="fill-opacity: 1; stroke-width: 1; stroke-opacity: 1;" class="Window Regular"><polygon points="854.39,542.69 854.39,653.67 871.39,653.67 871.39,542.69 "/><g id="Glass" class="Glass"><polygon points="854.39,542.69 854.39,653.67 871.39,653.67 871.39,542.69 "/></g><g id="Panel" class="Panel"><line x1="862.8925718961136" x2="862.8925718961136" y1="550.1865678298967" y2="646.165561007988"/><line x1="854.3925718961136" x2="871.3925718961136" y1="550.1865678298967" y2="550.1865678298967"/><line x1="854.3925718961136" x2="871.3925718961136" y1="646.165561007988" y2="646.165561007988"/></g></g></g><g id="Wall" fill="#000000" stroke="#000000" style="fill-opacity: 1; stroke-opacity: 1; stroke-width: 0.2;" class="Wall External"><polygon points="854.39,694.64 1448.88,694.64 1431.88,677.64 871.39,677.64 "/><g id="Door" fill="#ffffff" stroke="#000000" style="fill-opacity: 1; stroke-width: 1; stroke-opacity: 1;" class="Door Swing Beside"><polygon points="1061.89,694.64 1148.32,694.64 1148.32,677.64 1061.89,677.64 "/><g id="Threshold" class="Threshold"><polygon points="1061.89,694.64 1148.32,694.64 1148.32,677.64 1061.89,677.64 "/></g><g id="Panel" fill="none" style="" class="Panel Left Negative"><g id="PanelArea" fill="none" stroke="none" style="" class="PanelArea"><polygon points="1061.89,694.64 1148.32,694.64 1148.32,677.64 1061.89,677.64 "/></g><path d="M1061.89,694.64 q0.00,86.43 86.43,86.43 l0.00,-86.43Z"/></g></g><g id="Door" fill="#ffffff" stroke="#000000" style="fill-opacity: 1; stroke-width: 1; stroke-opacity: 1;" class="Door Swing Beside"><polygon points="1239.24,694.64 1326.66,694.64 1326.66,677.64 1239.24,677.64 "/><g id="Threshold" class="Threshold"><polygon points="1239.24,694.64 1326.66,694.64 1326.66,677.64 1239.24,677.64 "/></g><g id="Panel" fill="none" style="" class="Panel Left Negative"><g id="PanelArea" fill="none" stroke="none" style="" class="PanelArea"><polygon points="1239.24,694.64 1326.66,694.64 1326.66,677.64 1239.24,677.64 "/></g><path d="M1239.24,694.64 q0.00,87.43 87.43,87.43 l0.00,-87.43Z"/></g></g><g id="Window" fill="#f0f0ff" stroke="#000000" style="fill-opacity: 1; stroke-width: 1; stroke-opacity: 1;" class="Window Regular"><polygon points="922.12,694.64 1056.09,694.64 1056.09,677.64 922.12,677.64 "/><g id="Glass" class="Glass"><polygon points="922.12,694.64 1056.09,694.64 1056.09,677.64 922.12,677.64 "/></g><g id="Panel" class="Panel"><line x1="929.6223936847331" x2="1048.589892592572" y1="686.1381629444636" y2="686.1381629444636"/><line x1="929.6223936847331" x2="929.6223936847331" y1="694.6381629444636" y2="677.6381629444636"/><line x1="1048.589892592572" x2="1048.589892592572" y1="694.6381629444636" y2="677.6381629444636"/></g></g></g><g id="Wall" fill="#000000" stroke="#000000" style="fill-opacity: 1; stroke-opacity: 1; stroke-width: 0.2;" class="Wall External"><polygon points="1448.88,694.64 1448.88,337.06 1431.88,337.06 1431.88,677.64 "/><g id="Window" fill="#f0f0ff" stroke="#000000" style="fill-opacity: 1; stroke-width: 1; stroke-opacity: 1;" class="Window Regular"><polygon points="1448.88,644.95 1448.88,550.61 1431.88,550.61 1431.88,644.95 "/><g id="Glass" class="Glass"><polygon points="1448.88,644.95 1448.88,550.61 1431.88,550.61 1431.88,644.95 "/></g><g id="Panel" class="Panel"><line x1="1440.3794757757241" x2="1440.3794757757241" y1="637.4457829725665" y2="558.1136387711889"/><line x1="1448.8794757757241" x2="1431.8794757757241" y1="637.4457829725665" y2="637.4457829725665"/><line x1="1448.8794757757241" x2="1431.8794757757241" y1="558.1136387711889" y2="558.1136387711889"/></g></g></g><g id="Wall" fill="#000000" stroke="#000000" style="fill-opacity: 1; stroke-opacity: 1; stroke-width: 0.2;" class="Wall External"><polygon points="822.90,391.46 1481.31,391.46 1481.31,374.46 822.90,374.46 "/></g><g id="Wall" fill="#000000" stroke="#000000" style="fill-opacity: 1; stroke-opacity: 1; stroke-width: 0.2;" class="Wall External"><polygon points="871.39,694.64 820.11,694.64 820.11,677.64 854.39,677.64 "/></g><g id="Railing" fill="#ffffff" stroke="#000000" style="fill-opacity: 1; stroke-opacity: 1; stroke-width: 0.2;" class="Railing"><polygon points="1448.88,694.64 1448.88,882.08 1431.88,882.08 1431.88,694.64 " style="stroke-dasharray: 0;"/></g><g id="Railing" fill="#ffffff" stroke="#000000" style="fill-opacity: 1; stroke-opacity: 1; stroke-width: 0.2;" class="Railing"><polygon points="1480.38,849.47 1389.75,849.47 1389.75,832.47 1480.38,832.47 " style="stroke-dasharray: 0;"/></g><g id="Railing" fill="#ffffff" stroke="#000000" style="fill-opacity: 1; stroke-opacity: 1; stroke-width: 0.2;" class="Railing"><polygon points="1238.59,849.47 820.11,849.47 820.11,832.47 1238.59,832.47 " style="stroke-dasharray: 0;"/></g><g id="Railing" fill="#ffffff" stroke="#000000" style="fill-opacity: 1; stroke-opacity: 1; stroke-width: 0.2;" class="Railing"><polygon points="871.39,694.64 871.39,883.38 854.39,883.38 854.39,694.64 " style="stroke-dasharray: 0;"/></g><g id="Railing" fill="#ffffff" stroke="#000000" style="fill-opacity: 1; stroke-opacity: 1; stroke-width: 0.2;" class="Railing"><polygon points="1185.15,809.07 1185.15,882.08 1202.15,882.08 1202.15,809.07 " style="stroke-dasharray: 0;"/></g><g id="Wall" fill="#000000" stroke="#000000" style="fill-opacity: 1; stroke-opacity: 1; stroke-width: 0.2;" class="Wall"><polygon points="1202.15,725.65 1202.15,391.46 1185.15,391.46 1185.15,725.65 "/><g id="Door" fill="#ffffff" stroke="#000000" style="fill-opacity: 1; stroke-width: 1; stroke-opacity: 1;" class="Door Swing Beside"><polygon points="1202.15,657.14 1202.15,582.70 1185.15,582.70 1185.15,657.14 "/><g id="Threshold" class="Threshold"><polygon points="1202.15,657.14 1202.15,582.70 1185.15,582.70 1185.15,657.14 "/></g><g id="Panel" fill="none" style="" class="Panel Right Positive"><g id="PanelArea" fill="none" stroke="none" style="" class="PanelArea"><polygon points="1202.15,657.14 1202.15,582.70 1185.15,582.70 1185.15,657.14 "/></g><path d="M1185.15,657.14 q-74.44,0.00 -74.44,-74.44 l74.44,0.00Z"/></g></g></g><g id="Wall" fill="#000000" stroke="#000000" style="fill-opacity: 1; stroke-opacity: 1; stroke-width: 0.2;" class="Wall External"><polygon points="1185.15,374.46 1185.15,337.06 1202.15,337.06 1202.15,374.46 "/></g><g id="Column" fill="#000000" stroke="none" style="fill-opacity: 1;" class="Column Rectangle"><polygon points="538.38,515.28 435.00,515.28 435.00,463.60 538.38,463.60 "/></g><g class="FixedFurniture Fireplace" fill="#ffffff" stroke="#000000" transform="matrix(-1.3518,0,0,-0.8855,538.2422,463.4893)" style="fill-opacity: 1; stroke-opacity: 1;">     
	    <g class="BoundaryPolygon"> 
		    <polygon points="0,0 75,0 75,60 0,60"/> 
		</g>
	    <g class="Lines" fill="none" stroke="#4c4c4c"> 
		    <line x1="0.629" y1="9.556" x2="51.294" y2="60.205"/>
            <line x1="0.598" y1="25.167" x2="35.942" y2="60.5"/>
            <line x1="0.5" y1="40.841" x2="20.479" y2="60.5"/>
            <line x1="40.648" y1="0.5" x2="75.432" y2="35.274"/>
            <line x1="8.329" y1="0.5" x2="68.348" y2="60.5"/>
            <line x1="24.88" y1="0.5" x2="75.5" y2="51.104"/>
            <line x1="56.774" y1="0.5" x2="75.5" y2="19.22"/>
		</g>
	    <g class="FireBox">  &gt;	
		    <rect x="22.053" y="19.92" width="32.571" height="40.58"/>
	    </g>
        <g class="Direction" fill-opacity="0.9" style="display: none;">
            <polygon points="39.409 54.797 39.409 44.181 36.4 44.181 36.4 54.797 32.597 54.797 37.9 60.1 43.203 54.797 39.409 54.797" fill="#444444"/>
        </g> 
        <g class="Name" fill-opacity="0.9" style="display: none;">
            <text transform="translate(3 12)" font-size="12" font-family="Verdana, Sans-Serif">FP</text>
        </g>
        <desc>Width:75 Height:120 Depth:60 Elevation:0</desc>
    </g><g class="FixedFurniture ElectricalAppliance Heater" fill="#ffffff" stroke="#000000" transform="matrix(0,0.9016,-0.8334,0,434.974,460.173)" style="fill-opacity: 1; stroke-opacity: 1;">    
	   <g class="BoundaryPolygon"> 
		    <polygon points="0 0 60 0 60 60 0 60"/>
		</g>
	    <g class="heaterSign">
		    <path d="M0,0,60,60"/>
            <path d="M16.5,24.2,36,43.5"/>
            <path d="M24.1,16.6,43.6,36"/>
		</g>
        <g class="Direction" fill-opacity="0.9" style="display: none;">
                <polygon points="31.509 54.697 31.509 44.081 28.5 44.081 28.5 54.697 24.697 54.697 30 60 35.303 54.697 31.509 54.697" fill="#444444"/>
        </g> 
        <g class="Name" fill-opacity="0.9" style="display: none;">
                <text transform="translate(3 12)" font-size="12" font-family="Verdana, Sans-Serif">H</text>
        </g>
        <desc>Width:60 Height:90 Depth:60 Elevation:0</desc>
	</g><g id="Column" fill="#000000" stroke="none" style="fill-opacity: 1;" class="Column Rectangle"><polygon points="1220.57,444.35 1202.15,444.35 1202.15,553.96 1220.57,553.96 "/></g><g id="Column" fill="#000000" stroke="none" style="fill-opacity: 1;" class="Column Rectangle"><polygon points="1185.15,444.35 1173.98,444.35 1173.98,553.96 1185.15,553.96 "/></g><g class="FixedFurniture Fireplace" fill="#ffffff" stroke="#000000" transform="matrix(0,1.2601,-1.1132,0,1173.98,459.9053)" style="fill-opacity: 1; stroke-opacity: 1;">     
	    <g class="BoundaryPolygon"> 
		    <polygon points="0,0 75,0 75,60 0,60"/> 
		</g>
	    <g class="Lines" fill="none" stroke="#4c4c4c"> 
		    <line x1="0.629" y1="9.556" x2="51.294" y2="60.205"/>
            <line x1="0.598" y1="25.167" x2="35.942" y2="60.5"/>
            <line x1="0.5" y1="40.841" x2="20.479" y2="60.5"/>
            <line x1="40.648" y1="0.5" x2="75.432" y2="35.274"/>
            <line x1="8.329" y1="0.5" x2="68.348" y2="60.5"/>
            <line x1="24.88" y1="0.5" x2="75.5" y2="51.104"/>
            <line x1="56.774" y1="0.5" x2="75.5" y2="19.22"/>
		</g>
	    <g class="FireBox">  &gt;	
		    <rect x="22.053" y="19.92" width="32.571" height="40.58"/>
	    </g>
        <g class="Direction" fill-opacity="0.9" style="display: none;">
            <polygon points="39.409 54.797 39.409 44.181 36.4 44.181 36.4 54.797 32.597 54.797 37.9 60.1 43.203 54.797 39.409 54.797" fill="#444444"/>
        </g> 
        <g class="Name" fill-opacity="0.9" style="display: none;">
            <text transform="translate(3 12)" font-size="12" font-family="Verdana, Sans-Serif">FP</text>
        </g>
        <desc>Width:75 Height:120 Depth:60 Elevation:0</desc>
    </g><g class="FixedFurniture SaunaBenchHigh" fill="#ffffff" stroke="#000000" transform="matrix(0,1,-1,0,1431.8795,391.457)" style="fill-opacity: 1; stroke-opacity: 1;">
        <g class="BoundaryPolygon">
            <polygon points="0.00,0.00 163.08,0.00 163.08,60.00 0.00,60.00 "/> 
        </g>
        <g class="Bench" stroke="#9a9a9a" stroke-width="0.5">
            <line x1="0" y1="4" x2="163.0790333964697" y2="4"/>
            <line x1="0" y1="8" x2="163.0790333964697" y2="8"/>
            <line x1="0" y1="12" x2="163.0790333964697" y2="12"/>
            <line x1="0" y1="16" x2="163.0790333964697" y2="16"/>
            <line x1="0" y1="20" x2="163.0790333964697" y2="20"/>
            <line x1="0" y1="24" x2="163.0790333964697" y2="24"/>
            <line x1="0" y1="28" x2="163.0790333964697" y2="28"/>
            <line x1="0" y1="32" x2="163.0790333964697" y2="32"/>
            <line x1="0" y1="36" x2="163.0790333964697" y2="36"/>
            <line x1="0" y1="40" x2="163.0790333964697" y2="40"/>
            <line x1="0" y1="44" x2="163.0790333964697" y2="44"/>
            <line x1="0" y1="48" x2="163.0790333964697" y2="48"/>
            <line x1="0" y1="52" x2="163.0790333964697" y2="52"/>
            <line x1="0" y1="56" x2="163.0790333964697" y2="56"/>
        </g>
         <g class="Direction" fill-opacity="0.9" style="display: none;">
            <polygon points="84.10,54.66 84.10,44.04 81.09,44.04 81.09,54.66 77.29,54.66 82.59,59.96 87.90,54.66 84.10,54.66 " fill="#444444"/>
        </g> 
        <g class="Name" fill-opacity="0.9" style="display: none;">
            <text transform="translate(3 12)" font-size="12" font-family="Verdana, Sans-Serif">SB_HIGH</text>
        </g>
        <desc>Width:185 Height:5 Depth:60 Elevation:105</desc>
    </g><g class="FixedFurniture SaunaBenchMid" fill="#ffffff" stroke="#000000" transform="matrix(0,1,-1,0,1371.8795,391.457)" style="fill-opacity: 1; stroke-opacity: 1;">
        <g class="BoundaryPolygon">
            <polygon points="0.00,0.00 163.99,0.00 163.99,40.00 0.00,40.00 "/>
        </g>
        <g class="Bench" stroke="#9a9a9a" stroke-width="0.5">
            <line x1="0" y1="4" x2="163.99240700495008" y2="4"/>
            <line x1="0" y1="8" x2="163.99240700495008" y2="8"/>
            <line x1="0" y1="12" x2="163.99240700495008" y2="12"/>
            <line x1="0" y1="16" x2="163.99240700495008" y2="16"/>
            <line x1="0" y1="20" x2="163.99240700495008" y2="20"/>
            <line x1="0" y1="24" x2="163.99240700495008" y2="24"/>
            <line x1="0" y1="28" x2="163.99240700495008" y2="28"/>
            <line x1="0" y1="32" x2="163.99240700495008" y2="32"/>
            <line x1="0" y1="36" x2="163.99240700495008" y2="36"/>
        </g>
        <g class="Direction" fill-opacity="0.9" style="display: none;">
            <polygon points="83.33,34.66 83.33,24.04 80.32,24.04 80.32,34.66 76.52,34.66 81.82,39.96 87.13,34.66 83.33,34.66 " fill="#444444"/>
        </g> 
        <g class="Name" fill-opacity="0.9" style="display: none;">
            <text transform="translate(3 12)" font-size="12" font-family="Verdana, Sans-Serif">SB_MID</text>
        </g>
        <desc>Width:185 Height:5 Depth:40 Elevation:60</desc>
    </g><g class="FixedFurniture SaunaBenchLow" fill="#ffffff" stroke="#000000" transform="matrix(1,0,0,1,1331.8795,555.6369)" style="fill-opacity: 1; stroke-opacity: 1;">
        <g class="BoundaryPolygon">
            <polygon points="0.00,0.00 40.24,0.00 40.24,28.99 0.00,28.99 "/>
        </g>
        <g class="Bench" stroke="#9a9a9a" stroke-width="0.5">
            <line x1="0" y1="2.8992501236665915" x2="40.24158312646375" y2="2.8992501236665915"/>
            <line x1="0" y1="5.798500247333183" x2="40.24158312646375" y2="5.798500247333183"/>
            <line x1="0" y1="8.697750370999774" x2="40.24158312646375" y2="8.697750370999774"/>
            <line x1="0" y1="11.597000494666366" x2="40.24158312646375" y2="11.597000494666366"/>
            <line x1="0" y1="14.496250618332953" x2="40.24158312646375" y2="14.496250618332953"/>
            <line x1="0" y1="17.395500741999548" x2="40.24158312646375" y2="17.395500741999548"/>
            <line x1="0" y1="20.294750865666135" x2="40.24158312646375" y2="20.294750865666135"/>
            <line x1="0" y1="23.194000989332732" x2="40.24158312646375" y2="23.194000989332732"/>
            <line x1="0" y1="26.093251112999315" x2="40.24158312646375" y2="26.093251112999315"/>
        </g>
        <g class="Direction" fill-opacity="0.9" style="display: none;">
            <polygon points="20.81,25.12 20.81,14.50 17.80,14.50 17.80,25.12 14.00,25.12 19.30,30.42 24.60,25.12 20.81,25.12 " fill="#444444"/>
        </g> 
        <g class="Name" fill-opacity="0.9" style="display: none;">
            <text transform="translate(3 12)" font-size="12" font-family="Verdana, Sans-Serif">SB_LOW</text>
        </g>
        <desc>Width:91 Height:5 Depth:40 Elevation:30</desc>
    </g><g class="FixedFurniture ElectricalAppliance SaunaStove" fill="#ffffff" stroke="#000000" transform="matrix(0,-1,1.4352,0,1227.6416,474.1028)" style="fill-opacity: 1; stroke-opacity: 1;"> 
	   <g class="BoundaryPolygon"> 
		    <polygon points="0,0 60,0 60,35 0,35"/>
		</g>
	    <g class="electricitySign" fill="none">
		    <polyline points="0 35 39.7 17.5 21.4 17.5 60 0"/>
		</g>
        <g class="Direction" fill-opacity="0.9" style="display: none;">
            <polygon points="31.509 29.697 31.509 19.081 28.5 19.081 28.5 29.697 24.697 29.697 30 35 35.303 29.697 31.509 29.697" fill="#444444"/>
        </g> 
        <g class="Name" fill-opacity="0.9" style="display: none;">
            <text transform="translate(3 12)" font-size="12" font-family="Verdana, Sans-Serif">SS</text>
        </g>
        <desc>Width:60 Height:60 Depth:35 Elevation:20</desc>
	</g><g class="FixedFurniture ElectricalAppliance SaunaStoveRound" fill="#ffffff" stroke="#000000" transform="matrix(1.4131,0,0,1.51,1220.57,485.949)" style="fill-opacity: 1; stroke-opacity: 1;"> 
	   <g class="BoundaryPolygon" fill="none" stroke="none"> 
           <polygon points="0,0 40,0 40,40 0,40"/>
		</g>
        <g class="InnerCircle"> 
           <circle cx="20.5" cy="20.5" r="20"/>
		</g>
	    <g class="electricitySign" fill="none">
		    <polyline points="2.5 30.5 30.5 20.5 10.5 20.5 38.5 10.5"/>
		</g>
        <g class="Name" fill-opacity="0.9" style="display: none;">
            <text transform="translate(10 12)" font-size="12" font-family="Verdana, Sans-Serif">SS</text>
        </g>
        <desc>Width:60 Height:60 Depth:35 Elevation:20</desc>
	</g><g fill="#0000ff" stroke="#0000ff" style="display: none;" class="SelectionControls"><g style="display: none;" class="rotateControl"><circle cx="1326.0697994140626" cy="561.9914725549041" r="5" style="stroke : none; fill-opacity: 0.5; cursor:crosshair"/></g><g style="display: none;" class="ResizeNControl"><circle cx="0" cy="0" r="5" style="stroke : none; fill-opacity: 0.5"/></g><g style="display: none;" class="ResizeNEControl"><circle cx="0" cy="0" r="5" style="stroke : none; fill-opacity: 0.5"/></g><g style="display: none;" class="ResizeEControl"><circle cx="0" cy="0" r="5" style="stroke : none; fill-opacity: 0.5"/></g><g style="display: none;" class="ResizeSEControl"><circle cx="0" cy="0" r="5" style="stroke : none; fill-opacity: 0.5"/></g><g style="display: none;" class="ResizeSControl"><circle cx="0" cy="0" r="5" style="stroke : none; fill-opacity: 0.5"/></g><g style="display: none;" class="ResizeSWControl"><circle cx="0" cy="0" r="5" style="stroke : none; fill-opacity: 0.5"/></g><g style="display: none;" class="ResizeWControl"><circle cx="0" cy="0" r="5" style="stroke : none; fill-opacity: 0.5"/></g><g style="display: none;" class="ResizeNWControl"><circle cx="0" cy="0" r="5" style="stroke : none; fill-opacity: 0.5"/></g><g style="display: none;" class="removeControl"><polygon style="stroke : none; fill-opacity: 0.1" points="1267.84,591.99 1384.30,591.99 1384.30,632.44 1267.84,632.44 "/></g><g style="display: none;" class="copyPasteControl"><polygon style="stroke : none; fill-opacity: 0.1"/></g><g style="display: none;" class="translateControl"><polygon style="stroke : none; fill-opacity: 0.1; cursor:move" points="1267.84,591.99 1384.30,591.99 1384.30,632.44 1267.84,632.44 "/></g></g><g fill="#0000ff" stroke="#0000ff" style="display: none;" class="SelectionControls"><polygon fill="none" stroke="#0000ff" style="" points="1202.15,391.46 1431.88,391.46 1431.88,677.64 1202.15,677.64 "/><g style="display: none;" class="rotateControl"><circle cx="1317.014778137207" cy="361.45697255490416" r="5" style="stroke : none; fill-opacity: 0.5; cursor:crosshair"/></g><g style="display: none;" class="ResizeNControl"><circle cx="0" cy="0" r="5" style="stroke : none; fill-opacity: 0.5"/></g><g style="display: none;" class="ResizeNEControl"><circle cx="0" cy="0" r="5" style="stroke : none; fill-opacity: 0.5"/></g><g style="display: none;" class="ResizeEControl"><circle cx="0" cy="0" r="5" style="stroke : none; fill-opacity: 0.5"/></g><g style="display: none;" class="ResizeSEControl"><circle cx="0" cy="0" r="5" style="stroke : none; fill-opacity: 0.5"/></g><g style="display: none;" class="ResizeSControl"><circle cx="0" cy="0" r="5" style="stroke : none; fill-opacity: 0.5"/></g><g style="display: none;" class="ResizeSWControl"><circle cx="0" cy="0" r="5" style="stroke : none; fill-opacity: 0.5"/></g><g style="display: none;" class="ResizeWControl"><circle cx="0" cy="0" r="5" style="stroke : none; fill-opacity: 0.5"/></g><g style="display: none;" class="ResizeNWControl"><circle cx="0" cy="0" r="5" style="stroke : none; fill-opacity: 0.5"/></g><g style="display: none;" class="removeControl"><polygon style="stroke : none; fill-opacity: 0.1"/></g><g style="display: none;" class="copyPasteControl"><polygon style="stroke : none; fill-opacity: 0.1"/></g><g style="display: none;" class="translateControl"><polygon style="stroke : none; fill-opacity: 0.1; cursor:move"/></g></g></g></g></g></svg>
