<?xml version="1.0"?>
<svg xmlns="http://www.w3.org/2000/svg" xmlns:xlink="http://www.w3.org/1999/xlink" height="749.0900421142578" version="1.1" width="810.2199554443359" id="temp" viewBox="0 0 810.2199554443359 749.0900421142578"><defs/><g id="Model" class="Model v1-1"><g class="Floor"><g id="Floor-1" class="Floorplan Floor-1"><g id="617b88e9-dd7f-4803-ac5d-9569346a3967" fill="#ffffff" stroke="#ffffff" style="fill-opacity: 1; stroke-opacity: 1; stroke-width: 0.2;" class="Space Entry Lobby"><polygon points="396.49,503.10 440.62,503.10 440.62,493.21 416.92,493.19 789.22,493.19 789.22,493.21 503.50,493.21 503.50,503.29 538.92,503.29 538.92,644.77 304.03,644.77 304.03,379.29 396.49,379.29 "/><g transform="matrix(1,0,0,1,304.0253,493.1936)" class="Dimension"><g transform="matrix(1,0,0,1,0,0)" style="display: none;" class="Visual"><g id="mark1" fill="#000000" stroke="none" transform="matrix(1,0,0,1,234.8982,0)" style="fill-opacity: 1; pointer-events: visible;" class="DimensionMark"><polygon points="-5,5,0,0,5,5"/></g><g id="mark2" fill="#000000" stroke="none" transform="matrix(1,0,0,1,485.1985,0.0156)" style="fill-opacity: 1; pointer-events: visible;" class="DimensionMark"><polygon points="-5,-5,0,0,-5,5"/></g><g id="mark3" fill="#000000" stroke="none" transform="matrix(1,0,0,1,234.8982,151.5773)" style="fill-opacity: 1; pointer-events: visible;" class="DimensionMark"><polygon points="-5,-5,0,0,5,-5"/></g><g id="mark4" fill="#000000" stroke="none" transform="matrix(1,0,0,1,0,0.0156)" style="fill-opacity: 1; pointer-events: visible;" class="DimensionMark"><polygon points="5,5,0,0,5,-5"/></g></g><g transform="matrix(1,0,0,1,101.2749,91.3207)" class="SpaceDimensionsLabel"><g id="NameLabel" style="display: block;" class="TextLabel NameLabel"><text x="0" y="0em" fill="#000000" stroke="none" style="font-family: Verdana; font-size: 33px; fill-opacity: 1; cursor: default;">ET</text></g><g id="DimensionMeasureLabel" transform="matrix(1,0,0,1,-119.1484,79.375)" style="display: none;" class="TextLabel DimensionMeasureLabel"><text x="31.6953125" y="-1.2em" fill="#000000" stroke="none" style="font-family: Verdana; font-size: 33px; fill-opacity: 1; cursor: default;">15'11" x 5'0"</text><text x="0" y="0em" fill="#000000" stroke="none" style="font-family: Verdana; font-size: 33px; fill-opacity: 1; cursor: default;">4.85 m x 1.52 m</text></g></g></g></g><g id="adccbb99-0f36-4de6-aac6-e76388c5b9e8" fill="#ffffff" stroke="#ffffff" style="fill-opacity: 1; stroke-opacity: 1; stroke-width: 0.2;" class="Space Room"><polygon points="789.22,493.19 416.92,493.19 416.92,83.41 789.22,83.41 "/><g transform="matrix(1,0,0,1,416.9245,83.4099)" class="Dimension"><g transform="matrix(1,0,0,1,0,0)" style="display: none;" class="Visual"><g id="mark1" fill="#000000" stroke="none" transform="matrix(1,0,0,1,186.1497,0)" style="fill-opacity: 1; pointer-events: visible;" class="DimensionMark"><polygon points="-5,5,0,0,5,5"/></g><g id="mark2" fill="#000000" stroke="none" transform="matrix(1,0,0,1,372.2993,204.8919)" style="fill-opacity: 1; pointer-events: visible;" class="DimensionMark"><polygon points="-5,-5,0,0,-5,5"/></g><g id="mark3" fill="#000000" stroke="none" transform="matrix(1,0,0,1,186.1497,409.7838)" style="fill-opacity: 1; pointer-events: visible;" class="DimensionMark"><polygon points="-5,-5,0,0,5,-5"/></g><g id="mark4" fill="#000000" stroke="none" transform="matrix(1,0,0,1,0,204.8919)" style="fill-opacity: 1; pointer-events: visible;" class="DimensionMark"><polygon points="5,5,0,0,5,-5"/></g></g><g transform="matrix(1,0,0,1,176.3568,193.2629)" class="SpaceDimensionsLabel"><g id="NameLabel" style="display: block;" class="TextLabel NameLabel"><text x="0" y="0em" fill="#000000" stroke="none" style="font-family: Verdana; font-size: 33px; fill-opacity: 1; cursor: default;">H</text></g><g id="DimensionMeasureLabel" transform="matrix(1,0,0,1,-127.5938,79.375)" style="display: none;" class="TextLabel DimensionMeasureLabel"><text x="31.6953125" y="-1.2em" fill="#000000" stroke="none" style="font-family: Verdana; font-size: 33px; fill-opacity: 1; cursor: default;">12'3" x 13'5"</text><text x="0" y="0em" fill="#000000" stroke="none" style="font-family: Verdana; font-size: 33px; fill-opacity: 1; cursor: default;">3.72 m x 4.10 m</text></g></g></g></g><g id="2a9406cb-d970-4d4f-8b14-58bb9fa3fbd5" fill="#ffffff" stroke="#ffffff" style="fill-opacity: 1; stroke-opacity: 1; stroke-width: 0.2;" class="Space Kitchen"><polygon points="396.49,368.92 64.83,368.92 64.83,83.41 396.49,83.41 "/><g transform="matrix(1,0,0,1,64.8273,83.4099)" class="Dimension"><g transform="matrix(1,0,0,1,0,0)" style="display: none;" class="Visual"><g id="mark1" fill="#000000" stroke="none" transform="matrix(1,0,0,1,165.83,0)" style="fill-opacity: 1; pointer-events: visible;" class="DimensionMark"><polygon points="-5,5,0,0,5,5"/></g><g id="mark2" fill="#000000" stroke="none" transform="matrix(1,0,0,1,331.6601,142.7538)" style="fill-opacity: 1; pointer-events: visible;" class="DimensionMark"><polygon points="-5,-5,0,0,-5,5"/></g><g id="mark3" fill="#000000" stroke="none" transform="matrix(1,0,0,1,165.83,285.5076)" style="fill-opacity: 1; pointer-events: visible;" class="DimensionMark"><polygon points="-5,-5,0,0,5,-5"/></g><g id="mark4" fill="#000000" stroke="none" transform="matrix(1,0,0,1,0,142.7538)" style="fill-opacity: 1; pointer-events: visible;" class="DimensionMark"><polygon points="5,5,0,0,5,-5"/></g></g><g transform="matrix(1,0,0,1,164.1756,159.2791)" class="SpaceDimensionsLabel"><g id="NameLabel" style="display: block;" class="TextLabel NameLabel"><text x="0" y="0em" fill="#000000" stroke="none" style="font-family: Verdana; font-size: 33px; fill-opacity: 1; cursor: default;">K</text></g><g id="DimensionMeasureLabel" transform="matrix(1,0,0,1,-128.3594,79.375)" style="display: none;" class="TextLabel DimensionMeasureLabel"><text x="31.6953125" y="-1.2em" fill="#000000" stroke="none" style="font-family: Verdana; font-size: 33px; fill-opacity: 1; cursor: default;">10'11" x 9'4"</text><text x="0" y="0em" fill="#000000" stroke="none" style="font-family: Verdana; font-size: 33px; fill-opacity: 1; cursor: default;">3.32 m x 2.86 m</text></g></g></g></g><g id="bf3cf372-7c3c-47d3-8971-ba800251886b" fill="#ffffff" stroke="#ffffff" style="fill-opacity: 1; stroke-opacity: 1; stroke-width: 0.2;" class="Space Undefined"><polygon points="295.03,493.21 83.61,493.21 83.61,379.29 295.03,379.29 "/><g transform="matrix(1,0,0,1,83.6087,379.2949)" class="Dimension"><g transform="matrix(1,0,0,1,0,0)" style="display: none;" class="Visual"><g id="mark1" fill="#000000" stroke="none" transform="matrix(1,0,0,1,105.7083,0)" style="fill-opacity: 1; pointer-events: visible;" class="DimensionMark"><polygon points="-5,5,0,0,5,5"/></g><g id="mark2" fill="#000000" stroke="none" transform="matrix(1,0,0,1,211.4166,56.9572)" style="fill-opacity: 1; pointer-events: visible;" class="DimensionMark"><polygon points="-5,-5,0,0,-5,5"/></g><g id="mark3" fill="#000000" stroke="none" transform="matrix(1,0,0,1,105.7083,113.9143)" style="fill-opacity: 1; pointer-events: visible;" class="DimensionMark"><polygon points="-5,-5,0,0,5,-5"/></g><g id="mark4" fill="#000000" stroke="none" transform="matrix(1,0,0,1,0,56.9572)" style="fill-opacity: 1; pointer-events: visible;" class="DimensionMark"><polygon points="5,5,0,0,5,-5"/></g></g><g transform="matrix(1,0,0,1,56.9572,56.9571)" class="SpaceDimensionsLabel"><g id="NameLabel" style="display: block;" class="TextLabel NameLabel"><text x="0" y="0em" fill="#000000" stroke="none" style="font-family: Verdana; font-size: 33px; fill-opacity: 1; cursor: default;">UNDEFINED</text></g><g id="DimensionMeasureLabel" transform="matrix(1,0,0,1,-40.5156,79.5937)" style="display: none;" class="TextLabel DimensionMeasureLabel"><text x="42.171875" y="-1.2em" fill="#000000" stroke="none" style="font-family: Verdana; font-size: 33px; fill-opacity: 1; cursor: default;">6'11" x 3'9"</text><text x="0" y="0em" fill="#000000" stroke="none" style="font-family: Verdana; font-size: 33px; fill-opacity: 1; cursor: default;">2.11 m x 1.14 m</text></g></g></g></g><g id="Wall" fill="#000000" stroke="#000000" style="fill-opacity: 1; stroke-opacity: 1; stroke-width: 0.2;" class="Wall External"><polygon points="789.22,83.41 789.22,493.21 810.22,514.21 810.22,53.81 "/></g><g id="Wall" fill="#000000" stroke="#000000" style="fill-opacity: 1; stroke-opacity: 1; stroke-width: 0.2;" class="Wall External"><polygon points="789.22,493.21 538.92,493.21 559.92,514.21 810.22,514.21 "/></g><g id="Wall" fill="#000000" stroke="#000000" style="fill-opacity: 1; stroke-opacity: 1; stroke-width: 0.2;" class="Wall External"><polygon points="538.92,493.21 538.92,644.77 559.92,665.77 559.92,514.21 "/></g><g id="Wall" fill="#000000" stroke="#000000" style="fill-opacity: 1; stroke-opacity: 1; stroke-width: 0.2;" class="Wall External"><polygon points="538.92,644.77 304.03,644.77 283.03,665.77 559.92,665.77 "/><g id="Door" fill="#ffffff" stroke="#000000" style="fill-opacity: 1; stroke-width: 1; stroke-opacity: 1;" class="Door Swing Beside"><polygon points="523.92,644.77 440.60,644.77 440.60,665.77 523.92,665.77 "/><g id="Threshold" class="Threshold"><polygon points="523.92,644.77 440.60,644.77 440.60,665.77 523.92,665.77 "/></g><g id="Panel" fill="none" style="" class="Panel Left Positive"><g id="PanelArea" fill="none" stroke="none" style="" class="PanelArea"><polygon points="523.92,644.77 440.60,644.77 440.60,665.77 523.92,665.77 "/></g><path d="M440.60,665.77 q0.00,83.32 83.32,83.32 l0.00,-83.32Z"/></g></g></g><g id="Wall" fill="#000000" stroke="#000000" style="fill-opacity: 1; stroke-opacity: 1; stroke-width: 0.2;" class="Wall External"><polygon points="304.03,644.77 304.03,493.21 283.03,514.21 283.03,665.77 "/></g><g id="Wall" fill="#000000" stroke="#000000" style="fill-opacity: 1; stroke-opacity: 1; stroke-width: 0.2;" class="Wall External"><polygon points="304.03,493.21 64.83,493.21 42.83,514.21 283.03,514.21 "/></g><g id="Wall" fill="#000000" stroke="#000000" style="fill-opacity: 1; stroke-opacity: 1; stroke-width: 0.2;" class="Wall External"><polygon points="64.83,493.21 64.83,83.41 42.83,53.81 42.83,514.21 "/></g><g id="Wall" fill="#000000" stroke="#000000" style="fill-opacity: 1; stroke-opacity: 1; stroke-width: 0.2;" class="Wall External"><polygon points="64.83,83.41 789.22,83.41 810.22,53.81 42.83,53.81 "/><g id="Window" fill="#f0f0ff" stroke="#000000" style="fill-opacity: 1; stroke-width: 1; stroke-opacity: 1;" class="Window Regular"><polygon points="144.83,83.41 347.94,83.41 347.94,53.81 144.83,53.81 "/><g id="Glass" class="Glass"><polygon points="144.83,83.41 347.94,83.41 347.94,53.81 144.83,53.81 "/></g><g id="Panel" class="Panel"><line x1="152.33418605574388" x2="340.4408484274925" y1="68.60905111985927" y2="68.60905111985926"/><line x1="152.33418605574388" x2="152.33418605574388" y1="83.40986081319949" y2="53.80824142651906"/><line x1="340.4408484274925" x2="340.4408484274925" y1="83.40986081319947" y2="53.80824142651905"/></g></g><g id="Window" fill="#f0f0ff" stroke="#000000" style="fill-opacity: 1; stroke-width: 1; stroke-opacity: 1;" class="Window Regular"><polygon points="508.86,83.41 709.45,83.41 709.45,53.81 508.86,53.81 "/><g id="Glass" class="Glass"><polygon points="508.86,83.41 709.45,83.41 709.45,53.81 508.86,53.81 "/></g><g id="Panel" class="Panel"><line x1="516.3616873859162" x2="701.9539619153736" y1="68.60905111985923" y2="68.60905111985922"/><line x1="516.3616873859162" x2="516.3616873859162" y1="83.40986081319944" y2="53.80824142651902"/><line x1="701.9539619153736" x2="701.9539619153736" y1="83.40986081319943" y2="53.808241426519004"/></g></g></g><g id="Wall" fill="#000000" stroke="#000000" style="fill-opacity: 1; stroke-opacity: 1; stroke-width: 0.2;" class="Wall"><polygon points="538.92,493.21 503.50,493.21 503.50,503.29 538.92,503.29 "/></g><g id="Wall" fill="#000000" stroke="#000000" style="fill-opacity: 1; stroke-opacity: 1; stroke-width: 0.2;" class="Wall"><polygon points="440.62,493.21 416.92,493.21 396.49,503.10 440.62,503.10 "/></g><g id="Wall" fill="#000000" stroke="#000000" style="fill-opacity: 1; stroke-opacity: 1; stroke-width: 0.2;" class="Wall"><polygon points="416.92,493.21 416.92,53.81 396.49,53.81 396.49,503.10 "/><g id="Door" fill="#ffffff" stroke="#000000" style="fill-opacity: 1; stroke-width: 1; stroke-opacity: 1;" class="Door Swing Beside"><polygon points="416.92,314.66 416.92,232.49 396.49,232.49 396.49,314.66 "/><g id="Threshold" class="Threshold"><polygon points="416.92,314.66 416.92,232.49 396.49,232.49 396.49,314.66 "/></g><g id="Panel" fill="none" style="" class="Panel Left Positive"><g id="PanelArea" fill="none" stroke="none" style="" class="PanelArea"><polygon points="416.92,314.66 416.92,232.49 396.49,232.49 396.49,314.66 "/></g><path d="M396.49,232.49 q-82.18,0.00 -82.18,82.18 l82.18,0.00Z"/></g></g></g><g id="Wall" fill="#000000" stroke="#000000" style="fill-opacity: 1; stroke-opacity: 1; stroke-width: 0.2;" class="Wall"><polygon points="416.92,368.92 42.83,368.92 42.83,379.29 416.92,379.29 "/><g id="Door" fill="#ffffff" stroke="#000000" style="fill-opacity: 1; stroke-width: 1; stroke-opacity: 1;" class="Door Swing Beside"><polygon points="390.25,368.92 309.45,368.92 309.45,379.29 390.25,379.29 "/><g id="Threshold" class="Threshold"><polygon points="390.25,368.92 309.45,368.92 309.45,379.29 390.25,379.29 "/></g><g id="Panel" fill="none" style="" class="Panel Right Negative"><g id="PanelArea" fill="none" stroke="none" style="" class="PanelArea"><polygon points="390.25,368.92 309.45,368.92 309.45,379.29 390.25,379.29 "/></g><path d="M309.45,368.92 q0.00,-80.80 80.80,-80.80 l0.00,80.80Z"/></g></g></g><g id="Wall" fill="#000000" stroke="#000000" style="fill-opacity: 1; stroke-opacity: 1; stroke-width: 0.2;" class="Wall"><polygon points="304.03,493.21 304.03,368.92 295.03,368.92 295.03,493.21 "/><g id="Door" fill="#ffffff" stroke="#000000" style="fill-opacity: 1; stroke-width: 1; stroke-opacity: 1;" class="Door Swing Beside"><polygon points="304.03,460.53 304.03,390.55 295.03,390.55 295.03,460.53 "/><g id="Threshold" class="Threshold"><polygon points="304.03,460.53 304.03,390.55 295.03,390.55 295.03,460.53 "/></g><g id="Panel" fill="none" style="" class="Panel Left Negative"><g id="PanelArea" fill="none" stroke="none" style="" class="PanelArea"><polygon points="304.03,460.53 304.03,390.55 295.03,390.55 295.03,460.53 "/></g><path d="M304.03,460.53 q69.99,0.00 69.99,-69.99 l-69.99,0.00Z"/></g></g></g><g id="Wall" fill="#000000" stroke="#000000" style="fill-opacity: 1; stroke-opacity: 1; stroke-width: 0.2;" class="Wall"><polygon points="64.45,368.92 64.45,493.21 83.61,493.21 83.61,368.92 "/></g><g class="FixedFurniture ElectricalAppliance Refrigerator" transform="matrix(0,-1,1,0,64.9054,143.4099)" style="fill-opacity: 1; stroke-opacity: 1;" fill="#ffffff" stroke="#000000">
            <g class="BoundaryPolygon" fill="rgb(255, 255, 255)" stroke="rgb(0, 0, 0)">
                <polygon points="0,0 60,0 60,60 0,60"/>
            </g>
            <g class="electricitySign" fill="none" stroke="rgb(0, 0, 0)">
                    <path d="M0,0,30,37.1v-18L60,56.3"/>
            </g>
            <g class="Doors" fill="rgb(255, 255, 255)" stroke="rgb(0, 0, 0)">
                <rect y="56" width="60" height="4"/>
            </g>
             <g class="Direction" fill-opacity="0.9" style="display: none;">
                <polygon points="32.009 55.197 32.009 44.581 29 44.581 29 55.197 25.197 55.197 30.5 60 35.803 55.197 32.009 55.197" fill="#444444"/>
             </g> 
             <g class="Name" fill-opacity="0.9" style="display: none;">
                <text transform="translate(3 12)" font-size="12" font-family="Verdana, Sans-Serif">REF</text>
             </g>
            <desc>Width:60 Height:170 Depth:60 Elevation:0</desc>
        </g><g class="FixedFurniture Closet" transform="matrix(0,-1,1,0,64.9054,368.9174)" style="fill-opacity: 1; stroke-opacity: 1;" fill="#ffffff" stroke="#000000">
        <g class="BoundaryPolygon" fill="rgb(255, 255, 255)" stroke="rgb(0, 0, 0)">
            <polygon points="0,0 60,0 60,60 0,60"/>
        </g>
        <g class="Direction" fill-opacity="0.9" style="display: none;">
            <polygon points="31.509 54.697 31.509 44.081 28.5 44.081 28.5 54.697 24.697 54.697 30 60 35.303 54.697 31.509 54.697" fill="#444444"/>
        </g> 
        <g class="Name" fill-opacity="0.9" style="display: none;">
            <text transform="translate(3 12)" font-size="12" font-family="Verdana, Sans-Serif">CL</text>
        </g>
        <desc>Width:60 Height:200 Depth:60 Elevation:0</desc>
     </g><g class="FixedFurniture BaseCabinet" transform="matrix(0,-1,1,0,64.9055,308.6003)" style="fill-opacity: 1; stroke-opacity: 1;" fill="#ffffff" stroke="#000000">
            <g class="BoundaryPolygon" fill="rgb(255, 255, 255)" stroke="rgb(0, 0, 0)">
                <polygon points="0.00,0.00 165.07,0.00 165.07,60.00 0.00,60.00 "/>
            </g>
            <g class="Direction" fill-opacity="0.9" style="display: none;">
                <polygon points="88.06,55.20 88.06,44.58 85.05,44.58 85.05,55.20 81.25,55.20 86.55,60.00 91.85,55.20 88.06,55.20 " fill="#444444"/>
            </g> 
            <g class="Name" fill-opacity="0.9" style="display: none;">
                <text transform="translate(3 12)" font-size="12" font-family="Verdana, Sans-Serif">CB</text>
            </g>
            <desc>Width:60 Height:90 Depth:60 Elevation:0</desc>
        </g><g class="FixedFurniture DoubleSink" transform="matrix(0,-1,1,0,63.6376,302.5392)" style="fill-opacity: 1; stroke-opacity: 1;" fill="#ffffff" stroke="#000000">
            <g class="InnerPolygonLeft" fill="rgb(255, 255, 255)" stroke="rgb(0, 0, 0)">
                <polygon points="5.00,9.90 34.53,9.90 34.53,50.12 5.00,50.12 "/>
            </g>
            <g class="InnerPolygonRight" fill="rgb(255, 255, 255)" stroke="rgb(0, 0, 0)">
                <polygon points="37.62,10.00 66.99,10.00 66.99,50.21 37.62,50.21 "/>
            </g>
            <g class="OuterDrain" fill="rgb(255, 255, 255)" stroke="rgb(0, 0, 0)" stroke-width="0.8">
                <circle cx="20.304627522563827" cy="29.667701515418855" r="3.5"/>
                <circle cx="51.74072597120326" cy="29.667701515418855" r="3.5"/>
            </g>
            <g class="InnerDrain" fill="rgb(255, 255, 255)" stroke="rgb(0, 0, 0)" stroke-width="0.8">
                <circle cx="20.304627522563827" cy="29.667701515418855" r="2"/>
                <circle cx="51.74072597120326" cy="29.667701515418855" r="2"/>
            </g>
            <g class="Faucet" fill="rgb(255, 255, 255)" stroke="rgb(0, 0, 0)">
                <polygon points="32.98,4.47 38.98,4.47 38.98,18.47 32.98,18.47 "/>
            </g>
            <g class="Direction" fill-opacity="0.9" style="display: none;">
                <polygon points="37.63,49.93 37.63,39.31 34.62,39.31 34.62,49.93 30.82,49.93 36.12,55.23 41.42,49.93 37.63,49.93 " fill="#444444"/>
            </g> 
            <g class="Name" fill-opacity="0.9" style="display: none;">
                <text transform="translate(3 12)" font-size="12" font-family="Verdana, Sans-Serif">DSINK</text>
            </g>
         <desc>Width:70 Height:90 Depth:60 Elevation:0</desc>
        </g><g class="FixedFurniture WallCabinet" transform="matrix(0,-1,1,0,64.9836,309.0748)" style="fill-opacity: 0.7; stroke-opacity: 1;" fill="#ffffff" stroke="#000000">	
        <g class="BoundaryPolygon" fill="rgb(255, 255, 255)" stroke="rgb(0, 0, 0)">
                <polygon points="0.00,0.00 165.54,0.00 165.54,30.00 0.00,30.00 "/>
        </g>
        <g class="Direction" fill-opacity="0.9" style="display: none;">
                <polygon points="88.31,25.20 88.31,14.58 85.30,14.58 85.30,25.20 81.50,25.20 86.80,30.00 92.11,25.20 88.31,25.20 " fill="#444444"/>
        </g> 
        <g class="Name" fill-opacity="0.9" style="display: none;">
                <text transform="translate(3 12)" font-size="12" font-family="Verdana, Sans-Serif">UC</text>
        </g>
        <desc>Width:60 Height:60 Depth:50 Elevation:140</desc>
        </g><g class="FixedFurniture Toilet" transform="matrix(-1,0,0,-1,265.5707,493.7093)" style="fill-opacity: 1; stroke-opacity: 1;" fill="#ffffff" stroke="#000000">
	   <g class="BoundaryPolygon" fill="rgb(255, 255, 255)" stroke="rgb(0, 0, 0)"> 
		<rect x="0.502" y="0.5" width="39.989" height="17.98"/>
          <path d="M40.491,44.237S41.619,70.5,20.907,70.5C-.523,70.5.6,44.237.6,44.237L.5,18.48H40.491Z"/>
          <rect x="17.318" y="7.975" width="6.357" height="3.03"/>
		</g>
        <desc>Width:40 Height:85 Depth:70 Elevation:0</desc>
    </g><g id="FixedFurnitureSet" transform="matrix(-1,0,0,-1,216.1299,493.1311)" class="FixedFurnitureSet" style="fill-opacity: 1; stroke-opacity: 1;" fill="#ffffff" stroke="#000000"><g class="FixedFurniture BaseCabinet" transform="matrix(1,0,0,1,0,0)">
            <g class="BoundaryPolygon" fill="rgb(255, 255, 255)" stroke="rgb(0, 0, 0)">
            <polygon points="0.00,0.00 56.52,0.00 56.52,41.38 0.00,41.38 "/>
            </g>
            <g class="Direction" fill-opacity="0.9" style="display: none;">
                <polygon points="30.15,38.07 30.15,27.45 27.14,27.45 27.14,38.07 23.34,38.07 28.64,42.87 33.95,38.07 30.15,38.07 " fill="#444444"/>
            </g> 
            <g class="Name" fill-opacity="0.9" style="display: none;">
                <text transform="translate(3 12)" font-size="12" font-family="Verdana, Sans-Serif">CB</text>
            </g>
            <desc>Width:185 Height:5 Depth:60 Elevation:105</desc>
        </g><g class="FixedFurniture Sink" transform="matrix(1,0,0,1,0,0)">
            <g class="InnerPolygon" fill="rgb(255, 255, 255)" stroke="rgb(0, 0, 0)">
                <polygon points="5.00,9.70 51.81,9.70 51.81,37.73 5.00,37.73 "/>
            </g>
            <g class="OuterDrain" fill="rgb(255, 255, 255)" stroke="rgb(0, 0, 0)" stroke-width="0.8">
                <circle cx="28.258671825482583" cy="22.208226167332995" r="3.5"/>
            </g>
            <g class="InnerDrain" fill="rgb(255, 255, 255)" stroke="rgb(0, 0, 0)" stroke-width="0.8">
                <circle cx="28.258671825482583" cy="22.208226167332995" r="2"/>
            </g>
            <g class="Faucet" fill="rgb(255, 255, 255)" stroke="rgb(0, 0, 0)">
                <polygon points="25.43,3.45 31.43,3.45 31.43,17.45 25.43,17.45 "/>
            </g>
           <g class="Direction" fill-opacity="0.9" style="display: none;">
                <polygon points="30.15,38.07 30.15,27.45 27.14,27.45 27.14,38.07 23.34,38.07 28.64,42.87 33.95,38.07 30.15,38.07 " fill="#444444"/>
            </g> 
            <g class="Name" fill-opacity="0.9" style="display: none;">
                <text transform="translate(3 12)" font-size="12" font-family="Verdana, Sans-Serif">SINK</text>
            </g>
            <desc>Width:60 Height:90 Depth:60 Elevation:0</desc>
        </g></g><g class="FixedFurniture Shower" transform="matrix(-1,0,0,-1,131.0474,493.7092)" style="fill-opacity: 1; stroke-opacity: 1;" fill="#ffffff" stroke="#000000"> 
	   <g class="BoundaryPolygon" fill="rgb(255, 255, 255)" stroke="rgb(0, 0, 0)" stroke-linejoin="round"> 
			<rect x="3.7" y="0.5" width="11.2" height="6.1"/>
			<rect x="17.6" y="0.5" width="11.2" height="6.1"/>
			<rect x="28.7" y="0.5" width="3.4" height="6.1"/>
			<rect x="0.5" y="0.5" width="3.2" height="6.1"/>
			<path d="M14.9,8.5c0,1.5-0.4,3.3-1.6,5    c-0.4,0.6-1,1.1-1.1,1.7c-0.2,1.1,0.3,2.8,2.5,3.2c0.5,0.1,1.3,0.1,1.6,0.1h-0.1c0.3,0,1.1,0,1.6-0.1c2.2-0.4,2.7-2.1,2.5-3.2    c-0.1-0.6-0.7-1.1-1.1-1.7c-1.2-1.7-1.6-3.5-1.6-5"/>
			<path d="M12.2,15.3c0.1,0.2,1.6,1.9,4.2,1.9 c2.4-0.1,3.7-1.7,3.9-1.9"/>
			<path d="M14.9,0.5h2.7v8c-0.9,0-1.8,0-2.7,0l0,0 C14.9,5.9,14.9,3.2,14.9,0.5z"/>
		</g>
	   <g class="Indicator" fill="rgb(255, 255, 255)" stroke="rgb(0, 0, 0)" stroke-width="0.5" stroke-linejoin="round"> 
			<path d="M3.7,3.6C5,3.1,5.2,3,5.2,3 c0,1.1,0,0,0,1.1C5.2,4.1,5.1,4.1,3.7,3.6"/>
			<path d="M28.7,3.6 C27.4,3.1,27.2,3,27.2,3c0,1.1,0,0,0,1.1C27.2,4.1,27.3,4.1,28.7,3.6"/>	
		</g>
        <desc>Width:35 Height:97 Depth:20 Elevation:135</desc>
	</g><g id="FixedFurnitureSet" transform="matrix(-1,0,0,-1,789.2238,493.1936)" class="FixedFurnitureSet" style="fill-opacity: 1; stroke-opacity: 1;" fill="#ffffff" stroke="#000000"><g class="FixedFurniture Closet" transform="matrix(1,0,0,1,0,0)">
        <g class="BoundaryPolygon" fill="rgb(255, 255, 255)" stroke="rgb(0, 0, 0)">
            <polygon points="0.00,0.00 60.00,0.00 60.00,61.92 0.00,61.92 "/>
        </g>
        <g class="Direction" fill-opacity="0.9" style="display: none;">
            <polygon points="31.51,56.45 31.51,45.84 28.50,45.84 28.50,56.45 24.70,56.45 30.00,61.75 35.30,56.45 31.51,56.45 " fill="#444444"/>
        </g> 
        <g class="Name" fill-opacity="0.9" style="display: none;">
            <text transform="translate(3 12)" font-size="12" font-family="Verdana, Sans-Serif">CL</text>
        </g>
        <desc>Width:60 Height:200 Depth:60 Elevation:0</desc>
     </g><g class="FixedFurniture Closet" transform="matrix(1,0,0,1,60,0)">
        <g class="BoundaryPolygon" fill="rgb(255, 255, 255)" stroke="rgb(0, 0, 0)">
            <polygon points="0.00,0.00 60.00,0.00 60.00,61.92 0.00,61.92 "/>
        </g>
        <g class="Direction" fill-opacity="0.9" style="display: none;">
            <polygon points="31.51,56.45 31.51,45.84 28.50,45.84 28.50,56.45 24.70,56.45 30.00,61.75 35.30,56.45 31.51,56.45 " fill="#444444"/>
        </g> 
        <g class="Name" fill-opacity="0.9" style="display: none;">
            <text transform="translate(3 12)" font-size="12" font-family="Verdana, Sans-Serif">CL</text>
        </g>
        <desc>Width:60 Height:200 Depth:60 Elevation:0</desc>
     </g></g><g class="FixedFurniture CoatCloset" transform="matrix(-1,0,0,-1,669.2238,493.1936)" style="fill-opacity: 1; stroke-opacity: 1;" fill="#ffffff" stroke="#000000">
        <g class="BoundaryPolygon" fill="rgb(255, 255, 255)" stroke="rgb(0, 0, 0)">
                <polygon points="0.00,0.00 131.07,0.00 131.07,61.92 0.00,61.92 "/>
            </g>
        <g class="Hanger" fill="rgb(255, 255, 255)" stroke="rgb(154, 154, 154)" stroke-dasharray="5,5">
            <line x1="0" y1="30.962156008228074" x2="131.06767555141838" y2="30.962156008228074"/>
            </g>
        <g class="Direction" fill-opacity="0.9" style="display: none;">
            <polygon points="67.18,56.26 67.18,45.65 64.17,45.65 64.17,56.26 60.37,56.26 65.67,61.57 70.98,56.26 67.18,56.26 " fill="#444444"/>
        </g> 
        <g class="Name" fill-opacity="0.9" style="display: none;">
            <text transform="translate(3 12)" font-size="12" font-family="Verdana, Sans-Serif">CWH</text>
        </g>
        <desc>Width:120 Height:200 Depth:60 Elevation:0</desc>
     </g><g fill="#0000ff" stroke="#0000ff" style="display: none;" class="SelectionControls"><g style="display: none;" class="rotateControl"><circle cx="426.1361264909001" cy="521.4674603020205" r="5" style="stroke : none; fill-opacity: 0.5; cursor:crosshair"/></g><g style="display: none;" class="ResizeNControl"><circle cx="0" cy="0" r="5" style="stroke : none; fill-opacity: 0.5"/></g><g style="display: none;" class="ResizeNEControl"><circle cx="0" cy="0" r="5" style="stroke : none; fill-opacity: 0.5"/></g><g style="display: none;" class="ResizeEControl"><circle cx="0" cy="0" r="5" style="stroke : none; fill-opacity: 0.5"/></g><g style="display: none;" class="ResizeSEControl"><circle cx="0" cy="0" r="5" style="stroke : none; fill-opacity: 0.5"/></g><g style="display: none;" class="ResizeSControl"><circle cx="0" cy="0" r="5" style="stroke : none; fill-opacity: 0.5"/></g><g style="display: none;" class="ResizeSWControl"><circle cx="0" cy="0" r="5" style="stroke : none; fill-opacity: 0.5"/></g><g style="display: none;" class="ResizeWControl"><circle cx="0" cy="0" r="5" style="stroke : none; fill-opacity: 0.5"/></g><g style="display: none;" class="ResizeNWControl"><circle cx="0" cy="0" r="5" style="stroke : none; fill-opacity: 0.5"/></g><g style="display: none;" class="removeControl"><polygon style="stroke : none; fill-opacity: 0.1" points="405.30,551.47 446.97,551.47 446.97,591.25 405.30,591.25 "/></g><g style="display: none;" class="copyPasteControl"><polygon style="stroke : none; fill-opacity: 0.1"/></g><g style="display: none;" class="translateControl"><polygon style="stroke : none; fill-opacity: 0.1; cursor:move" points="405.30,551.47 446.97,551.47 446.97,591.25 405.30,591.25 "/></g></g><g fill="#0000ff" stroke="#0000ff" style="display: none;" class="SelectionControls"><polygon fill="none" stroke="#0000ff" style="" points="304.03,493.19 789.22,493.19 789.22,758.67 304.03,758.67 "/><g style="display: none;" class="rotateControl"><circle cx="546.6245321549626" cy="463.19363530202054" r="5" style="stroke : none; fill-opacity: 0.5; cursor:crosshair"/></g><g style="display: none;" class="ResizeNControl"><circle cx="0" cy="0" r="5" style="stroke : none; fill-opacity: 0.5"/></g><g style="display: none;" class="ResizeNEControl"><circle cx="0" cy="0" r="5" style="stroke : none; fill-opacity: 0.5"/></g><g style="display: none;" class="ResizeEControl"><circle cx="0" cy="0" r="5" style="stroke : none; fill-opacity: 0.5"/></g><g style="display: none;" class="ResizeSEControl"><circle cx="0" cy="0" r="5" style="stroke : none; fill-opacity: 0.5"/></g><g style="display: none;" class="ResizeSControl"><circle cx="0" cy="0" r="5" style="stroke : none; fill-opacity: 0.5"/></g><g style="display: none;" class="ResizeSWControl"><circle cx="0" cy="0" r="5" style="stroke : none; fill-opacity: 0.5"/></g><g style="display: none;" class="ResizeWControl"><circle cx="0" cy="0" r="5" style="stroke : none; fill-opacity: 0.5"/></g><g style="display: none;" class="ResizeNWControl"><circle cx="0" cy="0" r="5" style="stroke : none; fill-opacity: 0.5"/></g><g style="display: none;" class="removeControl"><polygon style="stroke : none; fill-opacity: 0.1"/></g><g style="display: none;" class="copyPasteControl"><polygon style="stroke : none; fill-opacity: 0.1"/></g><g style="display: none;" class="translateControl"><polygon style="stroke : none; fill-opacity: 0.1; cursor:move"/></g></g></g></g></g></svg>
