<?xml version="1.0"?>
<svg xmlns="http://www.w3.org/2000/svg" xmlns:xlink="http://www.w3.org/1999/xlink" height="1015.3999633789062" version="1.1" width="1379.02001953125" id="temp" viewBox="0 0 1379.02001953125 1015.3999633789062"><desc>Powered by CubiCasa</desc><defs/><g id="Model" class="Model v1-1"><g class="Floor"><g id="Floor-1" class="Floorplan Floor-1"><g id="b946ddcb-179e-4832-ba3a-7091e8459e3b" fill="#ffffff" stroke="#000000" style="fill-opacity: 1; stroke-opacity: 1; stroke-width: 0.2;" class="Space Outdoor Balcony Glazed"><polygon points="1147.07,203.56 1359.02,203.56 1359.02,553.02 1147.07,553.02 1147.07,203.56 1147.07,203.56 "/><g transform="matrix(1,0,0,1,1147.0677,203.5639)" class="Dimension"><g transform="matrix(1,0,0,1,0,0)" style="display: none;" class="Visual"><g id="mark1" fill="#000000" stroke="none" transform="matrix(1,0,0,1,105.9747,0)" style="fill-opacity: 1; pointer-events: visible;" class="DimensionMark"><polygon points="-5,5,0,0,5,5"/></g><g id="mark2" fill="#000000" stroke="none" transform="matrix(1,0,0,1,211.9494,174.7305)" style="fill-opacity: 1; pointer-events: visible;" class="DimensionMark"><polygon points="-5,-5,0,0,-5,5"/></g><g id="mark3" fill="#000000" stroke="none" transform="matrix(1,0,0,1,105.9747,349.4611)" style="fill-opacity: 1; pointer-events: visible;" class="DimensionMark"><polygon points="-5,-5,0,0,5,-5"/></g><g id="mark4" fill="#000000" stroke="none" transform="matrix(1,0,0,1,0,174.7305)" style="fill-opacity: 1; pointer-events: visible;" class="DimensionMark"><polygon points="5,5,0,0,5,-5"/></g></g><g transform="matrix(0,1,-1,0,95.3801,4.5245)" class="SpaceDimensionsLabel"><g id="NameLabel" style="display: block;" class="TextLabel NameLabel"><text x="0" y="0em" fill="#000000" stroke="none" style="font-family: Verdana; font-size: 33px; fill-opacity: 1; cursor: default;">LASITETTU PARVEKE</text></g><g id="DimensionMeasureLabel" transform="matrix(1,0,0,1,32.7266,79.0469)" style="display: none;" class="TextLabel DimensionMeasureLabel"><text x="31.6953125" y="-1.2em" fill="#000000" stroke="none" style="font-family: Verdana; font-size: 33px; fill-opacity: 1; cursor: default;">6'11" x 11'6"</text><text x="0" y="0em" fill="#000000" stroke="none" style="font-family: Verdana; font-size: 33px; fill-opacity: 1; cursor: default;">2.12 m x 3.49 m</text></g></g></g></g><g id="404bc011-cf35-4996-9c75-8dee2fc9dc24" fill="#ffffff" stroke="#ffffff" style="fill-opacity: 1; stroke-opacity: 1; stroke-width: 0.2;" class="Space Undefined"><polygon points="651.66,559.02 631.91,559.02 631.91,925.92 492.51,925.92 492.51,414.79 651.66,414.79 "/><g transform="matrix(1,0,0,1,492.5139,414.7921)" class="Dimension"><g transform="matrix(1,0,0,1,0,0)" style="display: none;" class="Visual"><g id="mark1" fill="#000000" stroke="none" transform="matrix(1,0,0,1,79.5746,0)" style="fill-opacity: 1; pointer-events: visible;" class="DimensionMark"><polygon points="-5,5,0,0,5,5"/></g><g id="mark2" fill="#000000" stroke="none" transform="matrix(1,0,0,1,139.4011,255.5647)" style="fill-opacity: 1; pointer-events: visible;" class="DimensionMark"><polygon points="-5,-5,0,0,-5,5"/></g><g id="mark3" fill="#000000" stroke="none" transform="matrix(1,0,0,1,79.5746,511.1295)" style="fill-opacity: 1; pointer-events: visible;" class="DimensionMark"><polygon points="-5,-5,0,0,5,-5"/></g><g id="mark4" fill="#000000" stroke="none" transform="matrix(1,0,0,1,0,255.5647)" style="fill-opacity: 1; pointer-events: visible;" class="DimensionMark"><polygon points="5,5,0,0,5,-5"/></g></g><g transform="matrix(1,0,0,1,79.5745,79.5746)" class="SpaceDimensionsLabel"><g id="NameLabel" style="display: block;" class="TextLabel NameLabel"><text x="0" y="0em" fill="#000000" stroke="none" style="font-family: Verdana; font-size: 33px; fill-opacity: 1; cursor: default;">UNDEFINED</text></g><g id="DimensionMeasureLabel" transform="matrix(1,0,0,1,-40.5235,79.6406)" style="display: none;" class="TextLabel DimensionMeasureLabel"><text x="42.1875" y="-1.2em" fill="#000000" stroke="none" style="font-family: Verdana; font-size: 33px; fill-opacity: 1; cursor: default;">4'7" x 16'9"</text><text x="0" y="0em" fill="#000000" stroke="none" style="font-family: Verdana; font-size: 33px; fill-opacity: 1; cursor: default;">1.39 m x 5.11 m</text></g></g></g></g><g id="22bb7c06-fb8a-4800-ad8b-767a2355e662" fill="#ffffff" stroke="#ffffff" style="fill-opacity: 1; stroke-opacity: 1; stroke-width: 0.2;" class="Space LivingRoom"><polygon points="1120.07,559.02 651.66,559.02 651.66,203.50 1120.07,203.50 "/><g transform="matrix(1,0,0,1,651.663,203.5042)" class="Dimension"><g transform="matrix(1,0,0,1,0,0)" style="display: none;" class="Visual"><g id="mark1" fill="#000000" stroke="none" transform="matrix(1,0,0,1,234.2024,0)" style="fill-opacity: 1; pointer-events: visible;" class="DimensionMark"><polygon points="-5,5,0,0,5,5"/></g><g id="mark2" fill="#000000" stroke="none" transform="matrix(1,0,0,1,468.4047,177.7604)" style="fill-opacity: 1; pointer-events: visible;" class="DimensionMark"><polygon points="-5,-5,0,0,-5,5"/></g><g id="mark3" fill="#000000" stroke="none" transform="matrix(1,0,0,1,234.2024,355.5208)" style="fill-opacity: 1; pointer-events: visible;" class="DimensionMark"><polygon points="-5,-5,0,0,5,-5"/></g><g id="mark4" fill="#000000" stroke="none" transform="matrix(1,0,0,1,0,177.7604)" style="fill-opacity: 1; pointer-events: visible;" class="DimensionMark"><polygon points="5,5,0,0,5,-5"/></g></g><g transform="matrix(1,0,0,1,210.9987,179.3073)" class="SpaceDimensionsLabel"><g id="NameLabel" style="display: block;" class="TextLabel NameLabel"><text x="0" y="0em" fill="#000000" stroke="none" style="font-family: Verdana; font-size: 33px; fill-opacity: 1; cursor: default;">OH</text></g><g id="DimensionMeasureLabel" transform="matrix(1,0,0,1,-114.6016,78.2656)" style="display: none;" class="TextLabel DimensionMeasureLabel"><text x="31.6875" y="-1.2em" fill="#000000" stroke="none" style="font-family: Verdana; font-size: 33px; fill-opacity: 1; cursor: default;">15'4" x 11'8"</text><text x="0" y="0em" fill="#000000" stroke="none" style="font-family: Verdana; font-size: 33px; fill-opacity: 1; cursor: default;">4.68 m x 3.56 m</text></g></g></g></g><g id="68f48543-36a8-4987-8248-0ca2b06bb08d" fill="#ffffff" stroke="#ffffff" style="fill-opacity: 1; stroke-opacity: 1; stroke-width: 0.2;" class="Space Kitchen"><polygon points="428.32,248.19 486.51,248.19 486.51,504.78 137.00,504.78 137.00,203.50 428.32,203.50 "/><g transform="matrix(1,0,0,1,137.0027,203.5042)" class="Dimension"><g transform="matrix(1,0,0,1,0,0)" style="display: none;" class="Visual"><g id="mark1" fill="#000000" stroke="none" transform="matrix(1,0,0,1,174.7556,0)" style="fill-opacity: 1; pointer-events: visible;" class="DimensionMark"><polygon points="-5,5,0,0,5,5"/></g><g id="mark2" fill="#000000" stroke="none" transform="matrix(1,0,0,1,349.5112,150.6371)" style="fill-opacity: 1; pointer-events: visible;" class="DimensionMark"><polygon points="-5,-5,0,0,-5,5"/></g><g id="mark3" fill="#000000" stroke="none" transform="matrix(1,0,0,1,174.7556,301.2742)" style="fill-opacity: 1; pointer-events: visible;" class="DimensionMark"><polygon points="-5,-5,0,0,5,-5"/></g><g id="mark4" fill="#000000" stroke="none" transform="matrix(1,0,0,1,0,150.6371)" style="fill-opacity: 1; pointer-events: visible;" class="DimensionMark"><polygon points="5,5,0,0,5,-5"/></g></g><g transform="matrix(1,0,0,1,140.772,182.6987)" class="SpaceDimensionsLabel"><g id="NameLabel" style="display: block;" class="TextLabel NameLabel"><text x="0" y="0em" fill="#000000" stroke="none" style="font-family: Verdana; font-size: 33px; fill-opacity: 1; cursor: default;">K</text></g><g id="DimensionMeasureLabel" transform="matrix(1,0,0,1,-128.5468,79.7031)" style="display: none;" class="TextLabel DimensionMeasureLabel"><text x="31.6875" y="-1.2em" fill="#000000" stroke="none" style="font-family: Verdana; font-size: 33px; fill-opacity: 1; cursor: default;">11'6" x 9'11"</text><text x="0" y="0em" fill="#000000" stroke="none" style="font-family: Verdana; font-size: 33px; fill-opacity: 1; cursor: default;">3.50 m x 3.01 m</text></g></g></g></g><g id="05b7aeb7-8970-4188-b8fb-b40f47f73134" fill="#ffffff" stroke="#ffffff" style="fill-opacity: 1; stroke-opacity: 1; stroke-width: 0.2;" class="Space Bedroom"><polygon points="486.51,791.79 137.00,791.79 137.00,514.78 486.51,514.78 "/><g transform="matrix(1,0,0,1,137.0027,514.7784)" class="Dimension"><g transform="matrix(1,0,0,1,0,0)" style="display: none;" class="Visual"><g id="mark1" fill="#000000" stroke="none" transform="matrix(1,0,0,1,174.7556,0)" style="fill-opacity: 1; pointer-events: visible;" class="DimensionMark"><polygon points="-5,5,0,0,5,5"/></g><g id="mark2" fill="#000000" stroke="none" transform="matrix(1,0,0,1,349.5112,138.5083)" style="fill-opacity: 1; pointer-events: visible;" class="DimensionMark"><polygon points="-5,-5,0,0,-5,5"/></g><g id="mark3" fill="#000000" stroke="none" transform="matrix(1,0,0,1,174.7556,277.0165)" style="fill-opacity: 1; pointer-events: visible;" class="DimensionMark"><polygon points="-5,-5,0,0,5,-5"/></g><g id="mark4" fill="#000000" stroke="none" transform="matrix(1,0,0,1,0,138.5083)" style="fill-opacity: 1; pointer-events: visible;" class="DimensionMark"><polygon points="5,5,0,0,5,-5"/></g></g><g transform="matrix(1,0,0,1,144.7733,143.5202)" class="SpaceDimensionsLabel"><g id="NameLabel" style="display: block;" class="TextLabel NameLabel"><text x="0" y="0em" fill="#000000" stroke="none" style="font-family: Verdana; font-size: 33px; fill-opacity: 1; cursor: default;">MH</text></g><g id="DimensionMeasureLabel" transform="matrix(1,0,0,1,-113.6718,79.7031)" style="display: none;" class="TextLabel DimensionMeasureLabel"><text x="42.1796875" y="-1.2em" fill="#000000" stroke="none" style="font-family: Verdana; font-size: 33px; fill-opacity: 1; cursor: default;">11'6" x 9'1"</text><text x="0" y="0em" fill="#000000" stroke="none" style="font-family: Verdana; font-size: 33px; fill-opacity: 1; cursor: default;">3.50 m x 2.77 m</text></g></g></g></g><g id="5d1c6bbb-c08c-431b-8be3-d6241517b4e5" fill="#ffffff" stroke="#ffffff" style="fill-opacity: 1; stroke-opacity: 1; stroke-width: 0.2;" class="Space Bath Shower"><polygon points="486.51,880.73 428.69,880.73 428.69,925.92 137.00,925.92 137.00,797.79 486.51,797.79 "/><g transform="matrix(1,0,0,1,137.0027,797.7949)" class="Dimension"><g transform="matrix(1,0,0,1,0,0)" style="display: none;" class="Visual"><g id="mark1" fill="#000000" stroke="none" transform="matrix(1,0,0,1,174.7556,0)" style="fill-opacity: 1; pointer-events: visible;" class="DimensionMark"><polygon points="-5,5,0,0,5,5"/></g><g id="mark2" fill="#000000" stroke="none" transform="matrix(1,0,0,1,349.5112,64.0633)" style="fill-opacity: 1; pointer-events: visible;" class="DimensionMark"><polygon points="-5,-5,0,0,-5,5"/></g><g id="mark3" fill="#000000" stroke="none" transform="matrix(1,0,0,1,174.7556,128.1266)" style="fill-opacity: 1; pointer-events: visible;" class="DimensionMark"><polygon points="-5,-5,0,0,5,-5"/></g><g id="mark4" fill="#000000" stroke="none" transform="matrix(1,0,0,1,0,64.0633)" style="fill-opacity: 1; pointer-events: visible;" class="DimensionMark"><polygon points="5,5,0,0,5,-5"/></g></g><g transform="matrix(1,0,0,1,144.2551,54.0394)" class="SpaceDimensionsLabel"><g id="NameLabel" style="display: block;" class="TextLabel NameLabel"><text x="0" y="0em" fill="#000000" stroke="none" style="font-family: Verdana; font-size: 33px; fill-opacity: 1; cursor: default;">SH</text></g><g id="DimensionMeasureLabel" transform="matrix(1,0,0,1,-116.3047,78.2657)" style="display: none;" class="TextLabel DimensionMeasureLabel"><text x="42.1796875" y="-1.2em" fill="#000000" stroke="none" style="font-family: Verdana; font-size: 33px; fill-opacity: 1; cursor: default;">11'6" x 4'2"</text><text x="0" y="0em" fill="#000000" stroke="none" style="font-family: Verdana; font-size: 33px; fill-opacity: 1; cursor: default;">3.50 m x 1.28 m</text></g></g></g></g><g id="8be90219-7ca0-4e3f-b554-d6f361cf7ba5" fill="#ffffff" stroke="#ffffff" style="fill-opacity: 1; stroke-opacity: 1; stroke-width: 0.2;" class="Space Closet WalkIn"><polygon points="645.66,408.79 492.51,408.79 492.51,203.50 645.66,203.50 "/><g transform="matrix(1,0,0,1,492.5139,203.5042)" class="Dimension"><g transform="matrix(1,0,0,1,0,0)" style="display: none;" class="Visual"><g id="mark1" fill="#000000" stroke="none" transform="matrix(1,0,0,1,76.5746,0)" style="fill-opacity: 1; pointer-events: visible;" class="DimensionMark"><polygon points="-5,5,0,0,5,5"/></g><g id="mark2" fill="#000000" stroke="none" transform="matrix(1,0,0,1,153.1491,102.644)" style="fill-opacity: 1; pointer-events: visible;" class="DimensionMark"><polygon points="-5,-5,0,0,-5,5"/></g><g id="mark3" fill="#000000" stroke="none" transform="matrix(1,0,0,1,76.5746,205.2879)" style="fill-opacity: 1; pointer-events: visible;" class="DimensionMark"><polygon points="-5,-5,0,0,5,-5"/></g><g id="mark4" fill="#000000" stroke="none" transform="matrix(1,0,0,1,0,102.644)" style="fill-opacity: 1; pointer-events: visible;" class="DimensionMark"><polygon points="5,5,0,0,5,-5"/></g></g><g transform="matrix(1,0,0,1,42.0467,151.1473)" class="SpaceDimensionsLabel"><g id="NameLabel" style="display: block;" class="TextLabel NameLabel"><text x="0" y="0em" fill="#000000" stroke="none" style="font-family: Verdana; font-size: 33px; fill-opacity: 1; cursor: default;">VH</text></g><g id="DimensionMeasureLabel" transform="matrix(1,0,0,1,-116.3281,79.0469)" style="display: none;" class="TextLabel DimensionMeasureLabel"><text x="52.671875" y="-1.2em" fill="#000000" stroke="none" style="font-family: Verdana; font-size: 33px; fill-opacity: 1; cursor: default;">5'0" x 6'9"</text><text x="0" y="0em" fill="#000000" stroke="none" style="font-family: Verdana; font-size: 33px; fill-opacity: 1; cursor: default;">1.53 m x 2.05 m</text></g></g></g></g><g id="Wall" fill="#000000" stroke="#000000" style="fill-opacity: 1; stroke-opacity: 1; stroke-width: 0.2;" class="Wall External"><polygon points="137.00,203.50 1120.07,203.50 1147.07,168.50 110.00,168.50 "/><g id="Window" fill="#f0f0ff" stroke="#000000" style="fill-opacity: 1; stroke-width: 1; stroke-opacity: 1;" class="Window Regular"><polygon points="656.32,203.50 717.82,203.50 717.82,168.50 656.32,168.50 "/><g id="Glass" class="Glass"><polygon points="656.32,203.50 717.82,203.50 717.82,168.50 656.32,168.50 "/></g><g id="Panel" class="Panel"><line x1="663.8169321858877" x2="710.3199076065055" y1="186.00418108477538" y2="186.00418108477538"/><line x1="663.8169321858877" x2="663.8169321858877" y1="203.50418108477538" y2="168.50418108477538"/><line x1="710.3199076065055" x2="710.3199076065055" y1="203.50418108477538" y2="168.50418108477538"/></g></g></g><g id="Wall" fill="#000000" stroke="#000000" style="fill-opacity: 1; stroke-opacity: 1; stroke-width: 0.2;" class="Wall External"><polygon points="1120.07,203.50 1120.07,559.02 1147.07,573.02 1147.07,168.50 "/><g id="Window" fill="#f0f0ff" stroke="#000000" style="fill-opacity: 1; stroke-width: 1; stroke-opacity: 1;" class="Window Regular"><polygon points="1120.07,249.01 1120.07,426.70 1147.07,426.70 1147.07,249.01 "/><g id="Glass" class="Glass"><polygon points="1120.07,249.01 1120.07,426.70 1147.07,426.70 1147.07,249.01 "/></g><g id="Panel" class="Panel"><line x1="1133.5677278864644" x2="1133.5677278864644" y1="256.5059587038243" y2="419.2038462906947"/><line x1="1120.0677278864644" x2="1147.0677278864644" y1="256.5059587038243" y2="256.5059587038243"/><line x1="1120.0677278864644" x2="1147.0677278864644" y1="419.2038462906947" y2="419.2038462906947"/></g></g><g id="Door" fill="#ffffff" stroke="#000000" style="fill-opacity: 1; stroke-width: 1; stroke-opacity: 1;" class="Door Swing Opposite"><polygon points="1120.07,429.47 1120.07,501.48 1147.07,501.48 1147.07,429.47 "/><g id="Threshold" class="Threshold"><polygon points="1120.07,429.47 1120.07,501.48 1147.07,501.48 1147.07,429.47 "/></g><g id="Panel" fill="none" style="" class="Panel Left Negative"><g id="PanelArea" fill="none" stroke="none" style="" class="PanelArea"><polygon points="1120.07,429.47 1120.07,501.48 1147.07,501.48 1147.07,429.47 "/></g><path d="M1120.07,429.47 q-72.00,0.00 -72.00,72.00 l72.00,0.00Z"/></g><g id="Panel" fill="none" style="" class="Panel Right Positive"><g id="PanelArea" fill="none" stroke="none" style="" class="PanelArea"><polygon points="1120.07,429.47 1120.07,501.48 1147.07,501.48 1147.07,429.47 "/></g><path d="M1147.07,429.47 q72.00,0.00 72.00,72.00 l-72.00,0.00Z"/></g></g></g><g id="Wall" fill="#000000" stroke="#000000" style="fill-opacity: 1; stroke-opacity: 1; stroke-width: 0.2;" class="Wall External"><polygon points="1120.07,559.02 631.91,559.02 645.91,573.02 1147.07,573.02 "/></g><g id="Wall" fill="#000000" stroke="#000000" style="fill-opacity: 1; stroke-opacity: 1; stroke-width: 0.2;" class="Wall External"><polygon points="645.91,573.02 645.91,939.92 631.91,925.92 631.91,559.02 "/></g><g id="Wall" fill="#000000" stroke="#000000" style="fill-opacity: 1; stroke-opacity: 1; stroke-width: 0.2;" class="Wall External"><polygon points="631.91,925.92 137.00,925.92 110.00,939.92 645.91,939.92 "/><g id="Door" fill="#ffffff" stroke="#000000" style="fill-opacity: 1; stroke-width: 1; stroke-opacity: 1;" class="Door Swing Opposite"><polygon points="572.60,925.92 497.12,925.92 497.12,939.92 572.60,939.92 "/><g id="Threshold" class="Threshold"><polygon points="572.60,925.92 497.12,925.92 497.12,939.92 572.60,939.92 "/></g><g id="Panel" fill="none" style="" class="Panel Left Negative"><g id="PanelArea" fill="none" stroke="none" style="" class="PanelArea"><polygon points="572.60,925.92 497.12,925.92 497.12,939.92 572.60,939.92 "/></g><path d="M572.60,925.92 q0.00,-75.48 -75.48,-75.48 l0.00,75.48Z"/></g><g id="Panel" fill="none" style="" class="Panel Right Positive"><g id="PanelArea" fill="none" stroke="none" style="" class="PanelArea"><polygon points="572.60,925.92 497.12,925.92 497.12,939.92 572.60,939.92 "/></g><path d="M572.60,939.92 q0.00,75.48 -75.48,75.48 l0.00,-75.48Z"/></g></g></g><g id="Wall" fill="#000000" stroke="#000000" style="fill-opacity: 1; stroke-opacity: 1; stroke-width: 0.2;" class="Wall External"><polygon points="137.00,925.92 137.00,203.50 110.00,168.50 110.00,939.92 "/><g id="Window" fill="#f0f0ff" stroke="#000000" style="fill-opacity: 1; stroke-width: 1; stroke-opacity: 1;" class="Window Regular"><polygon points="137.00,717.92 137.00,575.13 110.00,575.13 110.00,717.92 "/><g id="Glass" class="Glass"><polygon points="137.00,717.92 137.00,575.13 110.00,575.13 110.00,717.92 "/></g><g id="Panel" class="Panel"><line x1="123.50266923636596" x2="123.50266923636593" y1="710.4162771160009" y2="582.6282881725754"/><line x1="137.00266923636596" x2="110.00266923636596" y1="710.4162771160009" y2="710.4162771160009"/><line x1="137.00266923636593" x2="110.00266923636593" y1="582.6282881725754" y2="582.6282881725754"/></g></g><g id="Window" fill="#f0f0ff" stroke="#000000" style="fill-opacity: 1; stroke-width: 1; stroke-opacity: 1;" class="Window Regular"><polygon points="137.00,858.89 137.00,800.20 110.00,800.20 110.00,858.89 "/><g id="Glass" class="Glass"><polygon points="137.00,858.89 137.00,800.20 110.00,800.20 110.00,858.89 "/></g><g id="Panel" class="Panel"><line x1="123.50266923636599" x2="123.50266923636597" y1="851.3892014333965" y2="807.7009178422428"/><line x1="137.002669236366" x2="110.00266923636599" y1="851.3892014333965" y2="851.3892014333965"/><line x1="137.00266923636596" x2="110.00266923636596" y1="807.7009178422428" y2="807.7009178422428"/></g></g><g id="Window" fill="#f0f0ff" stroke="#000000" style="fill-opacity: 1; stroke-width: 1; stroke-opacity: 1;" class="Window Regular"><polygon points="137.00,457.01 137.00,343.61 110.00,343.61 110.00,457.01 "/><g id="Glass" class="Glass"><polygon points="137.00,457.01 137.00,343.61 110.00,343.61 110.00,457.01 "/></g><g id="Panel" class="Panel"><line x1="123.5026692363659" x2="123.5026692363659" y1="449.5063215516315" y2="351.11021061986764"/><line x1="137.0026692363659" x2="110.0026692363659" y1="449.5063215516315" y2="449.5063215516315"/><line x1="137.0026692363659" x2="110.0026692363659" y1="351.11021061986764" y2="351.11021061986764"/></g></g></g><g id="Wall" fill="#000000" stroke="#000000" style="fill-opacity: 1; stroke-opacity: 1; stroke-width: 0.2;" class="Wall"><polygon points="486.51,168.50 486.51,414.79 492.51,414.79 492.51,168.50 "/></g><g id="Wall" fill="#000000" stroke="#000000" style="fill-opacity: 1; stroke-opacity: 1; stroke-width: 0.2;" class="Wall"><polygon points="486.51,408.79 645.66,408.79 651.66,414.79 486.51,414.79 "/><g id="Door" fill="#ffffff" stroke="#000000" style="fill-opacity: 1; stroke-width: 1; stroke-opacity: 1;" class="Door Swing Beside"><polygon points="526.52,408.79 583.97,408.79 583.97,414.79 526.52,414.79 "/><g id="Threshold" class="Threshold"><polygon points="526.52,408.79 583.97,408.79 583.97,414.79 526.52,414.79 "/></g><g id="Panel" fill="none" style="" class="Panel Right Positive"><g id="PanelArea" fill="none" stroke="none" style="" class="PanelArea"><polygon points="526.52,408.79 583.97,408.79 583.97,414.79 526.52,414.79 "/></g><path d="M526.52,414.79 q0.00,57.45 57.45,57.45 l0.00,-57.45Z"/></g></g></g><g id="Wall" fill="#000000" stroke="#000000" style="fill-opacity: 1; stroke-opacity: 1; stroke-width: 0.2;" class="Wall"><polygon points="651.66,414.79 651.66,168.50 645.66,168.50 645.66,408.79 "/></g><g id="Wall" fill="#000000" stroke="#000000" style="fill-opacity: 1; stroke-opacity: 1; stroke-width: 0.2;" class="Wall"><polygon points="486.51,414.79 486.51,939.92 492.51,939.92 492.51,414.79 "/><g id="Door" fill="#ffffff" stroke="#000000" style="fill-opacity: 1; stroke-width: 1; stroke-opacity: 1;" class="Door Swing Beside"><polygon points="486.51,801.05 486.51,864.92 492.51,864.92 492.51,801.05 "/><g id="Threshold" class="Threshold"><polygon points="486.51,801.05 486.51,864.92 492.51,864.92 492.51,801.05 "/></g><g id="Panel" fill="none" style="" class="Panel Right Positive"><g id="PanelArea" fill="none" stroke="none" style="" class="PanelArea"><polygon points="486.51,801.05 486.51,864.92 492.51,864.92 492.51,801.05 "/></g><path d="M492.51,801.05 q63.87,0.00 63.87,63.87 l-63.87,0.00Z"/></g></g><g id="Door" fill="#ffffff" stroke="#000000" style="fill-opacity: 1; stroke-width: 1; stroke-opacity: 1;" class="Door Swing Beside"><polygon points="486.51,524.04 486.51,598.97 492.51,598.97 492.51,524.04 "/><g id="Threshold" class="Threshold"><polygon points="486.51,524.04 486.51,598.97 492.51,598.97 492.51,524.04 "/></g><g id="Panel" fill="none" style="" class="Panel Right Negative"><g id="PanelArea" fill="none" stroke="none" style="" class="PanelArea"><polygon points="486.51,524.04 486.51,598.97 492.51,598.97 492.51,524.04 "/></g><path d="M486.51,598.97 q-74.93,0.00 -74.93,-74.93 l74.93,0.00Z"/></g></g><g id="Door" fill="#ffffff" stroke="#000000" style="fill-opacity: 1; stroke-width: 1; stroke-opacity: 1;" class="Door Swing Beside"><polygon points="486.51,420.39 486.51,497.19 492.51,497.19 492.51,420.39 "/><g id="Threshold" class="Threshold"><polygon points="486.51,420.39 486.51,497.19 492.51,497.19 492.51,420.39 "/></g><g id="Panel" fill="none" style="" class="Panel Left Negative"><g id="PanelArea" fill="none" stroke="none" style="" class="PanelArea"><polygon points="486.51,420.39 486.51,497.19 492.51,497.19 492.51,420.39 "/></g><path d="M486.51,420.39 q-76.80,0.00 -76.80,76.80 l76.80,0.00Z"/></g></g></g><g id="Wall" fill="#000000" stroke="#000000" style="fill-opacity: 1; stroke-opacity: 1; stroke-width: 0.2;" class="Wall"><polygon points="110.00,797.79 492.51,797.79 492.51,791.79 110.00,791.79 "/></g><g id="Wall" fill="#000000" stroke="#000000" style="fill-opacity: 1; stroke-opacity: 1; stroke-width: 0.2;" class="Wall"><polygon points="492.51,514.78 110.00,514.78 110.00,504.78 492.51,504.78 "/></g><g id="Wall" fill="#000000" stroke="#000000" style="fill-opacity: 1; stroke-opacity: 1; stroke-width: 0.2;" class="Wall"><polygon points="487.24,925.92 428.69,925.92 428.69,880.73 487.24,880.73 "/></g><g id="Wall" fill="#000000" stroke="#000000" style="fill-opacity: 1; stroke-opacity: 1; stroke-width: 0.2;" class="Wall"><polygon points="428.32,203.50 486.61,203.50 486.61,248.19 428.32,248.19 "/></g><g class="FixedFurniture BaseCabinet" fill="#ffffff" stroke="#000000" transform="matrix(0,1,-1,0,486.3733,248.189)" style="fill-opacity: 1; stroke-opacity: 1;">
        <g class="BoundaryPolygon">
            <polygon points="0.00,0.00 168.20,0.00 168.20,58.24 0.00,58.24 "/>
        </g>
        <g class="Direction" fill-opacity="0.9" style="display: none;">
            <polygon points="89.73,53.58 89.73,42.96 86.72,42.96 86.72,53.58 82.92,53.58 88.22,58.38 93.53,53.58 89.73,53.58 " fill="#444444"/>
        </g> 
        <g class="Name" fill-opacity="0.9" style="display: none;">
            <text transform="translate(3 12)" font-size="12" font-family="Verdana, Sans-Serif">CB</text>
        </g>
        <desc>Width:60 Height:90 Depth:60 Elevation:0</desc>
    </g><g class="FixedFurniture ElectricalAppliance IntegratedStove" fill="#ffffff" stroke="#000000" transform="matrix(0,1,-1,0,485.756,294.3437)" style="fill-opacity: 1; stroke-opacity: 1;">
        <g class="BoundaryPolygon" fill="none" stroke="none">
            <polygon points="0.00,0.00 47.75,0.00 47.75,57.42 0.00,57.42 "/>
        </g>
        <g class="InnerPolygon">
            <polygon points="2.00,2.00 46.16,2.00 46.16,55.50 2.00,55.50 "/>
        </g>
        <g class="OuterCircle">
            <circle cx="12.733210096976196" cy="15.311358773582397" r="8"/>
            <circle cx="35.01632776668454" cy="15.311358773582397" r="8"/>
            <circle cx="12.733210096976196" cy="42.10623662735159" r="8"/>
            <circle cx="35.01632776668454" cy="42.10623662735159" r="8"/>
        </g>
        <g class="Direction" fill-opacity="0.9" style="display: none;">
            <polygon points="25.47,52.82 25.47,42.21 22.46,42.21 22.46,52.82 18.66,52.82 23.96,57.62 29.27,52.82 25.47,52.82 " fill="#444444"/>
        </g> 
        <g class="Name" fill-opacity="0.9" style="display: none;">
            <text transform="translate(3 12)" font-size="12" font-family="Verdana, Sans-Serif">INT_STOVE</text>
        </g>
        <desc>Width:60 Height:90 Depth:30 Elevation:0</desc>
    </g><g class="FixedFurniture WallCabinet" fill="#ffffff" stroke="#000000" transform="matrix(0,1,-1,0,486.2014,248.1891)" style="fill-opacity: 0.7; stroke-opacity: 1;">	
        <g class="BoundaryPolygon">
            <polygon points="0.00,0.00 168.11,0.00 168.11,27.86 0.00,27.86 "/>
        </g>
        <g class="Direction" fill-opacity="0.9" style="display: none;">
            <polygon points="89.69,23.40 89.69,12.79 86.68,12.79 86.68,23.40 82.87,23.40 88.18,28.21 93.48,23.40 89.69,23.40 " fill="#444444"/>
        </g> 
        <g class="Name" fill-opacity="0.9" style="display: none;">
            <text transform="translate(3 12)" font-size="12" font-family="Verdana, Sans-Serif">UC</text>
        </g>
        <desc>Width:60 Height:60 Depth:30 Elevation:140</desc>
    </g><g class="FixedFurniture BaseCabinet" fill="#ffffff" stroke="#000000" transform="matrix(1,0,0,1,265.3791,203.5042)" style="fill-opacity: 1; stroke-opacity: 1;">
        <g class="BoundaryPolygon">
            <polygon points="0.00,0.00 162.94,0.00 162.94,60.00 0.00,60.00 "/>
        </g>
        <g class="Direction" fill-opacity="0.9" style="display: none;">
            <polygon points="86.92,55.20 86.92,44.58 83.92,44.58 83.92,55.20 80.11,55.20 85.42,60.00 90.72,55.20 86.92,55.20 " fill="#444444"/>
        </g> 
        <g class="Name" fill-opacity="0.9" style="display: none;">
            <text transform="translate(3 12)" font-size="12" font-family="Verdana, Sans-Serif">CB</text>
        </g>
        <desc>Width:60 Height:90 Depth:60 Elevation:0</desc>
    </g><g class="FixedFurniture DoubleSink" fill="#ffffff" stroke="#000000" transform="matrix(1,0,0,1,321.3495,203.5042)" style="fill-opacity: 1; stroke-opacity: 1;">
        <g class="BoundaryPolygon" fill="none" stroke="none">
            <polygon points="0,0 70,0 70,60 0,60"/>
        </g>
        <g class="InnerPolygonLeft">
            <polygon points="5 9.9 33.5 9.9 33.5 54.9 5 54.9"/>
        </g>
        <g class="InnerPolygonRight">
            <polygon points="36.5 10 65 10 65 55 36.5 55"/>
        </g>
        <g class="OuterDrain" stroke-width="0.8">
            <circle cx="19.7" cy="32.5" r="3.5"/>
            <circle cx="50.2" cy="32.5" r="3.5"/>
        </g>
        <g class="InnerDrain" stroke-width="0.8">
            <circle cx="19.7" cy="32.5" r="2"/>
            <circle cx="50.2" cy="32.5" r="2"/>
        </g>
        <g class="Faucet">
            <polygon points="32 4.9 38 4.9 38 18.9 32 18.9"/>
        </g>
        <g class="Direction" fill-opacity="0.9" style="display: none;">
            <polygon points="36.509 54.697 36.509 44.081 33.5 44.081 33.5 54.697 29.697 54.697 35 60 40.303 54.697 36.509 54.697" fill="#444444"/>
        </g> 
        <g class="Name" fill-opacity="0.9" style="display: none;">
            <text transform="translate(3 12)" font-size="12" font-family="Verdana, Sans-Serif">DSINK</text>
        </g>
        <desc>Width:70 Height:90 Depth:60 Elevation:0</desc>
    </g><g class="FixedFurniture ElectricalAppliance Refrigerator" fill="#ffffff" stroke="#000000" transform="matrix(0.9664,0,0,1,207.3951,203.6292)" style="fill-opacity: 1; stroke-opacity: 1;">
        <g class="BoundaryPolygon">
            <polygon points="0,0 60,0 60,60 0,60"/>
        </g>
        <g class="electricitySign" fill="none">
            <path d="M0,0,30,37.1v-18L60,56.3"/>
        </g>
        <g class="Doors">
            <rect y="56" width="60" height="4"/>
        </g>
        <g class="Direction" fill-opacity="0.9" style="display: none;">
            <polygon points="32.009 55.197 32.009 44.581 29 44.581 29 55.197 25.197 55.197 30.5 60 35.803 55.197 32.009 55.197" fill="#444444"/>
        </g> 
        <g class="Name" fill-opacity="0.9" style="display: none;">
            <text transform="translate(3 12)" font-size="12" font-family="Verdana, Sans-Serif">REF</text>
        </g>
        <desc>Width:60 Height:170 Depth:60 Elevation:0</desc>
    </g><g class="FixedFurniture Closet" fill="#ffffff" stroke="#000000" transform="matrix(1,0,0,1,153.2851,203.5823)" style="fill-opacity: 1; stroke-opacity: 1;">
        <g class="BoundaryPolygon">
            <polygon points="0.00,0.00 54.11,0.00 54.11,60.00 0.00,60.00 "/>
        </g>
        <g class="Direction" fill-opacity="0.9" style="display: none;">
            <polygon points="28.42,54.70 28.42,44.08 25.41,44.08 25.41,54.70 21.61,54.70 26.91,60.00 32.21,54.70 28.42,54.70 " fill="#444444"/>
        </g> 
        <g class="Name" fill-opacity="0.9" style="display: none;">
            <text transform="translate(3 12)" font-size="12" font-family="Verdana, Sans-Serif">CL</text>
        </g>
        <desc>Width:60 Height:200 Depth:60 Elevation:0</desc>
     </g><g class="FixedFurniture Housing" fill="#ffffff" stroke="#000000" transform="matrix(1.5582,0,0,1,137.0027,203.6448)" style="fill-opacity: 1; stroke-opacity: 1;">
        <g class="BoundaryPolygon">
            <polygon points="0,0 10,0 10,60 0,60"/>
        </g> 
        <g class="Name" fill-opacity="0.9" style="display: none;">
            <text transform="translate(3 12)" font-size="12" font-family="Verdana, Sans-Serif">EMPTY</text>
        </g>
        <desc>Width:60 Height:200 Depth:60 Elevation:0</desc>
     </g><g class="FixedFurniture WallCabinet" fill="#ffffff" stroke="#000000" transform="matrix(1,0,0,1,265.6162,203.5354)" style="fill-opacity: 0.7; stroke-opacity: 1;">	
        <g class="BoundaryPolygon">
            <polygon points="0.00,0.00 162.70,0.00 162.70,30.00 0.00,30.00 "/>
        </g>
        <g class="Direction" fill-opacity="0.9" style="display: none;">
            <polygon points="86.80,25.20 86.80,14.58 83.79,14.58 83.79,25.20 79.99,25.20 85.29,30.00 90.59,25.20 86.80,25.20 " fill="#444444"/>
        </g> 
        <g class="Name" fill-opacity="0.9" style="display: none;">
            <text transform="translate(3 12)" font-size="12" font-family="Verdana, Sans-Serif">UC</text>
        </g>
        <desc>Width:60 Height:60 Depth:30 Elevation:140</desc>
    </g><g class="FixedFurniture CoatCloset" fill="#ffffff" stroke="#000000" transform="matrix(1,0,0,1,492.5139,203.5042)" style="fill-opacity: 1; stroke-opacity: 1;">
        <g class="BoundaryPolygon">
            <polygon points="0.00,0.00 153.16,0.00 153.16,60.00 0.00,60.00 "/>
        </g>
        <g class="Hanger" fill="#ffffff" stroke="#9a9a9a" stroke-dasharray="5,5">
            <line x1="0" y1="30" x2="153.15639336334777" y2="30"/>
        </g>
        <g class="Direction" fill-opacity="0.9" style="display: none;">
            <polygon points="78.50,54.52 78.50,43.90 75.50,43.90 75.50,54.52 71.69,54.52 77.00,59.82 82.30,54.52 78.50,54.52 " fill="#444444"/>
        </g> 
        <g class="Name" fill-opacity="0.9" style="display: none;">
            <text transform="translate(3 12)" font-size="12" font-family="Verdana, Sans-Serif">CWH</text>
        </g>
        <desc>Width:120 Height:200 Depth:60 Elevation:0</desc>
     </g><g class="FixedFurniture CoatCloset" fill="#ffffff" stroke="#000000" transform="matrix(0,1,-1,0,645.663,263.5042)" style="fill-opacity: 1; stroke-opacity: 1;">
        <g class="BoundaryPolygon">
            <polygon points="0.00,0.00 145.46,0.00 145.46,56.44 0.00,56.44 "/>
        </g>
        <g class="Hanger" fill="#ffffff" stroke="#9a9a9a" stroke-dasharray="5,5">
            <line x1="0" y1="28.21759158526383" x2="145.46297790500475" y2="28.21759158526383"/>
        </g>
        <g class="Direction" fill-opacity="0.9" style="display: none;">
            <polygon points="74.56,51.28 74.56,40.66 71.55,40.66 71.55,51.28 67.75,51.28 73.05,56.58 78.35,51.28 74.56,51.28 " fill="#444444"/>
        </g> 
        <g class="Name" fill-opacity="0.9" style="display: none;">
            <text transform="translate(3 12)" font-size="12" font-family="Verdana, Sans-Serif">CWH</text>
        </g>
        <desc>Width:120 Height:200 Depth:60 Elevation:0</desc>
     </g><g class="FixedFurniture Closet" fill="#ffffff" stroke="#000000" transform="matrix(0,-1,1,0,492.7014,408.7921)" style="fill-opacity: 1; stroke-opacity: 1;">
        <g class="BoundaryPolygon">
            <polygon points="0.00,0.00 145.22,0.00 145.22,30.55 0.00,30.55 "/>
        </g>
        <g class="Direction" fill-opacity="0.9" style="display: none;">
            <polygon points="76.26,27.85 76.26,17.24 73.25,17.24 73.25,27.85 69.45,27.85 74.75,33.16 80.06,27.85 76.26,27.85 " fill="#444444"/>
        </g> 
        <g class="Name" fill-opacity="0.9" style="display: none;">
            <text transform="translate(3 12)" font-size="12" font-family="Verdana, Sans-Serif">CL</text>
        </g>
        <desc>Width:60 Height:200 Depth:60 Elevation:0</desc>
     </g><g class="FixedFurniture Shower" fill="#ffffff" stroke="#000000" transform="matrix(-1,0,0,-1,194.0576,925.9216)" style="fill-opacity: 1; stroke-opacity: 1;"> 
	    <g class="BoundaryPolygon" fill="none" stroke="none">
            <polygon points="0,0 32,0 32,19 0,19"/>
        </g>
        <g class="InnerPolygon"> 
			<rect x="3.7" y="0.5" width="11.2" height="6.1"/>
			<rect x="17.6" y="0.5" width="11.2" height="6.1"/>
			<rect x="28.7" y="0.5" width="3.4" height="6.1"/>
			<rect x="0.5" y="0.5" width="3.2" height="6.1"/>
			<path d="M14.9,8.5c0,1.5-0.4,3.3-1.6,5    c-0.4,0.6-1,1.1-1.1,1.7c-0.2,1.1,0.3,2.8,2.5,3.2c0.5,0.1,1.3,0.1,1.6,0.1h-0.1c0.3,0,1.1,0,1.6-0.1c2.2-0.4,2.7-2.1,2.5-3.2    c-0.1-0.6-0.7-1.1-1.1-1.7c-1.2-1.7-1.6-3.5-1.6-5"/>
			<path d="M12.2,15.3c0.1,0.2,1.6,1.9,4.2,1.9 c2.4-0.1,3.7-1.7,3.9-1.9"/>
			<path d="M14.9,0.5h2.7v8c-0.9,0-1.8,0-2.7,0l0,0 C14.9,5.9,14.9,3.2,14.9,0.5z"/>
		</g>
	    <g class="Indicator"> 
			<path d="M3.7,3.6C5,3.1,5.2,3,5.2,3 c0,1.1,0,0,0,1.1C5.2,4.1,5.1,4.1,3.7,3.6"/>
			<path d="M28.7,3.6 C27.4,3.1,27.2,3,27.2,3c0,1.1,0,0,0,1.1C27.2,4.1,27.3,4.1,28.7,3.6"/>	
		</g>
        <desc>Width:32 Height:97 Depth:19 Elevation:135</desc>
	</g><g class="FixedFurniture ElectricalAppliance WashingMachine" fill="#ffffff" stroke="#000000" transform="matrix(-1,0,0,-1,298.96,925.8122)" style="fill-opacity: 1; stroke-opacity: 1;">
	   <g class="BoundaryPolygon">
		    <polygon points="0,0 60,0 60,60 0,60"/>
		</g>	
	    <g class="electricitySign" fill="none">
            <path d="M0,0,30,41V20.8L60,60"/>
		</g>
	    <g class="Handle">
		    <path d="M2.7,59.4H57.3"/>
		</g>
        <g class="Direction" fill-opacity="0.9" style="display: none;">
            <polygon points="32.009 55.197 32.009 44.581 29 44.581 29 55.197 25.197 55.197 30.5 60 35.803 55.197 32.009 55.197" fill="#444444"/>
        </g> 
        <g class="Name" fill-opacity="0.9" style="display: none;">
            <text transform="translate(3 12)" font-size="12" font-family="Verdana, Sans-Serif">WM</text>
        </g>
        <desc>Width:60 Height:90 Depth:60 Elevation:0</desc>
    </g><g id="FixedFurnitureSet" transform="matrix(-1,0,0,-1,361.1628,925.8122)" class="FixedFurnitureSet" fill="#ffffff" stroke="#000000" style="fill-opacity: 0.4; stroke-opacity: 0.4;"><g class="FixedFurniture BaseCabinet" fill="#ffffff" stroke="#000000" transform="matrix(1,0,0,1,0,0)" style="fill-opacity: 1; stroke-opacity: 1;">
        <g class="BoundaryPolygon">
            <polygon points="0.00,0.00 52.32,0.00 52.32,44.27 0.00,44.27 "/>
        </g>
        <g class="Direction" fill-opacity="0.9" style="display: none;">
            <polygon points="27.91,40.72 27.91,30.11 24.90,30.11 24.90,40.72 21.10,40.72 26.40,45.53 31.71,40.72 27.91,40.72 " fill="#444444"/>
        </g> 
        <g class="Name" fill-opacity="0.9" style="display: none;">
            <text transform="translate(3 12)" font-size="12" font-family="Verdana, Sans-Serif">CB</text>
        </g>
        <desc>Width:60 Height:5 Depth:60 Elevation:105</desc>
    </g><g class="FixedFurniture Sink" fill="#ffffff" stroke="#000000" transform="matrix(1,0,0,1,0,0)" style="fill-opacity: 1; stroke-opacity: 1;">
        <g class="BoundaryPolygon" fill="none" stroke="none">
        <polygon points="0.00,0.00 52.32,0.00 52.32,44.27 0.00,44.27 "/>
        </g>
        <g class="InnerPolygon">
            <polygon points="4.36,9.70 47.96,9.70 47.96,40.36 4.36,40.36 "/>
        </g>
        <g class="OuterDrain" stroke-width="0.8">
            <circle cx="26.16055982213056" cy="23.756498859710753" r="3.5"/>
        </g>
        <g class="InnerDrain" stroke-width="0.8">
            <circle cx="26.16055982213056" cy="23.756498859710753" r="2"/>
        </g>
        <g class="Faucet">
            <polygon points="23.54,3.69 29.54,3.69 29.54,17.69 23.54,17.69 "/>
        </g>
        <g class="Direction" fill-opacity="0.9" style="display: none;">
            <polygon points="27.91,40.72 27.91,30.11 24.90,30.11 24.90,40.72 21.10,40.72 26.40,45.53 31.71,40.72 27.91,40.72 " fill="#444444"/>
        </g> 
        <g class="Name" fill-opacity="0.9" style="display: none;">
            <text transform="translate(3 12)" font-size="12" font-family="Verdana, Sans-Serif">SINK</text>
        </g>
        <desc>Width:60 Height:90 Depth:60 Elevation:0</desc>
    </g></g><g class="FixedFurniture Toilet" fill="#ffffff" stroke="#000000" transform="matrix(-1,0,0,-1,416.9269,925.9216)" style="fill-opacity: 1; stroke-opacity: 1;">
	   <g class="BoundaryPolygon" fill="none" stroke="none"> 
            <polygon points="0,0 41,0 41,71 0,71"/>
		</g>
        <g class="InnerPolygon">
            <rect x="0.502" y="0.5" width="39.989" height="17.98"/>
            <path d="M40.491,44.237S41.619,70.5,20.907,70.5C-.523,70.5.6,44.237.6,44.237L.5,18.48H40.491Z"/>
            <rect x="17.318" y="7.975" width="6.357" height="3.03"/>
        </g>
        <desc>Width:41 Height:85 Depth:71 Elevation:0</desc>
    </g><g class="FixedFurniture CoatCloset" fill="#ffffff" stroke="#000000" transform="matrix(0,-1,1,0,578.555,925.9216)" style="fill-opacity: 1; stroke-opacity: 1;">
        <g class="BoundaryPolygon">
            <polygon points="0.00,0.00 140.79,0.00 140.79,53.36 0.00,53.36 "/>
        </g>
        <g class="Hanger" fill="#ffffff" stroke="#9a9a9a" stroke-dasharray="5,5">
            <line x1="0" y1="26.681905031483495" x2="140.7933951360365" y2="26.681905031483495"/>
        </g>
        <g class="Direction" fill-opacity="0.9" style="display: none;">
            <polygon points="72.17,48.49 72.17,37.87 69.16,37.87 69.16,48.49 65.36,48.49 70.66,53.79 75.96,48.49 72.17,48.49 " fill="#444444"/>
        </g> 
        <g class="Name" fill-opacity="0.9" style="display: none;">
            <text transform="translate(3 12)" font-size="12" font-family="Verdana, Sans-Serif">CWH</text>
        </g>
        <desc>Width:120 Height:200 Depth:60 Elevation:0</desc>
     </g><g class="FixedFurniture Closet" fill="#ffffff" stroke="#000000" transform="matrix(0,1,-1,0,631.8837,730.5781)" style="fill-opacity: 1; stroke-opacity: 1;">
        <g class="BoundaryPolygon">
            <polygon points="0.00,0.00 54.55,0.00 54.55,53.42 0.00,53.42 "/>
        </g>
        <g class="Direction" fill-opacity="0.9" style="display: none;">
            <polygon points="28.65,48.70 28.65,38.08 25.64,38.08 25.64,48.70 21.84,48.70 27.14,54.00 32.44,48.70 28.65,48.70 " fill="#444444"/>
        </g> 
        <g class="Name" fill-opacity="0.9" style="display: none;">
            <text transform="translate(3 12)" font-size="12" font-family="Verdana, Sans-Serif">CL</text>
        </g>
        <desc>Width:60 Height:200 Depth:60 Elevation:0</desc>
     </g><g id="Wall" fill="#000000" stroke="#000000" style="fill-opacity: 1; stroke-opacity: 1; stroke-width: 0.2;" class="Wall"><polygon points="1147.07,573.02 1379.02,573.02 1359.02,553.02 1147.07,553.02 "/><g id="Window" fill="#f0f0ff" stroke="#000000" style="fill-opacity: 1; stroke-width: 1; stroke-opacity: 1;" class="Window Regular"><polygon points="1170.29,573.02 1351.81,573.02 1351.81,553.02 1170.29,553.02 "/><g id="Glass" class="Glass"><polygon points="1170.29,573.02 1351.81,573.02 1351.81,553.02 1170.29,553.02 "/></g><g id="Panel" class="Panel"><line x1="1177.793027619467" x2="1344.3056926046743" y1="563.0249932139081" y2="563.0249932139081"/><line x1="1177.793027619467" x2="1177.793027619467" y1="573.0249932139081" y2="553.0249932139081"/><line x1="1344.3056926046743" x2="1344.3056926046743" y1="573.0249932139081" y2="553.0249932139081"/></g></g></g><g id="Wall" fill="#000000" stroke="#000000" style="fill-opacity: 1; stroke-opacity: 1; stroke-width: 0.2;" class="Wall"><polygon points="1379.02,573.02 1379.02,183.56 1359.02,203.56 1359.02,553.02 "/><g id="Window" fill="#f0f0ff" stroke="#000000" style="fill-opacity: 1; stroke-width: 1; stroke-opacity: 1;" class="Window Regular"><polygon points="1379.02,550.08 1379.02,204.94 1359.02,204.94 1359.02,550.08 "/><g id="Glass" class="Glass"><polygon points="1379.02,550.08 1379.02,204.94 1359.02,204.94 1359.02,550.08 "/></g><g id="Panel" class="Panel"><line x1="1369.0171527113728" x2="1369.0171527113728" y1="542.5825839530578" y2="212.4373671321207"/><line x1="1379.0171527113728" x2="1359.0171527113728" y1="542.5825839530578" y2="542.5825839530578"/><line x1="1379.0171527113728" x2="1359.0171527113728" y1="212.4373671321207" y2="212.4373671321207"/></g></g></g><g id="Wall" fill="#000000" stroke="#000000" style="fill-opacity: 1; stroke-opacity: 1; stroke-width: 0.2;" class="Wall"><polygon points="1379.02,183.56 1147.07,183.56 1147.07,203.56 1359.02,203.56 "/><g id="Window" fill="#f0f0ff" stroke="#000000" style="fill-opacity: 1; stroke-width: 1; stroke-opacity: 1;" class="Window Regular"><polygon points="1353.97,183.56 1168.94,183.56 1168.94,203.56 1353.97,203.56 "/><g id="Glass" class="Glass"><polygon points="1353.97,183.56 1168.94,183.56 1168.94,203.56 1353.97,203.56 "/></g><g id="Panel" class="Panel"><line x1="1346.4731307584962" x2="1176.438454587468" y1="193.5638993260332" y2="193.5638993260332"/><line x1="1346.4731307584962" x2="1346.4731307584962" y1="183.5638993260332" y2="203.5638993260332"/><line x1="1176.438454587468" x2="1176.438454587468" y1="183.5638993260332" y2="203.5638993260332"/></g></g></g><g fill="#0000ff" stroke="#0000ff" style="display: none;" class="SelectionControls"><g style="display: none;" class="rotateControl"><circle cx="888.0366949860187" cy="320.3427310847754" r="5" style="stroke : none; fill-opacity: 0.5; cursor:crosshair"/></g><g style="display: none;" class="ResizeNControl"><circle cx="0" cy="0" r="5" style="stroke : none; fill-opacity: 0.5"/></g><g style="display: none;" class="ResizeNEControl"><circle cx="0" cy="0" r="5" style="stroke : none; fill-opacity: 0.5"/></g><g style="display: none;" class="ResizeEControl"><circle cx="0" cy="0" r="5" style="stroke : none; fill-opacity: 0.5"/></g><g style="display: none;" class="ResizeSEControl"><circle cx="0" cy="0" r="5" style="stroke : none; fill-opacity: 0.5"/></g><g style="display: none;" class="ResizeSControl"><circle cx="0" cy="0" r="5" style="stroke : none; fill-opacity: 0.5"/></g><g style="display: none;" class="ResizeSWControl"><circle cx="0" cy="0" r="5" style="stroke : none; fill-opacity: 0.5"/></g><g style="display: none;" class="ResizeWControl"><circle cx="0" cy="0" r="5" style="stroke : none; fill-opacity: 0.5"/></g><g style="display: none;" class="ResizeNWControl"><circle cx="0" cy="0" r="5" style="stroke : none; fill-opacity: 0.5"/></g><g style="display: none;" class="removeControl"><polygon style="stroke : none; fill-opacity: 0.1" points="862.66,350.34 913.41,350.34 913.41,389.00 862.66,389.00 "/></g><g style="display: none;" class="copyPasteControl"><polygon style="stroke : none; fill-opacity: 0.1"/></g><g style="display: none;" class="translateControl"><polygon style="stroke : none; fill-opacity: 0.1; cursor:move" points="862.66,350.34 913.41,350.34 913.41,389.00 862.66,389.00 "/></g></g><g fill="#0000ff" stroke="#0000ff" style="display: none;" class="SelectionControls"><polygon fill="none" stroke="#0000ff" style="" points="651.66,203.50 1120.07,203.50 1120.07,559.02 651.66,559.02 "/><g style="display: none;" class="rotateControl"><circle cx="885.8653417877765" cy="173.50418108477538" r="5" style="stroke : none; fill-opacity: 0.5; cursor:crosshair"/></g><g style="display: none;" class="ResizeNControl"><circle cx="0" cy="0" r="5" style="stroke : none; fill-opacity: 0.5"/></g><g style="display: none;" class="ResizeNEControl"><circle cx="0" cy="0" r="5" style="stroke : none; fill-opacity: 0.5"/></g><g style="display: none;" class="ResizeEControl"><circle cx="0" cy="0" r="5" style="stroke : none; fill-opacity: 0.5"/></g><g style="display: none;" class="ResizeSEControl"><circle cx="0" cy="0" r="5" style="stroke : none; fill-opacity: 0.5"/></g><g style="display: none;" class="ResizeSControl"><circle cx="0" cy="0" r="5" style="stroke : none; fill-opacity: 0.5"/></g><g style="display: none;" class="ResizeSWControl"><circle cx="0" cy="0" r="5" style="stroke : none; fill-opacity: 0.5"/></g><g style="display: none;" class="ResizeWControl"><circle cx="0" cy="0" r="5" style="stroke : none; fill-opacity: 0.5"/></g><g style="display: none;" class="ResizeNWControl"><circle cx="0" cy="0" r="5" style="stroke : none; fill-opacity: 0.5"/></g><g style="display: none;" class="removeControl"><polygon style="stroke : none; fill-opacity: 0.1"/></g><g style="display: none;" class="copyPasteControl"><polygon style="stroke : none; fill-opacity: 0.1"/></g><g style="display: none;" class="translateControl"><polygon style="stroke : none; fill-opacity: 0.1; cursor:move"/></g></g></g></g></g></svg>
