<?xml version="1.0"?>
<svg xmlns="http://www.w3.org/2000/svg" xmlns:xlink="http://www.w3.org/1999/xlink" height="1026.341812133789" version="1.1" width="1538.4747619628906" id="temp" viewBox="0 0 1538.4747619628906 1026.341812133789"><defs/><g id="Model" class="Model v1-1"><g class="Floor"><g id="Floor-1" class="Floorplan Floor-1"/></g><g style="display: none;" class="Floor"><g id="Floor-2" class="Floorplan Floor-2"><g id="8f23dae1-bbc5-4430-b6b3-a4415e5b8fe5" fill="#ffffff" stroke="#ffffff" style="fill-opacity: 1; stroke-opacity: 1; stroke-width: 0.2;" class="Space Bedroom"><polygon points="490.06,628.59 537.53,628.59 537.91,659.86 537.91,668.86 699.35,668.86 699.35,1001.34 241.19,1001.34 241.19,669.06 390.44,669.06 390.63,625.62 490.06,625.62 "/><g transform="matrix(1,0,0,1,241.1888,625.6244)" class="Dimension"><g transform="matrix(1,0,0,1,0,0)" style="display: none;" class="Visual"><g id="mark1" fill="#000000" stroke="none" transform="matrix(1,0,0,1,229.0804,0)" style="fill-opacity: 1; pointer-events: visible;" class="DimensionMark"><polygon points="-5,5,0,0,5,5"/></g><g id="mark2" fill="#000000" stroke="none" transform="matrix(1,0,0,1,458.1607,187.8587)" style="fill-opacity: 1; pointer-events: visible;" class="DimensionMark"><polygon points="-5,-5,0,0,-5,5"/></g><g id="mark3" fill="#000000" stroke="none" transform="matrix(1,0,0,1,229.0804,375.7174)" style="fill-opacity: 1; pointer-events: visible;" class="DimensionMark"><polygon points="-5,-5,0,0,5,-5"/></g><g id="mark4" fill="#000000" stroke="none" transform="matrix(1,0,0,1,0,187.8587)" style="fill-opacity: 1; pointer-events: visible;" class="DimensionMark"><polygon points="5,5,0,0,5,-5"/></g></g><g transform="matrix(1,0,0,1,219.5306,221.0268)" class="SpaceDimensionsLabel" style="display: block;"><g id="NameLabel" style="display: block;" class="TextLabel NameLabel"><text x="0" y="0em" fill="#000000" stroke="none" style="font-family: Verdana; font-size: 33px; fill-opacity: 1; cursor: default;">MH</text></g><g id="DimensionMeasureLabel" transform="matrix(1,0,0,1,-113.6953,79.8125)" style="display: none;" class="TextLabel DimensionMeasureLabel"><text x="31.6953125" y="-1.2em" fill="#000000" stroke="none" style="font-family: Verdana; font-size: 33px; fill-opacity: 1; cursor: default;">15'0" x 12'4"</text><text x="0" y="0em" fill="#000000" stroke="none" style="font-family: Verdana; font-size: 33px; fill-opacity: 1; cursor: default;">4.58 m x 3.76 m</text></g></g></g></g><g id="ae3125a9-cb5d-4117-9e6d-f05d88ec8f54" fill="#ffffff" stroke="#ffffff" style="fill-opacity: 1; stroke-opacity: 1; stroke-width: 0.2;" class="Space Bedroom"><polygon points="387.63,577.73 387.63,660.06 241.19,660.06 241.19,229.62 759.98,229.62 759.98,593.75 694.88,659.86 547.91,659.86 547.91,548.48 505.27,548.48 505.27,615.49 490.06,615.49 490.06,625.62 390.63,625.62 390.44,628.49 390.44,577.73 "/><g transform="matrix(1,0,0,1,241.1888,229.6193)" class="Dimension"><g transform="matrix(1,0,0,1,0,0)" style="display: none;" class="Visual"><g id="mark1" fill="#000000" stroke="none" transform="matrix(1,0,0,1,248.8753,0)" style="fill-opacity: 1; pointer-events: visible;" class="DimensionMark"><polygon points="-5,5,0,0,5,5"/></g><g id="mark2" fill="#000000" stroke="none" transform="matrix(1,0,0,1,518.7916,215.2207)" style="fill-opacity: 1; pointer-events: visible;" class="DimensionMark"><polygon points="-5,-5,0,0,-5,5"/></g><g id="mark3" fill="#000000" stroke="none" transform="matrix(1,0,0,1,248.8753,396.0051)" style="fill-opacity: 1; pointer-events: visible;" class="DimensionMark"><polygon points="-5,-5,0,0,5,-5"/></g><g id="mark4" fill="#000000" stroke="none" transform="matrix(1,0,0,1,0,215.2207)" style="fill-opacity: 1; pointer-events: visible;" class="DimensionMark"><polygon points="5,5,0,0,5,-5"/></g></g><g transform="matrix(1,0,0,1,234.0607,188.9983)" class="SpaceDimensionsLabel" style="display: block;"><g id="NameLabel" style="display: block;" class="TextLabel NameLabel"><text x="0" y="0em" fill="#000000" stroke="none" style="font-family: Verdana; font-size: 33px; fill-opacity: 1; cursor: default;">MH</text></g><g id="DimensionMeasureLabel" transform="matrix(1,0,0,1,-113.6797,80.2031)" style="display: none;" class="TextLabel DimensionMeasureLabel"><text x="31.6875" y="-1.2em" fill="#000000" stroke="none" style="font-family: Verdana; font-size: 33px; fill-opacity: 1; cursor: default;">17'0" x 13'0"</text><text x="0" y="0em" fill="#000000" stroke="none" style="font-family: Verdana; font-size: 33px; fill-opacity: 1; cursor: default;">5.19 m x 3.96 m</text></g></g></g></g><g id="5728cf48-6d35-4a8f-9b71-2b3df950a56f" fill="#ffffff" stroke="#000000" style="fill-opacity: 1; stroke-opacity: 1; stroke-width: 0.2;" class="Space Outdoor"><polygon points="216.19,659.86 185.60,659.86 185.60,574.45 216.19,574.45 216.19,659.86 "/><g transform="matrix(1,0,0,1,185.5964,574.446)" class="Dimension"><g transform="matrix(1,0,0,1,0,0)" style="display: none;" class="Visual"><g id="mark1" fill="#000000" stroke="none" transform="matrix(1,0,0,1,15.2962,0)" style="fill-opacity: 1; pointer-events: visible;" class="DimensionMark"><polygon points="-5,5,0,0,5,5"/></g><g id="mark2" fill="#000000" stroke="none" transform="matrix(1,0,0,1,30.5924,42.7075)" style="fill-opacity: 1; pointer-events: visible;" class="DimensionMark"><polygon points="-5,-5,0,0,-5,5"/></g><g id="mark3" fill="#000000" stroke="none" transform="matrix(1,0,0,1,15.2962,85.4151)" style="fill-opacity: 1; pointer-events: visible;" class="DimensionMark"><polygon points="-5,-5,0,0,5,-5"/></g><g id="mark4" fill="#000000" stroke="none" transform="matrix(1,0,0,1,0,42.7075)" style="fill-opacity: 1; pointer-events: visible;" class="DimensionMark"><polygon points="5,5,0,0,5,-5"/></g></g><g transform="matrix(1,0,0,1,15.2962,45.8887)" class="SpaceDimensionsLabel"><g id="NameLabel" style="display: block;" class="TextLabel NameLabel"><text x="0" y="0em" fill="#000000" stroke="none" style="font-family: Verdana; font-size: 33px; fill-opacity: 1; cursor: default;">ULKOTILA</text></g><g id="DimensionMeasureLabel" transform="matrix(1,0,0,1,-57.3125,79.6719)" style="display: none;" class="TextLabel DimensionMeasureLabel"><text x="42.1796875" y="-1.2em" fill="#000000" stroke="none" style="font-family: Verdana; font-size: 33px; fill-opacity: 1; cursor: default;">1'0" x 2'10"</text><text x="0" y="0em" fill="#000000" stroke="none" style="font-family: Verdana; font-size: 33px; fill-opacity: 1; cursor: default;">0.31 m x 0.85 m</text></g></g></g></g><g id="6f5587b7-e8f8-4fac-9cb5-4b1f84702528" fill="#ffffff" stroke="#ffffff" style="fill-opacity: 1; stroke-opacity: 1; stroke-width: 0.2;" class="Space Entry"><polygon points="975.86,666.31 991.86,666.31 991.86,613.30 1125.54,613.30 1176.54,690.84 1176.54,1001.34 991.86,1001.34 991.86,914.82 975.86,914.82 975.86,1001.34 708.35,1001.34 708.35,660.00 768.98,598.33 768.98,595.21 975.86,595.21 "/><g transform="matrix(1,0,0,1,708.3495,595.2103)" class="Dimension"><g transform="matrix(1,0,0,1,0,0)" style="display: none;" class="Visual"><g id="mark1" fill="#000000" stroke="none" transform="matrix(1,0,0,1,234.0973,0)" style="fill-opacity: 1; pointer-events: visible;" class="DimensionMark"><polygon points="-5,5,0,0,5,5"/></g><g id="mark2" fill="#000000" stroke="none" transform="matrix(1,0,0,1,468.1946,203.0658)" style="fill-opacity: 1; pointer-events: visible;" class="DimensionMark"><polygon points="-5,-5,0,0,-5,5"/></g><g id="mark3" fill="#000000" stroke="none" transform="matrix(1,0,0,1,234.0973,406.1315)" style="fill-opacity: 1; pointer-events: visible;" class="DimensionMark"><polygon points="-5,-5,0,0,5,-5"/></g><g id="mark4" fill="#000000" stroke="none" transform="matrix(1,0,0,1,0,203.0658)" style="fill-opacity: 1; pointer-events: visible;" class="DimensionMark"><polygon points="5,5,0,0,5,-5"/></g></g><g transform="matrix(1,0,0,1,158.9116,203.7226)" class="SpaceDimensionsLabel" style="display: block;"><g id="NameLabel" style="display: block;" class="TextLabel NameLabel"><text x="0" y="0em" fill="#000000" stroke="none" style="font-family: Verdana; font-size: 33px; fill-opacity: 1; cursor: default;">AULA</text></g><g id="DimensionMeasureLabel" transform="matrix(1,0,0,1,-95.9609,79.3594)" style="display: none;" class="TextLabel DimensionMeasureLabel"><text x="31.6875" y="-1.2em" fill="#000000" stroke="none" style="font-family: Verdana; font-size: 33px; fill-opacity: 1; cursor: default;">15'4" x 13'4"</text><text x="0" y="0em" fill="#000000" stroke="none" style="font-family: Verdana; font-size: 33px; fill-opacity: 1; cursor: default;">4.68 m x 4.06 m</text></g></g></g></g><g id="94f22f2a-7fcf-4cf9-8466-bb43443f9f10" fill="#ffffff" stroke="#ffffff" style="fill-opacity: 1; stroke-opacity: 1; stroke-width: 0.2;" class="Space Bedroom"><polygon points="1513.47,681.51 1183.54,681.51 1130.29,600.88 1130.29,229.62 1513.47,229.62 "/><g transform="matrix(1,0,0,1,1130.2866,229.6193)" class="Dimension"><g transform="matrix(1,0,0,1,0,0)" style="display: none;" class="Visual"><g id="mark1" fill="#000000" stroke="none" transform="matrix(1,0,0,1,191.5941,0)" style="fill-opacity: 1; pointer-events: visible;" class="DimensionMark"><polygon points="-5,5,0,0,5,5"/></g><g id="mark2" fill="#000000" stroke="none" transform="matrix(1,0,0,1,383.1881,225.9432)" style="fill-opacity: 1; pointer-events: visible;" class="DimensionMark"><polygon points="-5,-5,0,0,-5,5"/></g><g id="mark3" fill="#000000" stroke="none" transform="matrix(1,0,0,1,191.5941,451.8864)" style="fill-opacity: 1; pointer-events: visible;" class="DimensionMark"><polygon points="-5,-5,0,0,5,-5"/></g><g id="mark4" fill="#000000" stroke="none" transform="matrix(1,0,0,1,0,225.9432)" style="fill-opacity: 1; pointer-events: visible;" class="DimensionMark"><polygon points="5,5,0,0,5,-5"/></g></g><g transform="matrix(1,0,0,1,191.594,209.3983)" class="SpaceDimensionsLabel" style="display: block;"><g id="NameLabel" style="display: block;" class="TextLabel NameLabel"><text x="0" y="0em" fill="#000000" stroke="none" style="font-family: Verdana; font-size: 33px; fill-opacity: 1; cursor: default;">MH</text></g><g id="DimensionMeasureLabel" transform="matrix(1,0,0,1,-113.6719,79.3594)" style="display: none;" class="TextLabel DimensionMeasureLabel"><text x="21.1953125" y="-1.2em" fill="#000000" stroke="none" style="font-family: Verdana; font-size: 33px; fill-opacity: 1; cursor: default;">12'7" x 14'10"</text><text x="0" y="0em" fill="#000000" stroke="none" style="font-family: Verdana; font-size: 33px; fill-opacity: 1; cursor: default;">3.83 m x 4.52 m</text></g></g></g></g><g id="2f4482ad-b023-4272-a357-7ded68d407b9" fill="#ffffff" stroke="#ffffff" style="fill-opacity: 1; stroke-opacity: 1; stroke-width: 0.2;" class="Space Bedroom"><polygon points="1513.47,1001.34 1187.54,1001.34 1187.54,691.51 1513.47,691.51 "/><g transform="matrix(1,0,0,1,1187.5441,691.5057)" class="Dimension"><g transform="matrix(1,0,0,1,0,0)" style="display: none;" class="Visual"><g id="mark1" fill="#000000" stroke="none" transform="matrix(1,0,0,1,162.9653,0)" style="fill-opacity: 1; pointer-events: visible;" class="DimensionMark"><polygon points="-5,5,0,0,5,5"/></g><g id="mark2" fill="#000000" stroke="none" transform="matrix(1,0,0,1,325.9306,154.9181)" style="fill-opacity: 1; pointer-events: visible;" class="DimensionMark"><polygon points="-5,-5,0,0,-5,5"/></g><g id="mark3" fill="#000000" stroke="none" transform="matrix(1,0,0,1,162.9653,309.8362)" style="fill-opacity: 1; pointer-events: visible;" class="DimensionMark"><polygon points="-5,-5,0,0,5,-5"/></g><g id="mark4" fill="#000000" stroke="none" transform="matrix(1,0,0,1,0,154.9181)" style="fill-opacity: 1; pointer-events: visible;" class="DimensionMark"><polygon points="5,5,0,0,5,-5"/></g></g><g transform="matrix(1,0,0,1,156.1898,160.005)" class="SpaceDimensionsLabel" style="display: block;"><g id="NameLabel" style="display: block;" class="TextLabel NameLabel"><text x="0" y="0em" fill="#000000" stroke="none" style="font-family: Verdana; font-size: 33px; fill-opacity: 1; cursor: default;">MH</text></g><g id="DimensionMeasureLabel" transform="matrix(1,0,0,1,-113.6719,79.3594)" style="display: none;" class="TextLabel DimensionMeasureLabel"><text x="31.6875" y="-1.2em" fill="#000000" stroke="none" style="font-family: Verdana; font-size: 33px; fill-opacity: 1; cursor: default;">10'8" x 10'2"</text><text x="0" y="0em" fill="#000000" stroke="none" style="font-family: Verdana; font-size: 33px; fill-opacity: 1; cursor: default;">3.26 m x 3.10 m</text></g></g></g></g><g id="5ff61a4e-a1c5-43d6-954d-5c2728670619" fill="#ffffff" stroke="#ffffff" style="fill-opacity: 1; stroke-opacity: 1; stroke-width: 0.2;" class="Space Storage"><polygon points="975.86,586.21 768.98,586.21 768.98,229.62 975.86,229.62 "/><g transform="matrix(1,0,0,1,768.9803,229.6193)" class="Dimension"><g transform="matrix(1,0,0,1,0,0)" style="display: none;" class="Visual"><g id="mark1" fill="#000000" stroke="none" transform="matrix(1,0,0,1,103.4387,0)" style="fill-opacity: 1; pointer-events: visible;" class="DimensionMark"><polygon points="-5,5,0,0,5,5"/></g><g id="mark2" fill="#000000" stroke="none" transform="matrix(1,0,0,1,206.8775,178.2955)" style="fill-opacity: 1; pointer-events: visible;" class="DimensionMark"><polygon points="-5,-5,0,0,-5,5"/></g><g id="mark3" fill="#000000" stroke="none" transform="matrix(1,0,0,1,103.4387,356.591)" style="fill-opacity: 1; pointer-events: visible;" class="DimensionMark"><polygon points="-5,-5,0,0,5,-5"/></g><g id="mark4" fill="#000000" stroke="none" transform="matrix(1,0,0,1,0,178.2955)" style="fill-opacity: 1; pointer-events: visible;" class="DimensionMark"><polygon points="5,5,0,0,5,-5"/></g></g><g transform="matrix(1,0,0,1,88.178,200.0905)" class="SpaceDimensionsLabel" style="display: block;"><g id="NameLabel" style="display: block;" class="TextLabel NameLabel"><text x="0" y="0em" fill="#000000" stroke="none" style="font-family: Verdana; font-size: 33px; fill-opacity: 1; cursor: default;">VAR</text></g><g id="DimensionMeasureLabel" transform="matrix(1,0,0,1,-105.875,79.3594)" style="display: none;" class="TextLabel DimensionMeasureLabel"><text x="42.171875" y="-1.2em" fill="#000000" stroke="none" style="font-family: Verdana; font-size: 33px; fill-opacity: 1; cursor: default;">6'9" x 11'8"</text><text x="0" y="0em" fill="#000000" stroke="none" style="font-family: Verdana; font-size: 33px; fill-opacity: 1; cursor: default;">2.07 m x 3.57 m</text></g></g></g></g><g id="744c56f7-c6ec-4742-9dd4-9c77c5cc920c" fill="#ffffff" stroke="#ffffff" style="fill-opacity: 1; stroke-opacity: 1; stroke-width: 0.2;" class="Space Bath"><polygon points="1119.29,548.48 1090.29,548.48 1090.29,603.30 991.86,603.30 991.86,423.11 1119.29,423.11 "/><g transform="matrix(1,0,0,1,991.8578,423.1108)" class="Dimension"><g transform="matrix(1,0,0,1,0,0)" style="display: none;" class="Visual"><g id="mark1" fill="#000000" stroke="none" transform="matrix(1,0,0,1,63.7144,0)" style="fill-opacity: 1; pointer-events: visible;" class="DimensionMark"><polygon points="-5,5,0,0,5,5"/></g><g id="mark2" fill="#000000" stroke="none" transform="matrix(1,0,0,1,127.4288,90.0951)" style="fill-opacity: 1; pointer-events: visible;" class="DimensionMark"><polygon points="-5,-5,0,0,-5,5"/></g><g id="mark3" fill="#000000" stroke="none" transform="matrix(1,0,0,1,63.7144,180.1902)" style="fill-opacity: 1; pointer-events: visible;" class="DimensionMark"><polygon points="-5,-5,0,0,5,-5"/></g><g id="mark4" fill="#000000" stroke="none" transform="matrix(1,0,0,1,0,90.0951)" style="fill-opacity: 1; pointer-events: visible;" class="DimensionMark"><polygon points="5,5,0,0,5,-5"/></g></g><g transform="matrix(1,0,0,1,31.921,98.0512)" class="SpaceDimensionsLabel" style="display: block;"><g id="NameLabel" style="display: block;" class="TextLabel NameLabel"><text x="0" y="0em" fill="#000000" stroke="none" style="font-family: Verdana; font-size: 33px; fill-opacity: 1; cursor: default;">WC</text></g><g id="DimensionMeasureLabel" transform="matrix(1,0,0,1,-112.1406,79.3594)" style="display: none;" class="TextLabel DimensionMeasureLabel"><text x="42.171875" y="-1.2em" fill="#000000" stroke="none" style="font-family: Verdana; font-size: 33px; fill-opacity: 1; cursor: default;">4'2" x 5'11"</text><text x="0" y="0em" fill="#000000" stroke="none" style="font-family: Verdana; font-size: 33px; fill-opacity: 1; cursor: default;">1.27 m x 1.80 m</text></g></g></g></g><g id="efa4ca8d-4f89-42b9-8fe3-8880230c650a" fill="#ffffff" stroke="#ffffff" style="fill-opacity: 1; stroke-opacity: 1; stroke-width: 0.2;" class="Space Undefined"><polygon points="1114.09,338.12 1119.29,338.12 1119.29,407.11 991.86,407.11 991.86,229.62 1114.09,229.62 "/><g transform="matrix(1,0,0,1,991.8578,229.6193)" class="Dimension"><g transform="matrix(1,0,0,1,0,0)" style="display: none;" class="Visual"><g id="mark1" fill="#000000" stroke="none" transform="matrix(1,0,0,1,63.7144,0)" style="fill-opacity: 1; pointer-events: visible;" class="DimensionMark"><polygon points="-5,5,0,0,5,5"/></g><g id="mark2" fill="#000000" stroke="none" transform="matrix(1,0,0,1,122.2296,88.7457)" style="fill-opacity: 1; pointer-events: visible;" class="DimensionMark"><polygon points="-5,-5,0,0,-5,5"/></g><g id="mark3" fill="#000000" stroke="none" transform="matrix(1,0,0,1,63.7144,177.4915)" style="fill-opacity: 1; pointer-events: visible;" class="DimensionMark"><polygon points="-5,-5,0,0,5,-5"/></g><g id="mark4" fill="#000000" stroke="none" transform="matrix(1,0,0,1,0,88.7457)" style="fill-opacity: 1; pointer-events: visible;" class="DimensionMark"><polygon points="5,5,0,0,5,-5"/></g></g><g transform="matrix(1,0,0,1,-39.2414,105.0869)" class="SpaceDimensionsLabel"><g id="NameLabel" style="display: block;" class="TextLabel NameLabel"><text x="0" y="0em" fill="#000000" stroke="none" style="font-family: Verdana; font-size: 33px; fill-opacity: 1; cursor: default;">UNDEFINED</text></g><g id="DimensionMeasureLabel" transform="matrix(1,0,0,1,-40.5156,79.3594)" style="display: none;" class="TextLabel DimensionMeasureLabel"><text x="42.171875" y="-1.2em" fill="#000000" stroke="none" style="font-family: Verdana; font-size: 33px; fill-opacity: 1; cursor: default;">4'0" x 5'10"</text><text x="0" y="0em" fill="#000000" stroke="none" style="font-family: Verdana; font-size: 33px; fill-opacity: 1; cursor: default;">1.22 m x 1.77 m</text></g></g></g></g><g id="Wall" fill="#000000" stroke="#000000" style="fill-opacity: 1; stroke-opacity: 1; stroke-width: 0.2;" class="Wall External"><polygon points="1513.47,1001.34 241.19,1001.34 216.19,1026.34 1538.47,1026.34 "/><g id="Window" fill="#f0f0ff" stroke="#000000" style="fill-opacity: 1; stroke-width: 1; stroke-opacity: 1;" class="Window Regular"><polygon points="1389.15,1001.34 1291.79,1001.34 1291.79,1026.34 1389.15,1026.34 "/><g id="Glass" class="Glass"><polygon points="1389.15,1001.34 1291.79,1001.34 1291.79,1026.34 1389.15,1026.34 "/></g><g id="Panel" class="Panel"><line x1="1381.6480892332124" x2="1299.2891575269032" y1="1013.8418225816263" y2="1013.8418225816263"/><line x1="1381.6480892332124" x2="1381.6480892332124" y1="1001.3418225816263" y2="1026.3418225816263"/><line x1="1299.2891575269032" x2="1299.2891575269032" y1="1001.3418225816263" y2="1026.3418225816263"/></g></g><g id="Window" fill="#f0f0ff" stroke="#000000" style="fill-opacity: 1; stroke-width: 1; stroke-opacity: 1;" class="Window Regular"><polygon points="464.64,1001.34 367.92,1001.34 367.92,1026.34 464.64,1026.34 "/><g id="Glass" class="Glass"><polygon points="464.64,1001.34 367.92,1001.34 367.92,1026.34 464.64,1026.34 "/></g><g id="Panel" class="Panel"><line x1="457.1361922321744" x2="375.4200398555631" y1="1013.8418225816263" y2="1013.8418225816263"/><line x1="457.1361922321744" x2="457.1361922321744" y1="1001.3418225816264" y2="1026.3418225816263"/><line x1="375.4200398555631" x2="375.4200398555631" y1="1001.3418225816264" y2="1026.3418225816263"/></g></g></g><g id="Wall" fill="#000000" stroke="#000000" style="fill-opacity: 1; stroke-opacity: 1; stroke-width: 0.2;" class="Wall External"><polygon points="241.19,1001.34 241.19,229.62 216.19,204.62 216.19,1026.34 "/><g id="Window" fill="#f0f0ff" stroke="#000000" style="fill-opacity: 1; stroke-width: 1; stroke-opacity: 1;" class="Window Regular"><polygon points="241.19,784.56 241.19,669.25 216.19,669.25 216.19,784.56 "/><g id="Glass" class="Glass"><polygon points="241.19,784.56 241.19,669.25 216.19,669.25 216.19,784.56 "/></g><g id="Panel" class="Panel"><line x1="228.6887682484348" x2="228.6887682484348" y1="777.0633550260341" y2="676.7455342762303"/><line x1="241.1887682484348" x2="216.1887682484348" y1="777.0633550260341" y2="777.0633550260341"/><line x1="241.1887682484348" x2="216.1887682484348" y1="676.7455342762303" y2="676.7455342762303"/></g></g><g id="Door" fill="#ffffff" stroke="#000000" style="fill-opacity: 1; stroke-width: 1; stroke-opacity: 1;" class="Door Swing Beside"><polygon points="241.19,652.68 241.19,580.53 216.19,580.53 216.19,652.68 "/><g id="Threshold" class="Threshold"><polygon points="241.19,652.68 241.19,580.53 216.19,580.53 216.19,652.68 "/></g><g id="Panel" fill="none" style="" class="Panel Right Negative"><g id="PanelArea" fill="none" stroke="none" style="" class="PanelArea"><polygon points="241.19,652.68 241.19,580.53 216.19,580.53 216.19,652.68 "/></g><path d="M241.19,580.53 q72.15,0.00 72.15,72.15 l-72.15,0.00Z"/></g></g><g id="Window" fill="#f0f0ff" stroke="#000000" style="fill-opacity: 1; stroke-width: 1; stroke-opacity: 1;" class="Window Regular"><polygon points="241.19,569.16 241.19,453.48 216.19,453.48 216.19,569.16 "/><g id="Glass" class="Glass"><polygon points="241.19,569.16 241.19,453.48 216.19,453.48 216.19,569.16 "/></g><g id="Panel" class="Panel"><line x1="228.68876824843477" x2="228.68876824843477" y1="561.6558419617868" y2="460.9786371789056"/><line x1="241.18876824843477" x2="216.18876824843477" y1="561.6558419617868" y2="561.6558419617868"/><line x1="241.18876824843477" x2="216.18876824843477" y1="460.9786371789056" y2="460.9786371789056"/></g></g></g><g id="Wall" fill="#000000" stroke="#000000" style="fill-opacity: 1; stroke-opacity: 1; stroke-width: 0.2;" class="Wall External"><polygon points="241.19,229.62 1513.47,229.62 1538.47,204.62 216.19,204.62 "/><g id="Window" fill="#f0f0ff" stroke="#000000" style="fill-opacity: 1; stroke-width: 1; stroke-opacity: 1;" class="Window Regular"><polygon points="369.84,229.62 467.20,229.62 467.20,204.62 369.84,204.62 "/><g id="Glass" class="Glass"><polygon points="369.84,229.62 467.20,229.62 467.20,204.62 369.84,204.62 "/></g><g id="Panel" class="Panel"><line x1="377.3376943357108" x2="459.69662604202006" y1="217.11928167038658" y2="217.11928167038658"/><line x1="377.3376943357108" x2="377.3376943357108" y1="229.61928167038658" y2="204.61928167038658"/><line x1="459.69662604202006" x2="459.69662604202006" y1="229.61928167038658" y2="204.61928167038658"/></g></g><g id="Window" fill="#f0f0ff" stroke="#000000" style="fill-opacity: 1; stroke-width: 1; stroke-opacity: 1;" class="Window Regular"><polygon points="1289.64,229.62 1389.15,229.62 1389.15,204.62 1289.64,204.62 "/><g id="Glass" class="Glass"><polygon points="1289.64,229.62 1389.15,229.62 1389.15,204.62 1289.64,204.62 "/></g><g id="Panel" class="Panel"><line x1="1297.1375773546688" x2="1381.6480876622227" y1="217.1192816703864" y2="217.1192816703864"/><line x1="1297.1375773546688" x2="1297.1375773546688" y1="229.6192816703864" y2="204.6192816703864"/><line x1="1381.6480876622227" x2="1381.6480876622227" y1="229.6192816703864" y2="204.6192816703864"/></g></g></g><g id="Wall" fill="#000000" stroke="#000000" style="fill-opacity: 1; stroke-opacity: 1; stroke-width: 0.2;" class="Wall External"><polygon points="1513.47,229.62 1513.47,1001.34 1538.47,1026.34 1538.47,204.62 "/><g id="Window" fill="#f0f0ff" stroke="#000000" style="fill-opacity: 1; stroke-width: 1; stroke-opacity: 1;" class="Window Regular"><polygon points="1513.47,405.15 1513.47,520.80 1538.47,520.80 1538.47,405.15 "/><g id="Glass" class="Glass"><polygon points="1513.47,405.15 1513.47,520.80 1538.47,520.80 1538.47,405.15 "/></g><g id="Panel" class="Panel"><line x1="1525.9747114516204" x2="1525.9747114516204" y1="412.651452861406" y2="513.2988078561473"/><line x1="1513.4747114516204" x2="1538.4747114516204" y1="412.651452861406" y2="412.651452861406"/><line x1="1513.4747114516204" x2="1538.4747114516204" y1="513.2988078561473" y2="513.2988078561473"/></g></g><g id="Window" fill="#f0f0ff" stroke="#000000" style="fill-opacity: 1; stroke-width: 1; stroke-opacity: 1;" class="Window Regular"><polygon points="1513.47,704.76 1513.47,822.56 1538.47,822.56 1538.47,704.76 "/><g id="Glass" class="Glass"><polygon points="1513.47,704.76 1513.47,822.56 1538.47,822.56 1538.47,704.76 "/></g><g id="Panel" class="Panel"><line x1="1525.9747114516206" x2="1525.9747114516206" y1="712.2587542488393" y2="815.0576826669703"/><line x1="1513.4747114516206" x2="1538.4747114516206" y1="712.2587542488393" y2="712.2587542488393"/><line x1="1513.4747114516206" x2="1538.4747114516206" y1="815.0576826669703" y2="815.0576826669703"/></g></g></g><g id="Wall" fill="#000000" stroke="#000000" style="fill-opacity: 1; stroke-opacity: 1; stroke-width: 0.2;" class="Wall"><polygon points="1187.54,1026.34 1187.54,687.53 1176.54,690.84 1176.54,1026.34 "/><g id="Door" fill="#ffffff" stroke="#000000" style="fill-opacity: 1; stroke-width: 1; stroke-opacity: 1;" class="Door Swing Beside"><polygon points="1187.54,762.05 1187.54,695.54 1176.54,695.54 1176.54,762.05 "/><g id="Threshold" class="Threshold"><polygon points="1187.54,762.05 1187.54,695.54 1176.54,695.54 1176.54,762.05 "/></g><g id="Panel" fill="none" style="" class="Panel Left Negative"><g id="PanelArea" fill="none" stroke="none" style="" class="PanelArea"><polygon points="1187.54,762.05 1187.54,695.54 1176.54,695.54 1176.54,762.05 "/></g><path d="M1187.54,762.05 q66.51,0.00 66.51,-66.51 l-66.51,0.00Z"/></g></g></g><g id="Wall" fill="#000000" stroke="#000000" style="fill-opacity: 1; stroke-opacity: 1; stroke-width: 0.2;" class="Wall"><polygon points="1187.54,687.53 1130.29,600.88 1119.29,604.18 1176.54,690.84 "/><g id="Door" fill="#ffffff" stroke="#000000" style="fill-opacity: 1; stroke-width: 1; stroke-opacity: 1;" class="Door Swing Beside"><polygon points="1181.12,677.81 1139.54,614.88 1130.36,620.94 1171.94,683.88 "/><g id="Threshold" class="Threshold"><polygon points="1181.12,677.81 1139.54,614.88 1130.36,620.94 1171.94,683.88 "/></g><g id="Panel" fill="none" style="" class="Panel Right Negative"><g id="PanelArea" fill="none" stroke="none" style="" class="PanelArea"><polygon points="1181.12,677.81 1139.54,614.88 1130.36,620.94 1171.94,683.88 "/></g><path d="M1139.54,614.88 q62.94,-41.59 104.53,21.35 l-62.94,41.59Z"/></g></g></g><g id="Wall" fill="#000000" stroke="#000000" style="fill-opacity: 1; stroke-opacity: 1; stroke-width: 0.2;" class="Wall"><polygon points="1130.29,600.88 1130.29,338.12 1119.29,338.12 1119.29,604.18 "/><g id="Door" fill="#ffffff" stroke="#000000" style="fill-opacity: 1; stroke-width: 1; stroke-opacity: 1;" class="Door Swing Beside"><polygon points="1130.29,401.72 1130.29,344.83 1119.29,344.83 1119.29,401.72 "/><g id="Threshold" class="Threshold"><polygon points="1130.29,401.72 1130.29,344.83 1119.29,344.83 1119.29,401.72 "/></g><g id="Panel" fill="none" style="" class="Panel Right Positive"><g id="PanelArea" fill="none" stroke="none" style="" class="PanelArea"><polygon points="1130.29,401.72 1130.29,344.83 1119.29,344.83 1119.29,401.72 "/></g><path d="M1119.29,401.72 q-56.89,0.00 -56.89,-56.89 l56.89,0.00Z"/></g></g></g><g id="Wall" fill="#000000" stroke="#000000" style="fill-opacity: 1; stroke-opacity: 1; stroke-width: 0.2;" class="Wall"><polygon points="1130.29,338.12 1130.29,204.62 1114.09,204.62 1114.09,338.12 "/></g><g id="Wall" fill="#000000" stroke="#000000" style="fill-opacity: 1; stroke-opacity: 1; stroke-width: 0.2;" class="Wall"><polygon points="1176.54,691.51 1538.47,691.51 1538.47,681.51 1176.54,681.51 "/></g><g id="Wall" fill="#000000" stroke="#000000" style="fill-opacity: 1; stroke-opacity: 1; stroke-width: 0.2;" class="Wall"><polygon points="1130.29,603.30 991.86,603.30 975.86,613.30 1130.29,613.30 "/><g id="Door" fill="#ffffff" stroke="#000000" style="fill-opacity: 1; stroke-width: 1; stroke-opacity: 1;" class="Door Swing Beside"><polygon points="1055.75,603.30 998.81,603.30 998.81,613.30 1055.75,613.30 "/><g id="Threshold" class="Threshold"><polygon points="1055.75,603.30 998.81,603.30 998.81,613.30 1055.75,613.30 "/></g><g id="Panel" fill="none" style="" class="Panel Right Positive"><g id="PanelArea" fill="none" stroke="none" style="" class="PanelArea"><polygon points="1055.75,603.30 998.81,603.30 998.81,613.30 1055.75,613.30 "/></g><path d="M1055.75,613.30 q0.00,56.94 -56.94,56.94 l0.00,-56.94Z"/></g></g></g><g id="Wall" fill="#000000" stroke="#000000" style="fill-opacity: 1; stroke-opacity: 1; stroke-width: 0.2;" class="Wall"><polygon points="991.86,613.30 991.86,204.62 975.86,204.62 975.86,613.30 "/></g><g id="Wall" fill="#000000" stroke="#000000" style="fill-opacity: 1; stroke-opacity: 1; stroke-width: 0.2;" class="Wall"><polygon points="975.86,407.11 1130.29,407.11 1130.29,423.11 975.86,423.11 "/></g><g id="Wall" fill="#000000" stroke="#000000" style="fill-opacity: 1; stroke-opacity: 1; stroke-width: 0.2;" class="Wall"><polygon points="1090.29,613.30 1090.29,548.48 1119.56,548.48 1119.56,613.30 "/></g><g id="Wall" fill="#000000" stroke="#000000" style="fill-opacity: 1; stroke-opacity: 1; stroke-width: 0.2;" class="Wall"><polygon points="975.86,613.30 975.86,666.31 991.86,666.31 991.86,613.30 "/></g><g id="Wall" fill="#000000" stroke="#000000" style="fill-opacity: 1; stroke-opacity: 1; stroke-width: 0.2;" class="Wall"><polygon points="975.86,914.82 975.86,1026.34 991.86,1026.34 991.86,914.82 "/></g><g id="Wall" fill="#000000" stroke="#000000" style="fill-opacity: 1; stroke-opacity: 1; stroke-width: 0.2;" class="Wall"><polygon points="547.91,548.48 547.91,628.49 505.27,628.49 505.27,548.48 "/></g><g id="Wall" fill="#000000" stroke="#000000" style="fill-opacity: 1; stroke-opacity: 1; stroke-width: 0.2;" class="Wall"><polygon points="490.06,615.49 505.27,615.49 505.27,628.49 490.06,628.49 "/></g><g id="Wall" fill="#000000" stroke="#000000" style="fill-opacity: 1; stroke-opacity: 1; stroke-width: 0.2;" class="Wall"><polygon points="547.91,628.49 547.91,659.86 537.91,668.86 537.91,628.49 "/></g><g id="Wall" fill="#000000" stroke="#000000" style="fill-opacity: 1; stroke-opacity: 1; stroke-width: 0.2;" class="Wall"><polygon points="537.91,668.86 699.53,668.86 694.88,659.86 547.91,659.86 "/></g><g id="Wall" fill="#000000" stroke="#000000" style="fill-opacity: 1; stroke-opacity: 1; stroke-width: 0.2;" class="Wall"><polygon points="699.53,668.86 768.98,598.33 759.98,593.75 694.88,659.86 "/><g id="Door" fill="#ffffff" stroke="#000000" style="fill-opacity: 1; stroke-width: 1; stroke-opacity: 1;" class="Door Swing Beside"><polygon points="711.15,657.06 764.62,602.76 757.76,596.00 704.29,650.30 "/><g id="Threshold" class="Threshold"><polygon points="711.15,657.06 764.62,602.76 757.76,596.00 704.29,650.30 "/></g><g id="Panel" fill="none" style="" class="Panel Left Positive"><g id="PanelArea" fill="none" stroke="none" style="" class="PanelArea"><polygon points="711.15,657.06 764.62,602.76 757.76,596.00 704.29,650.30 "/></g><path d="M757.76,596.00 q-54.30,-53.47 -107.77,0.83 l54.30,53.47Z"/></g></g></g><g id="Wall" fill="#000000" stroke="#000000" style="fill-opacity: 1; stroke-opacity: 1; stroke-width: 0.2;" class="Wall"><polygon points="768.98,598.33 768.98,204.62 759.98,204.62 759.98,593.75 "/></g><g id="Wall" fill="#000000" stroke="#000000" style="fill-opacity: 1; stroke-opacity: 1; stroke-width: 0.2;" class="Wall"><polygon points="699.35,659.86 699.35,1026.34 708.35,1026.34 708.35,659.86 "/><g id="Door" fill="#ffffff" stroke="#000000" style="fill-opacity: 1; stroke-width: 1; stroke-opacity: 1;" class="Door Swing Beside"><polygon points="699.35,673.04 699.35,749.82 708.35,749.82 708.35,673.04 "/><g id="Threshold" class="Threshold"><polygon points="699.35,673.04 699.35,749.82 708.35,749.82 708.35,673.04 "/></g><g id="Panel" fill="none" style="" class="Panel Right Negative"><g id="PanelArea" fill="none" stroke="none" style="" class="PanelArea"><polygon points="699.35,673.04 699.35,749.82 708.35,749.82 708.35,673.04 "/></g><path d="M699.35,749.82 q-76.79,0.00 -76.79,-76.79 l76.79,0.00Z"/></g></g></g><g id="Wall" fill="#000000" stroke="#000000" style="fill-opacity: 1; stroke-opacity: 1; stroke-width: 0.2;" class="Wall"><polygon points="390.44,669.06 216.19,669.06 216.19,660.06 387.63,660.06 "/></g><g id="Railing" fill="#ffffff" stroke="#000000" style="fill-opacity: 1; stroke-opacity: 1; stroke-width: 0.2;" class="Railing"><polygon points="216.19,659.86 185.60,659.86 180.60,664.86 216.19,664.86 " style="stroke-dasharray: 30.5924, 7.07107, 40.5924;"/></g><g id="Railing" fill="#ffffff" stroke="#000000" style="fill-opacity: 1; stroke-opacity: 1; stroke-width: 0.2;" class="Railing"><polygon points="185.60,659.86 185.60,574.45 180.60,569.45 180.60,664.86 " style="stroke-dasharray: 85.4151, 7.07107, 95.4151, 7.07107;"/></g><g id="Railing" fill="#ffffff" stroke="#000000" style="fill-opacity: 1; stroke-opacity: 1; stroke-width: 0.2;" class="Railing"><polygon points="185.60,574.45 216.19,574.45 216.19,569.45 180.60,569.45 " style="stroke-dasharray: 71.1848, 7.07107;"/></g><g id="Wall" fill="#000000" stroke="#000000" style="fill-opacity: 1; stroke-opacity: 1; stroke-width: 0.2;" class="Wall"><polygon points="759.98,586.21 991.86,586.21 991.86,595.21 759.98,595.21 "/><g id="Door" fill="#ffffff" stroke="#000000" style="fill-opacity: 1; stroke-width: 1; stroke-opacity: 1;" class="Door Swing Beside"><polygon points="843.44,586.21 910.69,586.21 910.69,595.21 843.44,595.21 "/><g id="Threshold" class="Threshold"><polygon points="843.44,586.21 910.69,586.21 910.69,595.21 843.44,595.21 "/></g><g id="Panel" fill="none" style="" class="Panel Left Negative"><g id="PanelArea" fill="none" stroke="none" style="" class="PanelArea"><polygon points="843.44,586.21 910.69,586.21 910.69,595.21 843.44,595.21 "/></g><path d="M843.44,586.21 q0.00,-67.25 67.25,-67.25 l0.00,67.25Z"/></g></g></g><g id="Stairs" fill="#ffffff" stroke="#000000" style="fill-opacity: 1; stroke-opacity: 1;" class="Stairs"><g id="Flight" class="Flight"><polygon points="991.86,914.82 1097.68,914.82 1097.68,1001.40 991.86,1001.40 "/><g class="WalkinLine "><path fill="none" stroke="#d3d3d3" d="M991.86,958.11 L1097.68,958.11 " style="pointer-events: none; marker-end: none;"/><defs><marker viewBox="0 0 12 12" markerWidth="12" markerHeight="12" orient="auto" refX="11" refY="6" id="Marker2" fill="#d3d3d3" stroke="#d3d3d3" style="pointer-events: none;"><polygon points="0.00,0.00 0.00,12.00 10.00,6.00 0.00,0.00 "/></marker></defs></g><g id="Steps" class="Steps"><line x1="991.8577940619649" x2="991.8577940619649" y1="914.8247272295791" y2="1001.403061125264"/><line x1="1018.3122100984627" x2="1018.3122100984627" y1="914.8247272295791" y2="1001.403061125264"/><line x1="1044.7666261349605" x2="1044.7666261349605" y1="914.8247272295791" y2="1001.403061125264"/><line x1="1071.2210421714583" x2="1071.2210421714583" y1="914.8247272295791" y2="1001.403061125264"/><line x1="1097.6754582079561" x2="1097.6754582079561" y1="914.8247272295791" y2="1001.403061125264"/></g></g><g id="Winding" class="Winding"><polygon points="1097.68,914.82 1097.68,1001.40 1176.54,1001.40 1176.54,914.82 "/><g class="WalkinLine "><path fill="none" stroke="#d3d3d3" d="M1097.68,958.11 L1137.11,958.11 L1137.11,914.82 " style="pointer-events: none; marker-end: none;"/><defs><marker viewBox="0 0 12 12" markerWidth="12" markerHeight="12" orient="auto" refX="11" refY="6" id="Marker3" fill="#d3d3d3" stroke="#d3d3d3" style="pointer-events: none;"><polygon points="0.00,0.00 0.00,12.00 10.00,6.00 0.00,0.00 "/></marker></defs></g><g id="Steps" class="Steps"><line x1="1097.675458207956" x2="1097.6754582079561" y1="914.8199922776078" y2="1001.403061125264"/><line x1="1097.675458207956" x2="1137.1097830917804" y1="914.8199922776078" y2="1001.4030686485695"/><line x1="1097.675458207956" x2="1176.5441079756047" y1="914.8199922776078" y2="958.1115417480469"/><line x1="1097.675458207956" x2="1176.5441079756044" y1="914.8199922776078" y2="914.8200073242188"/></g></g><g id="Flight" class="Flight"><polygon points="1176.54,914.82 1176.54,789.39 1097.68,789.39 1097.68,914.82 "/><g class="WalkinLine "><path fill="none" stroke="#d3d3d3" d="M1137.11,914.82 L1137.11,789.39 " style="pointer-events: none; marker-end: url(&quot;#Marker4&quot;);"/><defs><marker viewBox="0 0 12 12" markerWidth="12" markerHeight="12" orient="auto" refX="11" refY="6" id="Marker4" fill="#d3d3d3" stroke="#d3d3d3" style="pointer-events: none;"><polygon points="0.00,0.00 0.00,12.00 10.00,6.00 0.00,0.00 "/></marker></defs></g><g id="Steps" class="Steps"><line x1="1176.5441079756044" x2="1097.6754556318547" y1="914.8200073242188" y2="914.8200073242188"/><line x1="1176.544099857046" x2="1097.6754475132961" y1="889.7346265757466" y2="889.7346265757466"/><line x1="1176.5440917384876" x2="1097.6754393947379" y1="864.6492458272743" y2="864.6492458272743"/><line x1="1176.544083619929" x2="1097.6754312761793" y1="839.5638650788021" y2="839.5638650788021"/><line x1="1176.5440755013708" x2="1097.675423157621" y1="814.4784843303298" y2="814.4784843303298"/><line x1="1176.5440673828123" x2="1097.6754150390625" y1="789.3931035818576" y2="789.3931035818576"/></g></g></g><g id="Railing" fill="#ffffff" stroke="#000000" style="fill-opacity: 1; stroke-opacity: 1; stroke-width: 0.2;" class="Railing"><polygon points="991.86,914.82 1090.68,914.82 1097.68,921.82 991.86,921.82 " style="stroke-dasharray: 98.8176, 9.89927, 112.817;"/></g><g id="Railing" fill="#ffffff" stroke="#000000" style="fill-opacity: 1; stroke-opacity: 1; stroke-width: 0.2;" class="Railing"><polygon points="1097.68,921.82 1097.68,789.39 1090.68,789.39 1090.68,914.82 " style="stroke-dasharray: 264.86, 9.89927;"/></g><g id="FixedFurnitureSet" transform="matrix(-1,0,0,-1,490.0641,625.5776)" class="FixedFurnitureSet" fill="#ffffff" stroke="#000000" style="fill-opacity: 0.4; stroke-opacity: 0.4;"><g class="FixedFurniture Closet" fill="#ffffff" stroke="#000000" transform="matrix(1,0,0,1,0,0)" style="fill-opacity: 1; stroke-opacity: 1;">
        <g class="BoundaryPolygon">
            <polygon points="0.00,0.00 49.72,0.00 49.72,47.43 0.00,47.43 "/>
        </g>
        <g class="Direction" fill-opacity="0.9" style="display: none;">
            <polygon points="26.11,43.24 26.11,32.62 23.10,32.62 23.10,43.24 19.30,43.24 24.60,48.54 29.90,43.24 26.11,43.24 " fill="#444444"/>
        </g> 
        <g class="Name" fill-opacity="0.9" style="display: none;">
            <text transform="translate(3 12)" font-size="12" font-family="Verdana, Sans-Serif">CL</text>
        </g>
        <desc>Width:60 Height:200 Depth:60 Elevation:0</desc>
    </g><g class="FixedFurniture Closet" fill="#ffffff" stroke="#000000" transform="matrix(1,0,0,1,49.7189,0)" style="fill-opacity: 1; stroke-opacity: 1;">
        <g class="BoundaryPolygon">
            <polygon points="0.00,0.00 49.72,0.00 49.72,47.43 0.00,47.43 "/>
        </g>
        <g class="Direction" fill-opacity="0.9" style="display: none;">
            <polygon points="26.11,43.24 26.11,32.62 23.10,32.62 23.10,43.24 19.30,43.24 24.60,48.54 29.90,43.24 26.11,43.24 " fill="#444444"/>
        </g> 
        <g class="Name" fill-opacity="0.9" style="display: none;">
            <text transform="translate(3 12)" font-size="12" font-family="Verdana, Sans-Serif">CL</text>
        </g>
        <desc>Width:60 Height:200 Depth:60 Elevation:0</desc>
     </g></g><g id="FixedFurnitureSet" transform="matrix(1,0,0,1,390.6252,625.6244)" fill="#ffffff" stroke="#000000" style="fill-opacity: 0.4; stroke-opacity: 0.4;" class="FixedFurnitureSet"><g class="FixedFurniture Closet" fill="#ffffff" stroke="#000000" transform="matrix(1,0,0,1,0,0)" style="fill-opacity: 1; stroke-opacity: 1;">
        <g class="BoundaryPolygon">
            <polygon points="0.00,0.00 49.72,0.00 49.72,47.43 0.00,47.43 "/>
        </g>
        <g class="Direction" fill-opacity="0.9" style="display: none;">
            <polygon points="26.11,43.24 26.11,32.62 23.10,32.62 23.10,43.24 19.30,43.24 24.60,48.54 29.90,43.24 26.11,43.24 " fill="#444444"/>
        </g> 
        <g class="Name" fill-opacity="0.9" style="display: none;">
            <text transform="translate(3 12)" font-size="12" font-family="Verdana, Sans-Serif">CL</text>
        </g>
        <desc>Width:60 Height:200 Depth:60 Elevation:0</desc>
    </g><g class="FixedFurniture Closet" fill="#ffffff" stroke="#000000" transform="matrix(1,0,0,1,49.7189,0)" style="fill-opacity: 1; stroke-opacity: 1;">
        <g class="BoundaryPolygon">
            <polygon points="0.00,0.00 49.72,0.00 49.72,47.43 0.00,47.43 "/>
        </g>
        <g class="Direction" fill-opacity="0.9" style="display: none;">
            <polygon points="26.11,43.24 26.11,32.62 23.10,32.62 23.10,43.24 19.30,43.24 24.60,48.54 29.90,43.24 26.11,43.24 " fill="#444444"/>
        </g> 
        <g class="Name" fill-opacity="0.9" style="display: none;">
            <text transform="translate(3 12)" font-size="12" font-family="Verdana, Sans-Serif">CL</text>
        </g>
        <desc>Width:60 Height:200 Depth:60 Elevation:0</desc>
     </g></g><g class="FixedFurniture Closet" fill="#ffffff" stroke="#000000" transform="matrix(1,0,0,1,490.0641,628.5869)" style="fill-opacity: 1; stroke-opacity: 1;">
        <g class="BoundaryPolygon">
            <polygon points="0.00,0.00 47.47,0.00 47.47,44.47 0.00,44.47 "/>
        </g>
        <g class="Direction" fill-opacity="0.9" style="display: none;">
            <polygon points="24.93,40.54 24.93,29.92 21.92,29.92 21.92,40.54 18.12,40.54 23.42,45.84 28.72,40.54 24.93,40.54 " fill="#444444"/>
        </g> 
        <g class="Name" fill-opacity="0.9" style="display: none;">
            <text transform="translate(3 12)" font-size="12" font-family="Verdana, Sans-Serif">CL</text>
        </g>
        <desc>Width:60 Height:200 Depth:60 Elevation:0</desc>
     </g><g class="FixedFurniture Closet" fill="#ffffff" stroke="#000000" transform="matrix(0,-1,1,0,768.9803,586.2103)" style="fill-opacity: 1; stroke-opacity: 1;">
        <g class="BoundaryPolygon">
            <polygon points="0.00,0.00 241.48,0.00 241.48,54.66 0.00,54.66 "/>
        </g>
        <g class="Direction" fill-opacity="0.9" style="display: none;">
            <polygon points="123.78,49.67 123.78,39.05 120.77,39.05 120.77,49.67 116.97,49.67 122.27,54.97 127.57,49.67 123.78,49.67 " fill="#444444"/>
        </g> 
        <g class="Name" fill-opacity="0.9" style="display: none;">
            <text transform="translate(3 12)" font-size="12" font-family="Verdana, Sans-Serif">CL</text>
        </g>
        <desc>Width:120 Height:200 Depth:60 Elevation:0</desc>
     </g><g class="FixedFurniture Closet" fill="#ffffff" stroke="#000000" transform="matrix(-1,0,0,-1,1513.4747,681.4275)" style="fill-opacity: 1; stroke-opacity: 1;">
        <g class="BoundaryPolygon">
            <polygon points="0.00,0.00 175.56,0.00 175.56,58.62 0.00,58.62 "/>
        </g>
        <g class="Direction" fill-opacity="0.9" style="display: none;">
            <polygon points="92.20,53.44 92.20,42.82 89.19,42.82 89.19,53.44 85.39,53.44 90.69,58.74 95.99,53.44 92.20,53.44 " fill="#444444"/>
        </g> 
        <g class="Name" fill-opacity="0.9" style="display: none;">
            <text transform="translate(3 12)" font-size="12" font-family="Verdana, Sans-Serif">CL</text>
        </g>
        <desc>Width:60 Height:200 Depth:60 Elevation:0</desc>
     </g><g transform="matrix(1,0,0,1,238.4986,888.0001)" class="FixedFurniture Misc" fill="none" stroke="#000000" style="fill-opacity: 1; stroke-opacity: 1; stroke-width: 1.8; stroke-dasharray: 5, 5;"><desc>Width:120 Height:200 Depth:60 Elevation:0</desc><g class="BoundaryPolygon"><path d="M0.00,0.00 L850.41,-0.00 "/></g></g><g transform="matrix(1,0,0,1,240.456,345.5534)" class="FixedFurniture Misc" fill="none" stroke="#000000" style="fill-opacity: 1; stroke-opacity: 1; stroke-width: 1.8; stroke-dasharray: 5, 5;"><desc>Width:120 Height:200 Depth:60 Elevation:0</desc><g class="BoundaryPolygon"><path d="M0.00,0.00 L878.52,-0.00 "/></g></g><g id="Wall" fill="#000000" stroke="#000000" style="fill-opacity: 1; stroke-opacity: 1; stroke-width: 0.2;" class="Wall"><polygon points="390.44,669.06 390.44,577.73 387.63,577.73 387.63,660.06 "/></g><g fill="#0000ff" stroke="#0000ff" style="display: none;" class="SelectionControls"><g style="display: none;" class="rotateControl"><circle cx="1370.0307829756048" cy="788.2137837757725" r="5" style="stroke : none; fill-opacity: 0.5; cursor:crosshair"/></g><g style="display: none;" class="ResizeNControl"><circle cx="0" cy="0" r="5" style="stroke : none; fill-opacity: 0.5"/></g><g style="display: none;" class="ResizeNEControl"><circle cx="0" cy="0" r="5" style="stroke : none; fill-opacity: 0.5"/></g><g style="display: none;" class="ResizeEControl"><circle cx="0" cy="0" r="5" style="stroke : none; fill-opacity: 0.5"/></g><g style="display: none;" class="ResizeSEControl"><circle cx="0" cy="0" r="5" style="stroke : none; fill-opacity: 0.5"/></g><g style="display: none;" class="ResizeSControl"><circle cx="0" cy="0" r="5" style="stroke : none; fill-opacity: 0.5"/></g><g style="display: none;" class="ResizeSWControl"><circle cx="0" cy="0" r="5" style="stroke : none; fill-opacity: 0.5"/></g><g style="display: none;" class="ResizeWControl"><circle cx="0" cy="0" r="5" style="stroke : none; fill-opacity: 0.5"/></g><g style="display: none;" class="ResizeNWControl"><circle cx="0" cy="0" r="5" style="stroke : none; fill-opacity: 0.5"/></g><g style="display: none;" class="removeControl"><polygon style="stroke : none; fill-opacity: 0.1" points="1343.73,818.21 1396.33,818.21 1396.33,857.98 1343.73,857.98 "/></g><g style="display: none;" class="copyPasteControl"><polygon style="stroke : none; fill-opacity: 0.1"/></g><g style="display: none;" class="translateControl"><polygon style="stroke : none; fill-opacity: 0.1; cursor:move" points="1343.73,818.21 1396.33,818.21 1396.33,857.98 1343.73,857.98 "/></g></g><g fill="#0000ff" stroke="#0000ff" style="display: none;" class="SelectionControls"><polygon fill="none" stroke="#0000ff" style="" points="1187.54,691.51 1513.47,691.51 1513.47,1001.34 1187.54,1001.34 "/><g style="display: none;" class="rotateControl"><circle cx="1350.5094094892765" cy="661.5056587757725" r="5" style="stroke : none; fill-opacity: 0.5; cursor:crosshair"/></g><g style="display: none;" class="ResizeNControl"><circle cx="0" cy="0" r="5" style="stroke : none; fill-opacity: 0.5"/></g><g style="display: none;" class="ResizeNEControl"><circle cx="0" cy="0" r="5" style="stroke : none; fill-opacity: 0.5"/></g><g style="display: none;" class="ResizeEControl"><circle cx="0" cy="0" r="5" style="stroke : none; fill-opacity: 0.5"/></g><g style="display: none;" class="ResizeSEControl"><circle cx="0" cy="0" r="5" style="stroke : none; fill-opacity: 0.5"/></g><g style="display: none;" class="ResizeSControl"><circle cx="0" cy="0" r="5" style="stroke : none; fill-opacity: 0.5"/></g><g style="display: none;" class="ResizeSWControl"><circle cx="0" cy="0" r="5" style="stroke : none; fill-opacity: 0.5"/></g><g style="display: none;" class="ResizeWControl"><circle cx="0" cy="0" r="5" style="stroke : none; fill-opacity: 0.5"/></g><g style="display: none;" class="ResizeNWControl"><circle cx="0" cy="0" r="5" style="stroke : none; fill-opacity: 0.5"/></g><g style="display: none;" class="removeControl"><polygon style="stroke : none; fill-opacity: 0.1"/></g><g style="display: none;" class="copyPasteControl"><polygon style="stroke : none; fill-opacity: 0.1"/></g><g style="display: none;" class="translateControl"><polygon style="stroke : none; fill-opacity: 0.1; cursor:move"/></g></g></g></g></g></svg>
